<?xml version="1.0" encoding="UTF-8"?>
<svg width="34px" height="34px" viewBox="0 0 34 34" version="1.1" xmlns="http://www.w3.org/2000/svg" xmlns:xlink="http://www.w3.org/1999/xlink">
    <title>all_sports_icon_34px</title>
    <g id="02---Sports-Forecasts" stroke="none" stroke-width="1" fill="none" fill-rule="evenodd">
        <g id="02-elgbet_sb_sportforecasts_1024" transform="translate(-964.000000, -94.000000)" fill-rule="nonzero">
            <g id="sections" transform="translate(306.000000, 74.000000)">
                <g id="section_10" transform="translate(640.000000, 10.000000)">
                    <g id="all_sports_icon_34px" transform="translate(18.000000, 10.000000)">
                        <polygon id="Path" fill="#FF7058" points="20.1166661 27.9791886 13.8833339 27.9791886 14.9458021 25.7125038 15.8666576 23.5874996 18.1333424 23.5874996 19.0541979 25.7125038"></polygon>
                        <path d="M24.0833136,27.9791886 L9.91661865,27.9791886 C9.13744365,27.9791886 8.49994916,28.616683 8.49994916,29.395858 L8.49994916,34 L25.4291428,34 L25.4291428,29.395858 C25.4999831,28.616683 24.8624886,27.9791886 24.0833136,27.9791886 Z" id="Path" fill="#FFD15C"></path>
                        <path d="M19.0541979,25.7125038 C18.4875436,25.9958648 17.9208894,26.2791581 17.3541674,26.4916788 L17.0000339,26.5625191 L16.6458326,26.4208386 C16.0791784,26.2083178 15.5125242,25.9250246 14.9458021,25.6416636 L15.8666576,23.5166593 L18.0625021,23.5166593 L19.0541979,25.7125038 Z" id="Path" fill="#F1543F"></path>
                        <g id="Group" fill="#F8B64C">
                            <path d="M0,3.89580721 L0,6.79998644 C0,13.8833339 4.39168898,19.9749856 10.5541809,22.5250314 C12.5375047,23.3750466 14.7333492,23.8000203 17.0000339,23.8000203 C19.2667186,23.8000203 21.4625631,23.3750466 23.4458869,22.5250314 C29.6083788,19.9750534 34.0000678,13.8833339 34.0000678,6.80005423 L34.0000678,3.89580721 L0,3.89580721 Z M31.166661,6.79998644 C31.166661,10.1999797 29.9625123,13.3166797 27.9083483,15.7958174 C25.2875301,18.9124496 21.3916551,20.9666814 17.0000339,20.9666814 C12.6084127,20.9666814 8.71253771,18.9833576 6.09171949,15.7958174 C4.10839576,13.3874521 2.83340677,10.1999797 2.83340677,6.79998644 L2.83340677,6.72914619 L31.0958208,6.72914619 L31.0958208,6.79998644 L31.166661,6.79998644 Z" id="Shape"></path>
                            <path d="M28.0500288,0 L5.94997119,0 C5.4541572,0 5.09995594,0.424973731 5.09995594,0.850015253 C5.09995594,1.34582924 5.45408941,1.77087076 5.94997119,1.77087076 L28.0500288,1.77087076 C28.5458428,1.77087076 28.9000441,1.34589703 28.9000441,0.920855506 C28.9000441,0.424973731 28.5458428,0 28.0500288,0 Z" id="Path"></path>
                        </g>
                        <path d="M28.0500288,1.77080297 L28.0500288,9.42080466 C28.0500288,16.5041521 23.6583398,22.9500051 17.0000339,25.4999831 C10.341728,22.8791648 5.95003898,16.5041521 5.95003898,9.34996441 L5.95003898,1.77080297 L28.0500288,1.77080297 Z" id="Path" fill="#FFD15C"></path>
                        <polygon id="Path" fill="#FFFFFF" points="17.0000339 4.95834322 18.4874758 9.49164492 23.2333661 9.49164492 19.4083314 12.3249839 20.8250008 16.8583534 17.0000339 14.0250144 13.1749992 16.8583534 14.5916686 12.3249839 10.7666339 9.49164492 15.5125242 9.49164492"></polygon>
                        <rect id="Rectangle" fill="#FFC952" x="5.94997119" y="1.77080297" width="22.0291496" height="1.06246822"></rect>
                    </g>
                </g>
            </g>
        </g>
    </g>
</svg>