<svg width="34" height="34" viewBox="0 0 34 34" xmlns="http://www.w3.org/2000/svg">
    <g fill-rule="nonzero" fill="none">
        <circle fill="#DC691D" cx="17" cy="17" r="17"/>
        <path d="M12.856 31.131h-.212a16.365 16.365 0 0 1-3.613-1.806c-.319-.212-.319-.531-.212-.85.212-.319.531-.319.85-.213 1.168.744 2.231 1.276 3.4 1.7.318.107.425.425.318.744 0 .213-.212.425-.53.425zm-6.375-4.143c-.212 0-.319-.107-.425-.213-.106-.212-.319-.319-.425-.531-.531-.638-1.062-1.275-1.381-1.913-.106-.319 0-.637.213-.744.318-.106.637 0 .743.213.319.531.744 1.169 1.275 1.7.107.212.319.319.425.531a.562.562 0 0 1-.106.85c-.106.107-.212.107-.319.107z" fill="#EF9665"/>
        <path d="M4.781 5.313s-.106 0 0 0c-.425.425-.744.743-1.062 1.168H4.78c7.756 0 14.025 7.544 14.025 16.682 0 4.143-.956 7.756-2.869 10.518l-.212.319h1.381c1.913-2.975 2.869-6.694 2.869-10.837 0-9.882-6.8-17.85-15.194-17.85z" fill="#A93617"/>
        <path d="M13.387.425c-.637.106-1.168.319-1.806.531l.532.213C19.974 4.356 25.18 14.13 25.18 25.606c0 1.806-.319 3.613-.531 5.419l-.319 1.488c.425-.213.957-.425 1.381-.744l.107-.425v-.107c.319-1.806.531-3.612.531-5.63 0-11.582-5.206-21.57-12.963-25.182zM33.15 22.419c-2.656-1.7-4.462-6.694-4.462-12.431 0-1.7.212-3.294.53-4.782-.318-.319-.637-.637-1.062-.956v.425c-.425 1.7-.531 3.506-.531 5.419 0 6.269 1.913 11.475 4.994 13.387h.106l.106.106c0-.424.213-.85.319-1.168z" fill="#A93617"/>
        <path d="M33.469 12.963c-.107-.425-.213-.744-.319-1.17-13.387-.105-24.225 3.4-32.3 10.626.106.425.319.744.425 1.168l.319-.212c7.862-7.119 18.593-10.625 31.875-10.412z" fill="#A93617"/>
    </g>
</svg>
