<svg width="16" height="16" viewBox="0 0 16 16" xmlns="http://www.w3.org/2000/svg">
    <path d="M14 0a2 2 0 0 1 2 2v12a2 2 0 0 1-2 2H2a2 2 0 0 1-2-2V2a2 2 0 0 1 2-2h12zm-2.497 4a.585.585 0 0 0-.438.189L6.832 8.613 4.935 6.626a.585.585 0 0 0-.438-.188.585.585 0 0 0-.439.188l-.877.916A.638.638 0 0 0 3 8c0 .18.06.332.18.458l2.336 2.438.878.915c.12.126.266.189.438.189a.585.585 0 0 0 .439-.189l.877-.915L12.82 6.02A.638.638 0 0 0 13 5.562c0-.18-.06-.332-.18-.458l-.878-.915A.585.585 0 0 0 11.503 4z" fill="#FFE640" fill-rule="evenodd"/>
</svg>
