<svg width="19" height="20" viewBox="0 0 19 20" xmlns="http://www.w3.org/2000/svg">
    <path d="M8.941 0c4.938 0 8.941 3.98 8.941 8.889a8.83 8.83 0 0 1-2.391 6.051l3.182 3.163a1.107 1.107 0 0 1 0 1.572c-.403.4-1.037.43-1.476.092l-.105-.092-3.322-3.304a8.937 8.937 0 0 1-4.829 1.407C4.003 17.778 0 13.798 0 8.888 0 3.98 4.003 0 8.941 0zm0 2.222c-3.703 0-6.706 2.985-6.706 6.667s3.003 6.667 6.706 6.667c3.704 0 6.706-2.985 6.706-6.667s-3.002-6.667-6.706-6.667z" fill="#FFF" fill-rule="nonzero"/>
</svg>
