<svg width="16" height="16" viewBox="0 0 16 16" xmlns="http://www.w3.org/2000/svg">
    <path d="M9.5 16h-3a.82.82 0 0 1-.806-.629l-.336-1.507a6.65 6.65 0 0 1-1.265-.71l-1.515.468a.836.836 0 0 1-.965-.362L.11 10.74a.788.788 0 0 1 .16-.992l1.174-1.04a6.289 6.289 0 0 1 0-1.418L.268 6.253A.788.788 0 0 1 .11 5.26L1.61 2.738a.836.836 0 0 1 .965-.362l1.514.468c.202-.145.411-.278.628-.4.208-.114.422-.217.641-.309L5.695.63A.82.82 0 0 1 6.499 0h3.002a.82.82 0 0 1 .805.63l.34 1.506a6.67 6.67 0 0 1 1.265.71l1.515-.468c.37-.114.77.037.964.362l1.501 2.522a.788.788 0 0 1-.16.992l-1.174 1.04c.053.47.053.946 0 1.417l1.175 1.04c.285.254.35.665.159.991l-1.5 2.523a.836.836 0 0 1-.965.362l-1.515-.468a6.603 6.603 0 0 1-1.265.709l-.34 1.503A.82.82 0 0 1 9.5 16zM7.998 4.8C6.175 4.8 4.699 6.233 4.699 8c0 1.767 1.476 3.2 3.298 3.2 1.821 0 3.298-1.433 3.298-3.2 0-1.767-1.477-3.2-3.298-3.2z" fill="#FFF" fill-rule="nonzero"/>
</svg>
