<?xml version="1.0" encoding="UTF-8"?>
<svg width="34px" height="34px" viewBox="0 0 34 34" version="1.1" xmlns="http://www.w3.org/2000/svg" xmlns:xlink="http://www.w3.org/1999/xlink">
    <title>telegram_icon_normal</title>
    <g id="Design-System" stroke="none" stroke-width="1" fill="none" fill-rule="evenodd">
        <g id="buttons+icons" transform="translate(-226.000000, -802.000000)" fill="#FFFFFF" fill-rule="nonzero">
            <g id="social_buttons_footer" transform="translate(50.000000, 802.000000)">
                <path d="M203.590287,2.58960077e-16 C205.819084,-1.50463262e-16 206.627299,0.232064028 207.442114,0.667831759 C208.256929,1.10359949 208.896401,1.74307093 209.332168,2.55788574 C209.767936,3.37270056 210,4.18091615 210,6.409713 L210,27.590287 C210,29.8190838 209.767936,30.6272994 209.332168,31.4421143 C208.896401,32.2569291 208.256929,32.8964005 207.442114,33.3321682 C206.627299,33.767936 205.819084,34 203.590287,34 L182.409713,34 C180.180916,34 179.372701,33.767936 178.557886,33.3321682 C177.743071,32.8964005 177.103599,32.2569291 176.667832,31.4421143 C176.232064,30.6272994 176,29.8190838 176,27.590287 L176,6.409713 C176,4.18091615 176.232064,3.37270056 176.667832,2.55788574 C177.103599,1.74307093 177.743071,1.10359949 178.557886,0.667831759 C179.372701,0.232064028 180.180916,4.13911637e-16 182.409713,-7.12377147e-16 L203.590287,2.58960077e-16 Z M203.404178,7.10640549 L182.114178,15.2574055 C180.661178,15.8214055 180.683178,16.6314055 181.867178,16.9984055 L187.310178,18.6914055 L199.953178,10.7804055 C200.548178,10.3864055 201.089178,10.6044055 200.644178,10.9984055 L190.417178,20.1814055 L190.020178,25.7654055 C190.588178,25.7654055 190.834178,25.5214055 191.129178,25.2284055 L193.792178,22.6834055 L199.310178,26.7244055 C200.322178,27.2884055 201.035178,26.9914055 201.308178,25.7934055 L204.930178,8.82140549 L204.931178,8.82040549 C205.252178,7.32440549 204.390178,6.73940549 203.404178,7.10640549 Z" id="telegram_icon_normal"></path>
            </g>
        </g>
    </g>
</svg>