<svg width="20" height="20" viewBox="0 0 20 20" xmlns="http://www.w3.org/2000/svg">
    <path d="M18.9 0A1.1 1.1 0 0 1 20 1.1v17.8a1.1 1.1 0 0 1-1.1 1.1H1.1A1.1 1.1 0 0 1 0 18.9V1.1A1.1 1.1 0 0 1 1.1 0zm-6.98 4.357a3.003 3.003 0 0 0-1.54 3.373 8.782 8.782 0 0 1-6.338-3.162c-.27.465-.412.99-.412 1.526a3 3 0 0 0 1.365 2.513A3.078 3.078 0 0 1 3.6 8.231v.037c.008 1.436 1.042 2.668 2.475 2.948-.268.08-.545.122-.825.125a3.738 3.738 0 0 1-.578-.051 3.077 3.077 0 0 0 2.873 2.093A6.234 6.234 0 0 1 3 14.636 8.789 8.789 0 0 0 7.718 16a8.772 8.772 0 0 0 6.228-2.494A8.467 8.467 0 0 0 16.5 7.39V7A6.26 6.26 0 0 0 18 5.437c-.564.24-1.16.399-1.77.471a3.054 3.054 0 0 0 1.357-1.673 6.223 6.223 0 0 1-1.957.737 3.114 3.114 0 0 0-3.71-.616z" fill="#FFF" fill-rule="nonzero"/>
</svg>
