<?xml version="1.0" encoding="UTF-8"?>
<svg width="20px" height="20px" viewBox="0 0 20 20" version="1.1" xmlns="http://www.w3.org/2000/svg" xmlns:xlink="http://www.w3.org/1999/xlink">
    <title>ad_flag_20px</title>
    <defs>
        <circle id="path-1" cx="10" cy="10" r="10"></circle>
    </defs>
    <g id="Design-System" stroke="none" stroke-width="1" fill="none" fill-rule="evenodd">
        <g id="Flags-20x20" transform="translate(-51.000000, -105.000000)">
            <g id="ad_flag_20px" transform="translate(51.000000, 105.000000)">
                <mask id="mask-2" fill="white">
                    <use xlink:href="#path-1"></use>
                </mask>
                <use id="oval" fill="#D8D8D8" xlink:href="#path-1"></use>
                <g id="ad" mask="url(#mask-2)" fill-rule="nonzero">
                    <polygon id="Path" fill="#0052B4" points="0 0 5.65234375 0 7.05859375 9.9453125 5.65234375 20 0 20"></polygon>
                    <polygon id="Path" fill="#D80027" points="14.3476562 0 20 0 20 20 14.3476562 20 13.1875 9.94921875"></polygon>
                    <polygon id="Path" fill="#FFDA44" points="5.65234375 0 14.3476562 0 14.3476562 20 5.65234375 20"></polygon>
                    <path d="M10,13.8476562 L10,10 L12.609375,10 L12.609375,11.8476563 L10,13.8476562 Z M7.390625,7.390625 L10,7.390625 L10,10 L7.390625,10 L7.390625,7.390625 Z" id="Shape" fill="#D80027"></path>
                    <path d="M11.3046875,6.5234375 C11.3041148,6.21291534 11.1382845,5.92617703 10.8694215,5.77081607 C10.6005585,5.61545511 10.269321,5.61496561 10,5.76953125 C9.86834018,5.69289579 9.71874563,5.65246483 9.56640625,5.65234375 C9.0859375,5.65234375 8.6953125,6.04296875 8.6953125,6.5234375 L6.5234375,6.5234375 L6.5234375,10.8710938 C6.5234375,12.4882812 7.80859375,13.4257813 8.81640625,13.9101562 C8.73910219,14.0429607 8.69864731,14.1939923 8.69921875,14.3476563 C8.70057913,14.6569773 8.86587392,14.9423767 9.1334977,15.097486 C9.40112148,15.2525953 9.73092866,15.2541469 10,15.1015625 C10.1316598,15.178198 10.2812544,15.2186289 10.4335938,15.21875 C10.7446264,15.2175878 11.0314408,15.0506727 11.1861042,14.7808173 C11.3407676,14.510962 11.3398107,14.1791152 11.1835938,13.9101563 C12.1914063,13.4257813 13.4765625,12.4882813 13.4765625,10.8710938 L13.4765625,6.5234375 L11.3046875,6.5234375 Z M12.1757813,10.8710938 C12.1757813,11.0976563 12.1757813,11.7851562 11.1015625,12.46875 C10.7554235,12.6834323 10.3858255,12.8577463 10,12.9882812 C9.7265625,12.8945312 9.3046875,12.7265625 8.8984375,12.46875 C7.82421875,11.7851562 7.82421875,11.0976562 7.82421875,10.8671875 L7.82421875,7.82421875 L12.1757813,7.82421875 L12.1757813,10.8710938 Z" id="Shape" fill="#FF9811"></path>
                </g>
            </g>
        </g>
    </g>
</svg>