<?xml version="1.0" encoding="UTF-8"?>
<svg width="20px" height="20px" viewBox="0 0 20 20" version="1.1" xmlns="http://www.w3.org/2000/svg" xmlns:xlink="http://www.w3.org/1999/xlink">
    <title>afar_flag_20px</title>
    <defs>
        <circle id="path-1" cx="10" cy="10" r="10"></circle>
    </defs>
    <g id="Design-System" stroke="none" stroke-width="1" fill="none" fill-rule="evenodd">
        <g id="Flags-20x20" transform="translate(-201.000000, -105.000000)">
            <g id="afar_flag_20px" transform="translate(201.000000, 105.000000)">
                <mask id="mask-2" fill="white">
                    <use xlink:href="#path-1"></use>
                </mask>
                <use id="Mask" fill="#D8D8D8" xlink:href="#path-1"></use>
                <g id="afar" mask="url(#mask-2)" fill-rule="nonzero">
                    <polygon id="Path" fill="#EEEEEE" points="0 6.25 10 5 20 6.25 20 13.75 10 15 0 13.75"></polygon>
                    <polygon id="Path" fill="#0052B4" points="0 0 20 0 20 6.25 0 6.25"></polygon>
                    <polygon id="Path" fill="#496E2D" points="0 13.75 20 13.75 20 20 0 20"></polygon>
                    <polygon id="Path" fill="#D80027" points="0 0 0 20 10 10"></polygon>
                    <polygon id="Path" fill="#FF9811" points="13.4765625 8.9453125 13.0078125 9.375 14.5703125 10.9375 13.0078125 12.5 13.4375 12.9296875 15 11.3671875 16.5625 12.9296875 16.9921875 12.5 15.4296875 10.9375 16.9921875 9.375 16.5625 8.9453125 15 10.5078125"></polygon>
                    <polygon id="Path" fill="#D80027" points="15 7.0703125 15.8203125 9.4921875 13.7109375 8.0078125 16.2890625 8.0078125 14.21875 9.53125"></polygon>
                </g>
            </g>
        </g>
    </g>
</svg>