<?xml version="1.0" encoding="UTF-8"?>
<svg width="20px" height="20px" viewBox="0 0 20 20" version="1.1" xmlns="http://www.w3.org/2000/svg" xmlns:xlink="http://www.w3.org/1999/xlink">
    <title>ag_flag_20px</title>
    <defs>
        <circle id="path-1" cx="10" cy="10" r="10"></circle>
    </defs>
    <g id="Design-System" stroke="none" stroke-width="1" fill="none" fill-rule="evenodd">
        <g id="Flags-20x20" transform="translate(-251.000000, -105.000000)">
            <g id="ag_flag_20px" transform="translate(251.000000, 105.000000)">
                <mask id="mask-2" fill="white">
                    <use xlink:href="#path-1"></use>
                </mask>
                <use id="Mask" fill="#D8D8D8" xlink:href="#path-1"></use>
                <g id="ag" mask="url(#mask-2)" fill-rule="nonzero">
                    <polygon id="Path" fill="#333333" points="0 0.015625 20 0.015625 18.671875 8.9609375 1.40625 8.9609375"></polygon>
                    <polygon id="Path" fill="#FFDA44" points="14.3476562 8.01953125 10.0625 8.77734375 5.65234375 8.01953125 7.4296875 7.1875 6.484375 5.46875 8.41015625 5.8359375 8.65625 3.88671875 10 5.3203125 11.34375 3.890625 11.5898437 5.84375 13.515625 5.46875 12.5703125 7.1875"></polygon>
                    <polygon id="Path" fill="#0052B4" points="1 8.01953125 19.234375 8.01953125 10.0390625 17.1679688"></polygon>
                    <polygon id="Path" fill="#EEEEEE" points="1.328125 12.0078125 18.75 12.0078125 10 19.984375"></polygon>
                    <path d="M0,19.984375 L10,20 L0,0.015625 L0,19.984375 Z M10,20 L20,19.984375 L20,0 L10,20 Z" id="Shape" fill="#A2001D"></path>
                </g>
            </g>
        </g>
    </g>
</svg>