<?xml version="1.0" encoding="UTF-8"?>
<svg width="16px" height="16px" viewBox="0 0 16 16" version="1.1" xmlns="http://www.w3.org/2000/svg" xmlns:xlink="http://www.w3.org/1999/xlink">
    <title>ai_flag_16px</title>
    <defs>
        <circle id="path-1" cx="8" cy="8" r="8"></circle>
    </defs>
    <g id="Design-System" stroke="none" stroke-width="1" fill="none" fill-rule="evenodd">
        <g id="Flags-16x16" transform="translate(-301.000000, -105.000000)">
            <g id="ai_flag_16px" transform="translate(301.000000, 105.000000)">
                <mask id="mask-2" fill="white">
                    <use xlink:href="#path-1"></use>
                </mask>
                <use id="Mask" fill="#D8D8D8" xlink:href="#path-1"></use>
                <g id="ai" mask="url(#mask-2)" fill-rule="nonzero">
                    <polygon id="Path" fill="#0052B4" points="8 0 16 0 16 16 0 16 0 8"></polygon>
                    <polygon id="Path" fill="#EEEEEE" points="0 0 0 1 1 2 0 3 0 8 1 8 2 7 3 8 4 8 4 5.40625 6.59375 8 8 8 7.75 7.5 8 7.03125 8 6.59375 5.40625 4 8 4 8 3 7 2 8 1 8 0 3 0 2 1 1 0"></polygon>
                    <path d="M1,0 L1,1 L0,1 L0,3 L1,3 L1,8 L3,8 L3,3 L8,3 L8,1 L3,1 L3,0 L1,0 Z M4,4 L8,8 L8,7.03125 L4.96875,4 L4,4 Z" id="Shape" fill="#D80027"></path>
                    <path d="M13.53125,9.175 C13.781668,8.8358568 13.9154336,8.42469194 13.9125472,8.003125 L13.9125472,4.525 C13.6115381,4.75100665 13.2451225,4.8727795 12.86875,4.871875 C12.3218592,4.87236692 11.8066529,4.61534265 11.478125,4.178125 C11.1495971,4.61534265 10.6343908,4.87236692 10.0875,4.871875 C9.7111275,4.8727795 9.34471191,4.75100665 9.04375,4.525 L9.04375,8.003125 C9.04375,8.471875 9.2,8.85625 9.428125,9.175 L13.528125,9.175 L13.53125,9.175 Z" id="Path" fill="#EEEEEE"></path>
                    <path d="M12.80625,7.359375 C12.9164673,7.08390581 12.982896,6.79288499 13.003125,6.496875 C13.003125,6.18125 12.590625,5.925 12.590625,5.925 C12.590625,5.925 12.178125,6.18125 12.178125,6.496875 C12.198354,6.79288499 12.2647827,7.08390581 12.375,7.359375 L12.1375,7.89375 C12.4279059,8.01253673 12.7533441,8.01253673 13.04375,7.89375 L12.80625,7.359375 Z M11.196875,5.621875 C10.903839,5.66388939 10.6191602,5.75140176 10.353125,5.88125 C10.078125,6.0375 10.0625,6.521875 10.0625,6.521875 C10.0625,6.521875 10.490625,6.753125 10.7625,6.59375 C10.934375,6.496875 11.23125,6.225 11.4125,5.99375 L11.99375,5.93125 C11.9735592,5.77728738 11.9236786,5.62870689 11.846875,5.49375 C11.769183,5.35963396 11.666245,5.2418389 11.54375,5.146875 L11.196875,5.621875 Z M10.496875,7.878125 C10.6797265,8.11167196 10.8979906,8.31517419 11.14375,8.48125 C11.41875,8.6375 11.846875,8.409375 11.846875,8.409375 C11.846875,8.409375 11.828125,7.925 11.55625,7.76875 C11.2903955,7.63782107 11.0057095,7.54925208 10.7125,7.50625 L10.365625,7.034375 C10.2434373,7.12841982 10.1405189,7.24513139 10.0625,7.378125 C9.98460386,7.51285209 9.9336578,7.66144477 9.9125,7.815625 L10.496875,7.878125 Z" id="Shape" fill="#FF9811"></path>
                    <path d="M9.34375,9.046875 C9.990625,10.0875 11.478125,10.4375 11.478125,10.4375 C11.478125,10.4375 12.965625,10.0875 13.615625,9.046875 L9.340625,9.046875 L9.34375,9.046875 Z" id="Path" fill="#338AF3"></path>
                </g>
            </g>
        </g>
    </g>
</svg>