<?xml version="1.0" encoding="UTF-8"?>
<svg width="20px" height="20px" viewBox="0 0 20 20" version="1.1" xmlns="http://www.w3.org/2000/svg" xmlns:xlink="http://www.w3.org/1999/xlink">
    <title>ai_flag_20px</title>
    <defs>
        <circle id="path-1" cx="10" cy="10" r="10"></circle>
    </defs>
    <g id="Design-System" stroke="none" stroke-width="1" fill="none" fill-rule="evenodd">
        <g id="Flags-20x20" transform="translate(-301.000000, -105.000000)">
            <g id="ai_flag_20px" transform="translate(301.000000, 105.000000)">
                <mask id="mask-2" fill="white">
                    <use xlink:href="#path-1"></use>
                </mask>
                <use id="Mask" fill="#D8D8D8" xlink:href="#path-1"></use>
                <g id="ai" mask="url(#mask-2)" fill-rule="nonzero">
                    <polygon id="Path" fill="#0052B4" points="10 0 20 0 20 20 0 20 0 10"></polygon>
                    <polygon id="Path" fill="#EEEEEE" points="0 0 0 1.25 1.25 2.5 0 3.75 0 10 1.25 10 2.5 8.75 3.75 10 5 10 5 6.7578125 8.2421875 10 10 10 9.6875 9.375 10 8.7890625 10 8.2421875 6.7578125 5 10 5 10 3.75 8.75 2.5 10 1.25 10 0 3.75 0 2.5 1.25 1.25 0"></polygon>
                    <path d="M1.25,0 L1.25,1.25 L0,1.25 L0,3.75 L1.25,3.75 L1.25,10 L3.75,10 L3.75,3.75 L10,3.75 L10,1.25 L3.75,1.25 L3.75,0 L1.25,0 Z M5,5 L10,10 L10,8.7890625 L6.2109375,5 L5,5 Z" id="Shape" fill="#D80027"></path>
                    <path d="M16.9140625,11.46875 C17.227085,11.044821 17.3942921,10.5308649 17.3906841,10.0039063 L17.3906841,5.65625 C17.0144226,5.93875832 16.5564031,6.09097437 16.0859375,6.08984375 C15.4023239,6.09045865 14.7583161,5.76917832 14.3476563,5.22265625 C13.9369964,5.76917832 13.2929886,6.09045865 12.609375,6.08984375 C12.1389094,6.09097437 11.6808899,5.93875832 11.3046875,5.65625 L11.3046875,10.0039062 C11.3046875,10.5898438 11.5,11.0703125 11.7851563,11.46875 L16.9101563,11.46875 L16.9140625,11.46875 Z" id="Path" fill="#EEEEEE"></path>
                    <path d="M16.0078125,9.19921875 C16.1455841,8.85488226 16.2286199,8.49110624 16.2539063,8.12109375 C16.2539063,7.7265625 15.7382813,7.40625 15.7382813,7.40625 C15.7382813,7.40625 15.2226563,7.7265625 15.2226563,8.12109375 C15.2479426,8.49110624 15.3309784,8.85488226 15.46875,9.19921875 L15.171875,9.8671875 C15.5348823,10.0156709 15.9416802,10.0156709 16.3046875,9.8671875 L16.0078125,9.19921875 Z M13.9960938,7.02734375 C13.6297988,7.07986174 13.2739503,7.1892522 12.9414062,7.3515625 C12.5976562,7.546875 12.578125,8.15234375 12.578125,8.15234375 C12.578125,8.15234375 13.1132812,8.44140625 13.453125,8.2421875 C13.6679688,8.12109375 14.0390625,7.78125 14.265625,7.4921875 L14.9921875,7.4140625 C14.966949,7.22160922 14.9045983,7.03588361 14.8085937,6.8671875 C14.7114787,6.69954245 14.5828062,6.55229862 14.4296875,6.43359375 L13.9960938,7.02734375 Z M13.1210938,9.84765625 C13.3496582,10.13959 13.6224882,10.3939677 13.9296875,10.6015625 C14.2734375,10.796875 14.8085938,10.5117188 14.8085938,10.5117188 C14.8085938,10.5117188 14.7851563,9.90625 14.4453125,9.7109375 C14.1129944,9.54727634 13.7571369,9.4365651 13.390625,9.3828125 L12.9570313,8.79296875 C12.8042967,8.91052478 12.6756487,9.05641423 12.578125,9.22265625 C12.4807548,9.39106511 12.4170722,9.57680596 12.390625,9.76953125 L13.1210938,9.84765625 Z" id="Shape" fill="#FF9811"></path>
                    <path d="M11.6796875,11.3085938 C12.4882812,12.609375 14.3476562,13.046875 14.3476562,13.046875 C14.3476562,13.046875 16.2070312,12.609375 17.0195312,11.3085938 L11.6757812,11.3085938 L11.6796875,11.3085938 Z" id="Path" fill="#338AF3"></path>
                </g>
            </g>
        </g>
    </g>
</svg>