<?xml version="1.0" encoding="UTF-8"?>
<svg width="20px" height="20px" viewBox="0 0 20 20" version="1.1" xmlns="http://www.w3.org/2000/svg" xmlns:xlink="http://www.w3.org/1999/xlink">
    <title>al_flag_20px</title>
    <defs>
        <circle id="path-1" cx="10" cy="10" r="10"></circle>
    </defs>
    <g id="Design-System" stroke="none" stroke-width="1" fill="none" fill-rule="evenodd">
        <g id="Flags-20x20" transform="translate(-351.000000, -105.000000)">
            <g id="al_flag_20px" transform="translate(351.000000, 105.000000)">
                <mask id="mask-2" fill="white">
                    <use xlink:href="#path-1"></use>
                </mask>
                <use id="Mask" fill="#D8D8D8" xlink:href="#path-1"></use>
                <g id="al" mask="url(#mask-2)" fill-rule="nonzero">
                    <polygon id="Path" fill="#D80027" points="0 0 20 0 20 20 0 20"></polygon>
                    <path d="M15.6523437,7.421875 L12.03125,7.421875 C12.3942079,7.04503359 12.4960576,6.48740651 12.2897497,6.00658958 C12.0834417,5.52577265 11.6091358,5.21536128 11.0859375,5.21875 C10.6492031,5.21815772 10.2413185,5.43677208 10,5.80078125 C9.7276755,5.38840627 9.24573589,5.16528518 8.75510936,5.22444067 C8.26448283,5.28359617 7.84938782,5.61487391 7.68288397,6.08015902 C7.51638011,6.54544412 7.62704859,7.06486812 7.96875,7.421875 L4.34765625,7.421875 C4.37522388,8.39310204 5.1729241,9.16479029 6.14453125,9.16015625 L6.0859375,9.16015625 C6.0859375,10.1210937 6.8671875,10.9023437 7.82421875,10.9023437 C7.82421875,11.2148437 7.90625,11.5039062 8.05078125,11.7539062 L6.60546875,13.1992188 L7.71484375,14.3046875 L9.28515625,12.734375 C9.34732105,12.7579118 9.41134656,12.7762048 9.4765625,12.7890625 L8.52734375,14.9296875 L10,16.5234375 L11.4726562,14.9296875 L10.5234375,12.7890625 C10.5886577,12.7762226 10.6526847,12.7579292 10.7148437,12.734375 L12.2851562,14.3046875 L13.390625,13.1992187 L11.9453125,11.7539062 C12.0945814,11.4947992 12.1739967,11.2013663 12.1757812,10.9023437 C13.1328125,10.9023437 13.9140625,10.1210937 13.9140625,9.16015625 L13.8554687,9.16015625 C14.8164062,9.16015625 15.6523437,8.3828125 15.6523437,7.421875 L15.6523437,7.421875 Z" id="Path" fill="#333333"></path>
                </g>
            </g>
        </g>
    </g>
</svg>