<?xml version="1.0" encoding="UTF-8"?>
<svg width="20px" height="20px" viewBox="0 0 20 20" version="1.1" xmlns="http://www.w3.org/2000/svg" xmlns:xlink="http://www.w3.org/1999/xlink">
    <title>ao_flag_20px</title>
    <defs>
        <circle id="path-1" cx="10" cy="10" r="10"></circle>
    </defs>
    <g id="Design-System" stroke="none" stroke-width="1" fill="none" fill-rule="evenodd">
        <g id="Flags-20x20" transform="translate(-451.000000, -105.000000)">
            <g id="ao_flag_20px" transform="translate(451.000000, 105.000000)">
                <mask id="mask-2" fill="white">
                    <use xlink:href="#path-1"></use>
                </mask>
                <use id="Mask" fill="#D8D8D8" xlink:href="#path-1"></use>
                <g id="ao" mask="url(#mask-2)" fill-rule="nonzero">
                    <polygon id="Path" fill="#D80027" points="0 0 20 0 20 10 10.1171875 11.4296875 0 10"></polygon>
                    <polygon id="Path" fill="#333333" points="0 10 20 10 20 20 0 20"></polygon>
                    <g id="Group" transform="translate(5.828125, 5.003872)" fill="#FFDA44">
                        <polygon id="Path" points="2.80078125 2.94925276 3.6484375 3.56644026 3.32421875 4.56253401 4.171875 3.94144026 5.01953125 4.55472151 4.6953125 3.55862776 5.54296875 2.94534651 4.49609375 2.94534651 4.171875 1.94925276 3.84765625 2.94534651"></polygon>
                        <path d="M6.671875,0.664096507 C5.91178467,0.225906789 5.04922157,-0.0032115332 4.171875,1.11022302e-15 L4.171875,1.30081526 C4.82077637,1.30001388 5.45830066,1.47118848 6.01953125,1.79690901 C7.67308329,2.86756881 8.19753325,5.04624346 7.21234356,6.75210044 C6.22715387,8.45795743 4.07796676,9.09251689 2.32421875,8.19534651 C1.82752615,7.90901243 1.40478312,7.5103497 1.08984375,7.03128401 L0,7.75003401 C0.955847502,9.19487059 2.59102322,10.0425145 4.32264791,9.99081238 C6.0542726,9.93911022 7.63596333,8.99541834 8.50390625,7.49612776 C9.88328147,5.1034374 9.06332031,2.04562916 6.671875,0.664096507 Z" id="Path"></path>
                        <path d="M1.2890625,4.12503401 C1.12223267,4.4289868 1.08325279,4.786845 1.18073024,5.1195876 C1.2782077,5.4523302 1.50412424,5.73258658 1.80859375,5.89847151 L6.04296875,8.21097151 C5.75390625,8.73831526 5.91015625,9.38284651 6.43359375,9.66800276 L7.578125,10.2930028 C7.83082675,10.4322245 8.1285433,10.4651626 8.40556685,10.3845473 C8.6825904,10.3039319 8.91614634,10.1163908 9.0546875,9.86331526 L9.6796875,8.71878401 L1.2890625,4.12503401 Z" id="Path"></path>
                    </g>
                </g>
            </g>
        </g>
    </g>
</svg>