<?xml version="1.0" encoding="UTF-8"?>
<svg width="20px" height="20px" viewBox="0 0 20 20" version="1.1" xmlns="http://www.w3.org/2000/svg" xmlns:xlink="http://www.w3.org/1999/xlink">
    <title>ar_flag_20px</title>
    <defs>
        <circle id="path-1" cx="10" cy="10" r="10"></circle>
    </defs>
    <g id="Design-System" stroke="none" stroke-width="1" fill="none" fill-rule="evenodd">
        <g id="Flags-20x20" transform="translate(-51.000000, -155.000000)">
            <g id="ar_flag_20px" transform="translate(51.000000, 155.000000)">
                <mask id="mask-2" fill="white">
                    <use xlink:href="#path-1"></use>
                </mask>
                <use id="Mask" fill="#D8D8D8" xlink:href="#path-1"></use>
                <g id="ar" mask="url(#mask-2)" fill-rule="nonzero">
                    <polygon id="Path" fill="#338AF3" points="0 0 20 0 20 5.65234375 19.0625 10 20 14.3476562 20 20 0 20 0 14.3476562 1.015625 10 0 5.65234375"></polygon>
                    <polygon id="Path" fill="#EEEEEE" points="0 5.65234375 20 5.65234375 20 14.3476562 0 14.3476562"></polygon>
                    <polygon id="Path" fill="#FFDA44" points="12.984375 10 11.765625 10.5742188 12.4179688 11.7578125 11.0898438 11.5039062 10.9257812 12.84375 10 11.859375 9.078125 12.84375 8.91015625 11.5039062 7.58203125 11.7578125 8.23046875 10.5742188 7.01171875 10 8.234375 9.42578125 7.578125 8.2421875 8.90625 8.49609375 9.07421875 7.15625 9.99609375 8.140625 10.9179688 7.15625 11.0898438 8.49609375 12.4179688 8.2421875 11.765625 9.42578125"></polygon>
                </g>
            </g>
        </g>
    </g>
</svg>