<?xml version="1.0" encoding="UTF-8"?>
<svg width="16px" height="16px" viewBox="0 0 16 16" version="1.1" xmlns="http://www.w3.org/2000/svg" xmlns:xlink="http://www.w3.org/1999/xlink">
    <title>ar_flag_16px</title>
    <defs>
        <circle id="path-1" cx="8" cy="8" r="8"></circle>
    </defs>
    <g id="Design-System" stroke="none" stroke-width="1" fill="none" fill-rule="evenodd">
        <g id="Flags-16x16" transform="translate(-51.000000, -155.000000)">
            <g id="ar_flag_16px" transform="translate(51.000000, 155.000000)">
                <mask id="mask-2" fill="white">
                    <use xlink:href="#path-1"></use>
                </mask>
                <use id="Mask" fill="#D8D8D8" xlink:href="#path-1"></use>
                <g id="ar" mask="url(#mask-2)" fill-rule="nonzero">
                    <polygon id="Path" fill="#338AF3" points="0 0 16 0 16 4.521875 15.25 8 16 11.478125 16 16 0 16 0 11.478125 0.8125 8 0 4.521875"></polygon>
                    <polygon id="Path" fill="#EEEEEE" points="0 4.521875 16 4.521875 16 11.478125 0 11.478125"></polygon>
                    <polygon id="Path" fill="#FFDA44" points="10.3875 8 9.4125 8.459375 9.934375 9.40625 8.871875 9.203125 8.740625 10.275 8 9.4875 7.2625 10.275 7.128125 9.203125 6.065625 9.40625 6.584375 8.459375 5.609375 8 6.5875 7.540625 6.0625 6.59375 7.125 6.796875 7.259375 5.725 7.996875 6.5125 8.734375 5.725 8.871875 6.796875 9.934375 6.59375 9.4125 7.540625"></polygon>
                </g>
            </g>
        </g>
    </g>
</svg>