<?xml version="1.0" encoding="UTF-8"?>
<svg width="20px" height="20px" viewBox="0 0 20 20" version="1.1" xmlns="http://www.w3.org/2000/svg" xmlns:xlink="http://www.w3.org/1999/xlink">
    <title>au_flag_20px</title>
    <defs>
        <circle id="path-1" cx="10" cy="10" r="10"></circle>
    </defs>
    <g id="Design-System" stroke="none" stroke-width="1" fill="none" fill-rule="evenodd">
        <g id="Flags-20x20" transform="translate(-201.000000, -155.000000)">
            <g id="au_flag_20px" transform="translate(201.000000, 155.000000)">
                <mask id="mask-2" fill="white">
                    <use xlink:href="#path-1"></use>
                </mask>
                <use id="Mask" fill="#D8D8D8" xlink:href="#path-1"></use>
                <g id="au" mask="url(#mask-2)" fill-rule="nonzero">
                    <polygon id="Path" fill="#0052B4" points="10 0 20 0 20 20 0 20 0 10"></polygon>
                    <path d="M15.625,10 L15.8203125,10.6640625 L16.5234375,10.6640625 L15.9765625,11.0546875 L16.171875,11.71875 L15.625,11.328125 L15.0390625,11.71875 L15.2734375,11.0546875 L14.6875,10.6640625 L15.390625,10.6640625 L15.625,10 Z M17.1875,6.953125 L17.4609375,7.5390625 L18.0859375,7.3828125 L17.8125,7.96875 L18.3203125,8.359375 L17.6953125,8.4765625 L17.6953125,9.140625 L17.1875,8.75 L16.71875,9.140625 L16.71875,8.4765625 L16.09375,8.359375 L16.6015625,7.96875 L16.328125,7.3828125 L16.9140625,7.5390625 L17.1875,6.953125 Z M14.9609375,4.3359375 L15.234375,4.921875 L15.859375,4.765625 L15.5859375,5.3515625 L16.09375,5.7421875 L15.46875,5.8984375 L15.46875,6.5234375 L14.9609375,6.1328125 L14.4921875,6.5234375 L14.4921875,5.8984375 L13.8671875,5.7421875 L14.3359375,5.3515625 L14.0625,4.765625 L14.6875,4.921875 L14.9609375,4.3359375 Z M12.421875,7.8125 L12.6953125,8.3984375 L13.3203125,8.2421875 L13.046875,8.828125 L13.515625,9.21875 L12.9296875,9.375 L12.9296875,10 L12.421875,9.609375 L11.9140625,10 L11.9140625,9.375 L11.2890625,9.21875 L11.796875,8.828125 L11.5234375,8.2421875 L12.1484375,8.3984375 L12.421875,7.8125 Z M14.9609375,13.90625 L15.234375,14.4921875 L15.859375,14.3359375 L15.5859375,14.921875 L16.09375,15.3125 L15.46875,15.4296875 L15.46875,16.09375 L14.9609375,15.703125 L14.4921875,16.09375 L14.4921875,15.4296875 L13.8671875,15.3125 L14.3359375,14.921875 L14.0625,14.3359375 L14.6875,14.4921875 L14.9609375,13.90625 Z M6.015625,11.71875 L6.5625,12.890625 L7.8125,12.578125 L7.265625,13.75 L8.28125,14.53125 L7.03125,14.8046875 L7.03125,16.09375 L6.015625,15.2734375 L5.0390625,16.09375 L5.0390625,14.8046875 L3.7890625,14.53125 L4.8046875,13.75 L4.2578125,12.578125 L5.46875,12.890625 L6.015625,11.71875 Z M0,0 L0,1.25 L1.25,2.5 L0,3.75 L0,10 L1.25,10 L2.5,8.75 L3.75,10 L5,10 L5,6.7578125 L8.2421875,10 L10,10 L9.6875,9.375 L10,8.7890625 L10,8.2421875 L6.7578125,5 L10,5 L10,3.75 L8.75,2.5 L10,1.25 L10,0 L3.75,0 L2.5,1.25 L1.25,0 L0,0 Z" id="Shape" fill="#EEEEEE"></path>
                    <path d="M1.25,0 L1.25,1.25 L0,1.25 L0,3.75 L1.25,3.75 L1.25,10 L3.75,10 L3.75,3.75 L10,3.75 L10,1.25 L3.75,1.25 L3.75,0 L1.25,0 Z M5,5 L10,10 L10,8.7890625 L6.2109375,5 L5,5 Z" id="Shape" fill="#D80027"></path>
                </g>
            </g>
        </g>
    </g>
</svg>