<?xml version="1.0" encoding="UTF-8"?>
<svg width="20px" height="20px" viewBox="0 0 20 20" version="1.1" xmlns="http://www.w3.org/2000/svg" xmlns:xlink="http://www.w3.org/1999/xlink">
    <title>ax_flag_20px</title>
    <defs>
        <circle id="path-1" cx="10" cy="10" r="10"></circle>
    </defs>
    <g id="Design-System" stroke="none" stroke-width="1" fill="none" fill-rule="evenodd">
        <g id="Flags-20x20" transform="translate(-351.000000, -155.000000)">
            <g id="ax_flag_20px" transform="translate(351.000000, 155.000000)">
                <mask id="mask-2" fill="white">
                    <use xlink:href="#path-1"></use>
                </mask>
                <use id="Mask" fill="#D8D8D8" xlink:href="#path-1"></use>
                <g id="ax" mask="url(#mask-2)" fill-rule="nonzero">
                    <polygon id="Path" fill="#0052B4" points="0 0 3.9140625 0 6.58203125 1.58984375 9.12890625 0 20 0 20 7.390625 18.2226562 9.96875 20 12.6484375 20 20 9.12890625 20 6.55859375 18.46875 3.9140625 20 0 20 0 12.609375 1.78125 9.97265625 0 7.390625"></polygon>
                    <polygon id="Path" fill="#FFDA44" points="3.9140625 0 3.9140625 7.390625 0 7.390625 0 8.6953125 0.8984375 10.0234375 0 11.3046875 0 12.609375 3.9140625 12.609375 3.9140625 20 5.21875 20 6.54296875 19.1171875 7.82421875 20 9.12890625 20 9.12890625 12.6484375 20 12.6484375 20 11.3046875 19.0546875 10.046875 20 8.6953125 20 7.390625 9.12890625 7.390625 9.12890625 0 7.82421875 0 6.55078125 0.78125 5.21875 0"></polygon>
                    <polygon id="Path" fill="#D80027" points="5.21875 0 5.21875 8.6953125 0 8.6953125 0 11.3046875 5.21875 11.3046875 5.21875 20 7.82421875 20 7.82421875 11.3046875 20 11.3046875 20 8.6953125 7.82421875 8.6953125 7.82421875 0"></polygon>
                </g>
            </g>
        </g>
    </g>
</svg>