<?xml version="1.0" encoding="UTF-8"?>
<svg width="20px" height="20px" viewBox="0 0 20 20" version="1.1" xmlns="http://www.w3.org/2000/svg" xmlns:xlink="http://www.w3.org/1999/xlink">
    <title>az_flag_20px</title>
    <defs>
        <circle id="path-1" cx="10" cy="10" r="10"></circle>
    </defs>
    <g id="Design-System" stroke="none" stroke-width="1" fill="none" fill-rule="evenodd">
        <g id="Flags-20x20" transform="translate(-401.000000, -155.000000)">
            <g id="az_flag_20px" transform="translate(401.000000, 155.000000)">
                <mask id="mask-2" fill="white">
                    <use xlink:href="#path-1"></use>
                </mask>
                <use id="Mask" fill="#D8D8D8" xlink:href="#path-1"></use>
                <g id="az" mask="url(#mask-2)" fill-rule="nonzero">
                    <polygon id="Path" fill="#D80027" points="0 6.51953125 9.8828125 5.27734375 20 6.51953125 20 13.4726562 9.94140625 14.9335937 0 13.4765625"></polygon>
                    <polygon id="Path" fill="#338AF3" points="0 0 20 0 20 6.51953125 0 6.51953125"></polygon>
                    <polygon id="Path" fill="#6DA544" points="0 13.4726562 20 13.4726562 20 20 0 20"></polygon>
                    <g id="Group" transform="translate(5.655987, 6.517577)" fill="#EEEEEE">
                        <path d="M4.56276297,6.302735 C3.38707707,6.29946476 2.33639305,5.56819114 1.92497054,4.46683764 C1.51354803,3.36548414 1.82745606,2.1244524 2.71305164,1.35116818 C3.59864722,0.577883958 4.87066497,0.434117254 5.90651297,0.990235 C4.54076878,-0.344540844 2.35406052,-0.327823797 1.00888308,1.02767662 C-0.33629436,2.38317705 -0.33629436,4.56994921 1.00888308,5.92544963 C2.35406052,7.28095005 4.54076878,7.29766709 5.90651297,5.96289125 C5.49396082,6.18649825 5.03201664,6.30332716 4.56276297,6.302735 L4.56276297,6.302735 Z" id="Path"></path>
                        <polygon id="Path" points="6.73463797 1.5292975 7.10963797 2.5761725 8.11745047 2.09570375 7.64088797 3.10351625 8.69166922 3.47851625 7.63698172 3.85351625 8.11745047 4.86132875 7.10963797 4.38086 6.73463797 5.4355475 6.35963797 4.38086 5.35182547 4.86132875 5.83229422 3.85351625 4.77760672 3.47851625 5.83229422 3.10351625 5.35182547 2.09570375 6.35963797 2.5761725"></polygon>
                    </g>
                </g>
            </g>
        </g>
    </g>
</svg>