<?xml version="1.0" encoding="UTF-8"?>
<svg width="20px" height="20px" viewBox="0 0 20 20" version="1.1" xmlns="http://www.w3.org/2000/svg" xmlns:xlink="http://www.w3.org/1999/xlink">
    <title>ba_flag_20px</title>
    <defs>
        <circle id="path-1" cx="10" cy="10" r="10"></circle>
    </defs>
    <g id="Design-System" stroke="none" stroke-width="1" fill="none" fill-rule="evenodd">
        <g id="Flags-20x20" transform="translate(-451.000000, -155.000000)">
            <g id="ba_flag_20px" transform="translate(451.000000, 155.000000)">
                <mask id="mask-2" fill="white">
                    <use xlink:href="#path-1"></use>
                </mask>
                <use id="Mask" fill="#D8D8D8" xlink:href="#path-1"></use>
                <g id="ba" mask="url(#mask-2)" fill-rule="nonzero">
                    <g transform="translate(0.000000, 0.026738)">
                        <polygon id="Path" fill="#FFDA44" points="0.443086325 0 17.4522536 0 18.7471352 9.74025974 17.4522536 19.5569137 5.08785332 14.4270435 0.443086325 2.55156608"></polygon>
                        <polygon id="Path" fill="#0052B4" points="0.443086325 2.55156608 0.443086325 19.5569137 17.4560733 19.5569137"></polygon>
                        <polygon id="Path" fill="#0052B4" points="17.4522536 0 20 0 20 19.5569137 17.4522536 19.5569137"></polygon>
                        <path d="M13.9877769,17.4178762 L13.670741,18.3957219 L12.6470588,18.3957219 L13.4759358,18.9992361 L13.1588999,19.973262 L13.9877769,19.3697479 L14.8166539,19.973262 L14.499618,18.9992361 L15.328495,18.3957219 L14.3048128,18.3957219 L13.9877769,17.4178762 Z M11.8869366,15.3017571 L11.5699007,16.275783 L10.5462185,16.275783 L11.3750955,16.8792972 L11.0580596,17.8533231 L11.8869366,17.249809 L12.7158136,17.8533231 L12.3987777,16.8792972 L13.2276547,16.275783 L12.2039725,16.275783 L11.8869366,15.3017571 Z M9.77845684,13.1779985 L9.46142093,14.1520244 L8.43773873,14.1520244 L9.26661574,14.7555386 L8.94957983,15.7295646 L9.77845684,15.1260504 L10.6073338,15.7295646 L10.2902979,14.7555386 L11.1191749,14.1520244 L10.0954927,14.1520244 L9.77845684,13.1779985 Z M7.67379679,11.0504202 L7.35676089,12.0244461 L6.33307869,12.0244461 L7.16195569,12.6279603 L6.84491979,13.6019862 L7.67379679,12.9984721 L8.5026738,13.5981665 L8.18563789,12.6241406 L9.0145149,12.0206264 L7.9908327,12.0206264 L7.67379679,11.0504202 Z M5.55767762,8.92284186 L5.24064171,9.89686784 L4.21695951,9.89686784 L5.04583652,10.500382 L4.72880061,11.4744079 L5.55767762,10.8708938 L6.38655462,11.4744079 L6.06951872,10.500382 L6.89839572,9.89304813 L5.87471352,9.89304813 L5.55767762,8.92284186 Z M3.44919786,6.79908327 L3.13216196,7.77310924 L2.10847976,7.77310924 L2.93735676,8.37662338 L2.62032086,9.35064935 L3.44919786,8.74713522 L4.27807487,9.35064935 L3.96103896,8.37662338 L4.78991597,7.77310924 L3.76623377,7.77310924 L3.44919786,6.79908327 Z M1.34071811,4.67150497 L1.0236822,5.64553094 L0,5.64553094 L0.828877005,6.24904507 L0.5118411,7.21925134 L1.34071811,6.6157372 L2.16959511,7.21925134 L1.85255921,6.24522536 L2.68143621,5.64171123 L1.65775401,5.64171123 L1.34071811,4.67150497 Z" id="Shape" fill="#EEEEEE"></path>
                    </g>
                </g>
            </g>
        </g>
    </g>
</svg>