<?xml version="1.0" encoding="UTF-8"?>
<svg width="16px" height="16px" viewBox="0 0 16 16" version="1.1" xmlns="http://www.w3.org/2000/svg" xmlns:xlink="http://www.w3.org/1999/xlink">
    <title>ba_flag_16px</title>
    <defs>
        <circle id="path-1" cx="8" cy="8" r="8"></circle>
    </defs>
    <g id="Design-System" stroke="none" stroke-width="1" fill="none" fill-rule="evenodd">
        <g id="Flags-16x16" transform="translate(-451.000000, -155.000000)">
            <g id="ba_flag_16px" transform="translate(451.000000, 155.000000)">
                <mask id="mask-2" fill="white">
                    <use xlink:href="#path-1"></use>
                </mask>
                <use id="Mask" fill="#D8D8D8" xlink:href="#path-1"></use>
                <g id="ba" mask="url(#mask-2)" fill-rule="nonzero">
                    <g transform="translate(0.000000, 0.021390)">
                        <polygon id="Path" fill="#FFDA44" points="0.35446906 0 13.9618029 0 14.9977082 7.79220779 13.9618029 15.6455309 4.07028266 11.5416348 0.35446906 2.04125286"></polygon>
                        <polygon id="Path" fill="#0052B4" points="0.35446906 2.04125286 0.35446906 15.6455309 13.9648587 15.6455309"></polygon>
                        <polygon id="Path" fill="#0052B4" points="13.9618029 0 16 0 16 15.6455309 13.9618029 15.6455309"></polygon>
                        <path d="M11.1902215,13.934301 L10.9365928,14.7165775 L10.1176471,14.7165775 L10.7807487,15.1993888 L10.5271199,15.9786096 L11.1902215,15.4957983 L11.8533231,15.9786096 L11.5996944,15.1993888 L12.262796,14.7165775 L11.4438503,14.7165775 L11.1902215,13.934301 Z M9.50954927,12.2414057 L9.25592055,13.0206264 L8.43697479,13.0206264 L9.10007639,13.5034377 L8.84644767,14.2826585 L9.50954927,13.7998472 L10.1726509,14.2826585 L9.91902215,13.5034377 L10.5821238,13.0206264 L9.763178,13.0206264 L9.50954927,12.2414057 Z M7.82276547,10.5423988 L7.56913675,11.3216196 L6.75019099,11.3216196 L7.41329259,11.8044309 L7.15966387,12.5836516 L7.82276547,12.1008403 L8.48586707,12.5836516 L8.23223835,11.8044309 L8.89533995,11.3216196 L8.07639419,11.3216196 L7.82276547,10.5423988 Z M6.13903743,8.84033613 L5.88540871,9.61955691 L5.06646295,9.61955691 L5.72956455,10.1023682 L5.47593583,10.881589 L6.13903743,10.3987777 L6.80213904,10.8785332 L6.54851031,10.0993125 L7.21161192,9.61650115 L6.39266616,9.61650115 L6.13903743,8.84033613 Z M4.44614209,7.13827349 L4.19251337,7.91749427 L3.37356761,7.91749427 L4.03666921,8.40030558 L3.78304049,9.17952636 L4.44614209,8.69671505 L5.1092437,9.17952636 L4.85561497,8.40030558 L5.51871658,7.9144385 L4.69977082,7.9144385 L4.44614209,7.13827349 Z M2.75935829,5.43926662 L2.50572956,6.21848739 L1.6867838,6.21848739 L2.34988541,6.7012987 L2.09625668,7.48051948 L2.75935829,6.99770817 L3.42245989,7.48051948 L3.16883117,6.7012987 L3.83193277,6.21848739 L3.01298701,6.21848739 L2.75935829,5.43926662 Z M1.07257448,3.73720397 L0.81894576,4.51642475 L0,4.51642475 L0.663101604,4.99923606 L0.40947288,5.77540107 L1.07257448,5.29258976 L1.73567609,5.77540107 L1.48204736,4.99618029 L2.14514897,4.51336898 L1.32620321,4.51336898 L1.07257448,3.73720397 Z" id="Shape" fill="#EEEEEE"></path>
                    </g>
                </g>
            </g>
        </g>
    </g>
</svg>