<?xml version="1.0" encoding="UTF-8"?>
<svg width="20px" height="20px" viewBox="0 0 20 20" version="1.1" xmlns="http://www.w3.org/2000/svg" xmlns:xlink="http://www.w3.org/1999/xlink">
    <title>bb_flag_20px</title>
    <defs>
        <circle id="path-1" cx="10" cy="10" r="10"></circle>
    </defs>
    <g id="Design-System" stroke="none" stroke-width="1" fill="none" fill-rule="evenodd">
        <g id="Flags-20x20" transform="translate(-501.000000, -155.000000)">
            <g id="bb_flag_20px" transform="translate(501.000000, 155.000000)">
                <mask id="mask-2" fill="white">
                    <use xlink:href="#path-1"></use>
                </mask>
                <use id="Mask" fill="#D8D8D8" xlink:href="#path-1"></use>
                <g id="bb" mask="url(#mask-2)" fill-rule="nonzero">
                    <polygon id="Path" fill="#0052B4" points="0 0 5.65625 0 10.0664063 1.43359375 14.3515625 0 20 0 20 20 14.3515625 20 10.0976562 18.5117188 5.65625 20 0 20"></polygon>
                    <polygon id="Path" fill="#FFDA44" points="5.65625 0 14.3515625 0 14.3515625 20 5.65625 20"></polygon>
                    <path d="M13.0507812,6.0859375 L13.6289062,6.37890625 L13.046875,6.0859375 L12.4609375,5.796875 C12.4296875,5.8671875 11.6679688,7.4140625 11.5429688,9.78125 L10.65625,9.78125 L10.65625,6.0859375 L10.0039063,5.21875 L9.3515625,6.0859375 L9.3515625,9.78125 L8.46484375,9.78125 C8.41238478,8.40676387 8.09955872,7.05471905 7.54296875,5.796875 L6.37890625,6.37890625 C6.38671875,6.39453125 7.1796875,8.0078125 7.1796875,10.4335938 L7.1796875,11.0859375 L9.3515625,11.0859375 L9.3515625,14.78125 L10.65625,14.78125 L10.65625,11.0859375 L12.828125,11.0859375 L12.828125,10.4335938 C12.828125,9.18359375 13.046875,8.14453125 13.2304688,7.5 C13.4257813,6.796875 13.6289063,6.3828125 13.6328125,6.37890625 L13.046875,6.0859375 L13.0507812,6.0859375 Z" id="Path" fill="#333333"></path>
                </g>
            </g>
        </g>
    </g>
</svg>