<?xml version="1.0" encoding="UTF-8"?>
<svg width="20px" height="20px" viewBox="0 0 20 20" version="1.1" xmlns="http://www.w3.org/2000/svg" xmlns:xlink="http://www.w3.org/1999/xlink">
    <title>bi_flag_20px</title>
    <defs>
        <circle id="path-1" cx="10" cy="10" r="10"></circle>
    </defs>
    <g id="Design-System" stroke="none" stroke-width="1" fill="none" fill-rule="evenodd">
        <g id="Flags-20x20" transform="translate(-301.000000, -205.000000)">
            <g id="bi_flag_20px" transform="translate(301.000000, 205.000000)">
                <mask id="mask-2" fill="white">
                    <use xlink:href="#path-1"></use>
                </mask>
                <use id="Mask" fill="#D8D8D8" xlink:href="#path-1"></use>
                <g id="bi" mask="url(#mask-2)" fill-rule="nonzero">
                    <polygon id="Path" fill="#EEEEEE" points="0 0 1.84375 0 9.94921875 1.171875 18.15625 0 20 0 20 1.84375 18.6484375 10 20 18.15625 20 20 18.15625 20 9.98828125 18.6015625 1.84375 20 0 20 0 18.15625 1.28125 10.2382812 0 1.84375"></polygon>
                    <path d="M1.84375,0 L10,8.15625 L18.15625,0 L1.84375,0 Z M10,11.84375 L1.84375,20 L18.15625,20 L10,11.84375 Z" id="Shape" fill="#D80027"></path>
                    <path d="M0,1.84375 L0,18.15625 L8.15625,10 L0,1.84375 Z M20,1.84375 L11.84375,10 L20,18.15625 L20,1.84375 Z" id="Shape" fill="#6DA544"></path>
                    <circle id="Oval" fill="#EEEEEE" cx="10" cy="10" r="4.34765625"></circle>
                    <path d="M10,6.953125 L10.375,7.609375 L11.1328125,7.609375 L10.7578125,8.26171875 L11.1328125,8.9140625 L10.3789062,8.9140625 L10.0039062,9.56640625 L9.62890625,8.9140625 L8.8671875,8.9140625 L9.2421875,8.26171875 L8.8671875,7.609375 L9.62109375,7.609375 L10,6.953125 Z M8.0859375,10 L8.4609375,10.6523438 L9.21875,10.6523438 L8.84375,11.3046875 L9.21875,11.9570312 L8.46484375,11.9570312 L8.08984375,12.609375 L7.71484375,11.9570312 L6.953125,11.9570312 L7.328125,11.3046875 L6.953125,10.6523438 L7.70703125,10.6523438 L8.0859375,10 Z M11.9140625,10 L12.2890625,10.6523438 L13.046875,10.6523438 L12.671875,11.3046875 L13.046875,11.9570312 L12.2929688,11.9570312 L11.9179687,12.609375 L11.5429687,11.9570312 L10.78125,11.9570312 L11.15625,11.3046875 L10.78125,10.6523438 L11.5351562,10.6523438 L11.9140625,10 Z" id="Shape" fill="#D80027"></path>
                </g>
            </g>
        </g>
    </g>
</svg>