<?xml version="1.0" encoding="UTF-8"?>
<svg width="20px" height="20px" viewBox="0 0 20 20" version="1.1" xmlns="http://www.w3.org/2000/svg" xmlns:xlink="http://www.w3.org/1999/xlink">
    <title>bl_flag_20px</title>
    <defs>
        <circle id="path-1" cx="10" cy="10" r="10"></circle>
    </defs>
    <g id="Design-System" stroke="none" stroke-width="1" fill="none" fill-rule="evenodd">
        <g id="Flags-20x20" transform="translate(-401.000000, -205.000000)">
            <g id="bl_flag_20px" transform="translate(401.000000, 205.000000)">
                <mask id="mask-2" fill="white">
                    <use xlink:href="#path-1"></use>
                </mask>
                <use id="Mask" fill="#D8D8D8" xlink:href="#path-1"></use>
                <g id="bl" mask="url(#mask-2)" fill-rule="nonzero">
                    <polygon id="Path" fill="#EEEEEE" points="0 0 20 0 20 20 0 20"></polygon>
                    <path d="M6.5234375,6.953125 C5.91937605,6.953125 5.4296875,7.44281355 5.4296875,8.046875 L2.1484375,8.046875 C2.1484375,8.65093645 2.63812605,9.140625 3.2421875,9.140625 C3.2421875,9.74468645 3.73187605,10.234375 4.3359375,10.234375 C4.3359375,10.8384364 4.82562605,11.328125 5.4296875,11.328125 L14.5703125,11.328125 C15.1743739,11.328125 15.6640625,10.8384364 15.6640625,10.234375 C16.2681239,10.234375 16.7578125,9.74468645 16.7578125,9.140625 C17.047893,9.140625 17.3260926,9.02539096 17.5312105,8.82027304 C17.7363285,8.61515513 17.8515625,8.33695554 17.8515625,8.046875 L14.5703125,8.046875 C14.5703125,7.44281355 14.0806239,6.953125 13.4765625,6.953125 L6.5234375,6.953125 Z" id="Path" fill="#ACABB1"></path>
                    <path d="M4.8046875,13.9453125 L6.5234375,13.9453125 L6.5234375,15.6640625 L4.8046875,15.6640625 L4.8046875,13.9453125 Z M13.4765625,13.9453125 L15.1953125,13.9453125 L15.1953125,15.6640625 L13.4765625,15.6640625 L13.4765625,13.9453125 Z M6.5234375,14.375 L13.4765625,14.375 L13.4765625,16.09375 L6.5234375,16.09375 L6.5234375,14.375 Z M9.140625,3.90625 L9.140625,5.21484375 L8.7109375,5.6640625 L8.2421875,5.4296875 L8.2421875,4.765625 L6.5234375,4.765625 L6.5234375,6.953125 L10,7.5 L13.4765625,6.953125 L13.4765625,4.765625 L11.7578125,4.765625 L11.7578125,5.4296875 L11.2890625,5.6640625 L10.859375,5.21484375 L10.859375,3.90625 L9.140625,3.90625 Z" id="Shape" fill="#FFDA44"></path>
                    <path d="M6.5234375,6.953125 L6.5234375,11.328125 C6.5234375,13.984375 10,14.7851562 10,14.7851562 C10,14.7851562 13.4765625,13.9882812 13.4765625,11.328125 L13.4765625,6.953125 L6.5234375,6.953125 Z" id="Path" fill="#0052B4"></path>
                    <polygon id="Path" fill="#D80027" points="6.5234375 8.67578125 13.4765625 8.67578125 13.4765625 11.3710938 6.5234375 11.3710938"></polygon>
                </g>
            </g>
        </g>
    </g>
</svg>