<?xml version="1.0" encoding="UTF-8"?>
<svg width="20px" height="20px" viewBox="0 0 20 20" version="1.1" xmlns="http://www.w3.org/2000/svg" xmlns:xlink="http://www.w3.org/1999/xlink">
    <title>bn_flag_20px</title>
    <defs>
        <circle id="path-1" cx="10" cy="10" r="10"></circle>
    </defs>
    <g id="Design-System" stroke="none" stroke-width="1" fill="none" fill-rule="evenodd">
        <g id="Flags-20x20" transform="translate(-501.000000, -205.000000)">
            <g id="bn_flag_20px" transform="translate(501.000000, 205.000000)">
                <mask id="mask-2" fill="white">
                    <use xlink:href="#path-1"></use>
                </mask>
                <use id="Mask" fill="#D8D8D8" xlink:href="#path-1"></use>
                <g id="bn" mask="url(#mask-2)" fill-rule="nonzero">
                    <polygon id="Path" fill="#FFDA44" points="0 0 20 0 20 12.7617188 19.2460938 15.75 20 18.7851562 20 20 0 20 0 7.234375 0.8359375 4.24609375 0 1.2109375"></polygon>
                    <polygon id="Path" fill="#EEEEEE" points="0 1.2109375 0 5.7890625 20 17.3398438 20 12.7617188"></polygon>
                    <polygon id="Path" fill="#333333" points="0 4.2265625 0 7.234375 20 18.7890625 20 15.78125"></polygon>
                    <g id="Group" transform="translate(6.085937, 5.652344)" fill="#D80027">
                        <path d="M6.73828125,3.26171875 C6.73501101,4.43740464 6.00373739,5.48808867 4.90238389,5.89951118 C3.80103039,6.31093369 2.55999865,5.99702566 1.78671443,5.11143008 C1.01343021,4.2258345 0.869663504,2.95381674 1.42578125,1.91796875 C0.0910054054,3.28371294 0.107722452,5.4704212 1.46322287,6.81559864 C2.8187233,8.16077608 5.00549545,8.16077608 6.36099588,6.81559864 C7.7164963,5.4704212 7.73321334,3.28371294 6.3984375,1.91796875 C6.6220445,2.33052089 6.73887341,2.79246508 6.73828125,3.26171875 L6.73828125,3.26171875 Z" id="Path"></path>
                        <polygon id="Path" points="3.26171875 0 4.56640625 0 4.56640625 6.5234375 3.26171875 6.5234375"></polygon>
                        <path d="M6.0859375,1.30078125 L1.7421875,1.30078125 C1.7421875,1.60546875 2,1.84765625 2.30078125,1.84765625 L2.28515625,1.84765625 C2.28514858,2.14816804 2.52762088,2.39238474 2.828125,2.39453125 C2.8323675,2.69199213 3.07360999,2.93149907 3.37109375,2.93359375 L4.45703125,2.93359375 C4.75754304,2.93359375 5.00175974,2.69112912 5.00390625,2.390625 C5.30136713,2.3863825 5.54087407,2.14514001 5.54296875,1.84765625 L5.52734375,1.84765625 C5.82421875,1.84765625 6.0859375,1.60546875 6.0859375,1.3046875 L6.0859375,1.30078125 Z M0.87109375,6.9609375 L6.95703125,6.9609375 L6.95703125,8.265625 L0.87109375,8.265625 L0.87109375,6.9609375 Z" id="Shape"></path>
                        <path d="M5.21875,7.390625 L7.828125,7.390625 L7.828125,8.6953125 L5.21875,8.6953125 L5.21875,7.390625 Z M0,7.390625 L2.609375,7.390625 L2.609375,8.6953125 L0,8.6953125 L0,7.390625 Z" id="Shape"></path>
                    </g>
                </g>
            </g>
        </g>
    </g>
</svg>