<?xml version="1.0" encoding="UTF-8"?>
<svg width="20px" height="20px" viewBox="0 0 20 20" version="1.1" xmlns="http://www.w3.org/2000/svg" xmlns:xlink="http://www.w3.org/1999/xlink">
    <title>bq_bo__flag_20px</title>
    <defs>
        <circle id="path-1" cx="10" cy="10" r="10"></circle>
    </defs>
    <g id="Design-System" stroke="none" stroke-width="1" fill="none" fill-rule="evenodd">
        <g id="Flags-20x20" transform="translate(-101.000000, -255.000000)">
            <g id="bq_bo__flag_20px" transform="translate(101.000000, 255.000000)">
                <mask id="mask-2" fill="white">
                    <use xlink:href="#path-1"></use>
                </mask>
                <use id="Mask" fill="#D8D8D8" xlink:href="#path-1"></use>
                <g id="bq-bo" mask="url(#mask-2)" fill-rule="nonzero">
                    <polygon id="Path" fill="#EEEEEE" points="4.44140625 4.6796875 10.78125 0 20 0 20 1.23828125 11.953125 11.3085938 1.234375 20 0 20 0 10.78125"></polygon>
                    <polygon id="Path" fill="#FFDA44" points="0 0 0 10.78125 10.78125 0"></polygon>
                    <polygon id="Path" fill="#0052B4" points="20 1.23828125 1.23828125 20 20 20"></polygon>
                    <path d="M9.9609375,9.59765625 L10.8242188,9.12890625 L9.96484375,8.66015625 C9.7600921,7.35201147 8.73392603,6.3258454 7.42578125,6.12109375 L6.95703125,5.26171875 L6.48828125,6.12109375 C5.18013647,6.3258454 4.1539704,7.35201147 3.94921875,8.66015625 L3.08984375,9.12890625 L3.94921875,9.59765625 C4.1539704,10.905801 5.18013647,11.9319671 6.48828125,12.1367187 L6.95703125,13 L7.42578125,12.140625 C8.73392603,11.9358733 9.7600921,10.9097073 9.96484375,9.6015625 L9.9609375,9.59765625 Z M6.953125,10.8710938 C5.99309877,10.8710938 5.21484375,10.0928387 5.21484375,9.1328125 C5.21484375,8.17278627 5.99309877,7.39453125 6.953125,7.39453125 C7.91315121,7.39453125 8.6914062,8.17278629 8.6914062,9.1328125 C8.6914062,10.0928387 7.91315121,10.8710938 6.953125,10.8710938 Z" id="Shape" fill="#333333"></path>
                    <polygon id="Path" fill="#D80027" points="6.953125 7.82421875 7.33203125 8.4765625 8.0859375 8.4765625 7.7109375 9.12890625 8.0859375 9.78125 7.33203125 9.78125 6.95703125 10.4335937 6.578125 9.78125 5.828125 9.78125 6.203125 9.12890625 5.828125 8.4765625 6.578125 8.4765625"></polygon>
                </g>
            </g>
        </g>
    </g>
</svg>