<?xml version="1.0" encoding="UTF-8"?>
<svg width="20px" height="20px" viewBox="0 0 20 20" version="1.1" xmlns="http://www.w3.org/2000/svg" xmlns:xlink="http://www.w3.org/1999/xlink">
    <title>bq_se_flag_20px</title>
    <defs>
        <circle id="path-1" cx="10" cy="10" r="10"></circle>
    </defs>
    <g id="Design-System" stroke="none" stroke-width="1" fill="none" fill-rule="evenodd">
        <g id="Flags-20x20" transform="translate(-201.000000, -255.000000)">
            <g id="bq_se_flag_20px" transform="translate(201.000000, 255.000000)">
                <mask id="mask-2" fill="white">
                    <use xlink:href="#path-1"></use>
                </mask>
                <use id="Mask" fill="#D8D8D8" xlink:href="#path-1"></use>
                <g id="bq-se" mask="url(#mask-2)" fill-rule="nonzero">
                    <polygon id="Path" fill="#0052B4" points="0 1.7421875 9.97265625 0.703125 20 1.7421875 20 9.34765625 19.2851562 10 20 10.6523438 20 18.2578125 10.0195312 19.3320312 0 18.2578125 0 10.6523438 0.68359375 9.9765625 0 9.34765625"></polygon>
                    <polygon id="Path" fill="#EEEEEE" points="3.9140625 10.0039062 10 6.17578125 16.0859375 10.0039062 10 13.8320312"></polygon>
                    <polygon id="Path" fill="#6DA544" points="6.5234375 11.7421875 14.3476562 11.7421875 12.609375 9.1328125 11.7382812 10.0039063 10.8710937 9.57421875 10 10.875 8.26171875 10.875 7.390625 10.0039063"></polygon>
                    <polygon id="Path" fill="#FFDA44" points="10 7.39453125 10.2148438 8.05859375 10.9179688 8.05859375 10.3476562 8.46875 10.5664062 9.1328125 10 8.72265625 9.43359375 9.1328125 9.65234375 8.46875 9.0859375 8.05859375 9.78515625 8.05859375"></polygon>
                    <path d="M0,0 L0,1.7421875 L9.3515625,1.7421875 L9.3515625,5.4921875 L3.21875,9.34765625 L0,9.34765625 L0,10.6523438 L3.203125,10.6523438 L9.34765625,14.5195312 L9.34765625,18.2578125 L0,18.2578125 L0,20 L20,20 L20,18.2578125 L10.6523438,18.2578125 L10.6523438,14.515625 L16.796875,10.6523438 L20,10.6523438 L20,9.34765625 L16.78125,9.34765625 L10.6523438,5.49609375 L10.6523438,1.74609375 L20,1.74609375 L20,0 L0,0 Z M10,6.625 L15.375,10.0039062 L10,13.3828125 L4.625,10.0039062 L10,6.625 Z" id="Shape" fill="#D80027"></path>
                </g>
            </g>
        </g>
    </g>
</svg>