<?xml version="1.0" encoding="UTF-8"?>
<svg width="20px" height="20px" viewBox="0 0 20 20" version="1.1" xmlns="http://www.w3.org/2000/svg" xmlns:xlink="http://www.w3.org/1999/xlink">
    <title>br_flag_20px</title>
    <defs>
        <circle id="path-1" cx="10" cy="10" r="10"></circle>
    </defs>
    <g id="Design-System" stroke="none" stroke-width="1" fill="none" fill-rule="evenodd">
        <g id="Flags-20x20" transform="translate(-251.000000, -255.000000)">
            <g id="br_flag_20px" transform="translate(251.000000, 255.000000)">
                <mask id="mask-2" fill="white">
                    <use xlink:href="#path-1"></use>
                </mask>
                <use id="Mask" fill="#D8D8D8" xlink:href="#path-1"></use>
                <g id="br" mask="url(#mask-2)" fill-rule="nonzero">
                    <polygon id="Path" fill="#6DA544" points="0 0 20 0 20 20 0 20"></polygon>
                    <polygon id="Path" fill="#FFDA44" points="10 3.9140625 18.2617188 10 10 16.0859375 1.73828125 10"></polygon>
                    <path d="M6.8046875,8.6328125 C6.61033226,9.07982926 6.51441252,9.56342462 6.5234375,10.0507812 L12.8515625,11.9960938 C13.1303569,11.5978587 13.322028,11.1453021 13.4140625,10.6679688 C11.828125,8.1171875 8.73828125,7.53125 6.80859375,8.63671875 L6.8046875,8.6328125 Z" id="Path" fill="#EEEEEE"></path>
                    <path d="M9.98828125,6.52342473 C9.41697394,6.52487945 8.85482625,6.66709342 8.3515625,6.9375 C7.6589047,7.31121769 7.11355035,7.90890403 6.8046875,8.6328125 C9.21109421,8.12183752 11.7104918,8.89338425 13.4101562,10.671875 C13.5654497,9.88106797 13.4411777,9.06087296 13.0585937,8.3515625 C12.4506042,7.2226044 11.2705393,6.51997032 9.98828125,6.52342473 Z M8.28125,9.78512369 C7.68516754,9.78316257 7.09231605,9.87274902 6.5234375,10.0507812 C6.53001197,10.6085252 6.67068994,11.1564994 6.93359375,11.6484375 C7.37051251,12.4609402 8.11245162,13.0664723 8.99603323,13.3316933 C9.87961484,13.5969143 10.8323818,13.5000751 11.6445312,13.0625 C12.121966,12.8054184 12.5326458,12.440221 12.84375,11.9960937 C11.7333788,10.6097541 10.0573995,9.79759291 8.28125,9.78512369 L8.28125,9.78512369 Z" id="Shape" fill="#0052B4"></path>
                </g>
            </g>
        </g>
    </g>
</svg>