<?xml version="1.0" encoding="UTF-8"?>
<svg width="16px" height="16px" viewBox="0 0 16 16" version="1.1" xmlns="http://www.w3.org/2000/svg" xmlns:xlink="http://www.w3.org/1999/xlink">
    <title>br_flag_16px</title>
    <defs>
        <circle id="path-1" cx="8" cy="8" r="8"></circle>
    </defs>
    <g id="Design-System" stroke="none" stroke-width="1" fill="none" fill-rule="evenodd">
        <g id="Flags-16x16" transform="translate(-251.000000, -255.000000)">
            <g id="br_flag_16px" transform="translate(251.000000, 255.000000)">
                <mask id="mask-2" fill="white">
                    <use xlink:href="#path-1"></use>
                </mask>
                <use id="Mask" fill="#D8D8D8" xlink:href="#path-1"></use>
                <g id="br" mask="url(#mask-2)" fill-rule="nonzero">
                    <polygon id="Path" fill="#6DA544" points="0 0 16 0 16 16 0 16"></polygon>
                    <polygon id="Path" fill="#FFDA44" points="8 3.13125 14.609375 8 8 12.86875 1.390625 8"></polygon>
                    <path d="M5.44375,6.90625 C5.28826581,7.2638634 5.21153002,7.65073969 5.21875,8.040625 L10.28125,9.596875 C10.5042855,9.27828696 10.6576224,8.91624168 10.73125,8.534375 C9.4625,6.49375 6.990625,6.025 5.446875,6.909375 L5.44375,6.90625 Z" id="Path" fill="#EEEEEE"></path>
                    <path d="M7.990625,5.21873978 C7.53357915,5.21990356 7.083861,5.33367474 6.68125,5.55 C6.12712376,5.84897415 5.69084028,6.32712322 5.44375,6.90625 C7.36887537,6.49747002 9.36839341,7.1147074 10.728125,8.5375 C10.8523597,7.90485437 10.7529422,7.24869837 10.446875,6.68125 C9.96048336,5.77808352 9.01643143,5.21597626 7.990625,5.21873978 Z M6.625,7.82809896 C6.14813403,7.82653006 5.67385284,7.89819921 5.21875,8.040625 C5.22400957,8.48682014 5.33655196,8.92519952 5.546875,9.31875 C5.89641001,9.96875216 6.4899613,10.4531778 7.19682659,10.6653547 C7.90369188,10.8775315 8.66590547,10.8000601 9.315625,10.45 C9.69757278,10.2443347 10.0261167,9.95217683 10.275,9.596875 C9.38670305,8.4878033 8.04591961,7.83807433 6.625,7.82809896 L6.625,7.82809896 Z" id="Shape" fill="#0052B4"></path>
                </g>
            </g>
        </g>
    </g>
</svg>