<?xml version="1.0" encoding="UTF-8"?>
<svg width="20px" height="20px" viewBox="0 0 20 20" version="1.1" xmlns="http://www.w3.org/2000/svg" xmlns:xlink="http://www.w3.org/1999/xlink">
    <title>bt_flag_20px</title>
    <defs>
        <circle id="path-1" cx="10" cy="10" r="10"></circle>
    </defs>
    <g id="Design-System" stroke="none" stroke-width="1" fill="none" fill-rule="evenodd">
        <g id="Flags-20x20" transform="translate(-351.000000, -255.000000)">
            <g id="bt_flag_20px" transform="translate(351.000000, 255.000000)">
                <mask id="mask-2" fill="white">
                    <use xlink:href="#path-1"></use>
                </mask>
                <use id="Mask" fill="#D8D8D8" xlink:href="#path-1"></use>
                <g id="bt" mask="url(#mask-2)" fill-rule="nonzero">
                    <polygon id="Path" fill="#FFDA44" points="0 0 20 0 10.9765625 11.453125 0 20"></polygon>
                    <polygon id="Path" fill="#FF9811" points="19.7929688 0 0 19.7929688 0 20 20 20 20 0"></polygon>
                    <path d="M15.5546875,5.546875 L15.5546875,3.81640625 L12.2226562,3.81640625 L11.96875,4.0703125 C11.0625,4.9765625 11.2148438,6.03125 11.3242188,6.8046875 C11.4296875,7.51953125 11.4414062,7.79296875 11.1757812,8.0546875 C10.9101562,8.328125 10.6289062,8.3125 9.91796875,8.2109375 C9.1484375,8.09375 8.08984375,7.9453125 7.18359375,8.8515625 C6.27734375,9.7578125 6.4296875,10.8164062 6.54296875,11.5859375 C6.64453125,12.3007813 6.66015625,12.578125 6.38671875,12.84375 C6.125,13.109375 5.8515625,13.0976562 5.13671875,12.9921875 C4.85546875,12.953125 4.5703125,12.9140625 4.26171875,12.90625 L4.2421875,14.6484375 C4.4375,14.6484375 4.65625,14.6796875 4.88671875,14.7148438 C5.16015625,14.7539063 5.47265625,14.8007813 5.8046875,14.8007813 C6.14453125,14.8007813 6.5078125,14.75 6.859375,14.5976563 L6.859375,15.9882813 L9.46875,15.9882813 L9.46875,14.6835938 L8.1640625,14.6835938 L8.1640625,13.8164062 L9.03515625,13.8164062 L9.03515625,12.5117188 L8.33203125,12.5117188 C8.3671875,12.0898438 8.30859375,11.6835938 8.25390625,11.3398438 C8.15625,10.6210938 8.13671875,10.3476563 8.41015625,10.0820313 C8.67578125,9.81640625 8.94921875,9.828125 9.66796875,9.93359375 C10.2265625,10.0117188 10.9414062,10.1171875 11.6367187,9.81640625 L11.6367187,11.2070313 L14.2460938,11.2070313 L14.2460938,9.90234375 L12.9453125,9.90234375 L12.9453125,9.0234375 L13.8164062,9.0234375 L13.8164062,7.71875 L13.1210938,7.71875 C13.1404639,7.32641813 13.114247,6.93316365 13.0429688,6.546875 C12.9726562,6.046875 12.9453125,5.765625 13.0273438,5.546875 L15.5546875,5.546875 Z" id="Path" fill="#EEEEEE"></path>
                </g>
            </g>
        </g>
    </g>
</svg>