<?xml version="1.0" encoding="UTF-8"?>
<svg width="16px" height="16px" viewBox="0 0 16 16" version="1.1" xmlns="http://www.w3.org/2000/svg" xmlns:xlink="http://www.w3.org/1999/xlink">
    <title>bt_flag_16px</title>
    <defs>
        <circle id="path-1" cx="8" cy="8" r="8"></circle>
    </defs>
    <g id="Design-System" stroke="none" stroke-width="1" fill="none" fill-rule="evenodd">
        <g id="Flags-16x16" transform="translate(-351.000000, -255.000000)">
            <g id="bt_flag_16px" transform="translate(351.000000, 255.000000)">
                <mask id="mask-2" fill="white">
                    <use xlink:href="#path-1"></use>
                </mask>
                <use id="Mask" fill="#D8D8D8" xlink:href="#path-1"></use>
                <g id="bt" mask="url(#mask-2)" fill-rule="nonzero">
                    <polygon id="Path" fill="#FFDA44" points="0 0 16 0 8.78125 9.1625 0 16"></polygon>
                    <polygon id="Path" fill="#FF9811" points="15.834375 0 0 15.834375 0 16 16 16 16 0"></polygon>
                    <path d="M12.44375,4.4375 L12.44375,3.053125 L9.778125,3.053125 L9.575,3.25625 C8.85,3.98125 8.971875,4.825 9.059375,5.44375 C9.14375,6.015625 9.153125,6.234375 8.940625,6.44375 C8.728125,6.6625 8.503125,6.65 7.934375,6.56875 C7.31875,6.475 6.471875,6.35625 5.746875,7.08125 C5.021875,7.80625 5.14375,8.653125 5.234375,9.26875 C5.315625,9.840625 5.328125,10.0625 5.109375,10.275 C4.9,10.4875 4.68125,10.478125 4.109375,10.39375 C3.884375,10.3625 3.65625,10.33125 3.409375,10.325 L3.39375,11.71875 C3.55,11.71875 3.725,11.74375 3.909375,11.771875 C4.128125,11.803125 4.378125,11.840625 4.64375,11.840625 C4.915625,11.840625 5.20625,11.8 5.4875,11.678125 L5.4875,12.790625 L7.575,12.790625 L7.575,11.746875 L6.53125,11.746875 L6.53125,11.053125 L7.228125,11.053125 L7.228125,10.009375 L6.665625,10.009375 C6.69375,9.671875 6.646875,9.346875 6.603125,9.071875 C6.525,8.496875 6.509375,8.278125 6.728125,8.065625 C6.940625,7.853125 7.159375,7.8625 7.734375,7.946875 C8.18125,8.009375 8.753125,8.09375 9.309375,7.853125 L9.309375,8.965625 L11.396875,8.965625 L11.396875,7.921875 L10.35625,7.921875 L10.35625,7.21875 L11.053125,7.21875 L11.053125,6.175 L10.496875,6.175 C10.5123711,5.8611345 10.4913976,5.54653092 10.434375,5.2375 C10.378125,4.8375 10.35625,4.6125 10.421875,4.4375 L12.44375,4.4375 Z" id="Path" fill="#EEEEEE"></path>
                </g>
            </g>
        </g>
    </g>
</svg>