<?xml version="1.0" encoding="UTF-8"?>
<svg width="16px" height="16px" viewBox="0 0 16 16" version="1.1" xmlns="http://www.w3.org/2000/svg" xmlns:xlink="http://www.w3.org/1999/xlink">
    <title>bw_flag_16px</title>
    <defs>
        <circle id="path-1" cx="8" cy="8" r="8"></circle>
    </defs>
    <g id="Design-System" stroke="none" stroke-width="1" fill="none" fill-rule="evenodd">
        <g id="Flags-16x16" transform="translate(-401.000000, -255.000000)">
            <g id="bw_flag_16px" transform="translate(401.000000, 255.000000)">
                <mask id="mask-2" fill="white">
                    <use xlink:href="#path-1"></use>
                </mask>
                <use id="Mask" fill="#D8D8D8" xlink:href="#path-1"></use>
                <g id="bw" mask="url(#mask-2)" fill-rule="nonzero">
                    <polygon id="Path" fill="#338AF3" points="0 0 16 0 16 5.5625 15.03125 7.965625 16 10.4375 16 16 0 16 0 10.4375 1.15625 7.915625 0 5.5625"></polygon>
                    <polygon id="Path" fill="#333333" points="0 6.609375 8 6.009375 16 6.609375 16 9.390625 8.04375 10.0375 0 9.390625"></polygon>
                    <path d="M0,5.5625 L16,5.5625 L16,6.609375 L0,6.609375 L0,5.5625 Z M0,9.390625 L16,9.390625 L16,10.4375 L0,10.4375 L0,9.390625 Z" id="Shape" fill="#EEEEEE"></path>
                </g>
            </g>
        </g>
    </g>
</svg>