<?xml version="1.0" encoding="UTF-8"?>
<svg width="20px" height="20px" viewBox="0 0 20 20" version="1.1" xmlns="http://www.w3.org/2000/svg" xmlns:xlink="http://www.w3.org/1999/xlink">
    <title>bw_flag_20px</title>
    <defs>
        <circle id="path-1" cx="10" cy="10" r="10"></circle>
    </defs>
    <g id="Design-System" stroke="none" stroke-width="1" fill="none" fill-rule="evenodd">
        <g id="Flags-20x20" transform="translate(-401.000000, -255.000000)">
            <g id="bw_flag_20px" transform="translate(401.000000, 255.000000)">
                <mask id="mask-2" fill="white">
                    <use xlink:href="#path-1"></use>
                </mask>
                <use id="Mask" fill="#D8D8D8" xlink:href="#path-1"></use>
                <g id="bw" mask="url(#mask-2)" fill-rule="nonzero">
                    <polygon id="Path" fill="#338AF3" points="0 0 20 0 20 6.953125 18.7890625 9.95703125 20 13.046875 20 20 0 20 0 13.046875 1.4453125 9.89453125 0 6.953125"></polygon>
                    <polygon id="Path" fill="#333333" points="0 8.26171875 10 7.51171875 20 8.26171875 20 11.7382812 10.0546875 12.546875 0 11.7382812"></polygon>
                    <path d="M0,6.953125 L20,6.953125 L20,8.26171875 L0,8.26171875 L0,6.953125 Z M0,11.7382812 L20,11.7382812 L20,13.046875 L0,13.046875 L0,11.7382812 Z" id="Shape" fill="#EEEEEE"></path>
                </g>
            </g>
        </g>
    </g>
</svg>