<?xml version="1.0" encoding="UTF-8"?>
<svg width="20px" height="20px" viewBox="0 0 20 20" version="1.1" xmlns="http://www.w3.org/2000/svg" xmlns:xlink="http://www.w3.org/1999/xlink">
    <title>by_flag_20px</title>
    <defs>
        <circle id="path-1" cx="10" cy="10" r="10"></circle>
    </defs>
    <g id="Design-System" stroke="none" stroke-width="1" fill="none" fill-rule="evenodd">
        <g id="Flags-20x20" transform="translate(-451.000000, -255.000000)">
            <g id="by_flag_20px" transform="translate(451.000000, 255.000000)">
                <mask id="mask-2" fill="white">
                    <use xlink:href="#path-1"></use>
                </mask>
                <use id="Mask" fill="#D8D8D8" xlink:href="#path-1"></use>
                <g id="by" mask="url(#mask-2)" fill-rule="nonzero">
                    <polygon id="Path" fill="#EEEEEE" points="0 0 6.08474907 0 7.4516696 9.94337044 6.08474907 19.9960945 0 19.9960945"></polygon>
                    <polygon id="Path" fill="#A2001D" points="6.08474907 0 19.9960945 0 19.9960945 13.4778364 12.8490529 14.9384886 6.08474907 13.4778364"></polygon>
                    <polygon id="Path" fill="#6DA544" points="6.08474907 13.4778364 19.9960945 13.4778364 19.9960945 19.9960945 6.08474907 19.9960945"></polygon>
                    <path d="M1.9527436,0.00781097442 L0.870923648,1.9527436 L1.95664909,3.92110916 L3.04237454,1.9527436 L1.9527436,0.00781097442 Z M4.13200547,0.00781097442 L3.04628002,1.9527436 L4.12809998,3.92110916 L5.2216364,1.9527436 L4.13200547,0.00781097442 Z M1.9527436,5.37004491 L0.870923648,7.30716657 L1.95664909,9.27943761 L3.03846905,7.30716657 L1.9527436,5.37004491 Z M4.13200547,5.37004491 L3.04628002,7.30716657 L4.12809998,9.27943761 L5.2216364,7.30716657 L4.13200547,5.37004491 Z M1.9527436,10.7283734 L0.870923648,12.6694005 L1.95664909,14.6377661 L3.04237454,12.6694005 L1.9527436,10.7283734 Z M4.13200547,10.7283734 L3.04628002,12.6694005 L4.12809998,14.6377661 L5.2216364,12.6694005 L4.13200547,10.7283734 Z M1.9527436,16.0906073 L0.870923648,18.027729 L1.95664909,20 L3.03846905,18.027729 L1.9527436,16.0906073 Z M4.13200547,16.0906073 L3.04628002,18.027729 L4.12809998,20 L5.2216364,18.027729 L4.13200547,16.0906073 Z" id="Shape" fill="#A2001D"></path>
                </g>
            </g>
        </g>
    </g>
</svg>