<?xml version="1.0" encoding="UTF-8"?>
<svg width="16px" height="16px" viewBox="0 0 16 16" version="1.1" xmlns="http://www.w3.org/2000/svg" xmlns:xlink="http://www.w3.org/1999/xlink">
    <title>by_flag_16px</title>
    <defs>
        <circle id="path-1" cx="8" cy="8" r="8"></circle>
    </defs>
    <g id="Design-System" stroke="none" stroke-width="1" fill="none" fill-rule="evenodd">
        <g id="Flags-16x16" transform="translate(-451.000000, -255.000000)">
            <g id="by_flag_16px" transform="translate(451.000000, 255.000000)">
                <mask id="mask-2" fill="white">
                    <use xlink:href="#path-1"></use>
                </mask>
                <use id="Mask" fill="#D8D8D8" xlink:href="#path-1"></use>
                <g id="by" mask="url(#mask-2)" fill-rule="nonzero">
                    <polygon id="Path" fill="#EEEEEE" points="0 0 4.86779926 0 5.96133568 7.95469635 4.86779926 15.9968756 0 15.9968756"></polygon>
                    <polygon id="Path" fill="#A2001D" points="4.86779926 0 15.9968756 0 15.9968756 10.7822691 10.2792423 11.9507909 4.86779926 10.7822691"></polygon>
                    <polygon id="Path" fill="#6DA544" points="4.86779926 10.7822691 15.9968756 10.7822691 15.9968756 15.9968756 4.86779926 15.9968756"></polygon>
                    <path d="M1.56219488,0.00624877954 L0.696738918,1.56219488 L1.56531927,3.13688733 L2.43389963,1.56219488 L1.56219488,0.00624877954 Z M3.30560437,0.00624877954 L2.43702402,1.56219488 L3.30247998,3.13688733 L4.17730912,1.56219488 L3.30560437,0.00624877954 Z M1.56219488,4.29603593 L0.696738918,5.84573326 L1.56531927,7.42355009 L2.43077524,5.84573326 L1.56219488,4.29603593 Z M3.30560437,4.29603593 L2.43702402,5.84573326 L3.30247998,7.42355009 L4.17730912,5.84573326 L3.30560437,4.29603593 Z M1.56219488,8.58269869 L0.696738918,10.1355204 L1.56531927,11.7102128 L2.43389963,10.1355204 L1.56219488,8.58269869 Z M3.30560437,8.58269869 L2.43702402,10.1355204 L3.30247998,11.7102128 L4.17730912,10.1355204 L3.30560437,8.58269869 Z M1.56219488,12.8724858 L0.696738918,14.4221832 L1.56531927,16 L2.43077524,14.4221832 L1.56219488,12.8724858 Z M3.30560437,12.8724858 L2.43702402,14.4221832 L3.30247998,16 L4.17730912,14.4221832 L3.30560437,12.8724858 Z" id="Shape" fill="#A2001D"></path>
                </g>
            </g>
        </g>
    </g>
</svg>