<?xml version="1.0" encoding="UTF-8"?>
<svg width="20px" height="20px" viewBox="0 0 20 20" version="1.1" xmlns="http://www.w3.org/2000/svg" xmlns:xlink="http://www.w3.org/1999/xlink">
    <title>ca_bc_flag_20px</title>
    <defs>
        <circle id="path-1" cx="10" cy="10" r="10"></circle>
    </defs>
    <g id="Design-System" stroke="none" stroke-width="1" fill="none" fill-rule="evenodd">
        <g id="Flags-20x20" transform="translate(-101.000000, -305.000000)">
            <g id="flag" transform="translate(101.000000, 305.000000)">
                <mask id="mask-2" fill="white">
                    <use xlink:href="#path-1"></use>
                </mask>
                <use id="Mask" fill="#D8D8D8" xlink:href="#path-1"></use>
                <g id="ca-bc" mask="url(#mask-2)" fill-rule="nonzero">
                    <g transform="translate(0.000000, 0.000000)">
                        <polygon id="Path" fill="#EEEEEE" points="0 2.390625 3.15234375 0 3.77734375 0 4.5 0.234375 5.00390625 0 8.69921875 0 10.0195312 0.75 11.3085938 0 13.7734375 0 14.2382812 0.28515625 15 0 16.84375 0 20 2.390625 20 3.6953125 19.1914062 5 20 6.3046875 20 7.609375 19.140625 8.76953125 20 10 20 10.5117188 19.6210938 11.2539063 20 11.8515625 20 13.1132812 19.5039062 13.8867188 20 14.453125 20 15.734375 18.890625 17.9609375 1.4609375 17.921875 0.00390625 15.734375 0.00390625 14.453125 0.52734375 13.9179688 0 13.1132812 0 11.8515625 0.5546875 11.296875 0 10.5078125 0 10 1.0703125 8.8046875 0 7.609375 0 6.3046875 0.99609375 4.99609375 0 3.6953125"></polygon>
                        <path d="M0,0 L0,2.390625 L5.55078125,2.390625 L3.15234375,0 L0,0 Z M16.8476562,0 L14.4570312,2.390625 L20,2.390625 L20,0 L16.8476562,0 Z M0,7.609375 L0,10 L3.16015625,10 L5.55078125,7.609375 L0,7.609375 Z M14.4570312,7.609375 L16.8476562,10 L20,10 L20,7.609375 L14.4570312,7.609375 Z M7.39453125,9.453125 L6.84765625,10 L7.39453125,10 L7.39453125,9.453125 Z M12.6132812,9.453125 L12.6132812,10 L13.1601562,10 L12.6132812,9.453125 Z M0,10.5117188 L0,11.8515625 L0.00390625,11.8515625 C0.8359375,11.8515625 0.8359375,12.6132812 1.66796875,12.6132812 C2.50390625,12.6132812 2.50390625,11.8515625 3.3359375,11.8515625 C4.16796875,11.8515625 4.16796875,12.6132812 5.00390625,12.6132812 C5.83984375,12.6132812 5.8359375,11.8515625 6.66796875,11.8515625 C7.50390625,11.8515625 7.50390625,12.6132812 8.3359375,12.6132812 C9.16796875,12.6132812 9.16796875,11.8515625 10.0039062,11.8515625 C10.8398438,11.8515625 10.8398438,12.6132812 11.671875,12.6132812 C12.5039062,12.6132812 12.5039062,11.8515625 13.3398438,11.8515625 C14.171875,11.8515625 14.171875,12.6132812 15.0039062,12.6132812 C15.8398438,12.6132812 15.8398438,11.8515625 16.671875,11.8515625 C17.5039062,11.8515625 17.5039062,12.6132812 18.3398438,12.6132812 C19.1757812,12.6132812 19.171875,11.8554688 20,11.8515625 L20,10.5117188 C19.171875,10.5117188 19.171875,11.2734375 18.3398438,11.2734375 C17.5078125,11.2734375 17.5039062,10.5117188 16.671875,10.5117188 C15.8398438,10.5117188 15.8398438,11.2734375 15.0039062,11.2734375 C14.171875,11.2734375 14.171875,10.5117188 13.3398438,10.5117188 C12.5039062,10.5117188 12.5039062,11.2734375 11.671875,11.2734375 C10.8398438,11.2734375 10.8398438,10.5117188 10.0039062,10.5117188 C9.16796875,10.5117188 9.16796875,11.2734375 8.3359375,11.2734375 C7.50390625,11.2734375 7.50390625,10.5117188 6.66796875,10.5117188 C5.8359375,10.5117188 5.8359375,11.2734375 5.00390625,11.2734375 C4.171875,11.2734375 4.16796875,10.5117188 3.3359375,10.5117188 C2.50390625,10.5117188 2.50390625,11.2734375 1.66796875,11.2734375 C0.8359375,11.2734375 0.8359375,10.5117188 0.00390625,10.5117188 L0,10.5117188 Z M0,13.1132812 L0,14.453125 L0.00390625,14.453125 C0.83984375,14.453125 0.83984375,15.2148437 1.671875,15.2148437 C2.50390625,15.2148437 2.50390625,14.453125 3.33984375,14.453125 C4.171875,14.453125 4.171875,15.2148437 5.00390625,15.2148437 C5.83984375,15.2148437 5.83984375,14.453125 6.671875,14.453125 C7.50390625,14.453125 7.50390625,15.2148437 8.33984375,15.2148437 C9.17578125,15.2148437 9.171875,14.453125 10.0039062,14.453125 C10.8398438,14.453125 10.8398438,15.2148437 11.671875,15.2148437 C12.5039062,15.2148437 12.5039062,14.453125 13.3398438,14.453125 C14.1757812,14.453125 14.1757812,15.2148437 15.0078125,15.2148437 C15.8398438,15.2148437 15.8398438,14.453125 16.6757812,14.453125 C17.5078125,14.453125 17.5078125,15.2148437 18.3398438,15.2148437 C19.171875,15.2148437 19.1757812,14.4570312 20,14.453125 L20,13.1132812 C19.1757812,13.1171875 19.171875,13.875 18.3398438,13.875 C17.5078125,13.875 17.5078125,13.1132812 16.6757812,13.1132812 C15.8398438,13.1132812 15.8398438,13.875 15.0078125,13.875 C14.1757812,13.875 14.1757812,13.1132812 13.3398438,13.1132812 C12.5039062,13.1132812 12.5039062,13.875 11.671875,13.875 C10.8398438,13.875 10.8398438,13.1132812 10.0039062,13.1132812 C9.171875,13.1132812 9.171875,13.875 8.33984375,13.875 C7.5078125,13.875 7.50390625,13.1132812 6.671875,13.1132812 C5.83984375,13.1132812 5.83984375,13.875 5.00390625,13.875 C4.171875,13.875 4.171875,13.1132812 3.33984375,13.1132812 C2.50390625,13.1132812 2.50390625,13.875 1.671875,13.875 C0.83984375,13.875 0.83984375,13.1132812 0.00390625,13.1132812 L0,13.1132812 L0,13.1132812 Z M0,15.734375 L0,20 L3.6171875,20 L10.1835938,19.1679688 L16.3828125,20 L20,20 L20,15.734375 C19.171875,15.734375 19.171875,16.4960938 18.3398438,16.4960938 C17.5078125,16.4960938 17.5039062,15.734375 16.671875,15.734375 C15.8398438,15.734375 15.8398438,16.4960938 15.0039062,16.4960938 C14.171875,16.4960938 14.171875,15.734375 13.3398438,15.734375 C12.5039062,15.734375 12.5039062,16.4960938 11.671875,16.4960938 C10.8398438,16.4960938 10.8398438,15.734375 10.0039062,15.734375 C9.16796875,15.734375 9.16796875,16.4960938 8.3359375,16.4960938 C7.50390625,16.4960938 7.50390625,15.734375 6.66796875,15.734375 C5.8359375,15.734375 5.8359375,16.4960938 5.00390625,16.4960938 C4.171875,16.4960938 4.16796875,15.734375 3.3359375,15.734375 C2.50390625,15.734375 2.50390625,16.4960938 1.66796875,16.4960938 C0.8359375,16.4960938 0.8359375,15.734375 0.00390625,15.734375 L0,15.734375 L0,15.734375 Z" id="Shape" fill="#0052B4"></path>
                        <path d="M3.77734375,0 L6.16796875,2.390625 L7.39453125,2.390625 L5.00390625,0 L3.77734375,0 Z M8.69921875,0 L8.69921875,3.6953125 L0,3.6953125 L0,6.3046875 L8.6953125,6.3046875 L8.6953125,10 L11.3046875,10 L11.3046875,6.3046875 L20,6.3046875 L20,3.6953125 L11.3085938,3.6953125 L11.3085938,0 L8.69921875,0 Z M13.7734375,0 L12.6132812,1.16015625 L12.6132812,2.390625 L15.0039062,0 L13.7734375,0 Z M7.3984375,7.609375 L5.00390625,10 L6.234375,10 L7.3984375,8.83984375 L7.3984375,7.609375 Z M12.6132812,7.609375 L15.0039062,10 L16.234375,10 L13.84375,7.609375 L12.6132812,7.609375 Z" id="Shape" fill="#D80027"></path>
                        <path d="M7.88671875,13.4765625 L7.49609375,16.5507812 L4.45703125,15.96875 L5.9296875,18.6523438 C5.10440574,19.0008443 4.32723161,19.4537583 3.6171875,20 L16.3828125,20 C15.6751994,19.4543334 14.9006829,19.0014382 14.078125,18.6523438 L15.5507812,15.96875 L12.5078125,16.5546875 L12.1210938,13.4765625 L10.0039063,15.7421875 L7.88671875,13.4765625 L7.88671875,13.4765625 Z" id="Path" fill="#FFDA44"></path>
                    </g>
                </g>
            </g>
        </g>
    </g>
</svg>