<?xml version="1.0" encoding="UTF-8"?>
<svg width="20px" height="20px" viewBox="0 0 20 20" version="1.1" xmlns="http://www.w3.org/2000/svg" xmlns:xlink="http://www.w3.org/1999/xlink">
    <title>cc_flag_20px</title>
    <defs>
        <circle id="path-1" cx="10" cy="10" r="10"></circle>
    </defs>
    <g id="Design-System" stroke="none" stroke-width="1" fill="none" fill-rule="evenodd">
        <g id="Flags-20x20" transform="translate(-151.000000, -305.000000)">
            <g id="flag" transform="translate(151.000000, 305.000000)">
                <mask id="mask-2" fill="white">
                    <use xlink:href="#path-1"></use>
                </mask>
                <use id="Mask" fill="#D8D8D8" xlink:href="#path-1"></use>
                <g id="cc" mask="url(#mask-2)" fill-rule="nonzero">
                    <polygon id="Path" fill="#6DA544" points="0 0 20 0 20 20 0 20"></polygon>
                    <g id="Group" transform="translate(3.042962, 3.044118)" fill="#FFDA44">
                        <path d="M12.3086002,11.3035379 L12.5820377,11.8777567 L13.2031314,11.7332254 L12.9257877,12.3074442 L13.4218814,12.6980692 L12.8007877,12.8426004 L12.8007877,13.4793192 L12.3086002,13.0808817 L11.8125064,13.4793192 L11.8125064,12.8426004 L11.1914127,12.7019754 L11.6914127,12.3074442 L11.4140689,11.7332254 L12.0351627,11.8777567 L12.3086002,11.3035379 Z M9.75391266,5.21760044 L10.0273502,5.79181919 L10.6523502,5.64728794 L10.3711002,6.22150669 L10.8711002,6.61213169 L10.2461002,6.75275669 L10.2500064,7.38947544 L9.75391266,6.99103794 L9.25781891,7.38947544 L9.25781891,6.75275669 L8.64063141,6.61603794 L9.13672516,6.22150669 L8.86328766,5.64728794 L9.48047516,5.79181919 L9.75391266,5.21760044 Z M12.3086002,1.74103794 L12.5820377,2.31135044 L13.2031314,2.17072544 L12.9257877,2.74103794 L13.4218814,3.13556919 L12.8007877,3.27619419 L12.8007877,3.91291294 L12.3086002,3.51447544 L11.8125064,3.91291294 L11.8125064,3.27619419 L11.1914127,3.13556919 L11.6914127,2.74494419 L11.4140689,2.17072544 L12.0351627,2.30744419 L12.3086002,1.74103794 Z M14.5351627,4.34650669 L14.8086002,4.92072544 L15.4336002,4.77619419 L15.1562564,5.35041294 L15.6523502,5.74494419 L15.0312564,5.88556919 L15.0312564,6.52228794 L14.5390689,6.12385044 L14.0429752,6.52228794 L14.0429752,5.88556919 L13.4218814,5.74494419 L13.9218814,5.35041294 L13.6445377,4.77619419 L14.2617252,4.92463169 L14.5351627,4.34650669 Z M12.9414127,7.39338169 L13.1601627,8.05744419 L13.8593814,8.05744419 L13.2929752,8.46369419 L13.5078189,9.12775669 L12.9414127,8.71760044 L12.3789127,9.13166294 L12.5937564,8.46760044 L12.0273502,8.05353794 L12.7304752,8.05353794 L12.9414127,7.39338169 Z" id="Shape"></path>
                        <path d="M8.04297516,9.78010044 C6.86728927,9.7768302 5.81660524,9.04555658 5.40518273,7.94420308 C4.99376022,6.84284958 5.30766825,5.60181784 6.19326383,4.82853362 C7.07885941,4.0552494 8.35087717,3.9114827 9.38672516,4.46760044 C8.02098097,3.1328246 5.83427271,3.14954164 4.48909527,4.50504207 C3.14391783,5.86054249 3.14391783,8.04731465 4.48909527,9.40281507 C5.83427271,10.7583155 8.02098097,10.7750325 9.38672516,9.44025669 C8.97417301,9.66386369 8.51222883,9.7806926 8.04297516,9.78010044 L8.04297516,9.78010044 Z M3.24610016,0.869944192 C2.93570763,0.331665313 2.36160032,0 1.74024078,0 C1.11888125,0 0.544773937,0.331665313 0.234381409,0.869944192 L3.24219391,0.869944192 L3.24610016,0.869944192 Z M3.25000641,0.877756692 L1.73828766,2.38947544 L0.226568909,0.877756692 C0.077521524,1.13960642 -0.000574941699,1.43583439 3.18659915e-06,1.73713169 C3.18659915e-06,2.35815977 0.331320932,2.93201339 0.869147026,3.24252743 C1.40697312,3.55304148 2.0696022,3.55304148 2.60742829,3.24252743 C3.14525439,2.93201339 3.47657213,2.35815977 3.47657213,1.73713169 C3.47715026,1.43583439 3.39905379,1.13960642 3.25000641,0.877756692 L3.25000641,0.877756692 Z" id="Shape"></path>
                    </g>
                    <path d="M4.34765625,5 L4.34765625,6.46875 C4.4893191,6.50510665 4.63499623,6.52348034 4.78125,6.52343757 C4.93359375,6.52343757 5.078125,6.50390625 5.21875,6.46875 L5.21875,5 L4.34765625,5 L4.34765625,5 Z" id="Path" fill="#A2001D"></path>
                </g>
            </g>
        </g>
    </g>
</svg>