<?xml version="1.0" encoding="UTF-8"?>
<svg width="20px" height="20px" viewBox="0 0 20 20" version="1.1" xmlns="http://www.w3.org/2000/svg" xmlns:xlink="http://www.w3.org/1999/xlink">
    <title>cf_flag_20px</title>
    <defs>
        <circle id="path-1" cx="10" cy="10" r="10"></circle>
    </defs>
    <g id="Design-System" stroke="none" stroke-width="1" fill="none" fill-rule="evenodd">
        <g id="Flags-20x20" transform="translate(-251.000000, -305.000000)">
            <g id="flag" transform="translate(251.000000, 305.000000)">
                <mask id="mask-2" fill="white">
                    <use xlink:href="#path-1"></use>
                </mask>
                <use id="Mask" fill="#D8D8D8" xlink:href="#path-1"></use>
                <g id="cf" mask="url(#mask-2)" fill-rule="nonzero">
                    <polygon id="Path" fill="#FFDA44" points="0 14.78125 9.87890625 13.65625 20 14.78125 20 20 12.609375 20 10 18.7890625 7.390625 20 0 20"></polygon>
                    <polygon id="Path" fill="#6DA544" points="0 10 9.7578125 8.90625 20 10 20 14.78125 0 14.78125"></polygon>
                    <polygon id="Path" fill="#EEEEEE" points="0 5.21875 9.97265625 4.11328125 20 5.21875 20 10 0 10"></polygon>
                    <polygon id="Path" fill="#0052B4" points="0 0 7.390625 0 10 1.171875 12.609375 0 20 0 20 5.21875 0 5.21875"></polygon>
                    <polygon id="Path" fill="#FFDA44" points="5.37890625 2.17578125 5.6484375 3.00390625 6.5234375 3.00390625 5.81640625 3.515625 6.0859375 4.34765625 5.37890625 3.8359375 4.67578125 4.34765625 4.94140625 3.515625 4.23828125 3.0078125 5.109375 3.0078125"></polygon>
                    <polygon id="Path" fill="#D80027" points="7.390625 0 12.609375 0 12.609375 20 7.390625 20"></polygon>
                </g>
            </g>
        </g>
    </g>
</svg>