<?xml version="1.0" encoding="UTF-8"?>
<svg width="20px" height="20px" viewBox="0 0 20 20" version="1.1" xmlns="http://www.w3.org/2000/svg" xmlns:xlink="http://www.w3.org/1999/xlink">
    <title>ch_gr_flag_20px</title>
    <defs>
        <circle id="path-1" cx="10" cy="10" r="10"></circle>
    </defs>
    <g id="Design-System" stroke="none" stroke-width="1" fill="none" fill-rule="evenodd">
        <g id="Flags-20x20" transform="translate(-401.000000, -305.000000)">
            <g id="flag" transform="translate(401.000000, 305.000000)">
                <mask id="mask-2" fill="white">
                    <use xlink:href="#path-1"></use>
                </mask>
                <use id="Mask" fill="#D8D8D8" xlink:href="#path-1"></use>
                <g id="ch-gr" mask="url(#mask-2)" fill-rule="nonzero">
                    <polygon id="Path" fill="#EEEEEE" points="5 0 10 0 20 10 20 20 0 20 0 10"></polygon>
                    <polygon id="Path" fill="#338AF3" points="10 0 12.5 0 13.75 1.25 15 0 17.5 0 20 2.5 20 5 18.75 6.25 20 7.5 20 10 17.5 10 16.25 8.75 15 10 12.5 10 10 7.5 10 5 11.25 3.75 10 2.5"></polygon>
                    <polygon id="Path" fill="#333333" points="0 0 5 0 5 10 0 10"></polygon>
                    <path d="M12.5,0 L12.5,2.5 L10,2.5 L10,5 L15,5 L15,0 L12.5,0 Z M15,5 L15,10 L17.5,10 L17.5,7.5 L20,7.5 L20,5 L15,5 Z M10,7.5 L12.5,7.5 L12.5,10 L10,10 L10,7.5 Z M17.5,0 L20,0 L20,2.5 L17.5,2.5 L17.5,0 Z" id="Shape" fill="#FFDA44"></path>
                    <path d="M11.3671875,11.3671875 C10.1171875,11.3671875 8.7109375,11.6796875 8.1640625,12.109375 C7.96875,12.265625 7.890625,12.5 7.890625,12.734375 C7.890625,13.125 8.1640625,13.4375 8.5546875,13.515625 L7.578125,13.7890625 C6.90254796,12.7740018 5.78781161,12.1370096 4.5703125,12.0703125 C4.3761499,12.0379521 4.1925167,12.1691187 4.16015626,12.3632813 C4.12779583,12.5574439 4.2589624,12.7410771 4.453125,12.7734375 C5.7421875,13.2421875 6.2109375,13.28125 6.6796875,14.21875 C5.859375,13.9453125 5.3125,15.15625 4.8046875,15.6640625 C4.6875,15.703125 4.6484375,15.8203125 4.6484375,15.9375 C4.6484375,16.1328125 4.8046875,16.2890625 5,16.2890625 L5.234375,16.2109375 C5.7421875,15.8203125 6.25,14.921875 6.953125,15.1171875 C9.1796875,15.7421875 9.53125,15.625 11.0546875,15.390625 C9.84375,15.7421875 9.8828125,16.2109375 10.7421875,16.796875 C10.3125,17.4609375 9.765625,17.4609375 9.140625,17.65625 C8.984375,17.6953125 8.8671875,17.8515625 8.8671875,18.0078125 C8.8671875,18.203125 9.0234375,18.359375 9.21875,18.359375 L9.4140625,18.3203125 C10.15625,17.96875 10.9765625,17.6171875 11.7578125,17.03125 C11.71875,16.71875 11.25,16.3671875 12.0703125,16.09375 C12.421875,16.40625 12.6171875,16.8359375 13.671875,16.71875 C13.828125,16.9921875 14.0625,17.1875 13.9453125,17.8125 L13.4765625,17.9296875 C13.28125,17.9296875 13.1640625,18.0859375 13.1640625,18.28125 C13.1640625,18.4765625 13.3203125,18.6328125 13.515625,18.6328125 C13.6328125,18.6328125 13.75,18.5546875 13.7890625,18.4765625 L14.4921875,17.9296875 C14.5703125,17.34375 14.4140625,16.796875 14.1796875,16.2890625 C13.6328125,16.2109375 13.515625,15.703125 13.28125,15.15625 C13.75,15.390625 14.140625,15.625 14.53125,15.0390625 C13.984375,14.84375 13.4375,14.53125 13.0078125,14.8828125 C11.484375,13.9453125 10.859375,14.140625 9.8828125,13.9453125 C10.234375,13.6328125 10.3125,13.1640625 10.1953125,12.5 C11.2109375,12.2265625 12.890625,11.6015625 13.9453125,13.515625 C14.0625,11.9140625 12.7734375,11.40625 11.3671875,11.3671875 L11.3671875,11.3671875 Z" id="Path" fill="#333333"></path>
                </g>
            </g>
        </g>
    </g>
</svg>