<?xml version="1.0" encoding="UTF-8"?>
<svg width="16px" height="16px" viewBox="0 0 16 16" version="1.1" xmlns="http://www.w3.org/2000/svg" xmlns:xlink="http://www.w3.org/1999/xlink">
    <title>ch_gr_flag_16px</title>
    <defs>
        <circle id="path-1" cx="8" cy="8" r="8"></circle>
    </defs>
    <g id="Design-System" stroke="none" stroke-width="1" fill="none" fill-rule="evenodd">
        <g id="Flags-16x16" transform="translate(-401.000000, -305.000000)">
            <g id="flag" transform="translate(401.000000, 305.000000)">
                <mask id="mask-2" fill="white">
                    <use xlink:href="#path-1"></use>
                </mask>
                <use id="Mask" fill="#D8D8D8" xlink:href="#path-1"></use>
                <g id="ch-gr" mask="url(#mask-2)" fill-rule="nonzero">
                    <polygon id="Path" fill="#EEEEEE" points="4 0 8 0 16 8 16 16 0 16 0 8"></polygon>
                    <polygon id="Path" fill="#338AF3" points="8 0 10 0 11 1 12 0 14 0 16 2 16 4 15 5 16 6 16 8 14 8 13 7 12 8 10 8 8 6 8 4 9 3 8 2"></polygon>
                    <polygon id="Path" fill="#333333" points="0 0 4 0 4 8 0 8"></polygon>
                    <path d="M10,0 L10,2 L8,2 L8,4 L12,4 L12,0 L10,0 Z M12,4 L12,8 L14,8 L14,6 L16,6 L16,4 L12,4 Z M8,6 L10,6 L10,8 L8,8 L8,6 Z M14,0 L16,0 L16,2 L14,2 L14,0 Z" id="Shape" fill="#FFDA44"></path>
                    <path d="M9.09375,9.09375 C8.09375,9.09375 6.96875,9.34375 6.53125,9.6875 C6.375,9.8125 6.3125,10 6.3125,10.1875 C6.3125,10.5 6.53125,10.75 6.84375,10.8125 L6.0625,11.03125 C5.52203836,10.2192014 4.63024929,9.70960768 3.65625,9.65625 C3.50091992,9.63036166 3.35401336,9.73529492 3.32812501,9.890625 C3.30223666,10.0459551 3.40716992,10.1928616 3.5625,10.21875 C4.59375,10.59375 4.96875,10.625 5.34375,11.375 C4.6875,11.15625 4.25,12.125 3.84375,12.53125 C3.75,12.5625 3.71875,12.65625 3.71875,12.75 C3.71875,12.90625 3.84375,13.03125 4,13.03125 L4.1875,12.96875 C4.59375,12.65625 5,11.9375 5.5625,12.09375 C7.34375,12.59375 7.625,12.5 8.84375,12.3125 C7.875,12.59375 7.90625,12.96875 8.59375,13.4375 C8.25,13.96875 7.8125,13.96875 7.3125,14.125 C7.1875,14.15625 7.09375,14.28125 7.09375,14.40625 C7.09375,14.5625 7.21875,14.6875 7.375,14.6875 L7.53125,14.65625 C8.125,14.375 8.78125,14.09375 9.40625,13.625 C9.375,13.375 9,13.09375 9.65625,12.875 C9.9375,13.125 10.09375,13.46875 10.9375,13.375 C11.0625,13.59375 11.25,13.75 11.15625,14.25 L10.78125,14.34375 C10.625,14.34375 10.53125,14.46875 10.53125,14.625 C10.53125,14.78125 10.65625,14.90625 10.8125,14.90625 C10.90625,14.90625 11,14.84375 11.03125,14.78125 L11.59375,14.34375 C11.65625,13.875 11.53125,13.4375 11.34375,13.03125 C10.90625,12.96875 10.8125,12.5625 10.625,12.125 C11,12.3125 11.3125,12.5 11.625,12.03125 C11.1875,11.875 10.75,11.625 10.40625,11.90625 C9.1875,11.15625 8.6875,11.3125 7.90625,11.15625 C8.1875,10.90625 8.25,10.53125 8.15625,10 C8.96875,9.78125 10.3125,9.28125 11.15625,10.8125 C11.25,9.53125 10.21875,9.125 9.09375,9.09375 L9.09375,9.09375 Z" id="Path" fill="#333333"></path>
                </g>
            </g>
        </g>
    </g>
</svg>