<?xml version="1.0" encoding="UTF-8"?>
<svg width="16px" height="16px" viewBox="0 0 16 16" version="1.1" xmlns="http://www.w3.org/2000/svg" xmlns:xlink="http://www.w3.org/1999/xlink">
    <title>ck_flag_16px</title>
    <defs>
        <circle id="path-1" cx="8" cy="8" r="8"></circle>
    </defs>
    <g id="Design-System" stroke="none" stroke-width="1" fill="none" fill-rule="evenodd">
        <g id="Flags-16x16" transform="translate(-501.000000, -305.000000)">
            <g id="flag" transform="translate(501.000000, 305.000000)">
                <mask id="mask-2" fill="white">
                    <use xlink:href="#path-1"></use>
                </mask>
                <use id="Mask" fill="#D8D8D8" xlink:href="#path-1"></use>
                <g id="ck" mask="url(#mask-2)" fill-rule="nonzero">
                    <polygon id="Path" fill="#0052B4" points="8 0 16 0 16 16 0 16 0 8"></polygon>
                    <polygon id="Path" fill="#EEEEEE" points="0 0 0 1 1 2 0 3 0 8 1 8 2 7 3 8 4 8 4 5.40625 6.59375 8 8 8 7.75 7.5 8 7.03125 8 6.59375 5.40625 4 8 4 8 3 7 2 8 1 8 0 3 0 2 1 1 0"></polygon>
                    <path d="M1,0 L1,1 L0,1 L0,3 L1,3 L1,8 L3,8 L3,3 L8,3 L8,1 L3,1 L3,0 L1,0 Z M4,4 L8,8 L8,7.03125 L4.96875,4 L4,4 Z" id="Shape" fill="#D80027"></path>
                    <path d="M10.78125,8 L10.93125,8.45625 L11.40625,8.45625 L11.01875,8.7375 L11.165625,9.19375 L10.778125,8.9125 L10.390625,9.19375 L10.540625,8.7375 L10.153125,8.45625 L10.63125,8.45625 L10.78125,8 Z M8.8125,8.8125 L9.240625,9.03125 L9.58125,8.69375 L9.50625,9.165625 L9.93125,9.384375 L9.459375,9.459375 L9.384375,9.93125 L9.165625,9.50625 L8.69375,9.58125 L9.03125,9.240625 L8.8125,8.8125 Z M8,10.78125 L8.45625,10.634375 L8.45625,10.15625 L8.7375,10.54375 L9.19375,10.39375 L8.9125,10.78125 L9.19375,11.16875 L8.7375,11.021875 L8.45625,11.409375 L8.45625,10.93125 L8,10.78125 Z M8.8125,12.75 L9.03125,12.325 L8.69375,11.984375 L9.165625,12.059375 L9.384375,11.634375 L9.459375,12.103125 L9.93125,12.18125 L9.50625,12.4 L9.58125,12.86875 L9.240625,12.53125 L8.8125,12.75 Z M10.78125,13.5625 L10.634375,13.109375 L10.15625,13.109375 L10.54375,12.828125 L10.39375,12.371875 L10.78125,12.653125 L11.16875,12.371875 L11.021875,12.828125 L11.409375,13.109375 L10.93125,13.109375 L10.78125,13.5625 Z M12.75,12.75 L12.325,12.53125 L11.984375,12.871875 L12.059375,12.396875 L11.634375,12.178125 L12.103125,12.10625 L12.18125,11.634375 L12.4,12.059375 L12.86875,11.984375 L12.53125,12.325 L12.75,12.75 Z M13.5625,10.78125 L13.109375,10.93125 L13.109375,11.40625 L12.828125,11.01875 L12.371875,11.165625 L12.653125,10.778125 L12.371875,10.390625 L12.828125,10.540625 L13.109375,10.153125 L13.109375,10.63125 L13.5625,10.78125 Z M12.75,8.8125 L12.53125,9.240625 L12.871875,9.58125 L12.396875,9.50625 L12.178125,9.93125 L12.10625,9.459375 L11.634375,9.384375 L12.059375,9.165625 L11.984375,8.69375 L12.325,9.03125 L12.75,8.8125 Z" id="Shape" fill="#EEEEEE"></path>
                </g>
            </g>
        </g>
    </g>
</svg>