<?xml version="1.0" encoding="UTF-8"?>
<svg width="20px" height="20px" viewBox="0 0 20 20" version="1.1" xmlns="http://www.w3.org/2000/svg" xmlns:xlink="http://www.w3.org/1999/xlink">
    <title>ck_flag_20px</title>
    <defs>
        <circle id="path-1" cx="10" cy="10" r="10"></circle>
    </defs>
    <g id="Design-System" stroke="none" stroke-width="1" fill="none" fill-rule="evenodd">
        <g id="Flags-20x20" transform="translate(-501.000000, -305.000000)">
            <g id="flag" transform="translate(501.000000, 305.000000)">
                <mask id="mask-2" fill="white">
                    <use xlink:href="#path-1"></use>
                </mask>
                <use id="Mask" fill="#D8D8D8" xlink:href="#path-1"></use>
                <g id="ck" mask="url(#mask-2)" fill-rule="nonzero">
                    <polygon id="Path" fill="#0052B4" points="10 0 20 0 20 20 0 20 0 10"></polygon>
                    <polygon id="Path" fill="#EEEEEE" points="0 0 0 1.25 1.25 2.5 0 3.75 0 10 1.25 10 2.5 8.75 3.75 10 5 10 5 6.7578125 8.2421875 10 10 10 9.6875 9.375 10 8.7890625 10 8.2421875 6.7578125 5 10 5 10 3.75 8.75 2.5 10 1.25 10 0 3.75 0 2.5 1.25 1.25 0"></polygon>
                    <path d="M1.25,0 L1.25,1.25 L0,1.25 L0,3.75 L1.25,3.75 L1.25,10 L3.75,10 L3.75,3.75 L10,3.75 L10,1.25 L3.75,1.25 L3.75,0 L1.25,0 Z M5,5 L10,10 L10,8.7890625 L6.2109375,5 L5,5 Z" id="Shape" fill="#D80027"></path>
                    <path d="M13.4765625,10 L13.6640625,10.5703125 L14.2578125,10.5703125 L13.7734375,10.921875 L13.9570312,11.4921875 L13.4726563,11.140625 L12.9882813,11.4921875 L13.1757813,10.921875 L12.6914063,10.5703125 L13.2890625,10.5703125 L13.4765625,10 Z M11.015625,11.015625 L11.5507812,11.2890625 L11.9765625,10.8671875 L11.8828125,11.4570312 L12.4140625,11.7304688 L11.8242188,11.8242188 L11.7304688,12.4140625 L11.4570312,11.8828125 L10.8671875,11.9765625 L11.2890625,11.5507812 L11.015625,11.015625 Z M10,13.4765625 L10.5703125,13.2929688 L10.5703125,12.6953125 L10.921875,13.1796875 L11.4921875,12.9921875 L11.140625,13.4765625 L11.4921875,13.9609375 L10.921875,13.7773437 L10.5703125,14.2617187 L10.5703125,13.6640625 L10,13.4765625 Z M11.015625,15.9375 L11.2890625,15.40625 L10.8671875,14.9804688 L11.4570312,15.0742188 L11.7304688,14.5429687 L11.8242188,15.1289062 L12.4140625,15.2265625 L11.8828125,15.5 L11.9765625,16.0859375 L11.5507812,15.6640625 L11.015625,15.9375 Z M13.4765625,16.953125 L13.2929688,16.3867188 L12.6953125,16.3867188 L13.1796875,16.0351562 L12.9921875,15.4648438 L13.4765625,15.8164062 L13.9609375,15.4648438 L13.7773437,16.0351562 L14.2617187,16.3867188 L13.6640625,16.3867188 L13.4765625,16.953125 Z M15.9375,15.9375 L15.40625,15.6640625 L14.9804688,16.0898438 L15.0742188,15.4960938 L14.5429687,15.2226562 L15.1289062,15.1328125 L15.2265625,14.5429687 L15.5,15.0742188 L16.0859375,14.9804688 L15.6640625,15.40625 L15.9375,15.9375 Z M16.953125,13.4765625 L16.3867188,13.6640625 L16.3867188,14.2578125 L16.0351562,13.7734375 L15.4648438,13.9570312 L15.8164062,13.4726563 L15.4648438,12.9882813 L16.0351562,13.1757813 L16.3867188,12.6914063 L16.3867188,13.2890625 L16.953125,13.4765625 Z M15.9375,11.015625 L15.6640625,11.5507812 L16.0898438,11.9765625 L15.4960938,11.8828125 L15.2226562,12.4140625 L15.1328125,11.8242188 L14.5429687,11.7304688 L15.0742188,11.4570312 L14.9804688,10.8671875 L15.40625,11.2890625 L15.9375,11.015625 Z" id="Shape" fill="#EEEEEE"></path>
                </g>
            </g>
        </g>
    </g>
</svg>