<?xml version="1.0" encoding="UTF-8"?>
<svg width="20px" height="20px" viewBox="0 0 20 20" version="1.1" xmlns="http://www.w3.org/2000/svg" xmlns:xlink="http://www.w3.org/1999/xlink">
    <title>cl_flag_20px</title>
    <defs>
        <circle id="path-1" cx="10" cy="10" r="10"></circle>
    </defs>
    <g id="Design-System" stroke="none" stroke-width="1" fill="none" fill-rule="evenodd">
        <g id="Flags-20x20" transform="translate(-51.000000, -355.000000)">
            <g id="flag" transform="translate(51.000000, 355.000000)">
                <mask id="mask-2" fill="white">
                    <use xlink:href="#path-1"></use>
                </mask>
                <use id="Mask" fill="#D8D8D8" xlink:href="#path-1"></use>
                <g id="cl" mask="url(#mask-2)" fill-rule="nonzero">
                    <polygon id="Path" fill="#D80027" points="0 10 9.94140625 7.99609375 20 10 20 20 0 20"></polygon>
                    <polygon id="Path" fill="#0052B4" points="0 0 10 0 12.0585938 5.1875 10 10 0 10"></polygon>
                    <path d="M10,0 L20,0 L20,10 L10,10 L10,0 Z M5.953125,3.4765625 L6.6015625,5.46875 L8.6953125,5.46875 L7,6.703125 L7.6484375,8.6953125 L5.953125,7.46484375 L4.2578125,8.6953125 L4.90625,6.703125 L3.2109375,5.46875 L5.3046875,5.46875 L5.953125,3.4765625 Z" id="Shape" fill="#EEEEEE"></path>
                </g>
            </g>
        </g>
    </g>
</svg>