<?xml version="1.0" encoding="UTF-8"?>
<svg width="20px" height="20px" viewBox="0 0 20 20" version="1.1" xmlns="http://www.w3.org/2000/svg" xmlns:xlink="http://www.w3.org/1999/xlink">
    <title>cn_flag_20px</title>
    <defs>
        <circle id="path-1" cx="10" cy="10" r="10"></circle>
    </defs>
    <g id="Design-System" stroke="none" stroke-width="1" fill="none" fill-rule="evenodd">
        <g id="Flags-20x20" transform="translate(-151.000000, -355.000000)">
            <g id="flag" transform="translate(151.000000, 355.000000)">
                <mask id="mask-2" fill="white">
                    <use xlink:href="#path-1"></use>
                </mask>
                <use id="Mask" fill="#D8D8D8" xlink:href="#path-1"></use>
                <g id="cn" mask="url(#mask-2)" fill-rule="nonzero">
                    <polygon id="Path" fill="#D80027" points="0 0 20 0 20 20 0 20"></polygon>
                    <path d="M5.47265625,6.0859375 L6.3359375,8.7421875 L9.12890625,8.7421875 L6.87109375,10.3867188 L7.734375,13.0429688 L5.47265625,11.4023438 L3.2109375,13.0429688 L4.078125,10.3867188 L1.81640625,8.7421875 L4.609375,8.7421875 L5.47265625,6.0859375 Z M11.8554688,15.4882813 L11.1953125,14.6757812 L10.21875,15.0546875 L10.7851562,14.1757812 L10.125,13.359375 L11.1367188,13.6289062 L11.7070313,12.75 L11.7617188,13.796875 L12.7773438,14.0664062 L11.796875,14.4414062 L11.8554688,15.4882813 Z M13.1679687,13.1054687 L13.4804688,12.1054687 L12.625,11.5 L13.671875,11.484375 L13.9804688,10.484375 L14.3203125,11.4765625 L15.3671875,11.4648437 L14.5273438,12.0898437 L14.8632813,13.0820312 L14.0078125,12.4765625 L13.1679687,13.1054687 Z M14.9375,7.33984375 L14.4765625,8.28125 L15.2265625,9.01171875 L14.1914062,8.86328125 L13.7304688,9.80078125 L13.5507812,8.76953125 L12.5117187,8.62109375 L13.4414062,8.1328125 L13.2617187,7.09765625 L14.0117187,7.828125 L14.9375,7.33984375 Z M11.8828125,4.48828125 L11.8046875,5.53125 L12.7773438,5.92578125 L11.7578125,6.17578125 L11.6835938,7.22265625 L11.1328125,6.33203125 L10.1132812,6.58203125 L10.7890625,5.78125 L10.234375,4.89453125 L11.2070312,5.2890625 L11.8828125,4.48828125 Z" id="Shape" fill="#FFDA44"></path>
                </g>
            </g>
        </g>
    </g>
</svg>