<?xml version="1.0" encoding="UTF-8"?>
<svg width="16px" height="16px" viewBox="0 0 16 16" version="1.1" xmlns="http://www.w3.org/2000/svg" xmlns:xlink="http://www.w3.org/1999/xlink">
    <title>cn_flag_16px</title>
    <defs>
        <circle id="path-1" cx="8" cy="8" r="8"></circle>
    </defs>
    <g id="Design-System" stroke="none" stroke-width="1" fill="none" fill-rule="evenodd">
        <g id="Flags-16x16" transform="translate(-151.000000, -355.000000)">
            <g id="flag" transform="translate(151.000000, 355.000000)">
                <mask id="mask-2" fill="white">
                    <use xlink:href="#path-1"></use>
                </mask>
                <use id="Mask" fill="#D8D8D8" xlink:href="#path-1"></use>
                <g id="cn" mask="url(#mask-2)" fill-rule="nonzero">
                    <polygon id="Path" fill="#D80027" points="0 0 16 0 16 16 0 16"></polygon>
                    <path d="M4.378125,4.86875 L5.06875,6.99375 L7.303125,6.99375 L5.496875,8.309375 L6.1875,10.434375 L4.378125,9.121875 L2.56875,10.434375 L3.2625,8.309375 L1.453125,6.99375 L3.6875,6.99375 L4.378125,4.86875 Z M9.484375,12.390625 L8.95625,11.740625 L8.175,12.04375 L8.628125,11.340625 L8.1,10.6875 L8.909375,10.903125 L9.365625,10.2 L9.409375,11.0375 L10.221875,11.253125 L9.4375,11.553125 L9.484375,12.390625 Z M10.534375,10.484375 L10.784375,9.684375 L10.1,9.2 L10.9375,9.1875 L11.184375,8.3875 L11.45625,9.18125 L12.29375,9.171875 L11.621875,9.671875 L11.890625,10.465625 L11.20625,9.98125 L10.534375,10.484375 Z M11.95,5.871875 L11.58125,6.625 L12.18125,7.209375 L11.353125,7.090625 L10.984375,7.840625 L10.840625,7.015625 L10.009375,6.896875 L10.753125,6.50625 L10.609375,5.678125 L11.209375,6.2625 L11.95,5.871875 Z M9.50625,3.590625 L9.44375,4.425 L10.221875,4.740625 L9.40625,4.940625 L9.346875,5.778125 L8.90625,5.065625 L8.090625,5.265625 L8.63125,4.625 L8.1875,3.915625 L8.965625,4.23125 L9.50625,3.590625 Z" id="Shape" fill="#FFDA44"></path>
                </g>
            </g>
        </g>
    </g>
</svg>