<?xml version="1.0" encoding="UTF-8"?>
<svg width="16px" height="16px" viewBox="0 0 16 16" version="1.1" xmlns="http://www.w3.org/2000/svg" xmlns:xlink="http://www.w3.org/1999/xlink">
    <title>cn_xj_flag_16px</title>
    <defs>
        <circle id="path-1" cx="8" cy="8" r="8"></circle>
    </defs>
    <g id="Design-System" stroke="none" stroke-width="1" fill="none" fill-rule="evenodd">
        <g id="Flags-16x16" transform="translate(-201.000000, -355.000000)">
            <g id="flag" transform="translate(201.000000, 355.000000)">
                <mask id="mask-2" fill="white">
                    <use xlink:href="#path-1"></use>
                </mask>
                <use id="Mask" fill="#D8D8D8" xlink:href="#path-1"></use>
                <g id="cn-xj" mask="url(#mask-2)" fill-rule="nonzero">
                    <polygon id="Path" fill="#338AF3" points="0 0 16 0 16 16 0 16"></polygon>
                    <path d="M9.75,8 L13.375,6.8125 L11.125,9.90625 L11.125,6.09375 L13.375,9.1875 L9.75,8 Z M10,10.15625 C9.04746315,11.6598453 7.21599388,12.3531465 5.50654819,11.8572425 C3.7971025,11.3613384 2.62098763,9.79554786 2.62098763,8.015625 C2.62098763,6.23570214 3.7971025,4.66991159 5.50654819,4.17400754 C7.21599388,3.67810348 9.04746315,4.37140466 10,5.875 C9.11504273,4.89862574 7.72050637,4.56745946 6.49106139,5.04171794 C5.26161641,5.51597642 4.45074623,6.69787841 4.45074623,8.015625 C4.45074623,9.33337159 5.26161641,10.5152736 6.49106139,10.9895321 C7.72050637,11.4637905 9.11504273,11.1326243 10,10.15625 Z" id="Shape" fill="#EEEEEE"></path>
                </g>
            </g>
        </g>
    </g>
</svg>