<?xml version="1.0" encoding="UTF-8"?>
<svg width="16px" height="16px" viewBox="0 0 16 16" version="1.1" xmlns="http://www.w3.org/2000/svg" xmlns:xlink="http://www.w3.org/1999/xlink">
    <title>cu_flag_16px</title>
    <defs>
        <circle id="path-1" cx="8" cy="8" r="8"></circle>
    </defs>
    <g id="Design-System" stroke="none" stroke-width="1" fill="none" fill-rule="evenodd">
        <g id="Flags-16x16" transform="translate(-351.000000, -355.000000)">
            <g id="flag" transform="translate(351.000000, 355.000000)">
                <mask id="mask-2" fill="white">
                    <use xlink:href="#path-1"></use>
                </mask>
                <use id="Mask" fill="#D8D8D8" xlink:href="#path-1"></use>
                <g id="cu" mask="url(#mask-2)" fill-rule="nonzero">
                    <g transform="translate(0.000000, 0.015610)">
                        <polygon id="Path" fill="#0052B4" points="0.0156097561 0 16 0 16 3.19687805 15.1196098 4.71414634 16 6.3937561 16 9.59063415 15.0478049 11.1734634 16 12.7875122 16 15.9843902 0.0156097561 15.9843902 1.25814634 7.96097561"></polygon>
                        <polygon id="Path" fill="#FF9811" points="0.05 1.38926829 0.05 14.595122 0.05 7.99219512"></polygon>
                        <path d="M0.864780488,3.19687805 L0.864780488,6.3937561 L16,6.3937561 L16,3.19687805 L0.864780488,3.19687805 Z M0.864780488,9.59063415 L0.864780488,12.7875122 L16,12.7875122 L16,9.59063415 L0.864780488,9.59063415 L0.864780488,9.59063415 Z" id="Shape" fill="#EEEEEE"></path>
                        <polygon id="Path" fill="#D80027" points="0.0156097561 0 0.0156097561 15.9843902 8.00780488 7.99219512"></polygon>
                        <polygon id="Path" fill="#EEEEEE" points="3.24995122 5.90673171 3.76819512 7.49892683 5.44156098 7.49892683 4.08663415 8.48546341 4.60487805 10.0776585 3.24995122 9.0942439 1.89502439 10.0776585 2.41326829 8.48546341 1.05834146 7.49892683 2.73170732 7.49892683"></polygon>
                    </g>
                </g>
            </g>
        </g>
    </g>
</svg>