<?xml version="1.0" encoding="UTF-8"?>
<svg width="20px" height="20px" viewBox="0 0 20 20" version="1.1" xmlns="http://www.w3.org/2000/svg" xmlns:xlink="http://www.w3.org/1999/xlink">
    <title>cu_flag_20px</title>
    <defs>
        <circle id="path-1" cx="10" cy="10" r="10"></circle>
    </defs>
    <g id="Design-System" stroke="none" stroke-width="1" fill="none" fill-rule="evenodd">
        <g id="Flags-20x20" transform="translate(-351.000000, -355.000000)">
            <g id="flag" transform="translate(351.000000, 355.000000)">
                <mask id="mask-2" fill="white">
                    <use xlink:href="#path-1"></use>
                </mask>
                <use id="Mask" fill="#D8D8D8" xlink:href="#path-1"></use>
                <g id="cu" mask="url(#mask-2)" fill-rule="nonzero">
                    <g transform="translate(0.000000, 0.019512)">
                        <polygon id="Path" fill="#0052B4" points="0.0195121951 0 20 0 20 3.99609756 18.8995122 5.89268293 20 7.99219512 20 11.9882927 18.8097561 13.9668293 20 15.9843902 20 19.9804878 0.0195121951 19.9804878 1.57268293 9.95121951"></polygon>
                        <polygon id="Path" fill="#FF9811" points="0.05 1.73658537 0.05 18.2439024 0.05 9.9902439"></polygon>
                        <path d="M1.08097561,3.99609756 L1.08097561,7.99219512 L20,7.99219512 L20,3.99609756 L1.08097561,3.99609756 Z M1.08097561,11.9882927 L1.08097561,15.9843902 L20,15.9843902 L20,11.9882927 L1.08097561,11.9882927 L1.08097561,11.9882927 Z" id="Shape" fill="#EEEEEE"></path>
                        <polygon id="Path" fill="#D80027" points="0.0195121951 0 0.0195121951 19.9804878 10.0097561 9.9902439"></polygon>
                        <polygon id="Path" fill="#EEEEEE" points="4.06243902 7.38341463 4.7102439 9.37365854 6.80195122 9.37365854 5.10829268 10.6068293 5.75609756 12.5970732 4.06243902 11.3678049 2.36878049 12.5970732 3.01658537 10.6068293 1.32292683 9.37365854 3.41463415 9.37365854"></polygon>
                    </g>
                </g>
            </g>
        </g>
    </g>
</svg>