<?xml version="1.0" encoding="UTF-8"?>
<svg width="16px" height="16px" viewBox="0 0 16 16" version="1.1" xmlns="http://www.w3.org/2000/svg" xmlns:xlink="http://www.w3.org/1999/xlink">
    <title>cv_flag_16px</title>
    <defs>
        <circle id="path-1" cx="8" cy="8" r="8"></circle>
    </defs>
    <g id="Design-System" stroke="none" stroke-width="1" fill="none" fill-rule="evenodd">
        <g id="Flags-16x16" transform="translate(-401.000000, -355.000000)">
            <g id="flag" transform="translate(401.000000, 355.000000)">
                <mask id="mask-2" fill="white">
                    <use xlink:href="#path-1"></use>
                </mask>
                <use id="Mask" fill="#D8D8D8" xlink:href="#path-1"></use>
                <g id="cv" mask="url(#mask-2)" fill-rule="nonzero">
                    <polygon id="Path" fill="#0052B4" points="0 0 16 0 16 8.00625 14.690625 10.015625 16 12.00625 16 16 0 16 0 12.00625 1.290625 10 0 8.00625"></polygon>
                    <polygon id="Path" fill="#EEEEEE" points="0 8.00625 16 8.00625 16 9.346875 15.509375 10.021875 16 10.678125 16 12.00625 0 12.00625 0 10.678125 0.471875 10.00625 0 9.34375"></polygon>
                    <polygon id="Path" fill="#D80027" points="0 9.346875 16 9.346875 16 10.678125 0 10.678125"></polygon>
                    <path d="M5.7125,5.95 L5.875,6.4625 L6.409375,6.4625 L5.978125,6.775 L6.14375,7.284375 L5.7125,6.971875 L5.275,7.284375 L5.44375,6.775 L5.009375,6.4625 L5.54375,6.4625 L5.7125,5.95 Z M5.7125,12.615625 L5.875,13.125 L6.409375,13.125 L5.978125,13.4375 L6.14375,13.94375 L5.7125,13.63125 L5.275,13.94375 L5.4375,13.4375 L5,13.125 L5.5375,13.125 L5.7125,12.615625 Z M2.6125,10.3625 L2.775,10.86875 L3.309375,10.86875 L2.878125,11.1875 L3.040625,11.69375 L2.6125,11.38125 L2.175,11.69375 L2.34375,11.1875 L1.90625,10.871875 L2.44375,10.871875 L2.6125,10.3625 Z M3.796875,6.61875 L3.953125,7.11875 L4.490625,7.11875 L4.059375,7.440625 L4.221875,7.946875 L3.79375,7.634375 L3.35625,7.946875 L3.525,7.4375 L3.0875,7.121875 L3.625,7.121875 L3.796875,6.61875 Z M1.909375,8.7125 L2.440625,8.7125 L2.6125,8.20625 L2.775,8.7125 L3.309375,8.7125 L2.878125,9.03125 L3.040625,9.54375 L2.6125,9.21875 L2.175,9.540625 L2.34375,9.028125 L1.909375,8.7125 Z M3.3625,13.18125 L3.528125,12.675 L3.09375,12.35625 L3.628125,12.35625 L3.796875,11.85 L3.959375,12.359375 L4.49375,12.359375 L4.0625,12.675 L4.228125,13.18125 L3.796875,12.86875 L3.3625,13.18125 Z M8.8125,10.3625 L8.64375,10.86875 L8.1125,10.86875 L8.54375,11.1875 L8.378125,11.69375 L8.8125,11.38125 L9.24375,11.69375 L9.08125,11.184375 L9.509375,10.86875 L8.978125,10.86875 L8.8125,10.3625 Z M7.625,6.61875 L7.459375,7.125 L6.925,7.125 L7.3625,7.44375 L7.19375,7.95 L7.628125,7.6375 L8.059375,7.95 L7.89375,7.440625 L8.325,7.125 L7.79375,7.125 L7.625,6.61875 Z M9.509375,8.7125 L8.978125,8.7125 L8.8125,8.20625 L8.64375,8.7125 L8.1125,8.7125 L8.54375,9.028125 L8.378125,9.540625 L8.8125,9.21875 L9.24375,9.540625 L9.08125,9.028125 L9.509375,8.7125 Z M8.059375,13.18125 L7.89375,12.675 L8.325,12.35625 L7.79375,12.35625 L7.628125,11.85 L7.459375,12.359375 L6.925,12.359375 L7.3625,12.675 L7.19375,13.18125 L7.628125,12.86875 L8.059375,13.18125 Z" id="Shape" fill="#FFDA44"></path>
                </g>
            </g>
        </g>
    </g>
</svg>