<?xml version="1.0" encoding="UTF-8"?>
<svg width="20px" height="20px" viewBox="0 0 20 20" version="1.1" xmlns="http://www.w3.org/2000/svg" xmlns:xlink="http://www.w3.org/1999/xlink">
    <title>cv_flag_20px</title>
    <defs>
        <circle id="path-1" cx="10" cy="10" r="10"></circle>
    </defs>
    <g id="Design-System" stroke="none" stroke-width="1" fill="none" fill-rule="evenodd">
        <g id="Flags-20x20" transform="translate(-401.000000, -355.000000)">
            <g id="flag" transform="translate(401.000000, 355.000000)">
                <mask id="mask-2" fill="white">
                    <use xlink:href="#path-1"></use>
                </mask>
                <use id="Mask" fill="#D8D8D8" xlink:href="#path-1"></use>
                <g id="cv" mask="url(#mask-2)" fill-rule="nonzero">
                    <polygon id="Path" fill="#0052B4" points="0 0 20 0 20 10.0078125 18.3632812 12.5195312 20 15.0078125 20 20 0 20 0 15.0078125 1.61328125 12.5 0 10.0078125"></polygon>
                    <polygon id="Path" fill="#EEEEEE" points="0 10.0078125 20 10.0078125 20 11.6835938 19.3867188 12.5273438 20 13.3476562 20 15.0078125 0 15.0078125 0 13.3476562 0.58984375 12.5078125 0 11.6796875"></polygon>
                    <polygon id="Path" fill="#D80027" points="0 11.6835938 20 11.6835938 20 13.3476563 0 13.3476563"></polygon>
                    <path d="M7.140625,7.4375 L7.34375,8.078125 L8.01171875,8.078125 L7.47265625,8.46875 L7.6796875,9.10546875 L7.140625,8.71484375 L6.59375,9.10546875 L6.8046875,8.46875 L6.26171875,8.078125 L6.9296875,8.078125 L7.140625,7.4375 Z M7.140625,15.7695312 L7.34375,16.40625 L8.01171875,16.40625 L7.47265625,16.796875 L7.6796875,17.4296875 L7.140625,17.0390625 L6.59375,17.4296875 L6.796875,16.796875 L6.25,16.40625 L6.921875,16.40625 L7.140625,15.7695312 Z M3.265625,12.953125 L3.46875,13.5859375 L4.13671875,13.5859375 L3.59765625,13.984375 L3.80078125,14.6171875 L3.265625,14.2265625 L2.71875,14.6171875 L2.9296875,13.984375 L2.3828125,13.5898437 L3.0546875,13.5898437 L3.265625,12.953125 Z M4.74609375,8.2734375 L4.94140625,8.8984375 L5.61328125,8.8984375 L5.07421875,9.30078125 L5.27734375,9.93359375 L4.7421875,9.54296875 L4.1953125,9.93359375 L4.40625,9.296875 L3.859375,8.90234375 L4.53125,8.90234375 L4.74609375,8.2734375 Z M2.38671875,10.890625 L3.05078125,10.890625 L3.265625,10.2578125 L3.46875,10.890625 L4.13671875,10.890625 L3.59765625,11.2890625 L3.80078125,11.9296875 L3.265625,11.5234375 L2.71875,11.9257812 L2.9296875,11.2851562 L2.38671875,10.890625 Z M4.203125,16.4765625 L4.41015625,15.84375 L3.8671875,15.4453125 L4.53515625,15.4453125 L4.74609375,14.8125 L4.94921875,15.4492188 L5.6171875,15.4492188 L5.078125,15.84375 L5.28515625,16.4765625 L4.74609375,16.0859375 L4.203125,16.4765625 Z M11.015625,12.953125 L10.8046875,13.5859375 L10.140625,13.5859375 L10.6796875,13.984375 L10.4726562,14.6171875 L11.015625,14.2265625 L11.5546875,14.6171875 L11.3515625,13.9804687 L11.8867188,13.5859375 L11.2226562,13.5859375 L11.015625,12.953125 Z M9.53125,8.2734375 L9.32421875,8.90625 L8.65625,8.90625 L9.203125,9.3046875 L8.9921875,9.9375 L9.53515625,9.546875 L10.0742187,9.9375 L9.8671875,9.30078125 L10.40625,8.90625 L9.7421875,8.90625 L9.53125,8.2734375 Z M11.8867188,10.890625 L11.2226562,10.890625 L11.015625,10.2578125 L10.8046875,10.890625 L10.140625,10.890625 L10.6796875,11.2851562 L10.4726562,11.9257812 L11.015625,11.5234375 L11.5546875,11.9257812 L11.3515625,11.2851562 L11.8867188,10.890625 Z M10.0742188,16.4765625 L9.8671875,15.84375 L10.40625,15.4453125 L9.7421875,15.4453125 L9.53515625,14.8125 L9.32421875,15.4492188 L8.65625,15.4492188 L9.203125,15.84375 L8.9921875,16.4765625 L9.53515625,16.0859375 L10.0742188,16.4765625 Z" id="Shape" fill="#FFDA44"></path>
                </g>
            </g>
        </g>
    </g>
</svg>