<?xml version="1.0" encoding="UTF-8"?>
<svg width="20px" height="20px" viewBox="0 0 20 20" version="1.1" xmlns="http://www.w3.org/2000/svg" xmlns:xlink="http://www.w3.org/1999/xlink">
    <title>cx_flag_20px</title>
    <defs>
        <circle id="path-1" cx="10" cy="10" r="10"></circle>
    </defs>
    <g id="Design-System" stroke="none" stroke-width="1" fill="none" fill-rule="evenodd">
        <g id="Flags-20x20" transform="translate(-501.000000, -355.000000)">
            <g id="flag" transform="translate(501.000000, 355.000000)">
                <mask id="mask-2" fill="white">
                    <use xlink:href="#path-1"></use>
                </mask>
                <use id="Mask" fill="#D8D8D8" xlink:href="#path-1"></use>
                <g id="cx" mask="url(#mask-2)" fill-rule="nonzero">
                    <polygon id="Path" fill="#6DA544" points="0 0 8.47265625 11.78125 20 20 20 0"></polygon>
                    <polygon id="Path" fill="#0052B4" points="0 0 20 20 0 20"></polygon>
                    <circle id="Oval" fill="#FFDA44" cx="10" cy="10" r="2.609375"></circle>
                    <path d="M3.72265625,14.3476562 L3.99609375,14.921875 L4.62109375,14.7773437 L4.3359375,15.3515625 L4.84375,15.7421875 L4.21875,15.8828125 L4.22265625,16.5195312 L3.7265625,16.1210938 L3.2265625,16.5234375 L3.2265625,15.8867187 L2.61328125,15.7421875 L3.10546875,15.3515625 L2.83203125,14.7773437 L3.44921875,14.921875 L3.72265625,14.3476562 Z M1.92578125,9.5703125 L2.203125,10.1445312 L2.82421875,10 L2.546875,10.5703125 L3.04296875,10.96875 L2.421875,11.1054688 L2.421875,11.7421875 L1.9296875,11.34375 L1.43359375,11.7421875 L1.43359375,11.1054688 L0.8125,10.96875 L1.3125,10.5703125 L1.03515625,10 L1.65234375,10.1445312 L1.92578125,9.5703125 Z M3.72265625,5.65625 L3.99609375,6.23046875 L4.62109375,6.0859375 L4.33984375,6.66015625 L4.83984375,7.05078125 L4.21484375,7.1953125 L4.21875,7.828125 L3.72265625,7.43359375 L3.2265625,7.828125 L3.2265625,7.1953125 L2.609375,7.0546875 L3.10546875,6.66015625 L2.83203125,6.0859375 L3.44921875,6.23046875 L3.72265625,5.65625 Z M5.953125,8.703125 L6.2265625,9.2734375 L6.84765625,9.12890625 L6.5703125,9.703125 L7.06640625,10.0976562 L6.44921875,10.2382812 L6.44921875,10.875 L5.953125,10.46875 L5.45703125,10.8671875 L5.45703125,10.234375 L4.83984375,10.09375 L5.3359375,9.69921875 L5.0625,9.125 L5.6796875,9.26953125 L5.953125,8.703125 Z M4.359375,11.3085938 L4.57421875,11.9726562 L5.2734375,11.9726562 L4.70703125,12.3828125 L4.92578125,13.046875 L4.359375,12.6367188 L3.7890625,13.0429688 L4.0078125,12.3789062 L3.44140625,11.96875 L4.140625,11.96875 L4.359375,11.3085938 Z" id="Shape" fill="#EEEEEE"></path>
                    <path d="M10,11.7382812 L10.8710938,11.7382812 C10.8710938,11.7382812 11.2460938,11.0742188 10.8710938,10.4335938 L11.7382812,9.56640625 L11.3046875,8.6953125 L10.8710937,8.6953125 C10.8710937,8.6953125 10.6523437,9.34765625 9.78125,9.34765625 C8.91015625,9.34765625 8.6953125,8.6953125 8.6953125,8.6953125 L8.26171875,8.6953125 L8.6953125,9.56640625 L8.26171875,10.4335938 L8.6953125,10.8710938 C8.6953125,10.8710938 9.12890625,10 10,10.4296875 C10,10.4296875 10.3710938,10.9765625 10,11.734375 L10,11.7382812 Z" id="Path" fill="#6DA544"></path>
                    <path d="M16.4921875,5.4765625 C16.6555145,4.61463893 16.1539629,3.76534488 15.3203125,3.4921875 C15.6176461,4.09585463 15.7200236,4.77700628 15.6132812,5.44140625 C15.5048603,5.26817871 15.3674384,5.11490044 15.2070312,4.98828125 C14.6020546,4.50564104 13.7549947,4.46778361 13.109375,4.89453125 C13.6091447,5.00412688 14.0769625,5.22734283 14.4765625,5.546875 C14.8007812,5.8046875 15.0625,6.15234375 15.265625,6.48828125 L12.609375,7.3203125 C15.21875,7.7578125 17.390625,6.015625 17.390625,6.015625 C17.1523437,5.53515625 16.7773437,5.453125 16.4921875,5.4765625 L16.4921875,5.4765625 Z" id="Path" fill="#FFDA44"></path>
                </g>
            </g>
        </g>
    </g>
</svg>