<?xml version="1.0" encoding="UTF-8"?>
<svg width="20px" height="20px" viewBox="0 0 20 20" version="1.1" xmlns="http://www.w3.org/2000/svg" xmlns:xlink="http://www.w3.org/1999/xlink">
    <title>cy_flag_20px</title>
    <defs>
        <circle id="path-1" cx="10" cy="10" r="10"></circle>
    </defs>
    <g id="Design-System" stroke="none" stroke-width="1" fill="none" fill-rule="evenodd">
        <g id="Flags-20x20" transform="translate(-51.000000, -405.000000)">
            <g id="flag" transform="translate(51.000000, 405.000000)">
                <mask id="mask-2" fill="white">
                    <use xlink:href="#path-1"></use>
                </mask>
                <use id="Mask" fill="#D8D8D8" xlink:href="#path-1"></use>
                <g id="cy" mask="url(#mask-2)" fill-rule="nonzero">
                    <polygon id="Path" fill="#EEEEEE" points="0 0 20 0 20 20 0 20"></polygon>
                    <path d="M15.6523438,8.6953125 L14.3476562,8.6953125 C14.3476562,11.0964567 12.4011442,13.0429688 10,13.0429688 C7.59885576,13.0429688 5.65234375,11.0964567 5.65234375,8.6953125 L4.34765625,8.6953125 C4.34765625,11.28125 6.0859375,13.4609375 8.45703125,14.1328125 C8.18728187,14.6432523 8.24717872,15.265258 8.609375,15.7148437 L10.0273438,14.5742188 L11.4492187,15.7148437 C11.8139424,15.2611713 11.8709111,14.6329763 11.59375,14.1210937 C14.0000737,13.412555 15.6523438,11.2037824 15.6523438,8.6953125 L15.6523438,8.6953125 Z" id="Path" fill="#6DA544"></path>
                    <path d="M6.5234375,8.26171875 C6.5234375,8.26171875 6.5234375,10.4335937 8.6953125,10.4335937 L9.12890625,10.8710937 L10,10.8710937 C10,10.8710937 10.4335938,9.56640625 11.3046875,9.56640625 C11.3046875,9.56640625 11.3046875,8.6953125 12.1757812,8.6953125 L13.4765625,8.6953125 C13.4765625,8.6953125 13.046875,6.95703125 15.21875,5.65234375 L14.3476562,5.21875 C14.3476562,5.21875 11.3007812,7.390625 9.12890625,6.95703125 L9.12890625,7.82421875 L8.26171875,7.82421875 L7.82421875,7.39453125 L6.5234375,8.26171875 L6.5234375,8.26171875 Z" id="Path" fill="#FFDA44"></path>
                </g>
            </g>
        </g>
    </g>
</svg>