<?xml version="1.0" encoding="UTF-8"?>
<svg width="16px" height="16px" viewBox="0 0 16 16" version="1.1" xmlns="http://www.w3.org/2000/svg" xmlns:xlink="http://www.w3.org/1999/xlink">
    <title>cy_flag_16px</title>
    <defs>
        <circle id="path-1" cx="8" cy="8" r="8"></circle>
    </defs>
    <g id="Design-System" stroke="none" stroke-width="1" fill="none" fill-rule="evenodd">
        <g id="Flags-16x16" transform="translate(-51.000000, -405.000000)">
            <g id="flag" transform="translate(51.000000, 405.000000)">
                <mask id="mask-2" fill="white">
                    <use xlink:href="#path-1"></use>
                </mask>
                <use id="Mask" fill="#D8D8D8" xlink:href="#path-1"></use>
                <g id="cy" mask="url(#mask-2)" fill-rule="nonzero">
                    <polygon id="Path" fill="#EEEEEE" points="0 0 16 0 16 16 0 16"></polygon>
                    <path d="M12.521875,6.95625 L11.478125,6.95625 C11.478125,8.8771654 9.9209154,10.434375 8,10.434375 C6.0790846,10.434375 4.521875,8.8771654 4.521875,6.95625 L3.478125,6.95625 C3.478125,9.025 4.86875,10.76875 6.765625,11.30625 C6.54982549,11.7146018 6.59774297,12.2122064 6.8875,12.571875 L8.021875,11.659375 L9.159375,12.571875 C9.45115396,12.208937 9.49672889,11.7063811 9.275,11.296875 C11.200059,10.730044 12.521875,8.96302589 12.521875,6.95625 L12.521875,6.95625 Z" id="Path" fill="#6DA544"></path>
                    <path d="M5.21875,6.609375 C5.21875,6.609375 5.21875,8.346875 6.95625,8.346875 L7.303125,8.696875 L8,8.696875 C8,8.696875 8.346875,7.653125 9.04375,7.653125 C9.04375,7.653125 9.04375,6.95625 9.740625,6.95625 L10.78125,6.95625 C10.78125,6.95625 10.4375,5.565625 12.175,4.521875 L11.478125,4.175 C11.478125,4.175 9.040625,5.9125 7.303125,5.565625 L7.303125,6.259375 L6.609375,6.259375 L6.259375,5.915625 L5.21875,6.609375 L5.21875,6.609375 Z" id="Path" fill="#FFDA44"></path>
                </g>
            </g>
        </g>
    </g>
</svg>