<?xml version="1.0" encoding="UTF-8"?>
<svg width="20px" height="20px" viewBox="0 0 20 20" version="1.1" xmlns="http://www.w3.org/2000/svg" xmlns:xlink="http://www.w3.org/1999/xlink">
    <title>dm_flag_20px</title>
    <defs>
        <circle id="path-1" cx="10" cy="10" r="10"></circle>
    </defs>
    <g id="Design-System" stroke="none" stroke-width="1" fill="none" fill-rule="evenodd">
        <g id="Flags-20x20" transform="translate(-301.000000, -405.000000)">
            <g id="flag" transform="translate(301.000000, 405.000000)">
                <mask id="mask-2" fill="white">
                    <use xlink:href="#path-1"></use>
                </mask>
                <use id="Mask" fill="#D8D8D8" xlink:href="#path-1"></use>
                <g id="dm" mask="url(#mask-2)" fill-rule="nonzero">
                    <polygon id="Path" fill="#496E2D" points="0 0 8.125 0 10 1.25 11.875 0 20 0 20 8.125 18.75 10 20 11.875 20 20 11.875 20 10 18.75 8.125 20 0 20 0 11.875 1.25 10 0 8.125"></polygon>
                    <polygon id="Path" fill="#333333" points="20 9.375 20 10.625 10 11.875 0 10.625 0 9.375 10 8.125"></polygon>
                    <polygon id="Path" fill="#FFDA44" points="20 8.125 20 9.375 0 9.375 0 8.125"></polygon>
                    <polygon id="Path" fill="#333333" points="9.375 0 10.625 0 11.875 10 10.625 20 9.375 20 8.125 10"></polygon>
                    <polygon id="Path" fill="#FFDA44" points="8.125 0 9.375 0 9.375 20 8.125 20"></polygon>
                    <polygon id="Path" fill="#EEEEEE" points="10.625 0 11.875 0 11.875 20 10.625 20"></polygon>
                    <polygon id="Path" fill="#EEEEEE" points="20 10.625 20 11.875 0 11.875 0 10.625"></polygon>
                    <circle id="Oval" fill="#D80027" cx="10" cy="10" r="4.78125"></circle>
                    <path d="M11.09375,10.546875 C10.7421875,9.8046875 10.2734375,9.1015625 10.2734375,9.1015625 L10.2734375,8.59375 C10.228015,8.34962819 10.0238218,8.16674982 9.77618863,8.14840662 C9.52855545,8.13006343 9.29964564,8.28086009 9.21875,8.515625 C9.02078246,8.52557534 8.85531022,8.66965438 8.81822134,8.86437103 C8.78113245,9.05908767 8.88205241,9.25390808 9.0625,9.3359375 C9.12602861,9.17517569 9.25330069,9.04790361 9.4140625,8.984375 C9.43740004,9.01298724 9.46357526,9.03916246 9.4921875,9.0625 L9.5703125,9.0625 C9.5703125,9.0625 9.296875,9.8046875 9.296875,10.1953125 C9.296875,11.25 10.0390625,11.6015625 10.0390625,11.6015625 L9.6484375,11.953125 L10.390625,11.953125 L10.390625,11.25 L10.7421875,11.6015625 C10.7421875,11.6015625 11.40625,11.171875 11.09375,10.546875 Z M10,6.09375 L10.15625,6.6015625 L10.703125,6.6015625 L10.2734375,6.9140625 L10.4296875,7.3828125 L10,7.0703125 L9.5703125,7.3828125 L9.7265625,6.9140625 L9.296875,6.6015625 L9.84375,6.6015625 L10,6.09375 Z M7.6953125,6.8359375 L8.125,7.1484375 L8.5546875,6.8359375 L8.3984375,7.34375 L8.828125,7.65625 L8.28125,7.65625 L8.125,8.125 L7.96875,7.65625 L7.421875,7.65625 L7.8515625,7.34375 L7.6953125,6.8359375 Z M6.2890625,8.7890625 L6.796875,8.7890625 L6.953125,8.28125 L7.109375,8.7890625 L7.65625,8.7890625 L7.2265625,9.1015625 L7.3828125,9.609375 L6.953125,9.296875 L6.5234375,9.609375 L6.71875,9.1015625 L6.2890625,8.7890625 Z M6.2890625,11.2109375 L6.71875,10.8984375 L6.5234375,10.390625 L6.953125,10.703125 L7.3828125,10.390625 L7.2265625,10.8984375 L7.65625,11.2109375 L7.109375,11.2109375 L6.953125,11.71875 L6.796875,11.2109375 L6.2890625,11.2109375 Z M7.6953125,13.1640625 L7.8515625,12.65625 L7.421875,12.34375 L7.96875,12.34375 L8.125,11.875 L8.28125,12.34375 L8.7890625,12.34375 L8.3984375,12.65625 L8.5546875,13.1640625 L8.125,12.8515625 L7.6953125,13.1640625 Z M10,13.90625 L9.84375,13.3984375 L9.296875,13.3984375 L9.7265625,13.0859375 L9.5703125,12.6171875 L10,12.9296875 L10.4296875,12.6171875 L10.2734375,13.0859375 L10.703125,13.4375 L10.15625,13.4375 L10,13.90625 Z M12.3046875,13.1640625 L11.875,12.8515625 L11.4453125,13.1640625 L11.6015625,12.65625 L11.2109375,12.34375 L11.71875,12.34375 L11.875,11.875 L12.03125,12.34375 L12.578125,12.34375 L12.1484375,12.65625 L12.3046875,13.1640625 Z M13.7109375,11.2109375 L13.203125,11.2109375 L13.046875,11.71875 L12.890625,11.2109375 L12.34375,11.2109375 L12.7734375,10.8984375 L12.6171875,10.390625 L13.046875,10.703125 L13.4765625,10.390625 L13.28125,10.8984375 L13.7109375,11.2109375 Z M13.7109375,8.7890625 L13.28125,9.1015625 L13.4765625,9.609375 L13.046875,9.296875 L12.6171875,9.609375 L12.7734375,9.1015625 L12.34375,8.7890625 L12.890625,8.7890625 L13.046875,8.28125 L13.203125,8.7890625 L13.7109375,8.7890625 Z M12.3046875,6.8359375 L12.1484375,7.34375 L12.578125,7.65625 L12.03125,7.65625 L11.875,8.125 L11.71875,7.65625 L11.171875,7.65625 L11.6015625,7.34375 L11.4453125,6.8359375 L11.875,7.1484375 L12.3046875,6.8359375 Z" id="Shape" fill="#496E2D"></path>
                </g>
            </g>
        </g>
    </g>
</svg>