<?xml version="1.0" encoding="UTF-8"?>
<svg width="20px" height="20px" viewBox="0 0 20 20" version="1.1" xmlns="http://www.w3.org/2000/svg" xmlns:xlink="http://www.w3.org/1999/xlink">
    <title>do_flag_20px</title>
    <defs>
        <circle id="path-1" cx="10" cy="10" r="10"></circle>
    </defs>
    <g id="Design-System" stroke="none" stroke-width="1" fill="none" fill-rule="evenodd">
        <g id="Flags-20x20" transform="translate(-351.000000, -405.000000)">
            <g id="flag" transform="translate(351.000000, 405.000000)">
                <mask id="mask-2" fill="white">
                    <use xlink:href="#path-1"></use>
                </mask>
                <use id="Mask" fill="#D8D8D8" xlink:href="#path-1"></use>
                <g id="do" mask="url(#mask-2)" fill-rule="nonzero">
                    <polygon id="Path" fill="#D80027" points="1.38671875 10 18.7304688 10 20 7.390625 20 0 12.609375 0 10 1.2421875 10 18.609375 7.390625 20 0 20 0 12.609375"></polygon>
                    <polygon id="Path" fill="#0052B4" points="18.7304688 10 1.38671875 10 0 7.390625 0 0 7.390625 0 10 1.2421875 10 18.609375 12.609375 20 20 20 20 12.609375"></polygon>
                    <polygon id="Path" fill="#EEEEEE" points="7.390625 0 12.609375 0 12.609375 7.390625 20 7.390625 20 12.609375 12.609375 12.609375 12.609375 20 7.390625 20 7.390625 12.609375 0 12.609375 0 7.390625 7.390625 7.390625"></polygon>
                    <path d="M12.609375,10 C12.609375,10.9322399 12.112031,11.7936651 11.3046875,12.2597851 C10.4973441,12.725905 9.50265593,12.725905 8.69531248,12.2597851 C7.88796904,11.7936651 7.390625,10.9322399 7.390625,10 C7.390625,8.55859375 10,7.390625 10,7.390625 C10,7.390625 12.609375,8.5625 12.609375,10 Z" id="Path" fill="#496E2D"></path>
                    <path d="M7.390625,10 C7.390625,9.06776008 7.88796903,8.20633486 8.69531248,7.7402149 C9.50265592,7.27409493 10.4973441,7.27409493 11.3046875,7.7402149 C12.112031,8.20633486 12.609375,9.06776008 12.609375,10" id="Path" fill="#0052B4"></path>
                    <path d="M8.53125,8.6953125 L8.53125,10.3242188 C8.53125,11.135387 9.18883177,11.7929688 10,11.7929688 C10.8111682,11.7929688 11.46875,11.135387 11.46875,10.3242188 L11.46875,8.6953125 L8.53125,8.6953125 Z" id="Path" fill="#D80027"></path>
                </g>
            </g>
        </g>
    </g>
</svg>