<?xml version="1.0" encoding="UTF-8"?>
<svg width="20px" height="20px" viewBox="0 0 20 20" version="1.1" xmlns="http://www.w3.org/2000/svg" xmlns:xlink="http://www.w3.org/1999/xlink">
    <title>earth_flag_20px</title>
    <defs>
        <circle id="path-1" cx="10" cy="10" r="10"></circle>
    </defs>
    <g id="Design-System" stroke="none" stroke-width="1" fill="none" fill-rule="evenodd">
        <g id="Flags-20x20" transform="translate(-451.000000, -405.000000)">
            <g id="flag" transform="translate(451.000000, 405.000000)">
                <mask id="mask-2" fill="white">
                    <use xlink:href="#path-1"></use>
                </mask>
                <use id="Mask" fill="#D8D8D8" xlink:href="#path-1"></use>
                <g id="earth" mask="url(#mask-2)" fill-rule="nonzero">
                    <polygon id="Path" fill="#0052B4" points="0 0 20 0 20 20 0 20"></polygon>
                    <path d="M11.8242187,9.12890625 C9.67103366,9.22380995 7.97421187,10.9970682 7.97421187,13.1523438 C7.97421187,15.3076193 9.67103366,17.0808776 11.8242187,17.1757812 C13.9774038,17.0808776 15.6742256,15.3076193 15.6742256,13.1523438 C15.6742256,10.9970682 13.9774038,9.22380995 11.8242187,9.12890625 L11.8242187,9.12890625 Z M11.8242187,9.91015625 C13.6210938,9.91015625 15.0664062,11.3554688 15.0664062,13.1523438 C15.0664062,14.9492188 13.6210938,16.3945312 11.8242187,16.3945312 C10.0273437,16.3945312 8.58203125,14.9492188 8.58203125,13.1523438 C8.58203125,11.3554688 10.0273437,9.91015625 11.8242187,9.91015625 Z" id="Shape" fill="#EEEEEE"></path>
                    <path d="M8.1796875,2.82421875 C6.02650241,2.91912245 4.32968062,4.69238069 4.32968062,6.84765625 C4.32968062,9.00293181 6.02650241,10.7761901 8.1796875,10.8710938 C10.3328726,10.7761901 12.0296944,9.00293181 12.0296944,6.84765625 C12.0296944,4.69238069 10.3328726,2.91912245 8.1796875,2.82421875 L8.1796875,2.82421875 Z M8.1796875,3.60546875 C9.9765625,3.60546875 11.421875,5.05078125 11.421875,6.84765625 C11.421875,8.64453125 9.9765625,10.0898438 8.1796875,10.0898438 C6.3828125,10.0898438 4.9375,8.64453125 4.9375,6.84765625 C4.9375,5.05078125 6.3828125,3.60546875 8.1796875,3.60546875 L8.1796875,3.60546875 Z" id="Shape" fill="#EEEEEE"></path>
                    <path d="M11.8242187,2.82421875 C9.67103366,2.91912245 7.97421187,4.69238069 7.97421187,6.84765625 C7.97421187,9.00293181 9.67103366,10.7761901 11.8242187,10.8710938 C13.9774038,10.7761901 15.6742256,9.00293181 15.6742256,6.84765625 C15.6742256,4.69238069 13.9774038,2.91912245 11.8242187,2.82421875 L11.8242187,2.82421875 Z M11.8242187,3.60546875 C13.6210938,3.60546875 15.0664062,5.05078125 15.0664062,6.84765625 C15.0664062,8.64453125 13.6210938,10.0898438 11.8242187,10.0898438 C10.0273437,10.0898438 8.58203125,8.64453125 8.58203125,6.84765625 C8.58203125,5.05078125 10.0273437,3.60546875 11.8242187,3.60546875 Z" id="Shape" fill="#EEEEEE"></path>
                    <path d="M13.640625,5.9765625 C11.4874399,6.0714662 9.79061812,7.84472444 9.79061812,10 C9.79061812,12.1552756 11.4874399,13.9285338 13.640625,14.0234375 C15.7938101,13.9285338 17.4906319,12.1552756 17.4906319,10 C17.4906319,7.84472444 15.7938101,6.0714662 13.640625,5.9765625 Z M13.640625,6.7578125 C15.4375,6.7578125 16.8828125,8.203125 16.8828125,10 C16.8828125,11.796875 15.4375,13.2421875 13.640625,13.2421875 C11.84375,13.2421875 10.3984375,11.796875 10.3984375,10 C10.3984375,8.203125 11.84375,6.7578125 13.640625,6.7578125 Z" id="Shape" fill="#EEEEEE"></path>
                    <path d="M8.1796875,9.12890625 C6.02650241,9.22380995 4.32968062,10.9970682 4.32968062,13.1523438 C4.32968062,15.3076193 6.02650241,17.0808776 8.1796875,17.1757812 C10.3328726,17.0808776 12.0296944,15.3076193 12.0296944,13.1523438 C12.0296944,10.9970682 10.3328726,9.22380995 8.1796875,9.12890625 L8.1796875,9.12890625 Z M8.1796875,9.91015625 C9.9765625,9.91015625 11.421875,11.3554688 11.421875,13.1523438 C11.421875,14.9492188 9.9765625,16.3945312 8.1796875,16.3945312 C6.3828125,16.3945312 4.9375,14.9492188 4.9375,13.1523438 C4.9375,11.3554688 6.3828125,9.91015625 8.1796875,9.91015625 L8.1796875,9.91015625 Z" id="Shape" fill="#EEEEEE"></path>
                    <path d="M6.359375,5.9765625 C4.20618991,6.0714662 2.50936812,7.84472444 2.50936812,10 C2.50936812,12.1552756 4.20618991,13.9285338 6.359375,14.0234375 C8.51256009,13.9285338 10.2093819,12.1552756 10.2093819,10 C10.2093819,7.84472444 8.51256009,6.0714662 6.359375,5.9765625 Z M6.359375,6.7578125 C8.15625,6.7578125 9.6015625,8.203125 9.6015625,10 C9.6015625,11.796875 8.15625,13.2421875 6.359375,13.2421875 C4.5625,13.2421875 3.1171875,11.796875 3.1171875,10 C3.1171875,8.203125 4.5625,6.7578125 6.359375,6.7578125 Z" id="Shape" fill="#EEEEEE"></path>
                    <path d="M10,5.98046875 C7.84681491,6.07537245 6.14999312,7.84863069 6.14999312,10.0039063 C6.14999312,12.1591818 7.84681491,13.9324401 10,14.0273438 C12.1531851,13.9324401 13.8500069,12.1591818 13.8500069,10.0039063 C13.8500069,7.84863069 12.1531851,6.07537245 10,5.98046875 L10,5.98046875 Z M10,6.76171875 C11.796875,6.76171875 13.2421875,8.20703125 13.2421875,10.0039063 C13.2421875,11.796875 11.796875,13.2460938 10,13.2460938 C8.203125,13.2460938 6.7578125,11.796875 6.7578125,10.0039063 C6.7578125,8.20703125 8.203125,6.76171875 10,6.76171875 Z" id="Shape" fill="#EEEEEE"></path>
                </g>
            </g>
        </g>
    </g>
</svg>