<?xml version="1.0" encoding="UTF-8"?>
<svg width="20px" height="20px" viewBox="0 0 20 20" version="1.1" xmlns="http://www.w3.org/2000/svg" xmlns:xlink="http://www.w3.org/1999/xlink">
    <title>easter_island_flag_20px</title>
    <defs>
        <circle id="path-1" cx="10" cy="10" r="10"></circle>
    </defs>
    <g id="Design-System" stroke="none" stroke-width="1" fill="none" fill-rule="evenodd">
        <g id="Flags-20x20" transform="translate(-51.000000, -455.000000)">
            <g id="flag" transform="translate(51.000000, 455.000000)">
                <mask id="mask-2" fill="white">
                    <use xlink:href="#path-1"></use>
                </mask>
                <use id="Mask" fill="#D8D8D8" xlink:href="#path-1"></use>
                <g id="easter_island" mask="url(#mask-2)" fill-rule="nonzero">
                    <polygon id="Path" fill="#EEEEEE" points="0 0 20 0 20 20 0 20"></polygon>
                    <path d="M13.046875,8.26171875 L13.046875,9.12890625 L14.2382812,9.12890625 C13.737727,9.82578069 13.0737708,10.3891375 12.3046875,10.7695312 C12.0287347,10.4778481 11.6139506,10.362962 11.2272544,10.4711058 C10.8405583,10.5792497 10.5455459,10.8926382 10.4609375,11.2851562 C10.1542368,11.3121074 9.84576323,11.3121074 9.5390625,11.2851562 C9.45205346,10.8943869 9.1571013,10.5831837 8.77155542,10.4753615 C8.38600954,10.3675394 7.97241052,10.4805885 7.6953125,10.7695313 C6.92622921,10.3891375 6.26227298,9.82578069 5.76171875,9.12890625 L6.95703125,9.12890625 L6.95703125,8.26171875 L3.91015625,8.26171875 C3.91015625,11.6239679 6.63579777,14.3496092 9.99804688,14.3496092 C13.360296,14.3496092 16.0859375,11.6239679 16.0859375,8.26171875 L13.046875,8.26171875 L13.046875,8.26171875 Z" id="Path" fill="#D80027"></path>
                </g>
            </g>
        </g>
    </g>
</svg>