<?xml version="1.0" encoding="UTF-8"?>
<svg width="20px" height="20px" viewBox="0 0 20 20" version="1.1" xmlns="http://www.w3.org/2000/svg" xmlns:xlink="http://www.w3.org/1999/xlink">
    <title>ec_flag_20px</title>
    <defs>
        <circle id="path-1" cx="10" cy="10" r="10"></circle>
    </defs>
    <g id="Design-System" stroke="none" stroke-width="1" fill="none" fill-rule="evenodd">
        <g id="Flags-20x20" transform="translate(-101.000000, -455.000000)">
            <g id="flag" transform="translate(101.000000, 455.000000)">
                <mask id="mask-2" fill="white">
                    <use xlink:href="#path-1"></use>
                </mask>
                <use id="Mask" fill="#D8D8D8" xlink:href="#path-1"></use>
                <g id="ec" mask="url(#mask-2)" fill-rule="nonzero">
                    <polygon id="Path" fill="#D80027" points="0 15 9.94921875 13.7226562 20 14.9960937 20 20 0 20"></polygon>
                    <polygon id="Path" fill="#0052B4" points="0 10 9.9609375 8.9453125 20 10 20 15 0 15"></polygon>
                    <polygon id="Path" fill="#FFDA44" points="0 0 20 0 20 10 0 10"></polygon>
                    <circle id="Oval" fill="#FFDA44" cx="10" cy="10" r="3.4765625"></circle>
                    <path d="M10,12.171875 C8.80078125,12.171875 7.82421875,11.1953125 7.82421875,10 L7.82421875,8.6953125 C7.82421875,7.4936617 8.7983492,6.51953125 10,6.51953125 C11.2016508,6.51953125 12.1757813,7.4936617 12.1757813,8.6953125 L12.1757813,10 C12.1757813,11.1953125 11.1992188,12.171875 10,12.171875 L10,12.171875 Z" id="Path" fill="#338AF3"></path>
                    <path d="M13.4765625,4.78125 L10.8710938,4.78125 C10.8710938,4.30015821 10.4810918,3.91015625 10,3.91015625 C9.51890821,3.91015625 9.12890625,4.30015821 9.12890625,4.78125 L6.5234375,4.78125 C6.53821987,5.2667332 6.93616685,5.65256875 7.421875,5.65234375 L7.390625,5.65234375 C7.390625,6.1328125 7.78125,6.5234375 8.26171875,6.5234375 C8.26171875,7.00390625 8.65234375,7.390625 9.12890625,7.390625 L10.8710938,7.390625 C11.3515625,7.390625 11.7382812,7 11.7382812,6.5234375 C12.21875,6.5234375 12.609375,6.1328125 12.609375,5.65234375 L12.578125,5.65234375 C13.0638332,5.65256875 13.4617801,5.2667332 13.4765625,4.78125 Z" id="Path" fill="#333333"></path>
                </g>
            </g>
        </g>
    </g>
</svg>