<?xml version="1.0" encoding="UTF-8"?>
<svg width="20px" height="20px" viewBox="0 0 20 20" version="1.1" xmlns="http://www.w3.org/2000/svg" xmlns:xlink="http://www.w3.org/1999/xlink">
    <title>er_flag_20px</title>
    <defs>
        <circle id="path-1" cx="10" cy="10" r="10"></circle>
    </defs>
    <g id="Design-System" stroke="none" stroke-width="1" fill="none" fill-rule="evenodd">
        <g id="Flags-20x20" transform="translate(-351.000000, -455.000000)">
            <g id="flag" transform="translate(351.000000, 455.000000)">
                <mask id="mask-2" fill="white">
                    <use xlink:href="#path-1"></use>
                </mask>
                <use id="Mask" fill="#D8D8D8" xlink:href="#path-1"></use>
                <g id="er" mask="url(#mask-2)" fill-rule="nonzero">
                    <polygon id="Path" fill="#6DA544" points="0 0 20 0 20 10 2.421875 10"></polygon>
                    <polygon id="Path" fill="#338AF3" points="2.421875 10 20 10 20 20 0 20"></polygon>
                    <polygon id="Path" fill="#D80027" points="0 0 0 20 20 10"></polygon>
                    <path d="M5.21875,5.87109375 C3.30078125,5.87109375 1.7421875,7.43359375 1.7421875,9.34765625 L1.7421875,10.6523438 C1.83019663,12.5083771 3.36063119,13.9679613 5.21875,13.9679613 C7.07686881,13.9679613 8.60730337,12.5083771 8.6953125,10.6523438 L8.6953125,9.34765625 C8.6953125,7.43359375 7.1328125,5.87109375 5.21875,5.87109375 L5.21875,5.87109375 Z M7.390625,10.6523438 C7.390625,11.625 6.75,12.4492188 5.8671875,12.7226563 L5.8671875,11.3046875 L6.79296875,10.3828125 L5.87109375,9.4609375 L5.87109375,8.6953125 L4.56640625,8.6953125 L4.56640625,10 L3.64453125,10.921875 L4.56640625,11.84375 L4.56640625,12.7265625 C3.66028984,12.4417897 3.04360926,11.6021554 3.04296875,10.6523438 L3.04296875,9.34765625 C3.09235425,8.18290142 4.05099555,7.26404512 5.21679687,7.26404512 C6.3825982,7.26404512 7.3412395,8.18290142 7.390625,9.34765625 L7.390625,10.6523438 Z" id="Shape" fill="#FFDA44"></path>
                </g>
            </g>
        </g>
    </g>
</svg>