<?xml version="1.0" encoding="UTF-8"?>
<svg width="20px" height="20px" viewBox="0 0 20 20" version="1.1" xmlns="http://www.w3.org/2000/svg" xmlns:xlink="http://www.w3.org/1999/xlink">
    <title>es_ce_flag_20px</title>
    <defs>
        <circle id="path-1" cx="10" cy="10" r="10"></circle>
    </defs>
    <g id="Design-System" stroke="none" stroke-width="1" fill="none" fill-rule="evenodd">
        <g id="Flags-20x20" transform="translate(-501.000000, -455.000000)">
            <g id="flag" transform="translate(501.000000, 455.000000)">
                <mask id="mask-2" fill="white">
                    <use xlink:href="#path-1"></use>
                </mask>
                <use id="Mask" fill="#D8D8D8" xlink:href="#path-1"></use>
                <g id="es-ce" mask="url(#mask-2)" fill-rule="nonzero">
                    <polygon id="Path" fill="#EEEEEE" points="0 0 5.48828125 1.0859375 10 0 20 0 18.9726562 5.1875 20 10 20 20 14.5820312 18.8085938 10 20 0 20 1.171875 14.5351562 0 10"></polygon>
                    <path d="M0,0 L10,10 L10,0 L0,0 Z M10,10 L20,10 L20,0 L10,10 Z M10,10 L10,20 L20,20 L10,10 Z M10,10 L0,10 L0,20 L10,10 Z" id="Shape" fill="#333333"></path>
                    <polygon id="Path" fill="#FFDA44" points="6.5234375 6.953125 10 7.390625 13.4765625 6.95703125 13.4765625 4.87109375 12.0859375 5.56640625 10 3.4765625 7.9140625 5.56640625 6.5234375 4.87109375"></polygon>
                    <path d="M10,15.21875 C8.08203125,15.21875 6.5234375,13.65625 6.5234375,11.7421875 L6.5234375,8.26171875 L7.82421875,6.95703125 L12.1757812,6.95703125 L13.4765625,8.26171875 L13.4765625,11.7382812 C13.4765625,13.6583337 11.9200525,15.2148438 10,15.2148438 L10,15.21875 Z" id="Path" fill="#D80027"></path>
                    <path d="M10,13.9140625 C8.80078125,13.9140625 7.82421875,12.9375 7.82421875,11.7382813 L7.82421875,8.26171875 L12.1757813,8.26171875 L12.1757813,11.7382813 C12.1757813,12.9375 11.1992188,13.9140625 10,13.9140625 L10,13.9140625 Z" id="Path" fill="#EEEEEE"></path>
                    <path d="M6.5234375,6.953125 L7.82421875,6.953125 L7.82421875,8.26171875 L6.5234375,8.26171875 L6.5234375,6.953125 Z M12.1757812,6.953125 L13.4765625,6.953125 L13.4765625,8.26171875 L12.1757812,8.26171875 L12.1757812,6.953125 Z M12.1757812,9.78125 L13.4765625,9.78125 L13.4765625,11.0859375 L12.1757812,11.0859375 L12.1757812,9.78125 Z M6.5234375,9.78125 L7.82421875,9.78125 L7.82421875,11.0859375 L6.5234375,11.0859375 L6.5234375,9.78125 Z M10,13.9140625 C9.7734375,13.9140625 9.5546875,13.875 9.34765625,13.8125 L9.34765625,15.15625 C9.77865512,15.2385853 10.2213449,15.2385853 10.6523438,15.15625 L10.6523438,13.8125 C10.4413559,13.8794591 10.2213577,13.9137103 10,13.9140625 L10,13.9140625 Z M7.8515625,12.09375 L6.8125,13.1328125 C6.99266896,13.5425958 7.24994251,13.9139185 7.5703125,14.2265625 L8.4921875,13.3007812 C8.15480923,12.9764398 7.93144312,12.5516331 7.85546875,12.0898438 L7.8515625,12.09375 Z M13.1875,13.1328125 L12.1445313,12.09375 C12.0664063,12.5625 11.8398438,12.984375 11.5078125,13.3046875 L12.4296875,14.2226562 C12.749647,13.9111665 13.0068976,13.5412029 13.1875,13.1328125 Z" id="Shape" fill="#FFDA44"></path>
                    <path d="M9.56640625,8.984375 L9.56640625,9.7109375 C9.56640625,9.95040472 9.76053278,10.1445312 10,10.1445312 C10.2394672,10.1445312 10.4335938,9.95040472 10.4335938,9.7109375 L10.4335938,8.984375 L9.5703125,8.984375 L9.56640625,8.984375 Z M9.56640625,11.8828125 L9.56640625,12.609375 C9.56640625,12.8488422 9.76053278,13.0429688 10,13.0429688 C10.2394672,13.0429688 10.4335938,12.8488422 10.4335938,12.609375 L10.4335938,11.8828125 L9.5703125,11.8828125 L9.56640625,11.8828125 Z M10.8710938,10.4375 L10.8710938,11.1601562 C10.8710938,11.3996235 11.0652203,11.59375 11.3046875,11.59375 C11.5441547,11.59375 11.7382812,11.3996235 11.7382812,11.1601562 L11.7382812,10.4296875 L10.8710938,10.4296875 L10.8710938,10.4375 Z M9.56640625,10.4375 L9.56640625,11.1601562 C9.56640625,11.3996235 9.76053278,11.59375 10,11.59375 C10.2394672,11.59375 10.4335938,11.3996235 10.4335938,11.1601562 L10.4335938,10.4296875 L9.5703125,10.4296875 L9.56640625,10.4375 Z M8.26171875,10.4375 L8.26171875,11.1601562 C8.26171875,11.3996235 8.45584528,11.59375 8.6953125,11.59375 C8.93477972,11.59375 9.12890625,11.3996235 9.12890625,11.1601562 L9.12890625,10.4296875 L8.26171875,10.4296875 L8.26171875,10.4375 Z" id="Shape" fill="#0052B4"></path>
                </g>
            </g>
        </g>
    </g>
</svg>