<?xml version="1.0" encoding="UTF-8"?>
<svg width="20px" height="20px" viewBox="0 0 20 20" version="1.1" xmlns="http://www.w3.org/2000/svg" xmlns:xlink="http://www.w3.org/1999/xlink">
    <title>es_flag_20px</title>
    <defs>
        <circle id="path-1" cx="10" cy="10" r="10"></circle>
    </defs>
    <g id="Design-System" stroke="none" stroke-width="1" fill="none" fill-rule="evenodd">
        <g id="Flags-20x20" transform="translate(-401.000000, -455.000000)">
            <g id="flag" transform="translate(401.000000, 455.000000)">
                <mask id="mask-2" fill="white">
                    <use xlink:href="#path-1"></use>
                </mask>
                <use id="Mask" fill="#D8D8D8" xlink:href="#path-1"></use>
                <g id="es" mask="url(#mask-2)">
                    <polygon id="Path" fill="#FFDA44" fill-rule="nonzero" points="0 5 10 3.75 20 5 20 15 10 16.25 0 15"></polygon>
                    <path d="M0,0 L20,0 L20,5 L0,5 L0,0 Z M0,15 L20,15 L20,20 L0,20 L0,15 Z" id="Shape" fill="#D80027" fill-rule="nonzero"></path>
                    <g id="Group" transform="translate(5.000000, 8.750000)" fill="#EEEEEE" fill-rule="nonzero">
                        <path d="M0.625,3.125 L0,3.125 L0,0 L0.625,0 L0.625,3.125 Z M5.625,3.125 L6.25,3.125 L6.25,0 L5.625,0 L5.625,3.125 Z" id="Shape"></path>
                        <ellipse id="Oval" cx="3.125" cy="2.8125" rx="1.875" ry="1.25"></ellipse>
                    </g>
                    <g id="Group" transform="translate(5.000000, 7.500000)" fill="#D80027" fill-rule="nonzero">
                        <rect id="Rectangle" x="0" y="0" width="1" height="1" rx="0.5"></rect>
                        <rect id="Rectangle" x="5.625" y="0" width="1" height="1" rx="0.5"></rect>
                        <path d="M3.125,3.125 L3.125,4.0625 C3.125,4.58026695 3.54473305,5 4.0625,5 C4.58026695,5 5,4.58026695 5,4.0625 L5,3.125 L4.0625,3.125 L3.125,3.125 Z" id="Path"></path>
                    </g>
                    <rect id="Rectangle" fill="#FF9811" fill-rule="nonzero" x="4.6875" y="8.125" width="1.25" height="1"></rect>
                    <rect id="Rectangle" fill="#FF9811" fill-rule="nonzero" x="10.3125" y="8.125" width="1.25" height="1"></rect>
                    <rect id="Rectangle" fill="#FF9811" fill-rule="nonzero" x="4.6875" y="11.875" width="1.25" height="1" rx="0.5"></rect>
                    <rect id="Rectangle" fill="#FF9811" fill-rule="nonzero" x="10.3125" y="11.875" width="1.25" height="1" rx="0.5"></rect>
                    <path d="M6.25,10.625 L6.25,11.5625 C6.25,11.875 6.40625,12.109375 6.6015625,12.3046875 L6.796875,12.0703125 L6.9921875,12.4609375 C7.12049624,12.4923918 7.25450376,12.4923918 7.3828125,12.4609375 L7.578125,12.0703125 L7.7734375,12.3046875 C8.0078125,12.109375 8.125,11.875 8.125,11.5625 L8.125,10.625 L7.7734375,10.625 L7.578125,10.9375 L7.3828125,10.625 L6.9921875,10.625 L6.796875,10.9375 L6.6015625,10.625 L6.25,10.625 Z" id="Path" fill="#FF9811" fill-rule="nonzero"></path>
                    <path d="M4.765625,9.87421875 L11.484375,9.87421875 M4.765625,10.8342187 L5.859375,10.8342187 M10.390625,10.8342187 L11.484375,10.8342187" id="Shape" fill="#000000" fill-rule="nonzero"></path>
                    <path d="M4.765625,9.6875 C4.67933051,9.6875 4.609375,9.75745551 4.609375,9.84375 C4.609375,9.93004449 4.67933051,10 4.765625,10 L11.484375,10 C11.5706695,10 11.640625,9.93004449 11.640625,9.84375 C11.640625,9.75745551 11.5706695,9.6875 11.484375,9.6875 L4.765625,9.6875 Z M4.765625,10.625 C4.67933051,10.625 4.609375,10.6949555 4.609375,10.78125 C4.609375,10.8675445 4.67933051,10.9375 4.765625,10.9375 L5.859375,10.9375 C5.94566949,10.9375 6.015625,10.8675445 6.015625,10.78125 C6.015625,10.6949555 5.94566949,10.625 5.859375,10.625 L4.765625,10.625 Z M10.390625,10.625 C10.3043305,10.625 10.234375,10.6949555 10.234375,10.78125 C10.234375,10.8675445 10.3043305,10.9375 10.390625,10.9375 L11.484375,10.9375 C11.5706695,10.9375 11.640625,10.8675445 11.640625,10.78125 C11.640625,10.6949555 11.5706695,10.625 11.484375,10.625 L10.390625,10.625 Z" id="Shape" fill="#D80027" fill-rule="nonzero"></path>
                    <path d="M7.65625,6.5625 C7.3828125,6.5625 7.1484375,6.7578125 7.0703125,6.9921875 L6.875,6.953125 C6.5234375,6.953125 6.25,7.2265625 6.25,7.578125 C6.25,7.9296875 6.5234375,8.203125 6.875,8.203125 C7.1484375,8.203125 7.3828125,8.046875 7.4609375,7.7734375 C7.69370539,7.85740408 7.9540945,7.79613606 8.125,7.6171875 C8.2959055,7.79613606 8.55629461,7.85740408 8.7890625,7.7734375 C8.86659225,8.01544465 9.08293362,8.18641528 9.33630703,8.20591486 C9.58968045,8.22541444 9.82963501,8.08956027 9.94328212,7.86226606 C10.0569292,7.63497185 10.0216398,7.3614957 9.85401611,7.17049671 C9.6863924,6.97949772 9.41981107,6.90900701 9.1796875,6.9921875 C9.10305286,6.78617921 8.92383734,6.63556918 8.70771142,6.59554586 C8.49158549,6.55552254 8.27032232,6.63196986 8.125,6.796875 C8.0078125,6.640625 7.8515625,6.5625 7.65625,6.5625 Z M7.65625,6.875 C7.8515625,6.875 7.96875,7.03125 7.96875,7.1875 C7.96875,7.3828125 7.8515625,7.5 7.65625,7.5 C7.5,7.5 7.34375,7.3828125 7.34375,7.1875 C7.34375,7.03125 7.5,6.875 7.65625,6.875 Z M8.59375,6.875 C8.7890625,6.875 8.90625,7.03125 8.90625,7.1875 C8.90625,7.3828125 8.7890625,7.5 8.59375,7.5 C8.4375,7.5 8.28125,7.3828125 8.28125,7.1875 C8.28125,7.03125 8.4375,6.875 8.59375,6.875 Z M6.875,7.265625 L7.03125,7.3046875 L7.1875,7.6171875 C7.1875,7.7734375 7.03125,7.890625 6.875,7.890625 C6.71875,7.890625 6.5625,7.7734375 6.5625,7.578125 C6.5625,7.421875 6.71875,7.265625 6.875,7.265625 Z M9.375,7.265625 C9.5703125,7.265625 9.6875,7.421875 9.6875,7.578125 C9.6875,7.7734375 9.5703125,7.890625 9.375,7.890625 C9.21875,7.890625 9.0625,7.7734375 9.0625,7.6171875 L9.21875,7.3046875 L9.375,7.265625 Z" id="Shape" fill="#EEEEEE" fill-rule="nonzero"></path>
                    <path d="M8.59375,11.09375 L8.59375,11.5625 C8.59375,11.8359375 8.7890625,12.03125 9.0625,12.03125 C9.3359375,12.03125 9.53125,11.8359375 9.53125,11.5625 L9.53125,11.09375 L8.59375,11.09375 Z" id="Path"></path>
                    <polygon id="Path" fill="#FF9811" fill-rule="nonzero" points="7.8125 6.25 8.4375 6.25 8.4375 7.5 7.8125 7.5"></polygon>
                    <polygon id="Path" fill="#EEEEEE" fill-rule="nonzero" points="8.125 8.75 10 8.75 10 10.625 8.125 10.625"></polygon>
                    <path d="M9.6875,8.125 L9.375,8.4375 L6.875,8.4375 L6.5625,8.125 C6.5625,7.6171875 7.265625,7.1875 8.125,7.1875 C8.984375,7.1875 9.6875,7.6171875 9.6875,8.125 Z M6.25,8.75 L8.125,8.75 L8.125,10.625 L6.25,10.625 L6.25,8.75 Z" id="Shape" fill="#D80027" fill-rule="nonzero"></path>
                    <rect id="Rectangle" fill="#D80027" fill-rule="nonzero" x="8.671875" y="9.0625" width="1" height="1.25" rx="0.5"></rect>
                    <path d="M6.5625,9.0625 L6.5625,9.375 L6.875,9.375 L6.875,10 L6.5625,10 L6.5625,10.3125 L7.8125,10.3125 L7.8125,10 L7.5,10 L7.5,9.375 L7.8125,9.375 L7.8125,9.0625 L6.5625,9.0625 Z M6.875,8.4375 L9.375,8.4375 L9.375,8.75 L6.875,8.75 L6.875,8.4375 Z" id="Shape" fill="#FF9811" fill-rule="nonzero"></path>
                    <g id="Group" transform="translate(7.031250, 7.656250)" fill="#FFDA44" fill-rule="nonzero">
                        <ellipse id="Oval" cx="0.234375" cy="0.5" rx="1" ry="1"></ellipse>
                        <ellipse id="Oval" cx="1.09375" cy="0.5" rx="1" ry="1"></ellipse>
                        <ellipse id="Oval" cx="1.953125" cy="0.5" rx="1" ry="1"></ellipse>
                    </g>
                    <path d="M6.6015625,10.625 L6.6015625,12.3046875 C6.71825185,12.3856919 6.8518232,12.4391205 6.9921875,12.4609375 L6.9921875,10.625 L6.6015625,10.625 L6.6015625,10.625 Z M7.3828125,10.625 L7.3828125,12.4609375 C7.5231768,12.4391205 7.65674815,12.3856919 7.7734375,12.3046875 L7.7734375,10.625 L7.3828125,10.625 L7.3828125,10.625 Z" id="Shape" fill="#D80027" fill-rule="nonzero"></path>
                    <g id="Group" transform="translate(4.687500, 10.000000)" fill="#338AF3" fill-rule="nonzero">
                        <circle id="Oval" cx="3.4375" cy="0.625" r="1"></circle>
                        <rect id="Rectangle" x="5.625" y="2.5" width="1.25" height="1"></rect>
                        <rect id="Rectangle" x="0" y="2.5" width="1.25" height="1"></rect>
                    </g>
                </g>
            </g>
        </g>
    </g>
</svg>