<?xml version="1.0" encoding="UTF-8"?>
<svg width="20px" height="20px" viewBox="0 0 20 20" version="1.1" xmlns="http://www.w3.org/2000/svg" xmlns:xlink="http://www.w3.org/1999/xlink">
    <title>es_ga_flag_20px</title>
    <defs>
        <circle id="path-1" cx="10" cy="10" r="10"></circle>
    </defs>
    <g id="Design-System" stroke="none" stroke-width="1" fill="none" fill-rule="evenodd">
        <g id="Flags-20x20" transform="translate(-151.000000, -505.000000)">
            <g id="flag" transform="translate(151.000000, 505.000000)">
                <mask id="mask-2" fill="white">
                    <use xlink:href="#path-1"></use>
                </mask>
                <use id="Mask" fill="#D8D8D8" xlink:href="#path-1"></use>
                <g id="es-ga" mask="url(#mask-2)" fill-rule="nonzero">
                    <polygon id="Path" fill="#EEEEEE" points="0 2.4609375 2.4609375 0 20 0 20 17.5390625 17.5390625 20 0 20"></polygon>
                    <polygon id="Path" fill="#338AF3" points="0 0 0 2.4609375 17.5390625 20 20 20 20 17.5390625 2.4609375 0"></polygon>
                    <polygon id="Path" fill="#D80027" points="8.2421875 7.0703125 10.0390625 7.7109375 11.7578125 7.0703125 11.7578125 5.5859375 11.0546875 5.9375 10 4.8828125 8.9453125 5.9375 8.2421875 5.5859375"></polygon>
                    <path d="M7.265625,7.0703125 L7.265625,11.09375 C7.265625,12.6039036 8.48984641,13.8281249 10,13.8281249 C11.5101536,13.8281249 12.734375,12.6039036 12.734375,11.09375 L12.734375,7.0703125 L7.265625,7.0703125 Z" id="Path" fill="#0052B4"></path>
                </g>
            </g>
        </g>
    </g>
</svg>