<?xml version="1.0" encoding="UTF-8"?>
<svg width="20px" height="20px" viewBox="0 0 20 20" version="1.1" xmlns="http://www.w3.org/2000/svg" xmlns:xlink="http://www.w3.org/1999/xlink">
    <title>es_ib_flag_20px</title>
    <defs>
        <circle id="path-1" cx="10" cy="10" r="10"></circle>
    </defs>
    <g id="Design-System" stroke="none" stroke-width="1" fill="none" fill-rule="evenodd">
        <g id="Flags-20x20" transform="translate(-201.000000, -505.000000)">
            <g id="flag" transform="translate(201.000000, 505.000000)">
                <mask id="mask-2" fill="white">
                    <use xlink:href="#path-1"></use>
                </mask>
                <use id="Mask" fill="#D8D8D8" xlink:href="#path-1"></use>
                <g id="es-ib" mask="url(#mask-2)" fill-rule="nonzero">
                    <polygon id="Path" fill="#FFDA44" points="0 10 10 0 20 0 20 2.21875 19.4257812 3.3828125 20 4.4453125 20 6.6640625 19.3828125 7.7734375 20 8.890625 20 11.109375 19.28125 12.2578125 20 13.3320312 20 15.5546875 19.3476562 16.6796875 20 17.7773438 20 20 0 20 0 17.7773438 0.9453125 16.7070312 0 15.5546875 0 13.3320312 0.8203125 12.25 0 11.109375"></polygon>
                    <path d="M9.453125,2.21875 L9.453125,4.4453125 L20,4.4453125 L20,2.21875 L9.453125,2.21875 Z M9.453125,6.6640625 L9.453125,8.890625 L20,8.890625 L20,6.6640625 L9.453125,6.6640625 Z M0,11.109375 L0,13.3320312 L20,13.3320312 L20,11.109375 L0,11.109375 Z M0,15.5546875 L0,17.7773438 L20,17.7773438 L20,15.5546875 L0,15.5546875 Z" id="Shape" fill="#D80027"></path>
                    <polygon id="Path" fill="#4A1F63" points="0 0 10 0 10 10 0 10"></polygon>
                    <polygon id="Path" fill="#EEEEEE" points="8.26171875 5.21875 8.26171875 6.0859375 7.82421875 6.0859375 7.82421875 5.21875 6.95703125 5.21875 6.95703125 6.0859375 6.5234375 6.0859375 6.5234375 4.34765625 4.78125 4.34765625 4.78125 6.0859375 4.3515625 6.0859375 4.3515625 5.21875 3.4765625 5.21875 3.4765625 6.0859375 3.046875 6.0859375 3.046875 5.21875 2.171875 5.21875 2.171875 7.82421875 9.125 7.82421875 9.125 5.21875"></polygon>
                </g>
            </g>
        </g>
    </g>
</svg>