<?xml version="1.0" encoding="UTF-8"?>
<svg width="20px" height="20px" viewBox="0 0 20 20" version="1.1" xmlns="http://www.w3.org/2000/svg" xmlns:xlink="http://www.w3.org/1999/xlink">
    <title>es_ml_flag_20px</title>
    <defs>
        <circle id="path-1" cx="10" cy="10" r="10"></circle>
    </defs>
    <g id="Design-System" stroke="none" stroke-width="1" fill="none" fill-rule="evenodd">
        <g id="Flags-20x20" transform="translate(-251.000000, -505.000000)">
            <g id="flag" transform="translate(251.000000, 505.000000)">
                <mask id="mask-2" fill="white">
                    <use xlink:href="#path-1"></use>
                </mask>
                <use id="Mask" fill="#D8D8D8" xlink:href="#path-1"></use>
                <g id="es-ml" mask="url(#mask-2)" fill-rule="nonzero">
                    <polygon id="Path" fill="#338AF3" points="0 0 20 0 20 20 0 20"></polygon>
                    <polygon id="Path" fill="#ACABB1" points="4.78125 10.8710938 15.21875 10.8710938 15.21875 12.1757812 4.78125 12.1757812"></polygon>
                    <polygon id="Path" fill="#FFDA44" points="6.5234375 6.953125 10 7.390625 13.4765625 6.95703125 13.4765625 4.87109375 12.0859375 5.56640625 10 3.4765625 7.9140625 5.56640625 6.5234375 4.87109375"></polygon>
                    <path d="M5.65234375,13.4765625 L4.34765625,13.4765625 L4.34765625,11.0859375 L4.78125,10.4335938 L4.34765625,9.78125 L4.34765625,8.2578125 L5.65234375,8.2578125 L5.65234375,13.4765625 Z M15.6523437,13.4765625 L14.3476562,13.4765625 L14.3476562,8.265625 L15.6523437,8.265625 L15.6523437,9.7890625 L15.21875,10.453125 L15.6523437,11.0898438 L15.6523437,13.4765625 Z" id="Shape" fill="#EEEEEE"></path>
                    <polygon id="Path" fill="#ACABB1" points="4.34765625 9.78125 15.6523438 9.78125 15.6523438 11.0859375 4.34765625 11.0859375"></polygon>
                    <path d="M10,15.21875 C8.08203125,15.21875 6.5234375,13.65625 6.5234375,11.7421875 L6.5234375,6.953125 L13.4765625,6.953125 L13.4765625,11.734375 C13.4765625,12.6564167 13.1102829,13.540694 12.4583009,14.1926759 C11.806319,14.8446579 10.9220417,15.2109375 10,15.2109375 L10,15.21875 Z" id="Path" fill="#EEEEEE"></path>
                    <path d="M10,13.9140625 C8.79987496,13.9119079 7.828125,12.9384082 7.828125,11.7382812 L7.828125,8.26171875 L12.171875,8.26171875 L12.171875,11.7382812 C12.171875,12.9384082 11.200125,13.9119079 10,13.9140625 L10,13.9140625 Z" id="Path" fill="#0052B4"></path>
                    <path d="M6.5234375,6.953125 L7.828125,6.953125 L7.828125,8.26171875 L6.5234375,8.26171875 L6.5234375,6.953125 Z M12.1757812,6.953125 L13.4765625,6.953125 L13.4765625,8.26171875 L12.171875,8.26171875 L12.1757812,6.953125 Z M12.1757812,9.78125 L13.4765625,9.78125 L13.4765625,11.0859375 L12.171875,11.0859375 L12.1757812,9.78125 Z M6.5234375,9.78125 L7.82421875,9.78125 L7.82421875,11.0859375 L6.5234375,11.0859375 L6.5234375,9.78125 Z M9.34765625,6.95703125 L10.6523437,6.95703125 L10.6523437,8.26171875 L9.34765625,8.26171875 L9.34765625,6.95703125 Z M10,13.90625 C9.7734375,13.90625 9.5546875,13.875 9.34765625,13.8085938 L9.34765625,15.15625 C9.77869053,15.2382103 10.2213095,15.2382103 10.6523438,15.15625 L10.6523438,13.8125 C10.4413559,13.8794591 10.2213577,13.9137103 10,13.9140625 L10,13.90625 Z M7.85546875,12.0898438 L6.8125,13.1289063 C6.99258367,13.5387373 7.24986787,13.9100753 7.5703125,14.2226563 L8.4921875,13.296875 C8.15480923,12.9725335 7.93144312,12.5477268 7.85546875,12.0859375 L7.85546875,12.0898438 Z M13.1875,13.1289063 L12.1445313,12.0898438 C12.0682881,12.5515429 11.8449641,12.9762695 11.5078125,13.3007812 L12.4296875,14.21875 C12.749647,13.9072602 13.0068976,13.5372967 13.1875,13.1289063 Z" id="Shape" fill="#D80027"></path>
                </g>
            </g>
        </g>
    </g>
</svg>