<?xml version="1.0" encoding="UTF-8"?>
<svg width="16px" height="16px" viewBox="0 0 16 16" version="1.1" xmlns="http://www.w3.org/2000/svg" xmlns:xlink="http://www.w3.org/1999/xlink">
    <title>et_or_flag_16px</title>
    <defs>
        <circle id="path-1" cx="8" cy="8" r="8"></circle>
    </defs>
    <g id="Design-System" stroke="none" stroke-width="1" fill="none" fill-rule="evenodd">
        <g id="Flags-16x16" transform="translate(-451.000000, -505.000000)">
            <g id="flag" transform="translate(451.000000, 505.000000)">
                <mask id="mask-2" fill="white">
                    <use xlink:href="#path-1"></use>
                </mask>
                <use id="Mask" fill="#D8D8D8" xlink:href="#path-1"></use>
                <g id="et-or" mask="url(#mask-2)" fill-rule="nonzero">
                    <polygon id="Path" fill="#EEEEEE" points="0 5 8 4 16 5 16 11 8 12 0 11"></polygon>
                    <polygon id="Path" fill="#D80027" points="0 0 16 0 16 5 0 5"></polygon>
                    <polygon id="Path" fill="#333333" points="0 11 16 11 16 16 0 16"></polygon>
                    <path d="M7.28125,9.1875 C7.28125,9.96875 6.46875,10.5 6.46875,10.5 L9.53125,10.5 C9.53125,10.5 8.71875,9.96875 8.71875,9.1875 L7.28125,9.1875 Z" id="Path" fill="#6DA544"></path>
                    <path d="M8,5.5 C7.71875,5.5 7.46875,5.625 7.28125,5.8125 C6.98932297,5.64109255 6.63049583,5.62901774 6.32770626,5.78041253 C6.02491669,5.93180731 5.81928026,6.2261139 5.78125,6.5625 C5.41494752,6.73068074 5.18542215,7.10233428 5.19907756,7.50516898 C5.21273297,7.90800368 5.46689939,8.26326089 5.84375,8.40625 C5.88110251,8.72968092 6.07357072,9.01467957 6.35963387,9.17014867 C6.64569702,9.32561778 6.98953759,9.33209129 7.28125,9.1875 C7.46875,9.375 7.71875,9.5 8,9.5 C8.28125,9.5 8.53125,9.375 8.71875,9.1875 C8.84375,9.28125 9,9.3125 9.15625,9.3125 C9.6875,9.3125 10.125,8.90625 10.15625,8.40625 C10.5331006,8.26326089 10.787267,7.90800368 10.8009224,7.50516898 C10.8145779,7.10233428 10.5850525,6.73068074 10.21875,6.5625 C10.1807197,6.2261139 9.97508331,5.93180731 9.67229374,5.78041253 C9.36950417,5.62901774 9.01067703,5.64109255 8.71875,5.8125 C8.53125,5.625 8.28125,5.5 8,5.5 Z" id="Path" fill="#496E2D"></path>
                </g>
            </g>
        </g>
    </g>
</svg>