<?xml version="1.0" encoding="UTF-8"?>
<svg width="20px" height="20px" viewBox="0 0 20 20" version="1.1" xmlns="http://www.w3.org/2000/svg" xmlns:xlink="http://www.w3.org/1999/xlink">
    <title>et_or_flag_20px</title>
    <defs>
        <circle id="path-1" cx="10" cy="10" r="10"></circle>
    </defs>
    <g id="Design-System" stroke="none" stroke-width="1" fill="none" fill-rule="evenodd">
        <g id="Flags-20x20" transform="translate(-451.000000, -505.000000)">
            <g id="flag" transform="translate(451.000000, 505.000000)">
                <mask id="mask-2" fill="white">
                    <use xlink:href="#path-1"></use>
                </mask>
                <use id="Mask" fill="#D8D8D8" xlink:href="#path-1"></use>
                <g id="et-or" mask="url(#mask-2)" fill-rule="nonzero">
                    <polygon id="Path" fill="#EEEEEE" points="0 6.25 10 5 20 6.25 20 13.75 10 15 0 13.75"></polygon>
                    <polygon id="Path" fill="#D80027" points="0 0 20 0 20 6.25 0 6.25"></polygon>
                    <polygon id="Path" fill="#333333" points="0 13.75 20 13.75 20 20 0 20"></polygon>
                    <path d="M9.1015625,11.484375 C9.1015625,12.4609375 8.0859375,13.125 8.0859375,13.125 L11.9140625,13.125 C11.9140625,13.125 10.8984375,12.4609375 10.8984375,11.484375 L9.1015625,11.484375 Z" id="Path" fill="#6DA544"></path>
                    <path d="M10,6.875 C9.6484375,6.875 9.3359375,7.03125 9.1015625,7.265625 C8.73665371,7.05136568 8.28811979,7.03627218 7.90963283,7.22551566 C7.53114586,7.41475914 7.27410032,7.78264238 7.2265625,8.203125 C6.7686844,8.41335092 6.48177768,8.87791785 6.49884695,9.38146123 C6.51591622,9.8850046 6.83362424,10.3290761 7.3046875,10.5078125 C7.35137814,10.9121011 7.5919634,11.2683495 7.94954234,11.4626858 C8.30712128,11.6570222 8.73692199,11.6651141 9.1015625,11.484375 C9.3359375,11.71875 9.6484375,11.875 10,11.875 C10.3515625,11.875 10.6640625,11.71875 10.8984375,11.484375 C11.0546875,11.6015625 11.25,11.640625 11.4453125,11.640625 C12.109375,11.640625 12.65625,11.1328125 12.6953125,10.5078125 C13.1663758,10.3290761 13.4840838,9.8850046 13.501153,9.38146123 C13.5182223,8.87791785 13.2313156,8.41335092 12.7734375,8.203125 C12.7258997,7.78264238 12.4688541,7.41475914 12.0903672,7.22551566 C11.7118802,7.03627218 11.2633463,7.05136568 10.8984375,7.265625 C10.6640625,7.03125 10.3515625,6.875 10,6.875 Z" id="Path" fill="#496E2D"></path>
                </g>
            </g>
        </g>
    </g>
</svg>