<?xml version="1.0" encoding="UTF-8"?>
<svg width="20px" height="20px" viewBox="0 0 20 20" version="1.1" xmlns="http://www.w3.org/2000/svg" xmlns:xlink="http://www.w3.org/1999/xlink">
    <title>eu_flag_20px</title>
    <defs>
        <circle id="path-1" cx="10" cy="10" r="10"></circle>
    </defs>
    <g id="Design-System" stroke="none" stroke-width="1" fill="none" fill-rule="evenodd">
        <g id="Flags-20x20" transform="translate(-51.000000, -555.000000)">
            <g id="flag" transform="translate(51.000000, 555.000000)">
                <mask id="mask-2" fill="white">
                    <use xlink:href="#path-1"></use>
                </mask>
                <use id="Mask" fill="#D8D8D8" xlink:href="#path-1"></use>
                <g id="european_union" mask="url(#mask-2)" fill-rule="nonzero">
                    <polygon id="Path" fill="#0052B4" points="0 0 20 0 20 20 0 20"></polygon>
                    <path d="M10,3.9140625 L10.3242188,4.91015625 L11.3671875,4.91015625 L10.5195313,5.5234375 L10.84375,6.5234375 L9.99609375,5.90625 L9.1484375,6.5234375 L9.47265625,5.5234375 L8.625,4.91015625 L9.671875,4.91015625 L10,3.9140625 Z M5.6953125,5.6953125 L6.6328125,6.171875 L7.37109375,5.4296875 L7.20703125,6.46484375 L8.140625,6.94140625 L7.10546875,7.10546875 L6.94140625,8.140625 L6.46484375,7.203125 L5.4296875,7.37109375 L6.171875,6.62890625 L5.6953125,5.6953125 Z M3.9140625,10 L4.91015625,9.67578125 L4.91015625,8.6328125 L5.5234375,9.48046875 L6.5234375,9.15625 L5.90625,10.0039062 L6.5234375,10.8515625 L5.5234375,10.5273437 L4.91015625,11.375 L4.91015625,10.328125 L3.9140625,10 Z M5.6953125,14.3046875 L6.171875,13.3671875 L5.4296875,12.6289062 L6.46484375,12.7929688 L6.94140625,11.859375 L7.10546875,12.8945312 L8.140625,13.0585938 L7.203125,13.5351562 L7.37109375,14.5703125 L6.62890625,13.828125 L5.6953125,14.3046875 Z M10,16.0859375 L9.67578125,15.0898438 L8.6328125,15.0898438 L9.48046875,14.4765625 L9.15625,13.4765625 L10.0039062,14.09375 L10.8515625,13.4765625 L10.5273437,14.4765625 L11.375,15.0898438 L10.328125,15.0898438 L10,16.0859375 Z M14.3046875,14.3046875 L13.3671875,13.828125 L12.6289062,14.5703125 L12.7929688,13.5351562 L11.859375,13.0585938 L12.8945312,12.8945312 L13.0585938,11.859375 L13.5351562,12.796875 L14.5703125,12.6289062 L13.828125,13.3710938 L14.3046875,14.3046875 Z M16.0859375,10 L15.0898438,10.3242188 L15.0898438,11.3671875 L14.4765625,10.5195313 L13.4765625,10.84375 L14.09375,9.99609375 L13.4765625,9.1484375 L14.4765625,9.47265625 L15.0898438,8.625 L15.0898438,9.671875 L16.0859375,10 Z M14.3046875,5.6953125 L13.828125,6.6328125 L14.5703125,7.37109375 L13.5351562,7.20703125 L13.0585938,8.140625 L12.8945312,7.10546875 L11.859375,6.94140625 L12.796875,6.46484375 L12.6289062,5.4296875 L13.3710938,6.171875 L14.3046875,5.6953125 Z" id="Shape" fill="#FFDA44"></path>
                </g>
            </g>
        </g>
    </g>
</svg>