<?xml version="1.0" encoding="UTF-8"?>
<svg width="16px" height="16px" viewBox="0 0 16 16" version="1.1" xmlns="http://www.w3.org/2000/svg" xmlns:xlink="http://www.w3.org/1999/xlink">
    <title>eu_flag_16px</title>
    <defs>
        <circle id="path-1" cx="8" cy="8" r="8"></circle>
    </defs>
    <g id="Design-System" stroke="none" stroke-width="1" fill="none" fill-rule="evenodd">
        <g id="Flags-16x16" transform="translate(-51.000000, -555.000000)">
            <g id="flag" transform="translate(51.000000, 555.000000)">
                <mask id="mask-2" fill="white">
                    <use xlink:href="#path-1"></use>
                </mask>
                <use id="Mask" fill="#D8D8D8" xlink:href="#path-1"></use>
                <g id="european_union" mask="url(#mask-2)" fill-rule="nonzero">
                    <polygon id="Path" fill="#0052B4" points="0 0 16 0 16 16 0 16"></polygon>
                    <path d="M8,3.13125 L8.259375,3.928125 L9.09375,3.928125 L8.415625,4.41875 L8.675,5.21875 L7.996875,4.725 L7.31875,5.21875 L7.578125,4.41875 L6.9,3.928125 L7.7375,3.928125 L8,3.13125 Z M4.55625,4.55625 L5.30625,4.9375 L5.896875,4.34375 L5.765625,5.171875 L6.5125,5.553125 L5.684375,5.684375 L5.553125,6.5125 L5.171875,5.7625 L4.34375,5.896875 L4.9375,5.303125 L4.55625,4.55625 Z M3.13125,8 L3.928125,7.740625 L3.928125,6.90625 L4.41875,7.584375 L5.21875,7.325 L4.725,8.003125 L5.21875,8.68125 L4.41875,8.421875 L3.928125,9.1 L3.928125,8.2625 L3.13125,8 Z M4.55625,11.44375 L4.9375,10.69375 L4.34375,10.103125 L5.171875,10.234375 L5.553125,9.4875 L5.684375,10.315625 L6.5125,10.446875 L5.7625,10.828125 L5.896875,11.65625 L5.303125,11.0625 L4.55625,11.44375 Z M8,12.86875 L7.740625,12.071875 L6.90625,12.071875 L7.584375,11.58125 L7.325,10.78125 L8.003125,11.275 L8.68125,10.78125 L8.421875,11.58125 L9.1,12.071875 L8.2625,12.071875 L8,12.86875 Z M11.44375,11.44375 L10.69375,11.0625 L10.103125,11.65625 L10.234375,10.828125 L9.4875,10.446875 L10.315625,10.315625 L10.446875,9.4875 L10.828125,10.2375 L11.65625,10.103125 L11.0625,10.696875 L11.44375,11.44375 Z M12.86875,8 L12.071875,8.259375 L12.071875,9.09375 L11.58125,8.415625 L10.78125,8.675 L11.275,7.996875 L10.78125,7.31875 L11.58125,7.578125 L12.071875,6.9 L12.071875,7.7375 L12.86875,8 Z M11.44375,4.55625 L11.0625,5.30625 L11.65625,5.896875 L10.828125,5.765625 L10.446875,6.5125 L10.315625,5.684375 L9.4875,5.553125 L10.2375,5.171875 L10.103125,4.34375 L10.696875,4.9375 L11.44375,4.55625 Z" id="Shape" fill="#FFDA44"></path>
                </g>
            </g>
        </g>
    </g>
</svg>