<?xml version="1.0" encoding="UTF-8"?>
<svg width="16px" height="16px" viewBox="0 0 16 16" version="1.1" xmlns="http://www.w3.org/2000/svg" xmlns:xlink="http://www.w3.org/1999/xlink">
    <title>ewe_flag_16px</title>
    <defs>
        <circle id="path-1" cx="8" cy="8" r="8"></circle>
    </defs>
    <g id="Design-System" stroke="none" stroke-width="1" fill="none" fill-rule="evenodd">
        <g id="Flags-16x16" transform="translate(-101.000000, -555.000000)">
            <g id="flag" transform="translate(101.000000, 555.000000)">
                <mask id="mask-2" fill="white">
                    <use xlink:href="#path-1"></use>
                </mask>
                <use id="Mask" fill="#D8D8D8" xlink:href="#path-1"></use>
                <g id="ewe" mask="url(#mask-2)" fill-rule="nonzero">
                    <polygon id="Path" fill="#D80027" points="0 5.21875 8 4.21875 16 5.21875 16 10.78125 8 11.78125 0 10.78125"></polygon>
                    <path d="M0,0 L16,0 L16,5.21875 L0,5.21875 L0,0 Z M0,10.78125 L16,10.78125 L16,16 L0,16 L0,10.78125 Z" id="Shape" fill="#6DA544"></path>
                    <path d="M3.4375,6.25 L4.5625,9.75 L1.59375,7.59375 L5.25,7.59375 L2.3125,9.75 L3.4375,6.25 Z M8,6.25 L9.125,9.75 L6.1875,7.59375 L9.84375,7.59375 L6.875,9.75 L8,6.25 Z M12.5625,6.25 L13.6875,9.75 L10.75,7.59375 L14.40625,7.59375 L11.4375,9.75 L12.5625,6.25 Z" id="Shape" fill="#FFDA44"></path>
                </g>
            </g>
        </g>
    </g>
</svg>