<?xml version="1.0" encoding="UTF-8"?>
<svg width="20px" height="20px" viewBox="0 0 20 20" version="1.1" xmlns="http://www.w3.org/2000/svg" xmlns:xlink="http://www.w3.org/1999/xlink">
    <title>ewe_flag_20px</title>
    <defs>
        <circle id="path-1" cx="10" cy="10" r="10"></circle>
    </defs>
    <g id="Design-System" stroke="none" stroke-width="1" fill="none" fill-rule="evenodd">
        <g id="Flags-20x20" transform="translate(-101.000000, -555.000000)">
            <g id="flag" transform="translate(101.000000, 555.000000)">
                <mask id="mask-2" fill="white">
                    <use xlink:href="#path-1"></use>
                </mask>
                <use id="Mask" fill="#D8D8D8" xlink:href="#path-1"></use>
                <g id="ewe" mask="url(#mask-2)" fill-rule="nonzero">
                    <polygon id="Path" fill="#D80027" points="0 6.5234375 10 5.2734375 20 6.5234375 20 13.4765625 10 14.7265625 0 13.4765625"></polygon>
                    <path d="M0,0 L20,0 L20,6.5234375 L0,6.5234375 L0,0 Z M0,13.4765625 L20,13.4765625 L20,20 L0,20 L0,13.4765625 Z" id="Shape" fill="#6DA544"></path>
                    <path d="M4.296875,7.8125 L5.703125,12.1875 L1.9921875,9.4921875 L6.5625,9.4921875 L2.890625,12.1875 L4.296875,7.8125 Z M10,7.8125 L11.40625,12.1875 L7.734375,9.4921875 L12.3046875,9.4921875 L8.59375,12.1875 L10,7.8125 Z M15.703125,7.8125 L17.109375,12.1875 L13.4375,9.4921875 L18.0078125,9.4921875 L14.296875,12.1875 L15.703125,7.8125 Z" id="Shape" fill="#FFDA44"></path>
                </g>
            </g>
        </g>
    </g>
</svg>