<?xml version="1.0" encoding="UTF-8"?>
<svg width="20px" height="20px" viewBox="0 0 20 20" version="1.1" xmlns="http://www.w3.org/2000/svg" xmlns:xlink="http://www.w3.org/1999/xlink">
    <title>fj_flag_20px</title>
    <defs>
        <circle id="path-1" cx="10" cy="10" r="10"></circle>
    </defs>
    <g id="Design-System" stroke="none" stroke-width="1" fill="none" fill-rule="evenodd">
        <g id="Flags-20x20" transform="translate(-201.000000, -555.000000)">
            <g id="flag" transform="translate(201.000000, 555.000000)">
                <mask id="mask-2" fill="white">
                    <use xlink:href="#path-1"></use>
                </mask>
                <use id="Mask" fill="#D8D8D8" xlink:href="#path-1"></use>
                <g id="fj" mask="url(#mask-2)" fill-rule="nonzero">
                    <polygon id="Path" fill="#338AF3" points="10 0 20 0 20 20 0 20 0 10"></polygon>
                    <polygon id="Path" fill="#EEEEEE" points="0 0 0 1.25 1.25 2.5 0 3.75 0 10 1.25 10 2.5 8.75 3.75 10 5 10 6.640625 9.375 8.2421875 10 10 10 9.6875 9.375 10 8.7890625 10 8.2421875 9.375 6.6015625 10 5 10 3.75 8.75 2.5 10 1.25 10 0 3.75 0 2.5 1.25 1.25 0"></polygon>
                    <path d="M5,10 L5,6.7578125 L8.2421875,10 L5,10 Z M10,8.2421875 L6.7578125,5 L10,5 L10,8.2421875 Z" id="Shape" fill="#0052B4"></path>
                    <path d="M14.3476562,5.65234375 L11.3007812,6.5234375 L11.3046875,6.5234375 L11.3046875,9.12890625 L11.6640625,9.55859375 L11.3046875,10 C11.3046875,11.7773438 13.0742188,12.6171875 13.9140625,12.9140625 L14.3632812,12.5703125 L14.78125,12.9140625 C15.6210938,12.6132812 17.390625,11.7773438 17.390625,10 L17.078125,9.5703125 L17.390625,9.12890625 L17.390625,6.5234375 L14.3476562,5.65234375 Z" id="Path" fill="#EEEEEE"></path>
                    <path d="M1.25,0 L1.25,1.25 L0,1.25 L0,3.75 L1.25,3.75 L1.25,10 L3.75,10 L3.75,3.75 L10,3.75 L10,1.25 L3.75,1.25 L3.75,0 L1.25,0 Z M5,5 L10,10 L10,8.7890625 L6.2109375,5 L5,5 Z M17.390625,6.5234375 L17.390625,5.21875 L11.3046875,5.21875 L11.3046875,6.5234375 L13.9140625,6.5234375 L13.9140625,9.12890625 L11.3046875,9.12890625 L11.3046875,10 L13.9140625,10 L13.9140625,12.9140625 C14.0561782,12.9658662 14.2009073,13.0101976 14.3476562,13.046875 C14.3476562,13.046875 14.5195312,13.0078125 14.78125,12.9140625 L14.78125,10 L17.390625,10 L17.390625,9.12890625 L14.78125,9.12890625 L14.78125,6.5234375 L17.390625,6.5234375 Z" id="Shape" fill="#D80027"></path>
                </g>
            </g>
        </g>
    </g>
</svg>