<?xml version="1.0" encoding="UTF-8"?>
<svg width="16px" height="16px" viewBox="0 0 16 16" version="1.1" xmlns="http://www.w3.org/2000/svg" xmlns:xlink="http://www.w3.org/1999/xlink">
    <title>fj_flag_16px</title>
    <defs>
        <circle id="path-1" cx="8" cy="8" r="8"></circle>
    </defs>
    <g id="Design-System" stroke="none" stroke-width="1" fill="none" fill-rule="evenodd">
        <g id="Flags-16x16" transform="translate(-201.000000, -555.000000)">
            <g id="flag" transform="translate(201.000000, 555.000000)">
                <mask id="mask-2" fill="white">
                    <use xlink:href="#path-1"></use>
                </mask>
                <use id="Mask" fill="#D8D8D8" xlink:href="#path-1"></use>
                <g id="fj" mask="url(#mask-2)" fill-rule="nonzero">
                    <polygon id="Path" fill="#338AF3" points="8 0 16 0 16 16 0 16 0 8"></polygon>
                    <polygon id="Path" fill="#EEEEEE" points="0 0 0 1 1 2 0 3 0 8 1 8 2 7 3 8 4 8 5.3125 7.5 6.59375 8 8 8 7.75 7.5 8 7.03125 8 6.59375 7.5 5.28125 8 4 8 3 7 2 8 1 8 0 3 0 2 1 1 0"></polygon>
                    <path d="M4,8 L4,5.40625 L6.59375,8 L4,8 Z M8,6.59375 L5.40625,4 L8,4 L8,6.59375 Z" id="Shape" fill="#0052B4"></path>
                    <path d="M11.478125,4.521875 L9.040625,5.21875 L9.04375,5.21875 L9.04375,7.303125 L9.33125,7.646875 L9.04375,8 C9.04375,9.421875 10.459375,10.09375 11.13125,10.33125 L11.490625,10.05625 L11.825,10.33125 C12.496875,10.090625 13.9125,9.421875 13.9125,8 L13.6625,7.65625 L13.9125,7.303125 L13.9125,5.21875 L11.478125,4.521875 Z" id="Path" fill="#EEEEEE"></path>
                    <path d="M1,0 L1,1 L0,1 L0,3 L1,3 L1,8 L3,8 L3,3 L8,3 L8,1 L3,1 L3,0 L1,0 Z M4,4 L8,8 L8,7.03125 L4.96875,4 L4,4 Z M13.9125,5.21875 L13.9125,4.175 L9.04375,4.175 L9.04375,5.21875 L11.13125,5.21875 L11.13125,7.303125 L9.04375,7.303125 L9.04375,8 L11.13125,8 L11.13125,10.33125 C11.2449425,10.3726929 11.3607258,10.4081581 11.478125,10.4375 C11.478125,10.4375 11.615625,10.40625 11.825,10.33125 L11.825,8 L13.9125,8 L13.9125,7.303125 L11.825,7.303125 L11.825,5.21875 L13.9125,5.21875 Z" id="Shape" fill="#D80027"></path>
                </g>
            </g>
        </g>
    </g>
</svg>