<svg width="20" height="20" viewBox="0 0 20 20" xmlns="http://www.w3.org/2000/svg" xmlns:xlink="http://www.w3.org/1999/xlink">
    <defs>
        <circle id="xowgo3bgga" cx="10" cy="10" r="10"/>
    </defs>
    <g fill="none" fill-rule="evenodd">
        <mask id="jnpheyay4b" fill="#fff">
            <use xlink:href="#xowgo3bgga"/>
        </mask>
        <use fill="#FFE640" xlink:href="#xowgo3bgga"/>
        <path d="M12.733 0h3.334c.515 0 .933.426.933.952v18.096a.943.943 0 0 1-.933.952h-3.334c0-1.578-1.254-2.857-2.8-2.857-1.548 0-2.801 1.279-2.801 2.857H3.933A.943.943 0 0 1 3 19.048v-.003l.023-9.093L3 .955A.943.943 0 0 1 3.931 0h3.201c0 1.578 1.253 2.857 2.8 2.857s2.8-1.279 2.8-2.857zM3.926 6.667H5.33a.472.472 0 0 0 .467-.477.472.472 0 0 0-.467-.476H3.926a.472.472 0 0 0-.467.476c0 .263.21.477.467.477zm12.14-.953h-1.4a.472.472 0 0 0-.466.476c0 .263.208.477.466.477h1.4a.472.472 0 0 0 .467-.477.472.472 0 0 0-.466-.476zm-8.868.953h1.867a.472.472 0 0 0 .467-.477.472.472 0 0 0-.467-.476H7.198a.472.472 0 0 0-.466.476c0 .263.209.477.466.477zm3.734 0H12.8a.472.472 0 0 0 .467-.477.472.472 0 0 0-.467-.476h-1.867a.472.472 0 0 0-.466.476c0 .263.209.477.466.477z" fill="#000" fill-rule="nonzero" mask="url(#jnpheyay4b)" transform="rotate(-45 10 10)"/>
    </g>
</svg>
