<?xml version="1.0" encoding="UTF-8"?>
<svg width="16px" height="16px" viewBox="0 0 16 16" version="1.1" xmlns="http://www.w3.org/2000/svg" xmlns:xlink="http://www.w3.org/1999/xlink">
    <title>fm_flag_16px</title>
    <defs>
        <circle id="path-1" cx="8" cy="8" r="8"></circle>
    </defs>
    <g id="Design-System" stroke="none" stroke-width="1" fill="none" fill-rule="evenodd">
        <g id="Flags-16x16" transform="translate(-301.000000, -555.000000)">
            <g id="flag" transform="translate(301.000000, 555.000000)">
                <mask id="mask-2" fill="white">
                    <use xlink:href="#path-1"></use>
                </mask>
                <use id="Mask" fill="#D8D8D8" xlink:href="#path-1"></use>
                <g id="fm" mask="url(#mask-2)" fill-rule="nonzero">
                    <polygon id="Path" fill="#338AF3" points="0 0 16 0 16 16 0 16"></polygon>
                    <path d="M8,3.478125 L8.34375,4.540625 L9.4625,4.540625 L8.55625,5.196875 L8.903125,6.259375 L8,5.603125 L7.09375,6.259375 L7.440625,5.196875 L6.534375,4.540625 L7.65625,4.540625 L8,3.478125 Z M3.478125,8 L4.540625,7.65625 L4.540625,6.5375 L5.196875,7.44375 L6.259375,7.096875 L5.603125,8 L6.259375,8.90625 L5.196875,8.559375 L4.540625,9.465625 L4.540625,8.34375 L3.478125,8 Z M8,12.521875 L7.65625,11.459375 L6.5375,11.459375 L7.44375,10.803125 L7.096875,9.740625 L8,10.396875 L8.90625,9.740625 L8.559375,10.803125 L9.465625,11.459375 L8.34375,11.459375 L8,12.521875 Z M12.521875,8 L11.459375,8.34375 L11.459375,9.4625 L10.803125,8.55625 L9.740625,8.903125 L10.396875,8 L9.740625,7.09375 L10.803125,7.440625 L11.459375,6.534375 L11.459375,7.65625 L12.521875,8 Z" id="Shape" fill="#EEEEEE"></path>
                </g>
            </g>
        </g>
    </g>
</svg>