<?xml version="1.0" encoding="UTF-8"?>
<svg width="20px" height="20px" viewBox="0 0 20 20" version="1.1" xmlns="http://www.w3.org/2000/svg" xmlns:xlink="http://www.w3.org/1999/xlink">
    <title>fm_flag_20px</title>
    <defs>
        <circle id="path-1" cx="10" cy="10" r="10"></circle>
    </defs>
    <g id="Design-System" stroke="none" stroke-width="1" fill="none" fill-rule="evenodd">
        <g id="Flags-20x20" transform="translate(-301.000000, -555.000000)">
            <g id="flag" transform="translate(301.000000, 555.000000)">
                <mask id="mask-2" fill="white">
                    <use xlink:href="#path-1"></use>
                </mask>
                <use id="Mask" fill="#D8D8D8" xlink:href="#path-1"></use>
                <g id="fm" mask="url(#mask-2)" fill-rule="nonzero">
                    <polygon id="Path" fill="#338AF3" points="0 0 20 0 20 20 0 20"></polygon>
                    <path d="M10,4.34765625 L10.4296875,5.67578125 L11.828125,5.67578125 L10.6953125,6.49609375 L11.1289063,7.82421875 L10,7.00390625 L8.8671875,7.82421875 L9.30078125,6.49609375 L8.16796875,5.67578125 L9.5703125,5.67578125 L10,4.34765625 Z M4.34765625,10 L5.67578125,9.5703125 L5.67578125,8.171875 L6.49609375,9.3046875 L7.82421875,8.87109375 L7.00390625,10 L7.82421875,11.1328125 L6.49609375,10.6992188 L5.67578125,11.8320312 L5.67578125,10.4296875 L4.34765625,10 Z M10,15.6523438 L9.5703125,14.3242188 L8.171875,14.3242188 L9.3046875,13.5039062 L8.87109375,12.1757812 L10,12.9960938 L11.1328125,12.1757812 L10.6992188,13.5039062 L11.8320312,14.3242188 L10.4296875,14.3242188 L10,15.6523438 Z M15.6523438,10 L14.3242188,10.4296875 L14.3242188,11.828125 L13.5039062,10.6953125 L12.1757812,11.1289063 L12.9960938,10 L12.1757812,8.8671875 L13.5039062,9.30078125 L14.3242188,8.16796875 L14.3242188,9.5703125 L15.6523438,10 Z" id="Shape" fill="#EEEEEE"></path>
                </g>
            </g>
        </g>
    </g>
</svg>