<?xml version="1.0" encoding="UTF-8"?>
<svg width="16px" height="16px" viewBox="0 0 16 16" version="1.1" xmlns="http://www.w3.org/2000/svg" xmlns:xlink="http://www.w3.org/1999/xlink">
    <title>fr_20r_flag_16px</title>
    <defs>
        <circle id="path-1" cx="8" cy="8" r="8"></circle>
    </defs>
    <g id="Design-System" stroke="none" stroke-width="1" fill="none" fill-rule="evenodd">
        <g id="Flags-16x16" transform="translate(-451.000000, -555.000000)">
            <g id="flag" transform="translate(451.000000, 555.000000)">
                <mask id="mask-2" fill="white">
                    <use xlink:href="#path-1"></use>
                </mask>
                <use id="Mask" fill="#D8D8D8" xlink:href="#path-1"></use>
                <g id="fr-20r" mask="url(#mask-2)" fill-rule="nonzero">
                    <polygon id="Path" fill="#EEEEEE" points="0 0 16 0 16 16 0 16"></polygon>
                    <path d="M10.784375,6.775 C10.7859005,5.32736272 9.77357064,4.07638518 8.35745095,3.7759504 C6.94133127,3.47551563 5.50826781,4.20769438 4.921875,5.53125 L4.546875,6.9 L4.890625,7.25 L4.196875,8.640625 L4.89375,8.9875 L4.54375,9.334375 L4.54375,9.6875 L4.89375,10.034375 L4.89375,10.73125 L5.240625,11.075 L6.284375,10.73125 C6.284375,10.73125 6.284375,11.075 6.63125,11.425 C6.978125,11.775 7.328125,12.46875 7.328125,12.46875 C7.328125,12.46875 8.371875,12.815625 9.065625,11.775 C9.7625,10.73125 10.459375,10.38125 10.459375,10.38125 L9.7875,9.040625 C10.4241319,8.46061524 10.7871213,7.63935165 10.7875,6.778125 L10.784375,6.775 Z" id="Path" fill="#333333"></path>
                    <path d="M11.034375,7.946875 C12.45,7.709375 12.684375,4.940625 12.684375,4.940625 L10.7375,4.940625 C11.74375,7.378125 10.690625,7.540625 10.690625,7.540625 C8.89261239,6.65461869 7.0841518,5.78997451 5.265625,4.946875 C5.225,5 5.08125,5.134375 4.90625,5.565625 C4.73125,5.99375 4.6875,6.378125 4.6875,6.378125 C6.56574491,7.06069781 8.4534289,7.71701178 10.35,8.346875 C10.6375,8.53125 10.9875,9.0875 10.790625,10.740625 L12.665625,10.2125 C12.665625,10.2125 12.028125,8.521875 11.034375,7.946875 L11.034375,7.946875 Z" id="Path" fill="#ACABB1"></path>
                </g>
            </g>
        </g>
    </g>
</svg>