<?xml version="1.0" encoding="UTF-8"?>
<svg width="20px" height="20px" viewBox="0 0 20 20" version="1.1" xmlns="http://www.w3.org/2000/svg" xmlns:xlink="http://www.w3.org/1999/xlink">
    <title>fr_20r_flag_20px</title>
    <defs>
        <circle id="path-1" cx="10" cy="10" r="10"></circle>
    </defs>
    <g id="Design-System" stroke="none" stroke-width="1" fill="none" fill-rule="evenodd">
        <g id="Flags-20x20" transform="translate(-451.000000, -555.000000)">
            <g id="flag" transform="translate(451.000000, 555.000000)">
                <mask id="mask-2" fill="white">
                    <use xlink:href="#path-1"></use>
                </mask>
                <use id="Mask" fill="#D8D8D8" xlink:href="#path-1"></use>
                <g id="fr-20r" mask="url(#mask-2)" fill-rule="nonzero">
                    <polygon id="Path" fill="#EEEEEE" points="0 0 20 0 20 20 0 20"></polygon>
                    <path d="M13.4804688,8.46875 C13.4823756,6.6592034 12.2169633,5.09548147 10.4468137,4.719938 C8.67666409,4.34439454 6.88533477,5.25961797 6.15234375,6.9140625 L5.68359375,8.625 L6.11328125,9.0625 L5.24609375,10.8007813 L6.1171875,11.234375 L5.6796875,11.6679688 L5.6796875,12.109375 L6.1171875,12.5429688 L6.1171875,13.4140625 L6.55078125,13.84375 L7.85546875,13.4140625 C7.85546875,13.4140625 7.85546875,13.84375 8.2890625,14.28125 C8.72265625,14.71875 9.16015625,15.5859375 9.16015625,15.5859375 C9.16015625,15.5859375 10.4648438,16.0195313 11.3320313,14.71875 C12.203125,13.4140625 13.0742188,12.9765625 13.0742188,12.9765625 L12.234375,11.3007813 C13.0301649,10.5757691 13.4839017,9.54918956 13.484375,8.47265625 L13.4804688,8.46875 Z" id="Path" fill="#333333"></path>
                    <path d="M13.7929688,9.93359375 C15.5625,9.63671875 15.8554688,6.17578125 15.8554688,6.17578125 L13.421875,6.17578125 C14.6796875,9.22265625 13.3632812,9.42578125 13.3632812,9.42578125 C11.1157655,8.31827336 8.85518975,7.23746814 6.58203125,6.18359375 C6.53125,6.25 6.3515625,6.41796875 6.1328125,6.95703125 C5.9140625,7.4921875 5.859375,7.97265625 5.859375,7.97265625 C8.20718114,8.82587227 10.5667861,9.64626473 12.9375,10.4335938 C13.296875,10.6640625 13.734375,11.359375 13.4882812,13.4257813 L15.8320312,12.765625 C15.8320312,12.765625 15.0351562,10.6523438 13.7929687,9.93359375 L13.7929688,9.93359375 Z" id="Path" fill="#ACABB1"></path>
                </g>
            </g>
        </g>
    </g>
</svg>