<?xml version="1.0" encoding="UTF-8"?>
<svg width="16px" height="16px" viewBox="0 0 16 16" version="1.1" xmlns="http://www.w3.org/2000/svg" xmlns:xlink="http://www.w3.org/1999/xlink">
    <title>fr_bre_flag_16px</title>
    <defs>
        <circle id="path-1" cx="8" cy="8" r="8"></circle>
    </defs>
    <g id="Design-System" stroke="none" stroke-width="1" fill="none" fill-rule="evenodd">
        <g id="Flags-16x16" transform="translate(-501.000000, -555.000000)">
            <g id="flag" transform="translate(501.000000, 555.000000)">
                <mask id="mask-2" fill="white">
                    <use xlink:href="#path-1"></use>
                </mask>
                <use id="Mask" fill="#D8D8D8" xlink:href="#path-1"></use>
                <g id="fr-bre" mask="url(#mask-2)" fill-rule="nonzero">
                    <polygon id="Path" fill="#EEEEEE" points="0 0 8 0 16 1.78125 16 3.5625 15 4.4375 16 5.34375 16 7.125 15 8 16 8.90625 16 10.65625 15 11.5625 16 12.4375 16 14.21875 8 15.125 0 14.21875 0 12.4375 1 11.5625 0 10.65625 0 8.90625 1 8 0 7.125"></polygon>
                    <path d="M8,0 L16,0 L16,1.78125 L8,1.78125 L8,0 Z M8,3.5625 L16,3.5625 L16,5.34375 L8,5.34375 L8,3.5625 Z M0,7.125 L16,7.125 L16,8.90625 L0,8.90625 L0,7.125 Z M0,10.65625 L16,10.65625 L16,12.4375 L0,12.4375 L0,10.65625 Z M0,14.21875 L16,14.21875 L16,16 L0,16 L0,14.21875 Z M0.5,2.25 L1.09375,2.6875 L1.6875,2.25 L1.09375,1 L0.5,2.25 Z" id="Shape" fill="#333333"></path>
                    <circle id="Oval" fill="#333333" cx="1.459375" cy="1.0125" r="1"></circle>
                    <circle id="Oval" fill="#333333" cx="0.709375" cy="1.0125" r="1"></circle>
                    <circle id="Oval" fill="#333333" cx="1.084375" cy="0.6375" r="1"></circle>
                    <polygon id="Path" fill="#333333" points="3.40625 2.25 4 2.6875 4.59375 2.25 4 1"></polygon>
                    <circle id="Oval" fill="#333333" cx="4.3875" cy="1.0125" r="1"></circle>
                    <circle id="Oval" fill="#333333" cx="3.6375" cy="1.0125" r="1"></circle>
                    <circle id="Oval" fill="#333333" cx="4.0125" cy="0.6375" r="1"></circle>
                    <polygon id="Path" fill="#333333" points="6.34375 2.25 6.9375 2.6875 7.53125 2.25 6.9375 1"></polygon>
                    <circle id="Oval" fill="#333333" cx="7.315625" cy="1.0125" r="1"></circle>
                    <circle id="Oval" fill="#333333" cx="6.565625" cy="1.0125" r="1"></circle>
                    <circle id="Oval" fill="#333333" cx="6.940625" cy="0.6375" r="1"></circle>
                    <polygon id="Path" fill="#333333" points="4.875 4.3125 5.46875 4.75 6.0625 4.3125 5.46875 3.0625"></polygon>
                    <circle id="Oval" fill="#333333" cx="5.85" cy="3.06875" r="1"></circle>
                    <circle id="Oval" fill="#333333" cx="5.1" cy="3.06875" r="1"></circle>
                    <circle id="Oval" fill="#333333" cx="5.475" cy="2.69375" r="1"></circle>
                    <polygon id="Path" fill="#333333" points="1.96875 4.3125 2.5625 4.75 3.125 4.3125 2.5625 3.0625"></polygon>
                    <circle id="Oval" fill="#333333" cx="2.921875" cy="3.06875" r="1"></circle>
                    <circle id="Oval" fill="#333333" cx="2.171875" cy="3.06875" r="1"></circle>
                    <circle id="Oval" fill="#333333" cx="2.546875" cy="2.69375" r="1"></circle>
                    <polygon id="Path" fill="#333333" points="0.5 6.375 1.09375 6.8125 1.6875 6.375 1.09375 5.125"></polygon>
                    <circle id="Oval" fill="#333333" cx="1.459375" cy="5.125" r="1"></circle>
                    <circle id="Oval" fill="#333333" cx="0.709375" cy="5.125" r="1"></circle>
                    <circle id="Oval" fill="#333333" cx="1.084375" cy="4.75" r="1"></circle>
                    <polygon id="Path" fill="#333333" points="3.40625 6.375 4 6.8125 4.59375 6.375 4 5.125"></polygon>
                    <circle id="Oval" fill="#333333" cx="4.3875" cy="5.125" r="1"></circle>
                    <circle id="Oval" fill="#333333" cx="3.6375" cy="5.125" r="1"></circle>
                    <circle id="Oval" fill="#333333" cx="4.0125" cy="4.75" r="1"></circle>
                    <polygon id="Path" fill="#333333" points="6.34375 6.375 6.9375 6.8125 7.53125 6.375 6.9375 5.125"></polygon>
                    <circle id="Oval" fill="#333333" cx="7.315625" cy="5.125" r="1"></circle>
                    <circle id="Oval" fill="#333333" cx="6.565625" cy="5.125" r="1"></circle>
                    <circle id="Oval" fill="#333333" cx="6.940625" cy="4.75" r="1"></circle>
                </g>
            </g>
        </g>
    </g>
</svg>