<?xml version="1.0" encoding="UTF-8"?>
<svg width="20px" height="20px" viewBox="0 0 20 20" version="1.1" xmlns="http://www.w3.org/2000/svg" xmlns:xlink="http://www.w3.org/1999/xlink">
    <title>fr_bre_flag_20px</title>
    <defs>
        <circle id="path-1" cx="10" cy="10" r="10"></circle>
    </defs>
    <g id="Design-System" stroke="none" stroke-width="1" fill="none" fill-rule="evenodd">
        <g id="Flags-20x20" transform="translate(-501.000000, -555.000000)">
            <g id="flag" transform="translate(501.000000, 555.000000)">
                <mask id="mask-2" fill="white">
                    <use xlink:href="#path-1"></use>
                </mask>
                <use id="Mask" fill="#D8D8D8" xlink:href="#path-1"></use>
                <g id="fr-bre" mask="url(#mask-2)" fill-rule="nonzero">
                    <polygon id="Path" fill="#EEEEEE" points="0 0 10 0 20 2.2265625 20 4.453125 18.75 5.546875 20 6.6796875 20 8.90625 18.75 10 20 11.1328125 20 13.3203125 18.75 14.453125 20 15.546875 20 17.7734375 10 18.90625 0 17.7734375 0 15.546875 1.25 14.453125 0 13.3203125 0 11.1328125 1.25 10 0 8.90625"></polygon>
                    <path d="M10,0 L20,0 L20,2.2265625 L10,2.2265625 L10,0 Z M10,4.453125 L20,4.453125 L20,6.6796875 L10,6.6796875 L10,4.453125 Z M0,8.90625 L20,8.90625 L20,11.1328125 L0,11.1328125 L0,8.90625 Z M0,13.3203125 L20,13.3203125 L20,15.546875 L0,15.546875 L0,13.3203125 Z M0,17.7734375 L20,17.7734375 L20,20 L0,20 L0,17.7734375 Z M0.625,2.8125 L1.3671875,3.359375 L2.109375,2.8125 L1.3671875,1.25 L0.625,2.8125 Z" id="Shape" fill="#333333"></path>
                    <circle id="Oval" fill="#333333" cx="1.82421875" cy="1.265625" r="1"></circle>
                    <circle id="Oval" fill="#333333" cx="0.88671875" cy="1.265625" r="1"></circle>
                    <circle id="Oval" fill="#333333" cx="1.35546875" cy="0.796875" r="1"></circle>
                    <polygon id="Path" fill="#333333" points="4.2578125 2.8125 5 3.359375 5.7421875 2.8125 5 1.25"></polygon>
                    <circle id="Oval" fill="#333333" cx="5.484375" cy="1.265625" r="1"></circle>
                    <circle id="Oval" fill="#333333" cx="4.546875" cy="1.265625" r="1"></circle>
                    <circle id="Oval" fill="#333333" cx="5.015625" cy="0.796875" r="1"></circle>
                    <polygon id="Path" fill="#333333" points="7.9296875 2.8125 8.671875 3.359375 9.4140625 2.8125 8.671875 1.25"></polygon>
                    <circle id="Oval" fill="#333333" cx="9.14453125" cy="1.265625" r="1"></circle>
                    <circle id="Oval" fill="#333333" cx="8.20703125" cy="1.265625" r="1"></circle>
                    <circle id="Oval" fill="#333333" cx="8.67578125" cy="0.796875" r="1"></circle>
                    <polygon id="Path" fill="#333333" points="6.09375 5.390625 6.8359375 5.9375 7.578125 5.390625 6.8359375 3.828125"></polygon>
                    <circle id="Oval" fill="#333333" cx="7.3125" cy="3.8359375" r="1"></circle>
                    <circle id="Oval" fill="#333333" cx="6.375" cy="3.8359375" r="1"></circle>
                    <circle id="Oval" fill="#333333" cx="6.84375" cy="3.3671875" r="1"></circle>
                    <polygon id="Path" fill="#333333" points="2.4609375 5.390625 3.203125 5.9375 3.90625 5.390625 3.203125 3.828125"></polygon>
                    <circle id="Oval" fill="#333333" cx="3.65234375" cy="3.8359375" r="1"></circle>
                    <circle id="Oval" fill="#333333" cx="2.71484375" cy="3.8359375" r="1"></circle>
                    <circle id="Oval" fill="#333333" cx="3.18359375" cy="3.3671875" r="1"></circle>
                    <polygon id="Path" fill="#333333" points="0.625 7.96875 1.3671875 8.515625 2.109375 7.96875 1.3671875 6.40625"></polygon>
                    <circle id="Oval" fill="#333333" cx="1.82421875" cy="6.40625" r="1"></circle>
                    <circle id="Oval" fill="#333333" cx="0.88671875" cy="6.40625" r="1"></circle>
                    <circle id="Oval" fill="#333333" cx="1.35546875" cy="5.9375" r="1"></circle>
                    <polygon id="Path" fill="#333333" points="4.2578125 7.96875 5 8.515625 5.7421875 7.96875 5 6.40625"></polygon>
                    <circle id="Oval" fill="#333333" cx="5.484375" cy="6.40625" r="1"></circle>
                    <circle id="Oval" fill="#333333" cx="4.546875" cy="6.40625" r="1"></circle>
                    <circle id="Oval" fill="#333333" cx="5.015625" cy="5.9375" r="1"></circle>
                    <polygon id="Path" fill="#333333" points="7.9296875 7.96875 8.671875 8.515625 9.4140625 7.96875 8.671875 6.40625"></polygon>
                    <circle id="Oval" fill="#333333" cx="9.14453125" cy="6.40625" r="1"></circle>
                    <circle id="Oval" fill="#333333" cx="8.20703125" cy="6.40625" r="1"></circle>
                    <circle id="Oval" fill="#333333" cx="8.67578125" cy="5.9375" r="1"></circle>
                </g>
            </g>
        </g>
    </g>
</svg>