<?xml version="1.0" encoding="UTF-8"?>
<svg width="20px" height="20px" viewBox="0 0 20 20" version="1.1" xmlns="http://www.w3.org/2000/svg" xmlns:xlink="http://www.w3.org/1999/xlink">
    <title>fr_cp_flag_20px</title>
    <defs>
        <circle id="path-1" cx="10" cy="10" r="10"></circle>
    </defs>
    <g id="Design-System" stroke="none" stroke-width="1" fill="none" fill-rule="evenodd">
        <g id="Flags-20x20" transform="translate(-51.000000, -605.000000)">
            <g id="flag" transform="translate(51.000000, 605.000000)">
                <mask id="mask-2" fill="white">
                    <use xlink:href="#path-1"></use>
                </mask>
                <use id="Mask" fill="#D8D8D8" xlink:href="#path-1"></use>
                <g id="fr-cp" mask="url(#mask-2)" fill-rule="nonzero">
                    <polygon id="Path" fill="#0052B4" points="0 0 20 0 20 20 0 20"></polygon>
                    <polygon id="Path" fill="#FFFFFF" points="10 2.03125 17.96875 10 10 17.96875 2.03125 10"></polygon>
                    <polygon id="Path" fill="#FF9811" points="9.0625 18.0859375 9.53125 6.40625 10.46875 6.40625 10.9375 18.0859375"></polygon>
                    <path d="M11.4453125,6.71875 C12.65625,6.171875 13.0859375,5.8203125 14.9609375,5.859375 C13.3984375,5.15625 11.953125,4.9609375 10.7421875,5.859375 C11.09375,4.9609375 11.796875,3.75 13.046875,2.8515625 C10.8984375,3.203125 9.84375,4.2578125 9.6875,5.5078125 C9.140625,4.2578125 7.5390625,3.75 5.78125,3.75 C7.734375,4.8046875 7.1875,4.8046875 8.6328125,6.2109375 C7.3828125,6.015625 5.9765625,6.5625 4.5703125,8.1640625 C6.484375,7.109375 7.3828125,7.4609375 8.6328125,7.6171875 C7.50143184,8.33942572 6.88003081,9.64285226 7.03125,10.9765625 C8.4375,9.21875 8.2421875,9.7265625 10.0390625,8.1640625 C10.7421875,9.7265625 11.6015625,10.078125 11.953125,11.5234375 C12.3046875,10.078125 11.953125,8.515625 11.25,7.96875 C12.65625,8.515625 13.90625,8.8671875 14.609375,9.921875 C14.2578125,7.4609375 12.65625,7.109375 11.4453125,6.71875 Z" id="Path" fill="#6DA544"></path>
                </g>
            </g>
        </g>
    </g>
</svg>