<?xml version="1.0" encoding="UTF-8"?>
<svg width="20px" height="20px" viewBox="0 0 20 20" version="1.1" xmlns="http://www.w3.org/2000/svg" xmlns:xlink="http://www.w3.org/1999/xlink">
    <title>gb_eng_flag_20px</title>
    <defs>
        <circle id="path-1" cx="10" cy="10" r="10"></circle>
    </defs>
    <g id="Design-System" stroke="none" stroke-width="1" fill="none" fill-rule="evenodd">
        <g id="Flags-20x20" transform="translate(-251.000000, -605.000000)">
            <g id="flag" transform="translate(251.000000, 605.000000)">
                <mask id="mask-2" fill="white">
                    <use xlink:href="#path-1"></use>
                </mask>
                <use id="Mask" fill="#D8D8D8" xlink:href="#path-1"></use>
                <g id="gb-eng" mask="url(#mask-2)" fill-rule="nonzero">
                    <polygon id="Path" fill="#EEEEEE" points="0 0 8.125 0 10 1.25 11.875 0 20 0 20 8.125 18.75 10 20 11.875 20 20 11.875 20 10 18.75 8.125 20 0 20 0 11.875 1.25 10 0 8.125"></polygon>
                    <polygon id="Path" fill="#D80027" points="8.125 0 8.125 8.125 0 8.125 0 11.875 8.125 11.875 8.125 20 11.875 20 11.875 11.875 20 11.875 20 8.125 11.875 8.125 11.875 0"></polygon>
                </g>
            </g>
        </g>
    </g>
</svg>