<?xml version="1.0" encoding="UTF-8"?>
<svg width="20px" height="20px" viewBox="0 0 20 20" version="1.1" xmlns="http://www.w3.org/2000/svg" xmlns:xlink="http://www.w3.org/1999/xlink">
    <title>gb_flag_20px</title>
    <defs>
        <circle id="path-1" cx="10" cy="10" r="10"></circle>
    </defs>
    <g id="Design-System" stroke="none" stroke-width="1" fill="none" fill-rule="evenodd">
        <g id="Flags-20x20" transform="translate(-151.000000, -605.000000)">
            <g id="flag" transform="translate(151.000000, 605.000000)">
                <mask id="mask-2" fill="white">
                    <use xlink:href="#path-1"></use>
                </mask>
                <use id="Mask" fill="#D8D8D8" xlink:href="#path-1"></use>
                <g id="gb" mask="url(#mask-2)" fill-rule="nonzero">
                    <polygon id="Path" fill="#EEEEEE" points="0 0 0.3125 0.859375 0 1.7578125 0 2.65625 1.25 4.765625 0 6.875 0 8.125 1.25 10 0 11.875 0 13.125 1.25 15.234375 0 17.34375 0 20 0.859375 19.6875 1.7578125 20 2.65625 20 4.765625 18.75 6.875 20 8.125 20 10 18.75 11.875 20 13.125 20 15.234375 18.75 17.34375 20 20 20 19.6875 19.140625 20 18.2421875 20 17.34375 18.75 15.234375 20 13.125 20 11.875 18.75 10 20 8.125 20 6.875 18.75 4.765625 20 2.65625 20 0 19.140625 0.3125 18.2421875 0 17.34375 0 15.234375 1.25 13.125 0 11.875 0 10 1.25 8.125 0 6.875 0 4.765625 1.25 2.65625 0"></polygon>
                    <path d="M13.125,0 L13.125,4.21875 L17.34375,0 L13.125,0 Z M20,2.65625 L15.78125,6.875 L20,6.875 L20,2.65625 Z M0,6.875 L4.21875,6.875 L0,2.65625 L0,6.875 Z M2.65625,0 L6.875,4.21875 L6.875,0 L2.65625,0 Z M6.875,20 L6.875,15.78125 L2.65625,20 L6.875,20 Z M0,17.34375 L4.21875,13.125 L0,13.125 L0,17.34375 Z M20,13.125 L15.78125,13.125 L20,17.34375 L20,13.125 Z M17.34375,20 L13.125,15.78125 L13.125,20 L17.34375,20 Z" id="Shape" fill="#0052B4"></path>
                    <path d="M0,0 L0,1.7578125 L5.1171875,6.875 L6.875,6.875 L0,0 Z M8.125,0 L8.125,8.125 L0,8.125 L0,11.875 L8.125,11.875 L8.125,20 L11.875,20 L11.875,11.875 L20,11.875 L20,8.125 L11.875,8.125 L11.875,0 L8.125,0 Z M18.2421875,0 L13.125,5.1171875 L13.125,6.875 L20,0 L18.2421875,0 Z M6.875,13.125 L0,20 L1.7578125,20 L6.875,14.8828125 L6.875,13.125 Z M13.125,13.125 L20,20 L20,18.2421875 L14.8828125,13.125 L13.125,13.125 Z" id="Shape" fill="#D80027"></path>
                </g>
            </g>
        </g>
    </g>
</svg>