<?xml version="1.0" encoding="UTF-8"?>
<svg width="20px" height="20px" viewBox="0 0 20 20" version="1.1" xmlns="http://www.w3.org/2000/svg" xmlns:xlink="http://www.w3.org/1999/xlink">
    <title>gb_nir_flag_20px</title>
    <defs>
        <circle id="path-1" cx="10" cy="10" r="10"></circle>
    </defs>
    <g id="Design-System" stroke="none" stroke-width="1" fill="none" fill-rule="evenodd">
        <g id="Flags-20x20" transform="translate(-301.000000, -605.000000)">
            <g id="flag" transform="translate(301.000000, 605.000000)">
                <mask id="mask-2" fill="white">
                    <use xlink:href="#path-1"></use>
                </mask>
                <use id="Mask" fill="#D8D8D8" xlink:href="#path-1"></use>
                <g id="gb-nir" mask="url(#mask-2)" fill-rule="nonzero">
                    <polygon id="Path" fill="#EEEEEE" points="0 0 8.75 0 10 1.25 11.25 0 20 0 20 8.75 18.75 10 20 11.25 20 20 11.25 20 10 18.75 8.75 20 0 20 0 11.25 1.25 10 0 8.75"></polygon>
                    <polygon id="Path" fill="#D80027" points="8.75 0 8.75 8.75 0 8.75 0 11.25 8.75 11.25 8.75 20 11.25 20 11.25 11.25 20 11.25 20 8.75 11.25 8.75 11.25 0"></polygon>
                    <polygon id="Path" fill="#ACABB1" points="10 4.0625 8.28125 7.03125 4.8828125 7.03125 6.5625 10 4.8828125 12.96875 8.28125 12.96875 10 15.9375 11.71875 12.96875 15.1171875 12.96875 13.4375 10 15.1171875 7.03125 11.71875 7.03125"></polygon>
                    <polygon id="Path" fill="#EEEEEE" points="10 5.1171875 8.59375 7.5390625 5.7421875 7.5390625 7.1875 10 5.7421875 12.4609375 8.59375 12.4609375 10 14.921875 11.40625 12.4609375 14.2578125 12.4609375 12.8125 10 14.2578125 7.5390625 11.40625 7.5390625"></polygon>
                    <path d="M10.1171875,7.6171875 C9.921875,7.6171875 9.921875,7.8125 9.921875,7.8125 L9.921875,9.3359375 L9.8046875,9.3359375 L9.8046875,8.046875 C9.8046875,8.046875 9.8046875,7.8125 9.609375,7.8125 C9.375,7.8125 9.375,8.046875 9.375,8.046875 L9.375,9.4140625 L9.2578125,9.453125 L9.2578125,8.4765625 C9.2578125,8.4765625 9.2578125,8.2421875 9.0625,8.2421875 C8.828125,8.2421875 8.828125,8.4765625 8.828125,8.4765625 L8.828125,10.15625 C8.828125,10.546875 9.0234375,10.9375 9.296875,11.171875 L9.296875,11.9921875 L10.703125,11.9921875 L10.703125,11.328125 C11.0546875,11.1328125 11.328125,10.78125 11.40625,10.3515625 C11.40625,10.1171875 11.484375,9.921875 11.5625,9.7265625 L11.71875,9.1796875 C11.71875,9.1796875 11.7578125,8.984375 11.5625,8.90625 C11.3671875,8.828125 11.2890625,9.0234375 11.2890625,9.0234375 L10.9765625,9.765625 L10.859375,9.765625 L10.859375,7.9296875 C10.859375,7.9296875 10.859375,7.734375 10.6640625,7.734375 C10.4296875,7.734375 10.4296875,7.9296875 10.4296875,7.9296875 L10.4296875,9.3359375 L10.3515625,9.3359375 L10.3515625,7.8125 C10.3515625,7.8125 10.3515625,7.6171875 10.1171875,7.6171875 Z" id="Path" fill="#D80027"></path>
                    <path d="M9.5703125,1.484375 L9.5703125,1.9140625 L9.140625,1.9140625 L9.140625,2.7734375 L9.5703125,2.7734375 L9.5703125,3.59375 C9.3359375,3.359375 9.0234375,3.2421875 8.7109375,3.2421875 C8.18026082,3.23651872 7.700343,3.55666564 7.50175562,4.04881696 C7.30316825,4.54096829 7.42650103,5.10453211 7.8125,5.46875 L7.8125,6.25 L12.1875,6.25 L12.1875,5.46875 C12.421875,5.1953125 12.578125,4.8828125 12.578125,4.53125 C12.5690799,4.02712614 12.2669471,3.57455233 11.8048233,3.37289834 C11.3426996,3.17124434 10.8054271,3.2575322 10.4296875,3.59375 L10.4296875,2.7734375 L10.859375,2.7734375 L10.859375,1.9140625 L10.4296875,1.9140625 L10.4296875,1.484375 L9.5703125,1.484375 Z" id="Path" fill="#FFDA44"></path>
                </g>
            </g>
        </g>
    </g>
</svg>