<?xml version="1.0" encoding="UTF-8"?>
<svg width="20px" height="20px" viewBox="0 0 20 20" version="1.1" xmlns="http://www.w3.org/2000/svg" xmlns:xlink="http://www.w3.org/1999/xlink">
    <title>gb_wis_flag_20px</title>
    <defs>
        <circle id="path-1" cx="10" cy="10" r="10"></circle>
    </defs>
    <g id="Design-System" stroke="none" stroke-width="1" fill="none" fill-rule="evenodd">
        <g id="Flags-20x20" transform="translate(-451.000000, -605.000000)">
            <g id="flag" transform="translate(451.000000, 605.000000)">
                <mask id="mask-2" fill="white">
                    <use xlink:href="#path-1"></use>
                </mask>
                <use id="Mask" fill="#D8D8D8" xlink:href="#path-1"></use>
                <g id="gb-wls" mask="url(#mask-2)" fill-rule="nonzero">
                    <polygon id="Path" fill="#6DA544" points="0 10 10 7.5 20 10 20 20 0 20"></polygon>
                    <polygon id="Path" fill="#EEEEEE" points="0 0 20 0 20 10 0 10"></polygon>
                    <path d="M6.484375,5.8203125 C6.015625,5.8203125 5.6640625,6.171875 5.6640625,6.640625 L5.1171875,6.640625 C4.375,6.640625 3.75,7.2265625 3.75,7.96875 L4.7265625,7.96875 C4.84375,8.28125 5.1171875,8.515625 5.390625,8.515625 L5.6640625,8.515625 L5.6640625,10.390625 L5.7421875,10.9375 L5.1171875,11.1328125 C5.078125,10.546875 4.609375,10.1171875 4.0625,10.1171875 C3.90625,10.1171875 3.75,10.234375 3.75,10.3515625 L3.75,12.5390625 C3.75,12.6953125 3.90625,12.8125 4.0625,12.8125 L4.53125,12.6953125 L6.71875,12.109375 C6.953125,12.2265625 7.265625,12.3046875 7.578125,12.3046875 L7.8125,12.3046875 L7.8125,12.8515625 L7.3046875,12.8515625 C6.6796875,12.8515625 6.2109375,13.3203125 6.2109375,13.90625 C6.2109375,14.0625 6.328125,14.1796875 6.484375,14.1796875 L8.90625,14.1796875 C9.0625,14.1796875 9.1796875,14.0625 9.1796875,13.90625 L9.1796875,12.3046875 L9.53125,12.265625 L11.4453125,12.265625 L11.796875,12.8515625 L11.6015625,12.8515625 C11.015625,12.8515625 10.546875,13.3203125 10.546875,13.90625 C10.546875,14.0625 10.6640625,14.1796875 10.8203125,14.1796875 L13.515625,14.1796875 C13.671875,14.1796875 13.7890625,14.0625 13.7890625,13.90625 C13.7890625,13.671875 13.7109375,13.4765625 13.59375,13.28125 L13.0078125,12.265625 L13.90625,12.265625 C15.0390625,12.265625 15.9375,11.3671875 15.9375,10.234375 L15.9375,10.1171875 L16.25,10.1953125 L16.484375,10.1953125 C16.6015625,10.078125 16.640625,9.921875 16.5625,9.8046875 L15.46875,8.2421875 L15.4296875,8.203125 C15.3125,8.125 15.1171875,8.125 15.0390625,8.2421875 L13.984375,9.8046875 C13.9453125,9.8828125 13.90625,9.9609375 13.9453125,10.0390625 C13.984375,10.1953125 14.140625,10.2734375 14.296875,10.234375 L14.609375,10.1171875 L14.609375,10.234375 C14.609375,10.625 14.296875,10.9375 13.90625,10.9375 L12.4609375,10.9375 C12.9296875,10.46875 13.3203125,9.921875 13.5546875,9.3359375 L14.53125,7.109375 L14.5703125,6.9140625 C14.5703125,6.6015625 14.3359375,6.3671875 14.0234375,6.3671875 L10.3125,6.3671875 C9.7265625,6.3671875 9.21875,6.8359375 9.21875,7.421875 L9.21875,8.0859375 C9.21875,8.32324735 9.02637235,8.515625 8.7890625,8.515625 C8.55175265,8.515625 8.359375,8.32324735 8.359375,8.0859375 L8.359375,6.875 C8.828125,6.71875 9.1796875,6.328125 9.1796875,5.8203125 L7.578125,5.8203125 L6.484375,5.8203125 Z" id="Path" fill="#D80027"></path>
                </g>
            </g>
        </g>
    </g>
</svg>