<?xml version="1.0" encoding="UTF-8"?>
<svg width="16px" height="16px" viewBox="0 0 16 16" version="1.1" xmlns="http://www.w3.org/2000/svg" xmlns:xlink="http://www.w3.org/1999/xlink">
    <title>gd_flag_16px</title>
    <defs>
        <circle id="path-1" cx="8" cy="8" r="8"></circle>
    </defs>
    <g id="Design-System" stroke="none" stroke-width="1" fill="none" fill-rule="evenodd">
        <g id="Flags-16x16" transform="translate(-501.000000, -605.000000)">
            <g id="flag" transform="translate(501.000000, 605.000000)">
                <mask id="mask-2" fill="white">
                    <use xlink:href="#path-1"></use>
                </mask>
                <use id="Mask" fill="#D8D8D8" xlink:href="#path-1"></use>
                <g id="gd" mask="url(#mask-2)" fill-rule="nonzero">
                    <polygon id="Path" fill="#FFDA44" points="0.7375 0.740625 15.2625 0.740625 15.2625 15.2625 0.7375 15.2625"></polygon>
                    <polygon id="Path" fill="#496E2D" points="0 2.346875 1.1875 1.1875 14.821875 14.825 16 13.653125 16 2.34375 14.7625 1.234375 1.25625 14.74375 0 13.65"></polygon>
                    <circle id="Oval" fill="#A2001D" cx="8" cy="8.003125" r="2.78125"></circle>
                    <polygon id="Path" fill="#FFDA44" points="8 5.21875 8.625 7.140625 10.64375 7.140625 9.009375 8.328125 9.634375 10.24375 8 9.05625 6.365625 10.24375 6.990625 8.328125 5.35625 7.140625 7.375 7.140625"></polygon>
                    <path d="M0,0 L16,0 L16,2.346875 L0,2.346875 L0,0 Z M0,13.65 L16,13.65 L16,15.996875 L0,15.996875 L0,13.65 Z" id="Shape" fill="#A2001D"></path>
                    <path d="M8,0.875 L8.128125,1.271875 L8.55,1.271875 L8.209375,1.521875 L8.340625,1.915625 L8,1.66875 L7.6625,1.91875 L7.790625,1.51875 L7.45,1.26875 L7.875,1.26875 L8,0.875 Z M6.0625,0.875 L6.1875,1.271875 L6.609375,1.271875 L6.26875,1.521875 L6.4,1.915625 L6.059375,1.66875 L5.721875,1.91875 L5.85,1.51875 L5.5125,1.26875 L5.93125,1.26875 L6.0625,0.875 Z M9.9375,0.875 L10.06875,1.271875 L10.4875,1.271875 L10.15,1.521875 L10.278125,1.915625 L9.940625,1.66875 L9.6,1.91875 L9.73125,1.51875 L9.390625,1.26875 L9.8125,1.26875 L9.9375,0.875 Z M8,14.0875 L8.128125,14.484375 L8.55,14.484375 L8.209375,14.734375 L8.340625,15.13125 L8,14.88125 L7.6625,15.13125 L7.790625,14.73125 L7.45,14.484375 L7.875,14.484375 L8,14.0875 Z M6.0625,14.0875 L6.1875,14.484375 L6.609375,14.484375 L6.26875,14.734375 L6.4,15.13125 L6.059375,14.88125 L5.721875,15.13125 L5.85,14.73125 L5.5125,14.484375 L5.93125,14.484375 L6.0625,14.0875 Z M9.9375,14.0875 L10.06875,14.484375 L10.4875,14.484375 L10.15,14.734375 L10.278125,15.13125 L9.940625,14.88125 L9.6,15.13125 L9.73125,14.73125 L9.390625,14.484375 L9.8125,14.484375 L9.9375,14.0875 Z M2.4375,7.86875 C2.62265393,8.19190249 2.52098836,8.60352492 2.20667417,8.80331506 C1.89235997,9.0031052 1.47650528,8.92043847 1.2625,8.615625 C0.8875,8.028125 1.10625,7.06875 1.10625,7.06875 C1.10625,7.06875 2.0625,7.28125 2.4375,7.871875 L2.4375,7.86875 Z" id="Shape" fill="#FFDA44"></path>
                    <circle id="Oval" fill="#A2001D" cx="2.034375" cy="8.5375" r="1"></circle>
                </g>
            </g>
        </g>
    </g>
</svg>