<?xml version="1.0" encoding="UTF-8"?>
<svg width="20px" height="20px" viewBox="0 0 20 20" version="1.1" xmlns="http://www.w3.org/2000/svg" xmlns:xlink="http://www.w3.org/1999/xlink">
    <title>gd_flag_20px</title>
    <defs>
        <circle id="path-1" cx="10" cy="10" r="10"></circle>
    </defs>
    <g id="Design-System" stroke="none" stroke-width="1" fill="none" fill-rule="evenodd">
        <g id="Flags-20x20" transform="translate(-501.000000, -605.000000)">
            <g id="flag" transform="translate(501.000000, 605.000000)">
                <mask id="mask-2" fill="white">
                    <use xlink:href="#path-1"></use>
                </mask>
                <use id="Mask" fill="#D8D8D8" xlink:href="#path-1"></use>
                <g id="gd" mask="url(#mask-2)" fill-rule="nonzero">
                    <polygon id="Path" fill="#FFDA44" points="0.921875 0.92578125 19.078125 0.92578125 19.078125 19.078125 0.921875 19.078125"></polygon>
                    <polygon id="Path" fill="#496E2D" points="0 2.93359375 1.484375 1.484375 18.5273438 18.53125 20 17.0664062 20 2.9296875 18.453125 1.54296875 1.5703125 18.4296875 0 17.0625"></polygon>
                    <circle id="Oval" fill="#A2001D" cx="10" cy="10.0039063" r="3.4765625"></circle>
                    <polygon id="Path" fill="#FFDA44" points="10 6.5234375 10.78125 8.92578125 13.3046875 8.92578125 11.2617188 10.4101563 12.0429688 12.8046875 10 11.3203125 7.95703125 12.8046875 8.73828125 10.4101563 6.6953125 8.92578125 9.21875 8.92578125"></polygon>
                    <path d="M0,0 L20,0 L20,2.93359375 L0,2.93359375 L0,0 Z M0,17.0625 L20,17.0625 L20,19.9960938 L0,19.9960938 L0,17.0625 Z" id="Shape" fill="#A2001D"></path>
                    <path d="M10,1.09375 L10.1601562,1.58984375 L10.6875,1.58984375 L10.2617188,1.90234375 L10.4257812,2.39453125 L10,2.0859375 L9.578125,2.3984375 L9.73828125,1.8984375 L9.3125,1.5859375 L9.84375,1.5859375 L10,1.09375 Z M7.578125,1.09375 L7.734375,1.58984375 L8.26171875,1.58984375 L7.8359375,1.90234375 L8,2.39453125 L7.57421875,2.0859375 L7.15234375,2.3984375 L7.3125,1.8984375 L6.890625,1.5859375 L7.4140625,1.5859375 L7.578125,1.09375 Z M12.421875,1.09375 L12.5859375,1.58984375 L13.109375,1.58984375 L12.6875,1.90234375 L12.8476562,2.39453125 L12.4257812,2.0859375 L12,2.3984375 L12.1640625,1.8984375 L11.7382812,1.5859375 L12.265625,1.5859375 L12.421875,1.09375 Z M10,17.609375 L10.1601562,18.1054688 L10.6875,18.1054688 L10.2617188,18.4179688 L10.4257812,18.9140625 L10,18.6015625 L9.578125,18.9140625 L9.73828125,18.4140625 L9.3125,18.1054688 L9.84375,18.1054688 L10,17.609375 Z M7.578125,17.609375 L7.734375,18.1054688 L8.26171875,18.1054688 L7.8359375,18.4179688 L8,18.9140625 L7.57421875,18.6015625 L7.15234375,18.9140625 L7.3125,18.4140625 L6.890625,18.1054688 L7.4140625,18.1054688 L7.578125,17.609375 Z M12.421875,17.609375 L12.5859375,18.1054688 L13.109375,18.1054688 L12.6875,18.4179688 L12.8476562,18.9140625 L12.4257812,18.6015625 L12,18.9140625 L12.1640625,18.4140625 L11.7382812,18.1054688 L12.265625,18.1054688 L12.421875,17.609375 Z M3.046875,9.8359375 C3.27831742,10.2398781 3.15123546,10.7544062 2.75834271,11.0041438 C2.36544997,11.2538815 1.8456316,11.1505481 1.578125,10.7695313 C1.109375,10.0351563 1.3828125,8.8359375 1.3828125,8.8359375 C1.3828125,8.8359375 2.578125,9.1015625 3.046875,9.83984375 L3.046875,9.8359375 Z" id="Shape" fill="#FFDA44"></path>
                    <circle id="Oval" fill="#A2001D" cx="2.54296875" cy="10.671875" r="1"></circle>
                </g>
            </g>
        </g>
    </g>
</svg>