<?xml version="1.0" encoding="UTF-8"?>
<svg width="20px" height="20px" viewBox="0 0 20 20" version="1.1" xmlns="http://www.w3.org/2000/svg" xmlns:xlink="http://www.w3.org/1999/xlink">
    <title>ge_ab_flag_20px</title>
    <defs>
        <circle id="path-1" cx="10" cy="10" r="10"></circle>
    </defs>
    <g id="Design-System" stroke="none" stroke-width="1" fill="none" fill-rule="evenodd">
        <g id="Flags-20x20" transform="translate(-101.000000, -655.000000)">
            <g id="flag" transform="translate(101.000000, 655.000000)">
                <mask id="mask-2" fill="white">
                    <use xlink:href="#path-1"></use>
                </mask>
                <use id="Mask" fill="#D8D8D8" xlink:href="#path-1"></use>
                <g id="ge-ab" mask="url(#mask-2)" fill-rule="nonzero">
                    <polygon id="Path" fill="#EEEEEE" points="10.0234375 1.125 20 2.8515625 20 5.7109375 18.8046875 7.15625 20 8.56640625 20 11.4257812 18.5351562 12.828125 20 14.28125 20 17.140625 10.546875 18.5742187 0 17.1445312 0 14.2851562 1.1015625 12.90625 0 11.4296875 0 8.5703125"></polygon>
                    <path d="M10,0 L7.80859375,2.85546875 L20,2.85546875 L20,0 L10,0 Z M7.80859375,5.71484375 L10,8.5703125 L20,8.5703125 L20,5.71484375 L7.80859375,5.71484375 Z M0,11.4296875 L0,14.2851563 L20,14.2851563 L20,11.4296875 L0,11.4296875 Z M0,17.1445312 L0,20 L20,20 L20,17.1445312 L0,17.1445312 Z" id="Shape" fill="#6DA544"></path>
                    <polygon id="Path" fill="#D80027" points="0 0 10 0 10 8.5703125 0 8.5703125"></polygon>
                    <path d="M5,7.66796875 L4.56640625,6.796875 L4.56640625,5.05859375 L5.65234375,4.1875 L6.73828125,5.05859375 L6.73828125,6.36328125 L7.17578125,5.92578125 L7.17578125,6.796875 L6.3046875,7.66796875 L5,7.66796875 Z M2.66015625,5 L2.77734375,5.3515625 L3.1484375,5.3515625 L2.84765625,5.57421875 L2.96484375,5.92578125 L2.66015625,5.70703125 L2.359375,5.92578125 L2.4765625,5.57421875 L2.17578125,5.35546875 L2.546875,5.35546875 L2.66015625,5 Z M3.53125,4.12890625 L3.6484375,4.484375 L4.01953125,4.484375 L3.71875,4.703125 L3.8359375,5.0546875 L3.53125,4.83984375 L3.23046875,5.05859375 L3.34765625,4.70703125 L3.04296875,4.484375 L3.4140625,4.484375 L3.53125,4.12890625 Z M4.40234375,3.26171875 L4.515625,3.61328125 L4.88671875,3.61328125 L4.5859375,3.8359375 L4.703125,4.1875 L4.40234375,3.96875 L4.09765625,4.1875 L4.21484375,3.8359375 L3.9140625,3.61328125 L4.28515625,3.61328125 L4.40234375,3.26171875 Z M8.64453125,5 L8.52734375,5.3515625 L8.15625,5.3515625 L8.45703125,5.57421875 L8.33984375,5.92578125 L8.64453125,5.70703125 L8.9453125,5.92578125 L8.828125,5.57421875 L9.12890625,5.35546875 L8.7578125,5.35546875 L8.64453125,5 Z M7.7734375,4.12890625 L7.65625,4.484375 L7.28515625,4.484375 L7.5859375,4.703125 L7.46875,5.0546875 L7.7734375,4.83984375 L8.07421875,5.05859375 L7.95703125,4.70703125 L8.26171875,4.484375 L7.88671875,4.484375 L7.7734375,4.12890625 Z M6.90234375,3.26171875 L6.78515625,3.61328125 L6.41796875,3.61328125 L6.71875,3.8359375 L6.6015625,4.1875 L6.90234375,3.96875 L7.20703125,4.1875 L7.08984375,3.8359375 L7.390625,3.61328125 L7.01953125,3.61328125 L6.90234375,3.26171875 Z M5.65234375,2.82421875 L5.53515625,3.1796875 L5.1640625,3.1796875 L5.46875,3.3984375 L5.3515625,3.75 L5.65625,3.53515625 L5.95703125,3.75390625 L5.83984375,3.40234375 L6.14453125,3.1796875 L5.76953125,3.1796875 L5.65234375,2.82421875 Z" id="Shape" fill="#EEEEEE"></path>
                </g>
            </g>
        </g>
    </g>
</svg>