<?xml version="1.0" encoding="UTF-8"?>
<svg width="16px" height="16px" viewBox="0 0 16 16" version="1.1" xmlns="http://www.w3.org/2000/svg" xmlns:xlink="http://www.w3.org/1999/xlink">
    <title>ge_ab_flag_16px</title>
    <defs>
        <circle id="path-1" cx="8" cy="8" r="8"></circle>
    </defs>
    <g id="Design-System" stroke="none" stroke-width="1" fill="none" fill-rule="evenodd">
        <g id="Flags-16x16" transform="translate(-101.000000, -655.000000)">
            <g id="flag" transform="translate(101.000000, 655.000000)">
                <mask id="mask-2" fill="white">
                    <use xlink:href="#path-1"></use>
                </mask>
                <use id="Mask" fill="#D8D8D8" xlink:href="#path-1"></use>
                <g id="ge-ab" mask="url(#mask-2)" fill-rule="nonzero">
                    <polygon id="Path" fill="#EEEEEE" points="8.01875 0.9 16 2.28125 16 4.56875 15.04375 5.725 16 6.853125 16 9.140625 14.828125 10.2625 16 11.425 16 13.7125 8.4375 14.859375 0 13.715625 0 11.428125 0.88125 10.325 0 9.14375 0 6.85625"></polygon>
                    <path d="M8,0 L6.246875,2.284375 L16,2.284375 L16,0 L8,0 Z M6.246875,4.571875 L8,6.85625 L16,6.85625 L16,4.571875 L6.246875,4.571875 Z M0,9.14375 L0,11.428125 L16,11.428125 L16,9.14375 L0,9.14375 Z M0,13.715625 L0,16 L16,16 L16,13.715625 L0,13.715625 Z" id="Shape" fill="#6DA544"></path>
                    <polygon id="Path" fill="#D80027" points="0 0 8 0 8 6.85625 0 6.85625"></polygon>
                    <path d="M4,6.134375 L3.653125,5.4375 L3.653125,4.046875 L4.521875,3.35 L5.390625,4.046875 L5.390625,5.090625 L5.740625,4.740625 L5.740625,5.4375 L5.04375,6.134375 L4,6.134375 Z M2.128125,4 L2.221875,4.28125 L2.51875,4.28125 L2.278125,4.459375 L2.371875,4.740625 L2.128125,4.565625 L1.8875,4.740625 L1.98125,4.459375 L1.740625,4.284375 L2.0375,4.284375 L2.128125,4 Z M2.825,3.303125 L2.91875,3.5875 L3.215625,3.5875 L2.975,3.7625 L3.06875,4.04375 L2.825,3.871875 L2.584375,4.046875 L2.678125,3.765625 L2.434375,3.5875 L2.73125,3.5875 L2.825,3.303125 Z M3.521875,2.609375 L3.6125,2.890625 L3.909375,2.890625 L3.66875,3.06875 L3.7625,3.35 L3.521875,3.175 L3.278125,3.35 L3.371875,3.06875 L3.13125,2.890625 L3.428125,2.890625 L3.521875,2.609375 Z M6.915625,4 L6.821875,4.28125 L6.525,4.28125 L6.765625,4.459375 L6.671875,4.740625 L6.915625,4.565625 L7.15625,4.740625 L7.0625,4.459375 L7.303125,4.284375 L7.00625,4.284375 L6.915625,4 Z M6.21875,3.303125 L6.125,3.5875 L5.828125,3.5875 L6.06875,3.7625 L5.975,4.04375 L6.21875,3.871875 L6.459375,4.046875 L6.365625,3.765625 L6.609375,3.5875 L6.309375,3.5875 L6.21875,3.303125 Z M5.521875,2.609375 L5.428125,2.890625 L5.134375,2.890625 L5.375,3.06875 L5.28125,3.35 L5.521875,3.175 L5.765625,3.35 L5.671875,3.06875 L5.9125,2.890625 L5.615625,2.890625 L5.521875,2.609375 Z M4.521875,2.259375 L4.428125,2.54375 L4.13125,2.54375 L4.375,2.71875 L4.28125,3 L4.525,2.828125 L4.765625,3.003125 L4.671875,2.721875 L4.915625,2.54375 L4.615625,2.54375 L4.521875,2.259375 Z" id="Shape" fill="#EEEEEE"></path>
                </g>
            </g>
        </g>
    </g>
</svg>