<?xml version="1.0" encoding="UTF-8"?>
<svg width="20px" height="20px" viewBox="0 0 20 20" version="1.1" xmlns="http://www.w3.org/2000/svg" xmlns:xlink="http://www.w3.org/1999/xlink">
    <title>ge_flag_20px</title>
    <defs>
        <circle id="path-1" cx="10" cy="10" r="10"></circle>
    </defs>
    <g id="Design-System" stroke="none" stroke-width="1" fill="none" fill-rule="evenodd">
        <g id="Flags-20x20" transform="translate(-51.000000, -655.000000)">
            <g id="flag" transform="translate(51.000000, 655.000000)">
                <mask id="mask-2" fill="white">
                    <use xlink:href="#path-1"></use>
                </mask>
                <use id="Mask" fill="#D8D8D8" xlink:href="#path-1"></use>
                <g id="ge" mask="url(#mask-2)" fill-rule="nonzero">
                    <polygon id="Path" fill="#EEEEEE" points="0 0 8.6953125 0 9.90625 0.9140625 11.3046875 0 20 0 20 8.6953125 19.1601562 9.90625 20 11.3046875 20 20 11.3046875 20 9.96875 19.1992188 8.6953125 20 0 20 0 11.3046875 0.88671875 10.03125 0 8.6953125"></polygon>
                    <polygon id="Path" fill="#D80027" points="8.6953125 0 8.6953125 8.6953125 0 8.6953125 0 11.3046875 8.6953125 11.3046875 8.6953125 20 11.3046875 20 11.3046875 11.3046875 20 11.3046875 20 8.6953125 11.3046875 8.6953125 11.3046875 0"></polygon>
                    <path d="M6.0859375,4.78125 L6.0859375,3.4765625 L4.78125,3.4765625 L4.78125,4.78125 L3.4765625,4.78125 L3.4765625,6.0859375 L4.78125,6.0859375 L4.78125,7.390625 L6.0859375,7.390625 L6.0859375,6.0859375 L7.390625,6.0859375 L7.390625,4.78125 L6.0859375,4.78125 Z M15.21875,4.78125 L15.21875,3.4765625 L13.9140625,3.4765625 L13.9140625,4.78125 L12.609375,4.78125 L12.609375,6.0859375 L13.9140625,6.0859375 L13.9140625,7.390625 L15.21875,7.390625 L15.21875,6.0859375 L16.5234375,6.0859375 L16.5234375,4.78125 L15.21875,4.78125 Z M6.0859375,13.9140625 L6.0859375,12.609375 L4.78125,12.609375 L4.78125,13.9140625 L3.4765625,13.9140625 L3.4765625,15.21875 L4.78125,15.21875 L4.78125,16.5234375 L6.0859375,16.5234375 L6.0859375,15.21875 L7.390625,15.21875 L7.390625,13.9140625 L6.0859375,13.9140625 Z M15.21875,13.9140625 L15.21875,12.609375 L13.9140625,12.609375 L13.9140625,13.9140625 L12.609375,13.9140625 L12.609375,15.21875 L13.9140625,15.21875 L13.9140625,16.5234375 L15.21875,16.5234375 L15.21875,15.21875 L16.5234375,15.21875 L16.5234375,13.9140625 L15.21875,13.9140625 Z" id="Shape" fill="#D80027"></path>
                </g>
            </g>
        </g>
    </g>
</svg>