<?xml version="1.0" encoding="UTF-8"?>
<svg width="20px" height="20px" viewBox="0 0 20 20" version="1.1" xmlns="http://www.w3.org/2000/svg" xmlns:xlink="http://www.w3.org/1999/xlink">
    <title>gg_flag_20px</title>
    <defs>
        <circle id="path-1" cx="10" cy="10" r="10"></circle>
    </defs>
    <g id="Design-System" stroke="none" stroke-width="1" fill="none" fill-rule="evenodd">
        <g id="Flags-20x20" transform="translate(-201.000000, -655.000000)">
            <g id="flag" transform="translate(201.000000, 655.000000)">
                <mask id="mask-2" fill="white">
                    <use xlink:href="#path-1"></use>
                </mask>
                <use id="Mask" fill="#D8D8D8" xlink:href="#path-1"></use>
                <g id="gg" mask="url(#mask-2)" fill-rule="nonzero">
                    <polygon id="Path" fill="#EEEEEE" points="0 0 8.6953125 0 9.90625 0.9140625 11.3046875 0 20 0 20 8.6953125 19.1601562 9.90625 20 11.3046875 20 20 11.3046875 20 9.96875 19.1992188 8.6953125 20 0 20 0 11.3046875 0.88671875 10.03125 0 8.6953125"></polygon>
                    <polygon id="Path" fill="#D80027" points="8.6953125 0 8.6953125 8.6953125 0 8.6953125 0 11.3046875 8.6953125 11.3046875 8.6953125 20 11.3046875 20 11.3046875 11.3046875 20 11.3046875 20 8.6953125 11.3046875 8.6953125 11.3046875 0"></polygon>
                    <polygon id="Path" fill="#FFDA44" points="12.8242188 10.4296875 13.4765625 10.8710938 13.4765625 9.125 12.8242188 9.5703125 10.4335938 9.5703125 10.4335938 7.1796875 10.8710938 6.5234375 9.12890625 6.5234375 9.56640625 7.1796875 9.56640625 9.56640625 7.17578125 9.56640625 6.5234375 9.125 6.5234375 10.8710938 7.17578125 10.4296875 9.56640625 10.4296875 9.56640625 12.8242188 9.12890625 13.4726563 10.8710938 13.4726563 10.4296875 12.8242188 10.4296875 10.4296875"></polygon>
                </g>
            </g>
        </g>
    </g>
</svg>