<?xml version="1.0" encoding="UTF-8"?>
<svg width="20px" height="20px" viewBox="0 0 20 20" version="1.1" xmlns="http://www.w3.org/2000/svg" xmlns:xlink="http://www.w3.org/1999/xlink">
    <title>gi_flag_20px</title>
    <defs>
        <circle id="path-1" cx="10" cy="10" r="10"></circle>
    </defs>
    <g id="Design-System" stroke="none" stroke-width="1" fill="none" fill-rule="evenodd">
        <g id="Flags-20x20" transform="translate(-301.000000, -655.000000)">
            <g id="flag" transform="translate(301.000000, 655.000000)">
                <mask id="mask-2" fill="white">
                    <use xlink:href="#path-1"></use>
                </mask>
                <use id="Mask" fill="#D8D8D8" xlink:href="#path-1"></use>
                <g id="gi" mask="url(#mask-2)" fill-rule="nonzero">
                    <polygon id="Path" fill="#D80027" points="0 13.4765625 10.0117188 12.2539063 20 13.4765625 20 20 0 20"></polygon>
                    <polygon id="Path" fill="#EEEEEE" points="0 0 20 0 20 13.4765625 0 13.4765625"></polygon>
                    <polygon id="Path" fill="#D80027" points="13.9140625 8.26171875 13.9140625 6.953125 14.3476563 6.953125 14.3476563 6.08203125 13.4765625 6.08203125 13.4765625 6.5234375 12.609375 6.5234375 12.609375 6.0859375 11.7382813 6.0859375 11.7382813 6.95703125 12.1757813 6.95703125 12.1757813 8.26171875 11.3046875 8.26171875 11.3046875 5.21484375 11.7382813 5.21484375 11.7382813 4.34765625 10.8710938 4.34765625 10.8710938 4.78125 10.4296875 4.78125 10.4296875 4.3515625 9.5703125 4.3515625 9.5703125 4.78125 9.1328125 4.78125 9.1328125 4.3515625 8.265625 4.3515625 8.265625 5.21875 8.69921875 5.21875 8.69921875 8.26171875 7.828125 8.26171875 7.828125 6.953125 8.265625 6.953125 8.265625 6.08203125 7.39453125 6.08203125 7.39453125 6.5234375 6.5234375 6.5234375 6.5234375 6.0859375 5.65234375 6.0859375 5.65234375 6.95703125 6.0859375 6.95703125 6.0859375 8.26171875 5.21875 8.26171875 5.21875 11.7382812 14.78125 11.7382812 14.78125 8.26171875"></polygon>
                    <path d="M10,11.3046875 C9.36437744,11.3047732 8.82131815,11.7629 8.71416209,12.389425 C8.60700604,13.0159501 8.96694185,13.6285182 9.56640625,13.8398438 L9.56640625,15.6523438 L8.26171875,15.6523438 L8.26171875,17.390625 L10.4296875,17.390625 L10.4296875,13.8359375 C11.0233197,13.6207834 11.3776839,13.0114038 11.2710769,12.3890491 C11.1644698,11.7666944 10.6274908,11.3099986 9.99609375,11.3046875 L10,11.3046875 Z M10,13.0429688 C9.84509187,13.0429688 9.70195085,12.9603263 9.62449678,12.8261719 C9.54704271,12.6920175 9.54704271,12.5267325 9.62449678,12.3925781 C9.70195085,12.2584237 9.84509187,12.1757813 10,12.1757813 C10.2394672,12.1757813 10.4335937,12.3699078 10.4335937,12.609375 C10.4335937,12.8488422 10.2394672,13.0429688 10,13.0429688 Z" id="Shape" fill="#FFDA44"></path>
                </g>
            </g>
        </g>
    </g>
</svg>