<?xml version="1.0" encoding="UTF-8"?>
<svg width="20px" height="20px" viewBox="0 0 20 20" version="1.1" xmlns="http://www.w3.org/2000/svg" xmlns:xlink="http://www.w3.org/1999/xlink">
    <title>gl_flag_20px</title>
    <defs>
        <circle id="path-1" cx="10" cy="10" r="10"></circle>
    </defs>
    <g id="Design-System" stroke="none" stroke-width="1" fill="none" fill-rule="evenodd">
        <g id="Flags-20x20" transform="translate(-351.000000, -655.000000)">
            <g id="flag" transform="translate(351.000000, 655.000000)">
                <mask id="mask-2" fill="white">
                    <use xlink:href="#path-1"></use>
                </mask>
                <use id="Mask" fill="#D8D8D8" xlink:href="#path-1"></use>
                <g id="gl" mask="url(#mask-2)" fill-rule="nonzero">
                    <polygon id="Path" fill="#D80027" points="0 10 10.1171875 8.23046875 20 10 20 20 0 20"></polygon>
                    <polygon id="Path" fill="#EEEEEE" points="0 0 20 0 20 10 0 10"></polygon>
                    <path d="M2.17578125,10 C2.17578125,12.6406115 4.31641979,14.78125 6.95703125,14.78125 C9.59764271,14.78125 11.7382813,12.6406115 11.7382813,10 L6.93359375,9.0625 L2.17578125,10 Z" id="Path" fill="#EEEEEE"></path>
                    <path d="M2.17578125,10 C2.17578125,7.35938854 4.31641979,5.21875 6.95703125,5.21875 C9.59764271,5.21875 11.7382813,7.35938854 11.7382813,10 L2.17578125,10 Z" id="Path" fill="#D80027"></path>
                </g>
            </g>
        </g>
    </g>
</svg>