<?xml version="1.0" encoding="UTF-8"?>
<svg width="16px" height="16px" viewBox="0 0 16 16" version="1.1" xmlns="http://www.w3.org/2000/svg" xmlns:xlink="http://www.w3.org/1999/xlink">
    <title>gl_flag_16px</title>
    <defs>
        <circle id="path-1" cx="8" cy="8" r="8"></circle>
    </defs>
    <g id="Design-System" stroke="none" stroke-width="1" fill="none" fill-rule="evenodd">
        <g id="Flags-16x16" transform="translate(-351.000000, -655.000000)">
            <g id="flag" transform="translate(351.000000, 655.000000)">
                <mask id="mask-2" fill="white">
                    <use xlink:href="#path-1"></use>
                </mask>
                <use id="Mask" fill="#D8D8D8" xlink:href="#path-1"></use>
                <g id="gl" mask="url(#mask-2)" fill-rule="nonzero">
                    <polygon id="Path" fill="#D80027" points="0 8 8.09375 6.584375 16 8 16 16 0 16"></polygon>
                    <polygon id="Path" fill="#EEEEEE" points="0 0 16 0 16 8 0 8"></polygon>
                    <path d="M1.740625,8 C1.740625,10.1124892 3.45313583,11.825 5.565625,11.825 C7.67811417,11.825 9.390625,10.1124892 9.390625,8 L5.546875,7.25 L1.740625,8 Z" id="Path" fill="#EEEEEE"></path>
                    <path d="M1.740625,8 C1.740625,5.88751083 3.45313583,4.175 5.565625,4.175 C7.67811417,4.175 9.390625,5.88751083 9.390625,8 L1.740625,8 Z" id="Path" fill="#D80027"></path>
                </g>
            </g>
        </g>
    </g>
</svg>