<?xml version="1.0" encoding="UTF-8"?>
<svg width="16px" height="16px" viewBox="0 0 16 16" version="1.1" xmlns="http://www.w3.org/2000/svg" xmlns:xlink="http://www.w3.org/1999/xlink">
    <title>gp_flag_16px</title>
    <defs>
        <circle id="path-1" cx="8" cy="8" r="8"></circle>
    </defs>
    <g id="Design-System" stroke="none" stroke-width="1" fill="none" fill-rule="evenodd">
        <g id="Flags-16x16" transform="translate(-501.000000, -655.000000)">
            <g id="flag" transform="translate(501.000000, 655.000000)">
                <mask id="mask-2" fill="white">
                    <use xlink:href="#path-1"></use>
                </mask>
                <use id="Mask" fill="#D8D8D8" xlink:href="#path-1"></use>
                <g id="gp" mask="url(#mask-2)" fill-rule="nonzero">
                    <polygon id="Path" fill="#333333" points="0 5.5 16 5.5 16 16 0 16"></polygon>
                    <polygon id="Path" fill="#0052B4" points="0 0 16 0 16 5.5 0 5.5"></polygon>
                    <path d="M2.9375,7.125 C2.91674869,7.12238558 2.89575131,7.12238558 2.875,7.125 C2.80778593,7.14309727 2.75116018,7.18839787 2.71875,7.25 C2.68405203,7.30594748 2.67282273,7.37332331 2.6875,7.4375 L2.90625,8.21875 L1.6875,7.5 C1.62960543,7.46631467 1.56061491,7.45727023 1.49599386,7.47489415 C1.43137281,7.49251808 1.37652662,7.53533616 1.34375,7.59375 C1.31006467,7.65164457 1.30102023,7.72063509 1.31864415,7.78525614 C1.33626808,7.84987719 1.37908616,7.90472338 1.4375,7.9375 L2.65625,8.65625 L1.875,8.84375 C1.80778593,8.86184727 1.75116018,8.90714787 1.71875,8.96875 C1.68405203,9.02469748 1.67282273,9.09207331 1.6875,9.15625 C1.70213757,9.2236973 1.74400695,9.28209277 1.80318885,9.31760191 C1.86237076,9.35311106 1.93359941,9.36257441 2,9.34375 L3.28125,9 L3.53125,9.15625 L2.71875,9.34375 C2.66325078,9.36880325 2.61880325,9.41325078 2.59375,9.46875 C2.55905203,9.52469748 2.54782273,9.59207331 2.5625,9.65625 C2.57713757,9.7236973 2.61900695,9.78209277 2.67818885,9.81760191 C2.73737076,9.85311106 2.80859941,9.86257441 2.875,9.84375 L4.125,9.5 L4.375,9.65625 L3.59375,9.84375 C3.53825078,9.86880325 3.49380325,9.91325078 3.46875,9.96875 C3.43405203,10.0246975 3.42282273,10.0920733 3.4375,10.15625 C3.45213757,10.2236973 3.49400695,10.2820928 3.55318885,10.3176019 C3.61237076,10.3531111 3.68359941,10.3625744 3.75,10.34375 L5,10 L5.78125,10.4375 C5.83914457,10.4711853 5.90813509,10.4802298 5.97275614,10.4626058 C6.03737719,10.4449819 6.09222338,10.4021638 6.125,10.34375 C6.17539375,10.2307367 6.13553101,10.0978609 6.03125,10.03125 L5.25,9.5625 L4.90625,8.3125 C4.89161243,8.2450527 4.84974305,8.18665723 4.79056115,8.15114809 C4.73137924,8.11563894 4.66015059,8.10617559 4.59375,8.125 C4.52653593,8.14309727 4.46991018,8.18839787 4.4375,8.25 C4.41317494,8.31013317 4.41317494,8.37736683 4.4375,8.4375 L4.625,9.21875 L4.375,9.0625 L4.03125,7.8125 C4.00035702,7.68648803 3.87820066,7.60505046 3.75,7.625 C3.68278593,7.64309727 3.62616018,7.68839787 3.59375,7.75 C3.55905203,7.80594748 3.54782273,7.87332331 3.5625,7.9375 L3.78125,8.71875 L3.53125,8.5625 L3.1875,7.3125 C3.15830849,7.19920001 3.05444161,7.12129985 2.9375,7.125 Z M8.5625,10.125 L12.375,13.46875 C12.90625,13.0625 13.375,12.53125 13.75,11.96875 L8.5625,10.125 Z" id="Shape" fill="#6DA544"></path>
                    <path d="M8,15 L7.34375,14.09375 L6.375,14.6875 L6.125,13.59375 L5,13.75 L5.1875,12.65625 L4.0625,12.375 L4.65625,11.40625 L3.75,10.75 L4.65625,10.09375 L4.0625,9.125 L5.1875,8.875 L5,7.75 L6.125,7.9375 L6.375,6.8125 L7.34375,7.40625 L8,6.5 L8.65625,7.40625 L9.625,6.8125 L9.875,7.9375 L11,7.75 L10.8125,8.875 L11.9375,9.125 L11.34375,10.09375 L12.25,10.75 L11.34375,11.40625 L11.9375,12.375 L10.8125,12.625 L11,13.75 L9.875,13.59375 L9.625,14.6875 L8.65625,14.09375 L8,15 Z M8,1.25 L7.6875,1.59375 C7.46875,1.9375 7.40625,2.28125 7.53125,2.5625 L7.75,3.09375 C7.625,2.90625 7.46875,2.78125 7.28125,2.71875 C7.15625,2.6875 6.9375,2.71875 6.78125,2.875 C6.5625,3.0625 6.46875,3.625 7.125,3.71875 C7.0625,3.625 7.0625,3.4375 7.21875,3.375 C7.3125,3.3125 7.4375,3.34375 7.46875,3.375 C7.53125,3.40625 7.59375,3.5 7.625,3.59375 L7.46875,3.59375 L7.46875,3.90625 L7.65625,3.90625 C7.59375,4.09375 7.46875,4.1875 7.1875,4.40625 C7.4375,4.4375 7.71875,4.25 7.78125,4.1875 L7.84375,4.03125 L7.8125,4.65625 C7.84375,4.8125 7.875,4.875 8,5 C8.125,4.875 8.15625,4.8125 8.1875,4.65625 L8.15625,4.03125 L8.21875,4.15625 C8.28125,4.25 8.5625,4.4375 8.8125,4.4375 C8.53125,4.1875 8.40625,4.09375 8.375,3.90625 L8.53125,3.90625 L8.53125,3.59375 L8.375,3.59375 C8.40625,3.5 8.46875,3.40625 8.53125,3.375 C8.5625,3.34375 8.6875,3.3125 8.8125,3.375 C8.9375,3.4375 8.9375,3.625 8.875,3.71875 C9.53125,3.625 9.4375,3.0625 9.21875,2.875 C9.0625,2.71875 8.875,2.6875 8.71875,2.71875 C8.53125,2.78125 8.375,2.90625 8.25,3.09375 L8.46875,2.5625 C8.59375,2.28125 8.53125,1.9375 8.3125,1.59375 L8,1.25 Z M11,1.25 L10.6875,1.59375 C10.46875,1.9375 10.40625,2.28125 10.53125,2.5625 L10.75,3.09375 C10.625,2.90625 10.46875,2.78125 10.28125,2.71875 C10.125,2.6875 9.9375,2.71875 9.75,2.875 C9.5625,3.0625 9.46875,3.625 10.125,3.71875 C10.0625,3.625 10.0625,3.4375 10.21875,3.375 C10.3125,3.3125 10.4375,3.34375 10.46875,3.375 C10.53125,3.40625 10.59375,3.5 10.625,3.59375 L10.46875,3.59375 L10.46875,3.90625 L10.625,3.90625 C10.59375,4.09375 10.46875,4.1875 10.1875,4.40625 C10.4375,4.4375 10.71875,4.25 10.78125,4.1875 L10.84375,4.03125 L10.8125,4.65625 C10.84375,4.8125 10.875,4.875 11,5 C11.125,4.875 11.15625,4.8125 11.1875,4.65625 L11.15625,4.03125 L11.21875,4.15625 C11.28125,4.25 11.5625,4.4375 11.8125,4.4375 C11.53125,4.1875 11.40625,4.09375 11.34375,3.90625 L11.53125,3.90625 L11.53125,3.59375 L11.375,3.59375 C11.40625,3.5 11.46875,3.40625 11.53125,3.375 C11.5625,3.34375 11.6875,3.3125 11.78125,3.375 C11.9375,3.4375 11.9375,3.625 11.875,3.71875 C12.53125,3.625 12.4375,3.0625 12.21875,2.875 C12.0625,2.71875 11.875,2.6875 11.71875,2.71875 C11.53125,2.78125 11.375,2.90625 11.25,3.09375 L11.46875,2.5625 C11.59375,2.28125 11.53125,1.9375 11.3125,1.59375 L11,1.25 Z M5,1.25 L4.6875,1.59375 C4.46875,1.9375 4.40625,2.28125 4.53125,2.5625 L4.75,3.09375 C4.625,2.90625 4.46875,2.78125 4.28125,2.71875 C4.15625,2.6875 3.9375,2.71875 3.78125,2.875 C3.5625,3.0625 3.46875,3.625 4.125,3.71875 C4.0625,3.625 4.0625,3.4375 4.21875,3.375 C4.3125,3.3125 4.4375,3.34375 4.46875,3.375 C4.53125,3.40625 4.59375,3.5 4.625,3.59375 L4.46875,3.59375 L4.46875,3.90625 L4.65625,3.90625 C4.59375,4.09375 4.46875,4.1875 4.1875,4.40625 C4.4375,4.4375 4.71875,4.25 4.78125,4.1875 L4.84375,4.03125 L4.8125,4.65625 C4.84375,4.8125 4.875,4.875 5,5 C5.125,4.875 5.15625,4.8125 5.1875,4.65625 L5.15625,4.03125 L5.21875,4.15625 C5.28125,4.25 5.5625,4.4375 5.8125,4.4375 C5.53125,4.1875 5.40625,4.09375 5.375,3.90625 L5.53125,3.90625 L5.53125,3.59375 L5.375,3.59375 C5.40625,3.5 5.46875,3.40625 5.53125,3.375 C5.5625,3.34375 5.6875,3.3125 5.8125,3.375 C5.9375,3.4375 5.9375,3.625 5.875,3.71875 C6.53125,3.625 6.46875,3.0625 6.25,2.875 C6.0625,2.71875 5.875,2.6875 5.71875,2.71875 C5.53125,2.78125 5.375,2.90625 5.25,3.09375 L5.46875,2.5625 C5.59375,2.28125 5.53125,1.9375 5.3125,1.59375 L5,1.25 Z" id="Shape" fill="#FFDA44"></path>
                </g>
            </g>
        </g>
    </g>
</svg>