<?xml version="1.0" encoding="UTF-8"?>
<svg width="20px" height="20px" viewBox="0 0 20 20" version="1.1" xmlns="http://www.w3.org/2000/svg" xmlns:xlink="http://www.w3.org/1999/xlink">
    <title>gp_flag_20px</title>
    <defs>
        <circle id="path-1" cx="10" cy="10" r="10"></circle>
    </defs>
    <g id="Design-System" stroke="none" stroke-width="1" fill="none" fill-rule="evenodd">
        <g id="Flags-20x20" transform="translate(-501.000000, -655.000000)">
            <g id="flag" transform="translate(501.000000, 655.000000)">
                <mask id="mask-2" fill="white">
                    <use xlink:href="#path-1"></use>
                </mask>
                <use id="Mask" fill="#D8D8D8" xlink:href="#path-1"></use>
                <g id="gp" mask="url(#mask-2)" fill-rule="nonzero">
                    <polygon id="Path" fill="#333333" points="0 6.875 20 6.875 20 20 0 20"></polygon>
                    <polygon id="Path" fill="#0052B4" points="0 0 20 0 20 6.875 0 6.875"></polygon>
                    <path d="M3.671875,8.90625 C3.64593586,8.90298198 3.61968914,8.90298198 3.59375,8.90625 C3.50973241,8.92887159 3.43895023,8.98549734 3.3984375,9.0625 C3.35506504,9.13243435 3.34102841,9.21665414 3.359375,9.296875 L3.6328125,10.2734375 L2.109375,9.375 C2.03700678,9.33289333 1.95076864,9.32158779 1.86999233,9.34361769 C1.78921601,9.3656476 1.72065827,9.4191702 1.6796875,9.4921875 C1.63758083,9.56455572 1.62627529,9.65079386 1.64830519,9.73157017 C1.6703351,9.81234649 1.7238577,9.88090423 1.796875,9.921875 L3.3203125,10.8203125 L2.34375,11.0546875 C2.25973241,11.0773091 2.18895023,11.1339348 2.1484375,11.2109375 C2.10506504,11.2808719 2.09102841,11.3650916 2.109375,11.4453125 C2.12767196,11.5296216 2.18000869,11.602616 2.25398607,11.6470024 C2.32796344,11.6913888 2.41699926,11.703218 2.5,11.6796875 L4.1015625,11.25 L4.4140625,11.4453125 L3.3984375,11.6796875 C3.32906348,11.7110041 3.27350406,11.7665635 3.2421875,11.8359375 C3.19881504,11.9058719 3.18477841,11.9900916 3.203125,12.0703125 C3.22142196,12.1546216 3.27375869,12.227616 3.34773607,12.2720024 C3.42171344,12.3163888 3.51074926,12.328218 3.59375,12.3046875 L5.15625,11.875 L5.46875,12.0703125 L4.4921875,12.3046875 C4.42281348,12.3360041 4.36725406,12.3915635 4.3359375,12.4609375 C4.29256504,12.5308719 4.27852841,12.6150916 4.296875,12.6953125 C4.31517196,12.7796216 4.36750869,12.852616 4.44148607,12.8970024 C4.51546344,12.9413888 4.60449926,12.953218 4.6875,12.9296875 L6.25,12.5 L7.2265625,13.046875 C7.29893072,13.0889817 7.38516886,13.1002872 7.46594517,13.0782573 C7.54672149,13.0562274 7.61527923,13.0027048 7.65625,12.9296875 C7.71924218,12.7884209 7.66941376,12.6223261 7.5390625,12.5390625 L6.5625,11.953125 L6.1328125,10.390625 C6.11451554,10.3063159 6.06217881,10.2333215 5.98820143,10.1889351 C5.91422406,10.1445487 5.82518824,10.1327195 5.7421875,10.15625 C5.65816991,10.1788716 5.58738773,10.2354973 5.546875,10.3125 C5.51646867,10.3876665 5.51646867,10.4717085 5.546875,10.546875 L5.78125,11.5234375 L5.46875,11.328125 L5.0390625,9.765625 C5.00044627,9.60811003 4.84775083,9.50631307 4.6875,9.53125 C4.60348241,9.55387159 4.53270023,9.61049734 4.4921875,9.6875 C4.44881504,9.75743435 4.43477841,9.84165414 4.453125,9.921875 L4.7265625,10.8984375 L4.4140625,10.703125 L3.984375,9.140625 C3.94788561,8.99900002 3.81805201,8.90162482 3.671875,8.90625 Z M10.703125,12.65625 L15.46875,16.8359375 C16.1328125,16.328125 16.71875,15.6640625 17.1875,14.9609375 L10.703125,12.65625 Z" id="Shape" fill="#6DA544"></path>
                    <path d="M10,18.75 L9.1796875,17.6171875 L7.96875,18.359375 L7.65625,16.9921875 L6.25,17.1875 L6.484375,15.8203125 L5.078125,15.46875 L5.8203125,14.2578125 L4.6875,13.4375 L5.8203125,12.6171875 L5.078125,11.40625 L6.484375,11.09375 L6.25,9.6875 L7.65625,9.921875 L7.96875,8.515625 L9.1796875,9.2578125 L10,8.125 L10.8203125,9.2578125 L12.03125,8.515625 L12.34375,9.921875 L13.75,9.6875 L13.515625,11.09375 L14.921875,11.40625 L14.1796875,12.6171875 L15.3125,13.4375 L14.1796875,14.2578125 L14.921875,15.46875 L13.515625,15.78125 L13.75,17.1875 L12.34375,16.9921875 L12.03125,18.359375 L10.8203125,17.6171875 L10,18.75 Z M10,1.5625 L9.609375,1.9921875 C9.3359375,2.421875 9.2578125,2.8515625 9.4140625,3.203125 L9.6875,3.8671875 C9.53125,3.6328125 9.3359375,3.4765625 9.1015625,3.3984375 C8.9453125,3.359375 8.671875,3.3984375 8.4765625,3.59375 C8.203125,3.828125 8.0859375,4.53125 8.90625,4.6484375 C8.828125,4.53125 8.828125,4.296875 9.0234375,4.21875 C9.140625,4.140625 9.296875,4.1796875 9.3359375,4.21875 C9.4140625,4.2578125 9.4921875,4.375 9.53125,4.4921875 L9.3359375,4.4921875 L9.3359375,4.8828125 L9.5703125,4.8828125 C9.4921875,5.1171875 9.3359375,5.234375 8.984375,5.5078125 C9.296875,5.546875 9.6484375,5.3125 9.7265625,5.234375 L9.8046875,5.0390625 L9.765625,5.8203125 C9.8046875,6.015625 9.84375,6.09375 10,6.25 C10.15625,6.09375 10.1953125,6.015625 10.234375,5.8203125 L10.1953125,5.0390625 L10.2734375,5.1953125 C10.3515625,5.3125 10.703125,5.546875 11.015625,5.546875 C10.6640625,5.234375 10.5078125,5.1171875 10.46875,4.8828125 L10.6640625,4.8828125 L10.6640625,4.4921875 L10.46875,4.4921875 C10.5078125,4.375 10.5859375,4.2578125 10.6640625,4.21875 C10.703125,4.1796875 10.859375,4.140625 11.015625,4.21875 C11.171875,4.296875 11.171875,4.53125 11.09375,4.6484375 C11.9140625,4.53125 11.796875,3.828125 11.5234375,3.59375 C11.328125,3.3984375 11.09375,3.359375 10.8984375,3.3984375 C10.6640625,3.4765625 10.46875,3.6328125 10.3125,3.8671875 L10.5859375,3.203125 C10.7421875,2.8515625 10.6640625,2.421875 10.390625,1.9921875 L10,1.5625 Z M13.75,1.5625 L13.359375,1.9921875 C13.0859375,2.421875 13.0078125,2.8515625 13.1640625,3.203125 L13.4375,3.8671875 C13.28125,3.6328125 13.0859375,3.4765625 12.8515625,3.3984375 C12.65625,3.359375 12.421875,3.3984375 12.1875,3.59375 C11.953125,3.828125 11.8359375,4.53125 12.65625,4.6484375 C12.578125,4.53125 12.578125,4.296875 12.7734375,4.21875 C12.890625,4.140625 13.046875,4.1796875 13.0859375,4.21875 C13.1640625,4.2578125 13.2421875,4.375 13.28125,4.4921875 L13.0859375,4.4921875 L13.0859375,4.8828125 L13.28125,4.8828125 C13.2421875,5.1171875 13.0859375,5.234375 12.734375,5.5078125 C13.046875,5.546875 13.3984375,5.3125 13.4765625,5.234375 L13.5546875,5.0390625 L13.515625,5.8203125 C13.5546875,6.015625 13.59375,6.09375 13.75,6.25 C13.90625,6.09375 13.9453125,6.015625 13.984375,5.8203125 L13.9453125,5.0390625 L14.0234375,5.1953125 C14.1015625,5.3125 14.453125,5.546875 14.765625,5.546875 C14.4140625,5.234375 14.2578125,5.1171875 14.1796875,4.8828125 L14.4140625,4.8828125 L14.4140625,4.4921875 L14.21875,4.4921875 C14.2578125,4.375 14.3359375,4.2578125 14.4140625,4.21875 C14.453125,4.1796875 14.609375,4.140625 14.7265625,4.21875 C14.921875,4.296875 14.921875,4.53125 14.84375,4.6484375 C15.6640625,4.53125 15.546875,3.828125 15.2734375,3.59375 C15.078125,3.3984375 14.84375,3.359375 14.6484375,3.3984375 C14.4140625,3.4765625 14.21875,3.6328125 14.0625,3.8671875 L14.3359375,3.203125 C14.4921875,2.8515625 14.4140625,2.421875 14.140625,1.9921875 L13.75,1.5625 Z M6.25,1.5625 L5.859375,1.9921875 C5.5859375,2.421875 5.5078125,2.8515625 5.6640625,3.203125 L5.9375,3.8671875 C5.78125,3.6328125 5.5859375,3.4765625 5.3515625,3.3984375 C5.1953125,3.359375 4.921875,3.3984375 4.7265625,3.59375 C4.453125,3.828125 4.3359375,4.53125 5.15625,4.6484375 C5.078125,4.53125 5.078125,4.296875 5.2734375,4.21875 C5.390625,4.140625 5.546875,4.1796875 5.5859375,4.21875 C5.6640625,4.2578125 5.7421875,4.375 5.78125,4.4921875 L5.5859375,4.4921875 L5.5859375,4.8828125 L5.8203125,4.8828125 C5.7421875,5.1171875 5.5859375,5.234375 5.234375,5.5078125 C5.546875,5.546875 5.8984375,5.3125 5.9765625,5.234375 L6.0546875,5.0390625 L6.015625,5.8203125 C6.0546875,6.015625 6.09375,6.09375 6.25,6.25 C6.40625,6.09375 6.4453125,6.015625 6.484375,5.8203125 L6.4453125,5.0390625 L6.5234375,5.1953125 C6.6015625,5.3125 6.953125,5.546875 7.265625,5.546875 C6.9140625,5.234375 6.7578125,5.1171875 6.71875,4.8828125 L6.9140625,4.8828125 L6.9140625,4.4921875 L6.71875,4.4921875 C6.7578125,4.375 6.8359375,4.2578125 6.9140625,4.21875 C6.953125,4.1796875 7.109375,4.140625 7.265625,4.21875 C7.421875,4.296875 7.421875,4.53125 7.34375,4.6484375 C8.1640625,4.53125 8.0859375,3.828125 7.8125,3.59375 C7.578125,3.3984375 7.34375,3.359375 7.1484375,3.3984375 C6.9140625,3.4765625 6.71875,3.6328125 6.5625,3.8671875 L6.8359375,3.203125 C6.9921875,2.8515625 6.9140625,2.421875 6.640625,1.9921875 L6.25,1.5625 Z" id="Shape" fill="#FFDA44"></path>
                </g>
            </g>
        </g>
    </g>
</svg>