<?xml version="1.0" encoding="UTF-8"?>
<svg width="16px" height="16px" viewBox="0 0 16 16" version="1.1" xmlns="http://www.w3.org/2000/svg" xmlns:xlink="http://www.w3.org/1999/xlink">
    <title>gq_flag_16px</title>
    <defs>
        <circle id="path-1" cx="8" cy="8" r="8"></circle>
    </defs>
    <g id="Design-System" stroke="none" stroke-width="1" fill="none" fill-rule="evenodd">
        <g id="Flags-16x16" transform="translate(-51.000000, -705.000000)">
            <g id="flag" transform="translate(51.000000, 705.000000)">
                <mask id="mask-2" fill="white">
                    <use xlink:href="#path-1"></use>
                </mask>
                <use id="Mask" fill="#D8D8D8" xlink:href="#path-1"></use>
                <g id="gq" mask="url(#mask-2)" fill-rule="nonzero">
                    <polygon id="Path" fill="#EEEEEE" points="1.290625 3.809375 16 5.21875 16 10.78125 1.36875 12.228125"></polygon>
                    <polygon id="Path" fill="#6DA544" points="0 0 16 0 16 5.21875 3.46875 5.21875"></polygon>
                    <polygon id="Path" fill="#D80027" points="3.46875 10.78125 16 10.78125 16 16 0 16"></polygon>
                    <polygon id="Path" fill="#0052B4" points="0 0 0 16 8 8"></polygon>
                    <polygon id="Path" fill="#FF9811" points="10.4375 8.034375 11.13125 8.034375 11.13125 9.04375 10.434375 9.04375"></polygon>
                    <path d="M11.478125,7.65625 C11.4955342,7.39671306 11.366947,7.14908403 11.1446359,7.01402742 C10.9223249,6.87897081 10.6433001,6.87897081 10.4209891,7.01402742 C10.198678,7.14908403 10.0700908,7.39671306 10.0875,7.65625 C9.95628848,7.6437537 9.82933134,7.70670155 9.75984953,7.81870556 C9.69036773,7.93070958 9.69036773,8.07241542 9.75984953,8.18441944 C9.82933134,8.29642345 9.95628848,8.3593713 10.0875,8.346875 L11.478125,8.346875 C11.6696988,8.346875 11.825,8.19157377 11.825,8 C11.825,7.80842623 11.6696988,7.653125 11.478125,7.653125 L11.478125,7.65625 Z" id="Path" fill="#6DA544"></path>
                </g>
            </g>
        </g>
    </g>
</svg>