<?xml version="1.0" encoding="UTF-8"?>
<svg width="20px" height="20px" viewBox="0 0 20 20" version="1.1" xmlns="http://www.w3.org/2000/svg" xmlns:xlink="http://www.w3.org/1999/xlink">
    <title>gt_flag_20px</title>
    <defs>
        <circle id="path-1" cx="10" cy="10" r="10"></circle>
    </defs>
    <g id="Design-System" stroke="none" stroke-width="1" fill="none" fill-rule="evenodd">
        <g id="Flags-20x20" transform="translate(-201.000000, -705.000000)">
            <g id="flag" transform="translate(201.000000, 705.000000)">
                <mask id="mask-2" fill="white">
                    <use xlink:href="#path-1"></use>
                </mask>
                <use id="Mask" fill="#D8D8D8" xlink:href="#path-1"></use>
                <g id="gt" mask="url(#mask-2)" fill-rule="nonzero">
                    <polygon id="Path" fill="#338AF3" points="0 0 5.65234375 0 9.88671875 1.609375 14.3476562 0 20 0 20 20 14.3476562 20 10.0429688 18.3828125 5.65234375 20 0 20"></polygon>
                    <polygon id="Path" fill="#EEEEEE" points="5.65234375 0 14.3476562 0 14.3476562 20 5.65234375 20"></polygon>
                    <polygon id="Path" fill="#ACABB1" points="12.6132812 11.6914062 10.921875 10 12.53125 8.390625 12.4609375 7.5390625 12.0039063 7.078125 10.0039063 9.078125 8.00390625 7.078125 7.546875 7.5390625 7.46875 8.390625 9.08203125 10 7.390625 11.6914062 8.3125 12.6132813 10.0039063 10.921875 11.6953125 12.6132813"></polygon>
                    <path d="M12.4609375,7.5390625 L11.5390625,8.4609375 C12.1671046,9.08077661 12.3568039,10.0194223 12.0187584,10.8345068 C11.6807128,11.6495912 10.8823797,12.1784635 10,12.171875 C9.12134899,12.1707477 8.32961172,11.6412467 7.99300379,10.8296286 C7.65639585,10.0180104 7.8409904,9.08358866 8.4609375,8.4609375 L7.5390625,7.5390625 C6.18352411,8.89751326 6.1850979,11.0973942 7.54257857,12.4539041 C8.90005924,13.810414 11.0999408,13.810414 12.4574214,12.4539041 C13.8149021,11.0973942 13.8164759,8.89751326 12.4609375,7.5390625 L12.4609375,7.5390625 Z" id="Path" fill="#6DA544"></path>
                </g>
            </g>
        </g>
    </g>
</svg>