<?xml version="1.0" encoding="UTF-8"?>
<svg width="16px" height="16px" viewBox="0 0 16 16" version="1.1" xmlns="http://www.w3.org/2000/svg" xmlns:xlink="http://www.w3.org/1999/xlink">
    <title>gt_flag_16px</title>
    <defs>
        <circle id="path-1" cx="8" cy="8" r="8"></circle>
    </defs>
    <g id="Design-System" stroke="none" stroke-width="1" fill="none" fill-rule="evenodd">
        <g id="Flags-16x16" transform="translate(-201.000000, -705.000000)">
            <g id="flag" transform="translate(201.000000, 705.000000)">
                <mask id="mask-2" fill="white">
                    <use xlink:href="#path-1"></use>
                </mask>
                <use id="Mask" fill="#D8D8D8" xlink:href="#path-1"></use>
                <g id="gt" mask="url(#mask-2)" fill-rule="nonzero">
                    <polygon id="Path" fill="#338AF3" points="0 0 4.521875 0 7.909375 1.2875 11.478125 0 16 0 16 16 11.478125 16 8.034375 14.70625 4.521875 16 0 16"></polygon>
                    <polygon id="Path" fill="#EEEEEE" points="4.521875 0 11.478125 0 11.478125 16 4.521875 16"></polygon>
                    <polygon id="Path" fill="#ACABB1" points="10.090625 9.353125 8.7375 8 10.025 6.7125 9.96875 6.03125 9.603125 5.6625 8.003125 7.2625 6.403125 5.6625 6.0375 6.03125 5.975 6.7125 7.265625 8 5.9125 9.353125 6.65 10.090625 8.003125 8.7375 9.35625 10.090625"></polygon>
                    <path d="M9.96875,6.03125 L9.23125,6.76875 C9.73368367,7.26462129 9.88544313,8.01553788 9.6150067,8.66760541 C9.34457027,9.31967294 8.70590378,9.74277077 8,9.7375 C7.29707919,9.73659815 6.66368938,9.31299734 6.39440303,8.66370285 C6.12511668,8.01440835 6.27279232,7.26687093 6.76875,6.76875 L6.03125,6.03125 C4.94681929,7.11801061 4.94807832,8.87791538 6.03406286,9.96312328 C7.12004739,11.0483312 8.87995261,11.0483312 9.96593714,9.96312328 C11.0519217,8.87791538 11.0531807,7.11801061 9.96875,6.03125 L9.96875,6.03125 Z" id="Path" fill="#6DA544"></path>
                </g>
            </g>
        </g>
    </g>
</svg>