<?xml version="1.0" encoding="UTF-8"?>
<svg width="20px" height="20px" viewBox="0 0 20 20" version="1.1" xmlns="http://www.w3.org/2000/svg" xmlns:xlink="http://www.w3.org/1999/xlink">
    <title>gu_flag_20px</title>
    <defs>
        <circle id="path-1" cx="10" cy="10" r="10"></circle>
    </defs>
    <g id="Design-System" stroke="none" stroke-width="1" fill="none" fill-rule="evenodd">
        <g id="Flags-20x20" transform="translate(-251.000000, -705.000000)">
            <g id="flag" transform="translate(251.000000, 705.000000)">
                <mask id="mask-2" fill="white">
                    <use xlink:href="#path-1"></use>
                </mask>
                <use id="Mask" fill="#D8D8D8" xlink:href="#path-1"></use>
                <g id="gu" mask="url(#mask-2)" fill-rule="nonzero">
                    <polygon id="Path" fill="#D80027" points="0 0 20 0 20 1.7421875 18.390625 9.8359375 20 18.265625 20 20 0 20 0 18.265625 1.484375 9.7109375 0 1.7421875"></polygon>
                    <polygon id="Path" fill="#0052B4" points="0 1.7421875 20 1.7421875 20 18.265625 0 18.265625"></polygon>
                    <path d="M9.43359375,16.3164063 C9.296875,16.1992188 6.0859375,13.40625 6.0859375,10.0039063 C6.0859375,6.60546875 9.296875,3.80859375 9.43359375,3.69140625 L10,3.20703125 L10.5664062,3.69140625 C10.703125,3.80859375 13.9140625,6.59765625 13.9140625,10.0039063 C13.9140625,13.4101563 10.703125,16.1992188 10.5664062,16.3164063 L10,16.8007812 L9.43359375,16.3164063 Z" id="Path" fill="#D80027"></path>
                    <path d="M13.046875,10.0039062 C13.046875,6.95703125 10,4.3515625 10,4.3515625 C10,4.3515625 6.953125,6.9609375 6.953125,10.0039062 C6.97495464,10.915025 7.20902114,11.8084902 7.63671875,12.6132813 L12.3632813,12.6132813 C12.7896205,11.8081577 13.0223448,10.9147102 13.0429688,10.0039063 L13.046875,10.0039062 Z" id="Path" fill="#338AF3"></path>
                    <path d="M13.046875,10.0039062 C13.0250454,10.915025 12.7909789,11.8084902 12.3632813,12.6132813 L10,13.046875 L7.63671875,12.6171875 C7.20979202,11.8108898 6.97704991,10.9160365 6.95703125,10.0039062 L13.0429688,10.0039062 L13.046875,10.0039062 Z" id="Path" fill="#0052B4"></path>
                    <path d="M10,15.65625 C10,15.65625 11.4648438,14.3984375 12.3632812,12.609375 L7.63671875,12.609375 C8.53515625,14.3984375 10,15.65625 10,15.65625 Z" id="Path" fill="#FFDA44"></path>
                    <polygon id="Path" fill="#6DA544" points="8.046875 8.265625 11.953125 8.265625 10 10.21875"></polygon>
                    <polygon id="Path" fill="#A2001D" points="9.34765625 9.5703125 10.6523438 9.5703125 10.6523438 13.4804688 9.34765625 13.4804688"></polygon>
                </g>
            </g>
        </g>
    </g>
</svg>