<?xml version="1.0" encoding="UTF-8"?>
<svg width="16px" height="16px" viewBox="0 0 16 16" version="1.1" xmlns="http://www.w3.org/2000/svg" xmlns:xlink="http://www.w3.org/1999/xlink">
    <title>gu_flag_16px</title>
    <defs>
        <circle id="path-1" cx="8" cy="8" r="8"></circle>
    </defs>
    <g id="Design-System" stroke="none" stroke-width="1" fill="none" fill-rule="evenodd">
        <g id="Flags-16x16" transform="translate(-251.000000, -705.000000)">
            <g id="flag" transform="translate(251.000000, 705.000000)">
                <mask id="mask-2" fill="white">
                    <use xlink:href="#path-1"></use>
                </mask>
                <use id="Mask" fill="#D8D8D8" xlink:href="#path-1"></use>
                <g id="gu" mask="url(#mask-2)" fill-rule="nonzero">
                    <polygon id="Path" fill="#D80027" points="0 0 16 0 16 1.39375 14.7125 7.86875 16 14.6125 16 16 0 16 0 14.6125 1.1875 7.76875 0 1.39375"></polygon>
                    <polygon id="Path" fill="#0052B4" points="0 1.39375 16 1.39375 16 14.6125 0 14.6125"></polygon>
                    <path d="M7.546875,13.053125 C7.4375,12.959375 4.86875,10.725 4.86875,8.003125 C4.86875,5.284375 7.4375,3.046875 7.546875,2.953125 L8,2.565625 L8.453125,2.953125 C8.5625,3.046875 11.13125,5.278125 11.13125,8.003125 C11.13125,10.728125 8.5625,12.959375 8.453125,13.053125 L8,13.440625 L7.546875,13.053125 Z" id="Path" fill="#D80027"></path>
                    <path d="M10.4375,8.003125 C10.4375,5.565625 8,3.48125 8,3.48125 C8,3.48125 5.5625,5.56875 5.5625,8.003125 C5.57996371,8.73201997 5.76721691,9.44679218 6.109375,10.090625 L9.890625,10.090625 C10.2316964,9.44652612 10.4178759,8.73176815 10.434375,8.003125 L10.4375,8.003125 Z" id="Path" fill="#338AF3"></path>
                    <path d="M10.4375,8.003125 C10.4200363,8.73201997 10.2327831,9.44679218 9.890625,10.090625 L8,10.4375 L6.109375,10.09375 C5.76783361,9.44871185 5.58163993,8.73282923 5.565625,8.003125 L10.434375,8.003125 L10.4375,8.003125 Z" id="Path" fill="#0052B4"></path>
                    <path d="M8,12.525 C8,12.525 9.171875,11.51875 9.890625,10.0875 L6.109375,10.0875 C6.828125,11.51875 8,12.525 8,12.525 Z" id="Path" fill="#FFDA44"></path>
                    <polygon id="Path" fill="#6DA544" points="6.4375 6.6125 9.5625 6.6125 8 8.175"></polygon>
                    <polygon id="Path" fill="#A2001D" points="7.478125 7.65625 8.521875 7.65625 8.521875 10.784375 7.478125 10.784375"></polygon>
                </g>
            </g>
        </g>
    </g>
</svg>