<?xml version="1.0" encoding="UTF-8"?>
<svg width="16px" height="16px" viewBox="0 0 16 16" version="1.1" xmlns="http://www.w3.org/2000/svg" xmlns:xlink="http://www.w3.org/1999/xlink">
    <title>guarani_flag_16px</title>
    <defs>
        <circle id="path-1" cx="8" cy="8" r="8"></circle>
    </defs>
    <g id="Design-System" stroke="none" stroke-width="1" fill="none" fill-rule="evenodd">
        <g id="Flags-16x16" transform="translate(-301.000000, -705.000000)">
            <g id="flag" transform="translate(301.000000, 705.000000)">
                <mask id="mask-2" fill="white">
                    <use xlink:href="#path-1"></use>
                </mask>
                <use id="Mask" fill="#D8D8D8" xlink:href="#path-1"></use>
                <g id="guarani" mask="url(#mask-2)" fill-rule="nonzero">
                    <polygon id="Path" fill="#EEEEEE" points="0 5.21875 8 4.21875 16 5.21875 16 10.78125 8 11.78125 0 10.78125"></polygon>
                    <polygon id="Path" fill="#D80027" points="0 0 16 0 16 5.21875 0 5.21875"></polygon>
                    <polygon id="Path" fill="#0052B4" points="0 10.78125 16 10.78125 16 16 0 16"></polygon>
                    <path d="M8,2.5 C4.96243388,2.5 2.5,4.96243388 2.5,8 C2.5,11.0375661 4.96243388,13.5 8,13.5 C9.45869069,13.5 10.8576372,12.9205374 11.8890873,11.8890873 C12.9205374,10.8576372 13.5,9.45869069 13.5,8 C13.5,4.96243388 11.0375661,2.5 8,2.5 Z M8,3 C10.7614237,3 13,5.23857625 13,8 C13,10.7614237 10.7614237,13 8,13 C5.23857625,13 3,10.7614237 3,8 C3,5.23857625 5.23857625,3 8,3 Z M8,3.21875 C7.44771525,3.21875 7,3.66646525 7,4.21875 C6.99570043,4.63004822 7.24368643,5.00202721 7.625,5.15625 L7.625,6.03125 C7.35625162,6.08300329 7.10098492,6.18936441 6.875,6.34375 L6.25,5.71875 C6.40606919,5.34358378 6.31960857,4.91128066 6.03125,4.625 C5.84416731,4.42737534 5.58462372,4.3145303 5.3125,4.3125 C5.05129721,4.32280447 4.80451342,4.43497892 4.625,4.625 C4.23975502,5.01459603 4.23975502,5.64165397 4.625,6.03125 C4.91128066,6.31960857 5.34358378,6.40606919 5.71875,6.25 L6.34375,6.875 C6.18936441,7.10098492 6.08300329,7.35625162 6.03125,7.625 L5.125,7.625 C4.97509485,7.25417413 4.61864216,7.0083447 4.21875,7 C3.66646525,7 3.21875,7.44771525 3.21875,8 C3.21875,8.55228475 3.66646525,9 4.21875,9 C4.61864216,8.9916553 4.97509485,8.74582587 5.125,8.375 L6.03125,8.375 C6.08300329,8.64374838 6.18936441,8.89901508 6.34375,9.125 L5.71875,9.75 C5.34358378,9.59393081 4.91128066,9.68039143 4.625,9.96875 C4.23975502,10.358346 4.23975502,10.985404 4.625,11.375 C5.01459603,11.760245 5.64165397,11.760245 6.03125,11.375 C6.31960857,11.0887193 6.40606919,10.6564162 6.25,10.28125 L6.875,9.65625 C7.10098492,9.81063559 7.35625162,9.91699671 7.625,9.96875 L7.625,10.84375 C7.24368643,10.9979728 6.99570043,11.3699518 7,11.78125 C7,12.3335347 7.44771525,12.78125 8,12.78125 C8.55228475,12.78125 9,12.3335347 9,11.78125 C9.00429957,11.3699518 8.75631357,10.9979728 8.375,10.84375 L8.375,9.96875 C8.64374838,9.91699671 8.89901508,9.81063559 9.125,9.65625 L9.75,10.28125 C9.59393081,10.6564162 9.68039143,11.0887193 9.96875,11.375 C10.358346,11.760245 10.985404,11.760245 11.375,11.375 C11.760245,10.985404 11.760245,10.358346 11.375,9.96875 C11.0887193,9.68039143 10.6564162,9.59393081 10.28125,9.75 L9.65625,9.125 C9.81063559,8.89901508 9.91699671,8.64374838 9.96875,8.375 L10.84375,8.375 C10.9979728,8.75631357 11.3699518,9.00429957 11.78125,9 C12.3335347,9 12.78125,8.55228475 12.78125,8 C12.78125,7.44771525 12.3335347,7 11.78125,7 C11.3699518,6.99570043 10.9979728,7.24368643 10.84375,7.625 L9.96875,7.625 C9.91699671,7.35625162 9.81063559,7.10098492 9.65625,6.875 L10.28125,6.25 C10.6564162,6.40606919 11.0887193,6.31960857 11.375,6.03125 C11.760245,5.64165397 11.760245,5.01459603 11.375,4.625 C11.1954866,4.43497892 10.9487028,4.32280447 10.6875,4.3125 C10.4153763,4.3145303 10.1558327,4.42737534 9.96875,4.625 C9.68039143,4.91128066 9.59393081,5.34358378 9.75,5.71875 L9.125,6.34375 C8.89901508,6.18936441 8.64374838,6.08300329 8.375,6.03125 L8.375,5.15625 C8.75631357,5.00202721 9.00429957,4.63004822 9,4.21875 C9,3.66646525 8.55228475,3.21875 8,3.21875 Z M8,6.5 C8.82842712,6.5 9.5,7.17157288 9.5,8 C9.5,8.82842712 8.82842712,9.5 8,9.5 C7.17157288,9.5 6.5,8.82842712 6.5,8 C6.5,7.17157288 7.17157288,6.5 8,6.5 Z M8,7 C7.44771525,7 7,7.44771525 7,8 C7,8.55228475 7.44771525,9 8,9 C8.55228475,9 9,8.55228475 9,8 C9,7.44771525 8.55228475,7 8,7 Z" id="Shape" fill="#333333"></path>
                </g>
            </g>
        </g>
    </g>
</svg>