<?xml version="1.0" encoding="UTF-8"?>
<svg width="20px" height="20px" viewBox="0 0 20 20" version="1.1" xmlns="http://www.w3.org/2000/svg" xmlns:xlink="http://www.w3.org/1999/xlink">
    <title>guarani_flag_20px</title>
    <defs>
        <circle id="path-1" cx="10" cy="10" r="10"></circle>
    </defs>
    <g id="Design-System" stroke="none" stroke-width="1" fill="none" fill-rule="evenodd">
        <g id="Flags-20x20" transform="translate(-301.000000, -705.000000)">
            <g id="flag" transform="translate(301.000000, 705.000000)">
                <mask id="mask-2" fill="white">
                    <use xlink:href="#path-1"></use>
                </mask>
                <use id="Mask" fill="#D8D8D8" xlink:href="#path-1"></use>
                <g id="guarani" mask="url(#mask-2)" fill-rule="nonzero">
                    <polygon id="Path" fill="#EEEEEE" points="0 6.5234375 10 5.2734375 20 6.5234375 20 13.4765625 10 14.7265625 0 13.4765625"></polygon>
                    <polygon id="Path" fill="#D80027" points="0 0 20 0 20 6.5234375 0 6.5234375"></polygon>
                    <polygon id="Path" fill="#0052B4" points="0 13.4765625 20 13.4765625 20 20 0 20"></polygon>
                    <path d="M10,3.125 C6.20304234,3.125 3.125,6.20304234 3.125,10 C3.125,13.7969577 6.20304234,16.875 10,16.875 C11.8233634,16.875 13.5720465,16.1506717 14.8613591,14.8613591 C16.1506717,13.5720465 16.875,11.8233634 16.875,10 C16.875,6.20304234 13.7969577,3.125 10,3.125 Z M10,3.75 C13.4517797,3.75 16.25,6.54822031 16.25,10 C16.25,13.4517797 13.4517797,16.25 10,16.25 C6.54822031,16.25 3.75,13.4517797 3.75,10 C3.75,6.54822031 6.54822031,3.75 10,3.75 Z M10,4.0234375 C9.30964406,4.0234375 8.75,4.58308156 8.75,5.2734375 C8.74462553,5.78756027 9.05460803,6.25253402 9.53125,6.4453125 L9.53125,7.5390625 C9.19531452,7.60375411 8.87623116,7.73670552 8.59375,7.9296875 L7.8125,7.1484375 C8.00758649,6.67947973 7.89951071,6.13910083 7.5390625,5.78125 C7.30520914,5.53421917 6.98077965,5.39316287 6.640625,5.390625 C6.31412152,5.40350559 6.00564178,5.54372366 5.78125,5.78125 C5.29969378,6.26824504 5.29969378,7.05206746 5.78125,7.5390625 C6.13910083,7.89951071 6.67947973,8.00758649 7.1484375,7.8125 L7.9296875,8.59375 C7.73670552,8.87623116 7.60375411,9.19531452 7.5390625,9.53125 L6.40625,9.53125 C6.21886856,9.06771767 5.77330271,8.76043087 5.2734375,8.75 C4.58308156,8.75 4.0234375,9.30964406 4.0234375,10 C4.0234375,10.6903559 4.58308156,11.25 5.2734375,11.25 C5.77330271,11.2395691 6.21886856,10.9322823 6.40625,10.46875 L7.5390625,10.46875 C7.60375411,10.8046855 7.73670552,11.1237688 7.9296875,11.40625 L7.1484375,12.1875 C6.67947973,11.9924135 6.13910083,12.1004893 5.78125,12.4609375 C5.29969378,12.9479325 5.29969378,13.731755 5.78125,14.21875 C6.26824504,14.7003062 7.05206746,14.7003062 7.5390625,14.21875 C7.89951071,13.8608992 8.00758649,13.3205203 7.8125,12.8515625 L8.59375,12.0703125 C8.87623116,12.2632945 9.19531452,12.3962459 9.53125,12.4609375 L9.53125,13.5546875 C9.05460803,13.747466 8.74462553,14.2124397 8.75,14.7265625 C8.75,15.4169184 9.30964406,15.9765625 10,15.9765625 C10.6903559,15.9765625 11.25,15.4169184 11.25,14.7265625 C11.2553745,14.2124397 10.945392,13.747466 10.46875,13.5546875 L10.46875,12.4609375 C10.8046855,12.3962459 11.1237688,12.2632945 11.40625,12.0703125 L12.1875,12.8515625 C11.9924135,13.3205203 12.1004893,13.8608992 12.4609375,14.21875 C12.9479325,14.7003062 13.731755,14.7003062 14.21875,14.21875 C14.7003062,13.731755 14.7003062,12.9479325 14.21875,12.4609375 C13.8608992,12.1004893 13.3205203,11.9924135 12.8515625,12.1875 L12.0703125,11.40625 C12.2632945,11.1237688 12.3962459,10.8046855 12.4609375,10.46875 L13.5546875,10.46875 C13.747466,10.945392 14.2124397,11.2553745 14.7265625,11.25 C15.4169184,11.25 15.9765625,10.6903559 15.9765625,10 C15.9765625,9.30964406 15.4169184,8.75 14.7265625,8.75 C14.2124397,8.74462553 13.747466,9.05460803 13.5546875,9.53125 L12.4609375,9.53125 C12.3962459,9.19531452 12.2632945,8.87623116 12.0703125,8.59375 L12.8515625,7.8125 C13.3205203,8.00758649 13.8608992,7.89951071 14.21875,7.5390625 C14.7003062,7.05206746 14.7003062,6.26824504 14.21875,5.78125 C13.9943582,5.54372366 13.6858785,5.40350559 13.359375,5.390625 C13.0192203,5.39316287 12.6947909,5.53421917 12.4609375,5.78125 C12.1004893,6.13910083 11.9924135,6.67947973 12.1875,7.1484375 L11.40625,7.9296875 C11.1237688,7.73670552 10.8046855,7.60375411 10.46875,7.5390625 L10.46875,6.4453125 C10.945392,6.25253402 11.2553745,5.78756027 11.25,5.2734375 C11.25,4.58308156 10.6903559,4.0234375 10,4.0234375 Z M10,8.125 C11.0355339,8.125 11.875,8.96446609 11.875,10 C11.875,11.0355339 11.0355339,11.875 10,11.875 C8.96446609,11.875 8.125,11.0355339 8.125,10 C8.125,8.96446609 8.96446609,8.125 10,8.125 Z M10,8.75 C9.30964406,8.75 8.75,9.30964406 8.75,10 C8.75,10.6903559 9.30964406,11.25 10,11.25 C10.6903559,11.25 11.25,10.6903559 11.25,10 C11.25,9.30964406 10.6903559,8.75 10,8.75 Z" id="Shape" fill="#333333"></path>
                </g>
            </g>
        </g>
    </g>
</svg>