<?xml version="1.0" encoding="UTF-8"?>
<svg width="20px" height="20px" viewBox="0 0 20 20" version="1.1" xmlns="http://www.w3.org/2000/svg" xmlns:xlink="http://www.w3.org/1999/xlink">
    <title>hausa_flag_20px</title>
    <defs>
        <circle id="path-1" cx="10" cy="10" r="10"></circle>
    </defs>
    <g id="Design-System" stroke="none" stroke-width="1" fill="none" fill-rule="evenodd">
        <g id="Flags-20x20" transform="translate(-451.000000, -705.000000)">
            <g id="flag" transform="translate(451.000000, 705.000000)">
                <mask id="mask-2" fill="white">
                    <use xlink:href="#path-1"></use>
                </mask>
                <use id="Mask" fill="#D8D8D8" xlink:href="#path-1"></use>
                <g id="hausa" mask="url(#mask-2)" fill-rule="nonzero">
                    <polygon id="Path" fill="#EEEEEE" points="0 0 20 0 20 20 0 20"></polygon>
                    <polygon id="Path" fill="#6DA544" points="8.515625 6.015625 10 2.734375 11.484375 6.015625 6.015625 11.484375 2.734375 10 6.015625 8.515625 11.484375 13.984375 10 17.265625 8.515625 13.984375 13.984375 8.515625 17.265625 10 13.984375 11.484375"></polygon>
                    <path d="M9.55078125,1.15234375 C9.55078125,2.734375 9.11328125,4.21875 8.3515625,5.48046875 L6.4375,3.56640625 C5.74986965,2.8805198 4.6368491,2.8805198 3.94921875,3.56640625 L3.5625,3.94921875 C2.87661355,4.6368491 2.87661355,5.74986965 3.5625,6.4375 L5.48046875,8.3515625 C4.17400668,9.13826337 2.67738038,9.55294232 1.15234375,9.55078125 L1.15234375,10.4492188 C2.734375,10.4492188 4.21875,10.8867187 5.48046875,11.6484375 L3.56640625,13.5625 C2.8805198,14.2501303 2.8805198,15.3631509 3.56640625,16.0507812 L3.94921875,16.4375 C4.6368491,17.1233864 5.74986965,17.1233864 6.4375,16.4375 L8.3515625,14.5195312 C9.13826337,15.8259933 9.55294232,17.3226196 9.55078125,18.8476562 L10.4492188,18.8476562 C10.4492188,17.265625 10.8867188,15.78125 11.6484375,14.5195312 L13.5625,16.4335937 C14.2501303,17.1194802 15.3631509,17.1194802 16.0507812,16.4335937 L16.4375,16.0507812 C17.1233864,15.3631509 17.1233864,14.2501303 16.4375,13.5625 L14.5195312,11.6484375 C15.8259933,10.8617366 17.3226196,10.4470577 18.8476562,10.4492187 L18.8476562,9.55078125 C17.265625,9.55078125 15.78125,9.11328125 14.5195312,8.3515625 L16.4335937,6.4375 C17.1194802,5.74986965 17.1194802,4.6368491 16.4335937,3.94921875 L16.0507812,3.5625 C15.3631509,2.87661355 14.2501303,2.87661355 13.5625,3.5625 L11.6484375,5.48046875 C10.8617366,4.17400668 10.4470577,2.67738038 10.4492187,1.15234375 L9.55078125,1.15234375 L9.55078125,1.15234375 Z M10,3.6015625 C10.2387494,4.46533958 10.6033334,5.28927318 11.0820312,6.046875 L10,7.12890625 L8.91796875,6.046875 C9.39666657,5.28927318 9.76125061,4.46533958 10,3.6015625 L10,3.6015625 Z M5.1953125,3.82812344 C5.45369624,3.82973196 5.70091182,3.93367487 5.8828125,4.1171875 L7.9140625,6.140625 C7.41431062,6.81547096 6.8165713,7.41189367 6.140625,7.91015625 L4.1171875,5.8828125 C3.93179504,5.70131585 3.82730882,5.45280378 3.82730882,5.19335937 C3.82730882,4.93391497 3.93179504,4.6854029 4.1171875,4.50390625 L4.50390625,4.11328125 C4.68740378,3.93024619 4.93613503,3.82766212 5.1953125,3.82812344 Z M14.8046875,3.828125 C15.0546875,3.828125 15.3046875,3.921875 15.4960938,4.1171875 L15.8867188,4.50390625 C16.0721112,4.6854029 16.1765974,4.93391497 16.1765974,5.19335938 C16.1765974,5.45280378 16.0721112,5.70131585 15.8867188,5.8828125 L13.8554688,7.9140625 C13.1822939,7.41520032 12.587217,6.81880691 12.0898438,6.14453125 L14.1171875,4.11328125 C14.2997267,3.93120168 14.5468635,3.82869605 14.8046875,3.828125 Z M8.46484375,6.69921875 L9.44921875,7.6796875 L7.6796875,9.44921875 L6.6953125,8.46484375 C7.36262143,7.95791625 7.95791625,7.36262143 8.46484375,6.6953125 L8.46484375,6.69921875 Z M11.5351562,6.69921875 C12.0411551,7.36488843 12.6351116,7.95884492 13.3007812,8.46484375 L12.3203125,9.44921875 L10.5507812,7.6796875 L11.5351562,6.69921875 L11.5351562,6.69921875 Z M10,8.2265625 L11.7695312,9.99609375 L10,11.765625 L8.23046875,9.99609375 L10,8.2265625 L10,8.2265625 Z M6.046875,8.9140625 L7.12890625,9.99609375 L6.046875,11.078125 C5.2890447,10.6007915 4.46512164,10.2375283 3.6015625,10 C4.46533958,9.76125061 5.28927318,9.39666657 6.046875,8.91796875 L6.046875,8.9140625 Z M13.953125,8.9140625 C14.7107268,9.39276032 15.5346604,9.75734436 16.3984375,9.99609375 C15.5346604,10.2348431 14.7107268,10.5994272 13.953125,11.078125 L12.8710938,10 L13.953125,8.91796875 L13.953125,8.9140625 Z M7.6796875,10.546875 L9.44921875,12.3164062 L8.46484375,13.296875 C7.95764407,12.6309454 7.36236139,12.0369768 6.6953125,11.53125 L7.6796875,10.546875 L7.6796875,10.546875 Z M12.3203125,10.546875 L13.3007813,11.53125 C12.6348516,12.0384497 12.040883,12.6337324 11.5351562,13.3007812 L10.5507812,12.3164062 L12.3203125,10.546875 Z M6.14453125,12.0859375 C6.8177061,12.5847997 7.41278296,13.1811931 7.91015625,13.8554687 L5.8828125,15.8789062 C5.70131585,16.0642987 5.45280378,16.1687849 5.19335938,16.1687849 C4.93391497,16.1687849 4.6854029,16.0642987 4.50390625,15.8789062 L4.11328125,15.4921875 C3.92788879,15.3106908 3.82340257,15.0621788 3.82340257,14.8027344 C3.82340257,14.54329 3.92788879,14.2947779 4.11328125,14.1132812 L6.14453125,12.0859375 L6.14453125,12.0859375 Z M13.8554688,12.0859375 L15.8867188,14.1132812 C16.0721112,14.2947779 16.1765974,14.54329 16.1765974,14.8027344 C16.1765974,15.0621788 16.0721112,15.3106908 15.8867188,15.4921875 L15.4960938,15.8828125 C15.3145971,16.068205 15.066085,16.1726912 14.8066406,16.1726912 C14.5471962,16.1726912 14.2986842,16.068205 14.1171875,15.8828125 L12.0859375,13.8515625 C12.585989,13.1781023 13.1837137,12.5830108 13.859375,12.0859375 L13.8554688,12.0859375 Z M10,12.8671875 L11.0820312,13.9492187 C10.6033334,14.7068206 10.2387494,15.5307542 10,16.3945312 C9.76125061,15.5307542 9.39666657,14.7068206 8.91796875,13.9492187 L10,12.8671875 L10,12.8671875 Z" id="Shape" fill="#333333"></path>
                </g>
            </g>
        </g>
    </g>
</svg>