<?xml version="1.0" encoding="UTF-8"?>
<svg width="16px" height="16px" viewBox="0 0 16 16" version="1.1" xmlns="http://www.w3.org/2000/svg" xmlns:xlink="http://www.w3.org/1999/xlink">
    <title>hausa_flag_16px</title>
    <defs>
        <circle id="path-1" cx="8" cy="8" r="8"></circle>
    </defs>
    <g id="Design-System" stroke="none" stroke-width="1" fill="none" fill-rule="evenodd">
        <g id="Flags-16x16" transform="translate(-451.000000, -705.000000)">
            <g id="flag" transform="translate(451.000000, 705.000000)">
                <mask id="mask-2" fill="white">
                    <use xlink:href="#path-1"></use>
                </mask>
                <use id="Mask" fill="#D8D8D8" xlink:href="#path-1"></use>
                <g id="hausa" mask="url(#mask-2)" fill-rule="nonzero">
                    <polygon id="Path" fill="#EEEEEE" points="0 0 16 0 16 16 0 16"></polygon>
                    <polygon id="Path" fill="#6DA544" points="6.8125 4.8125 8 2.1875 9.1875 4.8125 4.8125 9.1875 2.1875 8 4.8125 6.8125 9.1875 11.1875 8 13.8125 6.8125 11.1875 11.1875 6.8125 13.8125 8 11.1875 9.1875"></polygon>
                    <path d="M7.640625,0.921875 C7.640625,2.1875 7.290625,3.375 6.68125,4.384375 L5.15,2.853125 C4.59989572,2.30441584 3.70947928,2.30441584 3.159375,2.853125 L2.85,3.159375 C2.30129084,3.70947928 2.30129084,4.59989572 2.85,5.15 L4.384375,6.68125 C3.33920534,7.3106107 2.14190431,7.64235386 0.921875,7.640625 L0.921875,8.359375 C2.1875,8.359375 3.375,8.709375 4.384375,9.31875 L2.853125,10.85 C2.30441584,11.4001043 2.30441584,12.2905207 2.853125,12.840625 L3.159375,13.15 C3.70947928,13.6987092 4.59989572,13.6987092 5.15,13.15 L6.68125,11.615625 C7.3106107,12.6607947 7.64235386,13.8580957 7.640625,15.078125 L8.359375,15.078125 C8.359375,13.8125 8.709375,12.625 9.31875,11.615625 L10.85,13.146875 C11.4001043,13.6955842 12.2905207,13.6955842 12.840625,13.146875 L13.15,12.840625 C13.6987092,12.2905207 13.6987092,11.4001043 13.15,10.85 L11.615625,9.31875 C12.6607947,8.6893893 13.8580957,8.35764614 15.078125,8.359375 L15.078125,7.640625 C13.8125,7.640625 12.625,7.290625 11.615625,6.68125 L13.146875,5.15 C13.6955842,4.59989572 13.6955842,3.70947928 13.146875,3.159375 L12.840625,2.85 C12.2905207,2.30129084 11.4001043,2.30129084 10.85,2.85 L9.31875,4.384375 C8.6893893,3.33920534 8.35764614,2.14190431 8.359375,0.921875 L7.640625,0.921875 L7.640625,0.921875 Z M8,2.88125 C8.19099951,3.57227167 8.48266674,4.23141855 8.865625,4.8375 L8,5.703125 L7.134375,4.8375 C7.51733326,4.23141855 7.80900049,3.57227167 8,2.88125 L8,2.88125 Z M4.15625,3.06249875 C4.36295699,3.06378556 4.56072946,3.1469399 4.70625,3.29375 L6.33125,4.9125 C5.9314485,5.45237677 5.45325704,5.92951494 4.9125,6.328125 L3.29375,4.70625 C3.14543603,4.56105268 3.06184706,4.36224302 3.06184706,4.1546875 C3.06184706,3.94713198 3.14543603,3.74832232 3.29375,3.603125 L3.603125,3.290625 C3.74992302,3.14419695 3.94890803,3.06212969 4.15625,3.06249875 Z M11.84375,3.0625 C12.04375,3.0625 12.24375,3.1375 12.396875,3.29375 L12.709375,3.603125 C12.857689,3.74832232 12.9412779,3.94713198 12.9412779,4.1546875 C12.9412779,4.36224302 12.857689,4.56105268 12.709375,4.70625 L11.084375,6.33125 C10.5458351,5.93216025 10.0697736,5.45504553 9.671875,4.915625 L11.29375,3.290625 C11.4397813,3.14496134 11.6374908,3.06295684 11.84375,3.0625 Z M6.771875,5.359375 L7.559375,6.14375 L6.14375,7.559375 L5.35625,6.771875 C5.89009715,6.366333 6.366333,5.89009715 6.771875,5.35625 L6.771875,5.359375 Z M9.228125,5.359375 C9.63292406,5.89191075 10.1080893,6.36707594 10.640625,6.771875 L9.85625,7.559375 L8.440625,6.14375 L9.228125,5.359375 L9.228125,5.359375 Z M8,6.58125 L9.415625,7.996875 L8,9.4125 L6.584375,7.996875 L8,6.58125 L8,6.58125 Z M4.8375,7.13125 L5.703125,7.996875 L4.8375,8.8625 C4.23123576,8.48063317 3.57209731,8.19002261 2.88125,8 C3.57227167,7.80900049 4.23141855,7.51733326 4.8375,7.134375 L4.8375,7.13125 Z M11.1625,7.13125 C11.7685815,7.51420826 12.4277283,7.80587549 13.11875,7.996875 C12.4277283,8.18787451 11.7685815,8.47954174 11.1625,8.8625 L10.296875,8 L11.1625,7.134375 L11.1625,7.13125 Z M6.14375,8.4375 L7.559375,9.853125 L6.771875,10.6375 C6.36611526,10.1047563 5.88988911,9.62958142 5.35625,9.225 L6.14375,8.4375 L6.14375,8.4375 Z M9.85625,8.4375 L10.640625,9.225 C10.1078813,9.63075974 9.63270642,10.1069859 9.228125,10.640625 L8.440625,9.853125 L9.85625,8.4375 Z M4.915625,9.66875 C5.45416488,10.0678397 5.93022637,10.5449545 6.328125,11.084375 L4.70625,12.703125 C4.56105268,12.851439 4.36224302,12.9350279 4.1546875,12.9350279 C3.94713198,12.9350279 3.74832232,12.851439 3.603125,12.703125 L3.290625,12.39375 C3.14231103,12.2485527 3.05872206,12.049743 3.05872206,11.8421875 C3.05872206,11.634632 3.14231103,11.4358223 3.290625,11.290625 L4.915625,9.66875 L4.915625,9.66875 Z M11.084375,9.66875 L12.709375,11.290625 C12.857689,11.4358223 12.9412779,11.634632 12.9412779,11.8421875 C12.9412779,12.049743 12.857689,12.2485527 12.709375,12.39375 L12.396875,12.70625 C12.2516777,12.854564 12.052868,12.9381529 11.8453125,12.9381529 C11.637757,12.9381529 11.4389473,12.854564 11.29375,12.70625 L9.66875,11.08125 C10.0687912,10.5424819 10.5469709,10.0664087 11.0875,9.66875 L11.084375,9.66875 Z M8,10.29375 L8.865625,11.159375 C8.48266674,11.7654565 8.19099951,12.4246033 8,13.115625 C7.80900049,12.4246033 7.51733326,11.7654565 7.134375,11.159375 L8,10.29375 L8,10.29375 Z" id="Shape" fill="#333333"></path>
                </g>
            </g>
        </g>
    </g>
</svg>