<?xml version="1.0" encoding="UTF-8"?>
<svg width="20px" height="20px" viewBox="0 0 20 20" version="1.1" xmlns="http://www.w3.org/2000/svg" xmlns:xlink="http://www.w3.org/1999/xlink">
    <title>hk_flag_20px</title>
    <defs>
        <circle id="path-1" cx="10" cy="10" r="10"></circle>
    </defs>
    <g id="Design-System" stroke="none" stroke-width="1" fill="none" fill-rule="evenodd">
        <g id="Flags-20x20" transform="translate(-501.000000, -705.000000)">
            <g id="flag" transform="translate(501.000000, 705.000000)">
                <mask id="mask-2" fill="white">
                    <use xlink:href="#path-1"></use>
                </mask>
                <use id="Mask" fill="#D8D8D8" xlink:href="#path-1"></use>
                <g id="hk" mask="url(#mask-2)" fill-rule="nonzero">
                    <polygon id="Path" fill="#D80027" points="0 0 20 0 20 20 0 20"></polygon>
                    <path d="M11.03125,7.56640625 C10.8046875,8.51171875 10.4023438,8.33203125 10.203125,9.15625 C9.05716522,8.85651286 8.36152044,7.69514968 8.6380337,6.54336559 C8.91454696,5.3915815 10.0616122,4.67260485 11.21875,4.92578125 C10.8242187,6.57421875 11.234375,6.72265625 11.03125,7.56640625 L11.03125,7.56640625 Z M8.0078125,8.265625 C8.8359375,8.7734375 8.5390625,9.1015625 9.26171875,9.546875 C8.61354147,10.52162 7.31033111,10.8088338 6.31245794,10.196861 C5.31458477,9.58488823 4.97974348,8.29309476 5.5546875,7.2734375 C7,8.16015625 7.265625,7.8125 8.0078125,8.265625 L8.0078125,8.265625 Z M7.734375,11.3632812 C8.4765625,10.7304688 8.69921875,11.1132813 9.34375,10.5664063 C10.0607316,11.4848949 9.9268651,12.8051822 9.04011563,13.5610655 C8.15336616,14.3169487 6.82853775,14.2400826 6.03515625,13.3867188 C7.32421875,12.2851563 7.07421875,11.9257813 7.73828125,11.3632813 L7.734375,11.3632812 Z M10.6015625,12.5742188 C10.2265625,11.6757812 10.6601562,11.5859375 10.3359375,10.8046875 C11.4290542,10.4107596 12.6387996,10.9452458 13.0836192,12.0186604 C13.5284389,13.092075 13.0513446,14.3255823 12,14.8203125 C11.3515625,13.2578125 10.9335938,13.3789063 10.6015625,12.578125 L10.6015625,12.5742188 Z M12.640625,10.2304688 C11.6679688,10.3085938 11.7148437,9.8671875 10.8710937,9.93359375 C10.8176827,8.76085556 11.7042447,7.75720528 12.8746092,7.66547401 C14.0449736,7.57374274 15.0770779,8.42701107 15.2070312,9.59375 C13.515625,9.7265625 13.5039062,10.1601563 12.640625,10.2304688 L12.640625,10.2304688 Z" id="Shape" fill="#EEEEEE"></path>
                </g>
            </g>
        </g>
    </g>
</svg>