<?xml version="1.0" encoding="UTF-8"?>
<svg width="20px" height="20px" viewBox="0 0 20 20" version="1.1" xmlns="http://www.w3.org/2000/svg" xmlns:xlink="http://www.w3.org/1999/xlink">
    <title>hmong_flag_20px</title>
    <defs>
        <circle id="path-1" cx="10" cy="10" r="10"></circle>
    </defs>
    <g id="Design-System" stroke="none" stroke-width="1" fill="none" fill-rule="evenodd">
        <g id="Flags-20x20" transform="translate(-51.000000, -755.000000)">
            <g id="flag" transform="translate(51.000000, 755.000000)">
                <mask id="mask-2" fill="white">
                    <use xlink:href="#path-1"></use>
                </mask>
                <use id="Mask" fill="#D8D8D8" xlink:href="#path-1"></use>
                <g id="hmong" mask="url(#mask-2)" fill-rule="nonzero">
                    <polygon id="Path" fill="#D80027" points="0 0 20 0 20 20 0 20"></polygon>
                    <path d="M1.6015625,1.25 L0.625,1.9921875 L0.234375,2.8125 L0.703125,4.1015625 L0.15625,4.765625 L0.3515625,5.8203125 L0.8203125,4.8046875 L1.328125,5.5078125 L0,6.8359375 L2.109375,7.421875 L1.3671875,6.71875 L2.3046875,6.0546875 L3.2421875,6.71875 L2.5,7.421875 L4.609375,6.8359375 L3.28125,5.5078125 L3.7890625,4.8046875 L4.2578125,5.8203125 L4.453125,4.765625 L3.90625,4.1015625 L4.375,2.8125 L3.984375,1.9921875 L3.0078125,1.25 L3.671875,2.6953125 L2.7734375,3.6328125 L2.890625,2.6953125 L2.3046875,1.71875 L1.71875,2.6953125 L1.8359375,3.6328125 L0.9375,2.6953125 L1.6015625,1.25 Z M16.9921875,1.25 L16.015625,1.9921875 L15.625,2.8125 L16.09375,4.1015625 L15.546875,4.765625 L15.7421875,5.8203125 L16.2109375,4.8046875 L16.71875,5.5078125 L15.390625,6.8359375 L17.5,7.421875 L16.7578125,6.71875 L17.6953125,6.0546875 L18.6328125,6.71875 L17.890625,7.421875 L20,6.8359375 L18.671875,5.5078125 L19.1796875,4.8046875 L19.6484375,5.8203125 L19.84375,4.765625 L19.296875,4.1015625 L19.765625,2.8125 L19.375,1.9921875 L18.3984375,1.25 L19.0625,2.6953125 L18.1640625,3.6328125 L18.28125,2.6953125 L17.6953125,1.71875 L17.109375,2.6953125 L17.2265625,3.6328125 L16.328125,2.6953125 L16.9921875,1.25 Z M8.91796875,1.640625 L8.91796875,2.890625 L7.8359375,3.515625 L8.91796875,4.140625 L8.91796875,5.390625 L10,4.765625 L11.0820312,5.390625 L11.0820312,4.140625 L12.1640625,3.515625 L11.0820312,2.890625 L11.0820312,1.640625 L10,2.265625 L8.91796875,1.640625 Z M10,9.53125 C7.60532784,9.53125 5.6640625,11.4725153 5.6640625,13.8671875 C5.6640625,16.2618597 7.60532784,18.203125 10,18.203125 C12.3946722,18.203125 14.3359375,16.2618597 14.3359375,13.8671875 C14.3359375,11.4725153 12.3946722,9.53125 10,9.53125 Z M1.6015625,12.578125 L0.625,13.3203125 L0.234375,14.140625 L1.328125,16.8359375 L0,18.1640625 L2.109375,18.75 L1.3671875,18.046875 L2.3046875,17.3828125 L3.2421875,18.046875 L2.5,18.75 L4.609375,18.1640625 L3.28125,16.8359375 L4.375,14.140625 L3.984375,13.3203125 L3.0078125,12.578125 L3.671875,14.0234375 L2.7734375,14.9609375 L2.890625,14.0234375 L2.3046875,13.046875 L1.71875,14.0234375 L1.8359375,14.9609375 L0.9375,14.0234375 L1.6015625,12.578125 Z M16.9921875,12.578125 L16.015625,13.3203125 L15.625,14.140625 L16.71875,16.8359375 L15.390625,18.1640625 L17.5,18.75 L16.7578125,18.046875 L17.6953125,17.3828125 L18.6328125,18.046875 L17.890625,18.75 L20,18.1640625 L18.671875,16.8359375 L19.765625,14.140625 L19.375,13.3203125 L18.3984375,12.578125 L19.0625,14.0234375 L18.1640625,14.9609375 L18.28125,14.0234375 L17.6953125,13.046875 L17.109375,14.0234375 L17.2265625,14.9609375 L16.328125,14.0234375 L16.9921875,12.578125 Z" id="Shape" fill="#FFDA44"></path>
                </g>
            </g>
        </g>
    </g>
</svg>