<?xml version="1.0" encoding="UTF-8"?>
<svg width="16px" height="16px" viewBox="0 0 16 16" version="1.1" xmlns="http://www.w3.org/2000/svg" xmlns:xlink="http://www.w3.org/1999/xlink">
    <title>hmong_flag_16px</title>
    <defs>
        <circle id="path-1" cx="8" cy="8" r="8"></circle>
    </defs>
    <g id="Design-System" stroke="none" stroke-width="1" fill="none" fill-rule="evenodd">
        <g id="Flags-16x16" transform="translate(-51.000000, -755.000000)">
            <g id="flag" transform="translate(51.000000, 755.000000)">
                <mask id="mask-2" fill="white">
                    <use xlink:href="#path-1"></use>
                </mask>
                <use id="Mask" fill="#D8D8D8" xlink:href="#path-1"></use>
                <g id="hmong" mask="url(#mask-2)" fill-rule="nonzero">
                    <polygon id="Path" fill="#D80027" points="0 0 16 0 16 16 0 16"></polygon>
                    <path d="M1.28125,1 L0.5,1.59375 L0.1875,2.25 L0.5625,3.28125 L0.125,3.8125 L0.28125,4.65625 L0.65625,3.84375 L1.0625,4.40625 L0,5.46875 L1.6875,5.9375 L1.09375,5.375 L1.84375,4.84375 L2.59375,5.375 L2,5.9375 L3.6875,5.46875 L2.625,4.40625 L3.03125,3.84375 L3.40625,4.65625 L3.5625,3.8125 L3.125,3.28125 L3.5,2.25 L3.1875,1.59375 L2.40625,1 L2.9375,2.15625 L2.21875,2.90625 L2.3125,2.15625 L1.84375,1.375 L1.375,2.15625 L1.46875,2.90625 L0.75,2.15625 L1.28125,1 Z M13.59375,1 L12.8125,1.59375 L12.5,2.25 L12.875,3.28125 L12.4375,3.8125 L12.59375,4.65625 L12.96875,3.84375 L13.375,4.40625 L12.3125,5.46875 L14,5.9375 L13.40625,5.375 L14.15625,4.84375 L14.90625,5.375 L14.3125,5.9375 L16,5.46875 L14.9375,4.40625 L15.34375,3.84375 L15.71875,4.65625 L15.875,3.8125 L15.4375,3.28125 L15.8125,2.25 L15.5,1.59375 L14.71875,1 L15.25,2.15625 L14.53125,2.90625 L14.625,2.15625 L14.15625,1.375 L13.6875,2.15625 L13.78125,2.90625 L13.0625,2.15625 L13.59375,1 Z M7.134375,1.3125 L7.134375,2.3125 L6.26875,2.8125 L7.134375,3.3125 L7.134375,4.3125 L8,3.8125 L8.865625,4.3125 L8.865625,3.3125 L9.73125,2.8125 L8.865625,2.3125 L8.865625,1.3125 L8,1.8125 L7.134375,1.3125 Z M8,7.625 C6.08426227,7.625 4.53125,9.17801227 4.53125,11.09375 C4.53125,13.0094877 6.08426227,14.5625 8,14.5625 C9.91573773,14.5625 11.46875,13.0094877 11.46875,11.09375 C11.46875,9.17801227 9.91573773,7.625 8,7.625 Z M1.28125,10.0625 L0.5,10.65625 L0.1875,11.3125 L1.0625,13.46875 L0,14.53125 L1.6875,15 L1.09375,14.4375 L1.84375,13.90625 L2.59375,14.4375 L2,15 L3.6875,14.53125 L2.625,13.46875 L3.5,11.3125 L3.1875,10.65625 L2.40625,10.0625 L2.9375,11.21875 L2.21875,11.96875 L2.3125,11.21875 L1.84375,10.4375 L1.375,11.21875 L1.46875,11.96875 L0.75,11.21875 L1.28125,10.0625 Z M13.59375,10.0625 L12.8125,10.65625 L12.5,11.3125 L13.375,13.46875 L12.3125,14.53125 L14,15 L13.40625,14.4375 L14.15625,13.90625 L14.90625,14.4375 L14.3125,15 L16,14.53125 L14.9375,13.46875 L15.8125,11.3125 L15.5,10.65625 L14.71875,10.0625 L15.25,11.21875 L14.53125,11.96875 L14.625,11.21875 L14.15625,10.4375 L13.6875,11.21875 L13.78125,11.96875 L13.0625,11.21875 L13.59375,10.0625 Z" id="Shape" fill="#FFDA44"></path>
                </g>
            </g>
        </g>
    </g>
</svg>