<?xml version="1.0" encoding="UTF-8"?>
<svg width="16px" height="16px" viewBox="0 0 16 16" version="1.1" xmlns="http://www.w3.org/2000/svg" xmlns:xlink="http://www.w3.org/1999/xlink">
    <title>hn_flag_16px</title>
    <defs>
        <circle id="path-1" cx="8" cy="8" r="8"></circle>
    </defs>
    <g id="Design-System" stroke="none" stroke-width="1" fill="none" fill-rule="evenodd">
        <g id="Flags-16x16" transform="translate(-101.000000, -755.000000)">
            <g id="flag" transform="translate(101.000000, 755.000000)">
                <mask id="mask-2" fill="white">
                    <use xlink:href="#path-1"></use>
                </mask>
                <use id="Mask" fill="#D8D8D8" xlink:href="#path-1"></use>
                <g id="hn" mask="url(#mask-2)" fill-rule="nonzero">
                    <polygon id="Path" fill="#338AF3" points="0 0 16 0 16 4.521875 14.734375 8.040625 16 11.478125 16 16 0 16 0 11.478125 1.31875 7.915625 0 4.521875"></polygon>
                    <polygon id="Path" fill="#EEEEEE" points="0 4.521875 16 4.521875 16 11.478125 0 11.478125"></polygon>
                    <path d="M4.921875,5.21875 L5.18125,6.015625 L6.021875,6.015625 L5.34375,6.50625 L5.6,7.303125 L4.921875,6.8125 L4.24375,7.303125 L4.503125,6.50625 L3.825,6.015625 L4.665625,6.015625 L4.921875,5.21875 Z M4.921875,8.696875 L5.18125,9.49375 L6.021875,9.49375 L5.34375,9.984375 L5.6,10.78125 L4.921875,10.290625 L4.24375,10.78125 L4.503125,9.984375 L3.825,9.49375 L4.665625,9.49375 L4.921875,8.696875 Z M11.078125,5.21875 L11.334375,6.015625 L12.175,6.015625 L11.496875,6.50625 L11.75625,7.303125 L11.078125,6.8125 L10.4,7.303125 L10.65625,6.50625 L9.978125,6.015625 L10.81875,6.015625 L11.078125,5.21875 Z M11.078125,8.696875 L11.334375,9.49375 L12.175,9.49375 L11.496875,9.984375 L11.75625,10.78125 L11.078125,10.290625 L10.4,10.78125 L10.65625,9.984375 L9.978125,9.49375 L10.81875,9.49375 L11.078125,8.696875 Z M8,6.95625 L8.259375,7.753125 L9.09375,7.753125 L8.41875,8.25 L8.678125,9.046875 L8,8.553125 L7.321875,9.046875 L7.58125,8.25 L6.903125,7.75625 L7.740625,7.75625 L8,6.95625 Z" id="Shape" fill="#338AF3"></path>
                </g>
            </g>
        </g>
    </g>
</svg>