<?xml version="1.0" encoding="UTF-8"?>
<svg width="20px" height="20px" viewBox="0 0 20 20" version="1.1" xmlns="http://www.w3.org/2000/svg" xmlns:xlink="http://www.w3.org/1999/xlink">
    <title>hn_flag_20px</title>
    <defs>
        <circle id="path-1" cx="10" cy="10" r="10"></circle>
    </defs>
    <g id="Design-System" stroke="none" stroke-width="1" fill="none" fill-rule="evenodd">
        <g id="Flags-20x20" transform="translate(-101.000000, -755.000000)">
            <g id="flag" transform="translate(101.000000, 755.000000)">
                <mask id="mask-2" fill="white">
                    <use xlink:href="#path-1"></use>
                </mask>
                <use id="Mask" fill="#D8D8D8" xlink:href="#path-1"></use>
                <g id="hn" mask="url(#mask-2)" fill-rule="nonzero">
                    <polygon id="Path" fill="#338AF3" points="0 0 20 0 20 5.65234375 18.4179688 10.0507812 20 14.3476562 20 20 0 20 0 14.3476562 1.6484375 9.89453125 0 5.65234375"></polygon>
                    <polygon id="Path" fill="#EEEEEE" points="0 5.65234375 20 5.65234375 20 14.3476562 0 14.3476562"></polygon>
                    <path d="M6.15234375,6.5234375 L6.4765625,7.51953125 L7.52734375,7.51953125 L6.6796875,8.1328125 L7,9.12890625 L6.15234375,8.515625 L5.3046875,9.12890625 L5.62890625,8.1328125 L4.78125,7.51953125 L5.83203125,7.51953125 L6.15234375,6.5234375 Z M6.15234375,10.8710938 L6.4765625,11.8671875 L7.52734375,11.8671875 L6.6796875,12.4804688 L7,13.4765625 L6.15234375,12.8632812 L5.3046875,13.4765625 L5.62890625,12.4804688 L4.78125,11.8671875 L5.83203125,11.8671875 L6.15234375,10.8710938 Z M13.8476563,6.5234375 L14.1679688,7.51953125 L15.21875,7.51953125 L14.3710938,8.1328125 L14.6953125,9.12890625 L13.8476563,8.515625 L13,9.12890625 L13.3203125,8.1328125 L12.4726563,7.51953125 L13.5234375,7.51953125 L13.8476563,6.5234375 Z M13.8476563,10.8710938 L14.1679688,11.8671875 L15.21875,11.8671875 L14.3710938,12.4804688 L14.6953125,13.4765625 L13.8476563,12.8632812 L13,13.4765625 L13.3203125,12.4804688 L12.4726563,11.8671875 L13.5234375,11.8671875 L13.8476563,10.8710938 Z M10,8.6953125 L10.3242188,9.69140625 L11.3671875,9.69140625 L10.5234375,10.3125 L10.8476562,11.3085938 L10,10.6914062 L9.15234375,11.3085938 L9.4765625,10.3125 L8.62890625,9.6953125 L9.67578125,9.6953125 L10,8.6953125 Z" id="Shape" fill="#338AF3"></path>
                </g>
            </g>
        </g>
    </g>
</svg>