<?xml version="1.0" encoding="UTF-8"?>
<svg width="20px" height="20px" viewBox="0 0 20 20" version="1.1" xmlns="http://www.w3.org/2000/svg" xmlns:xlink="http://www.w3.org/1999/xlink">
    <title>hr_flag_20px</title>
    <defs>
        <circle id="path-1" cx="10" cy="10" r="10"></circle>
    </defs>
    <g id="Design-System" stroke="none" stroke-width="1" fill="none" fill-rule="evenodd">
        <g id="Flags-20x20" transform="translate(-151.000000, -755.000000)">
            <g id="flag" transform="translate(151.000000, 755.000000)">
                <mask id="mask-2" fill="white">
                    <use xlink:href="#path-1"></use>
                </mask>
                <use id="Mask" fill="#D8D8D8" xlink:href="#path-1"></use>
                <g id="hr" mask="url(#mask-2)" fill-rule="nonzero">
                    <polygon id="Path" fill="#EEEEEE" points="0 6.5234375 9.9140625 5.76953125 20 6.5234375 20 13.4765625 10.0429688 14.7382812 0 13.4765625"></polygon>
                    <polygon id="Path" fill="#D80027" points="0 0 20 0 20 6.5234375 0 6.5234375"></polygon>
                    <polygon id="Path" fill="#0052B4" points="0 13.4765625 20 13.4765625 20 20 0 20"></polygon>
                    <path d="M12.609375,6.953125 L10.8710938,6.953125 L11.1601562,4.77734375 L12.3203125,3.91015625 L13.4765625,4.77734375 L13.4765625,6.5234375 L12.609375,6.953125 Z M7.390625,6.953125 L9.12890625,6.953125 L8.83984375,4.77734375 L7.6796875,3.91015625 L6.5234375,4.77734375 L6.5234375,6.5234375 L7.390625,6.953125 Z" id="Shape" fill="#338AF3"></path>
                    <polygon id="Path" fill="#0052B4" points="11.1601563 6.953125 8.83984375 6.953125 8.83984375 4.77734375 10 3.91015625 11.1601563 4.77734375"></polygon>
                    <path d="M6.5234375,6.5234375 L6.5234375,11.3007812 C6.52404853,12.3978067 7.04241087,13.4301875 7.921875,14.0859375 L8.52734375,13.9335938 L9.296875,14.7070312 C9.52825766,14.754262 9.76384655,14.7778209 10,14.7773509 C10.2348495,14.7775833 10.469119,14.7540255 10.6992187,14.7070312 L11.5742187,13.9765625 L12.0820312,14.0859375 C12.9600228,13.4293676 13.4768718,12.3971174 13.4765626,11.3007812 L13.4765626,6.5234375 L6.5234375,6.5234375 Z" id="Path" fill="#EEEEEE"></path>
                    <path d="M6.5234375,6.5234375 L7.9140625,6.5234375 L7.9140625,7.91015625 L6.5234375,7.91015625 L6.5234375,6.5234375 Z M9.3046875,6.5234375 L10.6953125,6.5234375 L10.6953125,7.91015625 L9.3046875,7.91015625 L9.3046875,6.5234375 Z M12.0859375,6.5234375 L13.4765625,6.5234375 L13.4765625,7.91015625 L12.0859375,7.91015625 L12.0859375,6.5234375 Z M7.9140625,7.91015625 L9.3046875,7.91015625 L9.3046875,9.30078125 L7.9140625,9.30078125 L7.9140625,7.91015625 Z M10.6953125,7.91015625 L12.0859375,7.91015625 L12.0859375,9.30078125 L10.6953125,9.30078125 L10.6953125,7.91015625 Z M6.5234375,9.30078125 L7.9140625,9.30078125 L7.9140625,10.6914062 L6.5234375,10.6914062 L6.5234375,9.30078125 Z M7.9140625,10.6914062 L9.3046875,10.6914062 L9.3046875,12.0820312 L7.9140625,12.0820312 L7.9140625,10.6914062 Z M9.3046875,9.30078125 L10.6953125,9.30078125 L10.6953125,10.6914062 L9.3046875,10.6914062 L9.3046875,9.30078125 Z M12.0859375,9.30078125 L13.4765625,9.30078125 L13.4765625,10.6914062 L12.0859375,10.6914062 L12.0859375,9.30078125 Z M10.6953125,10.6914062 L12.0859375,10.6914062 L12.0859375,12.0820312 L10.6953125,12.0820312 L10.6953125,10.6914062 Z M9.3046875,12.0820312 L10.6953125,12.0820312 L10.6953125,13.4765625 L9.3046875,13.4765625 L9.3046875,12.0820312 Z M7.9140625,12.0820312 L6.61328125,12.0820312 C6.73046875,12.6015625 6.96484375,13.0742188 7.2890625,13.4726562 L7.9140625,13.4726562 L7.9140625,12.0820312 Z M12.0859375,13.4765625 L12.7109375,13.4765625 C13.0379523,13.0697665 13.2689503,12.5944179 13.3867188,12.0859375 L12.0859375,12.0859375 L12.0859375,13.4765625 Z M7.9140625,13.4765625 L7.9140625,14.0859375 C8.32545016,14.3949368 8.80049086,14.6084382 9.3046875,14.7109375 L9.3046875,13.4765625 L7.9140625,13.4765625 Z M10.6953125,13.4765625 L10.6953125,14.7109375 C11.1995091,14.6084382 11.6745498,14.3949368 12.0859375,14.0859375 L12.0859375,13.4765625 L10.6953125,13.4765625 Z" id="Shape" fill="#D80027"></path>
                </g>
            </g>
        </g>
    </g>
</svg>