<?xml version="1.0" encoding="UTF-8"?>
<svg width="20px" height="20px" viewBox="0 0 20 20" version="1.1" xmlns="http://www.w3.org/2000/svg" xmlns:xlink="http://www.w3.org/1999/xlink">
    <title>id_jb_flag_20px</title>
    <defs>
        <circle id="path-1" cx="10" cy="10" r="10"></circle>
    </defs>
    <g id="Design-System" stroke="none" stroke-width="1" fill="none" fill-rule="evenodd">
        <g id="Flags-20x20" transform="translate(-351.000000, -755.000000)">
            <g id="flag" transform="translate(351.000000, 755.000000)">
                <mask id="mask-2" fill="white">
                    <use xlink:href="#path-1"></use>
                </mask>
                <use id="Mask" fill="#D8D8D8" xlink:href="#path-1"></use>
                <g id="id-jb" mask="url(#mask-2)" fill-rule="nonzero">
                    <polygon id="Path" fill="#496E2D" points="0 0 20 0 20 20 0 20"></polygon>
                    <path d="M8.9453125,6.71875 C8.90772927,6.70354684 8.86570823,6.70354684 8.828125,6.71875 C8.6328125,6.9140625 8.125,7.3828125 8.0078125,8.125 C7.8125,9.1015625 8.359375,10.15625 9.3359375,10.7421875 C9.40197942,10.7777275 9.48395746,10.7613319 9.53125,10.703125 C9.56064814,10.6681298 9.57325009,10.6220174 9.56573629,10.5769346 C9.55822249,10.5318518 9.53134636,10.4923191 9.4921875,10.46875 C8.6328125,9.921875 8.1640625,9.0234375 8.3203125,8.1640625 C8.4375,7.5390625 8.8671875,7.109375 9.0625,6.9921875 C9.09613288,6.96252609 9.11540034,6.91984384 9.11540034,6.875 C9.11540034,6.83015616 9.09613288,6.78747391 9.0625,6.7578125 C9.03046109,6.72924813 8.98808225,6.71512185 8.9453125,6.71875 Z" id="Path" fill="#FFDA44"></path>
                    <path d="M11.0546875,6.71875 C11.0119178,6.71512185 10.9695389,6.72924813 10.9375,6.7578125 C10.9081019,6.79280773 10.8954999,6.83892012 10.9030137,6.88400292 C10.9105275,6.92908573 10.9374036,6.96861844 10.9765625,6.9921875 C11.1328125,7.1484375 11.5625,7.5390625 11.6796875,8.1640625 C11.8359375,9.0234375 11.40625,9.921875 10.5078125,10.46875 C10.4686536,10.4923191 10.4417775,10.5318518 10.4342637,10.5769346 C10.4267499,10.6220174 10.4393519,10.6681298 10.46875,10.703125 C10.5160425,10.7613319 10.5980206,10.7777275 10.6640625,10.7421875 C11.640625,10.15625 12.1875,9.1015625 11.9921875,8.125 C11.875,7.3828125 11.3671875,6.9140625 11.171875,6.7578125 C11.1398361,6.72924813 11.0974572,6.71512185 11.0546875,6.71875 Z M9.9609375,6.875 C9.9609375,6.875 9.4921875,7.109375 9.4921875,7.578125 C9.4921875,8.046875 10.234375,8.515625 10.234375,8.8671875 C10.234375,9.2578125 9.8828125,9.375 9.8828125,9.375 L9.8828125,10.234375 L10.1171875,10.234375 L10.1171875,9.4921875 C10.1171875,9.4921875 10.859375,9.140625 10.5859375,8.125 C10.390625,7.421875 9.9609375,7.578125 9.9609375,6.875 Z" id="Shape" fill="#EEEEEE"></path>
                    <polygon id="Path" fill="#0052B4" points="6.9921875 11.71875 7.4609375 13.4375 10 14.6875 12.5390625 13.4375 13.0078125 11.71875"></polygon>
                    <polygon id="Path" fill="#333333" points="9.4921875 10.4296875 8.8671875 11.2109375 8.671875 10.859375 7.421875 10.859375 7.03125 11.71875 13.0078125 11.71875 12.578125 10.859375 11.328125 10.859375 11.1328125 11.2109375 10.5078125 10.4296875 10 10.4296875"></polygon>
                    <path d="M10,5.5078125 C9.0625,5.5078125 8.203125,6.015625 7.578125,6.8359375 C6.953125,7.65625 6.6015625,8.75 6.6015625,10 C6.6015625,10.5078125 6.640625,11.015625 6.7578125,11.484375 L6.25,12.03125 C6.89246611,13.9338675 8.36910504,15.1644 10,15.1562902 C11.630895,15.1644 13.1075339,13.9338675 13.75,12.03125 L13.2421875,11.484375 C13.359375,11.015625 13.4375,10.5078125 13.4375,10 C13.4375,8.75 13.046875,7.65625 12.421875,6.8359375 C11.8688317,6.03648163 10.9714173,5.54435114 10,5.5078125 L10,5.5078125 Z M10,5.78125 C10.859375,5.78125 11.640625,6.2109375 12.2265625,6.9921875 C13.4824307,8.80075729 13.4824307,11.1992427 12.2265625,13.0078125 C11.7317243,13.7616768 10.9012666,14.2278987 10,14.2578125 C9.140625,14.2578125 8.359375,13.7890625 7.7734375,13.0078125 C7.2265625,12.265625 6.875,11.171875 6.875,10 C6.875,8.828125 7.2265625,7.7734375 7.7734375,6.9921875 C8.359375,6.2109375 9.140625,5.78125 10,5.78125 Z" id="Shape" fill="#FFDA44"></path>
                    <rect id="Rectangle" fill="#D80027" x="9.84375" y="10.15625" width="1" height="1.0546875" rx="0.5"></rect>
                </g>
            </g>
        </g>
    </g>
</svg>