<?xml version="1.0" encoding="UTF-8"?>
<svg width="20px" height="20px" viewBox="0 0 20 20" version="1.1" xmlns="http://www.w3.org/2000/svg" xmlns:xlink="http://www.w3.org/1999/xlink">
    <title>id_jt_flag_20px</title>
    <defs>
        <circle id="path-1" cx="10" cy="10" r="10"></circle>
    </defs>
    <g id="Design-System" stroke="none" stroke-width="1" fill="none" fill-rule="evenodd">
        <g id="Flags-20x20" transform="translate(-401.000000, -755.000000)">
            <g id="flag" transform="translate(401.000000, 755.000000)">
                <mask id="mask-2" fill="white">
                    <use xlink:href="#path-1"></use>
                </mask>
                <use id="Mask" fill="#D8D8D8" xlink:href="#path-1"></use>
                <g id="id-jt" mask="url(#mask-2)" fill-rule="nonzero">
                    <polygon id="Path" fill="#FFDA44" points="0 0 20 0 20 20 0 20"></polygon>
                    <path d="M10,4.453125 L9.765625,4.53125 L6.0546875,7.578125 C5.8984375,7.6953125 5.8984375,7.9296875 6.015625,8.0859375 L10,6.796875 L13.984375,8.0859375 C14.1015625,7.9296875 14.1015625,7.6953125 13.9453125,7.578125 L10.234375,4.53125 L10,4.453125 Z" id="Path" fill="#D80027"></path>
                    <path d="M10.9203125,9.05390625 L10.8203125,9.05390625 L10.9203125,9.05390625 Z" id="Path" fill="#EEEEEE"></path>
                    <polygon id="Path" fill="#6DA544" points="10 5.234375 6.1328125 8.046875 6.3671875 8.90625 8.359375 7.65625 10 8.6328125 11.640625 7.65625 13.6328125 8.90625 13.8671875 8.046875"></polygon>
                    <polygon id="Path" fill="#333333" points="10 7.4609375 8.90625 9.8046875 8.5546875 8.984375 8.1640625 9.8046875 7.890625 9.1796875 7.5 10 7.2265625 9.375 6.71875 10.4296875 7.265625 11.328125 12.734375 11.328125 13.28125 10.4296875 12.8125 9.375 12.5 10 12.109375 9.1796875 11.8359375 9.8046875 11.4453125 8.984375 11.09375 9.8046875"></polygon>
                    <polygon id="Path" fill="#338AF3" points="7.1484375 11.328125 7.578125 12.578125 12.421875 12.578125 12.8515625 11.328125 10 11.328125"></polygon>
                    <path d="M10,5.0390625 C9.97077442,5.0443917 9.94367371,5.05794205 9.921875,5.078125 L6.015625,7.9296875 C5.96018077,7.9609888 5.9292745,8.02280134 5.9375,8.0859375 L7.421875,12.65625 C7.44011969,12.7270625 7.50503649,12.7757501 7.578125,12.7734375 L12.421875,12.7734375 C12.4949635,12.7757501 12.5598803,12.7270625 12.578125,12.65625 L14.0625,8.0859375 C14.0707255,8.02280134 14.0398192,7.9609888 13.984375,7.9296875 L10.078125,5.078125 C10.0563263,5.05794205 10.0292256,5.0443917 10,5.0390625 L10,5.0390625 Z M10,5.390625 L13.7109375,8.125 L12.3046875,12.4609375 L7.6953125,12.4609375 L6.2890625,8.125 L10,5.390625 Z" id="Shape" fill="#EEEEEE"></path>
                    <rect id="Rectangle" fill="#FF9811" x="9.84375" y="6.640625" width="1" height="5.546875" rx="0.5"></rect>
                    <rect id="Rectangle" fill="#D80027" x="7.5" y="13.203125" width="5" height="1" rx="0.5"></rect>
                    <rect id="Rectangle" fill="#EEEEEE" x="6.875" y="13.671875" width="6.25" height="1" rx="0.5"></rect>
                    <polygon id="Path" fill="#FFDA44" points="9.453125 7.4609375 10 5.8203125 10.546875 7.4609375 9.140625 6.4453125 10.859375 6.4453125"></polygon>
                </g>
            </g>
        </g>
    </g>
</svg>