<?xml version="1.0" encoding="UTF-8"?>
<svg width="16px" height="16px" viewBox="0 0 16 16" version="1.1" xmlns="http://www.w3.org/2000/svg" xmlns:xlink="http://www.w3.org/1999/xlink">
    <title>id_jb_flag_16px</title>
    <defs>
        <circle id="path-1" cx="8" cy="8" r="8"></circle>
    </defs>
    <g id="Design-System" stroke="none" stroke-width="1" fill="none" fill-rule="evenodd">
        <g id="Flags-16x16" transform="translate(-351.000000, -755.000000)">
            <g id="flag" transform="translate(351.000000, 755.000000)">
                <mask id="mask-2" fill="white">
                    <use xlink:href="#path-1"></use>
                </mask>
                <use id="Mask" fill="#D8D8D8" xlink:href="#path-1"></use>
                <g id="id-jb" mask="url(#mask-2)" fill-rule="nonzero">
                    <polygon id="Path" fill="#496E2D" points="0 0 16 0 16 16 0 16"></polygon>
                    <path d="M7.15625,5.375 C7.12618342,5.36283747 7.09256658,5.36283747 7.0625,5.375 C6.90625,5.53125 6.5,5.90625 6.40625,6.5 C6.25,7.28125 6.6875,8.125 7.46875,8.59375 C7.52158353,8.622182 7.58716597,8.60906551 7.625,8.5625 C7.64851852,8.53450382 7.65860008,8.49761391 7.65258903,8.46154766 C7.64657799,8.42548141 7.62507709,8.39385525 7.59375,8.375 C6.90625,7.9375 6.53125,7.21875 6.65625,6.53125 C6.75,6.03125 7.09375,5.6875 7.25,5.59375 C7.2769063,5.57002087 7.29232027,5.53587507 7.29232027,5.5 C7.29232027,5.46412493 7.2769063,5.42997913 7.25,5.40625 C7.22436887,5.38339851 7.1904658,5.37209748 7.15625,5.375 Z" id="Path" fill="#FFDA44"></path>
                    <path d="M8.84375,5.375 C8.8095342,5.37209748 8.77563113,5.38339851 8.75,5.40625 C8.72648148,5.43424618 8.71639992,5.47113609 8.72241097,5.50720234 C8.72842201,5.54326859 8.74992291,5.57489475 8.78125,5.59375 C8.90625,5.71875 9.25,6.03125 9.34375,6.53125 C9.46875,7.21875 9.125,7.9375 8.40625,8.375 C8.37492291,8.39385525 8.35342201,8.42548141 8.34741097,8.46154766 C8.34139992,8.49761391 8.35148148,8.53450382 8.375,8.5625 C8.41283403,8.60906551 8.47841647,8.622182 8.53125,8.59375 C9.3125,8.125 9.75,7.28125 9.59375,6.5 C9.5,5.90625 9.09375,5.53125 8.9375,5.40625 C8.91186887,5.38339851 8.8779658,5.37209748 8.84375,5.375 Z M7.96875,5.5 C7.96875,5.5 7.59375,5.6875 7.59375,6.0625 C7.59375,6.4375 8.1875,6.8125 8.1875,7.09375 C8.1875,7.40625 7.90625,7.5 7.90625,7.5 L7.90625,8.1875 L8.09375,8.1875 L8.09375,7.59375 C8.09375,7.59375 8.6875,7.3125 8.46875,6.5 C8.3125,5.9375 7.96875,6.0625 7.96875,5.5 Z" id="Shape" fill="#EEEEEE"></path>
                    <polygon id="Path" fill="#0052B4" points="5.59375 9.375 5.96875 10.75 8 11.75 10.03125 10.75 10.40625 9.375"></polygon>
                    <polygon id="Path" fill="#333333" points="7.59375 8.34375 7.09375 8.96875 6.9375 8.6875 5.9375 8.6875 5.625 9.375 10.40625 9.375 10.0625 8.6875 9.0625 8.6875 8.90625 8.96875 8.40625 8.34375 8 8.34375"></polygon>
                    <path d="M8,4.40625 C7.25,4.40625 6.5625,4.8125 6.0625,5.46875 C5.5625,6.125 5.28125,7 5.28125,8 C5.28125,8.40625 5.3125,8.8125 5.40625,9.1875 L5,9.625 C5.51397289,11.147094 6.69528403,12.13152 8,12.1250322 C9.30471597,12.13152 10.4860271,11.147094 11,9.625 L10.59375,9.1875 C10.6875,8.8125 10.75,8.40625 10.75,8 C10.75,7 10.4375,6.125 9.9375,5.46875 C9.49506535,4.8291853 8.77713382,4.43548091 8,4.40625 L8,4.40625 Z M8,4.625 C8.6875,4.625 9.3125,4.96875 9.78125,5.59375 C10.7859446,7.04060583 10.7859446,8.95939417 9.78125,10.40625 C9.38537941,11.0093414 8.72101326,11.3823189 8,11.40625 C7.3125,11.40625 6.6875,11.03125 6.21875,10.40625 C5.78125,9.8125 5.5,8.9375 5.5,8 C5.5,7.0625 5.78125,6.21875 6.21875,5.59375 C6.6875,4.96875 7.3125,4.625 8,4.625 Z" id="Shape" fill="#FFDA44"></path>
                    <rect id="Rectangle" fill="#D80027" x="7.875" y="8.125" width="1" height="1" rx="0.5"></rect>
                </g>
            </g>
        </g>
    </g>
</svg>