<?xml version="1.0" encoding="UTF-8"?>
<svg width="20px" height="20px" viewBox="0 0 20 20" version="1.1" xmlns="http://www.w3.org/2000/svg" xmlns:xlink="http://www.w3.org/1999/xlink">
    <title>il_flag_20px</title>
    <defs>
        <circle id="path-1" cx="10" cy="10" r="10"></circle>
    </defs>
    <g id="Design-System" stroke="none" stroke-width="1" fill="none" fill-rule="evenodd">
        <g id="Flags-20x20" transform="translate(-501.000000, -755.000000)">
            <g id="flag" transform="translate(501.000000, 755.000000)">
                <mask id="mask-2" fill="white">
                    <use xlink:href="#path-1"></use>
                </mask>
                <use id="Mask" fill="#D8D8D8" xlink:href="#path-1"></use>
                <g id="il" mask="url(#mask-2)" fill-rule="nonzero">
                    <polygon id="Path" fill="#EEEEEE" points="0 0 20 0 20 2.17578125 19.0234375 3.453125 20 4.78125 20 15.21875 18.984375 16.625 20 17.8242188 20 20 0 20 0 17.8242188 0.96875 16.4921875 0 15.21875 0 4.78125 1.0625 3.484375 0 2.17578125"></polygon>
                    <path d="M0,2.17578125 L0,4.78125 L20,4.78125 L20,2.17578125 L0,2.17578125 Z M0,15.21875 L0,17.8242188 L20,17.8242188 L20,15.21875 L0,15.21875 Z M13.765625,7.82421875 L11.25,7.82421875 L10,5.65234375 L8.74609375,7.82421875 L6.234375,7.82421875 L7.48828125,10 L6.23828125,12.1757812 L8.74609375,12.1757812 L10,14.3476562 L11.2539063,12.1757812 L13.765625,12.1757812 L12.5117188,10 L13.7617188,7.82421875 L13.765625,7.82421875 Z M11.5390625,10 L10.7695312,11.3359375 L9.23046875,11.3359375 L8.45703125,10 L9.23046875,8.6640625 L10.7695312,8.6640625 L11.5429688,10 L11.5390625,10 Z M10,7.328125 L10.2851562,7.82421875 L9.71484375,7.82421875 L10,7.328125 Z M7.6875,8.6640625 L8.26171875,8.6640625 L7.97265625,9.16015625 L7.6875,8.6640625 Z M7.6875,11.3359375 L7.97265625,10.8398438 L8.26171875,11.3359375 L7.6875,11.3359375 Z M10,12.671875 L9.71484375,12.1757813 L10.2851562,12.1757813 L10,12.671875 Z M12.3125,11.3359375 L11.7382812,11.3359375 L12.0273438,10.8398438 L12.3125,11.3359375 Z M11.7382812,8.6640625 L12.3125,8.6640625 L12.0273438,9.16015625 L11.7382812,8.6640625 Z" id="Shape" fill="#0052B4"></path>
                </g>
            </g>
        </g>
    </g>
</svg>