<?xml version="1.0" encoding="UTF-8"?>
<svg width="16px" height="16px" viewBox="0 0 16 16" version="1.1" xmlns="http://www.w3.org/2000/svg" xmlns:xlink="http://www.w3.org/1999/xlink">
    <title>il_flag_16px</title>
    <defs>
        <circle id="path-1" cx="8" cy="8" r="8"></circle>
    </defs>
    <g id="Design-System" stroke="none" stroke-width="1" fill="none" fill-rule="evenodd">
        <g id="Flags-16x16" transform="translate(-501.000000, -755.000000)">
            <g id="flag" transform="translate(501.000000, 755.000000)">
                <mask id="mask-2" fill="white">
                    <use xlink:href="#path-1"></use>
                </mask>
                <use id="Mask" fill="#D8D8D8" xlink:href="#path-1"></use>
                <g id="il" mask="url(#mask-2)" fill-rule="nonzero">
                    <polygon id="Path" fill="#EEEEEE" points="0 0 16 0 16 1.740625 15.21875 2.7625 16 3.825 16 12.175 15.1875 13.3 16 14.259375 16 16 0 16 0 14.259375 0.775 13.19375 0 12.175 0 3.825 0.85 2.7875 0 1.740625"></polygon>
                    <path d="M0,1.740625 L0,3.825 L16,3.825 L16,1.740625 L0,1.740625 Z M0,12.175 L0,14.259375 L16,14.259375 L16,12.175 L0,12.175 Z M11.0125,6.259375 L9,6.259375 L8,4.521875 L6.996875,6.259375 L4.9875,6.259375 L5.990625,8 L4.990625,9.740625 L6.996875,9.740625 L8,11.478125 L9.003125,9.740625 L11.0125,9.740625 L10.009375,8 L11.009375,6.259375 L11.0125,6.259375 Z M9.23125,8 L8.615625,9.06875 L7.384375,9.06875 L6.765625,8 L7.384375,6.93125 L8.615625,6.93125 L9.234375,8 L9.23125,8 Z M8,5.8625 L8.228125,6.259375 L7.771875,6.259375 L8,5.8625 Z M6.15,6.93125 L6.609375,6.93125 L6.378125,7.328125 L6.15,6.93125 Z M6.15,9.06875 L6.378125,8.671875 L6.609375,9.06875 L6.15,9.06875 Z M8,10.1375 L7.771875,9.740625 L8.228125,9.740625 L8,10.1375 Z M9.85,9.06875 L9.390625,9.06875 L9.621875,8.671875 L9.85,9.06875 Z M9.390625,6.93125 L9.85,6.93125 L9.621875,7.328125 L9.390625,6.93125 Z" id="Shape" fill="#0052B4"></path>
                </g>
            </g>
        </g>
    </g>
</svg>