<?xml version="1.0" encoding="UTF-8"?>
<svg width="20px" height="20px" viewBox="0 0 20 20" version="1.1" xmlns="http://www.w3.org/2000/svg" xmlns:xlink="http://www.w3.org/1999/xlink">
    <title>im_flag_20px</title>
    <defs>
        <circle id="path-1" cx="10" cy="10" r="10"></circle>
    </defs>
    <g id="Design-System" stroke="none" stroke-width="1" fill="none" fill-rule="evenodd">
        <g id="Flags-20x20" transform="translate(-51.000000, -805.000000)">
            <g id="flag" transform="translate(51.000000, 805.000000)">
                <mask id="mask-2" fill="white">
                    <use xlink:href="#path-1"></use>
                </mask>
                <use id="Mask" fill="#D8D8D8" xlink:href="#path-1"></use>
                <g id="im" mask="url(#mask-2)" fill-rule="nonzero">
                    <polygon id="Path" fill="#D80027" points="0 0 20 0 20 20 0 20"></polygon>
                    <polygon id="Path" fill="#EEEEEE" points="13.703125 6.703125 12.9960937 9.2265625 10.875 8.8359375 9.5078125 6.0234375 5.8203125 7.328125 5.53125 6.5078125 4.56640625 6.390625 5.29296875 8.44140625 7.83203125 7.7890625 8.55078125 9.8203125 6.796875 12.4101563 9.77734375 14.9492188 9.2109375 15.6132813 9.58984375 16.5078125 11 14.8554687 9.171875 12.9804687 10.5703125 11.3398437 13.6875 11.5664062 14.3984375 7.71484375 15.2578125 7.87109375 15.84375 7.09765625 13.703125 6.70703125"></polygon>
                </g>
            </g>
        </g>
    </g>
</svg>