<?xml version="1.0" encoding="UTF-8"?>
<svg width="20px" height="20px" viewBox="0 0 20 20" version="1.1" xmlns="http://www.w3.org/2000/svg" xmlns:xlink="http://www.w3.org/1999/xlink">
    <title>in_as_flag_20px</title>
    <defs>
        <circle id="path-1" cx="10" cy="10" r="10"></circle>
    </defs>
    <g id="Design-System" stroke="none" stroke-width="1" fill="none" fill-rule="evenodd">
        <g id="Flags-20x20" transform="translate(-151.000000, -805.000000)">
            <g id="flag" transform="translate(151.000000, 805.000000)">
                <mask id="mask-2" fill="white">
                    <use xlink:href="#path-1"></use>
                </mask>
                <use id="Mask" fill="#D8D8D8" xlink:href="#path-1"></use>
                <g id="in-as" mask="url(#mask-2)" fill-rule="nonzero">
                    <polygon id="Path" fill="#EEEEEE" points="0 0 20 0 20 20 0 20"></polygon>
                    <path d="M10,4.375 C9.140625,4.375 8.4375,5.078125 8.4375,5.9375 C8.1640625,5.46875 7.65625,5.15625 7.109375,5.15625 C6.24643008,5.15625 5.546875,5.85580508 5.546875,6.71875 C5.546875,7.58169492 6.24643008,8.28125 7.109375,8.28125 L7.34375,8.28125 L7.34375,13.203125 L7.265625,13.203125 C6.875,13.203125 6.484375,13.515625 6.484375,13.984375 L6.484375,14.609375 C6.484375,15 6.875,15.390625 7.265625,15.390625 L7.34375,15.390625 L7.34375,15.46875 C7.34375,15.9375 7.734375,16.25 8.125,16.25 L11.875,16.25 C12.34375,16.25 12.65625,15.9375 12.65625,15.46875 L12.65625,15.390625 L12.734375,15.390625 C13.203125,15.390625 13.515625,15 13.515625,14.609375 L13.515625,13.984375 C13.515625,13.515625 13.203125,13.203125 12.734375,13.203125 L12.65625,13.203125 L12.65625,8.28125 L12.890625,8.28125 C13.7535699,8.28125 14.453125,7.58169492 14.453125,6.71875 C14.453125,5.85580508 13.7535699,5.15625 12.890625,5.15625 C12.34375,5.1953125 11.8359375,5.5078125 11.5625,6.015625 L11.5625,5.9375 C11.5625,5.078125 10.859375,4.375 10,4.375 Z" id="Path" fill="#333333"></path>
                    <rect id="Rectangle" fill="#ACABB1" x="5.625" y="17.5" width="8.75" height="1.25" rx="0.625"></rect>
                    <rect id="Rectangle" fill="#ACABB1" x="6.25" y="1.25" width="7.5" height="1.875" rx="0.9375"></rect>
                </g>
            </g>
        </g>
    </g>
</svg>