<?xml version="1.0" encoding="UTF-8"?>
<svg width="16px" height="16px" viewBox="0 0 16 16" version="1.1" xmlns="http://www.w3.org/2000/svg" xmlns:xlink="http://www.w3.org/1999/xlink">
    <title>in_tn_flag_16px</title>
    <defs>
        <circle id="path-1" cx="8" cy="8" r="8"></circle>
    </defs>
    <g id="Design-System" stroke="none" stroke-width="1" fill="none" fill-rule="evenodd">
        <g id="Flags-16x16" transform="translate(-351.000000, -805.000000)">
            <g id="flag" transform="translate(351.000000, 805.000000)">
                <mask id="mask-2" fill="white">
                    <use xlink:href="#path-1"></use>
                </mask>
                <use id="Mask" fill="#D8D8D8" xlink:href="#path-1"></use>
                <g id="in-tn" mask="url(#mask-2)" fill-rule="nonzero">
                    <polygon id="Path" fill="#EEEEEE" points="0 0 16 0 16 16 0 16"></polygon>
                    <path d="M8,1 C4.44466692,1 1.5625,3.88216692 1.5625,7.4375 C1.5625,10.9928331 4.44466692,13.875 8,13.875 C11.5553331,13.875 14.4375,10.9928331 14.4375,7.4375 C14.4375,3.88216692 11.5553331,1 8,1 L8,1 Z M8,1.25 C10.07997,1.25 12.0208314,2.29482479 13.1658654,4.03125 C14.3108994,5.7676752 14.5068821,7.96322379 13.6875,9.875 L12.34375,9.875 C13.0280475,8.66500486 13.1705869,7.22260769 12.7363589,5.9020785 C12.3021308,4.58154932 11.3313675,3.50523818 10.0625,2.9375 L10.0625,3.1875 C11.2602565,3.76267657 12.1600147,4.81617208 12.5407228,6.08916468 C12.9214309,7.36215728 12.7478045,8.736665 12.0625,9.875 L12.03125,9.875 L12.03125,12.125 C9.71756252,14.1296158 6.28243748,14.1296158 3.96875,12.125 L3.96875,9.875 C3.28134227,8.74061961 3.10310792,7.36930662 3.47769643,6.09689486 C3.85228494,4.8244831 4.74510302,3.76847994 5.9375,3.1875 L5.9375,2.9375 C4.67539862,3.51267083 3.71114891,4.58918734 3.27789157,5.90676446 C2.84463423,7.22434157 2.98180931,8.66303831 3.65625,9.875 L2.3125,9.875 C1.49311786,7.96322379 1.6891006,5.7676752 2.83413461,4.03125 C3.97916862,2.29482479 5.92002996,1.25 8,1.25 Z M8,1.625 C6.27824139,1.62545518 4.64528491,2.38921459 3.54126267,3.71042154 C2.43724042,5.03162849 1.97577663,6.77430645 2.28125,8.46875 C2.28903848,8.53527686 2.32319724,8.59589593 2.37606901,8.63701842 C2.42894078,8.67814091 2.49610296,8.69632701 2.5625,8.6875 C2.62902686,8.67971152 2.68964593,8.64555276 2.73076842,8.59268099 C2.77189091,8.53980922 2.79007701,8.47264704 2.78125,8.40625 L2.6875,7.4375 C2.67815056,5.41708812 3.81568084,3.56626142 5.62250389,2.66208111 C7.42932693,1.75790081 9.59264241,1.95690015 11.2041921,3.17553018 C12.8157418,4.39416021 13.5965314,6.42144957 13.21875,8.40625 C13.209923,8.47264704 13.2281091,8.53980922 13.2692316,8.59268099 C13.3103541,8.64555276 13.3709731,8.67971152 13.4375,8.6875 C13.503897,8.69632701 13.5710592,8.67814091 13.623931,8.63701842 C13.6768028,8.59589593 13.7109615,8.53527686 13.71875,8.46875 C14.0127764,6.77610207 13.5470827,5.03982425 12.4454735,3.72150501 C11.3438643,2.40318577 9.71795766,1.636401 8,1.625 Z M1.96875,11.09375 C1.92506861,11.0930661 1.88197055,11.1038406 1.84375,11.125 C1.78533616,11.1577766 1.74251808,11.2126228 1.72489415,11.2772439 C1.70727023,11.3418649 1.71631467,11.4108554 1.75,11.46875 C3.11958513,13.5919464 5.47339625,14.8746366 8,14.8746366 C10.5266037,14.8746366 12.8804149,13.5919464 14.25,11.46875 C14.2836853,11.4108554 14.2927298,11.3418649 14.2751058,11.2772439 C14.2574819,11.2126228 14.2146638,11.1577766 14.15625,11.125 C14.0983554,11.0913147 14.0293649,11.0822702 13.9647439,11.0998942 C13.9001228,11.1175181 13.8452766,11.1603362 13.8125,11.21875 C12.5320784,13.1838498 10.3454417,14.3689356 8,14.3689356 C5.65455825,14.3689356 3.46792165,13.1838498 2.1875,11.21875 C2.14244334,11.1407012 2.05886693,11.0929433 1.96875,11.09375 L1.96875,11.09375 Z" id="Shape" fill="#496E2D"></path>
                    <polygon id="Path" fill="#FFDA44" points="6.21875 2.6875 6.21875 4.28125 5.4375 9.0625 4.25 10.03125 11.75 10.03125 10.5625 9.0625 9.78125 4.28125 9.78125 2.6875"></polygon>
                    <polygon id="Path" fill="#FF9811" points="4.25 10.03125 11.75 10.03125 11.75 10.78125 4.25 10.78125"></polygon>
                    <polygon id="Path" fill="#EEEEEE" points="4.25 10.78125 11.75 10.78125 11.75 11.53125 4.25 11.53125"></polygon>
                    <polygon id="Path" fill="#6DA544" points="4.25 11.53125 11.75 11.53125 11.75 12.28125 4.25 12.28125"></polygon>
                    <circle id="Oval" fill="#0052B4" cx="5.96875" cy="11.15625" r="1"></circle>
                    <circle id="Oval" fill="#0052B4" transform="translate(10.031250, 11.156250) scale(-1, 1) translate(-10.031250, -11.156250) " cx="10.03125" cy="11.15625" r="1"></circle>
                    <path d="M8,7.875 C7.65482203,7.875 7.375,8.15482203 7.375,8.5 C7.26516198,8.3096892 7.06345452,8.19103775 6.84375,8.1875 C6.49857203,8.1875 6.21875,8.46732203 6.21875,8.8125 C6.21875,9.15767797 6.49857203,9.4375 6.84375,9.4375 C6.87495593,9.43984706 6.90629407,9.43984706 6.9375,9.4375 L6.9375,11.65625 L6.90625,11.65625 C6.75,11.65625 6.59375,11.78125 6.59375,11.96875 L6.59375,12.21875 C6.59375,12.375 6.75,12.53125 6.90625,12.53125 L6.9375,12.53125 L6.9375,12.5625 C6.9375,12.75 7.09375,12.875 7.25,12.875 L8.75,12.875 C8.9375,12.875 9.0625,12.75 9.0625,12.5625 L9.0625,12.53125 L9.09375,12.53125 C9.28125,12.53125 9.40625,12.375 9.40625,12.21875 L9.40625,11.96875 C9.40625,11.78125 9.28125,11.65625 9.09375,11.65625 L9.0625,11.65625 L9.0625,9.4375 C9.09370593,9.43984706 9.12504407,9.43984706 9.15625,9.4375 C9.50142797,9.4375 9.78125,9.15767797 9.78125,8.8125 C9.78125,8.46732203 9.50142797,8.1875 9.15625,8.1875 C8.92996063,8.19735405 8.72671227,8.3288677 8.625,8.53125 C8.62526046,8.52083496 8.62526046,8.51041504 8.625,8.5 C8.625,8.15482203 8.34517797,7.875 8,7.875 L8,7.875 Z" id="Path" fill="#D80027"></path>
                </g>
            </g>
        </g>
    </g>
</svg>