<?xml version="1.0" encoding="UTF-8"?>
<svg width="20px" height="20px" viewBox="0 0 20 20" version="1.1" xmlns="http://www.w3.org/2000/svg" xmlns:xlink="http://www.w3.org/1999/xlink">
    <title>in_tn_flag_20px</title>
    <defs>
        <circle id="path-1" cx="10" cy="10" r="10"></circle>
    </defs>
    <g id="Design-System" stroke="none" stroke-width="1" fill="none" fill-rule="evenodd">
        <g id="Flags-20x20" transform="translate(-351.000000, -805.000000)">
            <g id="flag" transform="translate(351.000000, 805.000000)">
                <mask id="mask-2" fill="white">
                    <use xlink:href="#path-1"></use>
                </mask>
                <use id="Mask" fill="#D8D8D8" xlink:href="#path-1"></use>
                <g id="in-tn" mask="url(#mask-2)" fill-rule="nonzero">
                    <polygon id="Path" fill="#EEEEEE" points="0 0 20 0 20 20 0 20"></polygon>
                    <path d="M10,1.25 C5.55583365,1.25 1.953125,4.85270865 1.953125,9.296875 C1.953125,13.7410413 5.55583365,17.34375 10,17.34375 C14.4441663,17.34375 18.046875,13.7410413 18.046875,9.296875 C18.046875,4.85270865 14.4441663,1.25 10,1.25 L10,1.25 Z M10,1.5625 C12.5999625,1.5625 15.0260392,2.86853099 16.4573317,5.03906249 C17.8886243,7.209594 18.1336027,9.95402974 17.109375,12.34375 L15.4296875,12.34375 C16.2850594,10.8312561 16.4632337,9.02825961 15.9204486,7.37759813 C15.3776635,5.72693664 14.1642094,4.38154773 12.578125,3.671875 L12.578125,3.984375 C14.0753207,4.70334571 15.2000184,6.0202151 15.6759035,7.61145585 C16.1517886,9.2026966 15.9347556,10.9208312 15.078125,12.34375 L15.0390625,12.34375 L15.0390625,15.15625 C12.1469531,17.6620198 7.85304686,17.6620198 4.9609375,15.15625 L4.9609375,12.34375 C4.10167784,10.9257745 3.8788849,9.21163328 4.34712053,7.62111857 C4.81535617,6.03060387 5.93137877,4.71059992 7.421875,3.984375 L7.421875,3.671875 C5.84424828,4.39083854 4.63893614,5.73648418 4.09736446,7.38345557 C3.55579279,9.03042697 3.72726164,10.8287979 4.5703125,12.34375 L2.890625,12.34375 C1.86639732,9.95402974 2.11137575,7.209594 3.54266826,5.03906249 C4.97396077,2.86853099 7.40003745,1.5625 10,1.5625 Z M10,2.03125 C7.84780174,2.03181897 5.80660614,2.98651824 4.42657833,4.63802693 C3.04655053,6.28953562 2.46972078,8.46788306 2.8515625,10.5859375 C2.8612981,10.6690961 2.90399655,10.7448699 2.97008626,10.796273 C3.03617597,10.8476761 3.1201287,10.8704088 3.203125,10.859375 C3.28628357,10.8496394 3.36205741,10.806941 3.41346052,10.7408512 C3.46486363,10.6747615 3.48759626,10.5908088 3.4765625,10.5078125 L3.359375,9.296875 C3.3476882,6.77136016 4.76960105,4.45782678 7.02812986,3.32760139 C9.28665867,2.19737601 11.990803,2.44612519 14.0052401,3.96941272 C16.0196773,5.49270026 16.9956643,8.02681196 16.5234375,10.5078125 C16.5124037,10.5908088 16.5351364,10.6747615 16.5865395,10.7408512 C16.6379426,10.806941 16.7137164,10.8496394 16.796875,10.859375 C16.8798713,10.8704088 16.963824,10.8476761 17.0299137,10.796273 C17.0960035,10.7448699 17.1387019,10.6690961 17.1484375,10.5859375 C17.5159705,8.47012759 16.9338534,6.29978032 15.5568419,4.65188126 C14.1798304,3.00398221 12.1474471,2.04550125 10,2.03125 Z M2.4609375,13.8671875 C2.40633576,13.8663326 2.35246318,13.8798007 2.3046875,13.90625 C2.2316702,13.9472208 2.1781476,14.0157785 2.15611769,14.0965548 C2.13408779,14.1773311 2.14539333,14.2635693 2.1875,14.3359375 C3.89948142,16.989933 6.84174531,18.5932958 10,18.5932958 C13.1582547,18.5932958 16.1005186,16.989933 17.8125,14.3359375 C17.8546067,14.2635693 17.8659122,14.1773311 17.8438823,14.0965548 C17.8218524,14.0157785 17.7683298,13.9472208 17.6953125,13.90625 C17.6229443,13.8641433 17.5367061,13.8528378 17.4559298,13.8748677 C17.3751535,13.8968976 17.3065958,13.9504202 17.265625,14.0234375 C15.6650979,16.4798123 12.9318022,17.9611696 10,17.9611696 C7.06819782,17.9611696 4.33490206,16.4798123 2.734375,14.0234375 C2.67805418,13.9258765 2.57358366,13.8661791 2.4609375,13.8671875 L2.4609375,13.8671875 Z" id="Shape" fill="#496E2D"></path>
                    <polygon id="Path" fill="#FFDA44" points="7.7734375 3.359375 7.7734375 5.3515625 6.796875 11.328125 5.3125 12.5390625 14.6875 12.5390625 13.203125 11.328125 12.2265625 5.3515625 12.2265625 3.359375"></polygon>
                    <polygon id="Path" fill="#FF9811" points="5.3125 12.5390625 14.6875 12.5390625 14.6875 13.4765625 5.3125 13.4765625"></polygon>
                    <polygon id="Path" fill="#EEEEEE" points="5.3125 13.4765625 14.6875 13.4765625 14.6875 14.4140625 5.3125 14.4140625"></polygon>
                    <polygon id="Path" fill="#6DA544" points="5.3125 14.4140625 14.6875 14.4140625 14.6875 15.3515625 5.3125 15.3515625"></polygon>
                    <circle id="Oval" fill="#0052B4" cx="7.4609375" cy="13.9453125" r="1"></circle>
                    <circle id="Oval" fill="#0052B4" transform="translate(12.539062, 13.945312) scale(-1, 1) translate(-12.539062, -13.945312) " cx="12.5390625" cy="13.9453125" r="1"></circle>
                    <path d="M10,9.84375 C9.56852754,9.84375 9.21875,10.1935275 9.21875,10.625 C9.08145247,10.3871115 8.82931815,10.2387972 8.5546875,10.234375 C8.12321504,10.234375 7.7734375,10.5841525 7.7734375,11.015625 C7.7734375,11.4470975 8.12321504,11.796875 8.5546875,11.796875 C8.59369491,11.7998088 8.63286759,11.7998088 8.671875,11.796875 L8.671875,14.5703125 L8.6328125,14.5703125 C8.4375,14.5703125 8.2421875,14.7265625 8.2421875,14.9609375 L8.2421875,15.2734375 C8.2421875,15.46875 8.4375,15.6640625 8.6328125,15.6640625 L8.671875,15.6640625 L8.671875,15.703125 C8.671875,15.9375 8.8671875,16.09375 9.0625,16.09375 L10.9375,16.09375 C11.171875,16.09375 11.328125,15.9375 11.328125,15.703125 L11.328125,15.6640625 L11.3671875,15.6640625 C11.6015625,15.6640625 11.7578125,15.46875 11.7578125,15.2734375 L11.7578125,14.9609375 C11.7578125,14.7265625 11.6015625,14.5703125 11.3671875,14.5703125 L11.328125,14.5703125 L11.328125,11.796875 C11.3671324,11.7998088 11.4063051,11.7998088 11.4453125,11.796875 C11.876785,11.796875 12.2265625,11.4470975 12.2265625,11.015625 C12.2265625,10.5841525 11.876785,10.234375 11.4453125,10.234375 C11.1624508,10.2466926 10.9083903,10.4110846 10.78125,10.6640625 C10.7815756,10.6510437 10.7815756,10.6380188 10.78125,10.625 C10.78125,10.1935275 10.4314725,9.84375 10,9.84375 L10,9.84375 Z" id="Path" fill="#D80027"></path>
                </g>
            </g>
        </g>
    </g>
</svg>