<?xml version="1.0" encoding="UTF-8"?>
<svg width="16px" height="16px" viewBox="0 0 16 16" version="1.1" xmlns="http://www.w3.org/2000/svg" xmlns:xlink="http://www.w3.org/1999/xlink">
    <title>io_flag_16px</title>
    <defs>
        <circle id="path-1" cx="8" cy="8" r="8"></circle>
    </defs>
    <g id="Design-System" stroke="none" stroke-width="1" fill="none" fill-rule="evenodd">
        <g id="Flags-16x16" transform="translate(-401.000000, -805.000000)">
            <g id="flag" transform="translate(401.000000, 805.000000)">
                <mask id="mask-2" fill="white">
                    <use xlink:href="#path-1"></use>
                </mask>
                <use id="Mask" fill="#D8D8D8" xlink:href="#path-1"></use>
                <g id="io" mask="url(#mask-2)" fill-rule="nonzero">
                    <polygon id="Path" fill="#EEEEEE" points="0 0 1 0 2 1 3 0 8 0 8.375 0.25 8.78125 0 9.90625 0 10.65625 0.25 11.4375 0 12.5625 0 13.34375 0.25 14.09375 0 15.21875 0 16 0.6875 16 1.75 15.75 2.28125 16 2.8125 16 3.90625 15.75 4.4375 16 4.96875 16 6.03125 15.75 6.5625 16 7.09375 16 8.1875 15.75 8.71875 16 9.25 16 10.3125 15.75 10.84375 16 11.40625 16 12.46875 15.75 13 16 13.53125 16 14.625 15.75 15.15625 16 15.6875 16 16 15.3125 16 14.65625 15.75 14.03125 16 12.65625 16 12 15.75 11.34375 16 9.96875 16 9.34375 15.75 8.6875 16 7.3125 16 6.65625 15.75 6.03125 16 4.65625 16 4 15.75 3.34375 16 2 16 1.34375 15.75 0.6875 16 0 16 0 15.6875 0.25 15.15625 0 14.625 0 13.53125 0.25 13 0 12.46875 0 11.40625 0.25 10.84375 0 10.3125 0 9.25 0.25 8.71875 0 8.1875 0 3 1 2 0 1"></polygon>
                    <path d="M1,0 L1,1 L0,1 L0,3 L1,3 L1,8 L3,8 L3,3 L8,3 L8,1 L3,1 L3,0 L1,0 Z M4,4 L8,8 L8,7.03125 L4.96875,4 L4,4 Z" id="Shape" fill="#D80027"></path>
                    <path d="M8,0 L8,0.6875 C8.65625,0.6875 8.65625,1.28125 9.34375,1.28125 C10,1.28125 10,0.6875 10.65625,0.6875 C11.34375,0.6875 11.34375,1.28125 12,1.28125 C12.65625,1.28125 12.65625,0.6875 13.34375,0.6875 C14,0.6875 14,1.28125 14.65625,1.28125 C15.34375,1.28125 15.34375,0.6875 16,0.6875 L16,0 L15.21875,0 C15.09375,0.125 14.9375,0.21875 14.65625,0.21875 C14.40625,0.21875 14.25,0.125 14.09375,0 L12.5625,0 C12.4375,0.125 12.28125,0.21875 12,0.21875 C11.75,0.21875 11.5625,0.125 11.4375,0 L9.90625,0 C9.75,0.125 9.59375,0.21875 9.34375,0.21875 C9.0625,0.21875 8.90625,0.125 8.78125,0 L8,0 Z M8,1.75 L8,2.8125 C8.65625,2.8125 8.65625,3.4375 9.34375,3.4375 C10,3.4375 10,2.8125 10.65625,2.8125 C11.34375,2.8125 11.34375,3.4375 12,3.4375 C12.65625,3.4375 12.65625,2.8125 13.34375,2.8125 C14,2.8125 14,3.4375 14.65625,3.4375 C15.34375,3.4375 15.34375,2.8125 16,2.8125 L16,1.75 C15.34375,1.75 15.34375,2.34375 14.65625,2.34375 C14,2.34375 14,1.75 13.34375,1.75 C12.65625,1.75 12.65625,2.34375 12,2.34375 C11.34375,2.34375 11.34375,1.75 10.65625,1.75 C10,1.75 10,2.34375 9.34375,2.34375 C8.65625,2.34375 8.65625,1.75 8,1.75 Z M8,3.90625 L8,4 L5.40625,4 L8,6.59375 L8,7.09375 C8.65625,7.09375 8.65625,7.71875 9.34375,7.71875 C10,7.71875 10,7.09375 10.65625,7.09375 C11.34375,7.09375 11.34375,7.71875 12,7.71875 C12.65625,7.71875 12.65625,7.09375 13.34375,7.09375 C14,7.09375 14,7.71875 14.65625,7.71875 C15.34375,7.71875 15.34375,7.09375 16,7.09375 L16,6.03125 C15.34375,6.03125 15.34375,6.65625 14.65625,6.65625 C14,6.65625 14,6.03125 13.34375,6.03125 C12.65625,6.03125 12.65625,6.65625 12,6.65625 C11.34375,6.65625 11.34375,6.03125 10.65625,6.03125 C10,6.03125 10,6.65625 9.34375,6.65625 C8.65625,6.65625 8.65625,6.03125 8,6.03125 L8,4.96875 C8.65625,4.96875 8.65625,5.5625 9.34375,5.5625 C10,5.5625 10,4.96875 10.65625,4.96875 C11.34375,4.96875 11.34375,5.5625 12,5.5625 C12.65625,5.5625 12.65625,4.96875 13.34375,4.96875 C14,4.96875 14,5.5625 14.65625,5.5625 C15.34375,5.5625 15.34375,4.96875 16,4.96875 L16,3.90625 C15.34375,3.90625 15.34375,4.5 14.65625,4.5 C14,4.5 14,3.90625 13.34375,3.90625 C12.65625,3.90625 12.65625,4.5 12,4.5 C11.34375,4.5 11.34375,3.90625 10.65625,3.90625 C10,3.90625 10,4.5 9.34375,4.5 C8.65625,4.5 8.65625,3.90625 8,3.90625 Z M4,5.40625 L4,8 L6.59375,8 L4,5.40625 Z M0,8.1875 L0,9.25 C0.65625,9.25 0.65625,9.875 1.34375,9.875 C2,9.875 2,9.25 2.65625,9.25 C3.34375,9.25 3.34375,9.875 4,9.875 C4.65625,9.875 4.65625,9.25 5.34375,9.25 C6,9.25 6,9.875 6.65625,9.875 C7.34375,9.875 7.34375,9.25 8,9.25 C8.65625,9.25 8.65625,9.875 9.34375,9.875 C10,9.875 10,9.25 10.65625,9.25 C11.34375,9.25 11.34375,9.875 12,9.875 C12.65625,9.875 12.65625,9.25 13.34375,9.25 C14,9.25 14,9.875 14.65625,9.875 C15.34375,9.875 15.34375,9.25 16,9.25 L16,8.1875 C15.34375,8.1875 15.34375,8.78125 14.65625,8.78125 C14,8.78125 14,8.1875 13.34375,8.1875 C12.65625,8.1875 12.65625,8.78125 12,8.78125 C11.34375,8.78125 11.34375,8.1875 10.65625,8.1875 C10,8.1875 10,8.78125 9.34375,8.78125 C8.65625,8.78125 8.65625,8.1875 8,8.1875 C7.34375,8.1875 7.34375,8.78125 6.65625,8.78125 C6,8.78125 6,8.1875 5.34375,8.1875 C4.65625,8.1875 4.65625,8.78125 4,8.78125 C3.34375,8.78125 3.34375,8.1875 2.65625,8.1875 C2,8.1875 2,8.78125 1.34375,8.78125 C0.65625,8.78125 0.65625,8.1875 0,8.1875 Z M0,10.3125 L0,11.40625 C0.65625,11.40625 0.65625,12 1.34375,12 C2,12 2,11.40625 2.65625,11.40625 C3.34375,11.40625 3.34375,12 4,12 C4.65625,12 4.65625,11.40625 5.34375,11.40625 C6,11.40625 6,12 6.65625,12 C7.34375,12 7.34375,11.40625 8,11.40625 C8.65625,11.40625 8.65625,12 9.34375,12 C10,12 10,11.40625 10.65625,11.40625 C11.34375,11.40625 11.34375,12 12,12 C12.65625,12 12.65625,11.40625 13.34375,11.40625 C14,11.40625 14,12 14.65625,12 C15.34375,12 15.34375,11.40625 16,11.40625 L16,10.3125 C15.34375,10.3125 15.34375,10.9375 14.65625,10.9375 C14,10.9375 14,10.3125 13.34375,10.3125 C12.65625,10.3125 12.65625,10.9375 12,10.9375 C11.34375,10.9375 11.34375,10.3125 10.65625,10.3125 C10,10.3125 10,10.9375 9.34375,10.9375 C8.65625,10.9375 8.65625,10.3125 8,10.3125 C7.34375,10.3125 7.34375,10.9375 6.65625,10.9375 C6,10.9375 6,10.3125 5.34375,10.3125 C4.65625,10.3125 4.65625,10.9375 4,10.9375 C3.34375,10.9375 3.34375,10.3125 2.65625,10.3125 C2,10.3125 2,10.9375 1.34375,10.9375 C0.65625,10.9375 0.65625,10.3125 0,10.3125 Z M0,12.46875 L0,13.53125 C0.65625,13.53125 0.65625,14.15625 1.34375,14.15625 C2,14.15625 2,13.53125 2.65625,13.53125 C3.34375,13.53125 3.34375,14.15625 4,14.15625 C4.65625,14.15625 4.65625,13.53125 5.34375,13.53125 C6,13.53125 6,14.15625 6.65625,14.15625 C7.34375,14.15625 7.34375,13.53125 8,13.53125 C8.65625,13.53125 8.65625,14.15625 9.34375,14.15625 C10,14.15625 10,13.53125 10.65625,13.53125 C11.34375,13.53125 11.34375,14.15625 12,14.15625 C12.65625,14.15625 12.65625,13.53125 13.34375,13.53125 C14,13.53125 14,14.15625 14.65625,14.15625 C15.34375,14.15625 15.34375,13.53125 16,13.53125 L16,12.46875 C15.34375,12.46875 15.34375,13.0625 14.65625,13.0625 C14,13.0625 14,12.46875 13.34375,12.46875 C12.65625,12.46875 12.65625,13.0625 12,13.0625 C11.34375,13.0625 11.34375,12.46875 10.65625,12.46875 C10,12.46875 10,13.0625 9.34375,13.0625 C8.65625,13.0625 8.65625,12.46875 8,12.46875 C7.34375,12.46875 7.34375,13.0625 6.65625,13.0625 C6,13.0625 6,12.46875 5.34375,12.46875 C4.65625,12.46875 4.65625,13.0625 4,13.0625 C3.34375,13.0625 3.34375,12.46875 2.65625,12.46875 C2,12.46875 2,13.0625 1.34375,13.0625 C0.65625,13.0625 0.65625,12.46875 0,12.46875 Z M0,14.625 L0,15.6875 C0.34375,15.6875 0.5,15.84375 0.6875,16 L2,16 C2.15625,15.84375 2.3125,15.6875 2.65625,15.6875 C3,15.6875 3.1875,15.84375 3.34375,16 L4.65625,16 C4.8125,15.84375 5,15.6875 5.34375,15.6875 C5.6875,15.6875 5.84375,15.84375 6.03125,16 L7.3125,16 C7.5,15.84375 7.65625,15.6875 8,15.6875 C8.34375,15.6875 8.5,15.84375 8.6875,16 L10,16 C10.15625,15.84375 10.3125,15.6875 10.65625,15.6875 C11,15.6875 11.1875,15.84375 11.34375,16 L12.65625,16 C12.8125,15.84375 13,15.6875 13.34375,15.6875 C13.6875,15.6875 13.84375,15.84375 14.03125,16 L15.3125,16 C15.5,15.84375 15.65625,15.6875 16,15.6875 L16,14.625 C15.34375,14.625 15.34375,15.21875 14.65625,15.21875 C14,15.21875 14,14.625 13.34375,14.625 C12.65625,14.625 12.65625,15.21875 12,15.21875 C11.34375,15.21875 11.34375,14.625 10.65625,14.625 C10,14.625 10,15.21875 9.34375,15.21875 C8.65625,15.21875 8.65625,14.625 8,14.625 C7.34375,14.625 7.34375,15.21875 6.65625,15.21875 C6,15.21875 6,14.625 5.34375,14.625 C4.65625,14.625 4.65625,15.21875 4,15.21875 C3.34375,15.21875 3.34375,14.625 2.65625,14.625 C2,14.625 2,15.21875 1.34375,15.21875 C0.65625,15.21875 0.65625,14.625 0,14.625 Z" id="Shape" fill="#0052B4"></path>
                    <polygon id="Path" fill="#6DA544" points="10.4375 4.1875 13.5625 4.1875 12 5.75"></polygon>
                    <path d="M11.65625,5.40625 L12.65625,5.40625 L12.65625,6.96875 L12.15625,7.21875 L11.65625,6.96875 L11.65625,5.40625 Z M11.65625,10.4375 L12.65625,10.4375 L12.65625,12.34375 L11.65625,12.34375 L11.65625,10.4375 Z" id="Shape" fill="#A2001D"></path>
                    <path d="M14.09375,9.40625 C14.0827743,8.99746641 13.8381721,8.63125961 13.4647618,8.46455858 C13.0913515,8.29785755 12.6554102,8.36025032 12.34375,8.625 L12.34375,8 L12.6875,8 L12.6875,7.3125 L12.34375,7.3125 L12.34375,6.96875 L11.65625,6.96875 L11.65625,7.3125 L11.3125,7.3125 L11.3125,8 L11.65625,8 L11.65625,8.625 C11.2207768,8.25722182 10.5726793,8.29858975 10.1875,8.71875 C9.81539241,9.13569846 9.84310861,9.77317106 10.25,10.15625 L10.25,10.78125 L13.75,10.78125 L13.75,10.15625 C13.96875,9.96875 14.09375,9.71875 14.09375,9.40625 Z" id="Path" fill="#FFDA44"></path>
                    <path d="M10.96875,9.03125 C10.875,9.03125 10.78125,9.09375 10.71875,9.15625 C10.59375,9.28125 10.59375,9.53125 10.71875,9.65625 L10.96875,9.84375 L10.96875,10.09375 L13,10.09375 L13,9.84375 L13.25,9.65625 C13.375,9.53125 13.375,9.28125 13.25,9.15625 C13.125,9.03125 12.9375,9 12.78125,9.125 L12.3125,9.5625 L11.65625,9.5625 L11.1875,9.125 C11.1280724,9.0687 11.0505035,9.03545621 10.96875,9.03125 Z" id="Path" fill="#D80027"></path>
                </g>
            </g>
        </g>
    </g>
</svg>