<?xml version="1.0" encoding="UTF-8"?>
<svg width="20px" height="20px" viewBox="0 0 20 20" version="1.1" xmlns="http://www.w3.org/2000/svg" xmlns:xlink="http://www.w3.org/1999/xlink">
    <title>io_flag_20px</title>
    <defs>
        <circle id="path-1" cx="10" cy="10" r="10"></circle>
    </defs>
    <g id="Design-System" stroke="none" stroke-width="1" fill="none" fill-rule="evenodd">
        <g id="Flags-20x20" transform="translate(-401.000000, -805.000000)">
            <g id="flag" transform="translate(401.000000, 805.000000)">
                <mask id="mask-2" fill="white">
                    <use xlink:href="#path-1"></use>
                </mask>
                <use id="Mask" fill="#D8D8D8" xlink:href="#path-1"></use>
                <g id="io" mask="url(#mask-2)" fill-rule="nonzero">
                    <polygon id="Path" fill="#EEEEEE" points="0 0 1.25 0 2.5 1.25 3.75 0 10 0 10.46875 0.3125 10.9765625 0 12.3828125 0 13.3203125 0.3125 14.296875 0 15.703125 0 16.6796875 0.3125 17.6171875 0 19.0234375 0 20 0.859375 20 2.1875 19.6875 2.8515625 20 3.515625 20 4.8828125 19.6875 5.546875 20 6.2109375 20 7.5390625 19.6875 8.203125 20 8.8671875 20 10.234375 19.6875 10.8984375 20 11.5625 20 12.890625 19.6875 13.5546875 20 14.2578125 20 15.5859375 19.6875 16.25 20 16.9140625 20 18.28125 19.6875 18.9453125 20 19.609375 20 20 19.140625 20 18.3203125 19.6875 17.5390625 20 15.8203125 20 15 19.6875 14.1796875 20 12.4609375 20 11.6796875 19.6875 10.859375 20 9.140625 20 8.3203125 19.6875 7.5390625 20 5.8203125 20 5 19.6875 4.1796875 20 2.5 20 1.6796875 19.6875 0.859375 20 0 20 0 19.609375 0.3125 18.9453125 0 18.28125 0 16.9140625 0.3125 16.25 0 15.5859375 0 14.2578125 0.3125 13.5546875 0 12.890625 0 11.5625 0.3125 10.8984375 0 10.234375 0 3.75 1.25 2.5 0 1.25"></polygon>
                    <path d="M1.25,0 L1.25,1.25 L0,1.25 L0,3.75 L1.25,3.75 L1.25,10 L3.75,10 L3.75,3.75 L10,3.75 L10,1.25 L3.75,1.25 L3.75,0 L1.25,0 Z M5,5 L10,10 L10,8.7890625 L6.2109375,5 L5,5 Z" id="Shape" fill="#D80027"></path>
                    <path d="M10,0 L10,0.859375 C10.8203125,0.859375 10.8203125,1.6015625 11.6796875,1.6015625 C12.5,1.6015625 12.5,0.859375 13.3203125,0.859375 C14.1796875,0.859375 14.1796875,1.6015625 15,1.6015625 C15.8203125,1.6015625 15.8203125,0.859375 16.6796875,0.859375 C17.5,0.859375 17.5,1.6015625 18.3203125,1.6015625 C19.1796875,1.6015625 19.1796875,0.859375 20,0.859375 L20,0 L19.0234375,0 C18.8671875,0.15625 18.671875,0.2734375 18.3203125,0.2734375 C18.0078125,0.2734375 17.8125,0.15625 17.6171875,0 L15.703125,0 C15.546875,0.15625 15.3515625,0.2734375 15,0.2734375 C14.6875,0.2734375 14.453125,0.15625 14.296875,0 L12.3828125,0 C12.1875,0.15625 11.9921875,0.2734375 11.6796875,0.2734375 C11.328125,0.2734375 11.1328125,0.15625 10.9765625,0 L10,0 Z M10,2.1875 L10,3.515625 C10.8203125,3.515625 10.8203125,4.296875 11.6796875,4.296875 C12.5,4.296875 12.5,3.515625 13.3203125,3.515625 C14.1796875,3.515625 14.1796875,4.296875 15,4.296875 C15.8203125,4.296875 15.8203125,3.515625 16.6796875,3.515625 C17.5,3.515625 17.5,4.296875 18.3203125,4.296875 C19.1796875,4.296875 19.1796875,3.515625 20,3.515625 L20,2.1875 C19.1796875,2.1875 19.1796875,2.9296875 18.3203125,2.9296875 C17.5,2.9296875 17.5,2.1875 16.6796875,2.1875 C15.8203125,2.1875 15.8203125,2.9296875 15,2.9296875 C14.1796875,2.9296875 14.1796875,2.1875 13.3203125,2.1875 C12.5,2.1875 12.5,2.9296875 11.6796875,2.9296875 C10.8203125,2.9296875 10.8203125,2.1875 10,2.1875 Z M10,4.8828125 L10,5 L6.7578125,5 L10,8.2421875 L10,8.8671875 C10.8203125,8.8671875 10.8203125,9.6484375 11.6796875,9.6484375 C12.5,9.6484375 12.5,8.8671875 13.3203125,8.8671875 C14.1796875,8.8671875 14.1796875,9.6484375 15,9.6484375 C15.8203125,9.6484375 15.8203125,8.8671875 16.6796875,8.8671875 C17.5,8.8671875 17.5,9.6484375 18.3203125,9.6484375 C19.1796875,9.6484375 19.1796875,8.8671875 20,8.8671875 L20,7.5390625 C19.1796875,7.5390625 19.1796875,8.3203125 18.3203125,8.3203125 C17.5,8.3203125 17.5,7.5390625 16.6796875,7.5390625 C15.8203125,7.5390625 15.8203125,8.3203125 15,8.3203125 C14.1796875,8.3203125 14.1796875,7.5390625 13.3203125,7.5390625 C12.5,7.5390625 12.5,8.3203125 11.6796875,8.3203125 C10.8203125,8.3203125 10.8203125,7.5390625 10,7.5390625 L10,6.2109375 C10.8203125,6.2109375 10.8203125,6.953125 11.6796875,6.953125 C12.5,6.953125 12.5,6.2109375 13.3203125,6.2109375 C14.1796875,6.2109375 14.1796875,6.953125 15,6.953125 C15.8203125,6.953125 15.8203125,6.2109375 16.6796875,6.2109375 C17.5,6.2109375 17.5,6.953125 18.3203125,6.953125 C19.1796875,6.953125 19.1796875,6.2109375 20,6.2109375 L20,4.8828125 C19.1796875,4.8828125 19.1796875,5.625 18.3203125,5.625 C17.5,5.625 17.5,4.8828125 16.6796875,4.8828125 C15.8203125,4.8828125 15.8203125,5.625 15,5.625 C14.1796875,5.625 14.1796875,4.8828125 13.3203125,4.8828125 C12.5,4.8828125 12.5,5.625 11.6796875,5.625 C10.8203125,5.625 10.8203125,4.8828125 10,4.8828125 Z M5,6.7578125 L5,10 L8.2421875,10 L5,6.7578125 Z M0,10.234375 L0,11.5625 C0.8203125,11.5625 0.8203125,12.34375 1.6796875,12.34375 C2.5,12.34375 2.5,11.5625 3.3203125,11.5625 C4.1796875,11.5625 4.1796875,12.34375 5,12.34375 C5.8203125,12.34375 5.8203125,11.5625 6.6796875,11.5625 C7.5,11.5625 7.5,12.34375 8.3203125,12.34375 C9.1796875,12.34375 9.1796875,11.5625 10,11.5625 C10.8203125,11.5625 10.8203125,12.34375 11.6796875,12.34375 C12.5,12.34375 12.5,11.5625 13.3203125,11.5625 C14.1796875,11.5625 14.1796875,12.34375 15,12.34375 C15.8203125,12.34375 15.8203125,11.5625 16.6796875,11.5625 C17.5,11.5625 17.5,12.34375 18.3203125,12.34375 C19.1796875,12.34375 19.1796875,11.5625 20,11.5625 L20,10.234375 C19.1796875,10.234375 19.1796875,10.9765625 18.3203125,10.9765625 C17.5,10.9765625 17.5,10.234375 16.6796875,10.234375 C15.8203125,10.234375 15.8203125,10.9765625 15,10.9765625 C14.1796875,10.9765625 14.1796875,10.234375 13.3203125,10.234375 C12.5,10.234375 12.5,10.9765625 11.6796875,10.9765625 C10.8203125,10.9765625 10.8203125,10.234375 10,10.234375 C9.1796875,10.234375 9.1796875,10.9765625 8.3203125,10.9765625 C7.5,10.9765625 7.5,10.234375 6.6796875,10.234375 C5.8203125,10.234375 5.8203125,10.9765625 5,10.9765625 C4.1796875,10.9765625 4.1796875,10.234375 3.3203125,10.234375 C2.5,10.234375 2.5,10.9765625 1.6796875,10.9765625 C0.8203125,10.9765625 0.8203125,10.234375 0,10.234375 Z M0,12.890625 L0,14.2578125 C0.8203125,14.2578125 0.8203125,15 1.6796875,15 C2.5,15 2.5,14.2578125 3.3203125,14.2578125 C4.1796875,14.2578125 4.1796875,15 5,15 C5.8203125,15 5.8203125,14.2578125 6.6796875,14.2578125 C7.5,14.2578125 7.5,15 8.3203125,15 C9.1796875,15 9.1796875,14.2578125 10,14.2578125 C10.8203125,14.2578125 10.8203125,15 11.6796875,15 C12.5,15 12.5,14.2578125 13.3203125,14.2578125 C14.1796875,14.2578125 14.1796875,15 15,15 C15.8203125,15 15.8203125,14.2578125 16.6796875,14.2578125 C17.5,14.2578125 17.5,15 18.3203125,15 C19.1796875,15 19.1796875,14.2578125 20,14.2578125 L20,12.890625 C19.1796875,12.890625 19.1796875,13.671875 18.3203125,13.671875 C17.5,13.671875 17.5,12.890625 16.6796875,12.890625 C15.8203125,12.890625 15.8203125,13.671875 15,13.671875 C14.1796875,13.671875 14.1796875,12.890625 13.3203125,12.890625 C12.5,12.890625 12.5,13.671875 11.6796875,13.671875 C10.8203125,13.671875 10.8203125,12.890625 10,12.890625 C9.1796875,12.890625 9.1796875,13.671875 8.3203125,13.671875 C7.5,13.671875 7.5,12.890625 6.6796875,12.890625 C5.8203125,12.890625 5.8203125,13.671875 5,13.671875 C4.1796875,13.671875 4.1796875,12.890625 3.3203125,12.890625 C2.5,12.890625 2.5,13.671875 1.6796875,13.671875 C0.8203125,13.671875 0.8203125,12.890625 0,12.890625 Z M0,15.5859375 L0,16.9140625 C0.8203125,16.9140625 0.8203125,17.6953125 1.6796875,17.6953125 C2.5,17.6953125 2.5,16.9140625 3.3203125,16.9140625 C4.1796875,16.9140625 4.1796875,17.6953125 5,17.6953125 C5.8203125,17.6953125 5.8203125,16.9140625 6.6796875,16.9140625 C7.5,16.9140625 7.5,17.6953125 8.3203125,17.6953125 C9.1796875,17.6953125 9.1796875,16.9140625 10,16.9140625 C10.8203125,16.9140625 10.8203125,17.6953125 11.6796875,17.6953125 C12.5,17.6953125 12.5,16.9140625 13.3203125,16.9140625 C14.1796875,16.9140625 14.1796875,17.6953125 15,17.6953125 C15.8203125,17.6953125 15.8203125,16.9140625 16.6796875,16.9140625 C17.5,16.9140625 17.5,17.6953125 18.3203125,17.6953125 C19.1796875,17.6953125 19.1796875,16.9140625 20,16.9140625 L20,15.5859375 C19.1796875,15.5859375 19.1796875,16.328125 18.3203125,16.328125 C17.5,16.328125 17.5,15.5859375 16.6796875,15.5859375 C15.8203125,15.5859375 15.8203125,16.328125 15,16.328125 C14.1796875,16.328125 14.1796875,15.5859375 13.3203125,15.5859375 C12.5,15.5859375 12.5,16.328125 11.6796875,16.328125 C10.8203125,16.328125 10.8203125,15.5859375 10,15.5859375 C9.1796875,15.5859375 9.1796875,16.328125 8.3203125,16.328125 C7.5,16.328125 7.5,15.5859375 6.6796875,15.5859375 C5.8203125,15.5859375 5.8203125,16.328125 5,16.328125 C4.1796875,16.328125 4.1796875,15.5859375 3.3203125,15.5859375 C2.5,15.5859375 2.5,16.328125 1.6796875,16.328125 C0.8203125,16.328125 0.8203125,15.5859375 0,15.5859375 Z M0,18.28125 L0,19.609375 C0.4296875,19.609375 0.625,19.8046875 0.859375,20 L2.5,20 C2.6953125,19.8046875 2.890625,19.609375 3.3203125,19.609375 C3.75,19.609375 3.984375,19.8046875 4.1796875,20 L5.8203125,20 C6.015625,19.8046875 6.25,19.609375 6.6796875,19.609375 C7.109375,19.609375 7.3046875,19.8046875 7.5390625,20 L9.140625,20 C9.375,19.8046875 9.5703125,19.609375 10,19.609375 C10.4296875,19.609375 10.625,19.8046875 10.859375,20 L12.5,20 C12.6953125,19.8046875 12.890625,19.609375 13.3203125,19.609375 C13.75,19.609375 13.984375,19.8046875 14.1796875,20 L15.8203125,20 C16.015625,19.8046875 16.25,19.609375 16.6796875,19.609375 C17.109375,19.609375 17.3046875,19.8046875 17.5390625,20 L19.140625,20 C19.375,19.8046875 19.5703125,19.609375 20,19.609375 L20,18.28125 C19.1796875,18.28125 19.1796875,19.0234375 18.3203125,19.0234375 C17.5,19.0234375 17.5,18.28125 16.6796875,18.28125 C15.8203125,18.28125 15.8203125,19.0234375 15,19.0234375 C14.1796875,19.0234375 14.1796875,18.28125 13.3203125,18.28125 C12.5,18.28125 12.5,19.0234375 11.6796875,19.0234375 C10.8203125,19.0234375 10.8203125,18.28125 10,18.28125 C9.1796875,18.28125 9.1796875,19.0234375 8.3203125,19.0234375 C7.5,19.0234375 7.5,18.28125 6.6796875,18.28125 C5.8203125,18.28125 5.8203125,19.0234375 5,19.0234375 C4.1796875,19.0234375 4.1796875,18.28125 3.3203125,18.28125 C2.5,18.28125 2.5,19.0234375 1.6796875,19.0234375 C0.8203125,19.0234375 0.8203125,18.28125 0,18.28125 Z" id="Shape" fill="#0052B4"></path>
                    <polygon id="Path" fill="#6DA544" points="13.046875 5.234375 16.953125 5.234375 15 7.1875"></polygon>
                    <path d="M14.5703125,6.7578125 L15.5703125,6.7578125 L15.5703125,8.7109375 L15.0703125,9.0234375 L14.5703125,8.7109375 L14.5703125,6.7578125 Z M14.5703125,13.046875 L15.5703125,13.046875 L15.5703125,15.4296875 L14.5703125,15.4296875 L14.5703125,13.046875 Z" id="Shape" fill="#A2001D"></path>
                    <path d="M17.6171875,11.7578125 C17.6034678,11.246833 17.2977151,10.7890745 16.8309522,10.5806982 C16.3641894,10.3723219 15.8192628,10.4503129 15.4296875,10.78125 L15.4296875,10 L15.859375,10 L15.859375,9.140625 L15.4296875,9.140625 L15.4296875,8.7109375 L14.5703125,8.7109375 L14.5703125,9.140625 L14.140625,9.140625 L14.140625,10 L14.5703125,10 L14.5703125,10.78125 C14.0259709,10.3215273 13.2158491,10.3732372 12.734375,10.8984375 C12.2692405,11.4196231 12.3038858,12.2164638 12.8125,12.6953125 L12.8125,13.4765625 L17.1875,13.4765625 L17.1875,12.6953125 C17.4609375,12.4609375 17.6171875,12.1484375 17.6171875,11.7578125 Z" id="Path" fill="#FFDA44"></path>
                    <path d="M13.7109375,11.2890625 C13.59375,11.2890625 13.4765625,11.3671875 13.3984375,11.4453125 C13.2421875,11.6015625 13.2421875,11.9140625 13.3984375,12.0703125 L13.7109375,12.3046875 L13.7109375,12.6171875 L16.25,12.6171875 L16.25,12.3046875 L16.5625,12.0703125 C16.71875,11.9140625 16.71875,11.6015625 16.5625,11.4453125 C16.40625,11.2890625 16.171875,11.25 15.9765625,11.40625 L15.390625,11.953125 L14.5703125,11.953125 L13.984375,11.40625 C13.9100905,11.335875 13.8131294,11.2943203 13.7109375,11.2890625 Z" id="Path" fill="#D80027"></path>
                </g>
            </g>
        </g>
    </g>
</svg>