<?xml version="1.0" encoding="UTF-8"?>
<svg width="20px" height="20px" viewBox="0 0 20 20" version="1.1" xmlns="http://www.w3.org/2000/svg" xmlns:xlink="http://www.w3.org/1999/xlink">
    <title>iq_flag_20px</title>
    <defs>
        <circle id="path-1" cx="10" cy="10" r="10"></circle>
    </defs>
    <g id="Design-System" stroke="none" stroke-width="1" fill="none" fill-rule="evenodd">
        <g id="Flags-20x20" transform="translate(-451.000000, -805.000000)">
            <g id="flag" transform="translate(451.000000, 805.000000)">
                <mask id="mask-2" fill="white">
                    <use xlink:href="#path-1"></use>
                </mask>
                <use id="Mask" fill="#D8D8D8" xlink:href="#path-1"></use>
                <g id="iq" mask="url(#mask-2)" fill-rule="nonzero">
                    <polygon id="Path" fill="#EEEEEE" points="0 6.5234375 9.9140625 5.76953125 20 6.5234375 20 13.4765625 10.0429688 14.7382812 0 13.4765625"></polygon>
                    <polygon id="Path" fill="#A2001D" points="0 0 20 0 20 6.5234375 0 6.5234375"></polygon>
                    <polygon id="Path" fill="#333333" points="0 13.4765625 20 13.4765625 20 20 0 20"></polygon>
                    <path d="M7.609375,9.34765625 L5.6796875,9.34765625 C5.77939602,8.96332564 6.12638368,8.69505278 6.5234375,8.6953125 L6.5234375,7.390625 C5.32421875,7.390625 4.34765625,8.3671875 4.34765625,9.56640625 L4.34765625,10.6523438 L7.609375,10.6523438 C7.72865908,10.6544742 7.82423777,10.7517907 7.82421875,10.8710938 L7.82421875,11.3007812 L3.4765625,11.3007812 L3.4765625,12.609375 L9.12890625,12.609375 L9.12890625,10.8710938 C9.12890625,10.0297225 8.44684005,9.34765625 7.60546875,9.34765625 L7.609375,9.34765625 Z M10.8710938,11.3007812 L10.8710938,7.39453125 L9.56640625,7.39453125 L9.56640625,12.609375 L11.7382813,12.609375 L11.7382813,11.3046875 L10.8710938,11.3007812 Z M15.21875,11.3007812 L15.21875,7.39453125 L13.9140625,7.39453125 L13.9140625,11.3007812 L13.4765625,11.3007812 L13.4765625,10 L12.1757812,10 L12.1757812,12.609375 L16.0859375,12.609375 L16.0859375,11.3046875 L15.21875,11.3007812 Z" id="Shape" fill="#496E2D"></path>
                </g>
            </g>
        </g>
    </g>
</svg>