<?xml version="1.0" encoding="UTF-8"?>
<svg width="20px" height="20px" viewBox="0 0 20 20" version="1.1" xmlns="http://www.w3.org/2000/svg" xmlns:xlink="http://www.w3.org/1999/xlink">
    <title>ir_flag_20px</title>
    <defs>
        <circle id="path-1" cx="10" cy="10" r="10"></circle>
    </defs>
    <g id="Design-System" stroke="none" stroke-width="1" fill="none" fill-rule="evenodd">
        <g id="Flags-20x20" transform="translate(-501.000000, -805.000000)">
            <g id="flag" transform="translate(501.000000, 805.000000)">
                <mask id="mask-2" fill="white">
                    <use xlink:href="#path-1"></use>
                </mask>
                <use id="Mask" fill="#D8D8D8" xlink:href="#path-1"></use>
                <g id="ir" mask="url(#mask-2)" fill-rule="nonzero">
                    <polygon id="Path" fill="#EEEEEE" points="0 5.65234375 10.109375 1.546875 20 5.65234375 20 14.3476562 10.0390625 19.2578125 0 14.3476563"></polygon>
                    <polygon id="Path" fill="#6DA544" points="0 0 0 5.65234375 4.125 5.65234375 4.125 4.78515625 5.4375 4.78515625 5.4375 5.65234375 6.73828125 5.65234375 6.73828125 4.78515625 8.05078125 4.78515625 8.05078125 5.65234375 9.3515625 5.65234375 9.3515625 4.78515625 10.6640625 4.78515625 10.6640625 5.65234375 11.953125 5.65234375 11.953125 4.78515625 13.265625 4.78515625 13.265625 5.65234375 14.5625 5.65234375 14.5625 4.78515625 15.875 4.78515625 15.875 5.65234375 20 5.65234375 20 0"></polygon>
                    <path d="M0,14.3476562 L0,20 L20,20 L20,14.3476562 L15.875,14.3476562 L15.875,15.2226562 L14.5625,15.2226562 L14.5625,14.3476562 L13.265625,14.3476562 L13.265625,15.2226562 L11.953125,15.2226562 L11.953125,14.3476562 L10.6640625,14.3476562 L10.6640625,15.2226562 L9.3515625,15.2226562 L9.3515625,14.3476562 L8.05078125,14.3476562 L8.05078125,15.2226562 L6.73828125,15.2226562 L6.73828125,14.3476562 L5.4375,14.3476562 L5.4375,15.2226562 L4.125,15.2226562 L4.125,14.3476562 L0,14.3476562 Z M13.2460938,7.39453125 L11.9414062,7.39453125 C11.9492188,7.5390625 11.9570312,7.68359375 11.9570312,7.828125 C11.9570312,8.796875 11.7148438,9.734375 11.2929688,10.40625 C11.1640625,10.609375 10.9414062,10.8984375 10.6523438,11.09375 L10.6523438,7.39453125 L9.34765625,7.39453125 L9.34765625,11.0976562 C9.0546875,10.9023438 8.83984375,10.6132812 8.70703125,10.40625 C8.28515625,9.7421875 8.04296875,8.8046875 8.04296875,7.83203125 C8.04296875,7.6875 8.05078125,7.54296875 8.05859375,7.40234375 L6.7578125,7.40234375 C6.74845554,7.54539196 6.74324502,7.68868124 6.7421875,7.83203125 C6.7421875,10.515625 8.17578125,12.6171875 10.0039062,12.6171875 C11.8320312,12.6171875 13.265625,10.515625 13.265625,7.83203125 C13.265625,7.6875 13.2617187,7.54296875 13.25,7.40234375 L13.2460938,7.39453125 Z" id="Shape" fill="#D80027"></path>
                </g>
            </g>
        </g>
    </g>
</svg>