<?xml version="1.0" encoding="UTF-8"?>
<svg width="20px" height="20px" viewBox="0 0 20 20" version="1.1" xmlns="http://www.w3.org/2000/svg" xmlns:xlink="http://www.w3.org/1999/xlink">
    <title>it_82_flag_20px</title>
    <defs>
        <circle id="path-1" cx="10" cy="10" r="10"></circle>
    </defs>
    <g id="Design-System" stroke="none" stroke-width="1" fill="none" fill-rule="evenodd">
        <g id="Flags-20x20" transform="translate(-201.000000, -855.000000)">
            <g id="flag" transform="translate(201.000000, 855.000000)">
                <mask id="mask-2" fill="white">
                    <use xlink:href="#path-1"></use>
                </mask>
                <use id="Mask" fill="#D8D8D8" xlink:href="#path-1"></use>
                <g id="it-82" mask="url(#mask-2)" fill-rule="nonzero">
                    <polygon id="Path" fill="#D80027" points="0 0 8.47265625 11.78125 20 20 20 0"></polygon>
                    <polygon id="Path" fill="#FFDA44" points="0 0 20 20 0 20"></polygon>
                    <path d="M12.515625,12.515625 C11.9148792,12.7601596 11.2251457,12.5964195 10.7984088,12.1079644 C10.371672,11.6195094 10.3020209,10.9140367 10.625,10.3515625 L10.5,10.2851563 C11.5265742,10.0340615 12.3279307,9.23225504 12.5784491,8.20554003 C12.8289676,7.17882502 12.4869638,6.09803867 11.6914062,5.40234375 L10.78125,6.33984375 C11.2897137,6.73891224 11.490072,7.41596614 11.2806643,8.02747197 C11.0712565,8.63897779 10.49792,9.05108294 9.8515625,9.0546875 L9.8515625,9.1953125 C9.12055085,8.43870618 8.03036802,8.14968091 7.02053701,8.44476139 C6.01070601,8.73984188 5.24767173,9.57039164 5.0390625,10.6015625 L6.3046875,10.921875 C6.39955438,10.2849945 6.88553506,9.77705471 7.51760428,9.65415236 C8.1496735,9.53125001 8.79058023,9.82007281 9.1171875,10.375 L9.2421875,10.296875 C8.94729676,11.3092165 9.23923445,12.4015658 9.99984494,13.1318175 C10.7604554,13.8620692 11.8637838,14.1092958 12.8632812,13.7734375 L12.5117187,12.5117188 L12.515625,12.515625 Z" id="Path" fill="#FF9811"></path>
                    <polygon id="Path" fill="#EEEEEE" points="13.6015625 6.671875 12.890625 9.1953125 10.7695312 8.8046875 9.40234375 5.98828125 5.71484375 7.296875 5.42578125 6.4765625 4.4609375 6.359375 5.1875 8.40625 7.7265625 7.7578125 8.4453125 9.7890625 6.6875 12.3789063 9.671875 14.9179688 9.10546875 15.5820312 9.484375 16.4765625 10.890625 14.8203125 9.06640625 12.9453125 10.4648438 11.3046875 13.5820312 11.53125 14.2929688 7.68359375 15.1523438 7.83984375 15.7382812 7.06640625"></polygon>
                </g>
            </g>
        </g>
    </g>
</svg>