<?xml version="1.0" encoding="UTF-8"?>
<svg width="20px" height="20px" viewBox="0 0 20 20" version="1.1" xmlns="http://www.w3.org/2000/svg" xmlns:xlink="http://www.w3.org/1999/xlink">
    <title>it_88_flag_20px</title>
    <defs>
        <circle id="path-1" cx="10" cy="10" r="10"></circle>
    </defs>
    <g id="Design-System" stroke="none" stroke-width="1" fill="none" fill-rule="evenodd">
        <g id="Flags-20x20" transform="translate(-251.000000, -855.000000)">
            <g id="flag" transform="translate(251.000000, 855.000000)">
                <mask id="mask-2" fill="white">
                    <use xlink:href="#path-1"></use>
                </mask>
                <use id="Mask" fill="#D8D8D8" xlink:href="#path-1"></use>
                <g id="it-88" mask="url(#mask-2)" fill-rule="nonzero">
                    <polygon id="Path" fill="#EEEEEE" points="0 0 8.6953125 0 9.90625 0.9140625 11.3046875 0 20 0 20 8.6953125 19.1601562 9.90625 20 11.3046875 20 20 11.3046875 20 9.96875 19.1992188 8.6953125 20 0 20 0 11.3046875 0.88671875 10.03125 0 8.6953125"></polygon>
                    <polygon id="Path" fill="#D80027" points="8.6953125 0 8.6953125 8.6953125 0 8.6953125 0 11.3046875 8.6953125 11.3046875 8.6953125 20 11.3046875 20 11.3046875 11.3046875 20 11.3046875 20 8.6953125 11.3046875 8.6953125 11.3046875 0"></polygon>
                    <path d="M14.78125,3.47655746 C13.98958,3.47822434 13.2990339,4.01460194 13.1015625,4.78125 L14.78125,5.21875 L16.46875,4.78125 C16.2705534,4.01178431 15.575829,3.47465943 14.78125,3.47655746 Z M13.046875,7.390625 L15.2226562,7.82421875 L15.2226562,6.90234375 C15.8320312,6.74609375 16.3164062,6.26171875 16.4726562,5.65234375 L14.7851562,5.21875 L12.6132812,5.21875 L13.046875,6.5234375 L13.046875,7.390625 Z" id="Shape" fill="#333333"></path>
                    <path d="M16.46875,4.78125 L12.609375,4.78125 L12.609375,6.5234375 L13.0429687,6.5234375 L13.0429687,5.65234375 L16.46875,5.65234375 C16.5051066,5.5106809 16.5234803,5.36500377 16.5234376,5.21875 C16.5234376,5.06640625 16.5039062,4.921875 16.46875,4.78125 L16.46875,4.78125 Z" id="Path" fill="#ACABB1"></path>
                    <path d="M5.65234375,3.47656248 C4.85921879,3.47644464 4.16658566,4.01319514 3.96875,4.78125 L5.65234375,5.21875 L7.3359375,4.78125 C7.13810184,4.01319514 6.44546871,3.47644464 5.65234375,3.47656248 Z M3.9140625,7.390625 L6.0859375,7.82421875 L6.0859375,6.90234375 C6.69921875,6.74609375 7.1796875,6.26171875 7.3359375,5.65234375 L5.65234375,5.21875 L3.4765625,5.21875 L3.9140625,6.5234375 L3.9140625,7.390625 Z" id="Shape" fill="#333333"></path>
                    <path d="M7.3359375,4.78125 L3.4765625,4.78125 L3.4765625,6.5234375 L3.9140625,6.5234375 L3.9140625,5.65234375 L7.3359375,5.65234375 C7.37229415,5.5106809 7.39066784,5.36500377 7.39062507,5.21875 C7.39062507,5.06640625 7.37109375,4.921875 7.3359375,4.78125 L7.3359375,4.78125 Z" id="Path" fill="#ACABB1"></path>
                    <path d="M14.78125,12.1757735 C13.9907051,12.1769807 13.3005304,12.7114648 13.1015625,13.4765625 L14.78125,13.9140625 L16.46875,13.4765625 C16.2690523,12.7086479 15.5747022,12.1734197 14.78125,12.1757735 Z M13.046875,16.0859375 L15.2226562,16.5234375 L15.2226562,15.5976562 C15.8320312,15.4414062 16.3164062,14.9570312 16.4726562,14.3476562 L14.7851562,13.9140625 L12.6132812,13.9140625 L13.046875,15.21875 L13.046875,16.0859375 Z" id="Shape" fill="#333333"></path>
                    <path d="M16.46875,13.4765625 L12.609375,13.4765625 L12.609375,15.21875 L13.0429687,15.21875 L13.0429687,14.3476562 L16.46875,14.3476562 C16.5051066,14.2059934 16.5234803,14.0603163 16.5234376,13.9140625 C16.5234376,13.7617188 16.5039062,13.6171875 16.46875,13.4765625 L16.46875,13.4765625 Z" id="Path" fill="#ACABB1"></path>
                    <path d="M5.65234375,12.1757808 C4.86034472,12.175203 4.16808443,12.7100584 3.96875,13.4765625 L5.65234375,13.9140625 L7.3359375,13.4765625 C7.13660307,12.7100584 6.44434278,12.175203 5.65234375,12.1757808 L5.65234375,12.1757808 Z M3.9140625,16.0859375 L6.0859375,16.5234375 L6.0859375,15.5976562 C6.69921875,15.4414062 7.1796875,14.9570312 7.3359375,14.3476562 L5.65234375,13.9140625 L3.4765625,13.9140625 L3.9140625,15.21875 L3.9140625,16.0859375 Z" id="Shape" fill="#333333"></path>
                    <path d="M7.3359375,13.4765625 L3.4765625,13.4765625 L3.4765625,15.21875 L3.9140625,15.21875 L3.9140625,14.3476562 L7.3359375,14.3476562 C7.37229415,14.2059934 7.39066784,14.0603163 7.39062507,13.9140625 C7.39062507,13.7617188 7.37109375,13.6171875 7.3359375,13.4765625 Z" id="Path" fill="#ACABB1"></path>
                </g>
            </g>
        </g>
    </g>
</svg>