<?xml version="1.0" encoding="UTF-8"?>
<svg width="16px" height="16px" viewBox="0 0 16 16" version="1.1" xmlns="http://www.w3.org/2000/svg" xmlns:xlink="http://www.w3.org/1999/xlink">
    <title>je_flag_16px</title>
    <defs>
        <circle id="path-1" cx="8" cy="8" r="8"></circle>
    </defs>
    <g id="Design-System" stroke="none" stroke-width="1" fill="none" fill-rule="evenodd">
        <g id="Flags-16x16" transform="translate(-301.000000, -855.000000)">
            <g id="flag" transform="translate(301.000000, 855.000000)">
                <mask id="mask-2" fill="white">
                    <use xlink:href="#path-1"></use>
                </mask>
                <use id="Mask" fill="#D8D8D8" xlink:href="#path-1"></use>
                <g id="je" mask="url(#mask-2)" fill-rule="nonzero">
                    <polygon id="Path" fill="#EEEEEE" points="0 1.471875 1.46875 0 14.525 0 16 1.475 16 14.528125 14.528125 16 1.46875 16 0 14.528125"></polygon>
                    <polygon id="Path" fill="#D80027" points="0 0 0 1.471875 6.525 8 0 14.528125 0 16 1.471875 16 8 9.475 14.528125 16 16 16 16 14.53125 9.471875 8 16 1.475 16 0 14.525 0 8 6.528125 1.46875 0"></polygon>
                    <polygon id="Path" fill="#FFDA44" points="6.609375 2.4375 8 2.78125 9.390625 2.4375 9.390625 1.25 8.834375 1.53125 8 0.696875 7.165625 1.53125 6.609375 1.25"></polygon>
                    <path d="M6.609375,2.4375 L6.609375,3.303125 C6.609375,4.36875 8,4.696875 8,4.696875 C8,4.696875 9.390625,4.36875 9.390625,3.303125 L9.390625,2.4375 L6.609375,2.4375 Z" id="Path" fill="#D80027"></path>
                </g>
            </g>
        </g>
    </g>
</svg>