<?xml version="1.0" encoding="UTF-8"?>
<svg width="20px" height="20px" viewBox="0 0 20 20" version="1.1" xmlns="http://www.w3.org/2000/svg" xmlns:xlink="http://www.w3.org/1999/xlink">
    <title>jm_flag_20px</title>
    <defs>
        <circle id="path-1" cx="10" cy="10" r="10"></circle>
    </defs>
    <g id="Design-System" stroke="none" stroke-width="1" fill="none" fill-rule="evenodd">
        <g id="Flags-20x20" transform="translate(-351.000000, -855.000000)">
            <g id="flag" transform="translate(351.000000, 855.000000)">
                <mask id="mask-2" fill="white">
                    <use xlink:href="#path-1"></use>
                </mask>
                <use id="Mask" fill="#D8D8D8" xlink:href="#path-1"></use>
                <g id="jm" mask="url(#mask-2)" fill-rule="nonzero">
                    <polygon id="Path" fill="#333333" points="0.91015625 19.0859375 0 18.1640625 0 1.83984375 0.9140625 0.9140625 19.0390625 19.0390625 20 18.15625 20 1.83984375 19.0429688 0.953125"></polygon>
                    <polygon id="Path" fill="#6DA544" points="0.91015625 0.91015625 1.83984375 0 18.15625 0 19.0859375 0.9140625 0.9609375 19.0390625 1.8359375 20 18.1640625 20 19.046875 19.0429688"></polygon>
                    <polygon id="Path" fill="#FFDA44" points="0 0 0 1.83984375 8.15625 10 0 18.1601562 0 20 1.83984375 20 10 11.84375 18.1601562 20 20 20 20 18.1640625 11.8398438 10 20 1.84375 20 0 18.15625 0 10 8.16015625 1.8359375 0"></polygon>
                </g>
            </g>
        </g>
    </g>
</svg>