<?xml version="1.0" encoding="UTF-8"?>
<svg width="16px" height="16px" viewBox="0 0 16 16" version="1.1" xmlns="http://www.w3.org/2000/svg" xmlns:xlink="http://www.w3.org/1999/xlink">
    <title>jo_flag_16px</title>
    <defs>
        <circle id="path-1" cx="8" cy="8" r="8"></circle>
    </defs>
    <g id="Design-System" stroke="none" stroke-width="1" fill="none" fill-rule="evenodd">
        <g id="Flags-16x16" transform="translate(-401.000000, -855.000000)">
            <g id="flag" transform="translate(401.000000, 855.000000)">
                <mask id="mask-2" fill="white">
                    <use xlink:href="#path-1"></use>
                </mask>
                <use id="Mask" fill="#D8D8D8" xlink:href="#path-1"></use>
                <g id="jo" mask="url(#mask-2)" fill-rule="nonzero">
                    <polygon id="Path" fill="#EEEEEE" points="3.9375 4.9375 7.93125 4.615625 16 5.21875 16 10.78125 8.034375 11.790625 3.9375 10.496875"></polygon>
                    <polygon id="Path" fill="#333333" points="0 0 16 0 16 5.21875 3.34375 5.21875"></polygon>
                    <polygon id="Path" fill="#6DA544" points="3.34375 10.78125 16 10.78125 16 16 0 16"></polygon>
                    <polygon id="Path" fill="#D80027" points="0 0 0 16 8 8"></polygon>
                    <polygon id="Path" fill="#EEEEEE" points="3.175 6.259375 3.6125 7.178125 4.60625 6.95 4.1625 7.865625 4.959375 8.496875 3.965625 8.721875 3.96875 9.740625 3.175 9.103125 2.38125 9.740625 2.38125 8.71875 1.390625 8.49375 2.1875 7.86875 1.74375 6.95 2.7375 7.178125"></polygon>
                </g>
            </g>
        </g>
    </g>
</svg>