<?xml version="1.0" encoding="UTF-8"?>
<svg width="20px" height="20px" viewBox="0 0 20 20" version="1.1" xmlns="http://www.w3.org/2000/svg" xmlns:xlink="http://www.w3.org/1999/xlink">
    <title>ke_flag_20px</title>
    <defs>
        <circle id="path-1" cx="10" cy="10" r="10"></circle>
    </defs>
    <g id="Design-System" stroke="none" stroke-width="1" fill="none" fill-rule="evenodd">
        <g id="Flags-20x20" transform="translate(-51.000000, -905.000000)">
            <g id="flag" transform="translate(51.000000, 905.000000)">
                <mask id="mask-2" fill="white">
                    <use xlink:href="#path-1"></use>
                </mask>
                <use id="Mask" fill="#D8D8D8" xlink:href="#path-1"></use>
                <g id="ke" mask="url(#mask-2)" fill-rule="nonzero">
                    <polygon id="Path" fill="#EEEEEE" points="0 5.65234375 9.8984375 4.55078125 20 5.65234375 20 6.953125 18.59375 9.9375 20 13.046875 20 14.3476563 9.94921875 15.625 0 14.3476563 0 13.046875 1.5234375 10 0 6.953125"></polygon>
                    <polygon id="Path" fill="#333333" points="0 0 20 0 20 5.65234375 0 5.65234375"></polygon>
                    <polygon id="Path" fill="#A2001D" points="0 6.953125 20 6.953125 20 13.046875 0 13.046875"></polygon>
                    <polygon id="Path" fill="#496E2D" points="0 14.3476562 20 14.3476562 20 20 0 20"></polygon>
                    <polygon id="Path" fill="#EEEEEE" points="13.1210938 4.62109375 11.9375 4.07421875 10.0078125 8.4453125 8.078125 4.07421875 6.89453125 4.62109375 9.2890625 10 6.89453125 15.3789062 8.078125 15.9257812 10.0078125 11.5546875 11.9375 15.9257812 13.1210938 15.3789062 10.7265625 10"></polygon>
                    <path d="M10.0078125,4.34765625 C10.0078125,4.34765625 9.734375,4.57421875 9.35546875,4.97265625 L8.73046875,9.95703125 L9.35546875,15.0273438 C9.734375,15.4257812 10.0078125,15.6523438 10.0078125,15.6523438 C10.0078125,15.6523438 10.28125,15.4257812 10.6601562,15.0273438 L11.2460938,9.921875 L10.6601562,4.97265625 C10.28125,4.57421875 10.0078125,4.34765625 10.0078125,4.34765625 Z" id="Path" fill="#EEEEEE"></path>
                    <path d="M12.1835937,7 L11.7929687,9.94921875 L12.1835937,13 C12.7227106,12.0900814 13.0199058,11.0572945 13.046875,10 C13.046875,8.8984375 12.6679688,7.87109375 12.1796875,7 L12.1835937,7 Z M7.83203125,7 L8.1796875,9.90234375 L7.828125,13 C7.28900812,12.0900814 6.99181292,11.0572945 6.96484375,10 C6.96484375,8.8984375 7.34375,7.87109375 7.83203125,7 L7.83203125,7 Z" id="Shape" fill="#333333"></path>
                    <path d="M7.83203125,7 L7.83203125,13 C8.25613659,13.7348052 8.76767339,14.4155426 9.35546875,15.0273438 L9.35546875,4.97265625 C8.91015625,5.44140625 8.31640625,6.14453125 7.83203125,7.00390625 L7.83203125,7 Z M12.1835938,7 C11.7594884,6.26519482 11.2479516,5.58445737 10.6601562,4.97265625 L10.6601562,15.0273438 C11.1054688,14.5585938 11.6953125,13.8554688 12.1835938,12.9960938 L12.1835938,7.00390625 L12.1835938,7 Z" id="Shape" fill="#A2001D"></path>
                </g>
            </g>
        </g>
    </g>
</svg>