<?xml version="1.0" encoding="UTF-8"?>
<svg width="16px" height="16px" viewBox="0 0 16 16" version="1.1" xmlns="http://www.w3.org/2000/svg" xmlns:xlink="http://www.w3.org/1999/xlink">
    <title>kg_flag_16px</title>
    <defs>
        <circle id="path-1" cx="8" cy="8" r="8"></circle>
    </defs>
    <g id="Design-System" stroke="none" stroke-width="1" fill="none" fill-rule="evenodd">
        <g id="Flags-16x16" transform="translate(-101.000000, -905.000000)">
            <g id="flag" transform="translate(101.000000, 905.000000)">
                <mask id="mask-2" fill="white">
                    <use xlink:href="#path-1"></use>
                </mask>
                <use id="Mask" fill="#D8D8D8" xlink:href="#path-1"></use>
                <g id="kg" mask="url(#mask-2)" fill-rule="nonzero">
                    <polygon id="Path" fill="#D80027" points="0 0 16 0 16 16 0 16"></polygon>
                    <polygon id="Path" fill="#FFDA44" points="11.9125 8 10.3125 8.75 11.165625 10.3 9.428125 9.96875 9.209375 11.721875 8 10.43125 6.790625 11.721875 6.571875 9.96875 4.834375 10.3 5.6875 8.753125 4.0875 8 5.6875 7.25 4.834375 5.7 6.571875 6.03125 6.790625 4.278125 8 5.56875 9.209375 4.278125 9.428125 6.03125 11.165625 5.7 10.3125 7.246875"></polygon>
                    <circle id="Oval" fill="#D80027" cx="8" cy="8" r="2.434375"></circle>
                    <path d="M6.78125,8 C6.725,8 6.665625,8.003125 6.609375,8.009375 C6.61097322,8.33309876 6.72597104,8.64602552 6.934375,8.89375 C7.04048561,8.60729364 7.19949646,8.34333563 7.403125,8.115625 C7.20469283,8.03922081 6.99388331,8.00002507 6.78125,8 Z M7.53125,9.3125 C7.83428492,9.42127199 8.16571508,9.42127199 8.46875,9.3125 C8.3875,9 8.225,8.71875 8,8.5 C7.775,8.71875 7.6125,9 7.53125,9.3125 Z M9.20625,7.303125 C8.95834983,6.87097193 8.49820756,6.60445291 8,6.60445291 C7.50179244,6.60445291 7.04165017,6.87097193 6.79375,7.303125 C7.21763922,7.30491098 7.63361565,7.41806519 8,7.63125 C8.36638435,7.41806519 8.78236078,7.30491098 9.20625,7.303125 L9.20625,7.303125 Z M8.59375,8.115625 C8.79882877,8.34400795 8.95892648,8.60907038 9.065625,8.896875 C9.27471595,8.64832715 9.389758,8.33417387 9.390625,8.009375 C9.3335226,8.00342247 9.27616107,8.00029366 9.21875,7.99999647 C9.00505973,7.99956809 8.7931427,8.03877275 8.59375,8.115625 Z" id="Shape" fill="#FFDA44"></path>
                </g>
            </g>
        </g>
    </g>
</svg>