<?xml version="1.0" encoding="UTF-8"?>
<svg width="20px" height="20px" viewBox="0 0 20 20" version="1.1" xmlns="http://www.w3.org/2000/svg" xmlns:xlink="http://www.w3.org/1999/xlink">
    <title>kg_flag_20px</title>
    <defs>
        <circle id="path-1" cx="10" cy="10" r="10"></circle>
    </defs>
    <g id="Design-System" stroke="none" stroke-width="1" fill="none" fill-rule="evenodd">
        <g id="Flags-20x20" transform="translate(-101.000000, -905.000000)">
            <g id="flag" transform="translate(101.000000, 905.000000)">
                <mask id="mask-2" fill="white">
                    <use xlink:href="#path-1"></use>
                </mask>
                <use id="Mask" fill="#D8D8D8" xlink:href="#path-1"></use>
                <g id="kg" mask="url(#mask-2)" fill-rule="nonzero">
                    <polygon id="Path" fill="#D80027" points="0 0 20 0 20 20 0 20"></polygon>
                    <polygon id="Path" fill="#FFDA44" points="14.890625 10 12.890625 10.9375 13.9570313 12.875 11.7851562 12.4609375 11.5117188 14.6523438 10 13.0390625 8.48828125 14.6523438 8.21484375 12.4609375 6.04296875 12.875 7.109375 10.9414062 5.109375 10 7.109375 9.0625 6.04296875 7.125 8.21484375 7.5390625 8.48828125 5.34765625 10 6.9609375 11.5117188 5.34765625 11.7851562 7.5390625 13.9570313 7.125 12.890625 9.05859375"></polygon>
                    <circle id="Oval" fill="#D80027" cx="10" cy="10" r="3.04296875"></circle>
                    <path d="M8.4765625,10 C8.40625,10 8.33203125,10.0039063 8.26171875,10.0117188 C8.26371653,10.4163734 8.40746381,10.8075319 8.66796875,11.1171875 C8.80060702,10.759117 8.99937058,10.4291695 9.25390625,10.1445313 C9.00586604,10.049026 8.74235414,10.0000313 8.4765625,10 Z M9.4140625,11.640625 C9.79285616,11.77659 10.2071438,11.77659 10.5859375,11.640625 C10.484375,11.25 10.28125,10.8984375 10,10.625 C9.71875,10.8984375 9.515625,11.25 9.4140625,11.640625 Z M11.5078125,9.12890625 C11.1979373,8.58871491 10.6227594,8.25556614 10,8.25556614 C9.37724056,8.25556614 8.80206271,8.58871491 8.4921875,9.12890625 C9.02204902,9.13113873 9.54201956,9.27258149 10,9.5390625 C10.4579804,9.27258149 10.977951,9.13113873 11.5078125,9.12890625 L11.5078125,9.12890625 Z M10.7421875,10.1445312 C10.998536,10.4300099 11.1986581,10.761338 11.3320312,11.1210938 C11.5933949,10.8104089 11.7371975,10.4177173 11.7382812,10.0117188 C11.6669033,10.0042781 11.5952013,10.0003671 11.5234375,9.99999559 C11.2563247,9.99946012 10.9914284,10.0484659 10.7421875,10.1445312 Z" id="Shape" fill="#FFDA44"></path>
                </g>
            </g>
        </g>
    </g>
</svg>