<?xml version="1.0" encoding="UTF-8"?>
<svg width="20px" height="20px" viewBox="0 0 20 20" version="1.1" xmlns="http://www.w3.org/2000/svg" xmlns:xlink="http://www.w3.org/1999/xlink">
    <title>kh_flag_20px</title>
    <defs>
        <circle id="path-1" cx="10" cy="10" r="10"></circle>
    </defs>
    <g id="Design-System" stroke="none" stroke-width="1" fill="none" fill-rule="evenodd">
        <g id="Flags-20x20" transform="translate(-151.000000, -905.000000)">
            <g id="flag" transform="translate(151.000000, 905.000000)">
                <mask id="mask-2" fill="white">
                    <use xlink:href="#path-1"></use>
                </mask>
                <use id="Mask" fill="#D8D8D8" xlink:href="#path-1"></use>
                <g id="kh" mask="url(#mask-2)" fill-rule="nonzero">
                    <polygon id="Path" fill="#0052B4" points="0 0 20 0 20 5.22265625 18.4765625 9.97265625 20 14.7851562 20 20 0 20 0 14.7851562 1.3359375 9.9609375 0 5.22265625"></polygon>
                    <polygon id="Path" fill="#D80027" points="0 5.22265625 20 5.22265625 20 14.7851562 0 14.7851562"></polygon>
                    <polygon id="Path" fill="#EEEEEE" points="13.4765625 11.9570312 13.4765625 10.65625 12.609375 10.65625 12.609375 8.91796875 11.7382812 8.046875 10.8710938 8.91796875 10.8710938 7.1796875 10 6.30859375 9.12890625 7.1796875 9.12890625 8.91796875 8.26171875 8.046875 7.390625 8.91796875 7.390625 10.65625 6.5234375 10.65625 6.5234375 11.9609375 5.65234375 11.9609375 5.65234375 13.265625 14.3476562 13.265625 14.3476562 11.9570312"></polygon>
                </g>
            </g>
        </g>
    </g>
</svg>