<?xml version="1.0" encoding="UTF-8"?>
<svg width="20px" height="20px" viewBox="0 0 20 20" version="1.1" xmlns="http://www.w3.org/2000/svg" xmlns:xlink="http://www.w3.org/1999/xlink">
    <title>ki_flag_20px</title>
    <defs>
        <circle id="path-1" cx="10" cy="10" r="10"></circle>
    </defs>
    <g id="Design-System" stroke="none" stroke-width="1" fill="none" fill-rule="evenodd">
        <g id="Flags-20x20" transform="translate(-201.000000, -905.000000)">
            <g id="flag" transform="translate(201.000000, 905.000000)">
                <mask id="mask-2" fill="white">
                    <use xlink:href="#path-1"></use>
                </mask>
                <use id="Mask" fill="#D8D8D8" xlink:href="#path-1"></use>
                <g id="ki" mask="url(#mask-2)" fill-rule="nonzero">
                    <polygon id="Path" fill="#D80027" points="0 0 20 0 19.9960938 9.171875 10.046875 19.3632812 0.01171875 9.171875"></polygon>
                    <path d="M13.4765625,9.296875 L12.0585938,9.96875 L12.8125,11.34375 L11.2695312,11.0507812 L11.0742188,12.609375 L10,11.4609375 L8.92578125,12.609375 L8.73046875,11.046875 L7.1875,11.34375 L7.94140625,9.96875 L6.5234375,9.296875 L7.94140625,8.62890625 L7.1875,7.25 L8.73046875,7.546875 L8.92578125,5.984375 L10,7.1328125 L11.0742188,5.98828125 L11.2695312,7.546875 L12.8125,7.25 L12.0585938,8.62890625 L13.4765625,9.296875 Z M12.609375,3.265625 L10.6523438,3.265625 C10.6523438,2.9053455 10.3602795,2.61328125 10,2.61328125 C9.6397205,2.61328125 9.34765625,2.9053455 9.34765625,3.265625 L7.39453125,3.265625 C7.39453125,3.625 7.70703125,3.91796875 8.06640625,3.91796875 L8.04296875,3.91796875 C8.04296875,4.27734375 8.3359375,4.5703125 8.6953125,4.5703125 C8.6953125,4.9296875 8.98828125,5.22265625 9.34765625,5.22265625 L10.6523437,5.22265625 C11.0117187,5.22265625 11.3046875,4.9296875 11.3046875,4.5703125 C11.6640625,4.5703125 11.9570312,4.27734375 11.9570312,3.91796875 L11.9335937,3.91796875 C12.296875,3.91796875 12.609375,3.625 12.609375,3.265625 L12.609375,3.265625 Z" id="Shape" fill="#FFDA44"></path>
                    <path d="M3.33203125,9.171875 C2.5,9.171875 2.5,9.93359375 1.6640625,9.93359375 C0.8359375,9.93359375 0.83203125,9.1796875 0.01171875,9.171875 L0.01171875,10.5117188 L0.4921875,11.2226562 L0.01171875,11.8515625 L0.01171875,13.125 L0.51171875,13.8359375 L0.01171875,14.4648438 L0.01171875,15.7304688 L1.5390625,17.6601562 L18.7734375,17.7773438 L19.9960938,15.7304688 L19.9960938,14.4648438 L19.6757812,13.8242188 L19.9960938,13.125 L19.9960938,11.8515625 L19.59375,11.3046875 L19.9960938,10.5117188 L19.9960938,9.171875 C19.1679688,9.171875 19.1679688,9.93359375 18.3359375,9.93359375 C17.5039062,9.93359375 17.5,9.171875 16.6679688,9.171875 C15.8359375,9.171875 15.8359375,9.93359375 15,9.93359375 C14.1679688,9.93359375 14.1679688,9.171875 13.3359375,9.171875 C12.5,9.171875 12.5,9.93359375 11.6679687,9.93359375 C10.8359375,9.93359375 10.8359375,9.171875 10,9.171875 C9.1640625,9.171875 9.1640625,9.93359375 8.33203125,9.93359375 C7.5,9.93359375 7.5,9.171875 6.6640625,9.171875 C5.83203125,9.171875 5.83203125,9.93359375 5,9.93359375 C4.16796875,9.93359375 4.1640625,9.171875 3.33203125,9.171875 Z" id="Path" fill="#EEEEEE"></path>
                    <path d="M3.33203125,10.5117188 C2.5,10.5117188 2.5,11.2734375 1.6640625,11.2734375 C0.8359375,11.2734375 0.83203125,10.5195312 0.01171875,10.5117188 L0.01171875,11.8515625 C0.83203125,11.859375 0.8359375,12.6132812 1.6640625,12.6132812 C2.5,12.6132812 2.5,11.8515625 3.33203125,11.8515625 C4.1640625,11.8515625 4.1640625,12.6132812 5,12.6132812 C5.8359375,12.6132812 5.83203125,11.8515625 6.6640625,11.8515625 C7.5,11.8515625 7.5,12.6132812 8.33203125,12.6132812 C9.1640625,12.6132812 9.1640625,11.8515625 10,11.8515625 C10.8359375,11.8515625 10.8359375,12.6132812 11.6679687,12.6132812 C12.5,12.6132812 12.5,11.8515625 13.3359375,11.8515625 C14.1679688,11.8515625 14.1679688,12.6132812 15,12.6132812 C15.8359375,12.6132812 15.8359375,11.8515625 16.6679688,11.8515625 C17.5,11.8515625 17.5,12.6132812 18.3359375,12.6132812 C19.171875,12.6132812 19.1679688,11.8554688 19.9960938,11.8515625 L19.9960938,10.5117188 C19.1679688,10.5117188 19.1679688,11.2734375 18.3359375,11.2734375 C17.5039062,11.2734375 17.5,10.5117188 16.6679688,10.5117188 C15.8359375,10.5117188 15.8359375,11.2734375 15,11.2734375 C14.1679688,11.2734375 14.1679688,10.5117188 13.3359375,10.5117188 C12.5,10.5117188 12.5,11.2734375 11.6679687,11.2734375 C10.8359375,11.2734375 10.8359375,10.5117188 10,10.5117188 C9.1640625,10.5117188 9.1640625,11.2734375 8.33203125,11.2734375 C7.5,11.2734375 7.5,10.5117188 6.6640625,10.5117188 C5.83203125,10.5117188 5.83203125,11.2734375 5,11.2734375 C4.16796875,11.2734375 4.1640625,10.5117188 3.33203125,10.5117188 Z M3.33203125,13.125 C2.5,13.125 2.5,13.8867188 1.6640625,13.8867188 C0.8359375,13.8867188 0.83203125,13.1328125 0.01171875,13.125 L0.01171875,14.4648438 C0.83203125,14.4726562 0.8359375,15.2265625 1.6640625,15.2265625 C2.5,15.2265625 2.5,14.4648438 3.33203125,14.4648438 C4.1640625,14.4648438 4.1640625,15.2265625 5,15.2265625 C5.8359375,15.2265625 5.83203125,14.4648438 6.6640625,14.4648438 C7.5,14.4648438 7.5,15.2265625 8.33203125,15.2265625 C9.1640625,15.2265625 9.1640625,14.4648438 10,14.4648438 C10.8359375,14.4648438 10.8359375,15.2265625 11.6679687,15.2265625 C12.5,15.2265625 12.5,14.4648438 13.3359375,14.4648438 C14.1679688,14.4648438 14.1679688,15.2265625 15,15.2265625 C15.8359375,15.2265625 15.8359375,14.4648438 16.6679688,14.4648438 C17.5,14.4648438 17.5,15.2265625 18.3359375,15.2265625 C19.171875,15.2265625 19.1679688,14.46875 19.9960938,14.4648438 L19.9960938,13.125 C19.1679688,13.125 19.1679688,13.8867188 18.3359375,13.8867188 C17.5039062,13.8867188 17.5,13.125 16.6679688,13.125 C15.8359375,13.125 15.8359375,13.8867188 15,13.8867188 C14.1679688,13.8867188 14.1679688,13.125 13.3359375,13.125 C12.5,13.125 12.5,13.8867188 11.6679687,13.8867188 C10.8359375,13.8867188 10.8359375,13.125 10,13.125 C9.1640625,13.125 9.1640625,13.8867188 8.33203125,13.8867188 C7.5,13.8867188 7.5,13.125 6.6640625,13.125 C5.83203125,13.125 5.83203125,13.8867188 5,13.8867188 C4.16796875,13.8867188 4.1640625,13.125 3.33203125,13.125 Z M3.33203125,15.7304688 C2.5,15.7304688 2.5,16.4921875 1.6640625,16.4921875 C0.8359375,16.4921875 0.83203125,15.7382812 0.01171875,15.7304688 L0,20 L20,20 L19.9960938,15.7304688 C19.1679688,15.7304688 19.1679688,16.4921875 18.3359375,16.4921875 C17.5039062,16.4921875 17.5,15.7304688 16.6679688,15.7304688 C15.8359375,15.7304688 15.8359375,16.4921875 15,16.4921875 C14.1679688,16.4921875 14.1679688,15.7304688 13.3359375,15.7304688 C12.5,15.7304688 12.5,16.4921875 11.6679688,16.4921875 C10.8359375,16.4921875 10.8359375,15.7304688 10,15.7304688 C9.1640625,15.7304688 9.1640625,16.4921875 8.33203125,16.4921875 C7.5,16.4921875 7.5,15.7304688 6.6640625,15.7304688 C5.83203125,15.7304688 5.83203125,16.4921875 5,16.4921875 C4.16796875,16.4921875 4.1640625,15.7304688 3.33203125,15.7304688 Z" id="Shape" fill="#0052B4"></path>
                </g>
            </g>
        </g>
    </g>
</svg>