<?xml version="1.0" encoding="UTF-8"?>
<svg width="20px" height="20px" viewBox="0 0 20 20" version="1.1" xmlns="http://www.w3.org/2000/svg" xmlns:xlink="http://www.w3.org/1999/xlink">
    <title>kikuyu_flag_20px</title>
    <defs>
        <circle id="path-1" cx="10" cy="10" r="10"></circle>
    </defs>
    <g id="Design-System" stroke="none" stroke-width="1" fill="none" fill-rule="evenodd">
        <g id="Flags-20x20" transform="translate(-251.000000, -905.000000)">
            <g id="flag" transform="translate(251.000000, 905.000000)">
                <mask id="mask-2" fill="white">
                    <use xlink:href="#path-1"></use>
                </mask>
                <use id="Mask" fill="#D8D8D8" xlink:href="#path-1"></use>
                <g id="kikuyu" mask="url(#mask-2)" fill-rule="nonzero">
                    <polygon id="Path" fill="#EEEEEE" points="8.90625 0 10.15625 8.2421875 8.90625 16.484375 7.65625 16.484375 6.40625 8.2421875 7.65625 0"></polygon>
                    <polygon id="Path" fill="#496E2D" points="7.65625 0 7.65625 17.578125 0 17.578125 0 0"></polygon>
                    <polygon id="Path" fill="#EEEEEE" points="6.953125 3.3984375 5.7421875 2.8515625 3.828125 7.2265625 1.9140625 2.8515625 0.703125 3.3984375 3.125 8.7890625 0.703125 14.1796875 1.9140625 14.7265625 3.828125 10.3515625 5.7421875 14.7265625 6.953125 14.1796875 4.53125 8.7890625"></polygon>
                    <polygon id="Path" fill="#EEEEEE" points="3.828125 3.125 3.1640625 3.75 2.5390625 8.75 3.1640625 13.828125 3.828125 14.453125 4.4921875 13.828125 5.078125 8.7109375 4.4921875 3.75"></polygon>
                    <path d="M6.015625,5.78125 L5.625,8.75 L6.015625,11.796875 C6.5540104,10.884011 6.84985189,9.84856576 6.875,8.7890625 C6.875,7.6953125 6.484375,6.6796875 6.015625,5.78125 L6.015625,5.78125 Z M1.640625,5.78125 L1.9921875,8.671875 L1.640625,11.796875 C1.1022396,10.884011 0.806398112,9.84856576 0.78125,8.7890625 C0.78125,7.6953125 1.171875,6.6796875 1.640625,5.78125 L1.640625,5.78125 Z" id="Shape" fill="#333333"></path>
                    <path d="M1.640625,5.78125 L1.640625,11.796875 C2.06446625,12.5330476 2.57601231,13.2151091 3.1640625,13.828125 L3.1640625,3.75 C2.734375,4.21875 2.1484375,4.921875 1.640625,5.78125 L1.640625,5.78125 Z M6.015625,5.78125 C5.59178375,5.04507735 5.08023769,4.36301594 4.4921875,3.75 L4.4921875,13.828125 C4.921875,13.359375 5.5078125,12.65625 6.015625,11.796875 L6.015625,5.78125 Z" id="Shape" fill="#A2001D"></path>
                    <polygon id="Path" fill="#D80027" points="20 0 20 16.484375 8.90625 16.484375 8.90625 0"></polygon>
                    <polygon id="Path" fill="#333333" points="0 17.578125 3.359375 16.9140625 6.2890625 17.2265625 8.4375 15.234375 10.0390625 15.9375 14.1796875 13.75 20 16.484375 20 20 0 20"></polygon>
                </g>
            </g>
        </g>
    </g>
</svg>