<?xml version="1.0" encoding="UTF-8"?>
<svg width="16px" height="16px" viewBox="0 0 16 16" version="1.1" xmlns="http://www.w3.org/2000/svg" xmlns:xlink="http://www.w3.org/1999/xlink">
    <title>km_flag_16px</title>
    <defs>
        <circle id="path-1" cx="8" cy="8" r="8"></circle>
    </defs>
    <g id="Design-System" stroke="none" stroke-width="1" fill="none" fill-rule="evenodd">
        <g id="Flags-16x16" transform="translate(-351.000000, -905.000000)">
            <g id="flag" transform="translate(351.000000, 905.000000)">
                <mask id="mask-2" fill="white">
                    <use xlink:href="#path-1"></use>
                </mask>
                <use id="Mask" fill="#D8D8D8" xlink:href="#path-1"></use>
                <g id="km" mask="url(#mask-2)" fill-rule="nonzero">
                    <polygon id="Path" fill="#FFDA44" points="3.8875 4.678125 16 4.15 16 0 0 0"></polygon>
                    <polygon id="Path" fill="#EEEEEE" points="3.515625 4.15 16 4.15 16 7.975 6.80625 8.49375"></polygon>
                    <polygon id="Path" fill="#D80027" points="16 7.978125 7.328125 7.978125 3.078125 12.346875 16 11.803125 16 8"></polygon>
                    <polygon id="Path" fill="#0052B4" points="3.38125 11.803125 0 15.975 16 16 16 11.803125"></polygon>
                    <polygon id="Path" fill="#6DA544" points="0.025 0 0 15.975 8 7.975"></polygon>
                    <g id="Group" transform="translate(1.036518, 5.540486)" fill="#EEEEEE">
                        <path d="M1.07285745,2.43763904 C1.07533638,1.29572294 1.8702397,0.308588091 2.98535745,0.0626390422 C2.81415195,0.0231043247 2.63918184,0.00214982136 2.46348245,0.000139042175 C1.52342987,-0.00987379227 0.661411883,0.521609113 0.248155821,1.36601337 C-0.165100241,2.21041762 -0.0559221956,3.21720918 0.52873585,3.95339807 C1.1133939,4.68958696 2.0693035,5.02393096 2.98535745,4.81263904 C1.8702397,4.56668999 1.07533638,3.57955514 1.07285745,2.43763904 L1.07285745,2.43763904 Z" id="Path"></path>
                        <path d="M2.96035745,0.350139042 L3.08848245,0.747014042 L3.50723245,0.747014042 L3.16973245,0.997014042 L3.29785745,1.39388904 L2.96035745,1.14388904 L2.61973245,1.39388904 L2.75098245,0.993889042 L2.41035745,0.747014042 L2.82910745,0.747014042 L2.96035745,0.350139042 Z M2.96035745,1.39388904 L3.08848245,1.79076404 L3.50723245,1.79076404 L3.16973245,2.04076404 L3.29785745,2.43763904 L2.96035745,2.18763904 L2.61973245,2.43763904 L2.75098245,2.03763904 L2.41035745,1.79076404 L2.82910745,1.79076404 L2.96035745,1.39388904 Z M2.96035745,2.43763904 L3.08848245,2.83451404 L3.50723245,2.83451404 L3.16973245,3.08451404 L3.29785745,3.47826404 L2.96035745,3.23451404 L2.61973245,3.47826404 L2.75098245,3.08138904 L2.41035745,2.83451404 L2.82910745,2.83451404 L2.96035745,2.43763904 Z M2.96035745,3.47826404 L3.08848245,3.87826404 L3.50723245,3.87826404 L3.16973245,4.12826404 L3.29785745,4.52201404 L2.96035745,4.27826404 L2.61973245,4.52201404 L2.75098245,4.12513904 L2.41035745,3.87826404 L2.82910745,3.87826404 L2.96035745,3.47826404 Z" id="Shape"></path>
                    </g>
                </g>
            </g>
        </g>
    </g>
</svg>