<?xml version="1.0" encoding="UTF-8"?>
<svg width="20px" height="20px" viewBox="0 0 20 20" version="1.1" xmlns="http://www.w3.org/2000/svg" xmlns:xlink="http://www.w3.org/1999/xlink">
    <title>km_flag_20px</title>
    <defs>
        <circle id="path-1" cx="10" cy="10" r="10"></circle>
    </defs>
    <g id="Design-System" stroke="none" stroke-width="1" fill="none" fill-rule="evenodd">
        <g id="Flags-20x20" transform="translate(-351.000000, -905.000000)">
            <g id="flag" transform="translate(351.000000, 905.000000)">
                <mask id="mask-2" fill="white">
                    <use xlink:href="#path-1"></use>
                </mask>
                <use id="Mask" fill="#D8D8D8" xlink:href="#path-1"></use>
                <g id="km" mask="url(#mask-2)" fill-rule="nonzero">
                    <polygon id="Path" fill="#FFDA44" points="4.859375 5.84765625 20 5.1875 20 0 0 0"></polygon>
                    <polygon id="Path" fill="#EEEEEE" points="4.39453125 5.1875 20 5.1875 20 9.96875 8.5078125 10.6171875"></polygon>
                    <polygon id="Path" fill="#D80027" points="20 9.97265625 9.16015625 9.97265625 3.84765625 15.4335938 20 14.7539062 20 10"></polygon>
                    <polygon id="Path" fill="#0052B4" points="4.2265625 14.7539063 0 19.96875 20 20 20 14.7539063"></polygon>
                    <polygon id="Path" fill="#6DA544" points="0.03125 0 0 19.96875 10 9.96875"></polygon>
                    <g id="Group" transform="translate(1.295647, 6.925607)" fill="#EEEEEE">
                        <path d="M1.34107181,3.0470488 C1.34417047,1.61965368 2.33779963,0.385735114 3.73169681,0.0782988027 C3.51768993,0.0288804059 3.2989773,0.0026872767 3.07935306,0.000173802719 C1.90428734,-0.0123422403 0.826764853,0.652011391 0.310194776,1.70751671 C-0.206375302,2.76302202 -0.0699027444,4.02151147 0.660919813,4.94174758 C1.39174237,5.8619837 2.58662938,6.2799137 3.73169681,6.0157988 C2.33779963,5.70836249 1.34417047,4.47444393 1.34107181,3.0470488 L1.34107181,3.0470488 Z" id="Path"></path>
                        <path d="M3.70044681,0.437673803 L3.86060306,0.933767553 L4.38404056,0.933767553 L3.96216556,1.24626755 L4.12232181,1.7423613 L3.70044681,1.4298613 L3.27466556,1.7423613 L3.43872806,1.2423613 L3.01294681,0.933767553 L3.53638431,0.933767553 L3.70044681,0.437673803 Z M3.70044681,1.7423613 L3.86060306,2.23845505 L4.38404056,2.23845505 L3.96216556,2.55095505 L4.12232181,3.0470488 L3.70044681,2.7345488 L3.27466556,3.0470488 L3.43872806,2.5470488 L3.01294681,2.23845505 L3.53638431,2.23845505 L3.70044681,1.7423613 Z M3.70044681,3.0470488 L3.86060306,3.54314255 L4.38404056,3.54314255 L3.96216556,3.85564255 L4.12232181,4.34783005 L3.70044681,4.04314255 L3.27466556,4.34783005 L3.43872806,3.8517363 L3.01294681,3.54314255 L3.53638431,3.54314255 L3.70044681,3.0470488 Z M3.70044681,4.34783005 L3.86060306,4.84783005 L4.38404056,4.84783005 L3.96216556,5.16033005 L4.12232181,5.65251755 L3.70044681,5.34783005 L3.27466556,5.65251755 L3.43872806,5.1564238 L3.01294681,4.84783005 L3.53638431,4.84783005 L3.70044681,4.34783005 Z" id="Shape"></path>
                    </g>
                </g>
            </g>
        </g>
    </g>
</svg>