<?xml version="1.0" encoding="UTF-8"?>
<svg width="16px" height="16px" viewBox="0 0 16 16" version="1.1" xmlns="http://www.w3.org/2000/svg" xmlns:xlink="http://www.w3.org/1999/xlink">
    <title>kp_flag_16px</title>
    <defs>
        <circle id="path-1" cx="8" cy="8" r="8"></circle>
    </defs>
    <g id="Design-System" stroke="none" stroke-width="1" fill="none" fill-rule="evenodd">
        <g id="Flags-16x16" transform="translate(-501.000000, -905.000000)">
            <g id="flag" transform="translate(501.000000, 905.000000)">
                <mask id="mask-2" fill="white">
                    <use xlink:href="#path-1"></use>
                </mask>
                <use id="Mask" fill="#D8D8D8" xlink:href="#path-1"></use>
                <g id="kp" mask="url(#mask-2)" fill-rule="nonzero">
                    <polygon id="Path" fill="#0052B4" points="0 0 16 0 16 2.78125 14.0875 7.95625 16 13.21875 16 16 0 16 0 13.21875 1.953125 7.7625 0 2.78125"></polygon>
                    <polygon id="Path" fill="#EEEEEE" points="0 2.78125 16 2.78125 16 3.825 15.121875 7.8875 16 12.178125 16 13.21875 0 13.21875 0 12.175 0.9375 7.96875 0 3.825"></polygon>
                    <polygon id="Path" fill="#D80027" points="0 3.825 16 3.825 16 12.175 0 12.175"></polygon>
                    <circle id="Oval" fill="#EEEEEE" cx="4.921875" cy="8" r="3.078125"></circle>
                    <polygon id="Path" fill="#D80027" points="4.921875 4.921875 5.6125 7.046875 7.85 7.046875 6.0375 8.359375 6.734375 10.49375 4.921875 9.171875 3.109375 10.490625 3.803125 8.3625 1.99375 7.05 4.23125 7.05"></polygon>
                </g>
            </g>
        </g>
    </g>
</svg>