<?xml version="1.0" encoding="UTF-8"?>
<svg width="20px" height="20px" viewBox="0 0 20 20" version="1.1" xmlns="http://www.w3.org/2000/svg" xmlns:xlink="http://www.w3.org/1999/xlink">
    <title>kr_flag_20px</title>
    <defs>
        <circle id="path-1" cx="10" cy="10" r="10"></circle>
    </defs>
    <g id="Design-System" stroke="none" stroke-width="1" fill="none" fill-rule="evenodd">
        <g id="Flags-20x20" transform="translate(-51.000000, -955.000000)">
            <g id="flag" transform="translate(51.000000, 955.000000)">
                <mask id="mask-2" fill="white">
                    <use xlink:href="#path-1"></use>
                </mask>
                <use id="Mask" fill="#D8D8D8" xlink:href="#path-1"></use>
                <g id="kr" mask="url(#mask-2)" fill-rule="nonzero">
                    <polygon id="Path" fill="#EEEEEE" points="0 0 20 0 20 20 0 20"></polygon>
                    <path d="M13.4765625,10 C13.4765625,10.8710938 11.921875,13.046875 10,13.046875 C8.078125,13.046875 6.5234375,10.8710938 6.5234375,10 C6.5234375,8.07994755 8.07994755,6.5234375 10,6.5234375 C11.9200525,6.5234375 13.4765625,8.07994755 13.4765625,10 L13.4765625,10 Z" id="Path" fill="#D80027"></path>
                    <path d="M13.4765625,10 C13.4765625,11.9200525 11.9200525,13.4765625 10,13.4765625 C8.07994755,13.4765625 6.5234375,11.9200525 6.5234375,10" id="Path" fill="#0052B4"></path>
                    <path d="M13.6875,13.0742188 L14.6132812,12.1523438 L15.2265625,12.765625 L14.3046875,13.6875 L13.6875,13.0742188 Z M12.1523438,14.6132812 L13.0742188,13.6875 L13.6875,14.3046875 L12.765625,15.2265625 L12.1523438,14.6132812 Z M15.5351562,14.9179687 L16.4570312,13.9960937 L17.0703125,14.609375 L16.1484375,15.5351562 L15.5351562,14.9179687 Z M13.9960938,16.4570312 L14.9179688,15.5351562 L15.5351562,16.1484375 L14.609375,17.0703125 L13.9960938,16.4570312 Z M14.6132812,13.9960937 L15.5351562,13.0742187 L16.1484375,13.6875 L15.2265625,14.6132812 L14.6132812,13.9960937 Z M13.0742188,15.5351562 L13.9960938,14.6132812 L14.6132812,15.2265625 L13.6875,16.1484375 L13.0742188,15.5351562 Z M15.5351562,6.92578125 L13.0742188,4.46484375 L13.6914062,3.8515625 L16.1523438,6.3125 L15.5351562,6.92578125 Z M13.0742188,6.3125 L12.1523438,5.38671875 L12.765625,4.7734375 L13.6914062,5.6953125 L13.0742188,6.3125 Z M14.6132812,7.84765625 L13.6875,6.92578125 L14.3046875,6.3125 L15.2265625,7.234375 L14.6132812,7.84765625 Z M14.9179688,4.46484375 L13.9960938,3.54296875 L14.609375,2.9296875 L15.5351562,3.8515625 L14.9179688,4.46484375 Z M16.4570312,6.00390625 L15.5351562,5.078125 L16.1484375,4.4609375 L17.0703125,5.390625 L16.4570312,6.00390625 Z M3.54296875,13.9960938 L6.00390625,16.4570312 L5.38671875,17.0703125 L2.92578125,14.609375 L3.54296875,13.9960938 Z M6.00390625,14.609375 L6.92578125,15.5351562 L6.3125,16.1484375 L5.38671875,15.2265625 L6.00390625,14.609375 Z M4.46484375,13.0742187 L5.38671875,13.9960938 L4.7734375,14.6132813 L3.8515625,13.6875 L4.46484375,13.0742187 Z M5.38671875,12.1523437 L7.84765625,14.6132812 L7.234375,15.2265625 L4.7734375,12.765625 L5.38671875,12.1523437 Z M6.00390625,3.54296875 L3.54296875,6.00390625 L2.9296875,5.38671875 L5.390625,2.92578125 L6.00390625,3.54296875 Z M6.92578125,4.46484375 L4.46484375,6.92578125 L3.8515625,6.30859375 L6.3125,3.84765625 L6.92578125,4.46484375 Z M7.84765625,5.38671875 L5.38671875,7.84765625 L4.7734375,7.234375 L7.234375,4.7734375 L7.84765625,5.38671875 Z" id="Shape" fill="#333333"></path>
                </g>
            </g>
        </g>
    </g>
</svg>