<?xml version="1.0" encoding="UTF-8"?>
<svg width="16px" height="16px" viewBox="0 0 16 16" version="1.1" xmlns="http://www.w3.org/2000/svg" xmlns:xlink="http://www.w3.org/1999/xlink">
    <title>ky_flag_16px</title>
    <defs>
        <circle id="path-1" cx="8" cy="8" r="8"></circle>
    </defs>
    <g id="Design-System" stroke="none" stroke-width="1" fill="none" fill-rule="evenodd">
        <g id="Flags-16x16" transform="translate(-201.000000, -955.000000)">
            <g id="flag" transform="translate(201.000000, 955.000000)">
                <mask id="mask-2" fill="white">
                    <use xlink:href="#path-1"></use>
                </mask>
                <use id="Mask" fill="#D8D8D8" xlink:href="#path-1"></use>
                <g id="ky" mask="url(#mask-2)" fill-rule="nonzero">
                    <polygon id="Path" fill="#0052B4" points="8 0 16 0 16 16 0 16 0 8"></polygon>
                    <polygon id="Path" fill="#EEEEEE" points="0 0 0 1 1 2 0 3 0 8 1 8 2 7 3 8 4 8 4 5.40625 6.59375 8 8 8 7.75 7.5 8 7.03125 8 6.59375 5.40625 4 8 4 8 3 7 2 8 1 8 0 3 0 2 1 1 0"></polygon>
                    <path d="M1,0 L1,1 L0,1 L0,3 L1,3 L1,8 L3,8 L3,3 L8,3 L8,1 L3,1 L3,0 L1,0 Z M4,4 L8,8 L8,7.03125 L4.96875,4 L4,4 Z" id="Shape" fill="#D80027"></path>
                    <circle id="Oval" fill="#6DA544" cx="11.478125" cy="4.521875" r="1.390625"></circle>
                    <polygon id="Path" fill="#D80027" points="9.04375 4.171875 13.9125 4.171875 13.915625 5.078125 11.5125 7.56875 9.040625 5.078125"></polygon>
                    <path d="M9.04375,9.390625 L9.04375,10.78125 L9.775,10.78125 C10.7193049,11.7128969 12.2369451,11.7128969 13.18125,10.78125 L13.9125,10.78125 L13.9125,9.390625 L9.04375,9.390625 Z" id="Path" fill="#FFDA44"></path>
                    <path d="M9.040625,6.053125 L9.040625,7.028125 L9.290625,7.546875 L9.04375,8 C9.046875,9.8625 11.478125,10.4375 11.478125,10.4375 C11.478125,10.4375 13.915625,9.8625 13.915625,8 L13.675,7.5875 L13.915625,7.025 L13.915625,6.053125 L11.478125,5.734375 L9.040625,6.053125 Z" id="Path" fill="#338AF3"></path>
                    <path d="M11.478125,7.028125 C10.86875,7.028125 10.86875,7.584375 10.259375,7.584375 C9.65,7.584375 9.653125,7.028125 9.040625,7.028125 L9.040625,8 C9.65625,8 9.653125,8.55625 10.259375,8.55625 C10.865625,8.55625 10.86875,8 11.478125,8 C12.0875,8 12.0875,8.55625 12.696875,8.55625 C13.30625,8.55625 13.303125,8 13.915625,8 L13.915625,7.025 C13.303125,7.025 13.303125,7.58125 12.696875,7.58125 C12.0875,7.58125 12.0875,7.025 11.478125,7.025 L11.478125,7.028125 Z M11.478125,5.078125 C10.86875,5.078125 10.86875,5.634375 10.259375,5.634375 C9.65,5.634375 9.653125,5.078125 9.040625,5.078125 L9.040625,6.053125 C9.65625,6.053125 9.653125,6.609375 10.259375,6.609375 C10.865625,6.609375 10.86875,6.053125 11.478125,6.053125 C12.0875,6.053125 12.0875,6.609375 12.696875,6.609375 C13.30625,6.609375 13.303125,6.053125 13.915625,6.053125 L13.915625,5.078125 C13.303125,5.078125 13.303125,5.634375 12.696875,5.634375 C12.0875,5.634375 12.0875,5.078125 11.478125,5.078125 Z" id="Shape" fill="#EEEEEE"></path>
                </g>
            </g>
        </g>
    </g>
</svg>