<?xml version="1.0" encoding="UTF-8"?>
<svg width="20px" height="20px" viewBox="0 0 20 20" version="1.1" xmlns="http://www.w3.org/2000/svg" xmlns:xlink="http://www.w3.org/1999/xlink">
    <title>ky_flag_20px</title>
    <defs>
        <circle id="path-1" cx="10" cy="10" r="10"></circle>
    </defs>
    <g id="Design-System" stroke="none" stroke-width="1" fill="none" fill-rule="evenodd">
        <g id="Flags-20x20" transform="translate(-201.000000, -955.000000)">
            <g id="flag" transform="translate(201.000000, 955.000000)">
                <mask id="mask-2" fill="white">
                    <use xlink:href="#path-1"></use>
                </mask>
                <use id="Mask" fill="#D8D8D8" xlink:href="#path-1"></use>
                <g id="ky" mask="url(#mask-2)" fill-rule="nonzero">
                    <polygon id="Path" fill="#0052B4" points="10 0 20 0 20 20 0 20 0 10"></polygon>
                    <polygon id="Path" fill="#EEEEEE" points="0 0 0 1.25 1.25 2.5 0 3.75 0 10 1.25 10 2.5 8.75 3.75 10 5 10 5 6.7578125 8.2421875 10 10 10 9.6875 9.375 10 8.7890625 10 8.2421875 6.7578125 5 10 5 10 3.75 8.75 2.5 10 1.25 10 0 3.75 0 2.5 1.25 1.25 0"></polygon>
                    <path d="M1.25,0 L1.25,1.25 L0,1.25 L0,3.75 L1.25,3.75 L1.25,10 L3.75,10 L3.75,3.75 L10,3.75 L10,1.25 L3.75,1.25 L3.75,0 L1.25,0 Z M5,5 L10,10 L10,8.7890625 L6.2109375,5 L5,5 Z" id="Shape" fill="#D80027"></path>
                    <circle id="Oval" fill="#6DA544" cx="14.3476562" cy="5.65234375" r="1.73828125"></circle>
                    <polygon id="Path" fill="#D80027" points="11.3046875 5.21484375 17.390625 5.21484375 17.3945312 6.34765625 14.390625 9.4609375 11.3007812 6.34765625"></polygon>
                    <path d="M11.3046875,11.7382812 L11.3046875,13.4765625 L12.21875,13.4765625 C13.3991311,14.6411211 15.2961814,14.6411211 16.4765625,13.4765625 L17.390625,13.4765625 L17.390625,11.7382812 L11.3046875,11.7382812 Z" id="Path" fill="#FFDA44"></path>
                    <path d="M11.3007813,7.56640625 L11.3007813,8.78515625 L11.6132813,9.43359375 L11.3046875,10 C11.3085938,12.328125 14.3476563,13.046875 14.3476563,13.046875 C14.3476563,13.046875 17.3945313,12.328125 17.3945313,10 L17.09375,9.484375 L17.3945313,8.78125 L17.3945313,7.56640625 L14.3476563,7.16796875 L11.3007813,7.56640625 Z" id="Path" fill="#338AF3"></path>
                    <path d="M14.3476562,8.78515625 C13.5859375,8.78515625 13.5859375,9.48046875 12.8242188,9.48046875 C12.0625,9.48046875 12.0664062,8.78515625 11.3007812,8.78515625 L11.3007812,10 C12.0703125,10 12.0664062,10.6953125 12.8242188,10.6953125 C13.5820312,10.6953125 13.5859375,10 14.3476562,10 C15.109375,10 15.109375,10.6953125 15.8710938,10.6953125 C16.6328125,10.6953125 16.6289062,10 17.3945312,10 L17.3945312,8.78125 C16.6289062,8.78125 16.6289062,9.4765625 15.8710938,9.4765625 C15.109375,9.4765625 15.109375,8.78125 14.3476562,8.78125 L14.3476562,8.78515625 Z M14.3476562,6.34765625 C13.5859375,6.34765625 13.5859375,7.04296875 12.8242188,7.04296875 C12.0625,7.04296875 12.0664062,6.34765625 11.3007812,6.34765625 L11.3007812,7.56640625 C12.0703125,7.56640625 12.0664062,8.26171875 12.8242188,8.26171875 C13.5820312,8.26171875 13.5859375,7.56640625 14.3476562,7.56640625 C15.109375,7.56640625 15.109375,8.26171875 15.8710938,8.26171875 C16.6328125,8.26171875 16.6289062,7.56640625 17.3945312,7.56640625 L17.3945312,6.34765625 C16.6289062,6.34765625 16.6289062,7.04296875 15.8710938,7.04296875 C15.109375,7.04296875 15.109375,6.34765625 14.3476562,6.34765625 Z" id="Shape" fill="#EEEEEE"></path>
                </g>
            </g>
        </g>
    </g>
</svg>