<?xml version="1.0" encoding="UTF-8"?>
<svg width="20px" height="20px" viewBox="0 0 20 20" version="1.1" xmlns="http://www.w3.org/2000/svg" xmlns:xlink="http://www.w3.org/1999/xlink">
    <title>kz_flag_20px</title>
    <defs>
        <circle id="path-1" cx="10" cy="10" r="10"></circle>
    </defs>
    <g id="Design-System" stroke="none" stroke-width="1" fill="none" fill-rule="evenodd">
        <g id="Flags-20x20" transform="translate(-251.000000, -955.000000)">
            <g id="flag" transform="translate(251.000000, 955.000000)">
                <mask id="mask-2" fill="white">
                    <use xlink:href="#path-1"></use>
                </mask>
                <use id="Mask" fill="#D8D8D8" xlink:href="#path-1"></use>
                <g id="kz" mask="url(#mask-2)" fill-rule="nonzero">
                    <polygon id="Path" fill="#338AF3" points="0 0 20 0 20 20 0 20"></polygon>
                    <path d="M15.6523438,10.109375 L4.34765625,10.109375 C4.34765625,10.890625 5.02734375,11.5234375 5.80859375,11.5234375 L5.76171875,11.5234375 C5.76171875,12.3046875 6.39453125,12.9335938 7.17578125,12.9335938 C7.17578125,13.7148438 7.8046875,14.3476562 8.5859375,14.3476562 L11.4140625,14.3476562 C12.1953125,14.3476562 12.8242188,13.7148438 12.8242188,12.9335938 C13.6054688,12.9335938 14.2382812,12.3007812 14.2382812,11.5234375 L14.1914063,11.5234375 C14.9726563,11.5234375 15.6523438,10.890625 15.6523438,10.109375 Z" id="Path" fill="#FFDA44"></path>
                    <path d="M13.9140625,8.26171875 C13.9140625,10.4233958 12.161677,12.1757813 10,12.1757813 C7.83832297,12.1757813 6.0859375,10.4233958 6.0859375,8.26171875" id="Path" fill="#338AF3"></path>
                    <polygon id="Path" fill="#FFDA44" points="12.9882812 8.26171875 11.765625 8.8359375 12.4179687 10.0195312 11.0898437 9.765625 10.921875 11.1054688 10 10.1171875 9.078125 11.1054688 8.90625 9.765625 7.578125 10.0195312 8.2265625 8.8359375 7.0078125 8.26171875 8.2265625 7.6875 7.578125 6.50390625 8.90625 6.7578125 9.07421875 5.41796875 9.99609375 6.40234375 10.9179688 5.41796875 11.09375 6.7578125 12.421875 6.50390625 11.7734375 7.6875"></polygon>
                </g>
            </g>
        </g>
    </g>
</svg>