<?xml version="1.0" encoding="UTF-8"?>
<svg width="16px" height="16px" viewBox="0 0 16 16" version="1.1" xmlns="http://www.w3.org/2000/svg" xmlns:xlink="http://www.w3.org/1999/xlink">
    <title>kz_flag_16px</title>
    <defs>
        <circle id="path-1" cx="8" cy="8" r="8"></circle>
    </defs>
    <g id="Design-System" stroke="none" stroke-width="1" fill="none" fill-rule="evenodd">
        <g id="Flags-16x16" transform="translate(-251.000000, -955.000000)">
            <g id="flag" transform="translate(251.000000, 955.000000)">
                <mask id="mask-2" fill="white">
                    <use xlink:href="#path-1"></use>
                </mask>
                <use id="Mask" fill="#D8D8D8" xlink:href="#path-1"></use>
                <g id="kz" mask="url(#mask-2)" fill-rule="nonzero">
                    <polygon id="Path" fill="#338AF3" points="0 0 16 0 16 16 0 16"></polygon>
                    <path d="M12.521875,8.0875 L3.478125,8.0875 C3.478125,8.7125 4.021875,9.21875 4.646875,9.21875 L4.609375,9.21875 C4.609375,9.84375 5.115625,10.346875 5.740625,10.346875 C5.740625,10.971875 6.24375,11.478125 6.86875,11.478125 L9.13125,11.478125 C9.75625,11.478125 10.259375,10.971875 10.259375,10.346875 C10.884375,10.346875 11.390625,9.840625 11.390625,9.21875 L11.353125,9.21875 C11.978125,9.21875 12.521875,8.7125 12.521875,8.0875 Z" id="Path" fill="#FFDA44"></path>
                    <path d="M11.13125,6.609375 C11.13125,8.33871662 9.72934162,9.740625 8,9.740625 C6.27065838,9.740625 4.86875,8.33871662 4.86875,6.609375" id="Path" fill="#338AF3"></path>
                    <polygon id="Path" fill="#FFDA44" points="10.390625 6.609375 9.4125 7.06875 9.934375 8.015625 8.871875 7.8125 8.7375 8.884375 8 8.09375 7.2625 8.884375 7.125 7.8125 6.0625 8.015625 6.58125 7.06875 5.60625 6.609375 6.58125 6.15 6.0625 5.203125 7.125 5.40625 7.259375 4.334375 7.996875 5.121875 8.734375 4.334375 8.875 5.40625 9.9375 5.203125 9.41875 6.15"></polygon>
                </g>
            </g>
        </g>
    </g>
</svg>