<?xml version="1.0" encoding="UTF-8"?>
<svg width="20px" height="20px" viewBox="0 0 20 20" version="1.1" xmlns="http://www.w3.org/2000/svg" xmlns:xlink="http://www.w3.org/1999/xlink">
    <title>lk_flag_20px</title>
    <defs>
        <circle id="path-1" cx="10" cy="10" r="10"></circle>
    </defs>
    <g id="Design-System" stroke="none" stroke-width="1" fill="none" fill-rule="evenodd">
        <g id="Flags-20x20" transform="translate(-501.000000, -955.000000)">
            <g id="flag" transform="translate(501.000000, 955.000000)">
                <mask id="mask-2" fill="white">
                    <use xlink:href="#path-1"></use>
                </mask>
                <use id="Mask" fill="#D8D8D8" xlink:href="#path-1"></use>
                <g id="lk" mask="url(#mask-2)" fill-rule="nonzero">
                    <polygon id="Path" fill="#FF9811" points="3.1796875 1.0625 8.4609375 1.0625 8.4609375 18.8945312 3.1796875 18.8945312"></polygon>
                    <polygon id="Path" fill="#6DA544" points="0 1.73828125 3.9140625 0.87890625 3.9140625 18.9648438 0 18.2617188"></polygon>
                    <polygon id="Path" fill="#A2001D" points="8.5390625 1.03515625 20 1.73828125 20 5.37890625 19.2734375 9.52734375 20 13.3320312 20 18.2617187 8.5390625 18.9648437"></polygon>
                    <polygon id="Path" fill="#FFDA44" points="0 0 0 1.73828125 7.82421875 1.73828125 7.82421875 18.2617188 0 18.2617188 0 20 20 20 20 18.2617188 9.12890625 18.2617188 9.12890625 1.73828125 20 1.73828125 20 0"></polygon>
                    <path d="M11.7382812,3.6953125 C11.0195313,3.6953125 10.4335637,4.28125 10.4335637,5 L10.4335637,10.6484375 C10.4310452,11.0219718 10.5906552,11.378244 10.8710938,11.625 L10.8710938,13.6953125 L11.7382812,13.6953125 L11.7382812,12.609375 L15.6523438,12.609375 L15.6523438,14.3476562 L14.78125,14.3476562 L14.78125,15.21875 L16.5234375,15.21875 L16.5234375,13.4765625 L17.3203125,12.609375 L19.203125,12.609375 C19.420425,12.8987006 19.6908749,13.1439615 20,13.3320313 L20,5.37890625 C19.6759598,5.48942858 19.3771787,5.66338562 19.1210937,5.890625 C18.2213129,6.7210773 18.0081082,8.06006713 18.6054687,9.12890625 C17.7734375,9.125 17.0039062,9.13671875 16.5234375,9.12890625 L16.5234375,6.5234375 C16.5234375,6.0859375 15.8710937,5.65234375 15.8710937,5.65234375 C15.8710937,5.65234375 15.21875,6.0859375 15.21875,6.5234375 L12.609375,6.5234375 L12.609375,9.12890625 L13.9140625,9.12890625 L13.9140625,10.4335938 C13.9140625,10.7109375 13.96875,10.984375 14.0742187,11.2421875 L13.4765625,11.7421875 L11.7382812,11.7421875 L11.7382812,3.6953125 Z" id="Path" fill="#FFDA44"></path>
                </g>
            </g>
        </g>
    </g>
</svg>