<?xml version="1.0" encoding="UTF-8"?>
<svg width="20px" height="20px" viewBox="0 0 20 20" version="1.1" xmlns="http://www.w3.org/2000/svg" xmlns:xlink="http://www.w3.org/1999/xlink">
    <title>lr_flag_20px</title>
    <defs>
        <circle id="path-1" cx="10" cy="10" r="10"></circle>
    </defs>
    <g id="Design-System" stroke="none" stroke-width="1" fill="none" fill-rule="evenodd">
        <g id="Flags-20x20" transform="translate(-51.000000, -1005.000000)">
            <g id="flag" transform="translate(51.000000, 1005.000000)">
                <mask id="mask-2" fill="white">
                    <use xlink:href="#path-1"></use>
                </mask>
                <use id="Mask" fill="#D8D8D8" xlink:href="#path-1"></use>
                <g id="lr" mask="url(#mask-2)" fill-rule="nonzero">
                    <polygon id="Path" fill="#EEEEEE" points="0 9.08984375 10 0 20 0 19.25 0.9375 20 1.8125 20 3.63671875 19.234375 4.51953125 20 5.453125 20 7.26953125 19.2890625 8.1640625 20 9.08984375 20 10.9101563 19.2578125 11.875 20 12.7265625 20 14.546875 19.296875 15.4648438 20 16.3632812 20 18.1835938 10.1054688 19.0039063 0 18.1835938 0 16.3632812 0.734375 15.5195312 0 14.546875 0 12.7265625 0.765625 11.8710938 0 10.9101563"></polygon>
                    <path d="M10,0 L9.140625,1.81640625 L20,1.81640625 L20,0 L10,0 Z M9.33203125,3.640625 L9.33203125,5.45703125 L20,5.45703125 L20,3.640625 L9.33203125,3.640625 Z M9.140625,7.2734375 L10,9.08984375 L20,9.08984375 L20,7.2734375 L9.140625,7.2734375 Z M0,10.9101562 L0,12.7265625 L20,12.7265625 L20,10.9101562 L0,10.9101562 Z M0,14.546875 L0,16.3632812 L20,16.3632812 L20,14.546875 L0,14.546875 Z M0,18.1835938 L0,20 L20,20 L20,18.1835938 L0,18.1835938 Z" id="Shape" fill="#D80027"></path>
                    <polygon id="Path" fill="#0052B4" points="0 0 10 0 10 9.08984375 0 9.08984375"></polygon>
                    <polygon id="Path" fill="#EEEEEE" points="5.953125 2.609375 6.6015625 4.6015625 8.6953125 4.6015625 7 5.83203125 7.6484375 7.82421875 5.953125 6.59375 4.2578125 7.82421875 4.90625 5.83203125 3.2109375 4.6015625 5.3046875 4.6015625"></polygon>
                </g>
            </g>
        </g>
    </g>
</svg>