<?xml version="1.0" encoding="UTF-8"?>
<svg width="20px" height="20px" viewBox="0 0 20 20" version="1.1" xmlns="http://www.w3.org/2000/svg" xmlns:xlink="http://www.w3.org/1999/xlink">
    <title>ls_flag_20px</title>
    <defs>
        <circle id="path-1" cx="10" cy="10" r="10"></circle>
    </defs>
    <g id="Design-System" stroke="none" stroke-width="1" fill="none" fill-rule="evenodd">
        <g id="Flags-20x20" transform="translate(-101.000000, -1005.000000)">
            <g id="flag" transform="translate(101.000000, 1005.000000)">
                <mask id="mask-2" fill="white">
                    <use xlink:href="#path-1"></use>
                </mask>
                <use id="Mask" fill="#D8D8D8" xlink:href="#path-1"></use>
                <g id="ls" mask="url(#mask-2)" fill-rule="nonzero">
                    <polygon id="Path" fill="#EEEEEE" points="0 5.65234375 9.97265625 4.2265625 20 5.65234375 20 14.3476562 9.78515625 15.8984375 0 14.3476563"></polygon>
                    <polygon id="Path" fill="#0052B4" points="0 0 20 0 20 5.65234375 0 5.65234375"></polygon>
                    <polygon id="Path" fill="#6DA544" points="0 14.3476562 20 14.3476562 20 20 0 20"></polygon>
                    <path d="M10.6523438,9.78125 L10.6523438,7.390625 L9.34765625,7.390625 L9.34765625,9.78125 L7.7734375,11.359375 C8.24600834,12.1370015 9.09004055,12.6117411 10,12.6117411 C10.9099594,12.6117411 11.7539917,12.1370015 12.2265625,11.359375 L10.6523438,9.78125 Z" id="Path" fill="#333333"></path>
                </g>
            </g>
        </g>
    </g>
</svg>