<?xml version="1.0" encoding="UTF-8"?>
<svg width="16px" height="16px" viewBox="0 0 16 16" version="1.1" xmlns="http://www.w3.org/2000/svg" xmlns:xlink="http://www.w3.org/1999/xlink">
    <title>ma_flag_16px</title>
    <defs>
        <circle id="path-1" cx="8" cy="8" r="8"></circle>
    </defs>
    <g id="Design-System" stroke="none" stroke-width="1" fill="none" fill-rule="evenodd">
        <g id="Flags-16x16" transform="translate(-351.000000, -1005.000000)">
            <g id="flag" transform="translate(351.000000, 1005.000000)">
                <mask id="mask-2" fill="white">
                    <use xlink:href="#path-1"></use>
                </mask>
                <use id="Mask" fill="#D8D8D8" xlink:href="#path-1"></use>
                <g id="ma" mask="url(#mask-2)" fill-rule="nonzero">
                    <polygon id="Path" fill="#D80027" points="0 0 16 0 16 16 0 16"></polygon>
                    <path d="M12.728125,6.5625 L9.115625,6.5625 L8,3.134375 L6.884375,6.5625 L3.271875,6.5625 L6.19375,8.6875 L5.078125,12.11875 L8,10 L10.921875,12.125 L9.80625,8.6875 L12.728125,6.5625 Z M7.009375,8.421875 L7.390625,7.2625 L8.609375,7.2625 L8.9875,8.421875 L8,9.140625 L7.0125,8.421875 L7.009375,8.421875 Z M8.384375,6.565625 L7.615625,6.565625 L8,5.38125 L8.384375,6.565625 Z M9.58125,7.99375 L9.340625,7.2625 L10.5875,7.2625 L9.58125,7.99375 Z M6.65625,7.2625 L6.415625,7.99375 L5.409375,7.2625 L6.65625,7.2625 Z M6.396875,10.303125 L6.78125,9.115625 L7.40625,9.56875 L6.396875,10.303125 Z M8.5875,9.571875 L9.2125,9.11875 L9.596875,10.303125 L8.5875,9.571875 Z" id="Shape" fill="#496E2D"></path>
                </g>
            </g>
        </g>
    </g>
</svg>