<?xml version="1.0" encoding="UTF-8"?>
<svg width="20px" height="20px" viewBox="0 0 20 20" version="1.1" xmlns="http://www.w3.org/2000/svg" xmlns:xlink="http://www.w3.org/1999/xlink">
    <title>md_flag_20px</title>
    <defs>
        <circle id="path-1" cx="10" cy="10" r="10"></circle>
    </defs>
    <g id="Design-System" stroke="none" stroke-width="1" fill="none" fill-rule="evenodd">
        <g id="Flags-20x20" transform="translate(-51.000000, -1055.000000)">
            <g id="flag" transform="translate(51.000000, 1055.000000)">
                <mask id="mask-2" fill="white">
                    <use xlink:href="#path-1"></use>
                </mask>
                <use id="Mask" fill="#D8D8D8" xlink:href="#path-1"></use>
                <g id="md" mask="url(#mask-2)" fill-rule="nonzero">
                    <polygon id="Path" fill="#0052B4" points="0 0 5.65234375 0 7.05859375 9.9453125 5.65234375 20 0 20"></polygon>
                    <polygon id="Path" fill="#D80027" points="14.3476562 0 20 0 20 20 14.3476562 20 13.1875 9.94921875"></polygon>
                    <polygon id="Path" fill="#FFDA44" points="5.65234375 0 14.3476562 0 14.3476562 20 5.65234375 20"></polygon>
                    <path d="M13.4804688,7.8671875 L11.09375,7.8671875 C11.09375,7.26744078 10.6075592,6.78125 10.0078125,6.78125 C9.40806578,6.78125 8.921875,7.26744078 8.921875,7.8671875 L6.53125,7.8671875 C6.54820701,8.46484589 7.03882451,8.93986072 7.63671875,8.9375 L7.59765625,8.9375 C7.59765435,9.22204262 7.71095516,9.49487445 7.91252333,9.69570965 C8.1140915,9.89654485 8.38733427,10.008851 8.671875,10.0078125 C8.671875,10.53125 9.046875,10.9648438 9.54296875,11.0625 L8.69921875,12.9648438 C9.11489944,13.1332842 9.55930157,13.2195115 10.0078125,13.218755 C10.4563234,13.2195115 10.9007256,13.1332842 11.3164063,12.9648438 L10.4726563,11.0546875 C10.9776573,10.9590193 11.3433526,10.517889 11.34375,10.0039062 C11.9348673,10.0039062 12.4140625,9.52471102 12.4140625,8.93359375 L12.3789062,8.93359375 C12.9768005,8.93595447 13.467418,8.46093964 13.484375,7.86328125 L13.4804688,7.8671875 Z" id="Path" fill="#FF9811"></path>
                    <polygon id="Path" fill="#0052B4" points="10.0039063 9.34765625 8.59375 10 8.59375 11.3046875 10.0078125 12.1757812 11.421875 11.3046875 11.421875 10"></polygon>
                    <polygon id="Path" fill="#D80027" points="8.59375 8.6953125 11.4179687 8.6953125 11.4179687 10 8.59375 10"></polygon>
                </g>
            </g>
        </g>
    </g>
</svg>