<?xml version="1.0" encoding="UTF-8"?>
<svg width="20px" height="20px" viewBox="0 0 20 20" version="1.1" xmlns="http://www.w3.org/2000/svg" xmlns:xlink="http://www.w3.org/1999/xlink">
    <title>me_flag_20px</title>
    <defs>
        <circle id="path-1" cx="10" cy="10" r="10"></circle>
    </defs>
    <g id="Design-System" stroke="none" stroke-width="1" fill="none" fill-rule="evenodd">
        <g id="Flags-20x20" transform="translate(-101.000000, -1055.000000)">
            <g id="flag" transform="translate(101.000000, 1055.000000)">
                <mask id="mask-2" fill="white">
                    <use xlink:href="#path-1"></use>
                </mask>
                <use id="Mask" fill="#D8D8D8" xlink:href="#path-1"></use>
                <g id="me" mask="url(#mask-2)" fill-rule="nonzero">
                    <polygon id="Path" fill="#FFDA44" points="0 0 20 0 20 1.73828125 18.296875 9.9296875 20 18.2617188 20 20 0 20 0 18.2617188 1.8203125 9.98046875 0 1.73828125"></polygon>
                    <polygon id="Path" fill="#A2001D" points="0 1.73828125 20 1.73828125 20 18.2617188 0 18.2617188"></polygon>
                    <path d="M7.82421875,7.390625 L12.1757813,7.390625 L12.1757813,5.65234375 L11.3046875,6.0859375 L10,4.78125 L8.6953125,6.0859375 L7.82421875,5.65234375 L7.82421875,7.390625 Z M13.9140625,10 L11.7382812,10 C11.8271811,9.84831952 11.8743513,9.67581165 11.875,9.5 C11.872578,9.0415046 11.559823,8.64290934 11.1150652,8.53148967 C10.6703073,8.42007 10.2065738,8.62414122 9.98828125,9.02734375 C9.81453295,8.71334078 9.48646431,8.5158837 9.12765561,8.50935266 C8.76884692,8.50282162 8.43380974,8.68820886 8.24874935,8.99568079 C8.06368897,9.30315272 8.05672044,9.68599704 8.23046875,10 L6.0859375,10 C6.0859375,10.6640625 6.66796875,11.203125 7.33203125,11.203125 L7.29296875,11.203125 C7.29296875,11.75 7.65234375,12.2109375 8.15234375,12.359375 L7.17578125,13.3359375 L8.09765625,14.2578125 L9.40625,12.9492188 C9.45703125,12.96875 9.5078125,12.984375 9.5625,12.9921875 L8.7734375,14.7773438 C9.16276428,14.9366944 9.5793248,15.0189452 10,15.0195312 C10.4206752,15.0189452 10.8372357,14.9366944 11.2265625,14.7773438 L10.4375,12.9921875 C10.4906678,12.982149 10.5429254,12.9677781 10.59375,12.9492188 L11.9023438,14.2578125 L12.8242188,13.3359375 L11.8476563,12.359375 C12.3587099,12.2070104 12.7084834,11.736406 12.7070313,11.203125 L12.6679688,11.203125 C13.3320313,11.203125 13.9140625,10.6640625 13.9140625,10 L13.9140625,10 Z" id="Shape" fill="#FFDA44"></path>
                    <polygon id="Path" fill="#6DA544" points="10 10.6523438 8.5859375 11.3046875 8.5859375 12.609375 10 13.4765625 11.4140625 12.609375 11.4140625 11.3046875"></polygon>
                    <polygon id="Path" fill="#0052B4" points="8.5859375 10 11.4140625 10 11.4140625 11.7382812 8.5859375 11.7382812"></polygon>
                </g>
            </g>
        </g>
    </g>
</svg>