<?xml version="1.0" encoding="UTF-8"?>
<svg width="20px" height="20px" viewBox="0 0 20 20" version="1.1" xmlns="http://www.w3.org/2000/svg" xmlns:xlink="http://www.w3.org/1999/xlink">
    <title>mh_flag_20px</title>
    <defs>
        <circle id="path-1" cx="10" cy="10" r="10"></circle>
    </defs>
    <g id="Design-System" stroke="none" stroke-width="1" fill="none" fill-rule="evenodd">
        <g id="Flags-20x20" transform="translate(-251.000000, -1055.000000)">
            <g id="flag" transform="translate(251.000000, 1055.000000)">
                <mask id="mask-2" fill="white">
                    <use xlink:href="#path-1"></use>
                </mask>
                <use id="Mask" fill="#D8D8D8" xlink:href="#path-1"></use>
                <g id="mh" mask="url(#mask-2)" fill-rule="nonzero">
                    <polygon id="Path" fill="#0052B4" points="0 0 15.53125 0 20 4.4609375 20 20 0 20"></polygon>
                    <polygon id="Path" fill="#EEEEEE" points="20 0 15.53125 0 0 20 19.2734375 2.09765625"></polygon>
                    <polygon id="Path" fill="#FF9811" points="0 20 20 4.4609375 20 0"></polygon>
                    <polygon id="Path" fill="#EEEEEE" points="8.6796875 5.86328125 7.4609375 6.4375 8.11328125 7.62109375 6.78515625 7.3671875 6.6171875 8.70703125 5.6953125 7.72265625 4.76953125 8.70703125 4.6015625 7.3671875 3.27734375 7.62109375 3.92578125 6.4375 2.70703125 5.86328125 3.92578125 5.2890625 3.28125 4.10546875 4.609375 4.359375 4.7734375 3.01953125 5.69921875 4.0078125 6.62109375 3.01953125 6.7890625 4.359375 8.1171875 4.10546875 7.46484375 5.2890625"></polygon>
                </g>
            </g>
        </g>
    </g>
</svg>