<?xml version="1.0" encoding="UTF-8"?>
<svg width="16px" height="16px" viewBox="0 0 16 16" version="1.1" xmlns="http://www.w3.org/2000/svg" xmlns:xlink="http://www.w3.org/1999/xlink">
    <title>mo_flag_16px</title>
    <defs>
        <circle id="path-1" cx="8" cy="8" r="8"></circle>
    </defs>
    <g id="Design-System" stroke="none" stroke-width="1" fill="none" fill-rule="evenodd">
        <g id="Flags-16x16" transform="translate(-501.000000, -1055.000000)">
            <g id="flag" transform="translate(501.000000, 1055.000000)">
                <mask id="mask-2" fill="white">
                    <use xlink:href="#path-1"></use>
                </mask>
                <use id="Mask" fill="#D8D8D8" xlink:href="#path-1"></use>
                <g id="mo" mask="url(#mask-2)" fill-rule="nonzero">
                    <polygon id="Path" fill="#496E2D" points="0 0 16 0 16 16 0 16"></polygon>
                    <path d="M9.390625,7.665625 C9.19375,7.665625 9.009375,7.70625 8.834375,7.76875 C8.928125,7.55625 8.99375,7.321875 8.99375,7.06875 C8.99375,6.075 8,5.33125 8,5.33125 C8,5.33125 7.00625,6.075 7.00625,7.06875 C7.00625,7.31875 7.06875,7.55625 7.1625,7.76875 C6.990625,7.70625 6.80625,7.665625 6.609375,7.665625 C5.615625,7.665625 4.86875,8.659375 4.86875,8.659375 C4.86875,8.659375 5.615625,9.653125 6.609375,9.653125 C7.1875,9.65625 7.6875,9.3125 8,9.03125 C8.3125,9.315625 8.809375,9.65625 9.390625,9.65625 C10.384375,9.65625 11.13125,8.6625 11.13125,8.6625 C11.13125,8.6625 10.384375,7.66875 9.390625,7.66875 L9.390625,7.665625 Z" id="Path" fill="#EEEEEE"></path>
                    <path d="M8,3.13125 L8.20625,3.7625 L8.86875,3.7625 L8.33125,4.153125 L8.5375,4.784375 L8,4.39375 L7.4625,4.784375 L7.66875,4.153125 L7.13125,3.7625 L7.79375,3.7625 L8,3.13125 Z M5.475,4.234375 L5.86875,4.590625 L6.328125,4.325 L6.1125,4.809375 L6.509375,5.165625 L5.978125,5.109375 L5.7625,5.596875 L5.653125,5.075 L5.121875,5.021875 L5.584375,4.75625 L5.475,4.234375 Z M3.625,6.084375 L4.14375,6.19375 L4.409375,5.734375 L4.465625,6.265625 L4.984375,6.375 L4.5,6.590625 L4.55625,7.11875 L4.2,6.725 L3.715625,6.940625 L3.98125,6.478125 L3.625,6.084375 Z M10.525,4.234375 L10.13125,4.59375 L9.671875,4.328125 L9.8875,4.8125 L9.490625,5.16875 L10.021875,5.1125 L10.2375,5.6 L10.346875,5.078125 L10.878125,5.025 L10.415625,4.759375 L10.525,4.234375 Z M12.375,6.084375 L11.85625,6.19375 L11.590625,5.734375 L11.534375,6.265625 L11.015625,6.375 L11.5,6.590625 L11.44375,7.11875 L11.8,6.725 L12.284375,6.940625 L12.01875,6.478125 L12.375,6.084375 Z" id="Shape" fill="#FFDA44"></path>
                    <path d="M8,12.4375 C8.790625,12.4375 9.515625,12.171875 10.1,11.73125 L5.9,11.73125 C6.484375,12.171875 7.2125,12.4375 8,12.4375 Z M4.8125,10.35 C4.92174571,10.6008204 5.06020275,10.8378756 5.225,11.05625 L10.775,11.05625 C10.9397973,10.8378756 11.0782543,10.6008204 11.1875,10.35 L4.8125,10.35 Z" id="Shape" fill="#EEEEEE"></path>
                </g>
            </g>
        </g>
    </g>
</svg>