<?xml version="1.0" encoding="UTF-8"?>
<svg width="20px" height="20px" viewBox="0 0 20 20" version="1.1" xmlns="http://www.w3.org/2000/svg" xmlns:xlink="http://www.w3.org/1999/xlink">
    <title>mo_flag_20px</title>
    <defs>
        <circle id="path-1" cx="10" cy="10" r="10"></circle>
    </defs>
    <g id="Design-System" stroke="none" stroke-width="1" fill="none" fill-rule="evenodd">
        <g id="Flags-20x20" transform="translate(-501.000000, -1055.000000)">
            <g id="flag" transform="translate(501.000000, 1055.000000)">
                <mask id="mask-2" fill="white">
                    <use xlink:href="#path-1"></use>
                </mask>
                <use id="Mask" fill="#D8D8D8" xlink:href="#path-1"></use>
                <g id="mo" mask="url(#mask-2)" fill-rule="nonzero">
                    <polygon id="Path" fill="#496E2D" points="0 0 20 0 20 20 0 20"></polygon>
                    <path d="M11.7382812,9.58203125 C11.4921875,9.58203125 11.2617188,9.6328125 11.0429688,9.7109375 C11.1601562,9.4453125 11.2421875,9.15234375 11.2421875,8.8359375 C11.2421875,7.59375 10,6.6640625 10,6.6640625 C10,6.6640625 8.7578125,7.59375 8.7578125,8.8359375 C8.7578125,9.1484375 8.8359375,9.4453125 8.953125,9.7109375 C8.73828125,9.6328125 8.5078125,9.58203125 8.26171875,9.58203125 C7.01953125,9.58203125 6.0859375,10.8242188 6.0859375,10.8242188 C6.0859375,10.8242188 7.01953125,12.0664062 8.26171875,12.0664062 C8.984375,12.0703125 9.609375,11.640625 10,11.2890625 C10.390625,11.6445312 11.0117188,12.0703125 11.7382812,12.0703125 C12.9804688,12.0703125 13.9140625,10.828125 13.9140625,10.828125 C13.9140625,10.828125 12.9804688,9.5859375 11.7382812,9.5859375 L11.7382812,9.58203125 Z" id="Path" fill="#EEEEEE"></path>
                    <path d="M10,3.9140625 L10.2578125,4.703125 L11.0859375,4.703125 L10.4140625,5.19140625 L10.671875,5.98046875 L10,5.4921875 L9.328125,5.98046875 L9.5859375,5.19140625 L8.9140625,4.703125 L9.7421875,4.703125 L10,3.9140625 Z M6.84375,5.29296875 L7.3359375,5.73828125 L7.91015625,5.40625 L7.640625,6.01171875 L8.13671875,6.45703125 L7.47265625,6.38671875 L7.203125,6.99609375 L7.06640625,6.34375 L6.40234375,6.27734375 L6.98046875,5.9453125 L6.84375,5.29296875 Z M4.53125,7.60546875 L5.1796875,7.7421875 L5.51171875,7.16796875 L5.58203125,7.83203125 L6.23046875,7.96875 L5.625,8.23828125 L5.6953125,8.8984375 L5.25,8.40625 L4.64453125,8.67578125 L4.9765625,8.09765625 L4.53125,7.60546875 Z M13.15625,5.29296875 L12.6640625,5.7421875 L12.0898438,5.41015625 L12.359375,6.015625 L11.8632812,6.4609375 L12.5273438,6.390625 L12.796875,7 L12.9335938,6.34765625 L13.5976562,6.28125 L13.0195312,5.94921875 L13.15625,5.29296875 Z M15.46875,7.60546875 L14.8203125,7.7421875 L14.4882813,7.16796875 L14.4179688,7.83203125 L13.7695312,7.96875 L14.375,8.23828125 L14.3046875,8.8984375 L14.75,8.40625 L15.3554687,8.67578125 L15.0234375,8.09765625 L15.46875,7.60546875 Z" id="Shape" fill="#FFDA44"></path>
                    <path d="M10,15.546875 C10.9882812,15.546875 11.8945312,15.2148438 12.625,14.6640625 L7.375,14.6640625 C8.10546875,15.2148438 9.015625,15.546875 10,15.546875 Z M6.015625,12.9375 C6.15218214,13.2510255 6.32525344,13.5473445 6.53125,13.8203125 L13.46875,13.8203125 C13.6747466,13.5473445 13.8478179,13.2510255 13.984375,12.9375 L6.015625,12.9375 Z" id="Shape" fill="#EEEEEE"></path>
                </g>
            </g>
        </g>
    </g>
</svg>