<?xml version="1.0" encoding="UTF-8"?>
<svg width="16px" height="16px" viewBox="0 0 16 16" version="1.1" xmlns="http://www.w3.org/2000/svg" xmlns:xlink="http://www.w3.org/1999/xlink">
    <title>mp_flag_16px</title>
    <defs>
        <circle id="path-1" cx="8" cy="8" r="8"></circle>
    </defs>
    <g id="Design-System" stroke="none" stroke-width="1" fill="none" fill-rule="evenodd">
        <g id="Flags-16x16" transform="translate(-51.000000, -1105.000000)">
            <g id="flag" transform="translate(51.000000, 1105.000000)">
                <mask id="mask-2" fill="white">
                    <use xlink:href="#path-1"></use>
                </mask>
                <use id="Mask" fill="#D8D8D8" xlink:href="#path-1"></use>
                <g id="mp" mask="url(#mask-2)" fill-rule="nonzero">
                    <polygon id="Path" fill="#338AF3" points="0 0 16 0 16 16 0 16"></polygon>
                    <path d="M7.75,13.0375 C7.53849212,13.0285949 7.35331789,12.8928005 7.28125,12.69375 C7.15385299,12.8583663 6.94081524,12.9315341 6.73915789,12.8799315 C6.53750054,12.828329 6.38579278,12.6618256 6.353125,12.45625 C6.19492705,12.5930303 5.97035315,12.6221625 5.78249177,12.5302738 C5.59463038,12.4383851 5.47976561,12.2432231 5.490625,12.034375 C5.30748828,12.1371495 5.0805897,12.1201402 4.91482261,11.9912102 C4.74905552,11.8622803 4.67671757,11.6465501 4.73125,11.44375 C4.53128596,11.50842 4.31204146,11.4468344 4.175,11.2875 C4.03840198,11.1285927 4.0100981,10.9033922 4.103125,10.715625 C3.89535641,10.7378029 3.6943876,10.6339168 3.59233589,10.4515844 C3.49028418,10.269252 3.50682438,10.0436257 3.634375,9.878125 C3.42497894,9.85849877 3.24782593,9.7150985 3.18501684,9.51438249 C3.12220774,9.31366648 3.186018,9.09486273 3.346875,8.959375 C3.14843783,8.8965087 3.00633669,8.72173121 2.98528815,8.51464079 C2.96423962,8.30755038 3.06826956,8.10775629 3.25,8.00625 C3.06609211,7.90601665 2.95992612,7.70554386 2.98036235,7.49709435 C3.00079858,7.28864484 3.14387729,7.1126078 3.34375,7.05 C3.182893,6.91451227 3.11908274,6.69570852 3.18189184,6.49499251 C3.24470093,6.2942765 3.42185394,6.15087623 3.63125,6.13125 C3.50154728,5.9658113 3.48377067,5.73870262 3.58615252,5.55509783 C3.68853438,5.37149304 3.89108368,5.26724268 4.1,5.290625 C4.00612029,5.10346868 4.03318698,4.87832304 4.16875,4.71875 C4.309375,4.55625 4.528125,4.5 4.721875,4.5625 C4.66847167,4.35908041 4.74239074,4.14348313 4.909375,4.015625 C5.07418298,3.88821091 5.29897831,3.87101345 5.48125,3.971875 C5.46903828,3.76245967 5.58340089,3.56608619 5.77156809,3.47336612 C5.95973529,3.38064605 6.18513018,3.4096028 6.34375,3.546875 C6.3754349,3.34078395 6.52675422,3.17333284 6.72859366,3.1210041 C6.93043309,3.06867536 7.14404962,3.14151347 7.271875,3.30625 C7.34359085,3.1095396 7.52592793,2.97473352 7.73501976,2.96383622 C7.94411159,2.95293893 8.13947422,3.06806033 8.23125,3.25625 C8.34099093,3.07786333 8.54674563,2.9823633 8.75382776,3.01369809 C8.96090988,3.04503289 9.12919897,3.19713166 9.18125,3.4 C9.3243863,3.24637489 9.54565206,3.19349439 9.74278342,3.26579863 C9.93991477,3.33810286 10.074515,3.5215086 10.084375,3.73125 C10.2554919,3.61117088 10.4817527,3.60478893 10.6593661,3.7150317 C10.8369795,3.82527448 10.9316697,4.03086746 10.9,4.2375 C11.0875,4.15625 11.3125,4.190625 11.46875,4.3375 C11.6206322,4.4822063 11.6711042,4.70379055 11.596875,4.9 C11.8012321,4.85636852 12.0119135,4.93884302 12.1323388,5.10961565 C12.2527641,5.28038827 12.259713,5.5065307 12.15,5.684375 C12.3591739,5.68362992 12.5485833,5.80785298 12.63125,6 C12.7154002,6.19243368 12.6759932,6.4165613 12.53125,6.56875 C12.7346809,6.61126876 12.8934937,6.77043849 12.9355557,6.97396432 C12.9776177,7.17749015 12.8949106,7.38657399 12.725,7.50625 C12.9125,7.5875 13.04375,7.771875 13.04375,7.9875 L13.04375,8 C13.04375,8.215625 12.9125,8.4 12.725,8.48125 C12.8948794,8.60047432 12.9779674,8.80902862 12.9366136,9.0124083 C12.8952597,9.21578798 12.7373245,9.37533422 12.534375,9.41875 C12.6805957,9.57015949 12.7215444,9.7945887 12.638217,9.98788088 C12.5548896,10.1811731 12.3636,10.3054854 12.153125,10.303125 C12.2658625,10.4807385 12.2609341,10.7086754 12.140625,10.88125 C12.0211145,11.0526884 11.8108554,11.1363002 11.60625,11.09375 C11.679709,11.2905763 11.6279827,11.5122601 11.475,11.65625 C11.31875,11.803125 11.09375,11.834375 10.909375,11.75625 C10.9413996,11.962362 10.8476188,12.1677471 10.6708919,12.2785412 C10.4941651,12.3893354 10.2684395,12.3842562 10.096875,12.265625 C10.0869792,12.4745021 9.95335709,12.6573044 9.75733718,12.7301313 C9.56131727,12.8029581 9.3407523,12.7517461 9.196875,12.6 C9.14592758,12.8046446 8.97681922,12.9585127 8.7682865,12.9899635 C8.55975378,13.0214143 8.35278718,12.9242658 8.24375,12.74375 C8.15227557,12.9326848 7.95650465,13.0484235 7.746875,13.0375 L7.75,13.0375 Z" id="Path" fill="#EEEEEE"></path>
                    <circle id="Oval" fill="#338AF3" cx="8" cy="8" r="3.478125"></circle>
                    <path d="M8.7625,6.81875 C8.93125,6.69375 9.04375,6.490625 9.04375,6.259375 L9.04375,5.915625 C9.04375,5.528125 8.73125,5.21875 8.346875,5.21875 L7.65625,5.21875 C7.271875,5.21875 6.959375,5.53125 6.959375,5.9125 L6.959375,6.259375 C6.959375,6.490625 7.071875,6.69375 7.240625,6.821875 L6.609375,13.21875 C6.609375,13.21875 6.95625,13.5625 8,13.5625 C9.04375,13.5625 9.390625,13.21875 9.390625,13.21875 L8.7625,6.81875 Z" id="Path" fill="#ACABB1"></path>
                    <polygon id="Path" fill="#EEEEEE" points="8 5.21875 8.603125 7.078125 10.5625 7.078125 8.98125 8.228125 9.584375 10.0875 8 8.9375 6.41875 10.0875 7.021875 8.228125 5.440625 7.078125 7.396875 7.078125"></polygon>
                </g>
            </g>
        </g>
    </g>
</svg>