<?xml version="1.0" encoding="UTF-8"?>
<svg width="20px" height="20px" viewBox="0 0 20 20" version="1.1" xmlns="http://www.w3.org/2000/svg" xmlns:xlink="http://www.w3.org/1999/xlink">
    <title>mp_flag_20px</title>
    <defs>
        <circle id="path-1" cx="10" cy="10" r="10"></circle>
    </defs>
    <g id="Design-System" stroke="none" stroke-width="1" fill="none" fill-rule="evenodd">
        <g id="Flags-20x20" transform="translate(-51.000000, -1105.000000)">
            <g id="flag" transform="translate(51.000000, 1105.000000)">
                <mask id="mask-2" fill="white">
                    <use xlink:href="#path-1"></use>
                </mask>
                <use id="Mask" fill="#D8D8D8" xlink:href="#path-1"></use>
                <g id="mp" mask="url(#mask-2)" fill-rule="nonzero">
                    <polygon id="Path" fill="#338AF3" points="0 0 20 0 20 20 0 20"></polygon>
                    <path d="M9.6875,16.296875 C9.42311515,16.2857437 9.19164736,16.1160006 9.1015625,15.8671875 C8.94231624,16.0729578 8.67601905,16.1644176 8.42394736,16.0999144 C8.17187568,16.0354112 7.98224098,15.827282 7.94140625,15.5703125 C7.74365881,15.7412879 7.46294144,15.7777031 7.22811471,15.6628422 C6.99328798,15.5479813 6.84970701,15.3040288 6.86328125,15.0429687 C6.63436035,15.1714369 6.35073712,15.1501752 6.14352826,14.9890128 C5.9363194,14.8278503 5.84589696,14.5581876 5.9140625,14.3046875 C5.66410745,14.3855249 5.39005182,14.308543 5.21875,14.109375 C5.04800248,13.9107409 5.01262262,13.6292403 5.12890625,13.3945312 C4.86919552,13.4222537 4.61798449,13.292396 4.49041986,13.0644805 C4.36285523,12.836565 4.38353047,12.5545321 4.54296875,12.3476562 C4.28122367,12.3231235 4.05978241,12.1438731 3.98127104,11.8929781 C3.90275968,11.6420831 3.9825225,11.3685784 4.18359375,11.1992187 C3.93554729,11.1206359 3.75792086,10.902164 3.73161019,10.643301 C3.70529953,10.384438 3.83533695,10.1346954 4.0625,10.0078125 C3.83261514,9.88252081 3.69990766,9.63192982 3.72545294,9.37136794 C3.75099822,9.11080605 3.92984661,8.89075976 4.1796875,8.8125 C3.97861625,8.64314033 3.89885343,8.36963566 3.97736479,8.11874064 C4.05587616,7.86784563 4.27731742,7.68859529 4.5390625,7.6640625 C4.3769341,7.45726412 4.35471334,7.17337827 4.48269066,6.94387229 C4.61066797,6.7143663 4.8638546,6.58405334 5.125,6.61328125 C5.00765037,6.37933585 5.04148373,6.09790381 5.2109375,5.8984375 C5.38671875,5.6953125 5.66015625,5.625 5.90234375,5.703125 C5.83558959,5.44885051 5.92798842,5.17935391 6.13671875,5.01953125 C6.34272872,4.86026364 6.62372289,4.83876682 6.8515625,4.96484375 C6.83629785,4.70307459 6.97925111,4.45760773 7.21446011,4.34170765 C7.44966911,4.22580756 7.73141272,4.26200349 7.9296875,4.43359375 C7.96929363,4.17597994 8.15844278,3.96666605 8.41074207,3.90125513 C8.66304136,3.8358442 8.93006202,3.92689183 9.08984375,4.1328125 C9.17948856,3.8869245 9.40740991,3.7184169 9.6687747,3.70479528 C9.93013949,3.69117366 10.1743428,3.83507542 10.2890625,4.0703125 C10.4262387,3.84732917 10.683432,3.72795412 10.9422847,3.76712261 C11.2011373,3.80629111 11.4114987,3.99641457 11.4765625,4.25 C11.6554829,4.05796862 11.9320651,3.99186799 12.1784793,4.08224829 C12.4248935,4.17262858 12.5931437,4.40188575 12.6054687,4.6640625 C12.8193648,4.5139636 13.1021909,4.50598616 13.3242076,4.64378963 C13.5462243,4.7815931 13.6645871,5.03858432 13.625,5.296875 C13.859375,5.1953125 14.140625,5.23828125 14.3359375,5.421875 C14.5257903,5.60275788 14.5888802,5.87973818 14.4960937,6.125 C14.7515402,6.07046065 15.0148919,6.17355378 15.1654235,6.38701956 C15.3159552,6.60048534 15.3246413,6.88316338 15.1875,7.10546875 C15.4489673,7.1045374 15.6857291,7.25981623 15.7890625,7.5 C15.8942503,7.7405421 15.8449914,8.02070163 15.6640625,8.2109375 C15.9183511,8.26408595 16.1168672,8.46304811 16.1694447,8.71745539 C16.2220222,8.97186268 16.1186383,9.23321748 15.90625,9.3828125 C16.140625,9.484375 16.3046875,9.71484375 16.3046875,9.984375 L16.3046875,10 C16.3046875,10.2695312 16.140625,10.5 15.90625,10.6015625 C16.1185992,10.7505929 16.2224593,11.0112858 16.170767,11.2655104 C16.1190746,11.519735 15.9216556,11.7191678 15.6679687,11.7734375 C15.8507446,11.9626994 15.9019305,12.2432359 15.7977713,12.4848511 C15.6936121,12.7264663 15.4545001,12.8818567 15.1914062,12.8789062 C15.3323281,13.1009231 15.3261676,13.3858442 15.1757812,13.6015625 C15.0263931,13.8158605 14.7635692,13.9203752 14.5078125,13.8671875 C14.5996362,14.1132203 14.5349784,14.3903252 14.34375,14.5703125 C14.1484375,14.7539062 13.8671875,14.7929687 13.6367187,14.6953125 C13.6767494,14.9529525 13.5595235,15.2096838 13.3386149,15.3481765 C13.1177063,15.4866692 12.8355493,15.4803203 12.6210937,15.3320312 C12.608724,15.5931276 12.4416964,15.8216305 12.1966715,15.9126641 C11.9516466,16.0036976 11.6759404,15.9396826 11.4960937,15.75 C11.4324095,16.0058057 11.221024,16.1981408 10.9603581,16.2374544 C10.6996922,16.2767679 10.440984,16.1553322 10.3046875,15.9296875 C10.1903445,16.165856 9.94563082,16.3105294 9.68359375,16.296875 L9.6875,16.296875 Z" id="Path" fill="#EEEEEE"></path>
                    <circle id="Oval" fill="#338AF3" cx="10" cy="10" r="4.34765625"></circle>
                    <path d="M10.953125,8.5234375 C11.1640625,8.3671875 11.3046875,8.11328125 11.3046875,7.82421875 L11.3046875,7.39453125 C11.3046875,6.91015625 10.9140625,6.5234375 10.4335937,6.5234375 L9.5703125,6.5234375 C9.08984375,6.5234375 8.69921875,6.9140625 8.69921875,7.390625 L8.69921875,7.82421875 C8.69921875,8.11328125 8.83984375,8.3671875 9.05078125,8.52734375 L8.26171875,16.5234375 C8.26171875,16.5234375 8.6953125,16.953125 10,16.953125 C11.3046875,16.953125 11.7382812,16.5234375 11.7382812,16.5234375 L10.953125,8.5234375 Z" id="Path" fill="#ACABB1"></path>
                    <polygon id="Path" fill="#EEEEEE" points="10 6.5234375 10.7539062 8.84765625 13.203125 8.84765625 11.2265625 10.2851562 11.9804688 12.609375 10 11.171875 8.0234375 12.609375 8.77734375 10.2851562 6.80078125 8.84765625 9.24609375 8.84765625"></polygon>
                </g>
            </g>
        </g>
    </g>
</svg>