<?xml version="1.0" encoding="UTF-8"?>
<svg width="20px" height="20px" viewBox="0 0 20 20" version="1.1" xmlns="http://www.w3.org/2000/svg" xmlns:xlink="http://www.w3.org/1999/xlink">
    <title>mq_flag_20px</title>
    <defs>
        <circle id="path-1" cx="10" cy="10" r="10"></circle>
    </defs>
    <g id="Design-System" stroke="none" stroke-width="1" fill="none" fill-rule="evenodd">
        <g id="Flags-20x20" transform="translate(-101.000000, -1105.000000)">
            <g id="flag" transform="translate(101.000000, 1105.000000)">
                <mask id="mask-2" fill="white">
                    <use xlink:href="#path-1"></use>
                </mask>
                <use id="Mask" fill="#D8D8D8" xlink:href="#path-1"></use>
                <g id="mq" mask="url(#mask-2)" fill-rule="nonzero">
                    <polygon id="Path" fill="#0052B4" points="0 0 8.6953125 0 9.90625 0.9140625 11.3046875 0 20 0 20 8.6953125 19.1601562 9.90625 20 11.3046875 20 20 11.3046875 20 9.96875 19.1992188 8.6953125 20 0 20 0 11.3046875 0.88671875 10.03125 0 8.6953125"></polygon>
                    <polygon id="Path" fill="#EEEEEE" points="8.6953125 0 8.6953125 8.6953125 0 8.6953125 0 11.3046875 8.6953125 11.3046875 8.6953125 20 11.3046875 20 11.3046875 11.3046875 20 11.3046875 20 8.6953125 11.3046875 8.6953125 11.3046875 0"></polygon>
                    <path d="M13.4140625,6.34375 C13.4161955,6.21152149 13.5240043,6.10545155 13.65625,6.10546875 L14.171875,6.10546875 C14.961048,6.06494503 15.5801282,5.41325966 15.5801282,4.62304688 C15.5801282,3.83283409 14.961048,3.18114872 14.171875,3.140625 L13.6796875,3.140625 C13.5234375,3.0234375 13.3046875,2.9453125 13.0703125,2.9453125 C12.5742187,2.9453125 12.171875,3.26953125 12.171875,3.6640625 C12.171875,4.0546875 12.5664062,4.375 13.0546875,4.37890625 L14.171875,4.37890625 C14.3056315,4.37890625 14.4140625,4.48733729 14.4140625,4.62109375 C14.4140625,4.75485021 14.3056315,4.86328125 14.171875,4.86328125 L13.65625,4.86328125 C12.8802546,4.91968927 12.279492,5.56570711 12.279492,6.34375 C12.279492,7.12179289 12.8802546,7.76781073 13.65625,7.82421875 L15.6523437,7.82421875 L15.6523437,6.5859375 L13.65625,6.5859375 C13.5224935,6.5859375 13.4140625,6.47750646 13.4140625,6.34375 L13.4140625,6.34375 Z M5.5859375,6.34375 C5.58807049,6.21152149 5.69587929,6.10545155 5.828125,6.10546875 L6.34375,6.10546875 C7.13292303,6.06494503 7.75200322,5.41325966 7.75200322,4.62304688 C7.75200322,3.83283409 7.13292303,3.18114872 6.34375,3.140625 L5.859375,3.140625 C5.69921875,3.0234375 5.484375,2.9453125 5.24609375,2.9453125 C4.75390625,2.9453125 4.3515625,3.26953125 4.3515625,3.6640625 C4.3515625,4.0546875 4.7421875,4.375 5.234375,4.37890625 L6.34765625,4.37890625 C6.48141271,4.37890625 6.58984375,4.48733729 6.58984375,4.62109375 C6.58984375,4.75485021 6.48141271,4.86328125 6.34765625,4.86328125 L5.83203125,4.86328125 C5.05603584,4.91968927 4.45527326,5.56570711 4.45527326,6.34375 C4.45527326,7.12179289 5.05603584,7.76781073 5.83203125,7.82421875 L7.828125,7.82421875 L7.828125,6.5859375 L5.8359375,6.5859375 C5.77103126,6.58698451 5.70842163,6.56193137 5.66215428,6.51639842 C5.61588693,6.47086548 5.58983531,6.40866468 5.58984375,6.34375 L5.5859375,6.34375 Z M13.4140625,15.5703125 C13.4140625,15.436556 13.5224935,15.328125 13.65625,15.328125 L14.171875,15.328125 C14.9478704,15.271717 15.548633,14.6256991 15.548633,13.8476562 C15.548633,13.0696134 14.9478704,12.4235955 14.171875,12.3671875 L13.6796875,12.3671875 C13.5234375,12.25 13.3046875,12.171875 13.0703125,12.171875 C12.5742187,12.171875 12.171875,12.4960938 12.171875,12.890625 C12.171875,13.28125 12.5664062,13.5976562 13.0546875,13.6054688 L14.171875,13.6054688 C14.3056315,13.6054688 14.4140625,13.7138998 14.4140625,13.8476562 C14.4140625,13.9814127 14.3056315,14.0898438 14.171875,14.0898438 L13.65625,14.0898438 C12.8802546,14.1462518 12.279492,14.7922696 12.279492,15.5703125 C12.279492,16.3483554 12.8802546,16.9943732 13.65625,17.0507812 L15.6484375,17.0507812 L15.6484375,15.8125 L13.65625,15.8125 C13.5224935,15.8125 13.4140625,15.704069 13.4140625,15.5703125 L13.4140625,15.5703125 Z M5.5859375,15.5703125 C5.5859375,15.436556 5.69436854,15.328125 5.828125,15.328125 L6.34375,15.328125 C7.11974541,15.271717 7.72050799,14.6256991 7.72050799,13.8476562 C7.72050799,13.0696134 7.11974541,12.4235955 6.34375,12.3671875 L5.859375,12.3671875 C5.69921875,12.25 5.484375,12.171875 5.24609375,12.171875 C4.75390625,12.171875 4.3515625,12.4960938 4.3515625,12.890625 C4.3515625,13.28125 4.7421875,13.5976562 5.234375,13.6054688 L6.34765625,13.6054688 C6.48141271,13.6054688 6.58984375,13.7138998 6.58984375,13.8476562 C6.58984375,13.9814127 6.48141271,14.0898438 6.34765625,14.0898438 L5.83203125,14.0898438 C5.05603584,14.1462518 4.45527326,14.7922696 4.45527326,15.5703125 C4.45527326,16.3483554 5.05603584,16.9943732 5.83203125,17.0507812 L7.828125,17.0507812 L7.828125,15.8125 L5.8359375,15.8125 C5.77103126,15.813547 5.70842163,15.7884939 5.66215428,15.7429609 C5.61588693,15.697428 5.58983531,15.6352272 5.58984375,15.5703125 L5.5859375,15.5703125 Z" id="Shape" fill="#EEEEEE"></path>
                </g>
            </g>
        </g>
    </g>
</svg>