<?xml version="1.0" encoding="UTF-8"?>
<svg width="20px" height="20px" viewBox="0 0 20 20" version="1.1" xmlns="http://www.w3.org/2000/svg" xmlns:xlink="http://www.w3.org/1999/xlink">
    <title>ms_flag_20px</title>
    <defs>
        <circle id="path-1" cx="10" cy="10" r="10"></circle>
    </defs>
    <g id="Design-System" stroke="none" stroke-width="1" fill="none" fill-rule="evenodd">
        <g id="Flags-20x20" transform="translate(-201.000000, -1105.000000)">
            <g id="flag" transform="translate(201.000000, 1105.000000)">
                <mask id="mask-2" fill="white">
                    <use xlink:href="#path-1"></use>
                </mask>
                <use id="Mask" fill="#D8D8D8" xlink:href="#path-1"></use>
                <g id="ms" mask="url(#mask-2)" fill-rule="nonzero">
                    <polygon id="Path" fill="#0052B4" points="10 0 20 0 20 20 0 20 0 10"></polygon>
                    <polygon id="Path" fill="#EEEEEE" points="0 0 0 1.25 1.25 2.5 0 3.75 0 10 1.25 10 2.5 8.75 3.75 10 5 10 5 6.7578125 8.2421875 10 10 10 9.6875 9.375 10 8.7890625 10 8.2421875 6.7578125 5 10 5 10 3.75 8.75 2.5 10 1.25 10 0 3.75 0 2.5 1.25 1.25 0"></polygon>
                    <path d="M1.25,0 L1.25,1.25 L0,1.25 L0,3.75 L1.25,3.75 L1.25,10 L3.75,10 L3.75,3.75 L10,3.75 L10,1.25 L3.75,1.25 L3.75,0 L1.25,0 Z M5,5 L10,10 L10,8.7890625 L6.2109375,5 L5,5 Z" id="Shape" fill="#D80027"></path>
                    <polygon id="Path" fill="#338AF3" points="11.3046875 5.21875 11.3046875 10 14.3515625 11.578125 17.3945312 10 17.3945312 5.21875 11.3007812 5.21875"></polygon>
                    <path d="M11.3046875,10 C11.3046875,12.328125 14.3476562,13.046875 14.3476562,13.046875 C14.3476562,13.046875 17.3945312,12.328125 17.3945312,10 L11.3007812,10 L11.3046875,10 Z" id="Path" fill="#A2001D"></path>
                    <polygon id="Path" fill="#333333" points="15.6523438 7.390625 14.78125 7.390625 14.78125 6.5234375 13.9140625 6.5234375 13.9140625 7.390625 13.0429688 7.390625 13.0429688 8.26171875 13.9140625 8.26171875 13.9140625 10.8710938 14.78125 10.8710938 14.78125 8.26171875 15.6523438 8.26171875"></polygon>
                </g>
            </g>
        </g>
    </g>
</svg>