<?xml version="1.0" encoding="UTF-8"?>
<svg width="16px" height="16px" viewBox="0 0 16 16" version="1.1" xmlns="http://www.w3.org/2000/svg" xmlns:xlink="http://www.w3.org/1999/xlink">
    <title>mv_flag_16px</title>
    <defs>
        <circle id="path-1" cx="8" cy="8" r="8"></circle>
    </defs>
    <g id="Design-System" stroke="none" stroke-width="1" fill="none" fill-rule="evenodd">
        <g id="Flags-16x16" transform="translate(-351.000000, -1105.000000)">
            <g id="flag" transform="translate(351.000000, 1105.000000)">
                <mask id="mask-2" fill="white">
                    <use xlink:href="#path-1"></use>
                </mask>
                <use id="Mask" fill="#D8D8D8" xlink:href="#path-1"></use>
                <g id="mv" mask="url(#mask-2)" fill-rule="nonzero">
                    <polygon id="Path" fill="#D80027" points="0 0 16 0 16 16 0 16"></polygon>
                    <polygon id="Path" fill="#6DA544" points="2.78125 4.175 13.21875 4.175 13.21875 11.825 2.78125 11.825"></polygon>
                    <path d="M9.2875,10.259375 C8.34695129,10.2567588 7.50640407,9.67173991 7.17726606,8.79065711 C6.84812805,7.90957431 7.09925447,6.91674892 7.80773094,6.29812154 C8.5162074,5.67949417 9.53382161,5.5644808 10.3625,6.009375 C9.26990465,4.94155432 7.52053804,4.95492796 6.44439609,6.0393283 C5.36825414,7.12372864 5.36825414,8.87314636 6.44439609,9.9575467 C7.52053804,11.041947 9.26990465,11.0553207 10.3625,9.9875 C10.0324583,10.1663856 9.66290294,10.2598487 9.2875,10.259375 L9.2875,10.259375 Z" id="Path" fill="#EEEEEE"></path>
                </g>
            </g>
        </g>
    </g>
</svg>