<?xml version="1.0" encoding="UTF-8"?>
<svg width="20px" height="20px" viewBox="0 0 20 20" version="1.1" xmlns="http://www.w3.org/2000/svg" xmlns:xlink="http://www.w3.org/1999/xlink">
    <title>mx_flag_20px</title>
    <defs>
        <circle id="path-1" cx="10" cy="10" r="10"></circle>
    </defs>
    <g id="Design-System" stroke="none" stroke-width="1" fill="none" fill-rule="evenodd">
        <g id="Flags-20x20" transform="translate(-451.000000, -1105.000000)">
            <g id="flag" transform="translate(451.000000, 1105.000000)">
                <mask id="mask-2" fill="white">
                    <use xlink:href="#path-1"></use>
                </mask>
                <use id="Mask" fill="#D8D8D8" xlink:href="#path-1"></use>
                <g id="mx" mask="url(#mask-2)" fill-rule="nonzero">
                    <polygon id="Path" fill="#EEEEEE" points="5.625 0 14.3359375 0 15.625 10 14.3359375 20 5.625 20 4.375 10"></polygon>
                    <polygon id="Path" fill="#496E2D" points="0 0 5.625 0 5.625 20 0 20"></polygon>
                    <polygon id="Path" fill="#D80027" points="14.375 0 20 0 20 20 14.375 20"></polygon>
                    <polygon id="Path" fill="#FFDA44" points="10 10.8203125 10 11.2109375 10.46875 11.2109375 10.859375 10.3515625"></polygon>
                    <path d="M6.25,9.453125 C6.25,11.5241928 7.92893219,13.203125 10,13.203125 C12.0710678,13.203125 13.75,11.5241928 13.75,9.453125 L13.3203125,9.453125 C13.3203125,11.286883 11.833758,12.7734375 10,12.7734375 C8.16624204,12.7734375 6.6796875,11.286883 6.6796875,9.453125 L6.25,9.453125 Z M7.7734375,10.1171875 L7.6171875,10.1953125 C7.5390625,10.2734375 7.5390625,10.4296875 7.65625,10.5078125 C8.2421875,11.0546875 8.984375,11.3671875 9.765625,11.4453125 L9.765625,12.109375 L10.234375,12.109375 L10.234375,11.4453125 C11.015625,11.3671875 11.7578125,11.0546875 12.34375,10.5078125 C12.4609375,10.4296875 12.4609375,10.2734375 12.3828125,10.1953125 C12.3046875,10.1171875 12.1484375,10.1171875 12.0703125,10.1953125 C11.5084336,10.7201812 10.7688883,11.0132086 10,11.015625 C9.2578125,11.015625 8.515625,10.703125 7.9296875,10.1953125 L7.7734375,10.1171875 Z" id="Shape" fill="#496E2D"></path>
                    <path d="M10,12.34375 C9.453125,12.34375 8.90625,12.1484375 8.4375,11.8359375 L8.671875,11.484375 C9.453125,11.9921875 10.546875,11.9921875 11.328125,11.484375 L11.6015625,11.8359375 C11.1328125,12.1484375 10.5859375,12.34375 10,12.34375 Z" id="Path" fill="#338AF3"></path>
                    <path d="M10,6.796875 C10.859375,7.2265625 10.46875,8.0859375 10.4296875,8.125 L10.3515625,7.96875 C10.15625,7.5390625 9.6484375,7.265625 9.140625,7.265625 L9.140625,7.6953125 C9.375,7.6953125 9.5703125,7.890625 9.5703125,8.125 C9.296875,8.3984375 9.21875,8.7890625 9.4140625,9.140625 L9.5703125,9.453125 L9.0625,10.3515625 L10.1953125,10.078125 L10.8984375,10.78125 L10.8984375,10.3515625 L11.328125,10.78125 L12.2265625,10.3515625 L10.859375,9.53125 L10.6640625,8.7109375 L11.7578125,9.3359375 C11.9140625,9.765625 12.2265625,10.15625 12.65625,10.3515625 C13.0078125,7.109375 11.015625,6.796875 10.2734375,6.796875 L10,6.796875 Z" id="Path" fill="#751A46"></path>
                    <path d="M8.671875,10.5859375 C8.0859375,10.5859375 7.3828125,10.1171875 7.1875,9.0234375 L7.6171875,8.9453125 C7.7734375,9.84375 8.3203125,10.15625 8.671875,10.15625 C8.7890625,10.15625 8.8671875,10.1171875 8.90625,10.0390625 C8.90625,9.9609375 8.90625,9.921875 8.671875,9.84375 C8.5546875,9.8046875 8.3984375,9.765625 8.28125,9.6484375 C7.890625,9.1796875 8.4375,8.7109375 8.7109375,8.4765625 C8.75,8.4375 8.7890625,8.3984375 8.75,8.359375 C8.75,8.359375 8.671875,8.28125 8.5546875,8.28125 C8.28125,8.28125 8.0859375,8.125 8.0078125,7.8515625 C7.9296875,7.6171875 8.0859375,7.34375 8.3203125,7.1875 L8.515625,7.6171875 C8.4375,7.6171875 8.4375,7.6953125 8.4375,7.7734375 C8.4375,7.7734375 8.4765625,7.8515625 8.5546875,7.8515625 C8.828125,7.8515625 9.1015625,8.0078125 9.1796875,8.203125 C9.21875,8.3203125 9.2578125,8.5546875 8.984375,8.7890625 C8.7109375,9.0625 8.5546875,9.2578125 8.6328125,9.375 L8.828125,9.4140625 C9.0234375,9.4921875 9.375,9.609375 9.3359375,10.078125 C9.296875,10.390625 9.0234375,10.5859375 8.671875,10.5859375 L8.6328125,10.5859375 L8.671875,10.5859375 Z" id="Path" fill="#6DA544"></path>
                    <path d="M9.140625,7.265625 L8.671875,7.6953125 L8.671875,8.125 L9.375,7.7734375 C9.4921875,7.734375 9.4921875,7.578125 9.4140625,7.5 L9.140625,7.265625 Z" id="Path" fill="#FFDA44"></path>
                    <circle id="Oval" fill="#FFDA44" cx="6.71875" cy="10.7421875" r="1"></circle>
                    <circle id="Oval" fill="#FFDA44" cx="7.3828125" cy="11.796875" r="1"></circle>
                    <circle id="Oval" fill="#FFDA44" cx="8.4375" cy="12.6171875" r="1"></circle>
                    <circle id="Oval" fill="#FFDA44" cx="11.6015625" cy="12.6171875" r="1"></circle>
                    <circle id="Oval" fill="#FFDA44" cx="12.65625" cy="11.796875" r="1"></circle>
                    <circle id="Oval" fill="#FFDA44" cx="13.3203125" cy="10.7421875" r="1"></circle>
                    <rect id="Rectangle" fill="#FF9811" x="9.3359375" y="11.6796875" width="1.328125" height="1" rx="0.5"></rect>
                </g>
            </g>
        </g>
    </g>
</svg>