<?xml version="1.0" encoding="UTF-8"?>
<svg width="16px" height="16px" viewBox="0 0 16 16" version="1.1" xmlns="http://www.w3.org/2000/svg" xmlns:xlink="http://www.w3.org/1999/xlink">
    <title>my_flag_16px</title>
    <defs>
        <circle id="path-1" cx="8" cy="8" r="8"></circle>
    </defs>
    <g id="Design-System" stroke="none" stroke-width="1" fill="none" fill-rule="evenodd">
        <g id="Flags-16x16" transform="translate(-501.000000, -1105.000000)">
            <g id="flag" transform="translate(501.000000, 1105.000000)">
                <mask id="mask-2" fill="white">
                    <use xlink:href="#path-1"></use>
                </mask>
                <use id="Mask" fill="#D8D8D8" xlink:href="#path-1"></use>
                <g id="my" mask="url(#mask-2)" fill-rule="nonzero">
                    <polygon id="Path" fill="#EEEEEE" points="0 8 8 0 16 0 16 1.740625 15.390625 2.771875 16 3.825 16 5.9125 15.309375 7.090625 16 8 16 10.0875 15.36875 11.290625 16 12.175 16 14.259375 8.046875 15.140625 0 14.259375 0 12.175 0.8125 11.078125 0 10.0875"></polygon>
                    <path d="M8,8 L16,8 L16,5.9125 L6.965625,5.9125 L8,8 Z M6.965625,3.825 L16,3.825 L16,1.740625 L6.965625,1.740625 L6.965625,3.825 Z M16,16 L16,14.259375 L0,14.259375 L0,16 L16,16 Z M0,12.175 L16,12.175 L16,10.0875 L0,10.0875 L0,12.175 Z" id="Shape" fill="#D80027"></path>
                    <polygon id="Path" fill="#0052B4" points="0 0 8 0 8 8 0 8"></polygon>
                    <g id="Group" transform="translate(2.115525, 2.431250)" fill="#FFDA44">
                        <path d="M3.20322516,4.41562533 C2.37861603,4.41527664 1.64072695,3.90342806 1.35155497,3.13118463 C1.062383,2.35894121 1.28259798,1.48832382 1.90416584,0.946444006 C2.52573369,0.404564187 3.41824609,0.30511127 4.14385016,0.696875331 C3.18703236,-0.241101656 1.65252297,-0.230929626 0.70822413,0.719649576 C-0.23607471,1.67022878 -0.23607471,3.20477188 0.70822413,4.15535109 C1.65252297,5.10593029 3.18703236,5.11610232 4.14385016,4.17812533 C3.85595812,4.33400969 3.53373641,4.41563919 3.20635016,4.41562533 L3.20322516,4.41562533 Z" id="Path"></path>
                        <polygon id="Path" points="3.75947516 1.04687533 4.11260016 1.78125033 4.90635016 1.59687533 4.55010016 2.33125033 5.18760016 2.83750033 4.39385016 3.01562533 4.39697516 3.82812533 3.76260016 3.32187533 3.12510016 3.82812533 3.12822516 3.01562533 2.33447516 2.83750033 2.97197516 2.33125033 2.61572516 1.59687533 3.40947516 1.78437533"></polygon>
                    </g>
                </g>
            </g>
        </g>
    </g>
</svg>