<?xml version="1.0" encoding="UTF-8"?>
<svg width="20px" height="20px" viewBox="0 0 20 20" version="1.1" xmlns="http://www.w3.org/2000/svg" xmlns:xlink="http://www.w3.org/1999/xlink">
    <title>my_flag_20px</title>
    <defs>
        <circle id="path-1" cx="10" cy="10" r="10"></circle>
    </defs>
    <g id="Design-System" stroke="none" stroke-width="1" fill="none" fill-rule="evenodd">
        <g id="Flags-20x20" transform="translate(-501.000000, -1105.000000)">
            <g id="flag" transform="translate(501.000000, 1105.000000)">
                <mask id="mask-2" fill="white">
                    <use xlink:href="#path-1"></use>
                </mask>
                <use id="Mask" fill="#D8D8D8" xlink:href="#path-1"></use>
                <g id="my" mask="url(#mask-2)" fill-rule="nonzero">
                    <polygon id="Path" fill="#EEEEEE" points="0 10 10 0 20 0 20 2.17578125 19.2382812 3.46484375 20 4.78125 20 7.390625 19.1367188 8.86328125 20 10 20 12.609375 19.2109375 14.1132812 20 15.21875 20 17.8242188 10.0585938 18.9257812 0 17.8242188 0 15.21875 1.015625 13.8476563 0 12.609375"></polygon>
                    <path d="M10,10 L20,10 L20,7.390625 L8.70703125,7.390625 L10,10 Z M8.70703125,4.78125 L20,4.78125 L20,2.17578125 L8.70703125,2.17578125 L8.70703125,4.78125 Z M20,20 L20,17.8242188 L0,17.8242188 L0,20 L20,20 Z M0,15.21875 L20,15.21875 L20,12.609375 L0,12.609375 L0,15.21875 Z" id="Shape" fill="#D80027"></path>
                    <polygon id="Path" fill="#0052B4" points="0 0 10 0 10 10 0 10"></polygon>
                    <g id="Group" transform="translate(2.644406, 3.039062)" fill="#FFDA44">
                        <path d="M4.00403145,5.51953166 C2.97327004,5.5190958 2.05090868,4.87928507 1.68944372,3.91398079 C1.32797875,2.94867651 1.60324748,1.86040478 2.3802073,1.18305501 C3.15716711,0.505705234 4.27280762,0.381389088 5.1798127,0.871094163 C3.98379045,-0.30137707 2.06565371,-0.288662032 0.885280163,0.89956197 C-0.295093388,2.08778597 -0.295093388,4.00596486 0.885280163,5.19418886 C2.06565371,6.38241286 3.98379045,6.3951279 5.1798127,5.22265666 C4.81994764,5.41751211 4.41717052,5.51954899 4.0079377,5.51953166 L4.00403145,5.51953166 Z" id="Path"></path>
                        <polygon id="Path" points="4.69934395 1.30859416 5.1407502 2.22656291 6.1329377 1.99609416 5.6876252 2.91406291 6.4845002 3.54687541 5.4923127 3.76953166 5.49621895 4.78515666 4.7032502 4.15234416 3.9063752 4.78515666 3.91028145 3.76953166 2.91809395 3.54687541 3.71496895 2.91406291 3.26965645 1.99609416 4.26184395 2.23046916"></polygon>
                    </g>
                </g>
            </g>
        </g>
    </g>
</svg>