<?xml version="1.0" encoding="UTF-8"?>
<svg width="16px" height="16px" viewBox="0 0 16 16" version="1.1" xmlns="http://www.w3.org/2000/svg" xmlns:xlink="http://www.w3.org/1999/xlink">
    <title>na_flag_16px</title>
    <defs>
        <circle id="path-1" cx="8" cy="8" r="8"></circle>
    </defs>
    <g id="Design-System" stroke="none" stroke-width="1" fill="none" fill-rule="evenodd">
        <g id="Flags-16x16" transform="translate(-101.000000, -1155.000000)">
            <g id="flag" transform="translate(101.000000, 1155.000000)">
                <mask id="mask-2" fill="white">
                    <use xlink:href="#path-1"></use>
                </mask>
                <use id="Mask" fill="#D8D8D8" xlink:href="#path-1"></use>
                <g id="na" mask="url(#mask-2)" fill-rule="nonzero">
                    <polygon id="Path" fill="#EEEEEE" points="0 12.559375 5.01875 5.15 12.559375 0 14.03125 0 16 1.96875 16 3.446875 10.946875 10.6 3.446875 16 1.96875 16 0 14.03125"></polygon>
                    <polygon id="Path" fill="#A2001D" points="0 16 1.96875 16 16 1.96875 16 0 14.03125 0 0 14.03125"></polygon>
                    <polygon id="Path" fill="#0052B4" points="0 0 0 12.559375 12.559375 0"></polygon>
                    <polygon id="Path" fill="#496E2D" points="16 16 16 3.446875 3.446875 16"></polygon>
                    <polygon id="Path" fill="#FFDA44" points="6.609375 4.521875 5.7125 4.94375 6.1875 5.8125 5.2125 5.625 5.0875 6.609375 4.4125 5.884375 3.734375 6.609375 3.609375 5.625 2.640625 5.8125 3.115625 4.94375 2.21875 4.521875 3.115625 4.1 2.6375 3.23125 3.609375 3.41875 3.734375 2.434375 4.4125 3.159375 5.09375 2.4375 5.21875 3.421875 6.1875 3.234375 5.7125 4.103125"></polygon>
                </g>
            </g>
        </g>
    </g>
</svg>