<?xml version="1.0" encoding="UTF-8"?>
<svg width="20px" height="20px" viewBox="0 0 20 20" version="1.1" xmlns="http://www.w3.org/2000/svg" xmlns:xlink="http://www.w3.org/1999/xlink">
    <title>nato_flag_20px</title>
    <defs>
        <circle id="path-1" cx="10" cy="10" r="10"></circle>
    </defs>
    <g id="Design-System" stroke="none" stroke-width="1" fill="none" fill-rule="evenodd">
        <g id="Flags-20x20" transform="translate(-151.000000, -1155.000000)">
            <g id="flag" transform="translate(151.000000, 1155.000000)">
                <mask id="mask-2" fill="white">
                    <use xlink:href="#path-1"></use>
                </mask>
                <use id="Mask" fill="#D8D8D8" xlink:href="#path-1"></use>
                <g id="nato" mask="url(#mask-2)" fill-rule="nonzero">
                    <polygon id="Path" fill="#0052B4" points="0 0 20 0 20 20 0 20"></polygon>
                    <path d="M14.2929688,10.6992187 L16.0898438,10 L14.2929688,9.30078125 L13.3046875,8.91796875 L11.703125,8.29296875 L11.078125,6.69140625 C12.1317923,7.03788367 12.9582101,7.86430148 13.3046875,8.91796875 L14.2929688,9.30078125 C13.9849983,7.45854894 12.5414511,6.01500173 10.6992188,5.70703125 L10,3.91015625 L9.30078125,5.70703125 C7.45854894,6.01500173 6.01500173,7.45854894 5.70703125,9.30078125 L3.91015625,10 L5.70703125,10.6992187 C6.01500173,12.5414511 7.45854894,13.9849983 9.30078125,14.2929687 L10,16.0898437 L10.6992188,14.2929687 C12.5414511,13.9849983 13.9849983,12.5414511 14.2929688,10.6992187 L14.2929688,10.6992187 Z M11.03125,8.96875 L10,10 L13.6875,10 L11.03125,11.03125 L10,10 L10,13.6875 L8.96875,11.03125 L10,10 L6.3125,10 L8.96875,8.96875 L10,10 L10,6.3125 L11.03125,8.96875 Z M8.921875,6.6953125 L8.296875,8.296875 L6.6953125,8.921875 C7.04178992,7.86820773 7.86820773,7.04178992 8.921875,6.6953125 Z M6.6953125,11.0820312 L8.296875,11.7070312 L8.921875,13.3085937 C7.86820773,12.9621163 7.04178992,12.1356985 6.6953125,11.0820312 L6.6953125,11.0820312 Z M11.0820312,13.3085937 L11.7070312,11.7070312 L13.3085938,11.0820312 C12.9621163,12.1356985 12.1356985,12.9621163 11.0820312,13.3085937 Z" id="Shape" fill="#EEEEEE"></path>
                    <path d="M13.6875,10 L10,10 L11.03125,11.03125 L13.6875,10 Z M6.3125,10 L10,10 L8.96875,8.96875 L6.3125,10 Z M10,13.6875 L10,10 L8.96875,11.03125 L10,13.6875 Z M10,10 L11.03125,8.96875 L10,6.3125 L10,10 Z" id="Shape" fill="#0052B4"></path>
                    <path d="M9.56640625,1.3046875 L10.4296875,1.3046875 L10.4296875,3.04296875 L9.5703125,3.04296875 L9.56640625,1.3046875 Z M1.3046875,9.56640625 L3.04296875,9.56640625 L3.04296875,10.4296875 L1.3046875,10.4296875 L1.3046875,9.56640625 Z M9.56640625,16.953125 L10.4296875,16.953125 L10.4296875,18.6914062 L9.5703125,18.6914062 L9.56640625,16.953125 Z M16.953125,9.56640625 L18.6914062,9.56640625 L18.6914062,10.4296875 L16.953125,10.4296875 L16.953125,9.56640625 Z" id="Shape" fill="#EEEEEE"></path>
                </g>
            </g>
        </g>
    </g>
</svg>