<?xml version="1.0" encoding="UTF-8"?>
<svg width="20px" height="20px" viewBox="0 0 20 20" version="1.1" xmlns="http://www.w3.org/2000/svg" xmlns:xlink="http://www.w3.org/1999/xlink">
    <title>nc_flag_20px</title>
    <defs>
        <circle id="path-1" cx="10" cy="10" r="10"></circle>
    </defs>
    <g id="Design-System" stroke="none" stroke-width="1" fill="none" fill-rule="evenodd">
        <g id="Flags-20x20" transform="translate(-201.000000, -1155.000000)">
            <g id="flag" transform="translate(201.000000, 1155.000000)">
                <mask id="mask-2" fill="white">
                    <use xlink:href="#path-1"></use>
                </mask>
                <use id="Mask" fill="#D8D8D8" xlink:href="#path-1"></use>
                <g id="nc" mask="url(#mask-2)" fill-rule="nonzero">
                    <polygon id="Path" fill="#496E2D" points="0 13.75 20 13.75 20 20 0 20"></polygon>
                    <polygon id="Path" fill="#D80027" points="0 6.25 20 6.25 20 13.75 0 13.75"></polygon>
                    <polygon id="Path" fill="#0052B4" points="0 0 20 0 20 6.25 0 6.25"></polygon>
                    <path d="M15.546875,10 C15.546875,13.6243687 12.6087437,16.5625 8.984375,16.5625 C5.36000633,16.5625 2.421875,13.6243687 2.421875,10 C2.421875,6.37563133 5.36000633,3.4375 8.984375,3.4375 C12.6087437,3.4375 15.546875,6.37563133 15.546875,10 Z" id="Path" fill="#FFDA44"></path>
                    <path d="M8.984375,3.125 C5.18741734,3.125 2.109375,6.20304234 2.109375,10 C2.109375,13.7969577 5.18741734,16.875 8.984375,16.875 C12.7813327,16.875 15.859375,13.7969577 15.859375,10 C15.859375,6.20304234 12.7813327,3.125 8.984375,3.125 Z M8.671875,3.75 L8.671875,5.078125 C8.359375,5.234375 8.125,5.390625 8.0859375,5.703125 L8.046875,6.328125 L8.28125,6.2109375 L8.671875,6.0546875 L8.671875,6.3671875 C8.2922132,6.50136392 8.04064083,6.86299921 8.046875,7.265625 C8.05707612,7.65389388 8.30563793,7.99566636 8.671875,8.125 L8.671875,8.4375 L7.890625,8.4375 L7.890625,9.0625 L8.671875,9.0625 L8.671875,9.375 C8.30563793,9.50433364 8.05707612,9.84610612 8.046875,10.234375 C8.04064083,10.6370008 8.2922132,10.9986361 8.671875,11.1328125 L8.671875,11.40625 L7.890625,11.40625 L7.890625,12.0703125 L8.671875,12.0703125 L8.671875,12.34375 C8.2922132,12.4779264 8.04064083,12.8395617 8.046875,13.2421875 C8.05707612,13.6304564 8.30563793,13.9722289 8.671875,14.1015625 L8.671875,14.4140625 C8.28125,14.4140625 7.96875,14.53125 7.7734375,14.6875 C7.5,14.8828125 6.9140625,15.46875 6.6015625,15.78125 C3.88417037,14.6739257 2.3030098,11.8252848 2.80063222,8.93344128 C3.29825465,6.04159774 5.74065084,3.88532219 8.671875,3.75 L8.671875,3.75 Z M9.296875,3.75 C12.2512421,3.87784372 14.71169,6.0587138 15.1932454,8.97637273 C15.6748007,11.8940317 14.0456564,14.749883 11.2890625,15.8203125 L10.1171875,14.6875 C9.921875,14.53125 9.6484375,14.453125 9.296875,14.4140625 L9.296875,14.1015625 C9.66311207,13.9722289 9.91167388,13.6304564 9.921875,13.2421875 C9.92810917,12.8395617 9.6765368,12.4779264 9.296875,12.34375 L9.296875,12.0703125 L10.1171875,12.0703125 L10.1171875,11.4453125 L9.296875,11.4453125 L9.296875,11.1328125 C9.6765368,10.9986361 9.92810917,10.6370008 9.921875,10.234375 C9.91167388,9.84610612 9.66311207,9.50433364 9.296875,9.375 L9.296875,9.0625 L10.1171875,9.0625 L10.1171875,8.4375 L9.296875,8.4375 L9.296875,8.1640625 C9.6765368,8.02988608 9.92810917,7.66825079 9.921875,7.265625 C9.92810917,6.86299921 9.6765368,6.50136392 9.296875,6.3671875 L9.296875,5.5859375 C9.53125,5.390625 9.7265625,5.078125 9.9609375,4.6875 C10.1171875,4.375 10.0390625,4.2578125 10.0390625,4.2578125 L9.9609375,4.375 L9.296875,4.8046875 L9.296875,3.75 L9.296875,3.75 Z" id="Shape" fill="#333333"></path>
                </g>
            </g>
        </g>
    </g>
</svg>