<?xml version="1.0" encoding="UTF-8"?>
<svg width="16px" height="16px" viewBox="0 0 16 16" version="1.1" xmlns="http://www.w3.org/2000/svg" xmlns:xlink="http://www.w3.org/1999/xlink">
    <title>nl_fr_flag_16px</title>
    <defs>
        <circle id="path-1" cx="8" cy="8" r="8"></circle>
    </defs>
    <g id="Design-System" stroke="none" stroke-width="1" fill="none" fill-rule="evenodd">
        <g id="Flags-16x16" transform="translate(-501.000000, -1155.000000)">
            <g id="flag" transform="translate(501.000000, 1155.000000)">
                <mask id="mask-2" fill="white">
                    <use xlink:href="#path-1"></use>
                </mask>
                <use id="Mask" fill="#D8D8D8" xlink:href="#path-1"></use>
                <g id="nl-fr" mask="url(#mask-2)" fill-rule="nonzero">
                    <polygon id="Path" fill="#EEEEEE" points="0 0 0 1.615625 1 4.846875 0 4.846875 0 8.08125 1 11.3125 0 11.3125 0 16 4.6875 16 4.6875 15 7.91875 16 11.153125 16 11.153125 15 14.384375 16 16 16 16 14.384375 15 11.153125 16 11.153125 16 7.91875 15 4.6875 16 4.6875 16 0 11.3125 0 11.3125 1 8.08125 0 4.846875 0 4.846875 1 1.615625 0"></polygon>
                    <path d="M1.615625,0 L16,14.384375 L16,11.153125 L4.846875,0 L1.615625,0 Z M8.08125,0 L16,7.91875 L16,4.6875 L11.3125,0 L8.08125,0 Z M0,1.61875 L0,4.85 L11.15,16 L14.38125,16 L0,1.61875 Z M0,8.084375 L0,11.315625 L4.684375,16 L7.91875,16 L0,8.084375 Z" id="Shape" fill="#0052B4"></path>
                    <path d="M8.175,6.94375 C8.0694552,6.83783808 7.92608521,6.77830643 7.7765625,6.77830643 C7.62703979,6.77830643 7.4836698,6.83783808 7.378125,6.94375 C7.37172853,6.9498518 7.3654768,6.95610353 7.359375,6.9625 C6.9260128,7.43071747 6.94005995,8.15768687 7.39118654,8.60881346 C7.84231313,9.05994005 8.56928253,9.0739872 9.0375,8.640625 C9.04389647,8.6345232 9.0501482,8.62827147 9.05625,8.621875 C9.16216192,8.5163302 9.22169357,8.37296021 9.22169357,8.2234375 C9.22169357,8.07391479 9.16216192,7.9305448 9.05625,7.825 C8.83678119,7.60649096 8.48196881,7.60649096 8.2625,7.825 C8.23819728,7.84882143 8.19930272,7.84882143 8.175,7.825 C8.15117857,7.80069728 8.15117857,7.76180272 8.175,7.7375 C8.39350904,7.51803119 8.39350904,7.16321881 8.175,6.94375 L8.175,6.94375 Z M5.05,3.81875 C4.9444552,3.71283808 4.80108521,3.65330643 4.6515625,3.65330643 C4.50203979,3.65330643 4.3586698,3.71283808 4.253125,3.81875 C4.24672853,3.8248518 4.2404768,3.83110353 4.234375,3.8375 C3.8010128,4.30571747 3.81505995,5.03268687 4.26618654,5.48381346 C4.71731313,5.93494005 5.44428253,5.9489872 5.9125,5.515625 C5.91889647,5.5095232 5.9251482,5.50327147 5.93125,5.496875 C6.03716192,5.3913302 6.09669357,5.24796021 6.09669357,5.0984375 C6.09669357,4.94891479 6.03716192,4.8055448 5.93125,4.7 C5.71178119,4.48149096 5.35696881,4.48149096 5.1375,4.7 C5.11319728,4.72382143 5.07430272,4.72382143 5.05,4.7 C5.02617857,4.67569728 5.02617857,4.63680272 5.05,4.6125 C5.26850904,4.39303119 5.26850904,4.03821881 5.05,3.81875 L5.05,3.81875 Z M11.3,10.06875 C11.1944552,9.96283808 11.0510852,9.90330643 10.9015625,9.90330643 C10.7520398,9.90330643 10.6086698,9.96283808 10.503125,10.06875 C10.4967285,10.0748518 10.4904768,10.0811035 10.484375,10.0875 C10.0510128,10.5557175 10.0650599,11.2826869 10.5161865,11.7338135 C10.9673131,12.1849401 11.6942825,12.1989872 12.1625,11.765625 C12.1688965,11.7595232 12.1751482,11.7532715 12.18125,11.746875 C12.2871619,11.6413302 12.3466936,11.4979602 12.3466936,11.3484375 C12.3466936,11.1989148 12.2871619,11.0555448 12.18125,10.95 C11.9617812,10.731491 11.6069688,10.731491 11.3875,10.95 C11.3631973,10.9738214 11.3243027,10.9738214 11.3,10.95 C11.2761786,10.9256973 11.2761786,10.8868027 11.3,10.8625 C11.518509,10.6430312 11.518509,10.2882188 11.3,10.06875 L11.3,10.06875 Z M3.3625,8.634375 C3.2569552,8.52846308 3.11358521,8.46893143 2.9640625,8.46893143 C2.81453979,8.46893143 2.6711698,8.52846308 2.565625,8.634375 C2.55926273,8.63944711 2.55301126,8.64465667 2.546875,8.65 C2.08261065,9.11340143 2.0819111,9.86542312 2.54531252,10.3296875 C3.00871393,10.7939518 3.76073563,10.7946514 4.225,10.33125 C4.23139647,10.3251482 4.2376482,10.3188965 4.24375,10.3125 C4.34966192,10.2069552 4.40919357,10.0635852 4.40919357,9.9140625 C4.40919357,9.76453979 4.34966192,9.6211698 4.24375,9.515625 C4.02428119,9.29711596 3.66946881,9.29711596 3.45,9.515625 C3.42569728,9.53944643 3.38680272,9.53944643 3.3625,9.515625 C3.35007932,9.50382538 3.3430468,9.48744447 3.3430468,9.4703125 C3.3430468,9.45318053 3.35007932,9.43679962 3.3625,9.425 C3.57894292,9.20589868 3.57894292,8.85347632 3.3625,8.634375 L3.3625,8.634375 Z M6.4875,11.759375 C6.3819552,11.6534631 6.23858521,11.5939314 6.0890625,11.5939314 C5.93953979,11.5939314 5.7961698,11.6534631 5.690625,11.759375 C5.68422853,11.7654768 5.6779768,11.7717285 5.671875,11.778125 C5.2385128,12.2463425 5.25255995,12.9733119 5.70368654,13.4244385 C6.15481313,13.8755651 6.88178253,13.8896122 7.35,13.45625 C7.35639647,13.4501482 7.3626482,13.4438965 7.36875,13.4375 C7.47466192,13.3319552 7.53419357,13.1885852 7.53419357,13.0390625 C7.53419357,12.8895398 7.47466192,12.7461698 7.36875,12.640625 C7.14928119,12.422116 6.79446881,12.422116 6.575,12.640625 C6.55069728,12.6644464 6.51180272,12.6644464 6.4875,12.640625 C6.46367857,12.6163223 6.46367857,12.5774277 6.4875,12.553125 C6.70600904,12.3336562 6.70600904,11.9788438 6.4875,11.759375 L6.4875,11.759375 Z M12.95625,5.290625 C12.8507052,5.18471308 12.7073352,5.12518143 12.5578125,5.12518143 C12.4082898,5.12518143 12.2649198,5.18471308 12.159375,5.290625 C12.1530127,5.29569711 12.1467613,5.30090667 12.140625,5.30625 C11.8402986,5.60601816 11.72271,6.04323758 11.8321536,6.45321194 C11.9415973,6.8631863 12.2614461,7.18363074 12.6712161,7.29383694 C13.0809862,7.40404314 13.5184236,7.28726816 13.81875,6.9875 C13.8251465,6.9813982 13.8313982,6.97514647 13.8375,6.96875 C13.9434119,6.8632052 14.0029436,6.71983521 14.0029436,6.5703125 C14.0029436,6.42078979 13.9434119,6.2774198 13.8375,6.171875 C13.6180312,5.95336596 13.2632188,5.95336596 13.04375,6.171875 C13.0194473,6.19569643 12.9805527,6.19569643 12.95625,6.171875 C12.9438293,6.16007538 12.9367968,6.14369447 12.9367968,6.1265625 C12.9367968,6.10943053 12.9438293,6.09304962 12.95625,6.08125 C13.1726929,5.86214868 13.1726929,5.50972632 12.95625,5.290625 L12.95625,5.290625 Z M9.83125,2.165625 C9.7257052,2.05971308 9.58233521,2.00018143 9.4328125,2.00018143 C9.28328979,2.00018143 9.1399198,2.05971308 9.034375,2.165625 C9.02797853,2.1717268 9.0217268,2.17797853 9.015625,2.184375 C8.5822628,2.65259247 8.59630995,3.37956187 9.04743654,3.83068846 C9.49856313,4.28181505 10.2255325,4.2958622 10.69375,3.8625 C10.7001465,3.8563982 10.7063982,3.85014647 10.7125,3.84375 C10.819374,3.73808306 10.8795177,3.59404156 10.8795177,3.44375 C10.8795177,3.29345844 10.819374,3.14941694 10.7125,3.04375 C10.4930312,2.82524096 10.1382188,2.82524096 9.91875,3.04375 C9.89444728,3.06757143 9.85555272,3.06757143 9.83125,3.04375 C9.80742857,3.01944728 9.80742857,2.98055272 9.83125,2.95625 C10.0476929,2.73714868 10.0476929,2.38472632 9.83125,2.165625 L9.83125,2.165625 Z" id="Shape" fill="#D80027"></path>
                </g>
            </g>
        </g>
    </g>
</svg>