<?xml version="1.0" encoding="UTF-8"?>
<svg width="20px" height="20px" viewBox="0 0 20 20" version="1.1" xmlns="http://www.w3.org/2000/svg" xmlns:xlink="http://www.w3.org/1999/xlink">
    <title>nl_fr_flag_20px</title>
    <defs>
        <circle id="path-1" cx="10" cy="10" r="10"></circle>
    </defs>
    <g id="Design-System" stroke="none" stroke-width="1" fill="none" fill-rule="evenodd">
        <g id="Flags-20x20" transform="translate(-501.000000, -1155.000000)">
            <g id="flag" transform="translate(501.000000, 1155.000000)">
                <mask id="mask-2" fill="white">
                    <use xlink:href="#path-1"></use>
                </mask>
                <use id="Mask" fill="#D8D8D8" xlink:href="#path-1"></use>
                <g id="nl-fr" mask="url(#mask-2)" fill-rule="nonzero">
                    <polygon id="Path" fill="#EEEEEE" points="0 0 0 2.01953125 1.25 6.05859375 0 6.05859375 0 10.1015625 1.25 14.140625 0 14.140625 0 20 5.859375 20 5.859375 18.75 9.8984375 20 13.9414062 20 13.9414062 18.75 17.9804688 20 20 20 20 17.9804688 18.75 13.9414062 20 13.9414062 20 9.8984375 18.75 5.859375 20 5.859375 20 0 14.140625 0 14.140625 1.25 10.1015625 0 6.05859375 0 6.05859375 1.25 2.01953125 0"></polygon>
                    <path d="M2.01953125,0 L20,17.9804688 L20,13.9414062 L6.05859375,0 L2.01953125,0 Z M10.1015625,0 L20,9.8984375 L20,5.859375 L14.140625,0 L10.1015625,0 Z M0,2.0234375 L0,6.0625 L13.9375,20 L17.9765625,20 L0,2.0234375 Z M0,10.1054688 L0,14.1445312 L5.85546875,20 L9.8984375,20 L0,10.1054688 Z" id="Shape" fill="#0052B4"></path>
                    <path d="M10.21875,8.6796875 C10.086819,8.5472976 9.90760651,8.47288304 9.72070312,8.47288304 C9.53379974,8.47288304 9.35458725,8.5472976 9.22265625,8.6796875 C9.21466067,8.68731475 9.206846,8.69512942 9.19921875,8.703125 C8.657516,9.28839684 8.67507494,10.1971086 9.23898318,10.7610168 C9.80289141,11.3249251 10.7116032,11.342484 11.296875,10.8007812 C11.3048706,10.793154 11.3126853,10.7853393 11.3203125,10.7773437 C11.4527024,10.6454127 11.527117,10.4662003 11.527117,10.2792969 C11.527117,10.0923935 11.4527024,9.913181 11.3203125,9.78125 C11.0459765,9.5081137 10.602461,9.5081137 10.328125,9.78125 C10.2977466,9.81102679 10.2491284,9.81102679 10.21875,9.78125 C10.1889732,9.7508716 10.1889732,9.7022534 10.21875,9.671875 C10.4918863,9.39753898 10.4918863,8.95402352 10.21875,8.6796875 L10.21875,8.6796875 Z M6.3125,4.7734375 C6.180569,4.6410476 6.00135651,4.56663304 5.81445313,4.56663304 C5.62754974,4.56663304 5.44833725,4.6410476 5.31640625,4.7734375 C5.30841067,4.78106475 5.300596,4.78887942 5.29296875,4.796875 C4.751266,5.38214684 4.76882494,6.29085859 5.33273318,6.85476682 C5.89664141,7.41867506 6.80535316,7.436234 7.390625,6.89453125 C7.39862058,6.886904 7.40643525,6.87908933 7.4140625,6.87109375 C7.5464524,6.73916275 7.62086696,6.55995026 7.62086696,6.37304688 C7.62086696,6.18614349 7.5464524,6.006931 7.4140625,5.875 C7.13972648,5.6018637 6.69621102,5.6018637 6.421875,5.875 C6.3914966,5.90477679 6.3428784,5.90477679 6.3125,5.875 C6.28272321,5.8446216 6.28272321,5.7960034 6.3125,5.765625 C6.5856363,5.49128898 6.5856363,5.04777352 6.3125,4.7734375 L6.3125,4.7734375 Z M14.125,12.5859375 C13.993069,12.4535476 13.8138565,12.379133 13.6269531,12.379133 C13.4400497,12.379133 13.2608373,12.4535476 13.1289062,12.5859375 C13.1209107,12.5935647 13.113096,12.6013794 13.1054688,12.609375 C12.563766,13.1946468 12.5813249,14.1033586 13.1452332,14.6672668 C13.7091414,15.2311751 14.6178532,15.248734 15.203125,14.7070312 C15.2111206,14.699404 15.2189353,14.6915893 15.2265625,14.6835937 C15.3589524,14.5516627 15.433367,14.3724503 15.433367,14.1855469 C15.433367,13.9986435 15.3589524,13.819431 15.2265625,13.6875 C14.9522265,13.4143637 14.508711,13.4143637 14.234375,13.6875 C14.2039966,13.7172768 14.1553784,13.7172768 14.125,13.6875 C14.0952232,13.6571216 14.0952232,13.6085034 14.125,13.578125 C14.3981363,13.303789 14.3981363,12.8602735 14.125,12.5859375 L14.125,12.5859375 Z M4.203125,10.7929688 C4.071194,10.6605789 3.89198151,10.5861643 3.70507812,10.5861643 C3.51817474,10.5861643 3.33896225,10.6605789 3.20703125,10.7929688 C3.19907841,10.7993089 3.19126407,10.8058208 3.18359375,10.8125 C2.60326331,11.3917518 2.60238888,12.3317789 3.18164065,12.9121094 C3.76089242,13.4924398 4.70091954,13.4933143 5.28125,12.9140625 C5.28924558,12.9064353 5.29706025,12.8986206 5.3046875,12.890625 C5.4370774,12.758694 5.51149196,12.5794815 5.51149196,12.3925781 C5.51149196,12.2056747 5.4370774,12.0264623 5.3046875,11.8945312 C5.03035148,11.6213949 4.58683602,11.6213949 4.3125,11.8945312 C4.2821216,11.924308 4.2335034,11.924308 4.203125,11.8945312 C4.18759915,11.8797817 4.17880851,11.8593056 4.17880851,11.8378906 C4.17880851,11.8164757 4.18759915,11.7959995 4.203125,11.78125 C4.47367865,11.5073734 4.47367865,11.0668454 4.203125,10.7929687 L4.203125,10.7929688 Z M8.109375,14.6992187 C7.977444,14.5668289 7.79823151,14.4924143 7.61132812,14.4924143 C7.42442474,14.4924143 7.24521225,14.5668289 7.11328125,14.6992187 C7.10528567,14.706846 7.097471,14.7146607 7.08984375,14.7226563 C6.548141,15.3079281 6.56569994,16.2166398 7.12960818,16.7805481 C7.69351641,17.3444563 8.60222816,17.3620153 9.1875,16.8203125 C9.19549558,16.8126853 9.20331025,16.8048706 9.2109375,16.796875 C9.3433274,16.664944 9.41774196,16.4857315 9.41774196,16.2988281 C9.41774196,16.1119247 9.3433274,15.9327123 9.2109375,15.8007813 C8.93660148,15.5276449 8.49308602,15.5276449 8.21875,15.8007813 C8.1883716,15.830558 8.1397534,15.830558 8.109375,15.8007813 C8.07959821,15.7704029 8.07959821,15.7217846 8.109375,15.6914062 C8.3825113,15.4170702 8.3825113,14.9735548 8.109375,14.6992187 L8.109375,14.6992187 Z M16.1953125,6.61328125 C16.0633815,6.48089135 15.884169,6.40647679 15.6972656,6.40647679 C15.5103622,6.40647679 15.3311498,6.48089135 15.1992188,6.61328125 C15.1912659,6.61962139 15.1834516,6.62613334 15.1757812,6.6328125 C14.8003733,7.0075227 14.6533875,7.55404698 14.7901921,8.06651493 C14.9269966,8.57898288 15.3268076,8.97953842 15.8390202,9.11729618 C16.3512327,9.25505393 16.8980295,9.1090852 17.2734375,8.734375 C17.2814331,8.72674775 17.2892478,8.71893308 17.296875,8.7109375 C17.4292649,8.5790065 17.5036795,8.39979401 17.5036795,8.21289062 C17.5036795,8.02598724 17.4292649,7.84677475 17.296875,7.71484375 C17.022539,7.44170745 16.5790235,7.44170745 16.3046875,7.71484375 C16.2743091,7.74462054 16.2256909,7.74462054 16.1953125,7.71484375 C16.1797867,7.70009422 16.170996,7.67961808 16.170996,7.65820312 C16.170996,7.63678817 16.1797867,7.61631203 16.1953125,7.6015625 C16.4658661,7.32768586 16.4658661,6.88715789 16.1953125,6.61328125 L16.1953125,6.61328125 Z M12.2890625,2.70703125 C12.1571315,2.57464135 11.977919,2.50022679 11.7910156,2.50022679 C11.6041122,2.50022679 11.4248998,2.57464135 11.2929687,2.70703125 C11.2849732,2.7146585 11.2771585,2.72247317 11.2695312,2.73046875 C10.7278285,3.31574059 10.7453874,4.22445234 11.3092957,4.78836057 C11.8732039,5.35226881 12.7819157,5.36982775 13.3671875,4.828125 C13.3751831,4.82049775 13.3829978,4.81268308 13.390625,4.8046875 C13.5242175,4.67260383 13.5993971,4.49255195 13.5993971,4.3046875 C13.5993971,4.11682305 13.5242175,3.93677117 13.390625,3.8046875 C13.116289,3.5315512 12.6727735,3.5315512 12.3984375,3.8046875 C12.3680591,3.83446429 12.3194409,3.83446429 12.2890625,3.8046875 C12.2592857,3.7743091 12.2592857,3.7256909 12.2890625,3.6953125 C12.5596161,3.42143586 12.5596161,2.98090789 12.2890625,2.70703125 L12.2890625,2.70703125 Z" id="Shape" fill="#D80027"></path>
                </g>
            </g>
        </g>
    </g>
</svg>