<?xml version="1.0" encoding="UTF-8"?>
<svg width="20px" height="20px" viewBox="0 0 20 20" version="1.1" xmlns="http://www.w3.org/2000/svg" xmlns:xlink="http://www.w3.org/1999/xlink">
    <title>no_flag_20px</title>
    <defs>
        <circle id="path-1" cx="10" cy="10" r="10"></circle>
    </defs>
    <g id="Design-System" stroke="none" stroke-width="1" fill="none" fill-rule="evenodd">
        <g id="Flags-20x20" transform="translate(-51.000000, -1205.000000)">
            <g id="flag" transform="translate(51.000000, 1205.000000)">
                <mask id="mask-2" fill="white">
                    <use xlink:href="#path-1"></use>
                </mask>
                <use id="Mask" fill="#D8D8D8" xlink:href="#path-1"></use>
                <g id="no" mask="url(#mask-2)" fill-rule="nonzero">
                    <polygon id="Path" fill="#D80027" points="0 0 3.9140625 0 6.49609375 2.08984375 9.12890625 0 20 0 20 7.39453125 18.2148438 10.0390625 20 12.609375 20 20 9.12890625 20 6.47265625 18.0195312 3.9140625 20 0 20 0 12.609375 2.0078125 9.93359375 0 7.39453125"></polygon>
                    <polygon id="Path" fill="#EEEEEE" points="3.9140625 0 3.9140625 7.39453125 0 7.39453125 0 8.69921875 0.9609375 9.98828125 0 11.3085938 0 12.6132812 3.9140625 12.6132812 3.9140625 20 5.21875 20 6.4140625 18.9726562 7.82421875 20 9.12890625 20 9.12890625 12.609375 20 12.609375 20 11.3046875 19.0390625 9.98828125 20 8.69921875 20 7.39453125 9.12890625 7.39453125 9.12890625 0 7.82421875 0 6.50390625 0.98828125 5.21875 0"></polygon>
                    <polygon id="Path" fill="#0052B4" points="5.21875 0 5.21875 8.69921875 0 8.69921875 0 11.3046875 5.21875 11.3046875 5.21875 20 7.82421875 20 7.82421875 11.3046875 20 11.3046875 20 8.69921875 7.82421875 8.69921875 7.82421875 0"></polygon>
                </g>
            </g>
        </g>
    </g>
</svg>