<?xml version="1.0" encoding="UTF-8"?>
<svg width="20px" height="20px" viewBox="0 0 20 20" version="1.1" xmlns="http://www.w3.org/2000/svg" xmlns:xlink="http://www.w3.org/1999/xlink">
    <title>northern_cyprus_flag_20px</title>
    <defs>
        <circle id="path-1" cx="10" cy="10" r="10"></circle>
    </defs>
    <g id="Design-System" stroke="none" stroke-width="1" fill="none" fill-rule="evenodd">
        <g id="Flags-20x20" transform="translate(-101.000000, -1205.000000)">
            <g id="flag" transform="translate(101.000000, 1205.000000)">
                <mask id="mask-2" fill="white">
                    <use xlink:href="#path-1"></use>
                </mask>
                <use id="Mask" fill="#D8D8D8" xlink:href="#path-1"></use>
                <g id="northern_cyprus" mask="url(#mask-2)" fill-rule="nonzero">
                    <polygon id="Path" fill="#EEEEEE" points="0 0 0 1.875 1.25 2.8125 0 3.75 0 16.25 1.25 17.1875 0 18.125 0 20 20 20 20 18.125 18.75 17.1875 20 16.25 20 3.75 18.75 2.8125 20 1.875 20 0"></polygon>
                    <path d="M0,18.125 L20,18.125 L20,16.25 L0,16.25 L0,18.125 Z M0,1.875 L0,3.75 L20,3.75 L20,1.875 L0,1.875 Z M10.546875,11.8359375 L10.546875,8.1640625 L12.6953125,11.1328125 L9.21875,10 L12.6953125,8.8671875 L10.546875,11.8359375 Z" id="Shape" fill="#D80027"></path>
                    <path d="M7.2265625,6.52343234 C5.66116358,6.5261383 4.29062842,7.57471079 3.87859143,9.08491163 C3.46655443,10.5951125 4.11464763,12.1944392 5.46176663,12.9917795 C6.80888563,13.7891197 8.52275338,13.5878034 9.6484375,12.5 C9.2380893,12.7115983 8.78195981,12.8189229 8.3203125,12.8125 C7.15940888,12.7959 6.12801584,12.0676607 5.72389663,10.9792396 C5.31977742,9.89081858 5.62599764,8.66593769 6.49477157,7.8957399 C7.3635455,7.12554211 8.61629901,6.96833949 9.6484375,7.5 C8.99871594,6.87213701 8.13008207,6.52188142 7.2265625,6.52343234 L7.2265625,6.52343234 Z" id="Path" fill="#D80027"></path>
                </g>
            </g>
        </g>
    </g>
</svg>