<?xml version="1.0" encoding="UTF-8"?>
<svg width="20px" height="20px" viewBox="0 0 20 20" version="1.1" xmlns="http://www.w3.org/2000/svg" xmlns:xlink="http://www.w3.org/1999/xlink">
    <title>np_flag_20px</title>
    <defs>
        <circle id="path-1" cx="10" cy="10" r="10"></circle>
    </defs>
    <g id="Design-System" stroke="none" stroke-width="1" fill="none" fill-rule="evenodd">
        <g id="Flags-20x20" transform="translate(-151.000000, -1205.000000)">
            <g id="flag" transform="translate(151.000000, 1205.000000)">
                <mask id="mask-2" fill="white">
                    <use xlink:href="#path-1"></use>
                </mask>
                <use id="Mask" fill="#D8D8D8" xlink:href="#path-1"></use>
                <g id="np" mask="url(#mask-2)" fill-rule="nonzero">
                    <polygon id="Path" fill="#EEEEEE" points="8.921875 0 20 0 20 20 18.9296875 20 6.2265625 10.0976562"></polygon>
                    <polygon id="Path" fill="#0052B4" points="19.9414062 11.0859375 8.92578125 0 7.390625 0 4.62109375 9.9140625 17.390625 20 18.9296875 20 10.015625 11.0859375 19.9375 11.0859375"></polygon>
                    <polygon id="Path" fill="#D80027" points="17.390625 10 7.390625 0 0 0 0 20 17.390625 20 7.390625 10"></polygon>
                    <path d="M9.51171875,14.765625 L8.2890625,14.1914062 L8.9453125,13.0078125 L7.6171875,13.2617188 L7.44921875,11.921875 L6.52734375,12.90625 L5.6015625,11.921875 L5.43359375,13.2617188 L4.10546875,13.0078125 L4.7578125,14.1914062 L3.53125,14.765625 L4.75390625,15.3398438 L4.10546875,16.5234375 L5.43359375,16.2695312 L5.59765625,17.609375 L6.5234375,16.625 L7.4453125,17.609375 L7.61328125,16.2695312 L8.94140625,16.5234375 L8.2890625,15.3398438 L9.51171875,14.765625 Z M5.8515625,3.4765625 L5.7265625,4.453125 L4.76171875,4.26953125 L5.234375,5.12890625 L4.34765625,5.546875 L3.9140625,5.546875 C3.96829134,6.94767018 5.11963991,8.05530914 6.52148438,8.05530914 C7.92332884,8.05530914 9.07467741,6.94767018 9.12890625,5.546875 L8.6953125,5.546875 L7.8125,5.12890625 L8.28125,4.26953125 L7.3203125,4.453125 L7.19921875,3.4765625 L6.52734375,4.1953125 L5.8515625,3.4765625 Z" id="Shape" fill="#EEEEEE"></path>
                </g>
            </g>
        </g>
    </g>
</svg>