<?xml version="1.0" encoding="UTF-8"?>
<svg width="16px" height="16px" viewBox="0 0 16 16" version="1.1" xmlns="http://www.w3.org/2000/svg" xmlns:xlink="http://www.w3.org/1999/xlink">
    <title>nr_flag_16px</title>
    <defs>
        <circle id="path-1" cx="8" cy="8" r="8"></circle>
    </defs>
    <g id="Design-System" stroke="none" stroke-width="1" fill="none" fill-rule="evenodd">
        <g id="Flags-16x16" transform="translate(-201.000000, -1205.000000)">
            <g id="flag" transform="translate(201.000000, 1205.000000)">
                <mask id="mask-2" fill="white">
                    <use xlink:href="#path-1"></use>
                </mask>
                <use id="Mask" fill="#D8D8D8" xlink:href="#path-1"></use>
                <g id="nr" mask="url(#mask-2)" fill-rule="nonzero">
                    <polygon id="Path" fill="#0052B4" points="0 0 16 0 16 7.303125 15.446875 8.03125 16 8.696875 16 16 0 16 0 8.696875 0.584375 7.98125 0 7.303125"></polygon>
                    <polygon id="Path" fill="#EEEEEE" points="6.609375 10.78125 5.7125 11.203125 6.190625 12.071875 5.215625 11.884375 5.090625 12.86875 4.415625 12.146875 3.7375 12.86875 3.6125 11.8875 2.640625 12.075 3.11875 11.203125 2.21875 10.78125 3.115625 10.3625 2.6375 9.49375 3.609375 9.68125 3.734375 8.696875 4.4125 9.41875 5.090625 8.696875 5.215625 9.678125 6.184375 9.490625 5.709375 10.3625"></polygon>
                    <polygon id="Path" fill="#FFDA44" points="0 7.303125 16 7.303125 16 8.696875 0 8.696875"></polygon>
                </g>
            </g>
        </g>
    </g>
</svg>