<?xml version="1.0" encoding="UTF-8"?>
<svg width="16px" height="16px" viewBox="0 0 16 16" version="1.1" xmlns="http://www.w3.org/2000/svg" xmlns:xlink="http://www.w3.org/1999/xlink">
    <title>nz_flag_16px</title>
    <defs>
        <circle id="path-1" cx="8" cy="8" r="8"></circle>
    </defs>
    <g id="Design-System" stroke="none" stroke-width="1" fill="none" fill-rule="evenodd">
        <g id="Flags-16x16" transform="translate(-301.000000, -1205.000000)">
            <g id="flag" transform="translate(301.000000, 1205.000000)">
                <mask id="mask-2" fill="white">
                    <use xlink:href="#path-1"></use>
                </mask>
                <use id="Mask" fill="#D8D8D8" xlink:href="#path-1"></use>
                <g id="nz" mask="url(#mask-2)" fill-rule="nonzero">
                    <polygon id="Path" fill="#0052B4" points="8 0 16 0 16 16 0 16 0 8"></polygon>
                    <path d="M0,0 L0,1 L1,2 L0,3 L0,8 L1,8 L2,7 L3,8 L4,8 L4,5.40625 L6.59375,8 L8,8 L7.75,7.5 L8,7.03125 L8,6.59375 L5.40625,4 L8,4 L8,3 L7,2 L8,1 L8,0 L3,0 L2,1 L1,0 L0,0 Z M11.9375,2.875 L11.59375,3.96875 L10.4375,3.96875 L11.375,4.625 L11,5.71875 L11.9375,5.03125 L12.875,5.71875 L12.5,4.625 L13.4375,3.96875 L12.28125,3.96875 L11.9375,2.875 Z M13.84375,5.125 L13.5,6.21875 L12.34375,6.21875 L13.28125,6.875 L12.9375,7.96875 L13.84375,7.3125 L14.78125,7.96875 L14.40625,6.875 L15.34375,6.21875 L14.1875,6.21875 L13.84375,5.125 Z M10,5.4375 L9.65625,6.53125 L8.5,6.53125 L9.4375,7.21875 L9.09375,8.3125 L10,7.625 L10.9375,8.3125 L10.59375,7.21875 L11.5,6.53125 L10.375,6.53125 L10,5.4375 Z M11.84375,9.5 L11.5,10.59375 L10.34375,10.59375 L11.28125,11.25 L10.9375,12.34375 L11.84375,11.6875 L12.78125,12.34375 L12.4375,11.25 L13.34375,10.59375 L12.21875,10.59375 L11.84375,9.5 Z" id="Shape" fill="#EEEEEE"></path>
                    <path d="M1,0 L1,1 L0,1 L0,3 L1,3 L1,8 L3,8 L3,3 L8,3 L8,1 L3,1 L3,0 L1,0 Z M4,4 L8,8 L8,7.03125 L4.96875,4 L4,4 Z M11.84375,10.28125 L11.6875,10.84375 L11.09375,10.84375 L11.5625,11.15625 L11.375,11.71875 L11.84375,11.375 L12.3125,11.71875 L12.15625,11.15625 L12.59375,10.84375 L12.03125,10.84375 L11.84375,10.28125 Z M10,6.25 L9.84375,6.78125 L9.25,6.78125 L9.71875,7.125 L9.53125,7.65625 L10,7.3125 L10.46875,7.65625 L10.28125,7.125 L10.75,6.78125 L10.1875,6.78125 L10,6.25 Z M13.84375,5.90625 L13.65625,6.46875 L13.09375,6.46875 L13.5625,6.8125 L13.375,7.34375 L13.84375,7 L14.3125,7.34375 L14.125,6.8125 L14.59375,6.46875 L14.03125,6.46875 L13.84375,5.90625 Z M11.9375,3.65625 L11.75,4.1875 L11.1875,4.1875 L11.65625,4.53125 L11.46875,5.0625 L11.9375,4.75 L12.40625,5.0625 L12.21875,4.53125 L12.6875,4.1875 L12.125,4.1875 L11.9375,3.65625 Z" id="Shape" fill="#D80027"></path>
                </g>
            </g>
        </g>
    </g>
</svg>