<?xml version="1.0" encoding="UTF-8"?>
<svg width="20px" height="20px" viewBox="0 0 20 20" version="1.1" xmlns="http://www.w3.org/2000/svg" xmlns:xlink="http://www.w3.org/1999/xlink">
    <title>nz_flag_20px</title>
    <defs>
        <circle id="path-1" cx="10" cy="10" r="10"></circle>
    </defs>
    <g id="Design-System" stroke="none" stroke-width="1" fill="none" fill-rule="evenodd">
        <g id="Flags-20x20" transform="translate(-301.000000, -1205.000000)">
            <g id="flag" transform="translate(301.000000, 1205.000000)">
                <mask id="mask-2" fill="white">
                    <use xlink:href="#path-1"></use>
                </mask>
                <use id="Mask" fill="#D8D8D8" xlink:href="#path-1"></use>
                <g id="nz" mask="url(#mask-2)" fill-rule="nonzero">
                    <polygon id="Path" fill="#0052B4" points="10 0 20 0 20 20 0 20 0 10"></polygon>
                    <path d="M0,0 L0,1.25 L1.25,2.5 L0,3.75 L0,10 L1.25,10 L2.5,8.75 L3.75,10 L5,10 L5,6.7578125 L8.2421875,10 L10,10 L9.6875,9.375 L10,8.7890625 L10,8.2421875 L6.7578125,5 L10,5 L10,3.75 L8.75,2.5 L10,1.25 L10,0 L3.75,0 L2.5,1.25 L1.25,0 L0,0 Z M14.921875,3.59375 L14.4921875,4.9609375 L13.046875,4.9609375 L14.21875,5.78125 L13.75,7.1484375 L14.921875,6.2890625 L16.09375,7.1484375 L15.625,5.78125 L16.796875,4.9609375 L15.3515625,4.9609375 L14.921875,3.59375 Z M17.3046875,6.40625 L16.875,7.7734375 L15.4296875,7.7734375 L16.6015625,8.59375 L16.171875,9.9609375 L17.3046875,9.140625 L18.4765625,9.9609375 L18.0078125,8.59375 L19.1796875,7.7734375 L17.734375,7.7734375 L17.3046875,6.40625 Z M12.5,6.796875 L12.0703125,8.1640625 L10.625,8.1640625 L11.796875,9.0234375 L11.3671875,10.390625 L12.5,9.53125 L13.671875,10.390625 L13.2421875,9.0234375 L14.375,8.1640625 L12.96875,8.1640625 L12.5,6.796875 Z M14.8046875,11.875 L14.375,13.2421875 L12.9296875,13.2421875 L14.1015625,14.0625 L13.671875,15.4296875 L14.8046875,14.609375 L15.9765625,15.4296875 L15.546875,14.0625 L16.6796875,13.2421875 L15.2734375,13.2421875 L14.8046875,11.875 Z" id="Shape" fill="#EEEEEE"></path>
                    <path d="M1.25,0 L1.25,1.25 L0,1.25 L0,3.75 L1.25,3.75 L1.25,10 L3.75,10 L3.75,3.75 L10,3.75 L10,1.25 L3.75,1.25 L3.75,0 L1.25,0 Z M5,5 L10,10 L10,8.7890625 L6.2109375,5 L5,5 Z M14.8046875,12.8515625 L14.609375,13.5546875 L13.8671875,13.5546875 L14.453125,13.9453125 L14.21875,14.6484375 L14.8046875,14.21875 L15.390625,14.6484375 L15.1953125,13.9453125 L15.7421875,13.5546875 L15.0390625,13.5546875 L14.8046875,12.8515625 Z M12.5,7.8125 L12.3046875,8.4765625 L11.5625,8.4765625 L12.1484375,8.90625 L11.9140625,9.5703125 L12.5,9.140625 L13.0859375,9.5703125 L12.8515625,8.90625 L13.4375,8.4765625 L12.734375,8.4765625 L12.5,7.8125 Z M17.3046875,7.3828125 L17.0703125,8.0859375 L16.3671875,8.0859375 L16.953125,8.515625 L16.71875,9.1796875 L17.3046875,8.75 L17.890625,9.1796875 L17.65625,8.515625 L18.2421875,8.0859375 L17.5390625,8.0859375 L17.3046875,7.3828125 Z M14.921875,4.5703125 L14.6875,5.234375 L13.984375,5.234375 L14.5703125,5.6640625 L14.3359375,6.328125 L14.921875,5.9375 L15.5078125,6.328125 L15.2734375,5.6640625 L15.859375,5.234375 L15.15625,5.234375 L14.921875,4.5703125 Z" id="Shape" fill="#D80027"></path>
                </g>
            </g>
        </g>
    </g>
</svg>