<?xml version="1.0" encoding="UTF-8"?>
<svg width="16px" height="16px" viewBox="0 0 16 16" version="1.1" xmlns="http://www.w3.org/2000/svg" xmlns:xlink="http://www.w3.org/1999/xlink">
    <title>occitania_flag_16px</title>
    <defs>
        <circle id="path-1" cx="8" cy="8" r="8"></circle>
    </defs>
    <g id="Design-System" stroke="none" stroke-width="1" fill="none" fill-rule="evenodd">
        <g id="Flags-16x16" transform="translate(-351.000000, -1205.000000)">
            <g id="flag" transform="translate(351.000000, 1205.000000)">
                <mask id="mask-2" fill="white">
                    <use xlink:href="#path-1"></use>
                </mask>
                <use id="Mask" fill="#D8D8D8" xlink:href="#path-1"></use>
                <g id="occitania" mask="url(#mask-2)" fill-rule="nonzero">
                    <polygon id="Path" fill="#D80027" points="0 0 16 0 16 16 0 16"></polygon>
                    <circle id="Oval" fill="#FFDA44" cx="8" cy="2" r="1"></circle>
                    <circle id="Oval" fill="#FFDA44" cx="2" cy="8" r="1"></circle>
                    <circle id="Oval" fill="#FFDA44" cx="14" cy="8" r="1"></circle>
                    <circle id="Oval" fill="#FFDA44" cx="8" cy="14" r="1"></circle>
                    <circle id="Oval" fill="#FFDA44" cx="11" cy="12.5" r="1"></circle>
                    <circle id="Oval" fill="#FFDA44" cx="12.5" cy="11" r="1"></circle>
                    <circle id="Oval" fill="#FFDA44" cx="11" cy="3.5" r="1"></circle>
                    <circle id="Oval" fill="#FFDA44" cx="12.5" cy="5" r="1"></circle>
                    <circle id="Oval" fill="#FFDA44" cx="5" cy="3.5" r="1"></circle>
                    <circle id="Oval" fill="#FFDA44" cx="3.5" cy="5" r="1"></circle>
                    <circle id="Oval" fill="#FFDA44" cx="3.5" cy="11" r="1"></circle>
                    <circle id="Oval" fill="#FFDA44" cx="5" cy="12.5" r="1"></circle>
                    <path d="M8,1.875 L4.78125,3.5 L5.40625,5.40625 L3.5,4.78125 L1.875,8 L3.5,11.21875 L5.40625,10.59375 L4.78125,12.5 L8,14.125 L11.21875,12.5 L10.59375,10.59375 L12.5,11.21875 L14.125,8 L12.5,4.78125 L10.59375,5.40625 L11.21875,3.5 L8,1.875 Z M8,3 L10,4 L9,7 L12,6 L13,8 L12,10 L9,9 L10,12 L8,13 L6,12 L7,9 L4,10 L3,8 L4,6 L7,7 L6,4 L8,3 Z" id="Shape" fill="#FFDA44"></path>
                </g>
            </g>
        </g>
    </g>
</svg>