<?xml version="1.0" encoding="UTF-8"?>
<svg width="20px" height="20px" viewBox="0 0 20 20" version="1.1" xmlns="http://www.w3.org/2000/svg" xmlns:xlink="http://www.w3.org/1999/xlink">
    <title>olympics_20px</title>
    <defs>
        <circle id="path-1" cx="10" cy="10" r="10"></circle>
    </defs>
    <g id="Design-System" stroke="none" stroke-width="1" fill="none" fill-rule="evenodd">
        <g id="Flags-20x20" transform="translate(-401.000000, -1205.000000)">
            <g id="flag" transform="translate(401.000000, 1205.000000)">
                <mask id="mask-2" fill="white">
                    <use xlink:href="#path-1"></use>
                </mask>
                <use id="Mask" fill="#D8D8D8" xlink:href="#path-1"></use>
                <g id="olympics" mask="url(#mask-2)" fill-rule="nonzero">
                    <polygon id="Path" fill="#EEEEEE" points="0 0 20 0 20 20 0 20"></polygon>
                    <path d="M4.28125,5.98046875 C2.73835981,5.98476054 1.48866679,7.23445356 1.484375,8.77734375 C1.48866679,10.3202339 2.73835981,11.569927 4.28125,11.5742187 C5.82414019,11.569927 7.07383321,10.3202339 7.078125,8.77734375 C7.07383321,7.23445356 5.82414019,5.98476054 4.28125,5.98046875 L4.28125,5.98046875 Z M4.28125,6.76171875 C5.3984375,6.76171875 6.296875,7.66015625 6.296875,8.77734375 C6.296875,9.89453125 5.3984375,10.7929687 4.28125,10.7929687 C3.1640625,10.7929687 2.265625,9.89453125 2.265625,8.77734375 C2.265625,7.66015625 3.1640625,6.76171875 4.28125,6.76171875 L4.28125,6.76171875 Z" id="Shape" fill="#338AF3"></path>
                    <path d="M10,5.98046875 C8.45710981,5.98476054 7.20741679,7.23445356 7.203125,8.77734375 C7.20741679,10.3202339 8.45710981,11.569927 10,11.5742187 C11.5428902,11.569927 12.7925832,10.3202339 12.796875,8.77734375 C12.7925832,7.23445356 11.5428902,5.98476054 10,5.98046875 L10,5.98046875 Z M10,6.76171875 C11.1171875,6.76171875 12.015625,7.66015625 12.015625,8.77734375 C12.015625,9.89453125 11.1171875,10.7929687 10,10.7929687 C8.8828125,10.7929687 7.984375,9.89453125 7.984375,8.77734375 C7.984375,7.66015625 8.8828125,6.76171875 10,6.76171875 L10,6.76171875 Z" id="Shape" fill="#333333"></path>
                    <path d="M15.71875,5.98046875 C14.1758598,5.98476054 12.9261668,7.23445356 12.921875,8.77734375 C12.9261668,10.3202339 14.1758598,11.569927 15.71875,11.5742187 C17.2616402,11.569927 18.5113332,10.3202339 18.515625,8.77734375 C18.5113332,7.23445356 17.2616402,5.98476054 15.71875,5.98046875 L15.71875,5.98046875 Z M15.71875,6.76171875 C16.8359375,6.76171875 17.734375,7.66015625 17.734375,8.77734375 C17.734375,9.89453125 16.8359375,10.7929687 15.71875,10.7929687 C14.6015625,10.7929687 13.703125,9.89453125 13.703125,8.77734375 C13.703125,7.66015625 14.6015625,6.76171875 15.71875,6.76171875 L15.71875,6.76171875 Z" id="Shape" fill="#D80027"></path>
                    <path d="M7.140625,8.42578125 C5.59773481,8.43007304 4.34804179,9.67976606 4.34375,11.2226562 C4.34804179,12.7655464 5.59773481,14.0152395 7.140625,14.0195313 C8.68351519,14.0152395 9.93320821,12.7655464 9.9375,11.2226563 C9.93320821,9.67976606 8.68351519,8.43007304 7.140625,8.42578125 L7.140625,8.42578125 Z M7.140625,9.20703125 C8.2578125,9.20703125 9.15625,10.1054688 9.15625,11.2226562 C9.15625,12.3398438 8.2578125,13.2382813 7.140625,13.2382813 C6.0234375,13.2382813 5.125,12.3398438 5.125,11.2226562 C5.125,10.1054688 6.0234375,9.20703125 7.140625,9.20703125 L7.140625,9.20703125 Z" id="Shape" fill="#FFDA44"></path>
                    <path d="M12.859375,8.42578125 C11.3164848,8.43007304 10.0667918,9.67976606 10.0625,11.2226562 C10.0667918,12.7655464 11.3164848,14.0152395 12.859375,14.0195313 C14.4022652,14.0152395 15.6519582,12.7655464 15.65625,11.2226563 C15.6519582,9.67976606 14.4022652,8.43007304 12.859375,8.42578125 L12.859375,8.42578125 Z M12.859375,9.20703125 C13.9765625,9.20703125 14.875,10.1054688 14.875,11.2226562 C14.875,12.3398438 13.9765625,13.2382813 12.859375,13.2382813 C11.7421875,13.2382813 10.84375,12.3398438 10.84375,11.2226562 C10.84375,10.1054688 11.7421875,9.20703125 12.859375,9.20703125 L12.859375,9.20703125 Z" id="Shape" fill="#6DA544"></path>
                    <path d="M6.51953125,7.09765625 L5.89453125,7.56640625 C6.43294518,8.28247855 6.43294518,9.2683027 5.89453125,9.984375 L6.51953125,10.453125 C7.26497403,9.45883973 7.26497403,8.09194152 6.51953125,7.09765625 L6.51953125,7.09765625 Z" id="Path" fill="#338AF3"></path>
                    <path d="M12.2382813,7.09765625 L11.6132812,7.56640625 C12.1516952,8.28247855 12.1516952,9.2683027 11.6132812,9.984375 L12.2382812,10.453125 C12.983724,9.45883973 12.983724,8.09194152 12.2382812,7.09765625 L12.2382813,7.09765625 Z M8.7890625,10.390625 L8.3203125,11.015625 C8.80509855,11.3785104 9.3944397,11.5745006 10,11.5742191 L10,10.7929688 C9.5633879,10.7938154 9.13835202,10.6525939 8.7890625,10.390625 Z" id="Shape" fill="#333333"></path>
                    <path d="M14.5078125,10.390625 L14.0390625,11.015625 C14.5238486,11.3785104 15.1131897,11.5745006 15.71875,11.5742191 L15.71875,10.7929688 C15.2821379,10.7938154 14.857102,10.6525939 14.5078125,10.390625 Z" id="Path" fill="#D80027"></path>
                </g>
            </g>
        </g>
    </g>
</svg>