<?xml version="1.0" encoding="UTF-8"?>
<svg width="20px" height="20px" viewBox="0 0 20 20" version="1.1" xmlns="http://www.w3.org/2000/svg" xmlns:xlink="http://www.w3.org/1999/xlink">
    <title>om_flag_20px</title>
    <defs>
        <circle id="path-1" cx="10" cy="10" r="10"></circle>
    </defs>
    <g id="Design-System" stroke="none" stroke-width="1" fill="none" fill-rule="evenodd">
        <g id="Flags-20x20" transform="translate(-451.000000, -1205.000000)">
            <g id="flag" transform="translate(451.000000, 1205.000000)">
                <mask id="mask-2" fill="white">
                    <use xlink:href="#path-1"></use>
                </mask>
                <use id="Mask" fill="#D8D8D8" xlink:href="#path-1"></use>
                <g id="om" mask="url(#mask-2)" fill-rule="nonzero">
                    <polygon id="Path" fill="#EEEEEE" points="7.390625 0 20 0 20 6.5234375 6.42578125 7.484375"></polygon>
                    <polygon id="Path" fill="#6DA544" points="6.3671875 12.5 20 13.4765625 20 20 7.390625 20"></polygon>
                    <polygon id="Path" fill="#D80027" points="0 0 7.390625 0 7.390625 6.5234375 20 6.5234375 20 13.4765625 7.390625 13.4765625 7.390625 20 0 20"></polygon>
                    <polygon id="Path" fill="#EEEEEE" points="6.1171875 4.40234375 5.1953125 3.4765625 4.58203125 4.09375 3.96484375 3.4765625 3.046875 4.40234375 3.6640625 5.015625 3.046875 5.625 3.96875 6.546875 4.5859375 5.93359375 5.19921875 6.546875 6.12109375 5.625 5.5078125 5.01171875"></polygon>
                </g>
            </g>
        </g>
    </g>
</svg>