<?xml version="1.0" encoding="UTF-8"?>
<svg width="16px" height="16px" viewBox="0 0 16 16" version="1.1" xmlns="http://www.w3.org/2000/svg" xmlns:xlink="http://www.w3.org/1999/xlink">
    <title>om_flag_16px</title>
    <defs>
        <circle id="path-1" cx="8" cy="8" r="8"></circle>
    </defs>
    <g id="Design-System" stroke="none" stroke-width="1" fill="none" fill-rule="evenodd">
        <g id="Flags-16x16" transform="translate(-451.000000, -1205.000000)">
            <g id="flag" transform="translate(451.000000, 1205.000000)">
                <mask id="mask-2" fill="white">
                    <use xlink:href="#path-1"></use>
                </mask>
                <use id="Mask" fill="#D8D8D8" xlink:href="#path-1"></use>
                <g id="om" mask="url(#mask-2)" fill-rule="nonzero">
                    <polygon id="Path" fill="#EEEEEE" points="5.9125 0 16 0 16 5.21875 5.140625 5.9875"></polygon>
                    <polygon id="Path" fill="#6DA544" points="5.09375 10 16 10.78125 16 16 5.9125 16"></polygon>
                    <polygon id="Path" fill="#D80027" points="0 0 5.9125 0 5.9125 5.21875 16 5.21875 16 10.78125 5.9125 10.78125 5.9125 16 0 16"></polygon>
                    <polygon id="Path" fill="#EEEEEE" points="4.89375 3.521875 4.15625 2.78125 3.665625 3.275 3.171875 2.78125 2.4375 3.521875 2.93125 4.0125 2.4375 4.5 3.175 5.2375 3.66875 4.746875 4.159375 5.2375 4.896875 4.5 4.40625 4.009375"></polygon>
                </g>
            </g>
        </g>
    </g>
</svg>