<?xml version="1.0" encoding="UTF-8"?>
<svg width="20px" height="20px" viewBox="0 0 20 20" version="1.1" xmlns="http://www.w3.org/2000/svg" xmlns:xlink="http://www.w3.org/1999/xlink">
    <title>otomi_flag_20px</title>
    <defs>
        <circle id="path-1" cx="10" cy="10" r="10"></circle>
    </defs>
    <g id="Design-System" stroke="none" stroke-width="1" fill="none" fill-rule="evenodd">
        <g id="Flags-20x20" transform="translate(-501.000000, -1205.000000)">
            <g id="flag" transform="translate(501.000000, 1205.000000)">
                <mask id="mask-2" fill="white">
                    <use xlink:href="#path-1"></use>
                </mask>
                <use id="Mask" fill="#D8D8D8" xlink:href="#path-1"></use>
                <g id="otomi" mask="url(#mask-2)" fill-rule="nonzero">
                    <polygon id="Path" fill="#FF9811" points="0 6.25 10 5 20 6.25 20 13.75 10 15 0 13.75"></polygon>
                    <polygon id="Path" fill="#EEEEEE" points="0 6.25 10 5 20 6.25 20 7.5 0 7.5"></polygon>
                    <polygon id="Path" fill="#338AF3" points="0 0 20 0 20 6.25 0 6.25"></polygon>
                    <polygon id="Path" fill="#EEEEEE" points="0 13.75 10 15 20 13.75 20 12.5 0 12.5"></polygon>
                    <polygon id="Path" fill="#6DA544" points="0 13.75 20 13.75 20 20 0 20"></polygon>
                    <circle id="Oval" fill="#EEEEEE" cx="10" cy="10" r="6.25"></circle>
                    <circle id="Oval" fill="#338AF3" cx="10" cy="10" r="5"></circle>
                    <polygon id="Path" fill="#FF9811" points="8.0859375 5.4296875 8.0859375 8.0859375 5.4296875 8.0859375 7.34375 10 5.4296875 11.9140625 8.0859375 11.9140625 8.0859375 14.5703125 10 12.65625 11.9140625 14.5703125 11.9140625 11.9140625 14.5703125 11.9140625 12.65625 10 14.5703125 8.0859375 11.9140625 8.0859375 11.9140625 5.4296875 10 7.34375"></polygon>
                </g>
            </g>
        </g>
    </g>
</svg>