<?xml version="1.0" encoding="UTF-8"?>
<svg width="16px" height="16px" viewBox="0 0 16 16" version="1.1" xmlns="http://www.w3.org/2000/svg" xmlns:xlink="http://www.w3.org/1999/xlink">
    <title>otomi_flag_16px</title>
    <defs>
        <circle id="path-1" cx="8" cy="8" r="8"></circle>
    </defs>
    <g id="Design-System" stroke="none" stroke-width="1" fill="none" fill-rule="evenodd">
        <g id="Flags-16x16" transform="translate(-501.000000, -1205.000000)">
            <g id="flag" transform="translate(501.000000, 1205.000000)">
                <mask id="mask-2" fill="white">
                    <use xlink:href="#path-1"></use>
                </mask>
                <use id="Mask" fill="#D8D8D8" xlink:href="#path-1"></use>
                <g id="otomi" mask="url(#mask-2)" fill-rule="nonzero">
                    <polygon id="Path" fill="#FF9811" points="0 5 8 4 16 5 16 11 8 12 0 11"></polygon>
                    <polygon id="Path" fill="#EEEEEE" points="0 5 8 4 16 5 16 6 0 6"></polygon>
                    <polygon id="Path" fill="#338AF3" points="0 0 16 0 16 5 0 5"></polygon>
                    <polygon id="Path" fill="#EEEEEE" points="0 11 8 12 16 11 16 10 0 10"></polygon>
                    <polygon id="Path" fill="#6DA544" points="0 11 16 11 16 16 0 16"></polygon>
                    <circle id="Oval" fill="#EEEEEE" cx="8" cy="8" r="5"></circle>
                    <circle id="Oval" fill="#338AF3" cx="8" cy="8" r="4"></circle>
                    <polygon id="Path" fill="#FF9811" points="6.46875 4.34375 6.46875 6.46875 4.34375 6.46875 5.875 8 4.34375 9.53125 6.46875 9.53125 6.46875 11.65625 8 10.125 9.53125 11.65625 9.53125 9.53125 11.65625 9.53125 10.125 8 11.65625 6.46875 9.53125 6.46875 9.53125 4.34375 8 5.875"></polygon>
                </g>
            </g>
        </g>
    </g>
</svg>