<?xml version="1.0" encoding="UTF-8"?>
<svg width="16px" height="16px" viewBox="0 0 16 16" version="1.1" xmlns="http://www.w3.org/2000/svg" xmlns:xlink="http://www.w3.org/1999/xlink">
    <title>pf_flag_16px</title>
    <defs>
        <circle id="path-1" cx="8" cy="8" r="8"></circle>
    </defs>
    <g id="Design-System" stroke="none" stroke-width="1" fill="none" fill-rule="evenodd">
        <g id="Flags-16x16" transform="translate(-151.000000, -1255.000000)">
            <g id="flag" transform="translate(151.000000, 1255.000000)">
                <mask id="mask-2" fill="white">
                    <use xlink:href="#path-1"></use>
                </mask>
                <use id="Mask" fill="#D8D8D8" xlink:href="#path-1"></use>
                <g id="pf" mask="url(#mask-2)" fill-rule="nonzero">
                    <polygon id="Path" fill="#D80027" points="0 0 16 0 16 4.178125 14.375 8.115625 16 11.828125 16 16 0 16 0 11.828125 1.65625 8.046875 0 4.175"></polygon>
                    <polygon id="Path" fill="#EEEEEE" points="0 4.178125 16 4.178125 16 11.828125 0 11.828125"></polygon>
                    <path d="M10.78125,8.003125 C10.78125,9.540625 9.5375,10.440625 8,10.440625 C6.4625,10.440625 5.21875,9.540625 5.21875,8.003125 C5.21875,6.46708304 6.46395804,5.221875 8,5.221875 C9.53604196,5.221875 10.78125,6.46708304 10.78125,8.003125 L10.78125,8.003125 Z" id="Path" fill="#FFDA44"></path>
                    <path d="M10.78125,8.003125 C10.78125,9.53916696 9.53604196,10.784375 8,10.784375 C6.46395804,10.784375 5.21875,9.53916696 5.21875,8.003125" id="Path" fill="#0052B4"></path>
                    <path d="M6.259375,7.30625 L6.95625,7.30625 L6.95625,8.7 L6.259375,8.7 L6.259375,7.30625 Z M9.040625,7.30625 L9.740625,7.30625 L9.740625,8.7 L9.04375,8.7 L9.040625,7.30625 Z M7.65625,6.2625 L8.34375,6.2625 L8.34375,8.7 L7.65625,8.7 L7.65625,6.2625 Z" id="Shape" fill="#D80027"></path>
                </g>
            </g>
        </g>
    </g>
</svg>