<?xml version="1.0" encoding="UTF-8"?>
<svg width="16px" height="16px" viewBox="0 0 16 16" version="1.1" xmlns="http://www.w3.org/2000/svg" xmlns:xlink="http://www.w3.org/1999/xlink">
    <title>pg_flag_16px</title>
    <defs>
        <circle id="path-1" cx="8" cy="8" r="8"></circle>
    </defs>
    <g id="Design-System" stroke="none" stroke-width="1" fill="none" fill-rule="evenodd">
        <g id="Flags-16x16" transform="translate(-201.000000, -1255.000000)">
            <g id="flag" transform="translate(201.000000, 1255.000000)">
                <mask id="mask-2" fill="white">
                    <use xlink:href="#path-1"></use>
                </mask>
                <use id="Mask" fill="#D8D8D8" xlink:href="#path-1"></use>
                <g id="pg" mask="url(#mask-2)" fill-rule="nonzero">
                    <polygon id="Path" fill="#333333" points="16 16 9.415625 7.08125 0 0 0 16"></polygon>
                    <polygon id="Path" fill="#A2001D" points="0 0 16 16 16 0"></polygon>
                    <path d="M6.09375,10.8125 L6.225,11.215625 L6.65,11.215625 L6.30625,11.465625 L6.4375,11.865625 L6.09375,11.61875 L5.75,11.865625 L5.88125,11.4625 L5.5375,11.2125 L5.9625,11.2125 L6.09375,10.8125 Z M5.0125,6.946875 L5.23125,7.61875 L5.934375,7.61875 L5.365625,8.03125 L5.584375,8.703125 L5.0125,8.2875 L4.44375,8.703125 L4.659375,8.03125 L4.090625,7.61875 L4.79375,7.61875 L5.0125,6.946875 Z M5.0125,11.865625 L5.23125,12.5375 L5.934375,12.5375 L5.365625,12.95 L5.584375,13.625 L5.0125,13.20625 L4.44375,13.625 L4.659375,12.95 L4.090625,12.5375 L4.79375,12.5375 L5.0125,11.865625 Z M7.075,8.703125 L7.29375,9.375 L8,9.375 L7.43125,9.790625 L7.646875,10.459375 L7.078125,10.046875 L6.50625,10.459375 L6.725,9.790625 L6.153125,9.375 L6.85625,9.375 L7.075,8.703125 Z M2.95,8.703125 L3.16875,9.375 L3.871875,9.375 L3.303125,9.790625 L3.521875,10.459375 L2.95,10.046875 L2.378125,10.459375 L2.596875,9.790625 L2.025,9.375 L2.728125,9.375 L2.95,8.703125 Z" id="Shape" fill="#EEEEEE"></path>
                    <path d="M13.446875,5.90625 C13.0918666,5.54724314 12.619087,5.32861036 12.115625,5.290625 L13.621875,4.115625 C13.0432546,3.53715469 12.240776,3.24036315 11.425,3.303125 C11.3300827,2.95276556 11.1459705,2.63299169 10.890625,2.375 L10.290625,3.56875 C10.250206,3.49634915 10.1997008,3.43006115 10.140625,3.371875 C9.91900869,3.15025868 9.59599588,3.06370765 9.29326236,3.14482485 C8.99052884,3.22594205 8.75406705,3.46240384 8.67294985,3.76513736 C8.59183265,4.06787088 8.67838368,4.39088369 8.9,4.6125 C8.95818615,4.67157583 9.02447415,4.72208097 9.096875,4.7625 L7.90625,5.359375 C8.16301001,5.61539315 8.48168439,5.8005688 8.83125,5.896875 C8.76942077,6.71159238 9.06614086,7.51273664 9.64375,8.090625 L10.9625,6.396875 C11.0612198,6.29849655 11.1950057,6.24340824 11.334375,6.24375 C11.471875,6.24375 11.60625,6.296875 11.709375,6.4 C11.806609,6.49922891 11.8605479,6.63295254 11.859375,6.771875 C11.859375,6.9125 11.80625,7.046875 11.70625,7.146875 L12.203125,7.64375 C12.6389585,7.2130612 12.6884039,6.52617136 12.31875,6.0375 C12.557506,6.10042077 12.7753185,6.22550122 12.95,6.4 C13.4983501,6.9490329 13.4983501,7.8384671 12.95,8.3875 L13.446875,8.884375 C13.8457576,8.49092728 14.07031,7.95402529 14.07031,7.39375 C14.07031,6.83347471 13.8457576,6.29657272 13.446875,5.903125 L13.446875,5.90625 Z" id="Path" fill="#FFDA44"></path>
                </g>
            </g>
        </g>
    </g>
</svg>