<?xml version="1.0" encoding="UTF-8"?>
<svg width="20px" height="20px" viewBox="0 0 20 20" version="1.1" xmlns="http://www.w3.org/2000/svg" xmlns:xlink="http://www.w3.org/1999/xlink">
    <title>pg_flag_20px</title>
    <defs>
        <circle id="path-1" cx="10" cy="10" r="10"></circle>
    </defs>
    <g id="Design-System" stroke="none" stroke-width="1" fill="none" fill-rule="evenodd">
        <g id="Flags-20x20" transform="translate(-201.000000, -1255.000000)">
            <g id="flag" transform="translate(201.000000, 1255.000000)">
                <mask id="mask-2" fill="white">
                    <use xlink:href="#path-1"></use>
                </mask>
                <use id="Mask" fill="#D8D8D8" xlink:href="#path-1"></use>
                <g id="pg" mask="url(#mask-2)" fill-rule="nonzero">
                    <polygon id="Path" fill="#333333" points="20 20 11.7695312 8.8515625 0 0 0 20"></polygon>
                    <polygon id="Path" fill="#A2001D" points="0 0 20 20 20 0"></polygon>
                    <path d="M7.6171875,13.515625 L7.78125,14.0195312 L8.3125,14.0195312 L7.8828125,14.3320312 L8.046875,14.8320312 L7.6171875,14.5234375 L7.1875,14.8320312 L7.3515625,14.328125 L6.921875,14.015625 L7.453125,14.015625 L7.6171875,13.515625 Z M6.265625,8.68359375 L6.5390625,9.5234375 L7.41796875,9.5234375 L6.70703125,10.0390625 L6.98046875,10.8789062 L6.265625,10.359375 L5.5546875,10.8789062 L5.82421875,10.0390625 L5.11328125,9.5234375 L5.9921875,9.5234375 L6.265625,8.68359375 Z M6.265625,14.8320313 L6.5390625,15.671875 L7.41796875,15.671875 L6.70703125,16.1875 L6.98046875,17.03125 L6.265625,16.5078125 L5.5546875,17.03125 L5.82421875,16.1875 L5.11328125,15.671875 L5.9921875,15.671875 L6.265625,14.8320313 Z M8.84375,10.8789063 L9.1171875,11.71875 L10,11.71875 L9.2890625,12.2382813 L9.55859375,13.0742188 L8.84765625,12.5585938 L8.1328125,13.0742188 L8.40625,12.2382813 L7.69140625,11.71875 L8.5703125,11.71875 L8.84375,10.8789063 Z M3.6875,10.8789063 L3.9609375,11.71875 L4.83984375,11.71875 L4.12890625,12.2382813 L4.40234375,13.0742188 L3.6875,12.5585938 L2.97265625,13.0742188 L3.24609375,12.2382813 L2.53125,11.71875 L3.41015625,11.71875 L3.6875,10.8789063 Z" id="Shape" fill="#EEEEEE"></path>
                    <path d="M16.8085938,7.3828125 C16.3648332,6.93405393 15.7738588,6.66076295 15.1445312,6.61328125 L17.0273438,5.14453125 C16.3040683,4.42144336 15.30097,4.05045394 14.28125,4.12890625 C14.1626034,3.69095696 13.9324631,3.29123962 13.6132812,2.96875 L12.8632812,4.4609375 C12.8127575,4.37043643 12.749626,4.28757643 12.6757812,4.21484375 C12.3987609,3.93782335 11.9949948,3.82963457 11.6165779,3.93103107 C11.2381611,4.03242756 10.9425838,4.3280048 10.8411873,4.7064217 C10.7397908,5.08483859 10.8479796,5.48860461 11.125,5.765625 C11.1977327,5.83946979 11.2805927,5.90260122 11.3710938,5.953125 L9.8828125,6.69921875 C10.2037625,7.01924144 10.6021055,7.250711 11.0390625,7.37109375 C10.961776,8.38949048 11.3326761,9.3909208 12.0546875,10.1132812 L13.703125,7.99609375 C13.8265247,7.87312069 13.9937571,7.80426029 14.1679687,7.8046875 C14.3398437,7.8046875 14.5078125,7.87109375 14.6367187,8 C14.7582612,8.12403614 14.8256849,8.29119068 14.8242187,8.46484375 C14.8242187,8.640625 14.7578125,8.80859375 14.6328125,8.93359375 L15.2539062,9.5546875 C15.7986982,9.01632649 15.8605049,8.15771421 15.3984375,7.546875 C15.6968825,7.62552596 15.9691481,7.78187652 16.1875,8 C16.8729376,8.68629113 16.8729376,9.79808387 16.1875,10.484375 L16.8085937,11.1054688 C17.3071969,10.6136591 17.5878875,9.94253161 17.5878875,9.2421875 C17.5878875,8.54184339 17.3071969,7.8707159 16.8085937,7.37890625 L16.8085938,7.3828125 Z" id="Path" fill="#FFDA44"></path>
                </g>
            </g>
        </g>
    </g>
</svg>