<?xml version="1.0" encoding="UTF-8"?>
<svg width="20px" height="20px" viewBox="0 0 20 20" version="1.1" xmlns="http://www.w3.org/2000/svg" xmlns:xlink="http://www.w3.org/1999/xlink">
    <title>ph_flag_20px</title>
    <defs>
        <circle id="path-1" cx="10" cy="10" r="10"></circle>
    </defs>
    <g id="Design-System" stroke="none" stroke-width="1" fill="none" fill-rule="evenodd">
        <g id="Flags-20x20" transform="translate(-251.000000, -1255.000000)">
            <g id="flag" transform="translate(251.000000, 1255.000000)">
                <mask id="mask-2" fill="white">
                    <use xlink:href="#path-1"></use>
                </mask>
                <use id="Mask" fill="#D8D8D8" xlink:href="#path-1"></use>
                <g id="ph" mask="url(#mask-2)" fill-rule="nonzero">
                    <polygon id="Path" fill="#0052B4" points="0 0 20 0 20 10 9.6484375 11.765625"></polygon>
                    <polygon id="Path" fill="#D80027" points="8.203125 10 20 10 20 20 0 20"></polygon>
                    <polygon id="Path" fill="#EEEEEE" points="0 0 0 20 10 10"></polygon>
                    <path d="M6.84765625,10 L5.625,9.42578125 L6.27734375,8.2421875 L4.94921875,8.49609375 L4.78125,7.15625 L3.859375,8.140625 L2.9296875,7.15625 L2.76171875,8.49609375 L1.43359375,8.2421875 L2.0859375,9.42578125 L0.87109375,10 L2.08984375,10.5742188 L1.4453125,11.7578125 L2.7734375,11.5039062 L2.9375,12.84375 L3.86328125,11.859375 L4.78515625,12.84375 L4.953125,11.5039062 L6.28125,11.7578125 L5.62890625,10.5742188 L6.84765625,10 Z M2.66796875,3.9140625 L3.07421875,4.48046875 L3.73828125,4.26953125 L3.32421875,4.83203125 L3.73046875,5.3984375 L3.06640625,5.1796875 L2.65625,5.7421875 L2.6640625,5.04296875 L2,4.82421875 L2.6640625,4.61328125 L2.66796875,3.9140625 Z M2.66796875,14.2578125 L3.07421875,14.828125 L3.73828125,14.6171875 L3.32421875,15.1757813 L3.73046875,15.7460938 L3.06640625,15.5234375 L2.65625,16.0859375 L2.6640625,15.3867188 L2,15.1679688 L2.6640625,14.9570313 L2.66796875,14.2578125 Z M8.46484375,9.0859375 L8.05859375,9.6484375 L7.39453125,9.4375 L7.8046875,10 L7.3984375,10.5703125 L8.0625,10.3476563 L8.4765625,10.9101563 L8.47265625,10.2109375 L9.13671875,9.9921875 L8.46875,9.78125 L8.46484375,9.0859375 Z" id="Shape" fill="#FFDA44"></path>
                </g>
            </g>
        </g>
    </g>
</svg>