<?xml version="1.0" encoding="UTF-8"?>
<svg width="20px" height="20px" viewBox="0 0 20 20" version="1.1" xmlns="http://www.w3.org/2000/svg" xmlns:xlink="http://www.w3.org/1999/xlink">
    <title>pk_jk_flag_20px</title>
    <defs>
        <circle id="path-1" cx="10" cy="10" r="10"></circle>
    </defs>
    <g id="Design-System" stroke="none" stroke-width="1" fill="none" fill-rule="evenodd">
        <g id="Flags-20x20" transform="translate(-351.000000, -1255.000000)">
            <g id="flag" transform="translate(351.000000, 1255.000000)">
                <mask id="mask-2" fill="white">
                    <use xlink:href="#path-1"></use>
                </mask>
                <use id="Mask" fill="#D8D8D8" xlink:href="#path-1"></use>
                <g id="pk-jk" mask="url(#mask-2)" fill-rule="nonzero">
                    <polygon id="Path" fill="#FF9811" points="0 0 8.75 0 10 3.4375 8.75 6.875 5 8.125 0 6.875"></polygon>
                    <polygon id="Path" fill="#EEEEEE" points="0 8.75 10 7.5 20 8.75 20 10.625 18.75 11.5625 20 12.5 20 14.375 18.75 15.3125 20 16.25 20 18.125 10 19.375 0 18.125 0 16.25 1.25 15.3125 0 14.375 0 12.5 1.25 11.5625 0 10.625"></polygon>
                    <path d="M8.75,0 L8.75,6.875 L0,6.875 L0,8.75 L20,8.75 L20,0 L8.75,0 Z M0,10.625 L0,12.5 L20,12.5 L20,10.625 L0,10.625 Z M0,14.375 L0,16.25 L20,16.25 L20,14.375 L0,14.375 Z M0,18.125 L0,20 L20,20 L20,18.125 L0,18.125 Z" id="Shape" fill="#496E2D"></path>
                    <circle id="Oval" fill="#EEEEEE" cx="13.890625" cy="4.3046875" r="3.14453125"></circle>
                    <circle id="Oval" fill="#496E2D" cx="14.6953125" cy="3.58984375" r="2.8828125"></circle>
                    <polygon id="Path" fill="#EEEEEE" points="14.453125 2.96875 16.2890625 2.1875 15.234375 3.90625 15.078125 1.953125 16.40625 3.4375"></polygon>
                </g>
            </g>
        </g>
    </g>
</svg>