<?xml version="1.0" encoding="UTF-8"?>
<svg width="20px" height="20px" viewBox="0 0 20 20" version="1.1" xmlns="http://www.w3.org/2000/svg" xmlns:xlink="http://www.w3.org/1999/xlink">
    <title>pk_sd_flag_20px</title>
    <defs>
        <circle id="path-1" cx="10" cy="10" r="10"></circle>
    </defs>
    <g id="Design-System" stroke="none" stroke-width="1" fill="none" fill-rule="evenodd">
        <g id="Flags-20x20" transform="translate(-401.000000, -1255.000000)">
            <g id="flag" transform="translate(401.000000, 1255.000000)">
                <mask id="mask-2" fill="white">
                    <use xlink:href="#path-1"></use>
                </mask>
                <use id="Mask" fill="#D8D8D8" xlink:href="#path-1"></use>
                <g id="pk-sd" mask="url(#mask-2)" fill-rule="nonzero">
                    <polygon id="Path" fill="#496E2D" points="0 0 20 0 20 20 0 20"></polygon>
                    <ellipse id="Oval" fill="#EEEEEE" cx="10" cy="11.09375" rx="5.46875" ry="5.15625"></ellipse>
                    <ellipse id="Oval" fill="#496E2D" cx="10" cy="9.7265625" rx="4.765625" ry="4.3359375"></ellipse>
                    <path d="M10.03125,5.84375 L9.96875,5.84375 C9.95703125,6.17578125 9.78515625,6.4296875 9.52734375,6.66015625 C9.26953125,6.890625 8.92578125,7.09375 8.5859375,7.32421875 C8.22795027,7.55040081 7.9109487,7.83570222 7.6484375,8.16796875 C7.36080468,8.55723878 7.21223731,9.03182898 7.2265625,9.515625 C7.2265625,10.078125 7.40234375,10.5039063 7.66015625,10.84375 C7.92768302,11.1708812 8.24702032,11.4519508 8.60546875,11.6757812 C8.94921875,11.9101562 9.2890625,12.1132812 9.54296875,12.3476562 C9.72726025,12.5025528 9.86290198,12.7073718 9.93359375,12.9375 C9.94921875,13.0195313 9.96484375,13.1015625 9.97265625,13.1914063 L10.03125,13.1914063 C10.0351563,13.1015625 10.0507812,13.0195313 10.0664062,12.9414063 C10.1364209,12.7098622 10.272115,12.5036072 10.4570312,12.3476563 C10.7109375,12.1132813 11.0507812,11.9101563 11.3945312,11.6757813 C11.7526812,11.4531293 12.0720009,11.1733946 12.3398438,10.8476563 C12.5976563,10.5039063 12.7695312,10.078125 12.7695312,9.51953125 C12.7855612,9.03490729 12.6383693,8.55894087 12.3515625,8.16796875 C12.0886114,7.83720119 11.7716477,7.55325449 11.4140625,7.328125 C11.0703125,7.09375 10.7304688,6.890625 10.4726562,6.66015625 C10.2148438,6.42578125 10.0429688,6.17578125 10.03125,5.83984375 L10.03125,5.84375 Z" id="Path" fill="#EEEEEE"></path>
                    <path d="M10.2578125,4.6015625 L11.390625,4.6015625 L10.4921875,5.19921875 L10.84375,6.11328125 L9.97265625,5.5390625 L9.96875,5.5390625 L9.109375,6.109375 L9.43359375,5.171875 L8.60546875,4.6015625 L9.62890625,4.6015625 L9.92578125,3.734375 L10.2578125,4.6015625 Z M12.46875,5.73046875 C12.390625,5.90234375 12.3476562,6.10546875 12.3515625,6.26953125 C12.25,6.2109375 11.9453125,6.07421875 11.8515625,6.0546875 C11.8554687,6.28125 11.9257812,6.5234375 12.0351562,6.6796875 C11.8007812,6.65234375 11.5976562,6.69140625 11.421875,6.7578125 C11.796875,7.265625 12.21875,7.3359375 12.75,7.1796875 C12.7439563,7.34869035 12.7802091,7.51652742 12.8554687,7.66796875 C12.6543142,7.61009091 12.4414879,7.6060499 12.2382812,7.65625 C12.5039062,8.1484375 12.9375,8.37890625 13.4492187,8.26953125 C13.3693962,8.42608721 13.3381133,8.60290366 13.359375,8.77734375 C13.1933569,8.64944872 12.9967214,8.5672928 12.7890625,8.5390625 C12.9414062,9.1640625 13.2695312,9.3984375 13.703125,9.578125 C13.5625,9.63671875 13.3984375,9.98046875 13.3867187,10.0234375 C13.2899683,9.83701853 13.1458061,9.67938329 12.96875,9.56640625 C12.8046875,10.0742188 12.9101562,10.5546875 13.3203125,10.8398438 C13.2773437,10.796875 13.0078125,11.0234375 12.9570312,11.0898438 C12.9383819,10.882028 12.8656592,10.6827138 12.7460937,10.5117188 C12.40625,10.9101562 12.3164062,11.3867188 12.5703125,11.8007812 C12.4431607,11.8349268 12.3237915,11.8932851 12.21875,11.9726562 C12.2388788,11.7641409 12.2038548,11.5539972 12.1171875,11.3632812 C11.7460937,11.6523438 11.5820312,12.2382812 11.6992187,12.5898438 C11.5507812,12.5898438 11.40625,12.6171875 11.2734375,12.6757812 C11.3428006,12.4776983 11.358964,12.2648803 11.3203125,12.0585938 C10.7929687,12.3125 10.5585937,12.7382812 10.6484375,13.265625 L10.2695312,13.421875 L10.453125,13.5078125 L10.703125,13.3671875 C11.234375,13.6210938 11.7421875,13.6210938 12.125,13.2890625 C11.96875,13.1796875 11.78125,13.09375 11.6171875,13.0703125 C11.7142978,12.9884767 11.7951328,12.8890894 11.8554687,12.7773437 C12.3476562,13.0234375 12.8828125,12.828125 13.1835937,12.3789062 C13.0123679,12.3055459 12.826682,12.2721491 12.640625,12.28125 C12.7130482,12.1836723 12.7673,12.0738454 12.8007812,11.9570312 C13.328125,12.015625 13.8164062,11.7890625 13.984375,11.3085937 C13.796875,11.2695312 13.5898437,11.2695312 13.4335937,11.3125 C13.46875,11.265625 13.53125,10.9335937 13.5351562,10.890625 C14.0898437,10.71875 14.4023437,10.3984375 14.4179687,9.828125 C14.2304687,9.86328125 14.0390625,9.9453125 13.9101562,10.0429687 C13.8970788,9.88740493 13.870945,9.73321604 13.8320312,9.58203125 C14.2697963,9.258426 14.4281743,8.6766292 14.2148437,8.17578125 C14.0616116,8.28092861 13.9346362,8.41993329 13.84375,8.58203125 C13.859375,8.54296875 13.6757812,8.24609375 13.578125,8.1953125 C13.8789062,7.7265625 13.7851562,7.1484375 13.421875,6.7890625 C13.3203125,6.9453125 13.2460937,7.140625 13.2304687,7.3046875 C13.1757812,7.1875 12.9296875,7.078125 12.8398437,7.04296875 C12.9726562,6.48046875 12.9453125,6.08203125 12.46875,5.73046875 L12.46875,5.73046875 Z M7.53125,5.73046875 C7.609375,5.90234375 7.65234375,6.10546875 7.6484375,6.26953125 C7.75,6.2109375 8.05859375,6.07421875 8.1484375,6.0546875 C8.14453125,6.28125 8.07421875,6.5234375 7.96484375,6.6796875 C8.19921875,6.65234375 8.40234375,6.69140625 8.578125,6.7578125 C8.203125,7.265625 7.78125,7.3359375 7.25,7.1796875 C7.25604368,7.34869035 7.21979087,7.51652742 7.14453125,7.66796875 C7.34568575,7.61009091 7.55851214,7.6060499 7.76171875,7.65625 C7.49609375,8.1484375 7.0625,8.37890625 6.55078125,8.26953125 C6.63060379,8.42608721 6.6618867,8.60290366 6.640625,8.77734375 C6.80664313,8.64944872 7.00327863,8.5672928 7.2109375,8.5390625 C7.05859375,9.1640625 6.73046875,9.3984375 6.296875,9.578125 C6.4375,9.63671875 6.6015625,9.98046875 6.61328125,10.0234375 C6.71003172,9.83701853 6.85419386,9.67938329 7.03125,9.56640625 C7.1953125,10.0742188 7.08984375,10.5546875 6.6796875,10.8398438 C6.72265625,10.796875 6.9921875,11.0234375 7.04296875,11.0898438 C7.06161807,10.882028 7.13434082,10.6827138 7.25390625,10.5117188 C7.59375,10.9101562 7.68359375,11.3867188 7.4296875,11.8007812 C7.55683929,11.8349268 7.6762085,11.8932851 7.78125,11.9726562 C7.76112123,11.7641409 7.79614519,11.5539972 7.8828125,11.3632813 C8.25390625,11.6523438 8.41796875,12.2382813 8.30078125,12.5898438 C8.44921875,12.5898438 8.59375,12.6171875 8.7265625,12.6757812 C8.65701855,12.4777362 8.6408515,12.2648701 8.6796875,12.0585938 C9.20703125,12.3125 9.44140625,12.7382812 9.3515625,13.265625 L9.73046875,13.421875 L9.546875,13.5078125 L9.296875,13.3671875 C8.765625,13.6210938 8.2578125,13.6210938 7.875,13.2890625 C8.03125,13.1796875 8.21875,13.09375 8.3828125,13.0703125 C8.28570218,12.9884767 8.2048672,12.8890894 8.14453125,12.7773437 C7.65234375,13.0234375 7.1171875,12.828125 6.81640625,12.3789062 C6.9921875,12.3007812 7.1953125,12.265625 7.359375,12.28125 C7.28695183,12.1836723 7.23269998,12.0738454 7.19921875,11.9570312 C6.671875,12.015625 6.18359375,11.7890625 6.015625,11.3085937 C6.203125,11.2695312 6.41015625,11.2695312 6.56640625,11.3125 C6.53125,11.265625 6.46875,10.9335937 6.46484375,10.890625 C5.91015625,10.71875 5.59765625,10.3984375 5.58203125,9.828125 C5.76953125,9.86328125 5.9609375,9.9453125 6.08984375,10.0429687 C6.09765625,9.9375 6.14453125,9.64453125 6.16796875,9.58203125 C5.7302037,9.258426 5.57182568,8.6766292 5.78515625,8.17578125 C5.93838837,8.28092861 6.06536379,8.41993329 6.15625,8.58203125 C6.140625,8.54296875 6.32421875,8.24609375 6.421875,8.1953125 C6.13422798,7.74874068 6.1994658,7.16160029 6.578125,6.7890625 C6.6796875,6.9453125 6.75390625,7.140625 6.76953125,7.3046875 C6.82421875,7.1875 7.07421875,7.078125 7.16015625,7.04296875 C7.02734375,6.48046875 7.0546875,6.08203125 7.53125,5.73046875 L7.53125,5.73046875 Z" id="Shape" fill="#EEEEEE"></path>
                </g>
            </g>
        </g>
    </g>
</svg>