<?xml version="1.0" encoding="UTF-8"?>
<svg width="16px" height="16px" viewBox="0 0 16 16" version="1.1" xmlns="http://www.w3.org/2000/svg" xmlns:xlink="http://www.w3.org/1999/xlink">
    <title>pk_sd_flag_16px</title>
    <defs>
        <circle id="path-1" cx="8" cy="8" r="8"></circle>
    </defs>
    <g id="Design-System" stroke="none" stroke-width="1" fill="none" fill-rule="evenodd">
        <g id="Flags-16x16" transform="translate(-401.000000, -1255.000000)">
            <g id="flag" transform="translate(401.000000, 1255.000000)">
                <mask id="mask-2" fill="white">
                    <use xlink:href="#path-1"></use>
                </mask>
                <use id="Mask" fill="#D8D8D8" xlink:href="#path-1"></use>
                <g id="pk-sd" mask="url(#mask-2)" fill-rule="nonzero">
                    <polygon id="Path" fill="#496E2D" points="0 0 16 0 16 16 0 16"></polygon>
                    <ellipse id="Oval" fill="#EEEEEE" cx="8" cy="8.875" rx="4.375" ry="4.125"></ellipse>
                    <ellipse id="Oval" fill="#496E2D" cx="8" cy="7.78125" rx="3.8125" ry="3.46875"></ellipse>
                    <path d="M8.025,4.675 L7.975,4.675 C7.965625,4.940625 7.828125,5.14375 7.621875,5.328125 C7.415625,5.5125 7.140625,5.675 6.86875,5.859375 C6.58236021,6.04032065 6.32875896,6.26856177 6.11875,6.534375 C5.88864374,6.84579103 5.76978985,7.22546318 5.78125,7.6125 C5.78125,8.0625 5.921875,8.403125 6.128125,8.675 C6.34214642,8.93670492 6.59761626,9.16156061 6.884375,9.340625 C7.159375,9.528125 7.43125,9.690625 7.634375,9.878125 C7.7818082,10.0020422 7.89032159,10.1658975 7.946875,10.35 C7.959375,10.415625 7.971875,10.48125 7.978125,10.553125 L8.025,10.553125 C8.028125,10.48125 8.040625,10.415625 8.053125,10.353125 C8.10913672,10.1678897 8.21769199,10.0028857 8.365625,9.878125 C8.56875,9.690625 8.840625,9.528125 9.115625,9.340625 C9.40214493,9.16250342 9.65760074,8.93871569 9.871875,8.678125 C10.078125,8.403125 10.215625,8.0625 10.215625,7.615625 C10.228449,7.22792583 10.1106955,6.84715269 9.88125,6.534375 C9.67088915,6.26976095 9.41731814,6.04260359 9.13125,5.8625 C8.85625,5.675 8.584375,5.5125 8.378125,5.328125 C8.171875,5.140625 8.034375,4.940625 8.025,4.671875 L8.025,4.675 Z" id="Path" fill="#EEEEEE"></path>
                    <path d="M8.20625,3.68125 L9.1125,3.68125 L8.39375,4.159375 L8.675,4.890625 L7.978125,4.43125 L7.975,4.43125 L7.2875,4.8875 L7.546875,4.1375 L6.884375,3.68125 L7.703125,3.68125 L7.940625,2.9875 L8.20625,3.68125 Z M9.975,4.584375 C9.9125,4.721875 9.878125,4.884375 9.88125,5.015625 C9.8,4.96875 9.55625,4.859375 9.48125,4.84375 C9.484375,5.025 9.540625,5.21875 9.628125,5.34375 C9.440625,5.321875 9.278125,5.353125 9.1375,5.40625 C9.4375,5.8125 9.775,5.86875 10.2,5.74375 C10.1951651,5.87895228 10.2241673,6.01322193 10.284375,6.134375 C10.1234514,6.08807273 9.95319029,6.08483992 9.790625,6.125 C10.003125,6.51875 10.35,6.703125 10.759375,6.615625 C10.695517,6.74086977 10.6704906,6.88232293 10.6875,7.021875 C10.5546855,6.91955898 10.3973771,6.85383424 10.23125,6.83125 C10.353125,7.33125 10.615625,7.51875 10.9625,7.6625 C10.85,7.709375 10.71875,7.984375 10.709375,8.01875 C10.6319746,7.86961482 10.5166449,7.74350663 10.375,7.653125 C10.24375,8.059375 10.328125,8.44375 10.65625,8.671875 C10.621875,8.6375 10.40625,8.81875 10.365625,8.871875 C10.3507055,8.70562239 10.2925273,8.54617102 10.196875,8.409375 C9.925,8.728125 9.853125,9.109375 10.05625,9.440625 C9.95452857,9.46794145 9.8590332,9.51462807 9.775,9.578125 C9.79110301,9.41131275 9.76308385,9.24319778 9.69375,9.090625 C9.396875,9.321875 9.265625,9.790625 9.359375,10.071875 C9.240625,10.071875 9.125,10.09375 9.01875,10.140625 C9.07424045,9.98215868 9.08717117,9.81190423 9.05625,9.646875 C8.634375,9.85 8.446875,10.190625 8.51875,10.6125 L8.215625,10.7375 L8.3625,10.80625 L8.5625,10.69375 C8.9875,10.896875 9.39375,10.896875 9.7,10.63125 C9.575,10.54375 9.425,10.475 9.29375,10.45625 C9.37143826,10.3907813 9.43610624,10.3112715 9.484375,10.221875 C9.878125,10.41875 10.30625,10.2625 10.546875,9.903125 C10.4098943,9.84443668 10.2613456,9.81771929 10.1125,9.825 C10.1704385,9.74693782 10.21384,9.65907629 10.240625,9.565625 C10.6625,9.6125 11.053125,9.43125 11.1875,9.046875 C11.0375,9.015625 10.871875,9.015625 10.746875,9.05 C10.775,9.0125 10.825,8.746875 10.828125,8.7125 C11.271875,8.575 11.521875,8.31875 11.534375,7.8625 C11.384375,7.890625 11.23125,7.95625 11.128125,8.034375 C11.117663,7.90992395 11.096756,7.78657283 11.065625,7.665625 C11.415837,7.4067408 11.5425395,6.94130336 11.371875,6.540625 C11.2492893,6.62474289 11.147709,6.73594663 11.075,6.865625 C11.0875,6.834375 10.940625,6.596875 10.8625,6.55625 C11.103125,6.18125 11.028125,5.71875 10.7375,5.43125 C10.65625,5.55625 10.596875,5.7125 10.584375,5.84375 C10.540625,5.75 10.34375,5.6625 10.271875,5.634375 C10.378125,5.184375 10.35625,4.865625 9.975,4.584375 L9.975,4.584375 Z M6.025,4.584375 C6.0875,4.721875 6.121875,4.884375 6.11875,5.015625 C6.2,4.96875 6.446875,4.859375 6.51875,4.84375 C6.515625,5.025 6.459375,5.21875 6.371875,5.34375 C6.559375,5.321875 6.721875,5.353125 6.8625,5.40625 C6.5625,5.8125 6.225,5.86875 5.8,5.74375 C5.80483495,5.87895228 5.7758327,6.01322193 5.715625,6.134375 C5.8765486,6.08807273 6.04680971,6.08483992 6.209375,6.125 C5.996875,6.51875 5.65,6.703125 5.240625,6.615625 C5.30448303,6.74086977 5.32950936,6.88232293 5.3125,7.021875 C5.44531451,6.91955898 5.6026229,6.85383424 5.76875,6.83125 C5.646875,7.33125 5.384375,7.51875 5.0375,7.6625 C5.15,7.709375 5.28125,7.984375 5.290625,8.01875 C5.36802538,7.86961482 5.48335509,7.74350663 5.625,7.653125 C5.75625,8.059375 5.671875,8.44375 5.34375,8.671875 C5.378125,8.6375 5.59375,8.81875 5.634375,8.871875 C5.64929445,8.70562239 5.70747266,8.54617102 5.803125,8.409375 C6.075,8.728125 6.146875,9.109375 5.94375,9.440625 C6.04547143,9.46794145 6.1409668,9.51462807 6.225,9.578125 C6.20889699,9.41131275 6.23691615,9.24319778 6.30625,9.090625 C6.603125,9.321875 6.734375,9.790625 6.640625,10.071875 C6.759375,10.071875 6.875,10.09375 6.98125,10.140625 C6.92561484,9.982189 6.9126812,9.81189611 6.94375,9.646875 C7.365625,9.85 7.553125,10.190625 7.48125,10.6125 L7.784375,10.7375 L7.6375,10.80625 L7.4375,10.69375 C7.0125,10.896875 6.60625,10.896875 6.3,10.63125 C6.425,10.54375 6.575,10.475 6.70625,10.45625 C6.62856174,10.3907813 6.56389376,10.3112715 6.515625,10.221875 C6.121875,10.41875 5.69375,10.2625 5.453125,9.903125 C5.59375,9.840625 5.75625,9.8125 5.8875,9.825 C5.82956146,9.74693782 5.78615999,9.65907629 5.759375,9.565625 C5.3375,9.6125 4.946875,9.43125 4.8125,9.046875 C4.9625,9.015625 5.128125,9.015625 5.253125,9.05 C5.225,9.0125 5.175,8.746875 5.171875,8.7125 C4.728125,8.575 4.478125,8.31875 4.465625,7.8625 C4.615625,7.890625 4.76875,7.95625 4.871875,8.034375 C4.878125,7.95 4.915625,7.715625 4.934375,7.665625 C4.58416296,7.4067408 4.45746055,6.94130336 4.628125,6.540625 C4.75071069,6.62474289 4.85229104,6.73594663 4.925,6.865625 C4.9125,6.834375 5.059375,6.596875 5.1375,6.55625 C4.90738239,6.19899255 4.95957264,5.72928023 5.2625,5.43125 C5.34375,5.55625 5.403125,5.7125 5.415625,5.84375 C5.459375,5.75 5.659375,5.6625 5.728125,5.634375 C5.621875,5.184375 5.64375,4.865625 6.025,4.584375 L6.025,4.584375 Z" id="Shape" fill="#EEEEEE"></path>
                </g>
            </g>
        </g>
    </g>
</svg>