<?xml version="1.0" encoding="UTF-8"?>
<svg width="20px" height="20px" viewBox="0 0 20 20" version="1.1" xmlns="http://www.w3.org/2000/svg" xmlns:xlink="http://www.w3.org/1999/xlink">
    <title>pm_flag_20px</title>
    <defs>
        <circle id="path-1" cx="10" cy="10" r="10"></circle>
    </defs>
    <g id="Design-System" stroke="none" stroke-width="1" fill="none" fill-rule="evenodd">
        <g id="Flags-20x20" transform="translate(-501.000000, -1255.000000)">
            <g id="flag" transform="translate(501.000000, 1255.000000)">
                <mask id="mask-2" fill="white">
                    <use xlink:href="#path-1"></use>
                </mask>
                <use id="Mask" fill="#D8D8D8" xlink:href="#path-1"></use>
                <g id="pm" mask="url(#mask-2)" fill-rule="nonzero">
                    <polygon id="Path" fill="#338AF3" points="6.25 0 20 0 20 20 6.25 20 5 10"></polygon>
                    <polygon id="Path" fill="#EEEEEE" points="0 6.25 3.125 5 6.25 6.25 6.25 13.75 3.125 15 0 13.75"></polygon>
                    <rect id="Rectangle" fill="#D80027" x="0" y="0" width="6.25" height="6.25"></rect>
                    <polygon id="Path" fill="#6DA544" points="6.25 0.8203125 6.25 0 5.46875 0 0 5.4296875 0 6.25 0.78125 6.25"></polygon>
                    <polygon id="Path" fill="#6DA544" points="0 0.8203125 0 0 0.78125 0 6.25 5.4296875 6.25 6.25 5.46875 6.25"></polygon>
                    <polygon id="Path" fill="#EEEEEE" points="0 2.5 6.25 2.5 6.25 3.75 0 3.75"></polygon>
                    <polygon id="Path" fill="#EEEEEE" points="2.5 0 3.75 0 3.75 6.25 2.5 6.25"></polygon>
                    <polygon id="Path" fill="#D80027" points="0 20 6.25 20 6.25 13.75 0 13.75"></polygon>
                    <path d="M13.28125,5.703125 L13.28125,11.875 L11.71875,11.875 C10.78125,11.875 10.78125,10.625 10.78125,10.625 L7.03125,10.625 L7.03125,11.875 L7.8125,11.875 L13.5546875,13.125 L19.21875,11.875 L19.21875,10.9375 L16.09375,10.9375 C16.09375,10.9375 16.09375,11.875 15.15625,11.875 L13.90625,11.875 L13.90625,5.703125 L13.28125,5.703125 Z" id="Path" fill="#FFDA44"></path>
                    <path d="M13.90625,5.390625 L13.90625,6.640625 C12.6953125,6.2109375 11.5234375,6.953125 10.78125,5.390625 C12.0703125,6.2890625 12.7734375,5 13.90625,5.390625 Z M11.09375,7.1875 C11.09375,7.1875 10.15625,8.125 10.46875,10 L7.65625,10 C7.65625,10 8.90625,7.8125 11.09375,7.1875 Z M11.71875,11.25 L15.4296875,11.25 C14.21875,9.375 15.4296875,7.1875 15.4296875,7.1875 L11.71875,7.1875 C11.71875,7.1875 10.15625,9.375 11.71875,11.25 Z M15.6640625,10.3125 C15.4280596,9.4858902 15.483222,8.60329146 15.8203125,7.8125 L18.28125,7.8125 C18.28125,7.8125 17.65625,9.0625 18.2421875,10.3125 L15.6640625,10.3125 Z M11.71875,11.875 L19.21875,11.875 C19.21875,11.875 18.90625,11.875 18.59375,12.8125 C18.28125,13.75 17.96875,14.6875 16.40625,14.6875 L10.78125,14.6875 C9.2578125,14.6875 8.75,12.734375 7.8125,11.875 L11.71875,11.875 Z" id="Shape" fill="#FFDA44"></path>
                    <rect id="Rectangle" fill="#FFDA44" x="1.25" y="15" width="3.75" height="1.25" rx="0.625"></rect>
                    <rect id="Rectangle" fill="#FFDA44" x="1.25" y="17.5" width="3.75" height="1.25" rx="0.625"></rect>
                </g>
            </g>
        </g>
    </g>
</svg>