<?xml version="1.0" encoding="UTF-8"?>
<svg width="20px" height="20px" viewBox="0 0 20 20" version="1.1" xmlns="http://www.w3.org/2000/svg" xmlns:xlink="http://www.w3.org/1999/xlink">
    <title>pn_flag_20px</title>
    <defs>
        <circle id="path-1" cx="10" cy="10" r="10"></circle>
    </defs>
    <g id="Design-System" stroke="none" stroke-width="1" fill="none" fill-rule="evenodd">
        <g id="Flags-20x20" transform="translate(-51.000000, -1305.000000)">
            <g id="flag" transform="translate(51.000000, 1305.000000)">
                <mask id="mask-2" fill="white">
                    <use xlink:href="#path-1"></use>
                </mask>
                <use id="Mask" fill="#D8D8D8" xlink:href="#path-1"></use>
                <g id="pn" mask="url(#mask-2)" fill-rule="nonzero">
                    <polygon id="Path" fill="#0052B4" points="10 0 20 0 20 20 0 20 0 10"></polygon>
                    <polygon id="Path" fill="#ACABB1" points="15.6640625 6.09375 14.3359375 6.5234375 13.046875 6.09375 12.6171875 5 13.046875 3.90625 15.6640625 3.90625 15.234375 5"></polygon>
                    <path d="M11.2890625,6.09375 L11.2890625,10.859375 C11.2890625,13.203125 14.3359375,13.90625 14.3359375,13.90625 C14.3359375,13.90625 17.3828125,13.203125 17.3828125,10.859375 L17.3828125,6.09375 L11.2890625,6.09375 Z" id="Path" fill="#338AF3"></path>
                    <path d="M11.5625,11.9921875 C12.34375,13.4375 14.3359375,13.90625 14.3359375,13.90625 C14.3359375,13.90625 16.3671875,13.4375 17.109375,11.9921875 L14.3359375,7.3828125 L11.5625,11.9921875 Z" id="Path" fill="#6DA544"></path>
                    <path d="M17.3828579,10.8203125 L14.3359375,6.09375 L11.2890171,10.8203125 L11.2890171,10.859375 C11.2866488,11.2536063 11.3805117,11.642467 11.5625,11.9921875 L14.3359375,7.6953125 L17.109375,11.9921875 C17.2913633,11.642467 17.3852262,11.2536063 17.3828579,10.859375 L17.3828579,10.8203125 Z" id="Path" fill="#FFDA44"></path>
                    <polygon id="Path" fill="#EEEEEE" points="0 0 0 1.25 1.25 2.5 0 3.75 0 10 1.25 10 2.5 8.75 3.75 10 5 10 5 6.7578125 8.2421875 10 10 10 9.6875 9.375 10 8.7890625 10 8.2421875 6.7578125 5 10 5 10 3.75 8.75 2.5 10 1.25 10 0 3.75 0 2.5 1.25 1.25 0"></polygon>
                    <path d="M1.25,0 L1.25,1.25 L0,1.25 L0,3.75 L1.25,3.75 L1.25,10 L3.75,10 L3.75,3.75 L10,3.75 L10,1.25 L3.75,1.25 L3.75,0 L1.25,0 Z M5,5 L10,10 L10,8.7890625 L6.2109375,5 L5,5 Z" id="Shape" fill="#D80027"></path>
                </g>
            </g>
        </g>
    </g>
</svg>