<?xml version="1.0" encoding="UTF-8"?>
<svg width="16px" height="16px" viewBox="0 0 16 16" version="1.1" xmlns="http://www.w3.org/2000/svg" xmlns:xlink="http://www.w3.org/1999/xlink">
    <title>pn_flag_16px</title>
    <defs>
        <circle id="path-1" cx="8" cy="8" r="8"></circle>
    </defs>
    <g id="Design-System" stroke="none" stroke-width="1" fill="none" fill-rule="evenodd">
        <g id="Flags-16x16" transform="translate(-51.000000, -1305.000000)">
            <g id="flag" transform="translate(51.000000, 1305.000000)">
                <mask id="mask-2" fill="white">
                    <use xlink:href="#path-1"></use>
                </mask>
                <use id="Mask" fill="#D8D8D8" xlink:href="#path-1"></use>
                <g id="pn" mask="url(#mask-2)" fill-rule="nonzero">
                    <polygon id="Path" fill="#0052B4" points="8 0 16 0 16 16 0 16 0 8"></polygon>
                    <polygon id="Path" fill="#ACABB1" points="12.53125 4.875 11.46875 5.21875 10.4375 4.875 10.09375 4 10.4375 3.125 12.53125 3.125 12.1875 4"></polygon>
                    <path d="M9.03125,4.875 L9.03125,8.6875 C9.03125,10.5625 11.46875,11.125 11.46875,11.125 C11.46875,11.125 13.90625,10.5625 13.90625,8.6875 L13.90625,4.875 L9.03125,4.875 Z" id="Path" fill="#338AF3"></path>
                    <path d="M9.25,9.59375 C9.875,10.75 11.46875,11.125 11.46875,11.125 C11.46875,11.125 13.09375,10.75 13.6875,9.59375 L11.46875,5.90625 L9.25,9.59375 Z" id="Path" fill="#6DA544"></path>
                    <path d="M13.9062863,8.65625 L11.46875,4.875 L9.03121368,8.65625 L9.03121368,8.6875 C9.02931904,9.00288505 9.10440938,9.31397361 9.25,9.59375 L11.46875,6.15625 L13.6875,9.59375 C13.8330906,9.31397361 13.908181,9.00288505 13.9062863,8.6875 L13.9062863,8.65625 Z" id="Path" fill="#FFDA44"></path>
                    <polygon id="Path" fill="#EEEEEE" points="0 0 0 1 1 2 0 3 0 8 1 8 2 7 3 8 4 8 4 5.40625 6.59375 8 8 8 7.75 7.5 8 7.03125 8 6.59375 5.40625 4 8 4 8 3 7 2 8 1 8 0 3 0 2 1 1 0"></polygon>
                    <path d="M1,0 L1,1 L0,1 L0,3 L1,3 L1,8 L3,8 L3,3 L8,3 L8,1 L3,1 L3,0 L1,0 Z M4,4 L8,8 L8,7.03125 L4.96875,4 L4,4 Z" id="Shape" fill="#D80027"></path>
                </g>
            </g>
        </g>
    </g>
</svg>