<?xml version="1.0" encoding="UTF-8"?>
<svg width="20px" height="20px" viewBox="0 0 20 20" version="1.1" xmlns="http://www.w3.org/2000/svg" xmlns:xlink="http://www.w3.org/1999/xlink">
    <title>pt-20_flag_20px</title>
    <defs>
        <circle id="path-1" cx="10" cy="10" r="10"></circle>
    </defs>
    <g id="Design-System" stroke="none" stroke-width="1" fill="none" fill-rule="evenodd">
        <g id="Flags-20x20" transform="translate(-251.000000, -1305.000000)">
            <g id="flag" transform="translate(251.000000, 1305.000000)">
                <mask id="mask-2" fill="white">
                    <use xlink:href="#path-1"></use>
                </mask>
                <use id="Mask" fill="#D8D8D8" xlink:href="#path-1"></use>
                <g id="pt-20" mask="url(#mask-2)" fill-rule="nonzero">
                    <polygon id="Path" fill="#0052B4" points="0 20 7.390625 20 9.0078125 10 7.390625 0 0 0"></polygon>
                    <polygon id="Path" fill="#EEEEEE" points="7.390625 0 20 0 20 20 7.390625 20"></polygon>
                    <path d="M3.5859375,3.4765625 L3.5859375,5.109375 C3.5859375,5.92054323 4.24351927,6.578125 5.0546875,6.578125 C5.86585573,6.578125 6.5234375,5.92054323 6.5234375,5.109375 L6.5234375,3.4765625 L3.5859375,3.4765625 Z" id="Path" fill="#D80027"></path>
                    <path d="M5.0546875,5.703125 C4.7265625,5.703125 4.45703125,5.4375 4.45703125,5.109375 L4.45703125,4.34765625 L5.65234375,4.34765625 L5.65234375,5.109375 C5.65234375,5.4375 5.3828125,5.70703125 5.0546875,5.70703125 L5.0546875,5.703125 Z" id="Path" fill="#EEEEEE"></path>
                    <path d="M10.8710938,10.4335938 L8.26171875,10.4335938 C8.23103508,9.97615967 7.85104014,9.62080005 7.39257812,9.62080005 C6.93411611,9.62080005 6.55412117,9.97615967 6.5234375,10.4335938 L3.9140625,10.4335938 C3.92884487,10.919077 4.32679185,11.3049125 4.8125,11.3046875 L4.78125,11.3046875 C4.78125,11.7851563 5.171875,12.1757813 5.65234375,12.1757813 C5.65234375,12.6523438 6.04296875,13.0429688 6.5234375,13.0429688 L8.26171875,13.0429688 C8.7421875,13.0429688 9.12890625,12.6523438 9.12890625,12.1757813 C9.609375,12.1757813 10,11.7851563 10,11.3046875 L9.97265625,11.3046875 C10.4583644,11.3049125 10.8563114,10.919077 10.8710938,10.4335938 L10.8710938,10.4335938 Z M11.2265625,9.04296875 L11,9.41015625 L11.2734375,9.73828125 L10.859375,9.6328125 L10.6289062,10 L10.5976562,9.5703125 L10.1796875,9.46484375 L10.5820312,9.3046875 L10.5507812,8.875 L10.8242188,9.203125 L11.2265625,9.04296875 Z M9.8984375,7.92578125 L9.8046875,8.34765625 L10.1796875,8.5625 L9.75,8.609375 L9.66015625,9.02734375 L9.484375,8.63671875 L9.0546875,8.6796875 L9.375,8.390625 L9.203125,8 L9.57421875,8.21484375 L9.8984375,7.92578125 Z M8.2578125,7.33203125 L8.3203125,7.7578125 L8.74609375,7.8359375 L8.35546875,8.01953125 L8.41796875,8.44921875 L8.1171875,8.13671875 L7.73046875,8.328125 L7.93359375,7.9453125 L7.6328125,7.6328125 L8.05859375,7.7109375 L8.2578125,7.33203125 Z M6.5234375,7.33203125 L6.72265625,7.7109375 L7.1484375,7.6328125 L6.84765625,7.9453125 L7.05078125,8.328125 L6.6640625,8.13671875 L6.36328125,8.44921875 L6.42578125,8.01953125 L6.03515625,7.83203125 L6.46484375,7.75390625 L6.5234375,7.33203125 Z M4.8828125,7.92578125 L5.203125,8.21484375 L5.578125,8 L5.40234375,8.390625 L5.72265625,8.6796875 L5.29296875,8.63671875 L5.1171875,9.02734375 L5.02734375,8.609375 L4.59765625,8.5625 L4.97265625,8.34765625 L4.8828125,7.92578125 Z M3.5546875,9.04296875 L3.953125,9.203125 L4.2265625,8.875 L4.19921875,9.3046875 L4.59765625,9.46484375 L4.1796875,9.5703125 L4.1484375,10 L3.921875,9.6328125 L3.50390625,9.73828125 L3.77734375,9.41015625 L3.5546875,9.04296875 Z" id="Shape" fill="#FFDA44"></path>
                </g>
            </g>
        </g>
    </g>
</svg>