<?xml version="1.0" encoding="UTF-8"?>
<svg width="20px" height="20px" viewBox="0 0 20 20" version="1.1" xmlns="http://www.w3.org/2000/svg" xmlns:xlink="http://www.w3.org/1999/xlink">
    <title>pt_flag_20px</title>
    <defs>
        <circle id="path-1" cx="10" cy="10" r="10"></circle>
    </defs>
    <g id="Design-System" stroke="none" stroke-width="1" fill="none" fill-rule="evenodd">
        <g id="Flags-20x20" transform="translate(-201.000000, -1305.000000)">
            <g id="flag" transform="translate(201.000000, 1305.000000)">
                <mask id="mask-2" fill="white">
                    <use xlink:href="#path-1"></use>
                </mask>
                <use id="Mask" fill="#D8D8D8" xlink:href="#path-1"></use>
                <g id="pt" mask="url(#mask-2)" fill-rule="nonzero">
                    <polygon id="Path" fill="#6DA544" points="0 20 6.5234375 20 8.00390625 9.83203125 6.5234375 0 0 0"></polygon>
                    <polygon id="Path" fill="#D80027" points="20 0 6.5234375 0 6.5234375 20 20 20"></polygon>
                    <circle id="Oval" fill="#FFDA44" cx="6.5234375" cy="10" r="3.4765625"></circle>
                    <path d="M4.56640625,8.26171875 L4.56640625,10.4296875 C4.56640625,11.5094473 5.44172454,12.3847656 6.52148437,12.3847656 C7.60124421,12.3847656 8.4765625,11.5094473 8.4765625,10.4296875 L8.4765625,8.2578125 L4.5703125,8.2578125 L4.56640625,8.26171875 Z" id="Path" fill="#D80027"></path>
                    <path d="M6.5234375,11.0859375 C6.1640625,11.0859375 5.87109375,10.7929687 5.87109375,10.4335937 L5.87109375,9.5703125 L7.17578125,9.5703125 L7.17578125,10.4296875 C7.17578125,10.7890625 6.8828125,11.0820312 6.5234375,11.0820312 L6.5234375,11.0859375 Z" id="Path" fill="#EEEEEE"></path>
                </g>
            </g>
        </g>
    </g>
</svg>