<?xml version="1.0" encoding="UTF-8"?>
<svg width="20px" height="20px" viewBox="0 0 20 20" version="1.1" xmlns="http://www.w3.org/2000/svg" xmlns:xlink="http://www.w3.org/1999/xlink">
    <title>rs_flag_20px</title>
    <defs>
        <circle id="path-1" cx="10" cy="10" r="10"></circle>
    </defs>
    <g id="Design-System" stroke="none" stroke-width="1" fill="none" fill-rule="evenodd">
        <g id="Flags-20x20" transform="translate(-151.000000, -1355.000000)">
            <g id="flag" transform="translate(151.000000, 1355.000000)">
                <mask id="mask-2" fill="white">
                    <use xlink:href="#path-1"></use>
                </mask>
                <use id="Mask" fill="#D8D8D8" xlink:href="#path-1"></use>
                <g id="rs" mask="url(#mask-2)" fill-rule="nonzero">
                    <polygon id="Path" fill="#0052B4" points="0 6.5234375 9.9140625 5.76953125 20 6.5234375 20 13.4765625 10.0429688 14.7382812 0 13.4765625"></polygon>
                    <polygon id="Path" fill="#D80027" points="0 0 20 0 20 6.5234375 0 6.5234375"></polygon>
                    <polygon id="Path" fill="#EEEEEE" points="0 13.4765625 20 13.4765625 20 20 0 20"></polygon>
                    <path d="M2.5859375,5.65234375 L2.5859375,10.640625 C2.5859375,13.4765625 6.29296875,14.3515625 6.29296875,14.3515625 C6.29296875,14.3515625 10,13.4765625 10,10.640625 L10,5.65234375 L2.5859375,5.65234375 Z" id="Path" fill="#D80027"></path>
                    <path d="M4.1171875,6.5234375 L8.46875,6.5234375 L8.46875,4.78125 L7.59765625,5.21875 L6.29296875,3.9140625 L4.98828125,5.21875 L4.1171875,4.78125 L4.1171875,6.5234375 Z M9.12890625,11.3359375 L6.3046875,8.5078125 L3.4765625,11.3359375 L4.40234375,12.2578125 L6.3046875,10.3554688 L8.20703125,12.2578125 L9.12890625,11.3359375 Z" id="Shape" fill="#FFDA44"></path>
                    <path d="M9.12890625,8.6953125 L7.8125,8.6953125 C7.88913546,8.56365268 7.92956642,8.41405813 7.9296875,8.26171875 C7.93058943,7.86127144 7.65835916,7.5117947 7.26986723,7.41467172 C6.88137529,7.31754873 6.47671247,7.4978022 6.2890625,7.8515625 C6.0994538,7.50212819 5.69731358,7.32540584 5.31167569,7.42204541 C4.92603779,7.51868498 4.65475943,7.86416377 4.65234375,8.26171875 C4.65246483,8.41405813 4.69289579,8.56365268 4.76953125,8.6953125 L3.4765625,8.6953125 C3.49134487,9.1807957 3.88929185,9.56663125 4.375,9.56640625 L4.34765625,9.56640625 C4.34765625,10.046875 4.73828125,10.4335937 5.21875,10.4335937 C5.21875,10.8632812 5.5234375,11.2148437 5.92578125,11.2890625 L5.2421875,12.8359375 C5.57963563,12.9730008 5.94046578,13.0433096 6.3046875,13.04297 C6.66890922,13.0433096 7.02973937,12.9730008 7.3671875,12.8359375 L6.68359375,11.2890625 C7.0859375,11.2109375 7.390625,10.859375 7.390625,10.4335938 C7.87109375,10.4335938 8.26171875,10.0429688 8.26171875,9.56640625 L8.23046875,9.56640625 C8.7161769,9.56663125 9.11412388,9.1807957 9.12890625,8.6953125 Z" id="Path" fill="#EEEEEE"></path>
                </g>
            </g>
        </g>
    </g>
</svg>