<?xml version="1.0" encoding="UTF-8"?>
<svg width="20px" height="20px" viewBox="0 0 20 20" version="1.1" xmlns="http://www.w3.org/2000/svg" xmlns:xlink="http://www.w3.org/1999/xlink">
    <title>ru-cu_flag_20px</title>
    <defs>
        <circle id="path-1" cx="10" cy="10" r="10"></circle>
    </defs>
    <g id="Design-System" stroke="none" stroke-width="1" fill="none" fill-rule="evenodd">
        <g id="Flags-20x20" transform="translate(-351.000000, -1355.000000)">
            <g id="flag" transform="translate(351.000000, 1355.000000)">
                <mask id="mask-2" fill="white">
                    <use xlink:href="#path-1"></use>
                </mask>
                <use id="Mask" fill="#D8D8D8" xlink:href="#path-1"></use>
                <g id="ru-cu" mask="url(#mask-2)" fill-rule="nonzero">
                    <polygon id="Path" fill="#FFDA44" points="0 0 20 0 20 15.0390625 10 17.5390625 0 15.0390625"></polygon>
                    <path d="M14.6484375,3.7890625 L15.546875,2.8515625 L15.546875,3.7890625 L16.4453125,3.7890625 L15.546875,4.6875 L16.4453125,5.5859375 L15.546875,5.5859375 L15.546875,6.484375 L14.6484375,5.5859375 L13.7109375,6.484375 L13.7109375,5.5859375 L12.8515625,5.5859375 L13.7109375,4.6875 L12.8515625,3.7890625 L13.7109375,3.7890625 L13.7109375,2.8515625 L14.6484375,3.7890625 Z M5.3515625,3.7890625 L6.25,2.8515625 L6.25,3.7890625 L7.1875,3.7890625 L6.25,4.6875 L7.1875,5.5859375 L6.25,5.5859375 L6.25,6.484375 L5.3515625,5.5859375 L4.453125,6.484375 L4.453125,5.5859375 L3.5546875,5.5859375 L4.453125,4.6875 L3.5546875,3.7890625 L4.453125,3.7890625 L4.453125,2.8515625 L5.3515625,3.7890625 Z M10,1.8359375 L10.8984375,0.9375 L10.8984375,1.8359375 L11.796875,1.8359375 L10.8984375,2.734375 L11.796875,3.671875 L10.8984375,3.671875 L10.8984375,4.5703125 L10,3.671875 L9.1015625,4.5703125 L9.1015625,3.671875 L8.203125,3.671875 L9.1015625,2.734375 L8.203125,1.8359375 L9.1015625,1.8359375 L9.1015625,0.9375 L10,1.8359375 Z" id="Shape" fill="#A2001D"></path>
                    <polygon id="Path" fill="#A2001D" points="8.515625 4.0234375 7.1484375 5.390625 7.1484375 6.484375 6.0546875 6.484375 4.6875 7.8515625 5.8203125 8.984375 6.6015625 8.984375 6.6015625 10.46875 7.265625 11.1328125 8.515625 9.8828125 8.9453125 10.3125 8.9453125 15.0390625 0 15.0390625 0 20 20 20 20 15.0390625 11.015625 15.0390625 11.015625 10.3125 11.4453125 9.8828125 12.6953125 11.1328125 13.359375 10.46875 13.359375 8.984375 14.1796875 8.984375 15.3125 7.8515625 13.9453125 6.484375 12.8125 6.5234375 12.8125 5.390625 11.484375 4.0234375 10.3515625 5.15625 10.3515625 6.0546875 11.3671875 7.0703125 10 8.4375 8.6328125 7.0703125 9.6484375 6.0546875 9.6484375 5.15625"></polygon>
                </g>
            </g>
        </g>
    </g>
</svg>