<?xml version="1.0" encoding="UTF-8"?>
<svg width="20px" height="20px" viewBox="0 0 20 20" version="1.1" xmlns="http://www.w3.org/2000/svg" xmlns:xlink="http://www.w3.org/1999/xlink">
    <title>sa_flag_20px</title>
    <defs>
        <circle id="path-1" cx="10" cy="10" r="10"></circle>
    </defs>
    <g id="Design-System" stroke="none" stroke-width="1" fill="none" fill-rule="evenodd">
        <g id="Flags-20x20" transform="translate(-151.000000, -1405.000000)">
            <g id="flag" transform="translate(151.000000, 1405.000000)">
                <mask id="mask-2" fill="white">
                    <use xlink:href="#path-1"></use>
                </mask>
                <use id="Mask" fill="#D8D8D8" xlink:href="#path-1"></use>
                <g id="sa" mask="url(#mask-2)" fill-rule="nonzero">
                    <polygon id="Path" fill="#496E2D" points="0 0 20 0 20 20 0 20"></polygon>
                    <g id="Group" transform="translate(4.238281, 5.652344)" fill="#EEEEEE">
                        <path d="M1.4140625,6.30078125 C1.4140625,7.0234375 2,7.609375 2.71875,7.609375 L6.6328125,7.609375 C6.6328125,8.20912172 7.11900328,8.6953125 7.71875,8.6953125 L9.0234375,8.6953125 C9.62318422,8.6953125 10.109375,8.20912172 10.109375,7.609375 L10.109375,6.30078125 L1.4140625,6.30078125 Z M10.21875,0 L10.21875,3.046875 C10.21875,3.5234375 9.828125,3.9140625 9.34765625,3.9140625 L9.34765625,5.21875 C10.546875,5.21875 11.5234375,4.2421875 11.5234375,3.04296875 L11.5234375,0 L10.2148438,0 L10.21875,0 Z M0.87109375,3.046875 C0.87109375,3.5234375 0.48046875,3.9140625 5.55111512e-16,3.9140625 L5.55111512e-16,5.21875 C1.19921875,5.21875 2.17578125,4.2421875 2.17578125,3.04296875 L2.17578125,0 L0.87109375,0 L0.87109375,3.046875 Z" id="Shape"></path>
                        <path d="M8.26171875,1.11022302e-15 L9.56640625,1.11022302e-15 L9.56640625,3.046875 L8.26171875,3.046875 L8.26171875,1.11022302e-15 Z M6.30859375,1.73828125 C6.30859375,1.85909354 6.21065604,1.95703125 6.08984375,1.95703125 C5.96903146,1.95703125 5.87109375,1.85909354 5.87109375,1.73828125 L5.87109375,1.11022302e-15 L4.56640625,1.11022302e-15 L4.56640625,1.73828125 C4.55180106,1.84684321 4.45914937,1.92786487 4.34960937,1.92786487 C4.24006938,1.92786487 4.14741769,1.84684321 4.1328125,1.73828125 L4.1328125,1.11022302e-15 L2.828125,1.11022302e-15 L2.828125,1.73828125 C2.828125,2.57965255 3.5101912,3.26171875 4.3515625,3.26171875 C4.66183638,3.26172597 4.96459801,3.1662606 5.21875,2.98828125 C5.47290199,3.1662606 5.77566362,3.26172597 6.0859375,3.26171875 C6.15234375,3.26171875 6.21875,3.2578125 6.28125,3.25 C6.1860755,3.63898332 5.837956,3.91296626 5.4375,3.9140625 L5.4375,5.21875 C6.6328125,5.21875 7.609375,4.2421875 7.609375,3.04296875 L7.609375,1.11022302e-15 L6.30859375,1.11022302e-15 L6.30859375,1.73828125 Z" id="Shape"></path>
                        <polygon id="Path" points="2.828125 3.9140625 4.78125 3.9140625 4.78125 5.21875 2.828125 5.21875"></polygon>
                    </g>
                </g>
            </g>
        </g>
    </g>
</svg>