<?xml version="1.0" encoding="UTF-8"?>
<svg width="16px" height="16px" viewBox="0 0 16 16" version="1.1" xmlns="http://www.w3.org/2000/svg" xmlns:xlink="http://www.w3.org/1999/xlink">
    <title>sa_flag_16px</title>
    <defs>
        <circle id="path-1" cx="8" cy="8" r="8"></circle>
    </defs>
    <g id="Design-System" stroke="none" stroke-width="1" fill="none" fill-rule="evenodd">
        <g id="Flags-16x16" transform="translate(-151.000000, -1405.000000)">
            <g id="flag" transform="translate(151.000000, 1405.000000)">
                <mask id="mask-2" fill="white">
                    <use xlink:href="#path-1"></use>
                </mask>
                <use id="Mask" fill="#D8D8D8" xlink:href="#path-1"></use>
                <g id="sa" mask="url(#mask-2)" fill-rule="nonzero">
                    <polygon id="Path" fill="#496E2D" points="0 0 16 0 16 16 0 16"></polygon>
                    <g id="Group" transform="translate(3.390625, 4.521875)" fill="#EEEEEE">
                        <path d="M1.13125,5.040625 C1.13125,5.61875 1.6,6.0875 2.175,6.0875 L5.30625,6.0875 C5.30625,6.56729738 5.69520262,6.95625 6.175,6.95625 L7.21875,6.95625 C7.69854738,6.95625 8.0875,6.56729738 8.0875,6.0875 L8.0875,5.040625 L1.13125,5.040625 Z M8.175,0 L8.175,2.4375 C8.175,2.81875 7.8625,3.13125 7.478125,3.13125 L7.478125,4.175 C8.4375,4.175 9.21875,3.39375 9.21875,2.434375 L9.21875,0 L8.171875,0 L8.175,0 Z M0.696875,2.4375 C0.696875,2.81875 0.384375,3.13125 4.4408921e-16,3.13125 L4.4408921e-16,4.175 C0.959375,4.175 1.740625,3.39375 1.740625,2.434375 L1.740625,0 L0.696875,0 L0.696875,2.4375 Z" id="Shape"></path>
                        <path d="M6.609375,8.8817842e-16 L7.653125,8.8817842e-16 L7.653125,2.4375 L6.609375,2.4375 L6.609375,8.8817842e-16 Z M5.046875,1.390625 C5.046875,1.48727483 4.96852483,1.565625 4.871875,1.565625 C4.77522517,1.565625 4.696875,1.48727483 4.696875,1.390625 L4.696875,8.8817842e-16 L3.653125,8.8817842e-16 L3.653125,1.390625 C3.64144085,1.47747456 3.56731949,1.5422919 3.4796875,1.5422919 C3.39205551,1.5422919 3.31793415,1.47747456 3.30625,1.390625 L3.30625,8.8817842e-16 L2.2625,8.8817842e-16 L2.2625,1.390625 C2.2625,2.06372204 2.80815296,2.609375 3.48125,2.609375 C3.72946911,2.60938078 3.97167841,2.53300848 4.175,2.390625 C4.37832159,2.53300848 4.62053089,2.60938078 4.86875,2.609375 C4.921875,2.609375 4.975,2.60625 5.025,2.6 C4.9488604,2.91118666 4.6703648,3.13037301 4.35,3.13125 L4.35,4.175 C5.30625,4.175 6.0875,3.39375 6.0875,2.434375 L6.0875,8.8817842e-16 L5.046875,8.8817842e-16 L5.046875,1.390625 Z" id="Shape"></path>
                        <polygon id="Path" points="2.2625 3.13125 3.825 3.13125 3.825 4.175 2.2625 4.175"></polygon>
                    </g>
                </g>
            </g>
        </g>
    </g>
</svg>