<?xml version="1.0" encoding="UTF-8"?>
<svg width="16px" height="16px" viewBox="0 0 16 16" version="1.1" xmlns="http://www.w3.org/2000/svg" xmlns:xlink="http://www.w3.org/1999/xlink">
    <title>sami_flag_16px</title>
    <defs>
        <circle id="path-1" cx="8" cy="8" r="8"></circle>
    </defs>
    <g id="Design-System" stroke="none" stroke-width="1" fill="none" fill-rule="evenodd">
        <g id="Flags-16x16" transform="translate(-201.000000, -1405.000000)">
            <g id="flag" transform="translate(201.000000, 1405.000000)">
                <mask id="mask-2" fill="white">
                    <use xlink:href="#path-1"></use>
                </mask>
                <use id="Mask" fill="#D8D8D8" xlink:href="#path-1"></use>
                <g id="sami" mask="url(#mask-2)" fill-rule="nonzero">
                    <polygon id="Path" fill="#FFDA44" points="6.21875 0 7.21875 0 8.21875 8 7.21875 16 6.21875 16 5.21875 8"></polygon>
                    <polygon id="Path" fill="#496E2D" points="5.21875 0 6.21875 0 6.21875 16 5.21875 16 4.21875 8"></polygon>
                    <polygon id="Path" fill="#0052B4" points="7.21875 0 16 0 16 16 7.21875 16"></polygon>
                    <path d="M0,0 L5.21875,0 L5.21875,16 L0,16 L0,0 Z M6.21875,4.125 L5.21875,4.625 L6.21875,5.125 C7.80656866,5.125 9.09375,6.41218134 9.09375,8 C9.09375,9.58781866 7.80656866,10.875 6.21875,10.875 L5.21875,11.375 L6.21875,11.875 C8.35885341,11.875 10.09375,10.1401034 10.09375,8 C10.09375,5.85989659 8.35885341,4.125 6.21875,4.125 Z" id="Shape" fill="#D80027"></path>
                    <path d="M6.21875,4.125 C4.07864659,4.125 2.34375,5.85989659 2.34375,8 C2.34375,10.1401034 4.07864659,11.875 6.21875,11.875 L6.21875,10.875 C4.63093134,10.875 3.34375,9.58781866 3.34375,8 C3.34375,6.41218134 4.63093134,5.125 6.21875,5.125 L6.21875,4.125 Z" id="Path" fill="#0052B4"></path>
                </g>
            </g>
        </g>
    </g>
</svg>