<?xml version="1.0" encoding="UTF-8"?>
<svg width="20px" height="20px" viewBox="0 0 20 20" version="1.1" xmlns="http://www.w3.org/2000/svg" xmlns:xlink="http://www.w3.org/1999/xlink">
    <title>sb_flag_20px</title>
    <defs>
        <circle id="path-1" cx="10" cy="10" r="10"></circle>
    </defs>
    <g id="Design-System" stroke="none" stroke-width="1" fill="none" fill-rule="evenodd">
        <g id="Flags-20x20" transform="translate(-251.000000, -1405.000000)">
            <g id="flag" transform="translate(251.000000, 1405.000000)">
                <mask id="mask-2" fill="white">
                    <use xlink:href="#path-1"></use>
                </mask>
                <use id="Mask" fill="#D8D8D8" xlink:href="#path-1"></use>
                <g id="sb" mask="url(#mask-2)" fill-rule="nonzero">
                    <polygon id="Path" fill="#496E2D" points="20 20 20 0.921875 10 9.99609375 0.921875 20"></polygon>
                    <polygon id="Path" fill="#0052B4" points="0 0 19.078125 0 10 10 0 19.078125"></polygon>
                    <polygon id="Path" fill="#FFDA44" points="19.078125 0 0 19.078125 0 20 0.921875 20 20 0.921875 20 0"></polygon>
                    <path d="M4.2109375,3.4765625 L4.42578125,4.140625 L5.12890625,4.140625 L4.55859375,4.55078125 L4.7734375,5.21484375 L4.21875,4.8046875 L3.65234375,5.21875 L3.8671875,4.5546875 L3.296875,4.140625 L3.9921875,4.140625 L4.2109375,3.4765625 Z M7.77734375,3.4765625 L7.9921875,4.140625 L8.6953125,4.140625 L8.125,4.546875 L8.34375,5.2109375 L7.7734375,4.8046875 L7.20703125,5.21875 L7.42578125,4.5546875 L6.859375,4.140625 L7.5625,4.140625 L7.77734375,3.4765625 Z M4.2109375,6.953125 L4.42578125,7.6171875 L5.12890625,7.6171875 L4.55859375,8.02734375 L4.7734375,8.69140625 L4.2109375,8.28125 L3.64453125,8.69140625 L3.859375,8.02734375 L3.296875,7.6171875 L3.9921875,7.6171875 L4.2109375,6.953125 Z M7.77734375,6.953125 L7.9921875,7.6171875 L8.6953125,7.6171875 L8.125,8.02734375 L8.34375,8.69140625 L7.77734375,8.28125 L7.2109375,8.69140625 L7.4296875,8.02734375 L6.86328125,7.6171875 L7.56640625,7.6171875 L7.77734375,6.953125 Z M5.9921875,5.21484375 L6.2109375,5.87890625 L6.90625,5.87890625 L6.34375,6.2890625 L6.55859375,6.953125 L5.9921875,6.54296875 L5.4296875,6.953125 L5.64453125,6.2890625 L5.078125,5.87890625 L5.78125,5.87890625 L5.9921875,5.21484375 Z" id="Shape" fill="#EEEEEE"></path>
                </g>
            </g>
        </g>
    </g>
</svg>