<?xml version="1.0" encoding="UTF-8"?>
<svg width="16px" height="16px" viewBox="0 0 16 16" version="1.1" xmlns="http://www.w3.org/2000/svg" xmlns:xlink="http://www.w3.org/1999/xlink">
    <title>sb_flag_16px</title>
    <defs>
        <circle id="path-1" cx="8" cy="8" r="8"></circle>
    </defs>
    <g id="Design-System" stroke="none" stroke-width="1" fill="none" fill-rule="evenodd">
        <g id="Flags-16x16" transform="translate(-251.000000, -1405.000000)">
            <g id="flag" transform="translate(251.000000, 1405.000000)">
                <mask id="mask-2" fill="white">
                    <use xlink:href="#path-1"></use>
                </mask>
                <use id="Mask" fill="#D8D8D8" xlink:href="#path-1"></use>
                <g id="sb" mask="url(#mask-2)" fill-rule="nonzero">
                    <polygon id="Path" fill="#496E2D" points="16 16 16 0.7375 8 7.996875 0.7375 16"></polygon>
                    <polygon id="Path" fill="#0052B4" points="0 0 15.2625 0 8 8 0 15.2625"></polygon>
                    <polygon id="Path" fill="#FFDA44" points="15.2625 0 0 15.2625 0 16 0.7375 16 16 0.7375 16 0"></polygon>
                    <path d="M3.36875,2.78125 L3.540625,3.3125 L4.103125,3.3125 L3.646875,3.640625 L3.81875,4.171875 L3.375,3.84375 L2.921875,4.175 L3.09375,3.64375 L2.6375,3.3125 L3.19375,3.3125 L3.36875,2.78125 Z M6.221875,2.78125 L6.39375,3.3125 L6.95625,3.3125 L6.5,3.6375 L6.675,4.16875 L6.21875,3.84375 L5.765625,4.175 L5.940625,3.64375 L5.4875,3.3125 L6.05,3.3125 L6.221875,2.78125 Z M3.36875,5.5625 L3.540625,6.09375 L4.103125,6.09375 L3.646875,6.421875 L3.81875,6.953125 L3.36875,6.625 L2.915625,6.953125 L3.0875,6.421875 L2.6375,6.09375 L3.19375,6.09375 L3.36875,5.5625 Z M6.221875,5.5625 L6.39375,6.09375 L6.95625,6.09375 L6.5,6.421875 L6.675,6.953125 L6.221875,6.625 L5.76875,6.953125 L5.94375,6.421875 L5.490625,6.09375 L6.053125,6.09375 L6.221875,5.5625 Z M4.79375,4.171875 L4.96875,4.703125 L5.525,4.703125 L5.075,5.03125 L5.246875,5.5625 L4.79375,5.234375 L4.34375,5.5625 L4.515625,5.03125 L4.0625,4.703125 L4.625,4.703125 L4.79375,4.171875 Z" id="Shape" fill="#EEEEEE"></path>
                </g>
            </g>
        </g>
    </g>
</svg>