<?xml version="1.0" encoding="UTF-8"?>
<svg width="16px" height="16px" viewBox="0 0 16 16" version="1.1" xmlns="http://www.w3.org/2000/svg" xmlns:xlink="http://www.w3.org/1999/xlink">
    <title>se_flag_16px</title>
    <defs>
        <circle id="path-1" cx="8" cy="8" r="8"></circle>
    </defs>
    <g id="Design-System" stroke="none" stroke-width="1" fill="none" fill-rule="evenodd">
        <g id="Flags-16x16" transform="translate(-401.000000, -1405.000000)">
            <g id="flag" transform="translate(401.000000, 1405.000000)">
                <mask id="mask-2" fill="white">
                    <use xlink:href="#path-1"></use>
                </mask>
                <use id="Mask" fill="#D8D8D8" xlink:href="#path-1"></use>
                <g id="se" mask="url(#mask-2)" fill-rule="nonzero">
                    <polygon id="Path" fill="#0052B4" points="0 0 4.175 0 5.278125 0.521875 6.259375 0 16 0 16 6.95625 15.29375 7.946875 16 9.04375 16 16 6.259375 16 5.259375 15.38125 4.175 16 0 16 0 9.04375 0.690625 8.003125 0 6.95625"></polygon>
                    <polygon id="Path" fill="#FFDA44" points="4.175 0 4.175 6.95625 0 6.95625 0 9.04375 4.175 9.04375 4.175 16 6.259375 16 6.259375 9.04375 16 9.04375 16 6.95625 6.259375 6.95625 6.259375 0"></polygon>
                </g>
            </g>
        </g>
    </g>
</svg>