<?xml version="1.0" encoding="UTF-8"?>
<svg width="20px" height="20px" viewBox="0 0 20 20" version="1.1" xmlns="http://www.w3.org/2000/svg" xmlns:xlink="http://www.w3.org/1999/xlink">
    <title>sg_flag_20px</title>
    <defs>
        <circle id="path-1" cx="10" cy="10" r="10"></circle>
    </defs>
    <g id="Design-System" stroke="none" stroke-width="1" fill="none" fill-rule="evenodd">
        <g id="Flags-20x20" transform="translate(-451.000000, -1405.000000)">
            <g id="flag" transform="translate(451.000000, 1405.000000)">
                <mask id="mask-2" fill="white">
                    <use xlink:href="#path-1"></use>
                </mask>
                <use id="Mask" fill="#D8D8D8" xlink:href="#path-1"></use>
                <g id="sg" mask="url(#mask-2)" fill-rule="nonzero">
                    <polygon id="Path" fill="#EEEEEE" points="0 10 10.0664062 8.0078125 20 10 20 20 0 20"></polygon>
                    <polygon id="Path" fill="#D80027" points="0 0 20 0 20 10 0 10"></polygon>
                    <g id="Group" transform="translate(4.744866, 2.175607)" fill="#EEEEEE">
                        <path d="M1.34107181,3.04314255 C1.34234115,1.61428343 2.33637334,0.378240133 3.73169681,0.0704863027 C3.51740394,0.0236960231 3.29869473,0.000122575212 3.07935306,0.000173802719 C1.90428734,-0.0123422403 0.826764853,0.652011391 0.310194776,1.70751671 C-0.206375302,2.76302202 -0.0699027444,4.02151147 0.660919813,4.94174758 C1.39174237,5.8619837 2.58662938,6.2799137 3.73169681,6.0157988 C2.33637334,5.70804497 1.34234115,4.47200168 1.34107181,3.04314255 L1.34107181,3.04314255 Z M5.25513431,0.215017553 L5.46997806,0.879080053 L6.17310306,0.879080053 L5.60279056,1.2892363 L5.82154056,1.9532988 L5.25513431,1.54314255 L4.68872806,1.9532988 L4.90747806,1.2892363 L4.34107181,0.879080053 L5.04029056,0.879080053 L5.25513431,0.215017553 Z" id="Shape"></path>
                        <path d="M3.55982181,1.51970505 L3.77857181,2.18376755 L4.47388431,2.18376755 L3.91138431,2.5939238 L4.12622806,3.2579863 L3.55982181,2.84783005 L2.99732181,3.2579863 L3.21216556,2.5939238 L2.64575931,2.18376755 L3.34497806,2.18376755 L3.55982181,1.51970505 Z M6.95044681,1.51970505 L7.16529056,2.18376755 L7.86450931,2.18376755 L7.29810306,2.5939238 L7.51294681,3.2579863 L6.95044681,2.84783005 L6.38404056,3.2579863 L6.59888431,2.5939238 L6.03638431,2.18376755 L6.73169681,2.18376755 L6.95044681,1.51970505 Z M6.29810306,3.4767363 L6.51294681,4.1407988 L7.21216556,4.1407988 L6.64575931,4.55095505 L6.86060306,5.21501755 L6.29810306,4.8048613 L5.73169681,5.21501755 L5.94654056,4.55095505 L5.38404056,4.1407988 L6.08325931,4.1407988 L6.29810306,3.4767363 Z M4.21216556,3.4767363 L4.42700931,4.1407988 L5.13013431,4.1407988 L4.56372806,4.55095505 L4.77857181,5.21501755 L4.21216556,4.8048613 L3.64966556,5.21501755 L3.86450931,4.55095505 L3.29810306,4.1407988 L3.99732181,4.1407988 L4.21216556,3.4767363 Z" id="Shape"></path>
                    </g>
                </g>
            </g>
        </g>
    </g>
</svg>