<?xml version="1.0" encoding="UTF-8"?>
<svg width="16px" height="16px" viewBox="0 0 16 16" version="1.1" xmlns="http://www.w3.org/2000/svg" xmlns:xlink="http://www.w3.org/1999/xlink">
    <title>sg_flag_16px</title>
    <defs>
        <circle id="path-1" cx="8" cy="8" r="8"></circle>
    </defs>
    <g id="Design-System" stroke="none" stroke-width="1" fill="none" fill-rule="evenodd">
        <g id="Flags-16x16" transform="translate(-451.000000, -1405.000000)">
            <g id="flag" transform="translate(451.000000, 1405.000000)">
                <mask id="mask-2" fill="white">
                    <use xlink:href="#path-1"></use>
                </mask>
                <use id="Mask" fill="#D8D8D8" xlink:href="#path-1"></use>
                <g id="sg" mask="url(#mask-2)" fill-rule="nonzero">
                    <polygon id="Path" fill="#EEEEEE" points="0 8 8.053125 6.40625 16 8 16 16 0 16"></polygon>
                    <polygon id="Path" fill="#D80027" points="0 0 16 0 16 8 0 8"></polygon>
                    <g id="Group" transform="translate(3.795893, 1.740486)" fill="#EEEEEE">
                        <path d="M1.07285745,2.43451404 C1.07387292,1.29142674 1.86909867,0.302592107 2.98535745,0.0563890422 C2.81392315,0.0189568185 2.63895578,9.80601696e-05 2.46348245,0.000139042175 C1.52342987,-0.00987379227 0.661411883,0.521609113 0.248155821,1.36601337 C-0.165100241,2.21041762 -0.0559221956,3.21720918 0.52873585,3.95339807 C1.1133939,4.68958696 2.0693035,5.02393096 2.98535745,4.81263904 C1.86909867,4.56643598 1.07387292,3.57760134 1.07285745,2.43451404 L1.07285745,2.43451404 Z M4.20410745,0.172014042 L4.37598245,0.703264042 L4.93848245,0.703264042 L4.48223245,1.03138904 L4.65723245,1.56263904 L4.20410745,1.23451404 L3.75098245,1.56263904 L3.92598245,1.03138904 L3.47285745,0.703264042 L4.03223245,0.703264042 L4.20410745,0.172014042 Z" id="Shape"></path>
                        <path d="M2.84785745,1.21576404 L3.02285745,1.74701404 L3.57910745,1.74701404 L3.12910745,2.07513904 L3.30098245,2.60638904 L2.84785745,2.27826404 L2.39785745,2.60638904 L2.56973245,2.07513904 L2.11660745,1.74701404 L2.67598245,1.74701404 L2.84785745,1.21576404 Z M5.56035745,1.21576404 L5.73223245,1.74701404 L6.29160745,1.74701404 L5.83848245,2.07513904 L6.01035745,2.60638904 L5.56035745,2.27826404 L5.10723245,2.60638904 L5.27910745,2.07513904 L4.82910745,1.74701404 L5.38535745,1.74701404 L5.56035745,1.21576404 Z M5.03848245,2.78138904 L5.21035745,3.31263904 L5.76973245,3.31263904 L5.31660745,3.64076404 L5.48848245,4.17201404 L5.03848245,3.84388904 L4.58535745,4.17201404 L4.75723245,3.64076404 L4.30723245,3.31263904 L4.86660745,3.31263904 L5.03848245,2.78138904 Z M3.36973245,2.78138904 L3.54160745,3.31263904 L4.10410745,3.31263904 L3.65098245,3.64076404 L3.82285745,4.17201404 L3.36973245,3.84388904 L2.91973245,4.17201404 L3.09160745,3.64076404 L2.63848245,3.31263904 L3.19785745,3.31263904 L3.36973245,2.78138904 Z" id="Shape"></path>
                    </g>
                </g>
            </g>
        </g>
    </g>
</svg>