<?xml version="1.0" encoding="UTF-8"?>
<svg width="20px" height="20px" viewBox="0 0 20 20" version="1.1" xmlns="http://www.w3.org/2000/svg" xmlns:xlink="http://www.w3.org/1999/xlink">
    <title>sh-ac_flag_20px</title>
    <defs>
        <circle id="path-1" cx="10" cy="10" r="10"></circle>
    </defs>
    <g id="Design-System" stroke="none" stroke-width="1" fill="none" fill-rule="evenodd">
        <g id="Flags-20x20" transform="translate(-501.000000, -1405.000000)">
            <g id="flag" transform="translate(501.000000, 1405.000000)">
                <mask id="mask-2" fill="white">
                    <use xlink:href="#path-1"></use>
                </mask>
                <use id="Mask" fill="#D8D8D8" xlink:href="#path-1"></use>
                <g id="sh-ac" mask="url(#mask-2)" fill-rule="nonzero">
                    <polygon id="Path" fill="#0052B4" points="10 0 20 0 20 20 0 20 0 10"></polygon>
                    <polygon id="Path" fill="#EEEEEE" points="0 0 0 1.25 1.25 2.5 0 3.75 0 10 1.25 10 2.5 8.75 3.75 10 5 10 5 6.7578125 8.2421875 10 10 10 9.6875 9.375 10 8.7890625 10 8.2421875 6.7578125 5 10 5 10 3.75 8.75 2.5 10 1.25 10 0 3.75 0 2.5 1.25 1.25 0"></polygon>
                    <path d="M1.25,0 L1.25,1.25 L0,1.25 L0,3.75 L1.25,3.75 L1.25,10 L3.75,10 L3.75,3.75 L10,3.75 L10,1.25 L3.75,1.25 L3.75,0 L1.25,0 Z M5,5 L10,10 L10,8.7890625 L6.2109375,5 L5,5 Z" id="Shape" fill="#D80027"></path>
                    <polygon id="Path" fill="#6DA544" points="12.5 5.625 14.375 2.5 16.25 5.625"></polygon>
                    <circle id="Oval" fill="#ACABB1" cx="14.375" cy="5.625" r="1.875"></circle>
                    <path d="M12.5,5.625 L12.5,8.6328125 C12.5,10.0390625 14.375,10.5078125 14.375,10.5078125 C14.375,10.5078125 16.25,10.0390625 16.25,8.6328125 L16.25,5.625 L12.5,5.625 Z" id="Path" fill="#338AF3"></path>
                    <rect id="Rectangle" fill="#FF9811" x="11.25" y="5" width="1.25" height="5" rx="0.625"></rect>
                    <rect id="Rectangle" fill="#FF9811" x="16.25" y="5" width="1.25" height="5" rx="0.625"></rect>
                    <path d="M14.375,6.25 L12.5,8.8671875 C12.578125,9.296875 12.8515625,9.609375 13.125,9.8828125 L14.375,8.125 L15.625,9.8828125 C15.9375,9.609375 16.171875,9.296875 16.25,8.8671875 L14.375,6.25 Z" id="Path" fill="#6DA544"></path>
                </g>
            </g>
        </g>
    </g>
</svg>