<?xml version="1.0" encoding="UTF-8"?>
<svg width="16px" height="16px" viewBox="0 0 16 16" version="1.1" xmlns="http://www.w3.org/2000/svg" xmlns:xlink="http://www.w3.org/1999/xlink">
    <title>sh_hl_flag_16px</title>
    <defs>
        <circle id="path-1" cx="8" cy="8" r="8"></circle>
    </defs>
    <g id="Design-System" stroke="none" stroke-width="1" fill="none" fill-rule="evenodd">
        <g id="Flags-16x16" transform="translate(-51.000000, -1455.000000)">
            <g id="flag" transform="translate(51.000000, 1455.000000)">
                <mask id="mask-2" fill="white">
                    <use xlink:href="#path-1"></use>
                </mask>
                <use id="Mask" fill="#D8D8D8" xlink:href="#path-1"></use>
                <g id="sh-hl" mask="url(#mask-2)" fill-rule="nonzero">
                    <polygon id="Path" fill="#0052B4" points="8 0 16 0 16 16 0 16 0 8"></polygon>
                    <polygon id="Path" fill="#EEEEEE" points="0 0 0 1 1 2 0 3 0 8 1 8 2 7 3 8 4 8 4 5.40625 6.59375 8 8 8 7.75 7.5 8 7.03125 8 6.59375 5.40625 4 8 4 8 3 7 2 8 1 8 0 3 0 2 1 1 0"></polygon>
                    <path d="M1,0 L1,1 L0,1 L0,3 L1,3 L1,8 L3,8 L3,3 L8,3 L8,1 L3,1 L3,0 L1,0 Z M4,4 L8,8 L8,7.03125 L4.96875,4 L4,4 Z" id="Shape" fill="#D80027"></path>
                    <polygon id="Path" fill="#EEEEEE" points="9 4 14 4 14 6.5 11.5 7.5 9 6.5"></polygon>
                    <path d="M11.5,4.375 C11.2583754,4.375 11.0625,4.57087542 11.0625,4.8125 L9.75,4.8125 C9.75,5.05412458 9.94587542,5.25 10.1875,5.25 C10.1875,5.49162458 10.3833754,5.6875 10.625,5.6875 C10.625,5.92912458 10.8208754,6.125 11.0625,6.125 L11.9375,6.125 C12.1791246,6.125 12.375,5.92912458 12.375,5.6875 C12.6166246,5.6875 12.8125,5.49162458 12.8125,5.25 C13.0541246,5.25 13.25,5.05412458 13.25,4.8125 L11.9375,4.8125 C11.9375,4.57087542 11.7416246,4.375 11.5,4.375 Z" id="Path" fill="#333333"></path>
                    <path d="M9,6.5 L9,8 C9,9.90625 11.5,10.5 11.5,10.5 C11.5,10.5 14,9.90625 14,8 L14,6.5 L9,6.5 Z" id="Path" fill="#338AF3"></path>
                    <path d="M11.625,6.90625 C11.34375,6.90625 11.15625,7.15625 10.84375,6.9375 C11,7.3125 11.28125,7.21875 11.53125,7.25 L11.53125,7.4375 L11.09375,7.4375 C11.09375,7.4375 10.65625,8.0625 11.09375,8.625 L11.53125,8.625 L11.53125,8.78125 L11.09375,8.78125 C10.8125,8.78125 10.8125,8.4375 10.8125,8.4375 L9.75,8.4375 L9.75,8.78125 L9.96875,8.78125 C10.25,9.03125 10.375,9.59375 10.8125,9.59375 L12.4375,9.59375 C12.90625,9.59375 12.96875,9.3125 13.0625,9.0625 C13.15625,8.84375 13.21875,8.8125 13.25,8.78125 L13.25,8.53125 L12.34375,8.53125 C12.34375,8.53125 12.34375,8.78125 12.09375,8.78125 L11.71875,8.78125 L11.71875,8.59375 L12.15625,8.59375 C11.8125,8.0625 12.15625,7.4375 12.15625,7.4375 L11.71875,7.4375 L11.71875,6.9375 L11.59375,6.90625 L11.625,6.90625 Z M10.90625,7.4375 C10.28125,7.625 9.9375,8.25 9.9375,8.25 L10.71875,8.25 C10.65625,7.71875 10.90625,7.4375 10.90625,7.4375 Z M12.28125,7.625 C12.1772233,7.84996048 12.1551146,8.1042102 12.21875,8.34375 L12.96875,8.34375 C12.8125,7.96875 12.96875,7.625 12.96875,7.625 L12.28125,7.625 Z" id="Shape" fill="#EEEEEE"></path>
                </g>
            </g>
        </g>
    </g>
</svg>