<?xml version="1.0" encoding="UTF-8"?>
<svg width="20px" height="20px" viewBox="0 0 20 20" version="1.1" xmlns="http://www.w3.org/2000/svg" xmlns:xlink="http://www.w3.org/1999/xlink">
    <title>sh_hl_flag_20px</title>
    <defs>
        <circle id="path-1" cx="10" cy="10" r="10"></circle>
    </defs>
    <g id="Design-System" stroke="none" stroke-width="1" fill="none" fill-rule="evenodd">
        <g id="Flags-20x20" transform="translate(-51.000000, -1455.000000)">
            <g id="flag" transform="translate(51.000000, 1455.000000)">
                <mask id="mask-2" fill="white">
                    <use xlink:href="#path-1"></use>
                </mask>
                <use id="Mask" fill="#D8D8D8" xlink:href="#path-1"></use>
                <g id="sh-hl" mask="url(#mask-2)" fill-rule="nonzero">
                    <polygon id="Path" fill="#0052B4" points="10 0 20 0 20 20 0 20 0 10"></polygon>
                    <polygon id="Path" fill="#EEEEEE" points="0 0 0 1.25 1.25 2.5 0 3.75 0 10 1.25 10 2.5 8.75 3.75 10 5 10 5 6.7578125 8.2421875 10 10 10 9.6875 9.375 10 8.7890625 10 8.2421875 6.7578125 5 10 5 10 3.75 8.75 2.5 10 1.25 10 0 3.75 0 2.5 1.25 1.25 0"></polygon>
                    <path d="M1.25,0 L1.25,1.25 L0,1.25 L0,3.75 L1.25,3.75 L1.25,10 L3.75,10 L3.75,3.75 L10,3.75 L10,1.25 L3.75,1.25 L3.75,0 L1.25,0 Z M5,5 L10,10 L10,8.7890625 L6.2109375,5 L5,5 Z" id="Shape" fill="#D80027"></path>
                    <polygon id="Path" fill="#EEEEEE" points="11.25 5 17.5 5 17.5 8.125 14.375 9.375 11.25 8.125"></polygon>
                    <path d="M14.375,5.46875 C14.0729693,5.46875 13.828125,5.71359428 13.828125,6.015625 L12.1875,6.015625 C12.1875,6.31765572 12.4323443,6.5625 12.734375,6.5625 C12.734375,6.86453072 12.9792193,7.109375 13.28125,7.109375 C13.28125,7.41140572 13.5260943,7.65625 13.828125,7.65625 L14.921875,7.65625 C15.2239057,7.65625 15.46875,7.41140572 15.46875,7.109375 C15.7707807,7.109375 16.015625,6.86453072 16.015625,6.5625 C16.3176557,6.5625 16.5625,6.31765572 16.5625,6.015625 L14.921875,6.015625 C14.921875,5.71359428 14.6770307,5.46875 14.375,5.46875 Z" id="Path" fill="#333333"></path>
                    <path d="M11.25,8.125 L11.25,10 C11.25,12.3828125 14.375,13.125 14.375,13.125 C14.375,13.125 17.5,12.3828125 17.5,10 L17.5,8.125 L11.25,8.125 Z" id="Path" fill="#338AF3"></path>
                    <path d="M14.53125,8.6328125 C14.1796875,8.6328125 13.9453125,8.9453125 13.5546875,8.671875 C13.75,9.140625 14.1015625,9.0234375 14.4140625,9.0625 L14.4140625,9.296875 L13.8671875,9.296875 C13.8671875,9.296875 13.3203125,10.078125 13.8671875,10.78125 L14.4140625,10.78125 L14.4140625,10.9765625 L13.8671875,10.9765625 C13.515625,10.9765625 13.515625,10.546875 13.515625,10.546875 L12.1875,10.546875 L12.1875,10.9765625 L12.4609375,10.9765625 C12.8125,11.2890625 12.96875,11.9921875 13.515625,11.9921875 L15.546875,11.9921875 C16.1328125,11.9921875 16.2109375,11.640625 16.328125,11.328125 C16.4453125,11.0546875 16.5234375,11.015625 16.5625,10.9765625 L16.5625,10.6640625 L15.4296875,10.6640625 C15.4296875,10.6640625 15.4296875,10.9765625 15.1171875,10.9765625 L14.6484375,10.9765625 L14.6484375,10.7421875 L15.1953125,10.7421875 C14.765625,10.078125 15.1953125,9.296875 15.1953125,9.296875 L14.6484375,9.296875 L14.6484375,8.671875 L14.4921875,8.6328125 L14.53125,8.6328125 Z M13.6328125,9.296875 C12.8515625,9.53125 12.421875,10.3125 12.421875,10.3125 L13.3984375,10.3125 C13.3203125,9.6484375 13.6328125,9.296875 13.6328125,9.296875 Z M15.3515625,9.53125 C15.2215291,9.81245061 15.1938933,10.1302628 15.2734375,10.4296875 L16.2109375,10.4296875 C16.015625,9.9609375 16.2109375,9.53125 16.2109375,9.53125 L15.3515625,9.53125 Z" id="Shape" fill="#EEEEEE"></path>
                </g>
            </g>
        </g>
    </g>
</svg>