<?xml version="1.0" encoding="UTF-8"?>
<svg width="20px" height="20px" viewBox="0 0 20 20" version="1.1" xmlns="http://www.w3.org/2000/svg" xmlns:xlink="http://www.w3.org/1999/xlink">
    <title>si_flag_20px</title>
    <defs>
        <circle id="path-1" cx="10" cy="10" r="10"></circle>
    </defs>
    <g id="Design-System" stroke="none" stroke-width="1" fill="none" fill-rule="evenodd">
        <g id="Flags-20x20" transform="translate(-151.000000, -1455.000000)">
            <g id="flag" transform="translate(151.000000, 1455.000000)">
                <mask id="mask-2" fill="white">
                    <use xlink:href="#path-1"></use>
                </mask>
                <use id="Mask" fill="#D8D8D8" xlink:href="#path-1"></use>
                <g id="si" mask="url(#mask-2)" fill-rule="nonzero">
                    <polygon id="Path" fill="#0052B4" points="0 6.5234375 9.9140625 5.76953125 20 6.5234375 20 13.4765625 10.0429688 14.7382812 0 13.4765625"></polygon>
                    <polygon id="Path" fill="#EEEEEE" points="0 0 20 0 20 6.5234375 0 6.5234375"></polygon>
                    <polygon id="Path" fill="#D80027" points="0 13.4765625 20 13.4765625 20 20 0 20"></polygon>
                    <polygon id="Path" fill="#0052B4" points="8.69921875 6.5234375 8.69921875 3.9140625 3.4765625 3.9140625 3.4765625 6.5234375 6.09375 9.75"></polygon>
                    <path d="M3.4765625,6.5234375 L3.4765625,7.390625 C3.4765625,9.38671875 6.0859375,10 6.0859375,10 C6.0859375,10 8.6953125,9.38671875 8.6953125,7.390625 L8.6953125,6.5234375 L7.82421875,7.390625 L6.0859375,6.0859375 L4.34765625,7.390625 L3.4765625,6.5234375 Z" id="Path" fill="#EEEEEE"></path>
                </g>
            </g>
        </g>
    </g>
</svg>