<?xml version="1.0" encoding="UTF-8"?>
<svg width="20px" height="20px" viewBox="0 0 20 20" version="1.1" xmlns="http://www.w3.org/2000/svg" xmlns:xlink="http://www.w3.org/1999/xlink">
    <title>sk_flag_20px</title>
    <defs>
        <circle id="path-1" cx="10" cy="10" r="10"></circle>
    </defs>
    <g id="Design-System" stroke="none" stroke-width="1" fill="none" fill-rule="evenodd">
        <g id="Flags-20x20" transform="translate(-201.000000, -1455.000000)">
            <g id="flag" transform="translate(201.000000, 1455.000000)">
                <mask id="mask-2" fill="white">
                    <use xlink:href="#path-1"></use>
                </mask>
                <use id="Mask" fill="#D8D8D8" xlink:href="#path-1"></use>
                <g id="sk" mask="url(#mask-2)" fill-rule="nonzero">
                    <polygon id="Path" fill="#0052B4" points="0 6.25 10 5 20 6.25 20 13.75 10 15 0 13.75"></polygon>
                    <polygon id="Path" fill="#EEEEEE" points="0 0 20 0 20 6.25 0 6.25"></polygon>
                    <polygon id="Path" fill="#D80027" points="0 13.75 20 13.75 20 20 0 20"></polygon>
                    <path d="M2.5,2.4609375 L2.5,10.9375 C2.5,15 8.125,16.2890625 8.125,16.2890625 C8.125,16.2890625 13.75,15 13.75,10.9375 L13.75,2.4609375 L2.5,2.4609375 Z" id="Path" fill="#EEEEEE"></path>
                    <path d="M3.75,3.7109375 L3.75,10.9375 C3.75850039,11.399534 3.8787204,11.8536985 4.1015625,12.265625 L12.1484375,12.265625 C12.3739968,11.8538328 12.4942935,11.3993787 12.5,10.9375 L12.5,3.7109375 L3.75,3.7109375 Z" id="Path" fill="#D80027"></path>
                    <polygon id="Path" fill="#EEEEEE" points="11.25 8.75 8.75 8.75 8.75 7.5 10 7.5 10 6.25 8.75 6.25 8.75 5 7.5 5 7.5 6.25 6.25 6.25 6.25 7.5 7.5 7.5 7.5 8.75 5 8.75 5 10 7.5 10 7.5 11.25 8.75 11.25 8.75 10 11.25 10"></polygon>
                    <path d="M5.9375,14.0234375 C6.62198005,14.4200809 7.35686019,14.7350295 8.125,14.9609375 C8.59375,14.84375 9.453125,14.53125 10.3125,14.0234375 C11.0872981,13.6083937 11.7230577,12.9996877 12.1484375,12.265625 C11.7583535,12.0128419 11.2951981,11.8766197 10.8203125,11.875 L10.2734375,11.953125 C9.90086159,11.1555339 9.05724938,10.6398651 8.125,10.6398651 C7.19275062,10.6398651 6.34913841,11.1555339 5.9765625,11.953125 C5.79821479,11.9070235 5.61464454,11.8807992 5.4296875,11.875 C4.9609375,11.875 4.4921875,12.03125 4.1015625,12.265625 C4.52694227,12.9996877 5.16270193,13.6083937 5.9375,14.0234375 L5.9375,14.0234375 Z" id="Path" fill="#0052B4"></path>
                </g>
            </g>
        </g>
    </g>
</svg>