<?xml version="1.0" encoding="UTF-8"?>
<svg width="20px" height="20px" viewBox="0 0 20 20" version="1.1" xmlns="http://www.w3.org/2000/svg" xmlns:xlink="http://www.w3.org/1999/xlink">
    <title>sm_flag_20px</title>
    <defs>
        <circle id="path-1" cx="10" cy="10" r="10"></circle>
    </defs>
    <g id="Design-System" stroke="none" stroke-width="1" fill="none" fill-rule="evenodd">
        <g id="Flags-20x20" transform="translate(-301.000000, -1455.000000)">
            <g id="flag" transform="translate(301.000000, 1455.000000)">
                <mask id="mask-2" fill="white">
                    <use xlink:href="#path-1"></use>
                </mask>
                <use id="Mask" fill="#D8D8D8" xlink:href="#path-1"></use>
                <g id="sm" mask="url(#mask-2)" fill-rule="nonzero">
                    <polygon id="Path" fill="#338AF3" points="0 10 10 7.95703125 20 10 20 20 0 20"></polygon>
                    <polygon id="Path" fill="#EEEEEE" points="0 0 20 0 20 10 0 10"></polygon>
                    <path d="M13.96875,6.8984375 L10,10.8710938 L6.03125,6.8984375 C5.49977401,7.68652945 5.21675897,8.61585289 5.21873957,9.56640625 L5.21873957,10.8710938 C5.21873957,12.9648438 6.5703125,14.7460938 8.44921875,15.3945312 C8.18915111,15.9007063 8.25031828,16.512378 8.60546875,16.9570312 L10.0273438,15.8164063 L11.4492188,16.9570312 C11.811415,16.5074455 11.8713119,15.8854398 11.6015625,15.375 C13.5059881,14.6954981 14.7784456,12.8931105 14.78125,10.8710938 L14.78125,9.56640625 C14.78125,8.578125 14.484375,7.6640625 13.96875,6.8984375 L13.96875,6.8984375 Z" id="Path" fill="#6DA544"></path>
                    <path d="M10,14.3476562 C8.08203125,14.3476562 6.5234375,12.7851562 6.5234375,10.8710938 L6.5234375,9.56640625 C6.61144663,7.71037287 8.14188119,6.25078866 10,6.25078866 C11.8581188,6.25078866 13.3885534,7.71037287 13.4765625,9.56640625 L13.4765625,10.8710938 C13.4765625,12.7851562 11.9179688,14.3476562 10,14.3476562 Z" id="Path" fill="#FFDA44"></path>
                    <path d="M12.1757812,10.8710937 L12.1757812,9.56640625 C12.1757812,8.36475545 11.2016508,7.390625 10,7.390625 C8.7983492,7.390625 7.82421875,8.36475545 7.82421875,9.56640625 L7.82421875,10.8710937 L10,11.3007812 L12.1757812,10.8710937 Z" id="Path" fill="#338AF3"></path>
                    <path d="M7.82421875,10.8710938 C7.82421875,12.0727446 8.7983492,13.046875 10,13.046875 C11.2016508,13.046875 12.1757813,12.0727446 12.1757813,10.8710938 L7.82421875,10.8710938 Z" id="Path" fill="#6DA544"></path>
                    <path d="M12.6093754,6.0859375 C12.6097615,5.56998543 12.3060547,5.10226965 11.8345716,4.89272161 C11.3630886,4.68317357 10.8124032,4.77115952 10.4296875,5.1171875 L10.4296875,4.3515625 L10.8671875,4.3515625 L10.8671875,3.4765625 L10.4296875,3.4765625 L10.4296875,3.046875 L9.5703125,3.046875 L9.5703125,3.4765625 L9.1328125,3.4765625 L9.1328125,4.34765625 L9.5703125,4.34765625 L9.5703125,5.11328125 C9.03116469,4.65141517 8.22167621,4.70540498 7.74864042,5.23477987 C7.27560462,5.76415476 7.31266064,6.57459498 7.83203125,7.05859375 L7.83203125,7.82421875 L12.1796875,7.82421875 L12.1796875,7.05859375 C12.4453125,6.8203125 12.6093754,6.47265625 12.6093754,6.0859375 L12.6093754,6.0859375 Z" id="Path" fill="#FFDA44"></path>
                </g>
            </g>
        </g>
    </g>
</svg>