<?xml version="1.0" encoding="UTF-8"?>
<svg width="20px" height="20px" viewBox="0 0 20 20" version="1.1" xmlns="http://www.w3.org/2000/svg" xmlns:xlink="http://www.w3.org/1999/xlink">
    <title>somaliland_flag_20px</title>
    <defs>
        <circle id="path-1" cx="10" cy="10" r="10"></circle>
    </defs>
    <g id="Design-System" stroke="none" stroke-width="1" fill="none" fill-rule="evenodd">
        <g id="Flags-20x20" transform="translate(-451.000000, -1455.000000)">
            <g id="flag" transform="translate(451.000000, 1455.000000)">
                <mask id="mask-2" fill="white">
                    <use xlink:href="#path-1"></use>
                </mask>
                <use id="Mask" fill="#D8D8D8" xlink:href="#path-1"></use>
                <g id="somaliland" mask="url(#mask-2)" fill-rule="nonzero">
                    <polygon id="Path" fill="#EEEEEE" points="0 6.5234375 9.9140625 5.76953125 20 6.5234375 20 13.4765625 10.0429688 14.7382812 0 13.4765625"></polygon>
                    <polygon id="Path" fill="#496E2D" points="0 0 20 0 20 6.5234375 0 6.5234375"></polygon>
                    <polygon id="Path" fill="#D80027" points="0 13.4765625 20 13.4765625 20 20 0 20"></polygon>
                    <polygon id="Path" fill="#333333" points="10 7.82421875 10.5390625 9.48828125 12.2851562 9.48828125 10.875 10.5078125 11.4140625 12.171875 10 11.1445312 8.5859375 12.171875 9.125 10.5078125 7.71484375 9.484375 9.4609375 9.484375"></polygon>
                    <g id="Group" transform="translate(6.160156, 1.953125)" fill="#EEEEEE">
                        <path d="M6.80859375,0 L6.80859375,2.03125 C6.80859375,2.3515625 6.55078125,2.61328125 6.23046875,2.61328125 L6.23046875,3.4765625 C7.02932716,3.4765625 7.67753424,2.83010551 7.6796875,2.03125 L7.6796875,0 L6.8125,0 L6.80859375,0 Z M0.578125,2.03125 C0.578125,2.3515625 0.3203125,2.61328125 0,2.61328125 L0,3.4765625 C0.797333348,3.47441623 1.44316623,2.82858335 1.4453125,2.03125 L1.4453125,0 L0.578125,0 L0.578125,2.03125 Z" id="Shape"></path>
                        <path d="M5.5078125,0 L6.375,0 L6.375,2.03125 L5.5078125,2.03125 L5.5078125,0 Z M4.203125,1.1640625 C4.203125,1.24388491 4.13841616,1.30859375 4.05859375,1.30859375 C3.97877134,1.30859375 3.9140625,1.24388491 3.9140625,1.1640625 L3.9140625,0 L3.04296875,0 L3.04296875,1.16015625 C3.04296875,1.19848832 3.02774139,1.23525041 3.00063653,1.26235528 C2.97353166,1.28946014 2.93676957,1.3046875 2.8984375,1.3046875 C2.86010543,1.3046875 2.82334334,1.28946014 2.79623847,1.26235528 C2.76913361,1.23525041 2.75390625,1.19848832 2.75390625,1.16015625 L2.75390625,0 L1.8828125,0 L1.8828125,1.16015625 C1.8828125,1.72107045 2.3375233,2.17578125 2.8984375,2.17578125 C3.10542698,2.17540461 3.30728047,2.11130249 3.4765625,1.9921875 C3.6473943,2.11068448 3.85069338,2.17344795 4.05859375,2.171875 C4.09765625,2.171875 4.14453125,2.171875 4.18359375,2.1640625 C4.12074489,2.42415099 3.88866388,2.6078818 3.62109375,2.609375 L3.62109375,3.4765625 C4.41995216,3.4765625 5.06815924,2.83010551 5.0703125,2.03125 L5.0703125,0 L4.203125,0 L4.203125,1.16015625 L4.203125,1.1640625 Z" id="Shape"></path>
                        <polygon id="Path" points="1.88671875 2.61328125 3.1875 2.61328125 3.1875 3.4765625 1.8828125 3.4765625"></polygon>
                    </g>
                </g>
            </g>
        </g>
    </g>
</svg>