<?xml version="1.0" encoding="UTF-8"?>
<svg width="20px" height="20px" viewBox="0 0 20 20" version="1.1" xmlns="http://www.w3.org/2000/svg" xmlns:xlink="http://www.w3.org/1999/xlink">
    <title>south_america_flag_20px</title>
    <defs>
        <path d="M10,0 C4.48000044,0 -1.13686829e-15,4.48000004 -1.13686829e-15,10 C-1.13686829e-15,15.5199996 4.48000044,20 10,20 C15.519994,20 20,15.5199996 20,10 C20,4.48000044 15.519998,0 10,0 Z" id="path-1"></path>
    </defs>
    <g id="Sports-Forecasts" stroke="none" stroke-width="1" fill="none" fill-rule="evenodd">
        <g id="south_america_flag_20px" transform="translate(-0.000000, 0.000000)">
            <mask id="mask-2" fill="white">
                <use xlink:href="#path-1"></use>
            </mask>
            <use id="circle-path" fill="#DA121A" fill-rule="nonzero" xlink:href="#path-1"></use>
            <path d="M10,0 C4.48000044,0 -1.13686829e-15,4.48000004 -1.13686829e-15,10 C-1.13686829e-15,15.5199996 4.48000044,20 10,20 C15.519994,20 20,15.5199996 20,10 C20,4.48000044 15.519998,0 10,0 Z M9.87987961,0.667229547 C9.92001161,0.666720747 9.9597476,0.667229547 9.9999996,0.667229547 C15.151998,0.667229547 19.3337057,4.84800001 19.3337057,10 C19.3337057,15.1519996 15.151998,19.3337089 9.9999996,19.3337089 C4.84800041,19.3337089 0.667229547,15.152 0.667229547,10 C0.667229547,4.88824961 4.78337282,0.731858341 9.87987961,0.667229547 Z" id="circle" fill="#FCDD09" fill-rule="nonzero" mask="url(#mask-2)"></path>
            <path d="M7.91253137,2.00000104 L7.5141186,2.27118742 L7.30654502,2.28625302 L7.27473782,2.36660501 L7.14751303,2.34986421 L7.03535704,2.41347621 L6.92487465,2.57250499 L6.92487465,2.60598499 L6.93993544,2.71646818 L6.62188347,2.93910936 L6.65368667,3.08307215 L6.53650908,2.97258936 L6.56999027,3.08307215 L6.45615628,3.19020814 L6.42435309,3.14835815 L6.38919829,3.26553734 L6.50972348,3.40113053 L6.44611308,3.94350368 L6.55826908,3.99204848 L6.52646588,4.05566088 L6.38250269,4.29504166 L6.1916675,4.37371925 L6.1916675,4.53274804 L6.06444271,4.56455363 L6.09624991,4.69345042 L5.84180433,4.78886882 L5.82506593,4.80393442 L5.84180433,4.88428561 L5.85686513,4.93115801 L5.84180433,4.9478976 L5.72964434,5.09186079 L5.77651634,5.13873319 L5.63422675,5.25088958 L5.63422675,5.55388236 L5.79325874,5.63255995 L5.84180433,5.53714196 L5.87360753,5.50533636 L5.92047953,5.58568755 L5.84180433,5.77652314 L5.55387796,6.03096992 L5.66603395,6.35070109 L5.60241955,6.44611948 L5.87360753,6.58840787 L6.12805711,6.92320585 L6.33563469,7.33835541 L6.47792428,7.64134819 L6.84452185,8.13517535 L6.81271865,8.26239894 L6.93993544,8.43816732 L7.13244823,8.61226291 L8.02468736,9.01067208 L8.31094414,9.28185846 L8.37454653,9.68026843 L8.40635773,10.0318064 L8.31094414,10.5574388 L8.37454653,11.0194607 L8.21552654,11.9116974 L8.29587534,12.1510774 L8.27913294,12.1828834 L8.21552654,12.3251726 L8.31094414,13.0583802 L8.10336655,13.9188117 L8.00794896,13.9824233 L8.16697295,14.4779248 L8.08829775,14.8595936 L8.18371535,14.9717512 L8.15191215,15.0186228 L8.27913294,14.9399448 L8.35948573,14.9717512 L8.40635773,14.9232052 L8.31094414,15.0504288 L8.42309213,15.0989748 L8.40635773,15.177652 L8.32767453,15.13078 L8.40635773,15.2094576 L8.34274333,15.177652 L8.32767453,15.4019664 L8.40635773,15.480644 L8.32767453,15.5609952 L8.46996412,15.6413467 L8.32767453,15.8003763 L8.45490332,15.8472479 L8.32767453,15.8639879 L8.32767453,15.9426655 L8.40635773,15.8957931 L8.35948573,16.1033683 L8.29587534,16.0230167 L8.19878414,16.0380827 L8.27913294,16.0230167 L8.21552654,16.0230167 L8.24732574,15.9426655 L8.19878414,16.0062775 L8.13516575,15.9594051 L8.07155535,15.9744715 L8.18371535,16.0062775 L8.13516575,16.0866287 L8.05146896,16.1586095 L8.13516575,16.1033683 L8.16697295,16.1820455 L8.26239454,16.1669803 L8.32767453,16.2623975 L8.24732574,16.3260091 L8.34274333,16.3260091 L8.21552654,16.3728815 L8.37454653,16.3410747 L8.48670652,16.4214271 L8.40635773,16.4046863 L8.46996412,16.4850387 L8.24732574,16.4364927 L8.39128893,16.5168443 L8.31094414,16.5653899 L8.37454653,16.5971955 L8.34274333,16.7394847 L8.39128893,16.6926131 L8.48670652,16.8030963 L8.37454653,16.7880307 L8.42309213,16.8683823 L8.46996412,16.9319938 L8.34274333,16.9152538 L8.45490332,16.9470594 L8.46996412,17.059217 L8.51851372,16.9470594 L8.56538171,17.010671 L8.46996412,17.059217 L8.43816492,17.0742826 L8.53357852,17.1060882 L8.51851372,17.2182458 L8.61393531,17.298597 L8.59719291,17.2182458 L8.64573851,17.298597 L8.59719291,17.1864406 L8.7260873,17.2333118 L8.58212411,17.1696998 L8.64573851,17.1060882 L8.62899611,17.1864406 L8.7411561,17.2333118 L8.7093489,17.377275 L8.7093489,17.2818578 L8.6942841,17.362209 L8.67754171,17.298597 L8.64573851,17.298597 L8.61393531,17.298597 L8.56538171,17.298597 L8.59719291,17.4576262 L8.7093489,17.394015 L8.91692249,17.394015 L8.96379448,17.5044982 L8.88511529,17.5999158 L8.90018409,17.5363046 L8.8047665,17.5681102 L8.99560568,17.6635274 L9.01234008,17.4090814 L9.25172486,17.298597 L9.39401445,17.3136634 L9.28352806,17.1696998 L9.18810646,17.1696998 L9.28352806,17.1546346 L9.18810646,17.059217 L9.33039605,16.8516419 L9.29859686,16.8198363 L9.26678566,16.7562243 L9.31533125,16.8198363 L9.33039605,16.8349023 L9.39401445,16.8198363 L9.39401445,16.8030963 L9.42581765,16.5971955 L9.71374402,16.3410747 L9.69700162,16.1820455 L9.52290484,16.1502407 L9.36220325,15.9426655 L9.45762084,15.7518307 L9.71374402,15.6731527 L9.72881282,15.3852272 L9.90457521,15.2261972 L9.77735442,15.145846 L9.88783681,15.11404 L9.93638641,15.1943912 L10.031804,15.13078 L9.9999928,15.0186228 L9.87277201,15.0989748 L9.76061202,15.0186228 L9.74554722,14.7005648 L9.984932,14.795982 L10.254442,14.7323704 L10.254442,14.3490269 L10.3197264,14.3808324 L10.254442,14.2385429 L10.4938232,14.2854153 L10.7013967,14.2385429 L11.0043919,14.1749317 L11.1952231,14.0795145 L11.3709935,13.7915881 L11.3709935,13.6643653 L11.2437727,13.5689477 L11.2906407,13.4099181 L11.0043919,13.1856037 L11.0512635,12.8675458 L11.0361951,13.075121 L11.1634159,13.2023433 L11.4982143,13.3295665 L11.9116954,13.2826957 L12.2632326,12.8993514 L12.3586498,12.5963594 L12.6449066,12.2615614 L12.598031,12.1661438 L12.7403202,12.2933666 L12.3904534,12.6917762 L12.6767058,12.4540706 L12.8524722,12.1828834 L12.9646326,12.0238546 L13.1872745,11.8480859 L13.2826961,11.4965475 L13.2190777,11.2906467 L13.3463025,11.1148775 L13.2676237,11.0663319 L13.3781137,11.0981375 L13.5371377,10.9073027 L13.8250645,10.7315339 L14.0326381,10.7315339 L14.2870833,10.5406992 L14.462854,10.5892448 L14.573344,10.5088936 L14.573344,10.5892448 L14.8127168,10.6043108 L14.8294596,10.4938276 L15.0671664,10.39841 L15.0520976,10.269512 L15.3383544,9.90290881 L15.386896,9.82423121 L15.4505064,9.52123924 L15.592796,9.37727685 L15.7853047,8.18204695 L15.8171119,8.11843495 L15.8639839,8.23059214 L15.9594015,8.16698055 L16.4549055,7.57773659 L16.7411583,7.21113182 L16.7880303,6.92320585 L16.7093471,6.50972988 L16.6289983,6.39757349 L16.2942039,6.31889549 L15.9912127,5.96735792 L15.6413455,5.71291114 L15.115716,5.64929915 L14.844524,5.49027036 L14.4946572,5.69617154 L14.526468,5.53714196 L14.6218856,5.47353076 L14.462854,5.49027036 L14.5900748,5.39317917 L14.5097256,5.23414998 L14.3992436,5.32956757 L14.3825008,5.20234438 L14.3339553,5.25088958 L14.3657665,5.20234438 L14.2870833,5.21908438 L14.2234769,5.12366679 L14.1916661,5.18727799 L14.1749273,5.09186079 L14.1431241,5.13873319 L13.9037433,4.9947696 L13.8886745,5.0433148 L13.7296469,4.9947696 L13.6174905,5.17053839 L13.7129081,5.20234438 L13.6342333,5.23414998 L13.5689449,5.15547239 L13.3630453,5.37811317 L13.4266557,5.21908438 L13.1387289,5.25088958 L13.5220729,5.17053839 L13.6492937,4.89935121 L13.1554673,4.82067361 L13.0433154,5.0265748 L13.0433154,4.91609201 L12.9328294,5.0115096 L12.9328294,4.89935121 L12.820669,5.0115096 L12.9160866,4.80393442 L13.2676237,4.51768204 L13.2190777,4.51768204 L13.2676237,4.40552445 L13.0600462,4.29504166 L12.9160866,3.7995401 L12.8524722,3.7526681 L12.8374078,3.83301969 L12.8340638,3.82799849 L12.6767058,3.62544491 L12.2699278,3.42121853 L12.1996222,3.38606493 L11.4664151,3.36932453 L11.1634159,3.13161855 L11.0830627,3.24210094 L11.1316127,3.03620136 L10.9876455,2.89223737 L10.7650071,2.76501458 L10.7013967,2.74827418 L10.5423648,2.74827418 L10.5423648,2.57250499 L10.3515336,2.4620222 L10.1757632,2.4938278 L10.143964,2.4452818 L10.0485424,2.36660501 L10.302984,2.28625302 L9.71374402,2.30299302 L9.85603321,2.34986421 L9.50616644,2.4452818 L9.21991366,2.31805821 L8.7578945,2.38167021 L8.6942841,2.22264102 L8.40635773,2.19083502 L8.31094414,2.03180664 L8.26239454,2.15902943 L8.35948573,2.14229023 L8.35948573,2.19083502 L8.27913294,2.17409583 L7.92926577,2.34986421 L8.00794896,2.5256334 L8.05649456,2.57250499 L8.03975216,2.66959659 L7.88072417,2.73320858 L7.78530258,2.57250499 L7.81711377,2.5406994 L7.92926577,2.38167021 L7.83217457,2.19083502 L8.05649456,2.07867823 L7.91253137,2.00000104 Z M8.75458449,17.394015 L8.66247691,17.500359 L8.78747691,17.519015 L8.75458449,17.394015 Z M8.10641806,16.1904373 L8.06980306,16.2165961 L8.07503306,16.2218261 L8.10641806,16.1904373 Z M8.05757978,16.1686539 L8.02468736,16.2043671 L8.14968736,16.2936539 L8.05757978,16.1686539 Z M13.3312381,4.72525722 L13.1554673,4.74499335 L13.2508849,4.85025722 L13.3312381,4.72525722 Z M3.25883494,5.34630717 L3.21196334,5.39485277 L3.32244933,5.52207596 L3.22703174,5.60242795 L3.32244933,5.60242795 L3.38773373,5.53714196 L3.25883494,5.34630717 Z M5.91825874,5.61749435 L5.86878196,5.64353552 L5.79325874,5.64353552 L5.84274174,5.74249435 L5.86878196,5.6669719 L5.91825874,5.61749435 Z M8.27913294,14.827788 L8.40413294,14.9033086 L8.27913294,14.952788 L8.27913294,14.827788 Z M8.08829775,15.0353624 L8.08829775,15.3869008 L8.16697295,15.4019664 L8.24732574,15.3383548 L8.18371535,15.0353624 L8.08829775,15.0353624 Z M8.4098964,15.6095416 L8.31094414,15.6815106 L8.43594414,15.7345416 L8.4098964,15.6095416 Z M8.18371535,16.0548223 L8.30871535,16.0808652 L8.24622714,16.1798223 L8.18371535,16.0548223 Z M8.25718448,16.4699719 L8.21552654,16.5949719 L8.34052654,16.5949719 L8.25718448,16.4699719 Z M8.26406814,16.5971955 L8.27913294,16.7411587 L8.16697295,16.7411587 L8.26406814,16.8683823 L8.31094414,16.7244187 L8.29587534,16.8834474 L8.37454653,16.8365763 L8.26406814,16.5971955 Z M8.21552654,16.9001882 L8.27801868,17.0251882 L8.34052654,16.9001882 L8.21552654,16.9001882 Z M9.33039605,17.362209 L9.09269287,17.4258206 L9.10775367,17.5530438 L9.26678566,17.5530438 L9.18810646,17.6802674 L9.36220325,17.760619 L9.31533125,17.8074902 L9.28352806,17.743879 L9.25172486,17.7924246 L9.06088968,17.712073 L9.18810646,17.7924246 L9.10775367,17.8074902 L9.09269287,17.743879 L8.93198729,17.8242306 L9.69700162,17.8560366 L9.92131761,17.775685 L9.50616644,17.6166554 L9.33039605,17.362209 Z M8.7578945,17.4258206 L8.7260873,17.5379782 L8.8047665,17.5848494 L8.7729593,17.5379782 L8.91692249,17.4258206 L8.7578945,17.4258206 Z M8.45490332,17.4576262 L8.56538171,17.5471788 L8.7260873,17.5826262 L8.45490332,17.4576262 Z M8.7260873,17.5697838 L8.64573851,17.6484614 L8.7411561,17.712073 L8.8047665,17.6652006 L8.7578945,17.712073 L8.86837689,17.6484614 L8.7260873,17.5697838 Z M9.11391361,17.5848494 L9.06088968,17.6802674 L9.18588968,17.728813 L9.11391361,17.5848494 Z M8.94872968,17.6802674 L8.96551909,17.7756619 L9.07372968,17.8052674 L8.94872968,17.6802674 Z M9.44255604,17.8560366 L9.21991366,17.9045818 L9.33039605,17.9832598 L9.29859686,17.9196482 L9.39401445,17.9196482 L9.39401445,17.9681938 L9.52290484,17.9999994 L9.36220325,17.8878426 L9.44255604,17.8560366 Z" id="path5727" stroke="#FCDD09" fill="#FCDD09" fill-rule="nonzero" stroke-linecap="round" stroke-linejoin="round" mask="url(#mask-2)"></path>
        </g>
    </g>
</svg>