<svg width="16" height="16" viewBox="0 0 16 16" xmlns="http://www.w3.org/2000/svg" xmlns:xlink="http://www.w3.org/1999/xlink">
    <defs>
        <path d="M8 0C3.584 0 0 3.584 0 8s3.584 8 8 8 8-3.584 8-8-3.584-8-8-8z" id="mcq0398fja"/>
    </defs>
    <g fill="none" fill-rule="evenodd">
        <mask id="gib1gtn1zb" fill="#fff">
            <use xlink:href="#mcq0398fja"/>
        </mask>
        <use fill="#DA121A" fill-rule="nonzero" xlink:href="#mcq0398fja"/>
        <path d="M8 0C3.584 0 0 3.584 0 8s3.584 8 8 8 8-3.584 8-8-3.584-8-8-8zm-.096.534H8A7.47 7.47 0 0 1 15.467 8 7.47 7.47 0 0 1 8 15.467 7.47 7.47 0 0 1 .534 8 7.47 7.47 0 0 1 7.904.534z" fill="#FCDD09" fill-rule="nonzero" mask="url(#gib1gtn1zb)"/>
        <path d="m6.33 1.6-.319.217-.166.012-.025.064-.102-.013-.09.05-.088.128v.027l.012.088-.254.178.025.115-.094-.088.027.088-.091.086-.026-.033-.028.093.097.109-.051.434.09.039-.026.05-.115.192-.153.063v.127l-.101.026.025.103-.204.076-.013.012.013.064.012.038-.012.013-.09.115.038.038-.114.09v.242l.128.063.038-.076.026-.026.037.065-.063.152-.23.204.09.256-.051.076.217.114.203.268.167.332.113.242.294.395-.026.102.102.14.154.14.714.319.229.216.05.32.026.28-.076.421.05.37-.127.713.065.192-.014.025-.05.114.076.587-.166.688-.077.05.128.397-.063.306.076.09-.025.037.101-.063.065.025.037-.038-.076.101.09.04-.014.062-.063-.037.063.063-.05-.026-.013.18.063.063-.063.064.114.064-.114.127.102.038-.102.013v.063l.063-.037-.037.166-.051-.065-.078.012.064-.012h-.05l.025-.064-.039.051-.05-.037-.052.012.09.025-.039.064-.067.058.067-.044.026.063.076-.012.052.076-.064.05h.076l-.102.038.128-.025.09.064-.065-.013.051.064-.178-.039.115.064-.064.04.05.025-.025.114.039-.038.076.088-.09-.012.04.065.037.05-.102-.013.09.026.012.09.039-.09.037.05-.076.04-.025.011.076.026-.012.09.076.064-.013-.064.039.064-.04-.09.104.038-.115-.051.05-.051-.013.064.09.038-.026.115v-.077l-.012.065-.013-.051h-.09l.026.127.09-.05h.166l.037.088-.063.076.012-.051-.076.025.152.077.014-.204.191-.088.114.012-.088-.115H7.35l.077-.012-.077-.077.114-.166-.025-.025-.026-.051.04.05.011.013.051-.012v-.014l.026-.164.23-.205-.013-.127-.14-.026-.128-.166.076-.153.205-.062.012-.23.14-.128-.101-.064.088-.026.04.065.075-.051-.025-.09-.102.064-.09-.064-.012-.255.192.077.216-.051v-.307l.052.026-.052-.114.191.037.166-.037.243-.051.152-.076.14-.23v-.103l-.101-.076.038-.127-.23-.18.038-.254-.012.166.102.102.268.102.33-.038.282-.307.076-.242.229-.268-.038-.076.114.102-.28.318.23-.19.14-.217.09-.127.178-.14.076-.282-.05-.164.101-.141-.063-.039.088.026.128-.153.23-.14h.166l.204-.153.14.038.089-.064v.064l.191.012.014-.088.19-.076-.012-.103.229-.294.039-.063.05-.242.114-.115.154-.956.026-.051.037.09.077-.051.396-.472.229-.293.037-.23-.063-.331-.064-.09-.268-.063-.242-.281-.28-.204-.42-.05-.217-.128-.28.165.025-.127.077-.051-.128.013.102-.077-.064-.128-.089.077-.013-.102-.039.039.026-.04-.063.014-.051-.076-.026.05-.013-.076-.026.038-.191-.115-.012.039-.127-.04-.09.141.076.026-.063.025-.052-.063-.165.178.051-.127-.23.026.307-.065.101-.217-.395-.062-.09.164v-.088l-.088.076v-.09l-.09.09.077-.166.281-.229h-.039l.04-.09-.167-.088-.115-.396-.051-.038-.012.064-.003-.004-.126-.162-.325-.163-.056-.028-.587-.014-.242-.19-.065.089.04-.165-.116-.115-.178-.102-.05-.013h-.128v-.141L8.28 1.97l-.14.025-.026-.039-.076-.063.203-.064-.471.013.114.038-.28.076-.23-.102-.369.051-.05-.127-.23-.025-.077-.128-.04.102.079-.013v.039l-.065-.014-.28.14.063.142.04.037-.014.078-.127.05-.077-.128.026-.025.09-.128-.078-.152.18-.09L6.33 1.6zm.674 12.315L6.93 14l.1.015-.026-.1zm-.519-.963-.03.021.005.004.025-.025zm-.039-.017-.026.028.1.072-.074-.1zm4.219-9.155-.14.016.076.084.064-.1zm-8.058.497-.037.039.088.102-.076.064h.076l.052-.052-.103-.153zm2.128.217-.04.02h-.06l.04.08.02-.06.04-.04zm1.888 7.368.1.06-.1.04v-.1zm-.152.166v.282l.063.012.064-.051-.051-.243h-.076zm.257.46-.08.057.1.043-.02-.1zm-.181.356.1.02-.05.08-.05-.1zm.059.332-.034.1h.1l-.066-.1zm.005.102.012.115h-.09l.078.102.038-.115-.012.127.063-.038-.089-.191zm-.039.242.05.1.05-.1h-.1zm.892.37-.19.05.012.102h.127l-.063.102.14.064-.038.038-.025-.05-.026.038-.152-.064.101.064-.064.012-.012-.05-.128.063.612.026.18-.064-.333-.128-.14-.203zm-.458.05-.025.09.063.038-.026-.038.116-.09h-.128zm-.242.026.088.072.129.028-.217-.1zm.217.09-.064.063.076.05.05-.037-.037.038.089-.051-.114-.063zm.31.012-.042.076.1.04-.058-.116zm-.132.076.013.077.087.023-.1-.1zm.395.14-.178.04.088.063-.025-.051h.076v.039l.103.025-.128-.09.064-.025z" stroke="#FCDD09" fill="#FCDD09" fill-rule="nonzero" stroke-linecap="round" stroke-linejoin="round" mask="url(#gib1gtn1zb)"/>
    </g>
</svg>
