<?xml version="1.0" encoding="UTF-8"?>
<svg width="16px" height="16px" viewBox="0 0 16 16" version="1.1" xmlns="http://www.w3.org/2000/svg" xmlns:xlink="http://www.w3.org/1999/xlink">
    <title>soviet_union_flag_16px</title>
    <defs>
        <circle id="path-1" cx="8" cy="8" r="8"></circle>
    </defs>
    <g id="Design-System" stroke="none" stroke-width="1" fill="none" fill-rule="evenodd">
        <g id="Flags-16x16" transform="translate(-51.000000, -1505.000000)">
            <g id="flag" transform="translate(51.000000, 1505.000000)">
                <mask id="mask-2" fill="white">
                    <use xlink:href="#path-1"></use>
                </mask>
                <use id="Mask" fill="#D8D8D8" xlink:href="#path-1"></use>
                <g id="soviet_union" mask="url(#mask-2)" fill-rule="nonzero">
                    <polygon id="Path" fill="#D80027" points="0 0 16 0 16 16 0 16"></polygon>
                    <polygon id="Path" fill="#FFDA44" points="2.8125 7.59375 3.59375 8.375 4.25 7.71875 7.84375 11.3125 8.40625 10.75 4.8125 7.15625 5.71875 6.25 4.34375 6.0625"></polygon>
                    <path d="M5.40625,5.1875 C5.98903044,5.44246043 6.47206591,5.88158358 6.78125,6.4375 C7.46875,7.625 7.28125,9.03125 6.34375,9.5625 C5.65625,9.96875 4.71875,9.78125 4,9.09375 L2.1875,10.75 L2.75,11.3125 L4.0625,9.875 C4.90625,10.625 6.03125,10.8125 6.875,10.3125 C8,9.65625 8.28125,8.03125 7.5,6.6875 C7.06661088,5.89502318 6.29601389,5.3429537 5.40625,5.1875 Z M4.0625,5 L7.34375,2.59375 L3.28125,2.59375 L6.5625,5 L5.3125,1.125 L4.0625,5 Z" id="Shape" fill="#FFDA44"></path>
                    <polygon id="Path" fill="#D80027" points="4.78125 4.03125 6.1875 2.96875 4.4375 2.96875 5.84375 4.03125 5.3125 2.34375"></polygon>
                </g>
            </g>
        </g>
    </g>
</svg>