<?xml version="1.0" encoding="UTF-8"?>
<svg width="16px" height="16px" viewBox="0 0 16 16" version="1.1" xmlns="http://www.w3.org/2000/svg" xmlns:xlink="http://www.w3.org/1999/xlink">
    <title>sr_flag_16px</title>
    <defs>
        <circle id="path-1" cx="8" cy="8" r="8"></circle>
    </defs>
    <g id="Design-System" stroke="none" stroke-width="1" fill="none" fill-rule="evenodd">
        <g id="Flags-16x16" transform="translate(-101.000000, -1505.000000)">
            <g id="flag" transform="translate(101.000000, 1505.000000)">
                <mask id="mask-2" fill="white">
                    <use xlink:href="#path-1"></use>
                </mask>
                <use id="Mask" fill="#D8D8D8" xlink:href="#path-1"></use>
                <g id="sr" mask="url(#mask-2)" fill-rule="nonzero">
                    <polygon id="Path" fill="#6DA544" points="0 0 16 0 16 3.478125 13.334375 7.95 16 12.521875 16 16 0 16 0 12.521875 2.71875 7.865625 0 3.478125"></polygon>
                    <polygon id="Path" fill="#EEEEEE" points="0 3.478125 16 3.478125 16 5.21875 14.71875 7.865625 16 10.78125 16 12.521875 0 12.521875 0 10.78125 1.38125 8.075 0 5.21875"></polygon>
                    <polygon id="Path" fill="#A2001D" points="0 5.21875 16 5.21875 16 10.78125 0 10.78125"></polygon>
                    <polygon id="Path" fill="#FFDA44" points="8 5.21875 8.690625 7.34375 10.925 7.34375 9.11875 8.65625 9.80625 10.78125 8 9.46875 6.190625 10.78125 6.88125 8.65625 5.075 7.34375 7.309375 7.34375"></polygon>
                </g>
            </g>
        </g>
    </g>
</svg>