<?xml version="1.0" encoding="UTF-8"?>
<svg width="16px" height="16px" viewBox="0 0 16 16" version="1.1" xmlns="http://www.w3.org/2000/svg" xmlns:xlink="http://www.w3.org/1999/xlink">
    <title>ss_flag_16px</title>
    <defs>
        <circle id="path-1" cx="8" cy="8" r="8"></circle>
    </defs>
    <g id="Design-System" stroke="none" stroke-width="1" fill="none" fill-rule="evenodd">
        <g id="Flags-16x16" transform="translate(-151.000000, -1505.000000)">
            <g id="flag" transform="translate(151.000000, 1505.000000)">
                <mask id="mask-2" fill="white">
                    <use xlink:href="#path-1"></use>
                </mask>
                <use id="Mask" fill="#D8D8D8" xlink:href="#path-1"></use>
                <g id="ss" mask="url(#mask-2)" fill-rule="nonzero">
                    <polygon id="Path" fill="#EEEEEE" points="2.315625 3.59375 16 4.903125 16 5.8875 14.675 8.084375 16 10.090625 16 11.075 2.315625 12.0875"></polygon>
                    <polygon id="Path" fill="#333333" points="0 0 16 0 16 4.9 1.5625 4.9"></polygon>
                    <polygon id="Path" fill="#A2001D" points="4.70625 5.884375 16 5.884375 16 10.0875 4.70625 10.0875"></polygon>
                    <polygon id="Path" fill="#496E2D" points="1.5625 11.071875 16 11.071875 16 16 0 16"></polygon>
                    <polygon id="Path" fill="#0052B4" points="0 0 0 16 8 8"></polygon>
                    <polygon id="Path" fill="#FFDA44" points="2.60625 6.0125 3.58125 7.375 5.18125 6.865625 4.184375 8.215625 5.1625 9.578125 3.56875 9.05 2.578125 10.4 2.5875 8.721875 1 8.19375 2.59375 7.6875"></polygon>
                </g>
            </g>
        </g>
    </g>
</svg>