<?xml version="1.0" encoding="UTF-8"?>
<svg width="16px" height="16px" viewBox="0 0 16 16" version="1.1" xmlns="http://www.w3.org/2000/svg" xmlns:xlink="http://www.w3.org/1999/xlink">
    <title>st_flag_16px</title>
    <defs>
        <circle id="path-1" cx="8" cy="8" r="8"></circle>
    </defs>
    <g id="Design-System" stroke="none" stroke-width="1" fill="none" fill-rule="evenodd">
        <g id="Flags-16x16" transform="translate(-201.000000, -1505.000000)">
            <g id="flag" transform="translate(201.000000, 1505.000000)">
                <mask id="mask-2" fill="white">
                    <use xlink:href="#path-1"></use>
                </mask>
                <use id="Mask" fill="#D8D8D8" xlink:href="#path-1"></use>
                <g id="st" mask="url(#mask-2)" fill-rule="nonzero">
                    <polygon id="Path" fill="#6DA544" points="0 0 16 0 16 5.21875 14.35625 7.8375 16 10.78125 16 16 0 16 2.25 7.740625"></polygon>
                    <polygon id="Path" fill="#FFDA44" points="3.590625 5.215625 16 5.215625 16 10.778125 3.590625 10.778125"></polygon>
                    <polygon id="Path" fill="#D80027" points="0 0 0 16 8 8"></polygon>
                    <path d="M10.15625,6.609375 L10.503125,7.671875 L11.625,7.671875 L10.71875,8.328125 L11.065625,9.390625 L10.159375,8.734375 L9.25625,9.390625 L9.6,8.328125 L8.7,7.671875 L9.8125,7.671875 L10.15625,6.609375 Z M13.6375,6.609375 L13.98125,7.671875 L15.1,7.671875 L14.19375,8.328125 L14.540625,9.390625 L13.634375,8.734375 L12.73125,9.390625 L13.078125,8.328125 L12.171875,7.671875 L13.290625,7.671875 L13.6375,6.609375 Z" id="Shape" fill="#333333"></path>
                </g>
            </g>
        </g>
    </g>
</svg>