<?xml version="1.0" encoding="UTF-8"?>
<svg width="16px" height="16px" viewBox="0 0 16 16" version="1.1" xmlns="http://www.w3.org/2000/svg" xmlns:xlink="http://www.w3.org/1999/xlink">
    <title>tc_flag_16px</title>
    <defs>
        <circle id="path-1" cx="8" cy="8" r="8"></circle>
    </defs>
    <g id="Design-System" stroke="none" stroke-width="1" fill="none" fill-rule="evenodd">
        <g id="Flags-16x16" transform="translate(-451.000000, -1505.000000)">
            <g id="flag" transform="translate(451.000000, 1505.000000)">
                <mask id="mask-2" fill="white">
                    <use xlink:href="#path-1"></use>
                </mask>
                <use id="Mask" fill="#D8D8D8" xlink:href="#path-1"></use>
                <g id="tc" mask="url(#mask-2)" fill-rule="nonzero">
                    <polygon id="Path" fill="#0052B4" points="8 0 16 0 16 16 0 16 0 8"></polygon>
                    <polygon id="Path" fill="#EEEEEE" points="0 0 0 1 1 2 0 3 0 8 1 8 2 7 3 8 4 8 4 5.40625 6.59375 8 8 8 7.75 7.5 8 7.03125 8 6.59375 5.40625 4 8 4 8 3 7 2 8 1 8 0 3 0 2 1 1 0"></polygon>
                    <path d="M1,0 L1,1 L0,1 L0,3 L1,3 L1,8 L3,8 L3,3 L8,3 L8,1 L3,1 L3,0 L1,0 Z M4,4 L8,8 L8,7.03125 L4.96875,4 L4,4 Z" id="Shape" fill="#D80027"></path>
                    <path d="M9.04375,4.175 L9.04375,8 C9.04375,9.8625 11.478125,10.4375 11.478125,10.4375 C11.478125,10.4375 13.915625,9.8625 13.915625,8 L13.915625,4.175 L9.040625,4.175 L9.04375,4.175 Z" id="Path" fill="#FFDA44"></path>
                    <path d="M11.13125,5.5625 C11.13125,5.95 10.81875,6.95625 10.434375,6.95625 C10.05,6.95625 9.740625,5.95 9.740625,5.565625 C9.740625,5.18125 10.434375,4.86875 10.434375,4.86875 C10.434375,4.86875 11.13125,5.18125 11.13125,5.565625 L11.13125,5.5625 Z" id="Path" fill="#FF9811"></path>
                    <path d="M12.975,6.321875 C13.0869662,6.04244691 13.1544516,5.74719858 13.175,5.446875 C13.175,5.128125 12.759375,4.86875 12.759375,4.86875 C12.759375,4.86875 12.340625,5.128125 12.340625,5.45 C12.340625,5.65 12.428125,6.05 12.540625,6.325 L12.3,6.865625 C12.445591,6.92638741 12.6016173,6.95822953 12.759375,6.959375 C12.9171327,6.95822953 13.073159,6.92638741 13.21875,6.865625 L12.975,6.321875 Z" id="Path" fill="#A2001D"></path>
                    <path d="M10.95625,8 C10.95625,8 10.609375,8.696875 10.609375,9.390625 L12.34375,9.390625 C12.34375,8.696875 11.996875,8 11.996875,8 L11.475,7.653125 L10.953125,8 L10.95625,8 Z" id="Path" fill="#6DA544"></path>
                    <path d="M12,8 L12,7.825 C12,7.5367764 11.7663486,7.303125 11.478125,7.303125 C11.1899014,7.303125 10.95625,7.5367764 10.95625,7.825 L10.95625,8 L12,8 Z" id="Path" fill="#D80027"></path>
                </g>
            </g>
        </g>
    </g>
</svg>