<?xml version="1.0" encoding="UTF-8"?>
<svg width="20px" height="20px" viewBox="0 0 20 20" version="1.1" xmlns="http://www.w3.org/2000/svg" xmlns:xlink="http://www.w3.org/1999/xlink">
    <title>tc_flag_20px</title>
    <defs>
        <circle id="path-1" cx="10" cy="10" r="10"></circle>
    </defs>
    <g id="Design-System" stroke="none" stroke-width="1" fill="none" fill-rule="evenodd">
        <g id="Flags-20x20" transform="translate(-451.000000, -1505.000000)">
            <g id="flag" transform="translate(451.000000, 1505.000000)">
                <mask id="mask-2" fill="white">
                    <use xlink:href="#path-1"></use>
                </mask>
                <use id="Mask" fill="#D8D8D8" xlink:href="#path-1"></use>
                <g id="tc" mask="url(#mask-2)" fill-rule="nonzero">
                    <polygon id="Path" fill="#0052B4" points="10 0 20 0 20 20 0 20 0 10"></polygon>
                    <polygon id="Path" fill="#EEEEEE" points="0 0 0 1.25 1.25 2.5 0 3.75 0 10 1.25 10 2.5 8.75 3.75 10 5 10 5 6.7578125 8.2421875 10 10 10 9.6875 9.375 10 8.7890625 10 8.2421875 6.7578125 5 10 5 10 3.75 8.75 2.5 10 1.25 10 0 3.75 0 2.5 1.25 1.25 0"></polygon>
                    <path d="M1.25,0 L1.25,1.25 L0,1.25 L0,3.75 L1.25,3.75 L1.25,10 L3.75,10 L3.75,3.75 L10,3.75 L10,1.25 L3.75,1.25 L3.75,0 L1.25,0 Z M5,5 L10,10 L10,8.7890625 L6.2109375,5 L5,5 Z" id="Shape" fill="#D80027"></path>
                    <path d="M11.3046875,5.21875 L11.3046875,10 C11.3046875,12.328125 14.3476562,13.046875 14.3476562,13.046875 C14.3476562,13.046875 17.3945312,12.328125 17.3945312,10 L17.3945312,5.21875 L11.3007812,5.21875 L11.3046875,5.21875 Z" id="Path" fill="#FFDA44"></path>
                    <path d="M13.9140625,6.953125 C13.9140625,7.4375 13.5234375,8.6953125 13.0429688,8.6953125 C12.5625,8.6953125 12.1757812,7.4375 12.1757812,6.95703125 C12.1757812,6.4765625 13.0429688,6.0859375 13.0429688,6.0859375 C13.0429688,6.0859375 13.9140625,6.4765625 13.9140625,6.95703125 L13.9140625,6.953125 Z" id="Path" fill="#FF9811"></path>
                    <path d="M16.21875,7.90234375 C16.3587078,7.55305864 16.4430645,7.18399823 16.46875,6.80859375 C16.46875,6.41015625 15.9492187,6.0859375 15.9492187,6.0859375 C15.9492187,6.0859375 15.4257812,6.41015625 15.4257812,6.8125 C15.4257812,7.0625 15.5351562,7.5625 15.6757812,7.90625 L15.375,8.58203125 C15.5569887,8.65798426 15.7520217,8.69778691 15.9492187,8.69921875 C16.1464158,8.69778691 16.3414488,8.65798426 16.5234375,8.58203125 L16.21875,7.90234375 Z" id="Path" fill="#A2001D"></path>
                    <path d="M13.6953125,10 C13.6953125,10 13.2617188,10.8710938 13.2617188,11.7382812 L15.4296875,11.7382812 C15.4296875,10.8710938 14.9960938,10 14.9960938,10 L14.34375,9.56640625 L13.6914062,10 L13.6953125,10 Z" id="Path" fill="#6DA544"></path>
                    <path d="M15,10 L15,9.78125 C15,9.4209705 14.7079358,9.12890625 14.3476562,9.12890625 C13.9873767,9.12890625 13.6953125,9.4209705 13.6953125,9.78125 L13.6953125,10 L15,10 Z" id="Path" fill="#D80027"></path>
                </g>
            </g>
        </g>
    </g>
</svg>