<?xml version="1.0" encoding="UTF-8"?>
<svg width="20px" height="20px" viewBox="0 0 20 20" version="1.1" xmlns="http://www.w3.org/2000/svg" xmlns:xlink="http://www.w3.org/1999/xlink">
    <title>tf_flag_20px</title>
    <defs>
        <circle id="path-1" cx="10" cy="10" r="10"></circle>
    </defs>
    <g id="Design-System" stroke="none" stroke-width="1" fill="none" fill-rule="evenodd">
        <g id="Flags-20x20" transform="translate(-51.000000, -1555.000000)">
            <g id="flag" transform="translate(51.000000, 1555.000000)">
                <mask id="mask-2" fill="white">
                    <use xlink:href="#path-1"></use>
                </mask>
                <use id="Mask" fill="#D8D8D8" xlink:href="#path-1"></use>
                <g id="tf" mask="url(#mask-2)" fill-rule="nonzero">
                    <polygon id="Path" fill="#0052B4" points="10 0 20 0 20 20 0 20 0 10"></polygon>
                    <polygon id="Path" fill="#EEEEEE" points="0 0 10 0 10 10 0 10"></polygon>
                    <polygon id="Path" fill="#0052B4" points="0 0 2.9296875 0 2.9296875 8.75 0 8.75"></polygon>
                    <polygon id="Path" fill="#D80027" points="5.8203125 0 8.75 0 8.75 8.75 5.8203125 8.75"></polygon>
                    <path d="M12.6171875,6.171875 L13.125,6.9921875 L14.53125,6.9921875 L14.53125,9.765625 L13.4765625,8.0859375 L12.03125,10.390625 L12.734375,10.390625 L13.4765625,9.0625 L15,11.796875 L16.5234375,9.0625 L17.265625,10.390625 L17.96875,10.390625 L16.5234375,8.0859375 L15.46875,9.765625 L15.46875,8.2421875 L16.09375,8.2421875 L16.5625,7.4609375 L15.46875,7.4609375 L15.46875,6.9921875 L16.875,6.9921875 L17.3828125,6.171875 L12.6171875,6.171875 Z M14.296875,9.609375 L12.734375,9.609375 L12.734375,10.15625 L14.296875,10.15625 L14.296875,9.609375 Z M17.265625,9.609375 L15.703125,9.609375 L15.703125,10.15625 L17.265625,10.15625 L17.265625,9.609375 Z" id="Shape" fill="#EEEEEE"></path>
                    <path d="M11.7578125,7.0703125 L12.265625,8.5546875 L10.9375,7.65625 L12.578125,7.65625 L11.25,8.5546875 L11.7578125,7.0703125 Z M18.2421875,7.0703125 L18.75,8.5546875 L17.421875,7.65625 L19.0625,7.65625 L17.734375,8.5546875 L18.2421875,7.0703125 Z M13.2421875,11.015625 L13.75,12.5 L12.421875,11.6015625 L14.0625,11.6015625 L12.734375,12.5 L13.2421875,11.015625 Z M16.7578125,11.015625 L17.265625,12.5 L15.9375,11.6015625 L17.578125,11.6015625 L16.25,12.5 L16.7578125,11.015625 Z M15,12.34375 L15.5078125,13.828125 L14.1796875,12.9296875 L15.8203125,12.9296875 L14.4921875,13.828125 L15,12.34375 Z" id="Shape" fill="#EEEEEE"></path>
                </g>
            </g>
        </g>
    </g>
</svg>