<?xml version="1.0" encoding="UTF-8"?>
<svg width="20px" height="20px" viewBox="0 0 20 20" version="1.1" xmlns="http://www.w3.org/2000/svg" xmlns:xlink="http://www.w3.org/1999/xlink">
    <title>tg_flag_20px</title>
    <defs>
        <circle id="path-1" cx="10" cy="10" r="10"></circle>
    </defs>
    <g id="Design-System" stroke="none" stroke-width="1" fill="none" fill-rule="evenodd">
        <g id="Flags-20x20" transform="translate(-101.000000, -1555.000000)">
            <g id="flag" transform="translate(101.000000, 1555.000000)">
                <mask id="mask-2" fill="white">
                    <use xlink:href="#path-1"></use>
                </mask>
                <use id="Mask" fill="#D8D8D8" xlink:href="#path-1"></use>
                <g id="tg" mask="url(#mask-2)" fill-rule="nonzero">
                    <polygon id="Path" fill="#496E2D" points="10.0097561 0 20 0 20 3.99609756 18.8995122 5.89268293 20 7.99219512 20 11.9882927 18.8097561 13.9668293 20 15.9843902 20 19.9804878 0.0195121951 19.9804878 0.0195121951 15.9843902 1.37365854 13.9941463 0.0195121951 11.9843902"></polygon>
                    <polygon id="Path" fill="#FF9811" points="0.05 1.73658537 0.05 18.2439024 0.05 9.9902439"></polygon>
                    <path d="M9.06146341,3.99609756 L9.06146341,7.99219512 L20,7.99219512 L20,3.99609756 L9.06146341,3.99609756 Z M0.0195121951,11.9882927 L0.0195121951,15.9843902 L20,15.9843902 L20,11.9882927 L10.0097561,11.9882927 L5.00682927,10.9580488 L0.0195121951,11.9882927 Z" id="Shape" fill="#FFDA44"></path>
                    <polygon id="Path" fill="#D80027" points="10.0097561 11.9882927 10.0097561 0 0.0195121951 0 0.0195121951 11.9882927"></polygon>
                    <polygon id="Path" fill="#EEEEEE" points="5.53756098 4.77658537 6.18146341 6.76682927 8.27707317 6.76682927 6.57560976 8 7.22341463 9.9902439 5.5297561 8.76097561 3.84390244 9.9902439 4.48780488 8 2.7902439 6.77073171 4.88585366 6.77073171"></polygon>
                </g>
            </g>
        </g>
    </g>
</svg>