<?xml version="1.0" encoding="UTF-8"?>
<svg width="20px" height="20px" viewBox="0 0 20 20" version="1.1" xmlns="http://www.w3.org/2000/svg" xmlns:xlink="http://www.w3.org/1999/xlink">
    <title>tibet_flag_20px</title>
    <defs>
        <circle id="path-1" cx="10" cy="10" r="10"></circle>
    </defs>
    <g id="Design-System" stroke="none" stroke-width="1" fill="none" fill-rule="evenodd">
        <g id="Flags-20x20" transform="translate(-201.000000, -1555.000000)">
            <g id="flag" transform="translate(201.000000, 1555.000000)">
                <mask id="mask-2" fill="white">
                    <use xlink:href="#path-1"></use>
                </mask>
                <use id="Mask" fill="#D8D8D8" xlink:href="#path-1"></use>
                <g id="tibet" mask="url(#mask-2)" fill-rule="nonzero">
                    <polygon id="Path" fill="#EEEEEE" points="0.484375 18.8242188 19.6679688 18.8476562 10.0195312 9.1875"></polygon>
                    <polygon id="Path" fill="#D80027" points="1.7578125 18.2578125 7.54296875 12.4609375 10.0039062 8.26171875 13.1367188 12.3671875 20 14.1445312 20 10 18.9140625 8.046875 20 5.859375 20 1.74609375 9.84375 0.65234375 0 1.74609375 1.50390625 4.04296875 0 5.859375 0 10.0039062 1.4453125 11.984375 0 14.1484375 0 18.2578125 0.921875 18.875"></polygon>
                    <path d="M20,14.140625 L11.9375,10.8046875 L12.4609375,12.4609375 L18.2539062,18.2578125 L19.1523438,18.9648438 L19.9960938,18.2578125 L20,14.140625 Z M20,10.0039063 L20,5.86328125 L10.0078125,10.0039063 L20,10.0039063 Z M18.2695312,1.7421875 L15.890625,1.046875 L13.4296875,1.7421875 L10.0078125,10.0039063 L18.2695312,1.7421875 Z M10.0078125,1.7421875 L8.38671875,1.0546875 L6.5859375,1.74609375 L10.0078125,10.0078125 L10.0078125,1.7421875 Z M1.74609375,1.7421875 L0.93359375,1.125 L0,1.7421875 L0,5.859375 L10.0078125,10.0039063 L1.74609375,1.7421875 Z M0,10.0039062 L0,14.1484375 L10.0078125,10.0078125 L0,10.0039062 Z" id="Shape" fill="#0052B4"></path>
                    <path d="M10.0078125,10.0039062 L12.46875,12.4648438 C13.8242884,11.106393 13.8227146,8.90651202 12.4652339,7.55000215 C11.1077533,6.19349227 8.90787174,6.19349227 7.55039107,7.55000215 C6.1929104,8.90651202 6.19133661,11.106393 7.546875,12.4648438 L10.0078125,10.0039062 Z M11.53125,15.0039062 L10.015625,15.765625 L8.484375,15.0039062 C8.484375,14.162535 9.1664412,13.4804688 10.0078125,13.4804688 C10.8491838,13.4804688 11.53125,14.162535 11.53125,15.0039062 Z" id="Shape" fill="#FFDA44"></path>
                    <path d="M11.53125,15.0039062 C11.53125,15.8452775 10.8491838,16.5273438 10.0078125,16.5273438 C9.1664412,16.5273438 8.484375,15.8452775 8.484375,15.0039062" id="Path" fill="#0052B4"></path>
                    <path d="M0,0 L0,1.7421875 L20,1.7421875 L20,0 L0,0 Z M0,18.2578125 L0,20 L20,20 L20,18.2578125 L0,18.2578125 Z" id="Shape" fill="#FFDA44"></path>
                </g>
            </g>
        </g>
    </g>
</svg>