<?xml version="1.0" encoding="UTF-8"?>
<svg width="20px" height="20px" viewBox="0 0 20 20" version="1.1" xmlns="http://www.w3.org/2000/svg" xmlns:xlink="http://www.w3.org/1999/xlink">
    <title>tj_flag_20px</title>
    <defs>
        <circle id="path-1" cx="10" cy="10" r="10"></circle>
    </defs>
    <g id="Design-System" stroke="none" stroke-width="1" fill="none" fill-rule="evenodd">
        <g id="Flags-20x20" transform="translate(-251.000000, -1555.000000)">
            <g id="flag" transform="translate(251.000000, 1555.000000)">
                <mask id="mask-2" fill="white">
                    <use xlink:href="#path-1"></use>
                </mask>
                <use id="Mask" fill="#D8D8D8" xlink:href="#path-1"></use>
                <g id="tj" mask="url(#mask-2)" fill-rule="nonzero">
                    <polygon id="Path" fill="#EEEEEE" points="0 5.65234375 9.97265625 4.2265625 20 5.65234375 20 14.3476562 9.78515625 15.8984375 0 14.3476563"></polygon>
                    <polygon id="Path" fill="#D80027" points="0 0 20 0 20 5.65234375 0 5.65234375"></polygon>
                    <polygon id="Path" fill="#6DA544" points="0 14.3476562 20 14.3476562 20 20 0 20"></polygon>
                    <path d="M8.26171875,12.6171875 L11.7382812,12.6171875 L11.7382812,11.1328125 L11.0429687,11.484375 L10,10.4335938 L8.95703125,11.4765625 L8.26171875,11.1289063 L8.26171875,12.6171875 Z M6.26953125,10.875 L6.43359375,11.3710938 L6.953125,11.3710938 L6.52734375,11.6835938 L6.69140625,12.1796875 L6.265625,11.8671875 L5.84375,12.1796875 L6.00390625,11.6796875 L5.5859375,11.3710938 L6.109375,11.3710938 L6.26953125,10.875 Z M6.7734375,9.1328125 L6.93359375,9.6328125 L7.4609375,9.6328125 L7.0390625,9.9453125 L7.19921875,10.4375 L6.77734375,10.1289063 L6.3515625,10.4414063 L6.515625,9.94140625 L6.08984375,9.62890625 L6.61328125,9.62890625 L6.7734375,9.1328125 Z M8.20703125,7.828125 L8.37109375,8.328125 L8.89453125,8.328125 L8.46875,8.640625 L8.6328125,9.1328125 L8.203125,8.83203125 L7.78125,9.13671875 L7.94140625,8.640625 L7.51953125,8.33203125 L8.046875,8.33203125 L8.20703125,7.828125 Z M13.7304688,10.875 L13.5664062,11.3710938 L13.046875,11.3710938 L13.4726562,11.6835938 L13.3085938,12.1796875 L13.734375,11.8671875 L14.15625,12.1796875 L13.9960937,11.6796875 L14.4140625,11.3710938 L13.890625,11.3710938 L13.7304688,10.875 Z M13.2265625,9.1328125 L13.0664063,9.6328125 L12.5390625,9.6328125 L12.9609375,9.9453125 L12.8007812,10.4375 L13.2226563,10.1289063 L13.6484375,10.4414063 L13.484375,9.94140625 L13.9101562,9.62890625 L13.3867188,9.62890625 L13.2265625,9.1328125 Z M11.796875,7.828125 L11.6328125,8.328125 L11.109375,8.328125 L11.5351562,8.640625 L11.3710937,9.1328125 L11.796875,8.83203125 L12.21875,9.13671875 L12.0585937,8.640625 L12.4804687,8.33203125 L11.953125,8.33203125 L11.796875,7.828125 Z M10,7.1796875 L10.1601562,7.67578125 L10.6875,7.67578125 L10.2617188,7.98828125 L10.421875,8.48046875 L10,8.17578125 L9.578125,8.48046875 L9.73828125,7.984375 L9.3125,7.67578125 L9.84375,7.67578125 L10,7.1796875 Z" id="Shape" fill="#FFDA44"></path>
                </g>
            </g>
        </g>
    </g>
</svg>