<?xml version="1.0" encoding="UTF-8"?>
<svg width="20px" height="20px" viewBox="0 0 20 20" version="1.1" xmlns="http://www.w3.org/2000/svg" xmlns:xlink="http://www.w3.org/1999/xlink">
    <title>tk_flag_20px</title>
    <defs>
        <circle id="path-1" cx="10" cy="10" r="10"></circle>
    </defs>
    <g id="Design-System" stroke="none" stroke-width="1" fill="none" fill-rule="evenodd">
        <g id="Flags-20x20" transform="translate(-301.000000, -1555.000000)">
            <g id="flag" transform="translate(301.000000, 1555.000000)">
                <mask id="mask-2" fill="white">
                    <use xlink:href="#path-1"></use>
                </mask>
                <use id="Mask" fill="#D8D8D8" xlink:href="#path-1"></use>
                <g id="tk" mask="url(#mask-2)" fill-rule="nonzero">
                    <polygon id="Path" fill="#0052B4" points="0 0 20 0 20 20 0 20"></polygon>
                    <path d="M7.34375,5.21875 L7.5625,5.8828125 L8.26171875,5.8828125 L7.6953125,6.2890625 L7.91015625,6.953125 L7.34765625,6.54296875 L6.78125,6.953125 L6.99609375,6.2890625 L6.43359375,5.87890625 L7.12890625,5.87890625 L7.34375,5.21875 Z M4.51171875,10 L4.78515625,10.8320312 L5.65625,10.8320312 L4.953125,11.3398438 L5.21875,12.1757812 L4.515625,11.6601562 L3.80859375,12.1757812 L4.078125,11.34375 L3.37109375,10.8320312 L4.2421875,10.8320312 L4.51171875,10 Z M4.51171875,3.046875 L4.78515625,3.875 L5.65625,3.875 L4.953125,4.38671875 L5.21875,5.21875 L4.515625,4.703125 L3.80859375,5.21875 L4.078125,4.38671875 L3.37109375,3.875 L4.2421875,3.875 L4.51171875,3.046875 Z M2.3359375,6.953125 L2.60546875,7.78515625 L3.4765625,7.78515625 L2.7734375,8.30078125 L3.04296875,9.12890625 L2.3359375,8.6171875 L1.62890625,9.12890625 L1.90234375,8.30078125 L1.19140625,7.78515625 L2.0703125,7.78515625 L2.3359375,6.953125 Z" id="Shape" fill="#EEEEEE"></path>
                    <path d="M7.34375,5.21875 L7.5625,5.8828125 L8.26171875,5.8828125 L7.6953125,6.2890625 L7.91015625,6.953125 L7.34765625,6.54296875 L6.78125,6.953125 L6.99609375,6.2890625 L6.43359375,5.87890625 L7.12890625,5.87890625 L7.34375,5.21875 Z M4.51171875,10 L4.78515625,10.8320312 L5.65625,10.8320312 L4.953125,11.3398438 L5.21875,12.1757812 L4.515625,11.6601562 L3.80859375,12.1757812 L4.078125,11.34375 L3.37109375,10.8320312 L4.2421875,10.8320312 L4.51171875,10 Z M4.51171875,3.046875 L4.78515625,3.875 L5.65625,3.875 L4.953125,4.38671875 L5.21875,5.21875 L4.515625,4.703125 L3.80859375,5.21875 L4.078125,4.38671875 L3.37109375,3.875 L4.2421875,3.875 L4.51171875,3.046875 Z M2.3359375,6.953125 L2.60546875,7.78515625 L3.4765625,7.78515625 L2.7734375,8.30078125 L3.04296875,9.12890625 L2.3359375,8.6171875 L1.62890625,9.12890625 L1.90234375,8.30078125 L1.19140625,7.78515625 L2.0703125,7.78515625 L2.3359375,6.953125 Z" id="Shape" fill="#EEEEEE"></path>
                    <path d="M16.0859375,4.78125 L5.65234375,13.4765625 L19.78125,13.4765625 L19.78125,12.078125 C17.4515687,11.0149434 15.9568916,8.6897206 15.9570313,6.12890625 C15.9570313,5.671875 15.9960938,5.2109375 16.0859375,4.78125 L16.0859375,4.78125 Z M19.78125,14.3476562 L5.65234375,14.3476562 L5.65234375,15.6523437 L19.78125,15.6523437 L19.78125,14.3476562 Z" id="Shape" fill="#FFDA44"></path>
                </g>
            </g>
        </g>
    </g>
</svg>