<?xml version="1.0" encoding="UTF-8"?>
<svg width="16px" height="16px" viewBox="0 0 16 16" version="1.1" xmlns="http://www.w3.org/2000/svg" xmlns:xlink="http://www.w3.org/1999/xlink">
    <title>tk_flag_16px</title>
    <defs>
        <circle id="path-1" cx="8" cy="8" r="8"></circle>
    </defs>
    <g id="Design-System" stroke="none" stroke-width="1" fill="none" fill-rule="evenodd">
        <g id="Flags-16x16" transform="translate(-301.000000, -1555.000000)">
            <g id="flag" transform="translate(301.000000, 1555.000000)">
                <mask id="mask-2" fill="white">
                    <use xlink:href="#path-1"></use>
                </mask>
                <use id="Mask" fill="#D8D8D8" xlink:href="#path-1"></use>
                <g id="tk" mask="url(#mask-2)" fill-rule="nonzero">
                    <polygon id="Path" fill="#0052B4" points="0 0 16 0 16 16 0 16"></polygon>
                    <path d="M5.875,4.175 L6.05,4.70625 L6.609375,4.70625 L6.15625,5.03125 L6.328125,5.5625 L5.878125,5.234375 L5.425,5.5625 L5.596875,5.03125 L5.146875,4.703125 L5.703125,4.703125 L5.875,4.175 Z M3.609375,8 L3.828125,8.665625 L4.525,8.665625 L3.9625,9.071875 L4.175,9.740625 L3.6125,9.328125 L3.046875,9.740625 L3.2625,9.075 L2.696875,8.665625 L3.39375,8.665625 L3.609375,8 Z M3.609375,2.4375 L3.828125,3.1 L4.525,3.1 L3.9625,3.509375 L4.175,4.175 L3.6125,3.7625 L3.046875,4.175 L3.2625,3.509375 L2.696875,3.1 L3.39375,3.1 L3.609375,2.4375 Z M1.86875,5.5625 L2.084375,6.228125 L2.78125,6.228125 L2.21875,6.640625 L2.434375,7.303125 L1.86875,6.89375 L1.303125,7.303125 L1.521875,6.640625 L0.953125,6.228125 L1.65625,6.228125 L1.86875,5.5625 Z" id="Shape" fill="#EEEEEE"></path>
                    <path d="M5.875,4.175 L6.05,4.70625 L6.609375,4.70625 L6.15625,5.03125 L6.328125,5.5625 L5.878125,5.234375 L5.425,5.5625 L5.596875,5.03125 L5.146875,4.703125 L5.703125,4.703125 L5.875,4.175 Z M3.609375,8 L3.828125,8.665625 L4.525,8.665625 L3.9625,9.071875 L4.175,9.740625 L3.6125,9.328125 L3.046875,9.740625 L3.2625,9.075 L2.696875,8.665625 L3.39375,8.665625 L3.609375,8 Z M3.609375,2.4375 L3.828125,3.1 L4.525,3.1 L3.9625,3.509375 L4.175,4.175 L3.6125,3.7625 L3.046875,4.175 L3.2625,3.509375 L2.696875,3.1 L3.39375,3.1 L3.609375,2.4375 Z M1.86875,5.5625 L2.084375,6.228125 L2.78125,6.228125 L2.21875,6.640625 L2.434375,7.303125 L1.86875,6.89375 L1.303125,7.303125 L1.521875,6.640625 L0.953125,6.228125 L1.65625,6.228125 L1.86875,5.5625 Z" id="Shape" fill="#EEEEEE"></path>
                    <path d="M12.86875,3.825 L4.521875,10.78125 L15.825,10.78125 L15.825,9.6625 C13.9612549,8.81195473 12.7655133,6.95177648 12.765625,4.903125 C12.765625,4.5375 12.796875,4.16875 12.86875,3.825 L12.86875,3.825 Z M15.825,11.478125 L4.521875,11.478125 L4.521875,12.521875 L15.825,12.521875 L15.825,11.478125 Z" id="Shape" fill="#FFDA44"></path>
                </g>
            </g>
        </g>
    </g>
</svg>