<?xml version="1.0" encoding="UTF-8"?>
<svg width="16px" height="16px" viewBox="0 0 16 16" version="1.1" xmlns="http://www.w3.org/2000/svg" xmlns:xlink="http://www.w3.org/1999/xlink">
    <title>tm_flag_16px</title>
    <defs>
        <circle id="path-1" cx="8" cy="8" r="8"></circle>
    </defs>
    <g id="Design-System" stroke="none" stroke-width="1" fill="none" fill-rule="evenodd">
        <g id="Flags-16x16" transform="translate(-401.000000, -1555.000000)">
            <g id="flag" transform="translate(401.000000, 1555.000000)">
                <mask id="mask-2" fill="white">
                    <use xlink:href="#path-1"></use>
                </mask>
                <use id="Mask" fill="#D8D8D8" xlink:href="#path-1"></use>
                <g id="tm" mask="url(#mask-2)" fill-rule="nonzero">
                    <polygon id="Path" fill="#496E2D" points="0 0 2.0875 0 4.20625 1.009375 6.259375 0 16 0 16 16 6.259375 16 4.065625 14.934375 2.0875 16 0 16"></polygon>
                    <polygon id="Path" fill="#D80027" points="2.0875 0 6.259375 0 6.259375 16 2.0875 16"></polygon>
                    <g id="Group" transform="translate(6.956250, 2.846875)" fill="#EEEEEE">
                        <path d="M4.74375,3.1875 C5.12890463,2.11123356 4.71439694,0.911889998 3.746875,0.303125 C3.92065929,0.326397541 4.09143428,0.368305513 4.25625,0.428125 C5.12277409,0.684787312 5.77616964,1.39981423 5.95389734,2.28590249 C6.13162504,3.17199076 5.80450993,4.0836842 5.10398935,4.65465746 C4.40346877,5.22563072 3.44453695,5.36215546 2.6125,5.009375 C2.44747568,4.95049197 2.28927201,4.8740094 2.140625,4.78125 C3.2747286,4.92626021 4.35721274,4.26351481 4.74375,3.1875 L4.74375,3.1875 Z M2.5625,4.93038066e-32 L2.21875,0.44375 L1.69375,0.25625 L2.00625,0.71875 L1.665625,1.15625 L2.203125,1 L2.515625,1.465625 L2.534375,0.903125 L3.071875,0.746875 L2.54375,0.559375 L2.5625,4.93038066e-32 Z" id="Shape"></path>
                        <path d="M3.484375,1.44375 L3.140625,1.88125 L2.615625,1.69375 L2.93125,2.15625 L2.5875,2.6 L3.125,2.44375 L3.440625,2.903125 L3.45625,2.346875 L3.99375,2.190625 L3.46875,2.003125 L3.484375,1.44375 Z M0.934375,0.528125 L0.590625,0.96875 L0.065625,0.78125 L0.378125,1.240625 L0.0375,1.684375 L0.575,1.528125 L0.8875,1.9875 L0.90625,1.43125 L1.440625,1.275 L0.915625,1.0875 L0.934375,0.528125 Z M0.896875,2.175 L0.553125,2.61875 L0.028125,2.43125 L0.340625,2.890625 L1.77635684e-15,3.334375 L0.5375,3.178125 L0.85,3.6375 L0.86875,3.08125 L1.403125,2.925 L0.878125,2.7375 L0.896875,2.175 Z M2.465625,2.7375 L2.121875,3.18125 L1.596875,2.99375 L1.909375,3.453125 L1.56875,3.896875 L2.10625,3.740625 L2.41875,4.2 L2.4375,3.64375 L2.975,3.4875 L2.446875,3.3 L2.465625,2.7375 Z" id="Shape"></path>
                    </g>
                    <polygon id="Path" fill="#EEEEEE" points="3.68125 4.2125 2.98125 3.6875 2.98125 3.3125 4.175 2.4375 4.66875 2.434375 5.365625 2.95625 5.365625 3.315625 4.175 4.2125"></polygon>
                    <path d="M4.175,2.4375 L3.68125,2.4375 L2.98125,2.953125 L2.98125,3.3125 L4.175,3.3125 L4.175,2.4375 Z M4.175,4.2125 L4.66875,4.2125 L5.365625,3.690625 L5.365625,3.315625 L4.175,3.315625 L4.175,4.2125 Z" id="Shape" fill="#FF9811"></path>
                    <path d="M3.68125,8.8875 L2.98125,8.36875 L2.98125,7.63125 L3.68125,7.1125 L4.66875,7.1125 L5.365625,7.63125 L5.365625,8.36875 L4.66875,8.8875 L3.68125,8.8875 Z M5.390625,10.034375 L5.0875,10.034375 L5.0875,9.728125 L4.553125,9.728125 L4.175,9.353125 L3.796875,9.728125 L3.259375,9.728125 L3.259375,10.034375 L2.95625,10.034375 L2.95625,10.64375 L3.259375,10.64375 L3.259375,10.946875 L3.796875,10.946875 L4.171875,11.325 L4.553125,10.946875 L5.084375,10.946875 L5.084375,10.64375 L5.390625,10.64375 L5.390625,10.034375 Z M5.390625,5.35625 L5.0875,5.35625 L5.0875,5.053125 L4.553125,5.053125 L4.175,4.675 L3.796875,5.05 L3.259375,5.05 L3.259375,5.35625 L2.95625,5.35625 L2.95625,5.96875 L3.259375,5.96875 L3.259375,6.275 L3.796875,6.275 L4.171875,6.65 L4.553125,6.275 L5.084375,6.275 L5.084375,5.96875 L5.390625,5.96875 L5.390625,5.35625 Z" id="Shape" fill="#496E2D"></path>
                    <g id="Group" transform="translate(3.825000, 5.315625)" fill="#D80027">
                        <polygon id="Path" points="0 2.3375 1 2.3375 1 3.028125 6.37258059e-16 3.028125"></polygon>
                        <ellipse id="Oval" cx="0.502242152" cy="0.346875" rx="1" ry="1"></ellipse>
                        <ellipse id="Oval" cx="0.502242152" cy="5.021875" rx="1" ry="1"></ellipse>
                    </g>
                    <polygon id="Path" fill="#EEEEEE" points="3.68125 13.5625 2.98125 13.0375 2.98125 12.6625 4.175 11.7875 4.66875 11.784375 5.365625 12.30625 5.365625 12.665625 4.175 13.5625"></polygon>
                    <path d="M4.175,11.7875 L3.68125,11.7875 L2.98125,12.303125 L2.98125,12.6625 L4.175,12.6625 L4.175,11.7875 Z M4.175,13.5625 L4.66875,13.5625 L5.365625,13.040625 L5.365625,12.665625 L4.175,12.665625 L4.175,13.5625 Z" id="Shape" fill="#FF9811"></path>
                </g>
            </g>
        </g>
    </g>
</svg>