<?xml version="1.0" encoding="UTF-8"?>
<svg width="20px" height="20px" viewBox="0 0 20 20" version="1.1" xmlns="http://www.w3.org/2000/svg" xmlns:xlink="http://www.w3.org/1999/xlink">
    <title>tm_flag_20px</title>
    <defs>
        <circle id="path-1" cx="10" cy="10" r="10"></circle>
    </defs>
    <g id="Design-System" stroke="none" stroke-width="1" fill="none" fill-rule="evenodd">
        <g id="Flags-20x20" transform="translate(-401.000000, -1555.000000)">
            <g id="flag" transform="translate(401.000000, 1555.000000)">
                <mask id="mask-2" fill="white">
                    <use xlink:href="#path-1"></use>
                </mask>
                <use id="Mask" fill="#D8D8D8" xlink:href="#path-1"></use>
                <g id="tm" mask="url(#mask-2)" fill-rule="nonzero">
                    <polygon id="Path" fill="#496E2D" points="0 0 2.609375 0 5.2578125 1.26171875 7.82421875 0 20 0 20 20 7.82421875 20 5.08203125 18.6679688 2.609375 20 0 20"></polygon>
                    <polygon id="Path" fill="#D80027" points="2.609375 0 7.82421875 0 7.82421875 20 2.609375 20"></polygon>
                    <g id="Group" transform="translate(8.695312, 3.558594)" fill="#EEEEEE">
                        <path d="M5.9296875,3.984375 C6.41113079,2.63904196 5.89299618,1.1398625 4.68359375,0.37890625 C4.90082412,0.407996926 5.11429285,0.460381892 5.3203125,0.53515625 C6.40346762,0.85598414 7.22021205,1.74976779 7.44237167,2.85737812 C7.6645313,3.96498845 7.25563741,5.10460525 6.37998669,5.81832183 C5.50433596,6.53203841 4.30567119,6.70269433 3.265625,6.26171875 C3.0593446,6.18811496 2.86159001,6.09251175 2.67578125,5.9765625 C4.09341075,6.15782526 5.44651593,5.32939351 5.9296875,3.984375 L5.9296875,3.984375 Z M3.203125,0 L2.7734375,0.5546875 L2.1171875,0.3203125 L2.5078125,0.8984375 L2.08203125,1.4453125 L2.75390625,1.25 L3.14453125,1.83203125 L3.16796875,1.12890625 L3.83984375,0.93359375 L3.1796875,0.69921875 L3.203125,0 Z" id="Shape"></path>
                        <path d="M4.35546875,1.8046875 L3.92578125,2.3515625 L3.26953125,2.1171875 L3.6640625,2.6953125 L3.234375,3.25 L3.90625,3.0546875 L4.30078125,3.62890625 L4.3203125,2.93359375 L4.9921875,2.73828125 L4.3359375,2.50390625 L4.35546875,1.8046875 Z M1.16796875,0.66015625 L0.73828125,1.2109375 L0.08203125,0.9765625 L0.47265625,1.55078125 L0.046875,2.10546875 L0.71875,1.91015625 L1.109375,2.484375 L1.1328125,1.7890625 L1.80078125,1.59375 L1.14453125,1.359375 L1.16796875,0.66015625 Z M1.12109375,2.71875 L0.69140625,3.2734375 L0.03515625,3.0390625 L0.42578125,3.61328125 L2.22044605e-15,4.16796875 L0.671875,3.97265625 L1.0625,4.546875 L1.0859375,3.8515625 L1.75390625,3.65625 L1.09765625,3.421875 L1.12109375,2.71875 Z M3.08203125,3.421875 L2.65234375,3.9765625 L1.99609375,3.7421875 L2.38671875,4.31640625 L1.9609375,4.87109375 L2.6328125,4.67578125 L3.0234375,5.25 L3.046875,4.5546875 L3.71875,4.359375 L3.05859375,4.125 L3.08203125,3.421875 Z" id="Shape"></path>
                    </g>
                    <polygon id="Path" fill="#EEEEEE" points="4.6015625 5.265625 3.7265625 4.609375 3.7265625 4.140625 5.21875 3.046875 5.8359375 3.04296875 6.70703125 3.6953125 6.70703125 4.14453125 5.21875 5.265625"></polygon>
                    <path d="M5.21875,3.046875 L4.6015625,3.046875 L3.7265625,3.69140625 L3.7265625,4.140625 L5.21875,4.140625 L5.21875,3.046875 Z M5.21875,5.265625 L5.8359375,5.265625 L6.70703125,4.61328125 L6.70703125,4.14453125 L5.21875,4.14453125 L5.21875,5.265625 Z" id="Shape" fill="#FF9811"></path>
                    <path d="M4.6015625,11.109375 L3.7265625,10.4609375 L3.7265625,9.5390625 L4.6015625,8.890625 L5.8359375,8.890625 L6.70703125,9.5390625 L6.70703125,10.4609375 L5.8359375,11.109375 L4.6015625,11.109375 Z M6.73828125,12.5429688 L6.359375,12.5429688 L6.359375,12.1601562 L5.69140625,12.1601562 L5.21875,11.6914062 L4.74609375,12.1601562 L4.07421875,12.1601562 L4.07421875,12.5429688 L3.6953125,12.5429688 L3.6953125,13.3046875 L4.07421875,13.3046875 L4.07421875,13.6835938 L4.74609375,13.6835938 L5.21484375,14.15625 L5.69140625,13.6835938 L6.35546875,13.6835938 L6.35546875,13.3046875 L6.73828125,13.3046875 L6.73828125,12.5429688 Z M6.73828125,6.6953125 L6.359375,6.6953125 L6.359375,6.31640625 L5.69140625,6.31640625 L5.21875,5.84375 L4.74609375,6.3125 L4.07421875,6.3125 L4.07421875,6.6953125 L3.6953125,6.6953125 L3.6953125,7.4609375 L4.07421875,7.4609375 L4.07421875,7.84375 L4.74609375,7.84375 L5.21484375,8.3125 L5.69140625,7.84375 L6.35546875,7.84375 L6.35546875,7.4609375 L6.73828125,7.4609375 L6.73828125,6.6953125 Z" id="Shape" fill="#496E2D"></path>
                    <g id="Group" transform="translate(4.781250, 6.644531)" fill="#D80027">
                        <polygon id="Path" points="0 2.921875 1 2.921875 1 3.78515625 6.37258059e-16 3.78515625"></polygon>
                        <ellipse id="Oval" cx="0.502242152" cy="0.43359375" rx="1" ry="1"></ellipse>
                        <ellipse id="Oval" cx="0.502242152" cy="6.27734375" rx="1" ry="1"></ellipse>
                    </g>
                    <polygon id="Path" fill="#EEEEEE" points="4.6015625 16.953125 3.7265625 16.296875 3.7265625 15.828125 5.21875 14.734375 5.8359375 14.7304687 6.70703125 15.3828125 6.70703125 15.8320312 5.21875 16.953125"></polygon>
                    <path d="M5.21875,14.734375 L4.6015625,14.734375 L3.7265625,15.3789063 L3.7265625,15.828125 L5.21875,15.828125 L5.21875,14.734375 Z M5.21875,16.953125 L5.8359375,16.953125 L6.70703125,16.3007813 L6.70703125,15.8320313 L5.21875,15.8320313 L5.21875,16.953125 Z" id="Shape" fill="#FF9811"></path>
                </g>
            </g>
        </g>
    </g>
</svg>