<?xml version="1.0" encoding="UTF-8"?>
<svg width="20px" height="20px" viewBox="0 0 20 20" version="1.1" xmlns="http://www.w3.org/2000/svg" xmlns:xlink="http://www.w3.org/1999/xlink">
    <title>torres_strait_islands_flag_20px</title>
    <defs>
        <circle id="path-1" cx="10" cy="10" r="10"></circle>
    </defs>
    <g id="Design-System" stroke="none" stroke-width="1" fill="none" fill-rule="evenodd">
        <g id="Flags-20x20" transform="translate(-51.000000, -1605.000000)">
            <g id="flag" transform="translate(51.000000, 1605.000000)">
                <mask id="mask-2" fill="white">
                    <use xlink:href="#path-1"></use>
                </mask>
                <use id="Mask" fill="#D8D8D8" xlink:href="#path-1"></use>
                <g id="torres_strait_islands" mask="url(#mask-2)" fill-rule="nonzero">
                    <polygon id="Path" fill="#0052B4" points="0 5 10 3.75 20 5 20 15 10 16.25 0 15"></polygon>
                    <polygon id="Path" fill="#333333" points="0 3.75 10 2.5 20 3.75 20 5 0 5"></polygon>
                    <polygon id="Path" fill="#6DA544" points="0 0 20 0 20 3.75 0 3.75"></polygon>
                    <polygon id="Path" fill="#333333" points="0 16.25 10 17.5 20 16.25 20 15 0 15"></polygon>
                    <polygon id="Path" fill="#6DA544" points="0 20 20 20 20 16.25 0 16.25"></polygon>
                    <path d="M9.5703125,5.625 C5.4296875,6.875 5.625,10 6.953125,12.890625 L5.390625,14.375 L8.2421875,13.3203125 L8.2421875,9.4921875 C9.1796875,8.125 10.8203125,8.125 11.7578125,9.4921875 L11.7578125,13.3203125 L14.609375,14.375 L13.046875,12.890625 C14.375,10 14.5703125,6.875 10.4296875,5.625 L10,7.421875 L9.5703125,5.625 Z M10,8.8671875 L9.6484375,9.921875 L8.5546875,9.921875 L9.453125,10.5859375 L9.1015625,11.6796875 L10,11.015625 L10.8984375,11.6796875 L10.546875,10.5859375 L11.484375,9.921875 L10.3515625,9.921875 L10,8.8671875 Z" id="Shape" fill="#EEEEEE"></path>
                </g>
            </g>
        </g>
    </g>
</svg>