<?xml version="1.0" encoding="UTF-8"?>
<svg width="20px" height="20px" viewBox="0 0 20 20" version="1.1" xmlns="http://www.w3.org/2000/svg" xmlns:xlink="http://www.w3.org/1999/xlink">
    <title>tv_flag_20px</title>
    <defs>
        <circle id="path-1" cx="10" cy="10" r="10"></circle>
    </defs>
    <g id="Design-System" stroke="none" stroke-width="1" fill="none" fill-rule="evenodd">
        <g id="Flags-20x20" transform="translate(-251.000000, -1605.000000)">
            <g id="flag" transform="translate(251.000000, 1605.000000)">
                <mask id="mask-2" fill="white">
                    <use xlink:href="#path-1"></use>
                </mask>
                <use id="Mask" fill="#D8D8D8" xlink:href="#path-1"></use>
                <g id="tv" mask="url(#mask-2)" fill-rule="nonzero">
                    <polygon id="Path" fill="#338AF3" points="0 10 10 0 20 0 20 20 0 20"></polygon>
                    <polygon id="Path" fill="#EEEEEE" points="0 0 1.3046875 0 2.5546875 0.66015625 3.91796875 0 10 0 10 1.3046875 9.421875 2.61328125 10 3.9140625 10 5.21875 9.63671875 6.53515625 10 8.15625 10 8.76953125 9.7578125 9.22265625 10 10 8.15625 10 6.62109375 9.7265625 5.21875 10.0039062 3.9140625 10 2.640625 9.3515625 1.3046875 10 0 10 0 3.9140625 0.5546875 2.515625 0 1.3046875"></polygon>
                    <polygon id="Path" fill="#D80027" points="10 8.76953125 6.4453125 5.21484375 5.21875 5.21484375 10 10"></polygon>
                    <polygon id="Path" fill="#D80027" points="1.3046875 0 1.3046875 1.3046875 0 1.3046875 0 3.9140625 1.3046875 3.9140625 1.3046875 10 3.9140625 10 3.9140625 3.9140625 10 3.9140625 10 1.3046875 3.9140625 1.3046875 3.9140625 0"></polygon>
                    <path d="M10.9140625,16.5234375 L11.1289062,17.1875 L11.8320312,17.1875 L11.2617187,17.5976562 L11.4804688,18.2617188 L10.9140625,17.8515625 L10.3476562,18.2617188 L10.5664062,17.5976562 L10,17.1875 L10.6992188,17.1875 L10.9140625,16.5234375 Z M16.4765625,12.1757812 L16.6914062,12.8398438 L17.3945312,12.8398438 L16.828125,13.25 L17.0429688,13.9140625 L16.4765625,13.5039062 L15.9101562,13.9140625 L16.1289062,13.25 L15.5625,12.8398438 L16.2617188,12.8398438 L16.4765625,12.1757812 Z M17.8710938,5.65234375 L18.0859375,6.31640625 L18.7890625,6.31640625 L18.2226562,6.7265625 L18.4414062,7.390625 L17.875,6.98046875 L17.3085938,7.390625 L17.5273438,6.7265625 L16.9609375,6.31640625 L17.65625,6.31640625 L17.8710938,5.65234375 Z M18.2148438,10.4335938 L18.4335938,11.0976563 L19.1289062,11.0976563 L18.5664062,11.5078125 L18.78125,12.171875 L18.2148438,11.7617188 L17.6523438,12.1757813 L17.8671875,11.5117188 L17.3007812,11.0976563 L18.0039062,11.0976563 L18.2148438,10.4335938 Z M11.9140625,14.9609375 L12.5390625,15.2734375 L13.03125,14.78125 L12.921875,15.4726562 L13.546875,15.7890625 L12.8515625,15.8984375 L12.7421875,16.5898438 L12.4257812,15.9648438 L11.734375,16.0742188 L12.2304687,15.5820312 L11.9140625,14.9609375 Z M11.9140625,12.3515625 L12.5390625,12.6679688 L13.03125,12.1757812 L12.921875,12.8632812 L13.546875,13.1796875 L12.8554688,13.2890625 L12.7460938,13.9804688 L12.4296875,13.3554688 L11.7382812,13.46875 L12.234375,12.9726563 L11.9140625,12.3515625 Z M14.0898438,14.0234375 L14.7148438,14.3398438 L15.2070312,13.8476562 L15.0976562,14.5351562 L15.7226562,14.8515625 L15.0273438,14.9609375 L14.921875,15.6523438 L14.6015625,15.0273438 L13.9140625,15.140625 L14.40625,14.6445313 L14.0898438,14.0234375 Z M14.0898438,8.4375 L14.7148438,8.75390625 L15.2070312,8.26171875 L15.0976562,8.94921875 L15.7226562,9.26953125 L15.0273438,9.37890625 L14.921875,10.0664062 L14.6015625,9.44140625 L13.9140625,9.5546875 L14.40625,9.05859375 L14.0898438,8.4375 Z M16.1992188,8.37109375 L16.8203125,8.6875 L17.3125,8.1953125 L17.203125,8.8828125 L17.828125,9.19921875 L17.1367188,9.30859375 L17.0273438,10 L16.7109375,9.375 L16.015625,9.4921875 L16.5117187,8.99609375 L16.1992188,8.37109375 Z" id="Shape" fill="#FFDA44"></path>
                    <path d="M7.0625,5.21875 L10,5.21875 L10,8.15625 L7.0625,5.21875 Z M5.21875,7.0625 L5.21875,10.0039062 L8.15625,10 L5.21875,7.0625 Z" id="Shape" fill="#0052B4"></path>
                </g>
            </g>
        </g>
    </g>
</svg>