<?xml version="1.0" encoding="UTF-8"?>
<svg width="16px" height="16px" viewBox="0 0 16 16" version="1.1" xmlns="http://www.w3.org/2000/svg" xmlns:xlink="http://www.w3.org/1999/xlink">
    <title>tw_flag_16px</title>
    <defs>
        <circle id="path-1" cx="8" cy="8" r="8"></circle>
    </defs>
    <g id="Design-System" stroke="none" stroke-width="1" fill="none" fill-rule="evenodd">
        <g id="Flags-16x16" transform="translate(-301.000000, -1605.000000)">
            <g id="flag" transform="translate(301.000000, 1605.000000)">
                <mask id="mask-2" fill="white">
                    <use xlink:href="#path-1"></use>
                </mask>
                <use id="Mask" fill="#D8D8D8" xlink:href="#path-1"></use>
                <g id="tw" mask="url(#mask-2)" fill-rule="nonzero">
                    <polygon id="Path" fill="#D80027" points="0 8 8 0 16 0 16 16 0 16"></polygon>
                    <polygon id="Path" fill="#0052B4" points="8 8 8 0 0 0 0 8"></polygon>
                    <polygon id="Path" fill="#EEEEEE" points="6.95625 4.68125 5.978125 5.140625 6.5 6.0875 5.4375 5.884375 5.303125 6.95625 4.565625 6.16875 3.825 6.95625 3.690625 5.884375 2.628125 6.0875 3.15 5.140625 2.175 4.68125 3.15 4.221875 2.63125 3.275 3.69375 3.478125 3.825 2.40625 4.565625 3.196875 5.303125 2.40625 5.4375 3.478125 6.5 3.275 5.978125 4.221875"></polygon>
                    <circle id="Oval" fill="#0052B4" cx="4.565625" cy="4.68125" r="1.490625"></circle>
                    <circle id="Oval" fill="#EEEEEE" cx="4.565625" cy="4.68125" r="1.296875"></circle>
                </g>
            </g>
        </g>
    </g>
</svg>