<?xml version="1.0" encoding="UTF-8"?>
<svg width="20px" height="20px" viewBox="0 0 20 20" version="1.1" xmlns="http://www.w3.org/2000/svg" xmlns:xlink="http://www.w3.org/1999/xlink">
    <title>uefa_flag_20px</title>
    <g id="Sports-Forecasts" stroke="none" stroke-width="1" fill="none" fill-rule="evenodd">
        <g id="02-elgbet_sb_sportforecasts_1280" transform="translate(-30.000000, -310.000000)" fill="#FFFFFF">
            <g id="top_leagues" transform="translate(20.000000, 250.000000)">
                <g id="uefa_flag_20px" transform="translate(10.000000, 60.000000)">
                    <path d="M12.1388698,0.00628812901 C11.905533,0.206455094 10.6545214,1.19823201 10.2210177,1.60864446 C10.7707385,1.82074772 11.8342951,2.22304091 12.3358865,2.52493199 L12.456,2.604 L12.7288041,2.6096989 C13.9021948,2.6571837 14.6979981,2.97326755 15.3633568,3.23434722 C15.616723,2.94245301 15.7974984,2.19141227 15.9944759,1.70585748 C16.513966,2.49861562 16.8077738,3.34763483 16.924506,4.14039297 C18.1603361,4.78503521 18.8563915,5.63112018 19.3994831,6.37259271 C18.8250078,6.29706763 18.2103459,6.21363284 17.55537,6.19462399 C17.68192,6.9189514 17.7300131,7.88634806 17.6992226,8.75350653 C17.8727794,9.46593139 18.0155371,10.5772472 18.0134959,11.4788277 C18.6911804,11.3030278 19.4332908,11.0064133 19.998198,10.7339107 C19.7291399,11.6440388 19.1537715,12.5620768 18.1673528,13.4561303 C18.2751546,14.3006844 18.3344775,14.8229811 18.2969701,15.4983692 C17.7782455,15.3302239 17.2513561,15.0416466 16.6844077,14.7287024 C15.9903847,15.1332553 15.0607494,15.5143215 14.1824943,15.6394861 L14.1802156,15.6120396 C14.2410694,16.2643364 14.2668398,16.6276732 14.2293324,17.6375659 C15.1204518,17.5887043 16.1325133,17.3139053 16.8788337,17.2566236 C16.3231121,17.8660548 14.3893129,19.6116791 11.1742666,19.9793536 C10.7745705,20.0195401 10.2538047,19.9954282 9.96701358,19.9551141 C10.5362583,19.5984112 11.1459447,19.1610802 11.3929321,18.79634 C10.9799178,18.4390738 10.5199815,18.0739873 10.1522208,17.6005532 L10.1933336,17.596614 C9.58262666,17.6480272 8.87521696,17.6674188 8.07914184,17.7106671 C8.05260601,18.5419532 8.1387199,19.1396474 8.19293976,19.8743584 C8.02402895,19.8256243 7.85524572,19.8151631 7.63887658,19.5956045 C7.11134924,19.0602951 6.4132526,18.1536114 6.11816898,17.5487729 C5.26060217,17.574033 3.8632607,17.3334244 2.81241602,16.7705585 C3.71642056,16.5618439 4.54757911,16.2648467 5.12116144,15.9031683 C4.91549383,15.2938206 4.57590292,14.6019957 4.28786957,13.9678986 L4.122,13.596 L3.80882651,13.4255631 C3.36796419,13.1740238 2.896157,12.8636157 2.45545798,12.589378 C2.24648826,12.9593489 1.68030535,13.6935495 1.24846011,14.5825001 C1.07572202,14.4767395 1.01576123,14.2662388 0.899539369,14.0399188 C0.810746375,13.4792216 0.980295066,12.2495152 1.15890166,11.5197797 C0.76992201,11.230437 0.235888284,10.9250197 8.8817842e-16,10.5228997 C0.489382076,10.1752547 1.11552578,10.0372174 1.6693338,9.91525456 C1.90407472,9.06410137 2.31450691,8.21306909 2.69968609,7.72637655 L2.73740125,7.77184782 C2.38962869,7.38337847 2.08229777,7.01940374 1.75876468,6.5421414 C1.33521189,6.85304445 0.782934776,7.42968861 0.319193133,8.03057223 C0.316771558,6.16987422 2.17287683,2.88734012 3.76451676,2.08577922 C3.5087266,2.67658433 3.29312292,3.32377809 3.19846143,4.07558429 C3.70532143,4.07022609 4.16778494,4.06091304 4.6749001,4.05555484 C3.95065035,4.54621268 3.49456565,4.94909813 2.87441803,5.5555951 C2.78488356,5.9972735 2.72676184,6.99509189 2.73666252,7.72485418 L2.73102245,7.68751999 C2.82810789,8.28712785 2.93335821,9.19304603 2.99012959,9.6316528 C3.84067972,9.45674591 4.6348412,9.39461633 5.42913025,9.39704028 C4.88731438,9.849808 4.05169066,10.4778653 3.39543899,11.4873753 C3.66134635,12.2022407 3.88087561,12.8393363 4.04278912,13.3277613 L4.107,13.525 L4.45914641,13.8310754 C5.09811978,14.3673677 5.79854823,14.8701418 6.39284042,15.3113426 C7.1325124,14.7767929 7.93484094,14.1171778 8.51460357,13.6635894 L8.51634528,13.6753062 C8.23567777,12.8211839 8.00348919,11.6113794 7.94939691,10.4499262 C7.10662892,10.1311134 6.26386094,9.81255577 5.37274159,9.44526406 C6.04289906,8.95396834 7.23012263,8.39824667 7.9649612,8.26263323 C7.91660984,6.92359406 8.13527535,6.17497726 8.26502028,5.15921603 C8.89154671,6.05569357 9.31624768,6.81451646 9.91036977,7.53302528 C10.9906845,7.2361556 12.2004891,6.8581475 13.183846,6.64190594 C12.6893289,7.33795073 12.3158861,7.84137947 11.963997,8.31590712 L11.6653351,8.71938572 C11.5163221,8.92140453 11.3660454,9.12670643 11.2066709,9.34817861 C11.9021641,10.278899 12.6296957,11.0509524 13.3572826,11.8215902 L13.3221385,11.8198388 C14.6292836,11.8856681 15.3602949,11.8870714 16.2788431,11.900722 C16.8261323,10.9534767 17.3437443,9.72359208 17.6599204,8.85420185 L17.6926419,8.91237852 C17.1279899,7.9767351 16.4389512,7.06112114 15.9616889,6.22702833 C14.9361043,6.28379971 13.8323155,6.51790193 13.1878008,6.64739171 C13.6113536,6.11590951 14.3169772,5.22963806 14.700216,4.64163963 C14.2970243,4.27057805 13.5209207,3.42662698 12.6807548,2.78808579 L12.469,2.633 L12.24474,2.64353242 C11.4376335,2.68095637 10.1506212,2.74590921 9.34712111,2.75785033 C9.04119352,3.21776232 8.50971132,4.50564346 8.39208612,5.25438783 C7.88994643,4.89832282 7.39303736,3.99635951 6.97586338,3.32007839 C6.3383654,3.41716383 5.24924789,3.88345462 4.6690316,4.05274816 C5.21837446,3.28601556 5.67841403,2.80275714 6.41746261,2.21552416 C6.19190799,1.80562202 5.92642204,1.11824177 5.84298725,0.661901917 C7.33256627,0.677593782 7.98320459,1.00967448 8.36082996,1.07001799 C9.201174,0.643786105 10.7667884,-0.0745951443 12.1388698,0.00628812901 Z M10.120998,11.0985233 C9.5271072,11.8744984 9.07601821,12.7931502 8.53207995,13.6505618 L8.54058475,13.6432845 L8.54058475,13.6432845 C8.43240018,14.5290457 8.26795453,15.4956901 8.16002512,16.3815788 C8.80098296,16.755555 9.52879109,17.2083953 10.1719065,17.5841065 L10.1370726,17.5809221 C10.9605766,17.6508339 11.7518038,17.704671 12.4866424,17.6940822 C13.1585111,16.9873144 13.705369,16.2416352 14.158212,15.6411975 L14.1476837,15.6443163 C14.5716192,15.0066908 15.0601083,14.0789571 15.2744362,13.7154926 C14.6160317,13.230226 13.8941879,12.5708147 13.3367235,11.8390502 L13.378272,11.8439507 C12.3195176,11.7356385 11.0827945,11.3846766 10.120998,11.0985233 Z" id="uefa_icon"></path>
                </g>
            </g>
        </g>
    </g>
</svg>