<?xml version="1.0" encoding="UTF-8"?>
<svg width="20px" height="20px" viewBox="0 0 20 20" version="1.1" xmlns="http://www.w3.org/2000/svg" xmlns:xlink="http://www.w3.org/1999/xlink">
    <title>ug_flag_20px</title>
    <defs>
        <circle id="path-1" cx="10" cy="10" r="10"></circle>
    </defs>
    <g id="Design-System" stroke="none" stroke-width="1" fill="none" fill-rule="evenodd">
        <g id="Flags-20x20" transform="translate(-451.000000, -1605.000000)">
            <g id="flag" transform="translate(451.000000, 1605.000000)">
                <mask id="mask-2" fill="white">
                    <use xlink:href="#path-1"></use>
                </mask>
                <use id="Mask" fill="#D8D8D8" xlink:href="#path-1"></use>
                <g id="ug" mask="url(#mask-2)" fill-rule="nonzero">
                    <polygon id="Path" fill="#FFDA44" points="0 3.3203125 0 16.6796875 10 17.890625 20 16.6796875 20 3.3203125 10 2.0703125"></polygon>
                    <polygon id="Path" fill="#333333" points="0 0 20 0 20 3.3203125 0 3.3203125"></polygon>
                    <polygon id="Path" fill="#D80027" points="0 6.6796875 20 6.6796875 20 10 10 11.2109375 0 10"></polygon>
                    <polygon id="Path" fill="#333333" points="0 10 20 10 20 13.3203125 0 13.3203125"></polygon>
                    <polygon id="Path" fill="#D80027" points="0 16.6796875 20 16.6796875 20 20 0 20"></polygon>
                    <circle id="Oval" fill="#EEEEEE" cx="10" cy="10" r="3.33203125"></circle>
                    <path d="M11.2109375,10.15625 L10,9.6484375 L10.3125,8.6328125 C10.3617761,8.40463124 10.2876209,8.16733457 10.1171875,8.0078125 L10.4296875,7.6953125 C10.2310376,7.50054734 9.96563557,7.3887991 9.6875,7.3828125 C9.39583103,7.3786334 9.11457642,7.49113524 8.90625,7.6953125 L9.21875,8.0078125 C9.09411492,8.132016 9.02386854,8.30060732 9.0234375,8.4765625 L9.0625,8.671875 L8.59375,9.140625 L9.4140625,9.140625 C9.4140625,9.140625 9.0625,9.6484375 8.8671875,10.078125 C8.7109375,10.5078125 8.8671875,11.0546875 9.3359375,11.25 L9.5703125,11.328125 L10,11.71875 L10,12.1875 L9.5703125,12.6171875 L10.4296875,12.6171875 L10.4296875,11.71875 L10.8203125,11.328125 L11.640625,11.328125 C11.7457199,11.1167186 11.7592143,10.8713869 11.6779398,10.6497294 C11.5966654,10.4280718 11.4277809,10.2496123 11.2109375,10.15625 L11.2109375,10.15625 Z" id="Path" fill="#333333"></path>
                </g>
            </g>
        </g>
    </g>
</svg>