<?xml version="1.0" encoding="UTF-8"?>
<svg width="20px" height="20px" viewBox="0 0 20 20" version="1.1" xmlns="http://www.w3.org/2000/svg" xmlns:xlink="http://www.w3.org/1999/xlink">
    <title>united_nations_flag_20px</title>
    <defs>
        <circle id="path-1" cx="10" cy="10" r="10"></circle>
    </defs>
    <g id="Design-System" stroke="none" stroke-width="1" fill="none" fill-rule="evenodd">
        <g id="Flags-20x20" transform="translate(-501.000000, -1605.000000)">
            <g id="flag" transform="translate(501.000000, 1605.000000)">
                <mask id="mask-2" fill="white">
                    <use xlink:href="#path-1"></use>
                </mask>
                <use id="Mask" fill="#D8D8D8" xlink:href="#path-1"></use>
                <g id="united_nations" mask="url(#mask-2)" fill-rule="nonzero">
                    <polygon id="Path" fill="#338AF3" points="0 0 20 0 20 20 0 20"></polygon>
                    <circle id="Oval" fill="#EEEEEE" cx="10" cy="10" r="5.6640625"></circle>
                    <circle id="Oval" fill="#338AF3" cx="10" cy="10" r="4.3359375"></circle>
                    <polygon id="Path" fill="#338AF3" points="2.96875 2.96875 17.03125 2.96875 10 10"></polygon>
                    <circle id="Oval" fill="#EEEEEE" cx="10" cy="10" r="3.4765625"></circle>
                    <circle id="Oval" fill="#338AF3" cx="10" cy="10" r="2.6953125"></circle>
                    <polygon id="Path" fill="#EEEEEE" points="9.609375 6.953125 10.390625 6.953125 10.390625 13.046875 9.609375 13.046875"></polygon>
                    <polygon id="Path" fill="#EEEEEE" points="13.046875 9.609375 13.046875 10.390625 6.953125 10.390625 6.953125 9.609375"></polygon>
                    <polygon id="Path" fill="#EEEEEE" points="11.875 7.56640625 12.4296875 8.12109375 8.12109375 12.4296875 7.56640625 11.8789062"></polygon>
                    <polygon id="Path" fill="#EEEEEE" points="12.4296875 11.875 11.8789062 12.4296875 7.56640625 8.12109375 8.12109375 7.56640625"></polygon>
                    <circle id="Oval" fill="#EEEEEE" cx="10" cy="10" r="1.71875"></circle>
                    <circle id="Oval" fill="#338AF3" cx="10" cy="10" r="1"></circle>
                    <ellipse id="Oval" fill="#EEEEEE" cx="10" cy="16.09375" rx="1.71875" ry="1.5625"></ellipse>
                    <polygon id="Path" fill="#338AF3" points="10 15.8984375 6.953125 18.359375 13.046875 18.359375"></polygon>
                </g>
            </g>
        </g>
    </g>
</svg>