<?xml version="1.0" encoding="UTF-8"?>
<svg width="16px" height="16px" viewBox="0 0 16 16" version="1.1" xmlns="http://www.w3.org/2000/svg" xmlns:xlink="http://www.w3.org/1999/xlink">
    <title>us-hi_flag_16px</title>
    <defs>
        <circle id="path-1" cx="8" cy="8" r="8"></circle>
    </defs>
    <g id="Design-System" stroke="none" stroke-width="1" fill="none" fill-rule="evenodd">
        <g id="Flags-16x16" transform="translate(-101.000000, -1655.000000)">
            <g id="flag" transform="translate(101.000000, 1655.000000)">
                <mask id="mask-2" fill="white">
                    <use xlink:href="#path-1"></use>
                </mask>
                <use id="Mask" fill="#D8D8D8" xlink:href="#path-1"></use>
                <g id="us-hi" mask="url(#mask-2)" fill-rule="nonzero">
                    <polygon id="Path" fill="#EEEEEE" points="0 8 0 3 1 2 0 1 0 0 1 0 2 1 3 0 16 0 16 2 15 4 16 6 16 8 15 10 16 12 16 14 8 15 0 14 0 12 1 10"></polygon>
                    <path d="M5.40625,4 L8,6.59375 L8,6 L16,6 L16,4 L12,3 L8,4 L5.40625,4 Z M4,5.40625 L4,8 L6.59375,8 L4,5.40625 Z M0,10 L0,12 L16,12 L16,10 L8,9 L0,10 Z" id="Shape" fill="#0052B4"></path>
                    <path d="M1,0 L1,1 L0,1 L0,3 L1,3 L1,8 L0,8 L0,10 L16,10 L16,8 L3,8 L3,3 L8,3 L8,4 L16,4 L16,2 L8,2 L8,1 L3,1 L3,0 L1,0 Z M8,8 L8,7.03125 L4.96875,4 L4,4 L8,8 Z M0,14 L0,16 L16,16 L16,14 L0,14 Z" id="Shape" fill="#D80027"></path>
                </g>
            </g>
        </g>
    </g>
</svg>