<?xml version="1.0" encoding="UTF-8"?>
<svg width="20px" height="20px" viewBox="0 0 20 20" version="1.1" xmlns="http://www.w3.org/2000/svg" xmlns:xlink="http://www.w3.org/1999/xlink">
    <title>us_flag_20px</title>
    <defs>
        <circle id="path-1" cx="10" cy="10" r="10"></circle>
    </defs>
    <g id="Design-System" stroke="none" stroke-width="1" fill="none" fill-rule="evenodd">
        <g id="Flags-20x20" transform="translate(-51.000000, -1655.000000)">
            <g id="flag" transform="translate(51.000000, 1655.000000)">
                <mask id="mask-2" fill="white">
                    <use xlink:href="#path-1"></use>
                </mask>
                <use id="Mask" fill="#D8D8D8" xlink:href="#path-1"></use>
                <g id="us" mask="url(#mask-2)" fill-rule="nonzero">
                    <polygon id="Path" fill="#EEEEEE" points="10 0 20 0 20 2.5 18.75 3.75 20 5 20 7.5 18.75 8.75 20 10 20 12.5 18.75 13.75 20 15 20 17.5 10 18.75 0 17.5 0 15 1.25 13.75 0 12.5 0 10"></polygon>
                    <path d="M8.75,2.5 L20,2.5 L20,5 L8.75,5 L8.75,2.5 Z M8.75,7.5 L20,7.5 L20,10 L10,10 L8.75,7.5 Z M0,12.5 L20,12.5 L20,15 L0,15 L0,12.5 Z M0,17.5 L20,17.5 L20,20 L0,20 L0,17.5 Z" id="Shape" fill="#D80027"></path>
                    <polygon id="Path" fill="#0052B4" points="0 0 10 0 10 10 0 10"></polygon>
                    <path d="M7.3046875,9.4921875 L9.53125,7.890625 L6.796875,7.890625 L9.0234375,9.4921875 L8.1640625,6.875 L7.3046875,9.4921875 Z M4.140625,9.4921875 L6.3671875,7.890625 L3.6328125,7.890625 L5.859375,9.4921875 L5,6.875 L4.140625,9.4921875 Z M0.9765625,9.4921875 L3.203125,7.890625 L0.46875,7.890625 L2.6953125,9.4921875 L1.8359375,6.875 L0.9765625,9.4921875 Z M7.3046875,6.328125 L9.53125,4.7265625 L6.796875,4.7265625 L9.0234375,6.328125 L8.1640625,3.7109375 L7.3046875,6.328125 Z M4.140625,6.328125 L6.3671875,4.7265625 L3.6328125,4.7265625 L5.859375,6.328125 L5,3.7109375 L4.140625,6.328125 Z M0.9765625,6.328125 L3.203125,4.7265625 L0.46875,4.7265625 L2.6953125,6.328125 L1.8359375,3.7109375 L0.9765625,6.328125 Z M7.3046875,3.125 L9.53125,1.5234375 L6.796875,1.5234375 L9.0234375,3.125 L8.1640625,0.5078125 L7.3046875,3.125 Z M4.140625,3.125 L6.3671875,1.5234375 L3.6328125,1.5234375 L5.859375,3.125 L5,0.5078125 L4.140625,3.125 Z M0.9765625,3.125 L3.203125,1.5234375 L0.46875,1.5234375 L2.6953125,3.125 L1.8359375,0.5078125 L0.9765625,3.125 Z" id="Shape" fill="#EEEEEE"></path>
                </g>
            </g>
        </g>
    </g>
</svg>