<?xml version="1.0" encoding="UTF-8"?>
<svg width="16px" height="16px" viewBox="0 0 16 16" version="1.1" xmlns="http://www.w3.org/2000/svg" xmlns:xlink="http://www.w3.org/1999/xlink">
    <title>uy_flag_16px</title>
    <defs>
        <circle id="path-1" cx="8" cy="8" r="8"></circle>
    </defs>
    <g id="Design-System" stroke="none" stroke-width="1" fill="none" fill-rule="evenodd">
        <g id="Flags-16x16" transform="translate(-151.000000, -1655.000000)">
            <g id="flag" transform="translate(151.000000, 1655.000000)">
                <mask id="mask-2" fill="white">
                    <use xlink:href="#path-1"></use>
                </mask>
                <use id="Mask" fill="#D8D8D8" xlink:href="#path-1"></use>
                <g id="uy" mask="url(#mask-2)" fill-rule="nonzero">
                    <polygon id="Path" fill="#338AF3" points="0 8 8 0 16 0 16 1.740625 15.353125 2.81875 16 3.825 16 5.9125 15.3375 6.934375 16 8 16 10.0875 15.25 11.078125 16 12.175 16 14.259375 7.903125 15.14375 0 14.259375 0 12.175 0.846875 11.134375 0 10.0875"></polygon>
                    <path d="M8,8 L16,8 L16,5.9125 L7.403125,5.9125 L8,8 Z M7.403125,3.825 L16,3.825 L16,1.740625 L7.403125,1.740625 L7.403125,3.825 Z M16,16 L16,14.259375 L0,14.259375 L0,16 L16,16 Z M0,12.175 L16,12.175 L16,10.0875 L0,10.0875 L0,12.175 Z" id="Shape" fill="#EEEEEE"></path>
                    <polygon id="Path" fill="#EEEEEE" points="0 0 8 0 8 8 0 8"></polygon>
                    <polygon id="Path" fill="#FFDA44" points="6.95625 4.68125 5.978125 5.140625 6.5 6.0875 5.4375 5.884375 5.303125 6.95625 4.565625 6.16875 3.825 6.95625 3.690625 5.884375 2.63125 6.0875 3.15 5.140625 2.175 4.68125 3.15 4.221875 2.63125 3.275 3.69375 3.478125 3.825 2.40625 4.565625 3.196875 5.303125 2.40625 5.4375 3.478125 6.5 3.275 5.978125 4.221875"></polygon>
                </g>
            </g>
        </g>
    </g>
</svg>