<?xml version="1.0" encoding="UTF-8"?>
<svg width="16px" height="16px" viewBox="0 0 16 16" version="1.1" xmlns="http://www.w3.org/2000/svg" xmlns:xlink="http://www.w3.org/1999/xlink">
    <title>uz_flag_16px</title>
    <defs>
        <circle id="path-1" cx="8" cy="8" r="8"></circle>
    </defs>
    <g id="Design-System" stroke="none" stroke-width="1" fill="none" fill-rule="evenodd">
        <g id="Flags-16x16" transform="translate(-201.000000, -1655.000000)">
            <g id="flag" transform="translate(201.000000, 1655.000000)">
                <mask id="mask-2" fill="white">
                    <use xlink:href="#path-1"></use>
                </mask>
                <use id="Mask" fill="#D8D8D8" xlink:href="#path-1"></use>
                <g id="uz" mask="url(#mask-2)" fill-rule="nonzero">
                    <polygon id="Path" fill="#D80027" points="0 5.5625 7.94375 4.875 16 5.5625 16 6.259375 14.74375 7.95 16 9.740625 16 10.4375 8.0625 11.16875 0 10.4375 0 9.740625 1.146875 7.884375 0 6.259375"></polygon>
                    <polygon id="Path" fill="#338AF3" points="0 0 16 0 16 5.5625 0 5.5625"></polygon>
                    <polygon id="Path" fill="#EEEEEE" points="0 6.259375 16 6.259375 16 9.740625 0 9.740625"></polygon>
                    <polygon id="Path" fill="#6DA544" points="0 10.4375 16 10.4375 16 16 0 16"></polygon>
                    <path d="M3.6625,3.303125 C3.6616431,2.56834398 4.17286557,1.93224274 4.890625,1.775 C4.78071948,1.75159914 4.66861779,1.74007467 4.55625,1.74060619 C3.9636905,1.7498718 3.4273639,2.09355615 3.17139347,2.62805723 C2.91542303,3.16255831 2.98387155,3.79586704 3.34813536,4.26333271 C3.71239917,4.73079837 4.30977384,4.95195137 4.890625,4.834375 C4.1875,4.678125 3.6625,4.053125 3.6625,3.303125 L3.6625,3.303125 Z M5.81875,4.015625 L5.921875,4.340625 L6.265625,4.340625 L5.984375,4.54375 L6.09375,4.86875 L5.8125,4.66875 L5.540625,4.86875 L5.646875,4.54375 L5.365625,4.340625 L5.709375,4.340625 L5.81875,4.015625 Z M6.9125,4.015625 L7.01875,4.340625 L7.3625,4.340625 L7.08125,4.54375 L7.1875,4.86875 L6.9125,4.66875 L6.63125,4.86875 L6.740625,4.54375 L6.459375,4.340625 L6.803125,4.340625 L6.9125,4.015625 Z M8.00625,4.015625 L8.1125,4.340625 L8.45625,4.340625 L8.175,4.54375 L8.284375,4.86875 L8.003125,4.66875 L7.728125,4.86875 L7.834375,4.54375 L7.553125,4.340625 L7.896875,4.340625 L8.00625,4.015625 Z M9.1,4.015625 L9.20625,4.340625 L9.55,4.340625 L9.26875,4.54375 L9.378125,4.86875 L9.096875,4.66875 L8.821875,4.86875 L8.928125,4.54375 L8.646875,4.340625 L8.990625,4.340625 L9.1,4.015625 Z M10.19375,4.015625 L10.3,4.340625 L10.64375,4.340625 L10.3625,4.54375 L10.471875,4.86875 L10.190625,4.66875 L9.915625,4.86875 L10.021875,4.54375 L9.746875,4.340625 L10.090625,4.340625 L10.19375,4.015625 Z M6.9125,2.878125 L7.01875,3.203125 L7.3625,3.203125 L7.08125,3.40625 L7.1875,3.73125 L6.9125,3.528125 L6.63125,3.73125 L6.740625,3.40625 L6.459375,3.203125 L6.803125,3.203125 L6.9125,2.878125 Z M8.00625,2.878125 L8.1125,3.203125 L8.45625,3.203125 L8.175,3.40625 L8.284375,3.73125 L8.003125,3.528125 L7.728125,3.73125 L7.834375,3.40625 L7.553125,3.203125 L7.896875,3.203125 L8.00625,2.878125 Z M9.1,2.878125 L9.20625,3.203125 L9.55,3.203125 L9.26875,3.40625 L9.378125,3.73125 L9.096875,3.528125 L8.821875,3.73125 L8.928125,3.40625 L8.646875,3.203125 L8.990625,3.203125 L9.1,2.878125 Z M10.19375,2.878125 L10.3,3.203125 L10.64375,3.203125 L10.3625,3.40625 L10.471875,3.73125 L10.190625,3.528125 L9.915625,3.73125 L10.021875,3.40625 L9.746875,3.203125 L10.090625,3.203125 L10.19375,2.878125 Z M8.00625,1.740625 L8.1125,2.065625 L8.45625,2.065625 L8.175,2.265625 L8.2875,2.59375 L8.00625,2.390625 L7.73125,2.59375 L7.8375,2.265625 L7.55625,2.065625 L7.9,2.065625 L8.00625,1.740625 Z M9.1,1.740625 L9.20625,2.065625 L9.55,2.065625 L9.26875,2.265625 L9.38125,2.59375 L9.1,2.390625 L8.825,2.59375 L8.93125,2.265625 L8.65,2.065625 L8.99375,2.065625 L9.1,1.740625 Z M10.19375,1.740625 L10.3,2.065625 L10.64375,2.065625 L10.3625,2.265625 L10.475,2.59375 L10.19375,2.390625 L9.91875,2.59375 L10.025,2.265625 L9.75,2.065625 L10.09375,2.065625 L10.19375,1.740625 Z" id="Shape" fill="#EEEEEE"></path>
                </g>
            </g>
        </g>
    </g>
</svg>