<?xml version="1.0" encoding="UTF-8"?>
<svg width="20px" height="20px" viewBox="0 0 20 20" version="1.1" xmlns="http://www.w3.org/2000/svg" xmlns:xlink="http://www.w3.org/1999/xlink">
    <title>uz_flag_20px</title>
    <defs>
        <circle id="path-1" cx="10" cy="10" r="10"></circle>
    </defs>
    <g id="Design-System" stroke="none" stroke-width="1" fill="none" fill-rule="evenodd">
        <g id="Flags-20x20" transform="translate(-201.000000, -1655.000000)">
            <g id="flag" transform="translate(201.000000, 1655.000000)">
                <mask id="mask-2" fill="white">
                    <use xlink:href="#path-1"></use>
                </mask>
                <use id="Mask" fill="#D8D8D8" xlink:href="#path-1"></use>
                <g id="uz" mask="url(#mask-2)" fill-rule="nonzero">
                    <polygon id="Path" fill="#D80027" points="0 6.953125 9.9296875 6.09375 20 6.953125 20 7.82421875 18.4296875 9.9375 20 12.1757812 20 13.046875 10.078125 13.9609375 0 13.046875 0 12.1757812 1.43359375 9.85546875 0 7.82421875"></polygon>
                    <polygon id="Path" fill="#338AF3" points="0 0 20 0 20 6.953125 0 6.953125"></polygon>
                    <polygon id="Path" fill="#EEEEEE" points="0 7.82421875 20 7.82421875 20 12.1757813 0 12.1757813"></polygon>
                    <polygon id="Path" fill="#6DA544" points="0 13.046875 20 13.046875 20 20 0 20"></polygon>
                    <path d="M4.578125,4.12890625 C4.57705388,3.21042998 5.21608197,2.41530343 6.11328125,2.21875 C5.97589935,2.18949893 5.83577224,2.17509334 5.6953125,2.17575773 C4.95461312,2.18733976 4.28420487,2.61694519 3.96424183,3.28507154 C3.64427879,3.95319789 3.72983944,4.74483381 4.1851692,5.32916589 C4.64049896,5.91349797 5.3872173,6.18993921 6.11328125,6.04296875 C5.234375,5.84765625 4.578125,5.06640625 4.578125,4.12890625 L4.578125,4.12890625 Z M7.2734375,5.01953125 L7.40234375,5.42578125 L7.83203125,5.42578125 L7.48046875,5.6796875 L7.6171875,6.0859375 L7.265625,5.8359375 L6.92578125,6.0859375 L7.05859375,5.6796875 L6.70703125,5.42578125 L7.13671875,5.42578125 L7.2734375,5.01953125 Z M8.640625,5.01953125 L8.7734375,5.42578125 L9.203125,5.42578125 L8.8515625,5.6796875 L8.984375,6.0859375 L8.640625,5.8359375 L8.2890625,6.0859375 L8.42578125,5.6796875 L8.07421875,5.42578125 L8.50390625,5.42578125 L8.640625,5.01953125 Z M10.0078125,5.01953125 L10.140625,5.42578125 L10.5703125,5.42578125 L10.21875,5.6796875 L10.3554687,6.0859375 L10.0039062,5.8359375 L9.66015625,6.0859375 L9.79296875,5.6796875 L9.44140625,5.42578125 L9.87109375,5.42578125 L10.0078125,5.01953125 Z M11.375,5.01953125 L11.5078125,5.42578125 L11.9375,5.42578125 L11.5859375,5.6796875 L11.7226562,6.0859375 L11.3710938,5.8359375 L11.0273438,6.0859375 L11.1601562,5.6796875 L10.8085937,5.42578125 L11.2382812,5.42578125 L11.375,5.01953125 Z M12.7421875,5.01953125 L12.875,5.42578125 L13.3046875,5.42578125 L12.953125,5.6796875 L13.0898438,6.0859375 L12.7382812,5.8359375 L12.3945312,6.0859375 L12.5273437,5.6796875 L12.1835937,5.42578125 L12.6132812,5.42578125 L12.7421875,5.01953125 Z M8.640625,3.59765625 L8.7734375,4.00390625 L9.203125,4.00390625 L8.8515625,4.2578125 L8.984375,4.6640625 L8.640625,4.41015625 L8.2890625,4.6640625 L8.42578125,4.2578125 L8.07421875,4.00390625 L8.50390625,4.00390625 L8.640625,3.59765625 Z M10.0078125,3.59765625 L10.140625,4.00390625 L10.5703125,4.00390625 L10.21875,4.2578125 L10.3554687,4.6640625 L10.0039062,4.41015625 L9.66015625,4.6640625 L9.79296875,4.2578125 L9.44140625,4.00390625 L9.87109375,4.00390625 L10.0078125,3.59765625 Z M11.375,3.59765625 L11.5078125,4.00390625 L11.9375,4.00390625 L11.5859375,4.2578125 L11.7226562,4.6640625 L11.3710938,4.41015625 L11.0273438,4.6640625 L11.1601562,4.2578125 L10.8085937,4.00390625 L11.2382812,4.00390625 L11.375,3.59765625 Z M12.7421875,3.59765625 L12.875,4.00390625 L13.3046875,4.00390625 L12.953125,4.2578125 L13.0898438,4.6640625 L12.7382812,4.41015625 L12.3945312,4.6640625 L12.5273437,4.2578125 L12.1835937,4.00390625 L12.6132812,4.00390625 L12.7421875,3.59765625 Z M10.0078125,2.17578125 L10.140625,2.58203125 L10.5703125,2.58203125 L10.21875,2.83203125 L10.359375,3.2421875 L10.0078125,2.98828125 L9.6640625,3.2421875 L9.796875,2.83203125 L9.4453125,2.58203125 L9.875,2.58203125 L10.0078125,2.17578125 Z M11.375,2.17578125 L11.5078125,2.58203125 L11.9375,2.58203125 L11.5859375,2.83203125 L11.7265625,3.2421875 L11.375,2.98828125 L11.03125,3.2421875 L11.1640625,2.83203125 L10.8125,2.58203125 L11.2421875,2.58203125 L11.375,2.17578125 Z M12.7421875,2.17578125 L12.875,2.58203125 L13.3046875,2.58203125 L12.953125,2.83203125 L13.09375,3.2421875 L12.7421875,2.98828125 L12.3984375,3.2421875 L12.53125,2.83203125 L12.1875,2.58203125 L12.6171875,2.58203125 L12.7421875,2.17578125 Z" id="Shape" fill="#EEEEEE"></path>
                </g>
            </g>
        </g>
    </g>
</svg>