<?xml version="1.0" encoding="UTF-8"?>
<svg width="20px" height="20px" viewBox="0 0 20 20" version="1.1" xmlns="http://www.w3.org/2000/svg" xmlns:xlink="http://www.w3.org/1999/xlink">
    <title>va_flag_20px</title>
    <defs>
        <circle id="path-1" cx="10" cy="10" r="10"></circle>
    </defs>
    <g id="Design-System" stroke="none" stroke-width="1" fill="none" fill-rule="evenodd">
        <g id="Flags-20x20" transform="translate(-251.000000, -1655.000000)">
            <g id="flag" transform="translate(251.000000, 1655.000000)">
                <mask id="mask-2" fill="white">
                    <use xlink:href="#path-1"></use>
                </mask>
                <use id="Mask" fill="#D8D8D8" xlink:href="#path-1"></use>
                <g id="va" mask="url(#mask-2)" fill-rule="nonzero">
                    <polygon id="Path" fill="#FFDA44" points="0 0 10 0 12.0195312 9.94921875 10 20 0 20"></polygon>
                    <polygon id="Path" fill="#EEEEEE" points="10 0 20 0 20 20 10 20"></polygon>
                    <path d="M13.828125,8.703125 L15.7070312,11.1875 C15.3553592,11.7163044 15.43553,12.421511 15.8969271,12.8578825 C16.3583242,13.2942539 17.0669018,13.3350148 17.5752943,12.9544305 C18.0836867,12.5738462 18.244195,11.8824847 17.955481,11.316842 C17.6667671,10.7511994 17.0127085,10.4756072 16.40625,10.6640625 L13.4765625,6.7890625 L12.7851562,7.3125 L11.7421875,8.1015625 L12.7929687,9.48828125 L13.8320312,8.703125 L13.828125,8.703125 Z M16.5351562,11.5585938 C16.6593619,11.4650906 16.8240159,11.4449531 16.9670948,11.5057668 C17.1101737,11.5665804 17.2099403,11.6991063 17.2288135,11.853423 C17.2476868,12.0077398 17.1827994,12.1604031 17.0585937,12.2539063 C16.9343881,12.3474094 16.7697341,12.3675469 16.6266552,12.3067332 C16.4835764,12.2459195 16.3838097,12.1133937 16.3649365,11.959077 C16.3460632,11.8047602 16.4109506,11.6520969 16.5351562,11.5585938 L16.5351562,11.5585938 Z" id="Shape" fill="#ACABB1"></path>
                    <path d="M17.0546875,9.48828125 L18.1015625,8.1015625 L17.0625,7.3125 L16.3671875,6.7890625 L13.4375,10.6640625 C12.831494,10.473113 12.176053,10.7464808 11.8853167,11.3114387 C11.5945804,11.8763965 11.7531014,12.568642 12.2607185,12.9507807 C12.7683355,13.3329194 13.477422,13.2938166 13.9399426,12.8581795 C14.4024632,12.4225424 14.4839065,11.717064 14.1328125,11.1875 L16.0078125,8.703125 L17.0546875,9.484375 L17.0546875,9.48828125 Z M13.390625,12.1679688 C13.2971219,12.2921744 13.1444586,12.3570618 12.9901418,12.3381885 C12.835825,12.3193153 12.7032992,12.2195486 12.6424855,12.0764698 C12.5816719,11.9333909 12.6018094,11.7687369 12.6953125,11.6445312 C12.8398558,11.452526 13.1126823,11.4140505 13.3046875,11.5585938 C13.4966927,11.703137 13.5351683,11.9759635 13.390625,12.1679687 L13.390625,12.1679688 Z" id="Shape" fill="#FFDA44"></path>
                </g>
            </g>
        </g>
    </g>
</svg>