<?xml version="1.0" encoding="UTF-8"?>
<svg width="16px" height="16px" viewBox="0 0 16 16" version="1.1" xmlns="http://www.w3.org/2000/svg" xmlns:xlink="http://www.w3.org/1999/xlink">
    <title>va_flag_16px</title>
    <defs>
        <circle id="path-1" cx="8" cy="8" r="8"></circle>
    </defs>
    <g id="Design-System" stroke="none" stroke-width="1" fill="none" fill-rule="evenodd">
        <g id="Flags-16x16" transform="translate(-251.000000, -1655.000000)">
            <g id="flag" transform="translate(251.000000, 1655.000000)">
                <mask id="mask-2" fill="white">
                    <use xlink:href="#path-1"></use>
                </mask>
                <use id="Mask" fill="#D8D8D8" xlink:href="#path-1"></use>
                <g id="va" mask="url(#mask-2)" fill-rule="nonzero">
                    <polygon id="Path" fill="#FFDA44" points="0 0 8 0 9.615625 7.959375 8 16 0 16"></polygon>
                    <polygon id="Path" fill="#EEEEEE" points="8 0 16 0 16 16 8 16"></polygon>
                    <path d="M11.0625,6.9625 L12.565625,8.95 C12.2842874,9.37304354 12.348424,9.93720881 12.7175416,10.286306 C13.0866593,10.6354031 13.6535214,10.6680118 14.0602354,10.3635444 C14.4669494,10.059077 14.595356,9.50598773 14.3643848,9.05347363 C14.1334137,8.60095954 13.6101668,8.38048575 13.125,8.53125 L10.78125,5.43125 L10.228125,5.85 L9.39375,6.48125 L10.234375,7.590625 L11.065625,6.9625 L11.0625,6.9625 Z M13.228125,9.246875 C13.3274895,9.17207251 13.4592127,9.15596248 13.5736758,9.20461342 C13.6881389,9.25326435 13.7679522,9.35928501 13.7830508,9.48273843 C13.7981494,9.60619185 13.7462395,9.72832252 13.646875,9.803125 C13.5475105,9.87792748 13.4157873,9.8940375 13.3013242,9.84538657 C13.1868611,9.79673564 13.1070478,9.69071498 13.0919492,9.56726157 C13.0768506,9.44380815 13.1287605,9.32167748 13.228125,9.246875 L13.228125,9.246875 Z" id="Shape" fill="#ACABB1"></path>
                    <path d="M13.64375,7.590625 L14.48125,6.48125 L13.65,5.85 L13.09375,5.43125 L10.75,8.53125 C10.2651952,8.37849042 9.74084243,8.59718461 9.50825338,9.04915092 C9.27566433,9.50111723 9.40248114,10.0549136 9.80857477,10.3606246 C10.2146684,10.6663355 10.7819376,10.6350533 11.1519541,10.2865436 C11.5219706,9.93803391 11.5871252,9.37365121 11.30625,8.95 L12.80625,6.9625 L13.64375,7.5875 L13.64375,7.590625 Z M10.7125,9.734375 C10.6376975,9.8337395 10.5155668,9.88564943 10.3921134,9.87055082 C10.26866,9.85545222 10.1626394,9.77563892 10.1139884,9.66117582 C10.0653375,9.54671272 10.0814475,9.41498949 10.15625,9.315625 C10.2718846,9.16202081 10.4901458,9.13124039 10.64375,9.24687501 C10.7973542,9.36250963 10.8281346,9.5807708 10.7125,9.734375 L10.7125,9.734375 Z" id="Shape" fill="#FFDA44"></path>
                </g>
            </g>
        </g>
    </g>
</svg>