<?xml version="1.0" encoding="UTF-8"?>
<svg width="16px" height="16px" viewBox="0 0 16 16" version="1.1" xmlns="http://www.w3.org/2000/svg" xmlns:xlink="http://www.w3.org/1999/xlink">
    <title>vc_flag_16px</title>
    <defs>
        <circle id="path-1" cx="8" cy="8" r="8"></circle>
    </defs>
    <g id="Design-System" stroke="none" stroke-width="1" fill="none" fill-rule="evenodd">
        <g id="Flags-16x16" transform="translate(-301.000000, -1655.000000)">
            <g id="flag" transform="translate(301.000000, 1655.000000)">
                <mask id="mask-2" fill="white">
                    <use xlink:href="#path-1"></use>
                </mask>
                <use id="Mask" fill="#D8D8D8" xlink:href="#path-1"></use>
                <g id="vc" mask="url(#mask-2)" fill-rule="nonzero">
                    <polygon id="Path" fill="#FFDA44" points="11.828125 0 4.178125 0 3.48125 8 4.178125 16 11.828125 16 12.525 8"></polygon>
                    <polygon id="Path" fill="#338AF3" points="4.178125 16 4.178125 0 0 0 0 16"></polygon>
                    <path d="M16,0 L11.828125,0 L11.828125,16 L16,16 L16,0 Z M6.2625,10.0875 L4.875,8 L6.265625,5.9125 L7.6625,8 L6.2625,10.0875 Z M9.74375,10.0875 L8.346875,8 L9.740625,5.9125 L11.13125,8 L9.74375,10.0875 Z M8.003125,12.86875 L6.6125,10.78125 L8.003125,8.696875 L9.39375,10.78125 L8.003125,12.86875 Z" id="Shape" fill="#6DA544"></path>
                </g>
            </g>
        </g>
    </g>
</svg>