<?xml version="1.0" encoding="UTF-8"?>
<svg width="16px" height="16px" viewBox="0 0 16 16" version="1.1" xmlns="http://www.w3.org/2000/svg" xmlns:xlink="http://www.w3.org/1999/xlink">
    <title>ve_flag_16px</title>
    <defs>
        <circle id="path-1" cx="8" cy="8" r="8"></circle>
    </defs>
    <g id="Design-System" stroke="none" stroke-width="1" fill="none" fill-rule="evenodd">
        <g id="Flags-16x16" transform="translate(-351.000000, -1655.000000)">
            <g id="flag" transform="translate(351.000000, 1655.000000)">
                <mask id="mask-2" fill="white">
                    <use xlink:href="#path-1"></use>
                </mask>
                <use id="Mask" fill="#D8D8D8" xlink:href="#path-1"></use>
                <g id="ve" mask="url(#mask-2)" fill-rule="nonzero">
                    <polygon id="Path" fill="#0052B4" points="0 4.521875 7.978125 3.38125 16 4.521875 16 11.478125 7.828125 12.71875 0 11.478125"></polygon>
                    <polygon id="Path" fill="#FFDA44" points="0 0 16 0 16 4.521875 0 4.521875"></polygon>
                    <polygon id="Path" fill="#D80027" points="0 11.478125 16 11.478125 16 16 0 16"></polygon>
                    <path d="M13.85625,9.575 L13.43125,9.90625 L13.61875,10.409375 L13.171875,10.109375 L12.75,10.44375 L12.896875,9.928125 L12.453125,9.628125 L12.9875,9.609375 L13.134375,9.09375 L13.321875,9.596875 L13.85625,9.575 Z M12.771875,7.7 L12.490625,8.153125 L12.834375,8.565625 L12.3125,8.4375 L12.03125,8.89375 L11.990625,8.3625 L11.471875,8.228125 L11.96875,8.028125 L11.93125,7.496875 L12.275,7.903125 L12.771875,7.7 Z M11.115625,6.309375 L11.003125,6.834375 L11.46875,7.096875 L10.9375,7.153125 L10.825,7.678125 L10.60625,7.1875 L10.075,7.24375 L10.471875,6.884375 L10.253125,6.396875 L10.715625,6.665625 L11.115625,6.309375 Z M9.084375,5.56875 L9.15625,6.1 L9.6875,6.19375 L9.203125,6.428125 L9.278125,6.959375 L8.903125,6.571875 L8.421875,6.809375 L8.671875,6.334375 L8.303125,5.95 L8.83125,6.04375 L9.084375,5.56875 Z M6.91875,5.56875 L7.16875,6.040625 L7.7,5.946875 L7.325,6.334375 L7.575,6.809375 L7.09375,6.571875 L6.721875,6.959375 L6.796875,6.428125 L6.315625,6.19375 L6.84375,6.1 L6.91875,5.56875 Z M4.8875,6.309375 L5.284375,6.66875 L5.746875,6.4 L5.528125,6.890625 L5.928125,7.246875 L5.396875,7.190625 L5.178125,7.68125 L5.0625,7.159375 L4.53125,7.103125 L4.99375,6.8375 L4.8875,6.309375 Z M3.228125,7.7 L3.725,7.9 L4.06875,7.49375 L4.03125,8.025 L4.53125,8.225 L4.009375,8.35625 L3.971875,8.8875 L3.6875,8.4375 L3.165625,8.56875 L3.509375,8.15625 L3.228125,7.7 Z M2.14375,9.575 L2.68125,9.590625 L2.865625,9.090625 L3.0125,9.603125 L3.546875,9.621875 L3.103125,9.921875 L3.25,10.440625 L2.828125,10.109375 L2.384375,10.409375 L2.56875,9.909375 L2.14375,9.575 Z" id="Shape" fill="#EEEEEE"></path>
                </g>
            </g>
        </g>
    </g>
</svg>