<?xml version="1.0" encoding="UTF-8"?>
<svg width="20px" height="20px" viewBox="0 0 20 20" version="1.1" xmlns="http://www.w3.org/2000/svg" xmlns:xlink="http://www.w3.org/1999/xlink">
    <title>ve_flag_20px</title>
    <defs>
        <circle id="path-1" cx="10" cy="10" r="10"></circle>
    </defs>
    <g id="Design-System" stroke="none" stroke-width="1" fill="none" fill-rule="evenodd">
        <g id="Flags-20x20" transform="translate(-351.000000, -1655.000000)">
            <g id="flag" transform="translate(351.000000, 1655.000000)">
                <mask id="mask-2" fill="white">
                    <use xlink:href="#path-1"></use>
                </mask>
                <use id="Mask" fill="#D8D8D8" xlink:href="#path-1"></use>
                <g id="ve" mask="url(#mask-2)" fill-rule="nonzero">
                    <polygon id="Path" fill="#0052B4" points="0 5.65234375 9.97265625 4.2265625 20 5.65234375 20 14.3476562 9.78515625 15.8984375 0 14.3476563"></polygon>
                    <polygon id="Path" fill="#FFDA44" points="0 0 20 0 20 5.65234375 0 5.65234375"></polygon>
                    <polygon id="Path" fill="#D80027" points="0 14.3476562 20 14.3476562 20 20 0 20"></polygon>
                    <path d="M17.3203125,11.96875 L16.7890625,12.3828125 L17.0234375,13.0117188 L16.4648438,12.6367188 L15.9375,13.0546875 L16.1210938,12.4101562 L15.5664062,12.0351562 L16.234375,12.0117188 L16.4179688,11.3671875 L16.6523438,11.9960938 L17.3203125,11.96875 Z M15.9648438,9.625 L15.6132813,10.1914062 L16.0429688,10.7070312 L15.390625,10.546875 L15.0390625,11.1171875 L14.9882812,10.453125 L14.3398437,10.2851563 L14.9609375,10.0351563 L14.9140625,9.37109375 L15.34375,9.87890625 L15.9648438,9.625 Z M13.8945312,7.88671875 L13.7539062,8.54296875 L14.3359375,8.87109375 L13.671875,8.94140625 L13.53125,9.59765625 L13.2578125,8.984375 L12.59375,9.0546875 L13.0898437,8.60546875 L12.8164062,7.99609375 L13.3945312,8.33203125 L13.8945312,7.88671875 Z M11.3554688,6.9609375 L11.4453125,7.625 L12.109375,7.7421875 L11.5039062,8.03515625 L11.5976562,8.69921875 L11.1289062,8.21484375 L10.5273438,8.51171875 L10.8398438,7.91796875 L10.3789062,7.4375 L11.0390625,7.5546875 L11.3554688,6.9609375 Z M8.6484375,6.9609375 L8.9609375,7.55078125 L9.625,7.43359375 L9.15625,7.91796875 L9.46875,8.51171875 L8.8671875,8.21484375 L8.40234375,8.69921875 L8.49609375,8.03515625 L7.89453125,7.7421875 L8.5546875,7.625 L8.6484375,6.9609375 Z M6.109375,7.88671875 L6.60546875,8.3359375 L7.18359375,8 L6.91015625,8.61328125 L7.41015625,9.05859375 L6.74609375,8.98828125 L6.47265625,9.6015625 L6.328125,8.94921875 L5.6640625,8.87890625 L6.2421875,8.546875 L6.109375,7.88671875 Z M4.03515625,9.625 L4.65625,9.875 L5.0859375,9.3671875 L5.0390625,10.03125 L5.6640625,10.28125 L5.01171875,10.4453125 L4.96484375,11.109375 L4.609375,10.546875 L3.95703125,10.7109375 L4.38671875,10.1953125 L4.03515625,9.625 Z M2.6796875,11.96875 L3.3515625,11.9882812 L3.58203125,11.3632812 L3.765625,12.0039062 L4.43359375,12.0273438 L3.87890625,12.4023438 L4.0625,13.0507813 L3.53515625,12.6367188 L2.98046875,13.0117188 L3.2109375,12.3867188 L2.6796875,11.96875 Z" id="Shape" fill="#EEEEEE"></path>
                </g>
            </g>
        </g>
    </g>
</svg>