<?xml version="1.0" encoding="UTF-8"?>
<svg width="20px" height="20px" viewBox="0 0 20 20" version="1.1" xmlns="http://www.w3.org/2000/svg" xmlns:xlink="http://www.w3.org/1999/xlink">
    <title>vg_flag_20px</title>
    <defs>
        <circle id="path-1" cx="10" cy="10" r="10"></circle>
    </defs>
    <g id="Design-System" stroke="none" stroke-width="1" fill="none" fill-rule="evenodd">
        <g id="Flags-20x20" transform="translate(-401.000000, -1655.000000)">
            <g id="flag" transform="translate(401.000000, 1655.000000)">
                <mask id="mask-2" fill="white">
                    <use xlink:href="#path-1"></use>
                </mask>
                <use id="Mask" fill="#D8D8D8" xlink:href="#path-1"></use>
                <g id="vg" mask="url(#mask-2)" fill-rule="nonzero">
                    <polygon id="Path" fill="#0052B4" points="10 0 20 0 20 20 0 20 0 10"></polygon>
                    <path d="M14.3476562,10 L11.6445312,12.703125 C12.1670552,13.7138809 13.2098255,14.3486768 14.3476562,14.3486768 C15.485487,14.3486768 16.5282573,13.7138809 17.0507812,12.703125 L14.3476562,10 Z" id="Path" fill="#FFDA44"></path>
                    <path d="M11.3046875,5.21875 L11.3046875,10 C11.3046875,12.328125 14.3476562,13.046875 14.3476562,13.046875 C14.3476562,13.046875 17.3945312,12.328125 17.3945312,10 L17.3945312,5.21875 L11.3007812,5.21875 L11.3046875,5.21875 Z" id="Path" fill="#6DA544"></path>
                    <path d="M12.1757813,6.0859375 L13.0429688,6.0859375 L13.0429688,6.95703125 L12.1757813,6.95703125 L12.1757813,6.0859375 Z M12.1757813,8.04296875 L13.0429688,8.04296875 L13.0429688,8.9140625 L12.1757813,8.9140625 L12.1757813,8.04296875 Z M12.1757813,10 L13.0429688,10 L13.0429688,10.8710938 L12.1757813,10.8710938 L12.1757813,10 Z M15.6523438,6.0859375 L16.5234375,6.0859375 L16.5234375,6.95703125 L15.6523438,6.95703125 L15.6523438,6.0859375 Z M15.6523438,8.04296875 L16.5234375,8.04296875 L16.5234375,8.9140625 L15.6523438,8.9140625 L15.6523438,8.04296875 Z M15.6523438,10 L16.5234375,10 L16.5234375,10.8710938 L15.6523438,10.8710938 L15.6523438,10 Z" id="Shape" fill="#FFDA44"></path>
                    <polygon id="Path" fill="#EEEEEE" points="0 0 0 1.25 1.25 2.5 0 3.75 0 10 1.25 10 2.5 8.75 3.75 10 5 10 5 6.7578125 8.2421875 10 10 10 9.6875 9.375 10 8.7890625 10 8.2421875 6.7578125 5 10 5 10 3.75 8.75 2.5 10 1.25 10 0 3.75 0 2.5 1.25 1.25 0"></polygon>
                    <path d="M1.25,0 L1.25,1.25 L0,1.25 L0,3.75 L1.25,3.75 L1.25,10 L3.75,10 L3.75,3.75 L10,3.75 L10,1.25 L3.75,1.25 L3.75,0 L1.25,0 Z M5,5 L10,10 L10,8.7890625 L6.2109375,5 L5,5 Z" id="Shape" fill="#D80027"></path>
                    <polygon id="Path" fill="#EEEEEE" points="13.6953125 7.390625 15 7.390625 15 10.8671875 13.6953125 10.8671875"></polygon>
                    <circle id="Oval" fill="#A2001D" cx="14.3476562" cy="7.390625" r="1"></circle>
                </g>
            </g>
        </g>
    </g>
</svg>