<?xml version="1.0" encoding="UTF-8"?>
<svg width="16px" height="16px" viewBox="0 0 16 16" version="1.1" xmlns="http://www.w3.org/2000/svg" xmlns:xlink="http://www.w3.org/1999/xlink">
    <title>vg_flag_16px</title>
    <defs>
        <circle id="path-1" cx="8" cy="8" r="8"></circle>
    </defs>
    <g id="Design-System" stroke="none" stroke-width="1" fill="none" fill-rule="evenodd">
        <g id="Flags-16x16" transform="translate(-401.000000, -1655.000000)">
            <g id="flag" transform="translate(401.000000, 1655.000000)">
                <mask id="mask-2" fill="white">
                    <use xlink:href="#path-1"></use>
                </mask>
                <use id="Mask" fill="#D8D8D8" xlink:href="#path-1"></use>
                <g id="vg" mask="url(#mask-2)" fill-rule="nonzero">
                    <polygon id="Path" fill="#0052B4" points="8 0 16 0 16 16 0 16 0 8"></polygon>
                    <path d="M11.478125,8 L9.315625,10.1625 C9.73364413,10.9711047 10.5678604,11.4789415 11.478125,11.4789415 C12.3883896,11.4789415 13.2226059,10.9711047 13.640625,10.1625 L11.478125,8 Z" id="Path" fill="#FFDA44"></path>
                    <path d="M9.04375,4.175 L9.04375,8 C9.04375,9.8625 11.478125,10.4375 11.478125,10.4375 C11.478125,10.4375 13.915625,9.8625 13.915625,8 L13.915625,4.175 L9.040625,4.175 L9.04375,4.175 Z" id="Path" fill="#6DA544"></path>
                    <path d="M9.740625,4.86875 L10.434375,4.86875 L10.434375,5.565625 L9.740625,5.565625 L9.740625,4.86875 Z M9.740625,6.434375 L10.434375,6.434375 L10.434375,7.13125 L9.740625,7.13125 L9.740625,6.434375 Z M9.740625,8 L10.434375,8 L10.434375,8.696875 L9.740625,8.696875 L9.740625,8 Z M12.521875,4.86875 L13.21875,4.86875 L13.21875,5.565625 L12.521875,5.565625 L12.521875,4.86875 Z M12.521875,6.434375 L13.21875,6.434375 L13.21875,7.13125 L12.521875,7.13125 L12.521875,6.434375 Z M12.521875,8 L13.21875,8 L13.21875,8.696875 L12.521875,8.696875 L12.521875,8 Z" id="Shape" fill="#FFDA44"></path>
                    <polygon id="Path" fill="#EEEEEE" points="0 0 0 1 1 2 0 3 0 8 1 8 2 7 3 8 4 8 4 5.40625 6.59375 8 8 8 7.75 7.5 8 7.03125 8 6.59375 5.40625 4 8 4 8 3 7 2 8 1 8 0 3 0 2 1 1 0"></polygon>
                    <path d="M1,0 L1,1 L0,1 L0,3 L1,3 L1,8 L3,8 L3,3 L8,3 L8,1 L3,1 L3,0 L1,0 Z M4,4 L8,8 L8,7.03125 L4.96875,4 L4,4 Z" id="Shape" fill="#D80027"></path>
                    <polygon id="Path" fill="#EEEEEE" points="10.95625 5.9125 12 5.9125 12 8.69375 10.95625 8.69375"></polygon>
                    <circle id="Oval" fill="#A2001D" cx="11.478125" cy="5.9125" r="1"></circle>
                </g>
            </g>
        </g>
    </g>
</svg>