<?xml version="1.0" encoding="UTF-8"?>
<svg width="16px" height="16px" viewBox="0 0 16 16" version="1.1" xmlns="http://www.w3.org/2000/svg" xmlns:xlink="http://www.w3.org/1999/xlink">
    <title>vi_flag_16px</title>
    <defs>
        <circle id="path-1" cx="8" cy="8" r="8"></circle>
    </defs>
    <g id="Design-System" stroke="none" stroke-width="1" fill="none" fill-rule="evenodd">
        <g id="Flags-16x16" transform="translate(-451.000000, -1655.000000)">
            <g id="flag" transform="translate(451.000000, 1655.000000)">
                <mask id="mask-2" fill="white">
                    <use xlink:href="#path-1"></use>
                </mask>
                <use id="Mask" fill="#D8D8D8" xlink:href="#path-1"></use>
                <g id="vi" mask="url(#mask-2)" fill-rule="nonzero">
                    <polygon id="Path" fill="#EEEEEE" points="0 0 16 0 16 16 0 16"></polygon>
                    <g id="Group" transform="translate(3.656250, 4.228125)" fill="#FFDA44">
                        <path d="M5.703125,1.359375 C5.703125,0.608612918 5.09451208,0 4.34375,0 C3.59298792,0 2.984375,0.608612918 2.984375,1.359375 L0,1.359375 C0.0187062439,2.1077443 0.632655776,2.7036365 1.38125,2.7 L1.3375,2.7 C1.3375,3.43868085 1.93631915,4.0375 2.675,4.0375 L4.346875,5.35 L6.01875,4.0375 C6.37347706,4.0375 6.71367541,3.89658523 6.96450532,3.64575532 C7.21533523,3.39492541 7.35625,3.05472706 7.35625,2.7 L7.3125,2.7 C8.06109422,2.7036365 8.67504376,2.1077443 8.69375,1.359375 L5.70625,1.359375 L5.703125,1.359375 Z" id="Path"></path>
                        <path d="M3.746875,5.21875 L2.903125,7.121875 C3.36058285,7.30805335 3.84985744,7.40357334 4.34375,7.40312657 C4.83659118,7.40316891 5.32476595,7.30765645 5.78125,7.121875 L4.940625,5.21875 L3.75,5.21875 L3.746875,5.21875 Z" id="Path"></path>
                    </g>
                    <path d="M7.978125,6.6875 L6.259375,7.359375 L6.259375,8.6 C6.27122839,9.10611642 6.53196874,9.57381211 6.95625,9.85 L7.309375,9.778125 L7.653125,10.225 C7.76641773,10.2693428 7.88224718,10.3069091 8,10.3375 C8,10.3375 8.14375,10.303125 8.346875,10.225 L8.640625,9.784375 L9.046875,9.85 C9.47045477,9.57209679 9.72995002,9.10336889 9.740625,8.596875 L9.740625,7.359375 L7.978125,6.6875 Z" id="Path" fill="#EEEEEE"></path>
                    <path d="M1.9375,8.05625 L2.884375,10.6875 L3.815625,8.05625 L4.525,8.05625 L3.16875,11.534375 L2.59375,11.534375 L1.228125,8.05625 L1.940625,8.05625 L1.9375,8.05625 Z M12.86875,11.534375 L12.86875,8.05625 L13.546875,8.05625 L13.546875,11.534375 L12.86875,11.534375 Z" id="Shape" fill="#338AF3"></path>
                    <path d="M6.95625,7.0125 L6.95625,9.85 C7.17096342,10.005224 7.40529334,10.1313208 7.653125,10.225 L7.653125,7.009375 L6.95625,7.0125 Z M9.04375,7.0125 L9.04375,9.85 C8.82865423,10.0046129 8.59440735,10.1306651 8.346875,10.225 L8.346875,7.009375 L9.04375,7.0125 Z" id="Shape" fill="#D80027"></path>
                    <polygon id="Path" fill="#0052B4" points="6.259375 6.25625 9.740625 6.25625 9.740625 7.359375 6.259375 7.359375"></polygon>
                </g>
            </g>
        </g>
    </g>
</svg>