<?xml version="1.0" encoding="UTF-8"?>
<svg width="20px" height="20px" viewBox="0 0 20 20" version="1.1" xmlns="http://www.w3.org/2000/svg" xmlns:xlink="http://www.w3.org/1999/xlink">
    <title>vi_flag_20px</title>
    <defs>
        <circle id="path-1" cx="10" cy="10" r="10"></circle>
    </defs>
    <g id="Design-System" stroke="none" stroke-width="1" fill="none" fill-rule="evenodd">
        <g id="Flags-20x20" transform="translate(-451.000000, -1655.000000)">
            <g id="flag" transform="translate(451.000000, 1655.000000)">
                <mask id="mask-2" fill="white">
                    <use xlink:href="#path-1"></use>
                </mask>
                <use id="Mask" fill="#D8D8D8" xlink:href="#path-1"></use>
                <g id="vi" mask="url(#mask-2)" fill-rule="nonzero">
                    <polygon id="Path" fill="#EEEEEE" points="0 0 20 0 20 20 0 20"></polygon>
                    <g id="Group" transform="translate(4.570312, 5.285156)" fill="#FFDA44">
                        <path d="M7.12890625,1.69921875 C7.12890625,0.760766148 6.3681401,0 5.4296875,0 C4.4912349,0 3.73046875,0.760766148 3.73046875,1.69921875 L0,1.69921875 C0.0233828048,2.63468038 0.79081972,3.37954562 1.7265625,3.375 L1.671875,3.375 C1.671875,4.29835107 2.42039893,5.046875 3.34375,5.046875 L5.43359375,6.6875 L7.5234375,5.046875 C7.96684632,5.046875 8.39209427,4.87073153 8.70563165,4.55719415 C9.01916903,4.24365677 9.1953125,3.81840882 9.1953125,3.375 L9.140625,3.375 C10.0763678,3.37954562 10.8438047,2.63468038 10.8671875,1.69921875 L7.1328125,1.69921875 L7.12890625,1.69921875 Z" id="Path"></path>
                        <path d="M4.68359375,6.5234375 L3.62890625,8.90234375 C4.20072856,9.13506669 4.8123218,9.25446667 5.4296875,9.25390821 C6.04573898,9.25396114 6.65595744,9.13457057 7.2265625,8.90234375 L6.17578125,6.5234375 L4.6875,6.5234375 L4.68359375,6.5234375 Z" id="Path"></path>
                    </g>
                    <path d="M9.97265625,8.359375 L7.82421875,9.19921875 L7.82421875,10.75 C7.83903549,11.3826455 8.16496092,11.9672651 8.6953125,12.3125 L9.13671875,12.2226563 L9.56640625,12.78125 C9.70802216,12.8366785 9.85280897,12.8836364 10,12.921875 C10,12.921875 10.1796875,12.8789063 10.4335938,12.78125 L10.8007813,12.2304688 L11.3085938,12.3125 C11.8380685,11.965121 12.1624375,11.3792111 12.1757813,10.7460938 L12.1757813,9.19921875 L9.97265625,8.359375 Z" id="Path" fill="#EEEEEE"></path>
                    <path d="M2.421875,10.0703125 L3.60546875,13.359375 L4.76953125,10.0703125 L5.65625,10.0703125 L3.9609375,14.4179688 L3.2421875,14.4179688 L1.53515625,10.0703125 L2.42578125,10.0703125 L2.421875,10.0703125 Z M16.0859375,14.4179688 L16.0859375,10.0703125 L16.9335938,10.0703125 L16.9335938,14.4179688 L16.0859375,14.4179688 Z" id="Shape" fill="#338AF3"></path>
                    <path d="M8.6953125,8.765625 L8.6953125,12.3125 C8.96370428,12.5065299 9.25661668,12.664151 9.56640625,12.78125 L9.56640625,8.76171875 L8.6953125,8.765625 Z M11.3046875,8.765625 L11.3046875,12.3125 C11.0358178,12.5057662 10.7430092,12.6633313 10.4335937,12.78125 L10.4335937,8.76171875 L11.3046875,8.765625 Z" id="Shape" fill="#D80027"></path>
                    <polygon id="Path" fill="#0052B4" points="7.82421875 7.8203125 12.1757813 7.8203125 12.1757813 9.19921875 7.82421875 9.19921875"></polygon>
                </g>
            </g>
        </g>
    </g>
</svg>