<?xml version="1.0" encoding="UTF-8"?>
<svg width="20px" height="20px" viewBox="0 0 20 20" version="1.1" xmlns="http://www.w3.org/2000/svg" xmlns:xlink="http://www.w3.org/1999/xlink">
    <title>vu_flag_20px</title>
    <defs>
        <circle id="path-1" cx="10" cy="10" r="10"></circle>
    </defs>
    <g id="Design-System" stroke="none" stroke-width="1" fill="none" fill-rule="evenodd">
        <g id="Flags-20x20" transform="translate(-51.000000, -1705.000000)">
            <g id="flag" transform="translate(51.000000, 1705.000000)">
                <mask id="mask-2" fill="white">
                    <use xlink:href="#path-1"></use>
                </mask>
                <use id="Mask" fill="#D8D8D8" xlink:href="#path-1"></use>
                <g id="vu" mask="url(#mask-2)" fill-rule="nonzero">
                    <polygon id="Path" fill="#D80027" points="20 8.6953125 20 0 0 0 8.421875 9.3515625"></polygon>
                    <polygon id="Path" fill="#6DA544" points="20 11.3046875 20 20 0 20 8.45703125 10.625"></polygon>
                    <polygon id="Path" fill="#333333" points="0 0 8.6953125 8.6953125 20 8.6953125 20 9.5625 19.5742188 10.0234375 20 10.4296875 20 11.3046875 8.6953125 11.3046875 0 20 0 18.7695312 0.3125 17.8710938 0 17.5351562 0 2.4609375 0.37109375 2.0546875 0 1.234375"></polygon>
                    <g id="Group" transform="translate(0.000000, 1.238281)" fill="#FFDA44">
                        <polygon id="Path" points="20 8.32421875 8.328125 8.32421875 0 -1.80411242e-15 0 1.22265625 7.53125 8.76171875 0 16.3007812 0 17.53125 8.328125 9.19140625 20 9.19140625"></polygon>
                        <path d="M2.4296875,10.8945312 L2.4296875,10.0507812 C3.26674407,10.0507812 3.9453125,9.37221282 3.9453125,8.53515625 C3.93889001,7.94646314 3.4598219,7.47262122 2.87109375,7.47265625 C2.467667,7.47265625 2.140625,7.79969825 2.140625,8.203125 C2.140625,8.46200848 2.35049152,8.671875 2.609375,8.671875 C2.75390625,8.671875 2.875,8.5546875 2.875,8.40625 L3.7109375,8.40625 C3.70878554,9.01310013 3.21622894,9.50391007 2.609375,9.50390625 C1.890625,9.50390625 1.3046875,8.91796875 1.3046875,8.19921875 C1.3046875,7.33203125 2.0078125,6.62890625 2.8671875,6.62890625 C3.92429503,6.62890625 4.78125,7.48586122 4.78125,8.54296875 C4.78125,9.8359375 3.7265625,10.8945312 2.4296875,10.8945312 Z" id="Path"></path>
                    </g>
                </g>
            </g>
        </g>
    </g>
</svg>