<?xml version="1.0" encoding="UTF-8"?>
<svg width="20px" height="20px" viewBox="0 0 20 20" version="1.1" xmlns="http://www.w3.org/2000/svg" xmlns:xlink="http://www.w3.org/1999/xlink">
    <title>wf_flag_20px</title>
    <defs>
        <circle id="path-1" cx="10" cy="10" r="10"></circle>
    </defs>
    <g id="Design-System" stroke="none" stroke-width="1" fill="none" fill-rule="evenodd">
        <g id="Flags-20x20" transform="translate(-101.000000, -1705.000000)">
            <g id="flag" transform="translate(101.000000, 1705.000000)">
                <mask id="mask-2" fill="white">
                    <use xlink:href="#path-1"></use>
                </mask>
                <use id="Mask" fill="#D8D8D8" xlink:href="#path-1"></use>
                <g id="wf" mask="url(#mask-2)" fill-rule="nonzero">
                    <polygon id="Path" fill="#D80027" points="10 0 20 0 20 20 0 20 0 10"></polygon>
                    <polygon id="Path" fill="#EEEEEE" points="0 0 10 0 10 10 0 10"></polygon>
                    <polygon id="Path" fill="#0052B4" points="0 0 2.9296875 0 2.9296875 8.75 0 8.75"></polygon>
                    <polygon id="Path" fill="#D80027" points="5.8203125 0 8.75 0 8.75 8.75 5.8203125 8.75"></polygon>
                    <path d="M15,9.0625 L12.1875,6.25 L17.8125,6.25 L15,9.0625 Z M14.0625,10 L11.25,7.1875 L11.25,12.8125 L14.0625,10 Z M15,10.9375 L12.1875,13.75 L17.8125,13.75 L15,10.9375 Z M15.9375,10 L18.75,7.1875 L18.75,12.8125 L15.9375,10 Z" id="Shape" fill="#EEEEEE"></path>
                </g>
            </g>
        </g>
    </g>
</svg>