<?xml version="1.0" encoding="UTF-8"?>
<svg width="16px" height="16px" viewBox="0 0 16 16" version="1.1" xmlns="http://www.w3.org/2000/svg" xmlns:xlink="http://www.w3.org/1999/xlink">
    <title>wf_flag_16px</title>
    <defs>
        <circle id="path-1" cx="8" cy="8" r="8"></circle>
    </defs>
    <g id="Design-System" stroke="none" stroke-width="1" fill="none" fill-rule="evenodd">
        <g id="Flags-16x16" transform="translate(-101.000000, -1705.000000)">
            <g id="flag" transform="translate(101.000000, 1705.000000)">
                <mask id="mask-2" fill="white">
                    <use xlink:href="#path-1"></use>
                </mask>
                <use id="Mask" fill="#D8D8D8" xlink:href="#path-1"></use>
                <g id="wf" mask="url(#mask-2)" fill-rule="nonzero">
                    <polygon id="Path" fill="#D80027" points="8 0 16 0 16 16 0 16 0 8"></polygon>
                    <polygon id="Path" fill="#EEEEEE" points="0 0 8 0 8 8 0 8"></polygon>
                    <polygon id="Path" fill="#0052B4" points="0 0 2.34375 0 2.34375 7 0 7"></polygon>
                    <polygon id="Path" fill="#D80027" points="4.65625 0 7 0 7 7 4.65625 7"></polygon>
                    <path d="M12,7.25 L9.75,5 L14.25,5 L12,7.25 Z M11.25,8 L9,5.75 L9,10.25 L11.25,8 Z M12,8.75 L9.75,11 L14.25,11 L12,8.75 Z M12.75,8 L15,5.75 L15,10.25 L12.75,8 Z" id="Shape" fill="#EEEEEE"></path>
                </g>
            </g>
        </g>
    </g>
</svg>