<?xml version="1.0" encoding="UTF-8"?>
<svg width="16px" height="16px" viewBox="0 0 16 16" version="1.1" xmlns="http://www.w3.org/2000/svg" xmlns:xlink="http://www.w3.org/1999/xlink">
    <title>wiphala_flag_16px</title>
    <defs>
        <circle id="path-1" cx="8" cy="8" r="8"></circle>
    </defs>
    <g id="Design-System" stroke="none" stroke-width="1" fill="none" fill-rule="evenodd">
        <g id="Flags-16x16" transform="translate(-151.000000, -1705.000000)">
            <g id="flag" transform="translate(151.000000, 1705.000000)">
                <mask id="mask-2" fill="white">
                    <use xlink:href="#path-1"></use>
                </mask>
                <use id="Mask" fill="#D8D8D8" xlink:href="#path-1"></use>
                <g id="wiphala" mask="url(#mask-2)" fill-rule="nonzero">
                    <polygon id="Path" fill="#EEEEEE" points="0 2.28125 0 0 2.28125 0 16 13.71875 16 16 13.71875 16"></polygon>
                    <polygon id="Path" fill="#FFDA44" points="2.28125 0 2.28125 2.28125 4.5625 2.28125 4.5625 4.5625 6.84375 4.5625 6.84375 6.84375 9.15625 6.84375 9.15625 9.15625 11.4375 9.15625 11.4375 11.4375 13.71875 11.4375 13.71875 13.71875 16 13.71875 16 11.4375 13.71875 9.15625 11.4375 6.875 11.4375 6.84375 9.15625 4.5625 6.84375 2.28125 4.5625 0"></polygon>
                    <polygon id="Path" fill="#FF9811" points="4.5625 0 4.5625 2.28125 6.84375 2.28125 6.84375 4.5625 9.15625 4.5625 9.15625 6.84375 11.4375 6.84375 11.4375 9.15625 13.71875 9.15625 13.71875 11.4375 16 11.4375 16 9.15625 13.71875 6.84375 9.15625 2.28125 6.84375 0"></polygon>
                    <polygon id="Path" fill="#D80027" points="6.84375 0 6.84375 2.28125 9.15625 2.28125 9.15625 4.5625 11.4375 4.5625 11.4375 6.84375 13.71875 6.84375 13.71875 9.15625 16 9.15625 16 6.84375 13.71875 4.5625 11.4375 2.28125 9.15625 0"></polygon>
                    <polygon id="Path" fill="#4A1F63" points="9.15625 0 9.15625 2.28125 11.4375 2.28125 11.4375 4.5625 13.71875 4.5625 13.71875 6.84375 16 6.84375 16 4.5625 13.71875 2.28125 11.4375 0"></polygon>
                    <polygon id="Path" fill="#0052B4" points="11.4375 0 11.4375 2.28125 13.71875 2.28125 13.71875 4.5625 16 4.5625 16 2.28125 13.71875 0"></polygon>
                    <path d="M13.71875,0 L13.71875,2.28125 L16,2.28125 L16,0 L13.71875,0 Z M13.71875,16 L13.71875,13.71875 L11.40625,13.71875 L11.40625,11.4375 L9.125,11.4375 L9.125,9.15625 L6.84375,9.15625 L6.84375,6.84375 L4.5625,6.84375 L4.5625,4.5625 L2.28125,4.5625 L2.28125,2.28125 L0,2.28125 L0,4.5625 L2.28125,6.84375 L4.5625,9.125 L4.5625,9.15625 L6.84375,11.4375 L9.125,13.71875 L11.40625,16 L13.71875,16 Z" id="Shape" fill="#6DA544"></path>
                    <polygon id="Path" fill="#0052B4" points="11.4375 16 11.4375 13.71875 9.125 13.71875 9.125 11.4375 6.84375 11.4375 6.84375 9.15625 4.5625 9.15625 4.5625 6.84375 2.28125 6.84375 2.28125 4.5625 0 4.5625 0 6.84375 2.28125 9.15625 6.84375 13.71875 9.125 16"></polygon>
                    <polygon id="Path" fill="#4A1F63" points="9.125 16 9.125 13.71875 6.84375 13.71875 6.84375 11.4375 4.5625 11.4375 4.5625 9.15625 2.28125 9.15625 2.28125 6.84375 0 6.84375 0 9.15625 2.28125 11.4375 4.5625 13.71875 6.84375 16"></polygon>
                    <polygon id="Path" fill="#D80027" points="6.84375 16 6.84375 13.71875 4.5625 13.71875 4.5625 11.4375 2.28125 11.4375 2.28125 9.125 0 9.125 0 11.4375 2.28125 13.71875 4.5625 16"></polygon>
                    <polygon id="Path" fill="#FF9811" points="4.5625 16 4.5625 13.71875 2.28125 13.71875 2.28125 11.4375 0 11.4375 0 13.71875 2.28125 16"></polygon>
                    <polygon id="Path" fill="#FFDA44" points="2.28125 16 2.28125 13.71875 0 13.71875 0 16"></polygon>
                </g>
            </g>
        </g>
    </g>
</svg>