<?xml version="1.0" encoding="UTF-8"?>
<svg width="20px" height="20px" viewBox="0 0 20 20" version="1.1" xmlns="http://www.w3.org/2000/svg" xmlns:xlink="http://www.w3.org/1999/xlink">
    <title>wiphala_flag_20px</title>
    <defs>
        <circle id="path-1" cx="10" cy="10" r="10"></circle>
    </defs>
    <g id="Design-System" stroke="none" stroke-width="1" fill="none" fill-rule="evenodd">
        <g id="Flags-20x20" transform="translate(-151.000000, -1705.000000)">
            <g id="flag" transform="translate(151.000000, 1705.000000)">
                <mask id="mask-2" fill="white">
                    <use xlink:href="#path-1"></use>
                </mask>
                <use id="Mask" fill="#D8D8D8" xlink:href="#path-1"></use>
                <g id="wiphala" mask="url(#mask-2)" fill-rule="nonzero">
                    <polygon id="Path" fill="#EEEEEE" points="0 2.8515625 0 0 2.8515625 0 20 17.1484375 20 20 17.1484375 20"></polygon>
                    <polygon id="Path" fill="#FFDA44" points="2.8515625 0 2.8515625 2.8515625 5.703125 2.8515625 5.703125 5.703125 8.5546875 5.703125 8.5546875 8.5546875 11.4453125 8.5546875 11.4453125 11.4453125 14.296875 11.4453125 14.296875 14.296875 17.1484375 14.296875 17.1484375 17.1484375 20 17.1484375 20 14.296875 17.1484375 11.4453125 14.296875 8.59375 14.296875 8.5546875 11.4453125 5.703125 8.5546875 2.8515625 5.703125 0"></polygon>
                    <polygon id="Path" fill="#FF9811" points="5.703125 0 5.703125 2.8515625 8.5546875 2.8515625 8.5546875 5.703125 11.4453125 5.703125 11.4453125 8.5546875 14.296875 8.5546875 14.296875 11.4453125 17.1484375 11.4453125 17.1484375 14.296875 20 14.296875 20 11.4453125 17.1484375 8.5546875 11.4453125 2.8515625 8.5546875 0"></polygon>
                    <polygon id="Path" fill="#D80027" points="8.5546875 0 8.5546875 2.8515625 11.4453125 2.8515625 11.4453125 5.703125 14.296875 5.703125 14.296875 8.5546875 17.1484375 8.5546875 17.1484375 11.4453125 20 11.4453125 20 8.5546875 17.1484375 5.703125 14.296875 2.8515625 11.4453125 0"></polygon>
                    <polygon id="Path" fill="#4A1F63" points="11.4453125 0 11.4453125 2.8515625 14.296875 2.8515625 14.296875 5.703125 17.1484375 5.703125 17.1484375 8.5546875 20 8.5546875 20 5.703125 17.1484375 2.8515625 14.296875 0"></polygon>
                    <polygon id="Path" fill="#0052B4" points="14.296875 0 14.296875 2.8515625 17.1484375 2.8515625 17.1484375 5.703125 20 5.703125 20 2.8515625 17.1484375 0"></polygon>
                    <path d="M17.1484375,0 L17.1484375,2.8515625 L20,2.8515625 L20,0 L17.1484375,0 Z M17.1484375,20 L17.1484375,17.1484375 L14.2578125,17.1484375 L14.2578125,14.296875 L11.40625,14.296875 L11.40625,11.4453125 L8.5546875,11.4453125 L8.5546875,8.5546875 L5.703125,8.5546875 L5.703125,5.703125 L2.8515625,5.703125 L2.8515625,2.8515625 L0,2.8515625 L0,5.703125 L2.8515625,8.5546875 L5.703125,11.40625 L5.703125,11.4453125 L8.5546875,14.296875 L11.40625,17.1484375 L14.2578125,20 L17.1484375,20 Z" id="Shape" fill="#6DA544"></path>
                    <polygon id="Path" fill="#0052B4" points="14.296875 20 14.296875 17.1484375 11.40625 17.1484375 11.40625 14.296875 8.5546875 14.296875 8.5546875 11.4453125 5.703125 11.4453125 5.703125 8.5546875 2.8515625 8.5546875 2.8515625 5.703125 0 5.703125 0 8.5546875 2.8515625 11.4453125 8.5546875 17.1484375 11.40625 20"></polygon>
                    <polygon id="Path" fill="#4A1F63" points="11.40625 20 11.40625 17.1484375 8.5546875 17.1484375 8.5546875 14.296875 5.703125 14.296875 5.703125 11.4453125 2.8515625 11.4453125 2.8515625 8.5546875 0 8.5546875 0 11.4453125 2.8515625 14.296875 5.703125 17.1484375 8.5546875 20"></polygon>
                    <polygon id="Path" fill="#D80027" points="8.5546875 20 8.5546875 17.1484375 5.703125 17.1484375 5.703125 14.296875 2.8515625 14.296875 2.8515625 11.40625 0 11.40625 0 14.296875 2.8515625 17.1484375 5.703125 20"></polygon>
                    <polygon id="Path" fill="#FF9811" points="5.703125 20 5.703125 17.1484375 2.8515625 17.1484375 2.8515625 14.296875 0 14.296875 0 17.1484375 2.8515625 20"></polygon>
                    <polygon id="Path" fill="#FFDA44" points="2.8515625 20 2.8515625 17.1484375 0 17.1484375 0 20"></polygon>
                </g>
            </g>
        </g>
    </g>
</svg>