<?xml version="1.0" encoding="UTF-8"?>
<svg width="16px" height="16px" viewBox="0 0 16 16" version="1.1" xmlns="http://www.w3.org/2000/svg" xmlns:xlink="http://www.w3.org/1999/xlink">
    <title>ws_flag_16px</title>
    <defs>
        <circle id="path-1" cx="8" cy="8" r="8"></circle>
    </defs>
    <g id="Design-System" stroke="none" stroke-width="1" fill="none" fill-rule="evenodd">
        <g id="Flags-16x16" transform="translate(-201.000000, -1705.000000)">
            <g id="flag" transform="translate(201.000000, 1705.000000)">
                <mask id="mask-2" fill="white">
                    <use xlink:href="#path-1"></use>
                </mask>
                <use id="Mask" fill="#D8D8D8" xlink:href="#path-1"></use>
                <g id="ws" mask="url(#mask-2)" fill-rule="nonzero">
                    <polygon id="Path" fill="#D80027" points="0 8 8 0 16 0 16 16 0 16"></polygon>
                    <polygon id="Path" fill="#0052B4" points="0 0 8 0 8 8 0 8"></polygon>
                    <path d="M6.40625,5.21875 L6.5375,5.615625 L6.95625,5.615625 L6.61875,5.8625 L6.746875,6.259375 L6.409375,6.015625 L6.06875,6.259375 L6.196875,5.8625 L5.859375,5.615625 L6.278125,5.615625 L6.40625,5.21875 Z M4.30625,2.0875 L4.525,2.75 L5.21875,2.75 L4.653125,3.1625 L4.86875,3.825 L4.303125,3.415625 L3.740625,3.825 L3.953125,3.1625 L3.390625,2.75 L4.0875,2.75 L4.30625,2.0875 Z M6.390625,2.78125 L6.60625,3.446875 L7.303125,3.446875 L6.740625,3.85625 L6.95625,4.521875 L6.390625,4.1125 L5.825,4.521875 L6.04375,3.85625 L5.475,3.446875 L6.175,3.446875 L6.390625,2.78125 Z M4.740625,5.5625 L4.95625,6.228125 L5.65625,6.228125 L5.090625,6.640625 L5.30625,7.303125 L4.740625,6.89375 L4.178125,7.303125 L4.390625,6.640625 L3.828125,6.228125 L4.525,6.228125 L4.740625,5.5625 Z M2.9125,3.825 L3.128125,4.490625 L3.825,4.490625 L3.2625,4.9 L3.478125,5.565625 L2.9125,5.153125 L2.34375,5.565625 L2.559375,4.9 L1.996875,4.490625 L2.69375,4.490625 L2.9125,3.825 Z" id="Shape" fill="#EEEEEE"></path>
                </g>
            </g>
        </g>
    </g>
</svg>