<?xml version="1.0" encoding="UTF-8"?>
<svg width="20px" height="20px" viewBox="0 0 20 20" version="1.1" xmlns="http://www.w3.org/2000/svg" xmlns:xlink="http://www.w3.org/1999/xlink">
    <title>ws_flag_20px</title>
    <defs>
        <circle id="path-1" cx="10" cy="10" r="10"></circle>
    </defs>
    <g id="Design-System" stroke="none" stroke-width="1" fill="none" fill-rule="evenodd">
        <g id="Flags-20x20" transform="translate(-201.000000, -1705.000000)">
            <g id="flag" transform="translate(201.000000, 1705.000000)">
                <mask id="mask-2" fill="white">
                    <use xlink:href="#path-1"></use>
                </mask>
                <use id="Mask" fill="#D8D8D8" xlink:href="#path-1"></use>
                <g id="ws" mask="url(#mask-2)" fill-rule="nonzero">
                    <polygon id="Path" fill="#D80027" points="0 10 10 0 20 0 20 20 0 20"></polygon>
                    <polygon id="Path" fill="#0052B4" points="0 0 10 0 10 10 0 10"></polygon>
                    <path d="M8.0078125,6.5234375 L8.171875,7.01953125 L8.6953125,7.01953125 L8.2734375,7.328125 L8.43359375,7.82421875 L8.01171875,7.51953125 L7.5859375,7.82421875 L7.74609375,7.328125 L7.32421875,7.01953125 L7.84765625,7.01953125 L8.0078125,6.5234375 Z M5.3828125,2.609375 L5.65625,3.4375 L6.5234375,3.4375 L5.81640625,3.953125 L6.0859375,4.78125 L5.37890625,4.26953125 L4.67578125,4.78125 L4.94140625,3.953125 L4.23828125,3.4375 L5.109375,3.4375 L5.3828125,2.609375 Z M7.98828125,3.4765625 L8.2578125,4.30859375 L9.12890625,4.30859375 L8.42578125,4.8203125 L8.6953125,5.65234375 L7.98828125,5.140625 L7.28125,5.65234375 L7.5546875,4.8203125 L6.84375,4.30859375 L7.71875,4.30859375 L7.98828125,3.4765625 Z M5.92578125,6.953125 L6.1953125,7.78515625 L7.0703125,7.78515625 L6.36328125,8.30078125 L6.6328125,9.12890625 L5.92578125,8.6171875 L5.22265625,9.12890625 L5.48828125,8.30078125 L4.78515625,7.78515625 L5.65625,7.78515625 L5.92578125,6.953125 Z M3.640625,4.78125 L3.91015625,5.61328125 L4.78125,5.61328125 L4.078125,6.125 L4.34765625,6.95703125 L3.640625,6.44140625 L2.9296875,6.95703125 L3.19921875,6.125 L2.49609375,5.61328125 L3.3671875,5.61328125 L3.640625,4.78125 Z" id="Shape" fill="#EEEEEE"></path>
                </g>
            </g>
        </g>
    </g>
</svg>