<?xml version="1.0" encoding="UTF-8"?>
<svg width="20px" height="20px" viewBox="0 0 20 20" version="1.1" xmlns="http://www.w3.org/2000/svg" xmlns:xlink="http://www.w3.org/1999/xlink">
    <title>xk_flag_20px</title>
    <defs>
        <circle id="path-1" cx="10" cy="10" r="10"></circle>
    </defs>
    <g id="Design-System" stroke="none" stroke-width="1" fill="none" fill-rule="evenodd">
        <g id="Flags-20x20" transform="translate(-251.000000, -1705.000000)">
            <g id="flag" transform="translate(251.000000, 1705.000000)">
                <mask id="mask-2" fill="white">
                    <use xlink:href="#path-1"></use>
                </mask>
                <use id="Mask" fill="#D8D8D8" xlink:href="#path-1"></use>
                <g id="xk" mask="url(#mask-2)" fill-rule="nonzero">
                    <polygon id="Path" fill="#0052B4" points="0 0 20 0 20 20 0 20"></polygon>
                    <path d="M4.390625,6.0859375 L4.609375,6.75 L5.30859375,6.75 L4.7421875,7.16015625 L4.95703125,7.82421875 L4.390625,7.4140625 L3.828125,7.82421875 L4.04296875,7.16015625 L3.4765625,6.75 L4.1796875,6.75 L4.390625,6.0859375 Z M6.56640625,5.43359375 L6.78125,6.09765625 L7.484375,6.09765625 L6.9140625,6.5078125 L7.1328125,7.171875 L6.56640625,6.76171875 L6,7.17578125 L6.21875,6.51171875 L5.65234375,6.09765625 L6.3515625,6.09765625 L6.56640625,5.43359375 Z M8.7421875,4.78125 L8.95703125,5.4453125 L9.65625,5.4453125 L9.08984375,5.859375 L9.3046875,6.5234375 L8.7421875,6.109375 L8.17578125,6.5234375 L8.390625,5.859375 L7.82421875,5.4453125 L8.52734375,5.4453125 L8.7421875,4.78125 Z M15.609375,6.0859375 L15.390625,6.75 L14.6914062,6.75 L15.2578125,7.16015625 L15.0429688,7.82421875 L15.609375,7.4140625 L16.171875,7.82421875 L15.9570312,7.16015625 L16.5234375,6.75 L15.8203125,6.75 L15.609375,6.0859375 Z M13.4335938,5.43359375 L13.21875,6.09765625 L12.515625,6.09765625 L13.0859375,6.5078125 L12.8671875,7.171875 L13.4335938,6.76171875 L14,7.17578125 L13.78125,6.51171875 L14.3476562,6.09765625 L13.6484375,6.09765625 L13.4335938,5.43359375 Z M11.2578125,4.78125 L11.0429688,5.4453125 L10.34375,5.4453125 L10.9101563,5.859375 L10.6953125,6.5234375 L11.2578125,6.109375 L11.8242188,6.5234375 L11.609375,5.859375 L12.1757812,5.4453125 L11.4726562,5.4453125 L11.2578125,4.78125 Z" id="Shape" fill="#EEEEEE"></path>
                    <path d="M11.7382812,10.4335938 L10,8.26171875 L9.12890625,8.6953125 L9.12890625,9.5703125 L7.82421875,10.4296875 L6.95703125,10.4296875 L6.95703125,11.5625 C8.26985009,12.0940243 9.12898437,13.3688189 9.12890625,14.7851562 L10,14.7851562 L10,13.9179688 L10.8710938,13.046875 L11.7382812,13.9179688 L12.609375,13.046875 L12.609375,12.1796875 L13.4765625,10.875 L11.7382812,10.4375 L11.7382812,10.4335938 Z" id="Path" fill="#FFDA44"></path>
                </g>
            </g>
        </g>
    </g>
</svg>