<?xml version="1.0" encoding="UTF-8"?>
<svg width="20px" height="20px" viewBox="0 0 20 20" version="1.1" xmlns="http://www.w3.org/2000/svg" xmlns:xlink="http://www.w3.org/1999/xlink">
    <title>yorubaland_flag_20px</title>
    <defs>
        <circle id="path-1" cx="10" cy="10" r="10"></circle>
    </defs>
    <g id="Design-System" stroke="none" stroke-width="1" fill="none" fill-rule="evenodd">
        <g id="Flags-20x20" transform="translate(-351.000000, -1705.000000)">
            <g id="flag" transform="translate(351.000000, 1705.000000)">
                <mask id="mask-2" fill="white">
                    <use xlink:href="#path-1"></use>
                </mask>
                <use id="Mask" fill="#D8D8D8" xlink:href="#path-1"></use>
                <g id="yorubaland" mask="url(#mask-2)" fill-rule="nonzero">
                    <polygon id="Path" fill="#EEEEEE" points="15 0 20 0 20 5 13.75 13.75 5 20 0 20 0 15 6.25 6.25"></polygon>
                    <polygon id="Path" fill="#338AF3" points="0 15 15 0 0 0"></polygon>
                    <polygon id="Path" fill="#6DA544" points="20 5 5 20 20 20"></polygon>
                    <path d="M16.875,9.140625 L16.640625,9.5703125 L16.1328125,9.5703125 L16.3671875,10 L16.1328125,10.4296875 L16.640625,10.4296875 L16.875,10.859375 L17.109375,10.4296875 L17.6171875,10.4296875 L17.3828125,10 L17.6171875,9.5703125 L17.109375,9.5703125 L16.875,9.140625 Z M16.328125,6.484375 L16.09375,6.9140625 L15.5859375,6.9140625 L15.8203125,7.34375 L15.5859375,7.734375 L16.09375,7.734375 L16.328125,8.203125 L16.5625,7.734375 L17.0703125,7.734375 L16.8359375,7.34375 L17.0703125,6.9140625 L16.6015625,6.9140625 L16.328125,6.484375 Z M14.8828125,4.296875 L14.609375,4.7265625 L14.140625,4.7265625 L14.375,5.15625 L14.140625,5.546875 L14.609375,5.546875 L14.8828125,6.015625 L15.1171875,5.546875 L15.625,5.546875 L15.3515625,5.15625 L15.625,4.7265625 L15.1171875,4.7265625 L14.8828125,4.296875 Z M12.6953125,2.8125 L12.421875,3.2421875 L11.953125,3.2421875 L12.1875,3.671875 L11.953125,4.1015625 L12.421875,4.1015625 L12.6953125,4.53125 L12.9296875,4.1015625 L13.4375,4.1015625 L13.1640625,3.671875 L13.4375,3.2421875 L12.9296875,3.2421875 L12.6953125,2.8125 Z M10,2.265625 L9.765625,2.6953125 L9.2578125,2.6953125 L9.4921875,3.125 L9.2578125,3.5546875 L9.765625,3.5546875 L10,3.984375 L10.234375,3.5546875 L10.7421875,3.5546875 L10.5078125,3.125 L10.7421875,2.6953125 L10.234375,2.6953125 L10,2.265625 Z M7.34375,2.8125 L7.0703125,3.2421875 L6.5625,3.2421875 L6.8359375,3.671875 L6.6015625,4.1015625 L7.0703125,4.1015625 L7.34375,4.53125 L7.578125,4.1015625 L8.0859375,4.1015625 L7.8125,3.671875 L8.0859375,3.2421875 L7.578125,3.2421875 L7.34375,2.8125 Z M5.15625,4.296875 L4.8828125,4.7265625 L4.375,4.7265625 L4.6484375,5.15625 L4.375,5.546875 L4.8828125,5.546875 L5.15625,6.015625 L5.390625,5.546875 L5.8984375,5.546875 L5.625,5.15625 L5.8984375,4.7265625 L5.390625,4.7265625 L5.15625,4.296875 Z M3.671875,6.484375 L3.3984375,6.9140625 L2.9296875,6.9140625 L3.1640625,7.34375 L2.9296875,7.734375 L3.3984375,7.734375 L3.671875,8.203125 L3.90625,7.734375 L4.4140625,7.734375 L4.140625,7.34375 L4.4140625,6.9140625 L3.90625,6.9140625 L3.671875,6.484375 Z M3.125,9.140625 L2.890625,9.5703125 L2.3828125,9.5703125 L2.6171875,10 L2.3828125,10.4296875 L2.890625,10.4296875 L3.125,10.859375 L3.359375,10.4296875 L3.8671875,10.4296875 L3.6328125,10 L3.8671875,9.5703125 L3.359375,9.5703125 L3.125,9.140625 Z M3.671875,11.8359375 L3.3984375,12.265625 L2.9296875,12.265625 L3.1640625,12.6953125 L2.9296875,13.0859375 L3.3984375,13.0859375 L3.671875,13.515625 L3.90625,13.0859375 L4.4140625,13.0859375 L4.140625,12.65625 L4.4140625,12.265625 L3.90625,12.265625 L3.671875,11.8359375 Z M5.15625,14.0234375 L4.8828125,14.453125 L4.375,14.453125 L4.6484375,14.8828125 L4.375,15.2734375 L4.8828125,15.2734375 L5.15625,15.703125 L5.390625,15.2734375 L5.8984375,15.2734375 L5.625,14.84375 L5.8984375,14.453125 L5.390625,14.453125 L5.15625,14.0234375 Z M7.34375,15.46875 L7.0703125,15.8984375 L6.5625,15.8984375 L6.8359375,16.328125 L6.6015625,16.7578125 L7.0703125,16.7578125 L7.34375,17.1875 L7.578125,16.7578125 L8.0859375,16.7578125 L7.8125,16.328125 L8.0859375,15.8984375 L7.578125,15.8984375 L7.34375,15.46875 Z M10,16.015625 L9.765625,16.4453125 L9.2578125,16.4453125 L9.4921875,16.875 L9.2578125,17.3046875 L9.765625,17.3046875 L10,17.734375 L10.234375,17.3046875 L10.7421875,17.3046875 L10.5078125,16.875 L10.7421875,16.4453125 L10.234375,16.4453125 L10,16.015625 Z M12.6953125,15.46875 L12.421875,15.8984375 L11.953125,15.8984375 L12.1875,16.328125 L11.953125,16.7578125 L12.421875,16.7578125 L12.6953125,17.1875 L12.9296875,16.7578125 L13.4375,16.7578125 L13.1640625,16.328125 L13.4375,15.8984375 L12.9296875,15.8984375 L12.6953125,15.46875 Z M14.8828125,14.0234375 L14.609375,14.453125 L14.140625,14.453125 L14.375,14.8828125 L14.140625,15.2734375 L14.609375,15.2734375 L14.8828125,15.703125 L15.1171875,15.2734375 L15.625,15.2734375 L15.3515625,14.84375 L15.625,14.453125 L15.1171875,14.453125 L14.8828125,14.0234375 Z M16.328125,11.8359375 L16.09375,12.265625 L15.5859375,12.265625 L15.8203125,12.6953125 L15.5859375,13.0859375 L16.09375,13.0859375 L16.328125,13.515625 L16.5625,13.0859375 L17.0703125,13.0859375 L16.8359375,12.65625 L17.0703125,12.265625 L16.5625,12.265625 L16.328125,11.8359375 Z M10,6.4453125 C9.8828125,6.4453125 9.765625,6.5625 9.765625,6.6796875 L9.765625,7.4609375 C9.03843577,7.54657229 8.50639658,8.01210658 8.515625,8.5546875 C8.52062881,8.62052621 8.53370288,8.6858966 8.5546875,8.75 L8.671875,9.6484375 C8.66980696,10.4053169 8.92322339,11.1059388 9.3359375,11.484375 L9.3359375,12.34375 L10.6640625,12.34375 L10.6640625,11.484375 C11.0767766,11.1059388 11.330193,10.4053169 11.328125,9.6484375 L11.4453125,8.75 C11.4662971,8.6858966 11.4793712,8.62052621 11.484375,8.5546875 C11.4936034,8.01210658 10.9615642,7.54657229 10.234375,7.4609375 L10.234375,6.6796875 C10.234375,6.5625 10.1171875,6.4453125 10,6.4453125 L10,6.4453125 Z" id="Shape" fill="#FFDA44"></path>
                    <path d="M7.7734375,7.7734375 C6.56679736,8.99869797 6.57685268,10.9686253 7.79593808,12.1815039 C9.01502349,13.3943825 10.9849765,13.3943825 12.2040619,12.1815039 C13.4231473,10.9686253 13.4332026,8.99869797 12.2265625,7.7734375 L11.5625,8.4375 C11.9708545,8.85415285 12.1958582,9.41666206 12.1875,10 C12.1875,11.2081229 11.2081229,12.1875 10,12.1875 C8.79187711,12.1875 7.8125,11.2081229 7.8125,10 C7.8041418,9.41666206 8.02914548,8.85415285 8.4375,8.4375 L7.7734375,7.7734375 L7.7734375,7.7734375 Z" id="Path" fill="#D80027"></path>
                </g>
            </g>
        </g>
    </g>
</svg>