<?xml version="1.0" encoding="UTF-8"?>
<svg width="16px" height="16px" viewBox="0 0 16 16" version="1.1" xmlns="http://www.w3.org/2000/svg" xmlns:xlink="http://www.w3.org/1999/xlink">
    <title>yorubaland_flag_16px</title>
    <defs>
        <circle id="path-1" cx="8" cy="8" r="8"></circle>
    </defs>
    <g id="Design-System" stroke="none" stroke-width="1" fill="none" fill-rule="evenodd">
        <g id="Flags-16x16" transform="translate(-351.000000, -1705.000000)">
            <g id="flag" transform="translate(351.000000, 1705.000000)">
                <mask id="mask-2" fill="white">
                    <use xlink:href="#path-1"></use>
                </mask>
                <use id="Mask" fill="#D8D8D8" xlink:href="#path-1"></use>
                <g id="yorubaland" mask="url(#mask-2)" fill-rule="nonzero">
                    <polygon id="Path" fill="#EEEEEE" points="12 0 16 0 16 4 11 11 4 16 0 16 0 12 5 5"></polygon>
                    <polygon id="Path" fill="#338AF3" points="0 12 12 0 0 0"></polygon>
                    <polygon id="Path" fill="#6DA544" points="16 4 4 16 16 16"></polygon>
                    <path d="M13.5,7.3125 L13.3125,7.65625 L12.90625,7.65625 L13.09375,8 L12.90625,8.34375 L13.3125,8.34375 L13.5,8.6875 L13.6875,8.34375 L14.09375,8.34375 L13.90625,8 L14.09375,7.65625 L13.6875,7.65625 L13.5,7.3125 Z M13.0625,5.1875 L12.875,5.53125 L12.46875,5.53125 L12.65625,5.875 L12.46875,6.1875 L12.875,6.1875 L13.0625,6.5625 L13.25,6.1875 L13.65625,6.1875 L13.46875,5.875 L13.65625,5.53125 L13.28125,5.53125 L13.0625,5.1875 Z M11.90625,3.4375 L11.6875,3.78125 L11.3125,3.78125 L11.5,4.125 L11.3125,4.4375 L11.6875,4.4375 L11.90625,4.8125 L12.09375,4.4375 L12.5,4.4375 L12.28125,4.125 L12.5,3.78125 L12.09375,3.78125 L11.90625,3.4375 Z M10.15625,2.25 L9.9375,2.59375 L9.5625,2.59375 L9.75,2.9375 L9.5625,3.28125 L9.9375,3.28125 L10.15625,3.625 L10.34375,3.28125 L10.75,3.28125 L10.53125,2.9375 L10.75,2.59375 L10.34375,2.59375 L10.15625,2.25 Z M8,1.8125 L7.8125,2.15625 L7.40625,2.15625 L7.59375,2.5 L7.40625,2.84375 L7.8125,2.84375 L8,3.1875 L8.1875,2.84375 L8.59375,2.84375 L8.40625,2.5 L8.59375,2.15625 L8.1875,2.15625 L8,1.8125 Z M5.875,2.25 L5.65625,2.59375 L5.25,2.59375 L5.46875,2.9375 L5.28125,3.28125 L5.65625,3.28125 L5.875,3.625 L6.0625,3.28125 L6.46875,3.28125 L6.25,2.9375 L6.46875,2.59375 L6.0625,2.59375 L5.875,2.25 Z M4.125,3.4375 L3.90625,3.78125 L3.5,3.78125 L3.71875,4.125 L3.5,4.4375 L3.90625,4.4375 L4.125,4.8125 L4.3125,4.4375 L4.71875,4.4375 L4.5,4.125 L4.71875,3.78125 L4.3125,3.78125 L4.125,3.4375 Z M2.9375,5.1875 L2.71875,5.53125 L2.34375,5.53125 L2.53125,5.875 L2.34375,6.1875 L2.71875,6.1875 L2.9375,6.5625 L3.125,6.1875 L3.53125,6.1875 L3.3125,5.875 L3.53125,5.53125 L3.125,5.53125 L2.9375,5.1875 Z M2.5,7.3125 L2.3125,7.65625 L1.90625,7.65625 L2.09375,8 L1.90625,8.34375 L2.3125,8.34375 L2.5,8.6875 L2.6875,8.34375 L3.09375,8.34375 L2.90625,8 L3.09375,7.65625 L2.6875,7.65625 L2.5,7.3125 Z M2.9375,9.46875 L2.71875,9.8125 L2.34375,9.8125 L2.53125,10.15625 L2.34375,10.46875 L2.71875,10.46875 L2.9375,10.8125 L3.125,10.46875 L3.53125,10.46875 L3.3125,10.125 L3.53125,9.8125 L3.125,9.8125 L2.9375,9.46875 Z M4.125,11.21875 L3.90625,11.5625 L3.5,11.5625 L3.71875,11.90625 L3.5,12.21875 L3.90625,12.21875 L4.125,12.5625 L4.3125,12.21875 L4.71875,12.21875 L4.5,11.875 L4.71875,11.5625 L4.3125,11.5625 L4.125,11.21875 Z M5.875,12.375 L5.65625,12.71875 L5.25,12.71875 L5.46875,13.0625 L5.28125,13.40625 L5.65625,13.40625 L5.875,13.75 L6.0625,13.40625 L6.46875,13.40625 L6.25,13.0625 L6.46875,12.71875 L6.0625,12.71875 L5.875,12.375 Z M8,12.8125 L7.8125,13.15625 L7.40625,13.15625 L7.59375,13.5 L7.40625,13.84375 L7.8125,13.84375 L8,14.1875 L8.1875,13.84375 L8.59375,13.84375 L8.40625,13.5 L8.59375,13.15625 L8.1875,13.15625 L8,12.8125 Z M10.15625,12.375 L9.9375,12.71875 L9.5625,12.71875 L9.75,13.0625 L9.5625,13.40625 L9.9375,13.40625 L10.15625,13.75 L10.34375,13.40625 L10.75,13.40625 L10.53125,13.0625 L10.75,12.71875 L10.34375,12.71875 L10.15625,12.375 Z M11.90625,11.21875 L11.6875,11.5625 L11.3125,11.5625 L11.5,11.90625 L11.3125,12.21875 L11.6875,12.21875 L11.90625,12.5625 L12.09375,12.21875 L12.5,12.21875 L12.28125,11.875 L12.5,11.5625 L12.09375,11.5625 L11.90625,11.21875 Z M13.0625,9.46875 L12.875,9.8125 L12.46875,9.8125 L12.65625,10.15625 L12.46875,10.46875 L12.875,10.46875 L13.0625,10.8125 L13.25,10.46875 L13.65625,10.46875 L13.46875,10.125 L13.65625,9.8125 L13.25,9.8125 L13.0625,9.46875 Z M8,5.15625 C7.90625,5.15625 7.8125,5.25 7.8125,5.34375 L7.8125,5.96875 C7.23074862,6.03725783 6.80511727,6.40968527 6.8125,6.84375 C6.81650304,6.89642097 6.82696231,6.94871728 6.84375,7 L6.9375,7.71875 C6.93584557,8.32425355 7.13857872,8.88475108 7.46875,9.1875 L7.46875,9.875 L8.53125,9.875 L8.53125,9.1875 C8.86142128,8.88475108 9.06415443,8.32425355 9.0625,7.71875 L9.15625,7 C9.17303769,6.94871728 9.18349696,6.89642097 9.1875,6.84375 C9.19488273,6.40968527 8.76925138,6.03725783 8.1875,5.96875 L8.1875,5.34375 C8.1875,5.25 8.09375,5.15625 8,5.15625 L8,5.15625 Z" id="Shape" fill="#FFDA44"></path>
                    <path d="M6.21875,6.21875 C5.25343789,7.19895838 5.26148214,8.77490027 6.23675046,9.74520313 C7.21201879,10.715506 8.78798121,10.715506 9.76324954,9.74520313 C10.7385179,8.77490027 10.7465621,7.19895838 9.78125,6.21875 L9.25,6.75 C9.57668362,7.08332228 9.75668656,7.53332965 9.75,8 C9.75,8.96649831 8.96649831,9.75 7.9999998,9.75 C7.03350169,9.75 6.25,8.96649831 6.25,8 C6.24331344,7.53332965 6.42331638,7.08332228 6.75,6.75 L6.21875,6.21875 L6.21875,6.21875 Z" id="Path" fill="#D80027"></path>
                </g>
            </g>
        </g>
    </g>
</svg>