<?xml version="1.0" encoding="UTF-8"?>
<svg width="20px" height="20px" viewBox="0 0 20 20" version="1.1" xmlns="http://www.w3.org/2000/svg" xmlns:xlink="http://www.w3.org/1999/xlink">
    <title>yt_flag_20px</title>
    <defs>
        <circle id="path-1" cx="10" cy="10" r="10"></circle>
    </defs>
    <g id="Design-System" stroke="none" stroke-width="1" fill="none" fill-rule="evenodd">
        <g id="Flags-20x20" transform="translate(-401.000000, -1705.000000)">
            <g id="flag" transform="translate(401.000000, 1705.000000)">
                <mask id="mask-2" fill="white">
                    <use xlink:href="#path-1"></use>
                </mask>
                <use id="Mask" fill="#D8D8D8" xlink:href="#path-1"></use>
                <g id="yt" mask="url(#mask-2)" fill-rule="nonzero">
                    <polygon id="Path" fill="#EEEEEE" points="0 0 20 0 20 20 0 20"></polygon>
                    <path d="M4.4140625,5.4296875 C4.2578125,5.4296875 3.984375,5.5078125 3.515625,5.7421875 C3.33134722,5.83606006 3.160543,5.95430914 3.0078125,6.09375 C1.9140625,7.1484375 2.2265625,8.75 2.578125,9.1796875 C2.6953125,9.3359375 3.203125,10.078125 3.828125,10.3515625 C4.6875,10.6640625 5.234375,11.4453125 5.2734375,12.34375 C5.2734375,13.28125 4.6875,14.0625 3.9453125,14.140625 L3.7890625,14.140625 C3.046875,14.140625 2.3828125,13.3984375 2.34375,12.4609375 L2.34375,12.5390625 C2.3828125,13.671875 3.125,14.5703125 4.0234375,14.5703125 C4.921875,14.5703125 5.7421875,14.1015625 6.171875,13.3203125 L6.3671875,13.0078125 C6.44997942,12.8357283 6.50282011,12.6507859 6.5234375,12.4609375 C6.6796875,11.71875 6.7578125,9.7265625 4.6875,8.75 C3.125,7.96875 2.9296875,7.34375 3.125,7.0703125 C3.15703891,7.04174813 3.19941775,7.02762185 3.2421875,7.03125 C3.24163989,7.42636621 3.55074352,7.75264227 3.9453125,7.7734375 C4.09037416,7.7715083 4.22956237,7.71583302 4.3359375,7.6171875 C4.3359375,7.6171875 5.0390625,8.3203125 5.2734375,8.046875 C5.5078125,7.7734375 5.2734375,7.7734375 5.0390625,7.5 C4.84375,7.2265625 5.0390625,6.6796875 4.609375,6.40625 C4.140625,6.1328125 3.90625,6.1328125 4.140625,5.8203125 C4.24709047,5.66254847 4.41964145,5.56189374 4.609375,5.546875 C4.609375,5.546875 4.609375,5.4296875 4.4140625,5.4296875 L4.4140625,5.4296875 Z M15.625,5.4296875 C15.4296875,5.4296875 15.4296875,5.546875 15.4296875,5.546875 C15.625,5.5859375 15.78125,5.6640625 15.8984375,5.8203125 C16.09375,6.1328125 15.8984375,6.1328125 15.4296875,6.40625 C14.9609375,6.6796875 15.1953125,7.2265625 14.9609375,7.5 C14.765625,7.7734375 14.53125,7.7734375 14.765625,8.046875 C14.9609375,8.3203125 15.703125,7.6171875 15.703125,7.6171875 C15.8095001,7.71583302 15.9486883,7.7715083 16.09375,7.7734375 C16.488319,7.75264227 16.7974226,7.42636621 16.796875,7.03125 C16.8261006,7.0365792 16.8532013,7.05012955 16.875,7.0703125 C17.109375,7.34375 16.9140625,7.96875 15.3125,8.75 C13.28125,9.7265625 13.359375,11.71875 13.4765625,12.4609375 L13.671875,13.0078125 C13.7343689,13.113588 13.7994933,13.2177872 13.8671875,13.3203125 C14.2578125,14.1015625 15.1171875,14.609375 15.9765625,14.5703125 C16.9140625,14.5703125 17.65625,13.671875 17.6953125,12.5390625 L17.6953125,12.4609375 C17.6171875,13.3984375 16.9921875,14.140625 16.2109375,14.140625 L16.0546875,14.140625 C15.3125,14.0625 14.765625,13.28125 14.765625,12.34375 C14.8046875,11.4453125 15.3515625,10.6640625 16.171875,10.3515625 C16.796875,10.078125 17.3046875,9.3359375 17.4609375,9.1796875 C17.7734375,8.75 18.125,7.1484375 17.03125,6.09375 C16.8664858,5.95131069 16.6823627,5.83294581 16.484375,5.7421875 C16.015625,5.5078125 15.78125,5.4296875 15.625,5.4296875 L15.625,5.4296875 Z M1.015625,7.7734375 C0.9765625,7.7734375 0.9375,7.8125 0.9375,7.890625 C0.859375,8.515625 0.8984375,9.921875 2.2265625,10.390625 C2.24664077,10.4040682 2.27180957,10.4074642 2.2947327,10.3998231 C2.31765583,10.3921821 2.33575328,10.374364 2.34375,10.3515625 L2.578125,10.0390625 L2.578125,9.8828125 C2.3828125,9.609375 1.71875,8.671875 1.71875,8.1640625 L1.640625,8.0859375 C1.41378704,8.089132 1.1979453,7.98840586 1.0546875,7.8125 L1.015625,7.7734375 L1.015625,7.7734375 Z M18.984375,7.7734375 L18.9453125,7.8125 C18.8020547,7.98840586 18.586213,8.089132 18.359375,8.0859375 L18.28125,8.1640625 C18.28125,8.671875 17.6171875,9.609375 17.4609375,9.8828125 L17.4609375,10.0390625 L17.65625,10.3515625 C17.6642467,10.374364 17.6823442,10.3921821 17.7052673,10.3998231 C17.7281904,10.4074642 17.7533592,10.4040682 17.7734375,10.390625 C19.1015625,9.921875 19.140625,8.515625 19.1015625,7.890625 L18.984375,7.7734375 Z" id="Shape" fill="#ACABB1"></path>
                    <path d="M8.2421875,5.7421875 C7.75678098,5.7421875 7.36328125,6.13568723 7.36328125,6.62109375 C7.36328125,7.10650027 7.75678098,7.5 8.2421875,7.5 C7.75678098,7.5 7.36328125,7.89349973 7.36328125,8.37890625 C7.36328125,8.86431277 7.75678098,9.2578125 8.2421875,9.2578125 L10,10.5078125 L11.7578125,9.2578125 C12.243219,9.2578125 12.6367188,8.86431277 12.6367188,8.37890625 C12.6367188,7.89349973 12.243219,7.5 11.7578125,7.5 C12.243219,7.5 12.6367188,7.10650027 12.6367188,6.62109375 C12.6367188,6.13568723 12.243219,5.7421875 11.7578125,5.7421875 C11.272406,5.7421875 10.8789062,6.13568723 10.8789062,6.62109375 C10.8789062,6.13568723 10.4854065,5.7421875 10,5.7421875 C9.51459348,5.7421875 9.12109375,6.13568723 9.12109375,6.62109375 C9.12109375,6.13568723 8.72759402,5.7421875 8.2421875,5.7421875 Z" id="Path" fill="#0052B4"></path>
                    <path d="M8.2421875,12.7734375 C7.75678098,12.7734375 7.36328125,12.3799378 7.36328125,11.8945312 C7.36328125,11.4091247 7.75678098,11.015625 8.2421875,11.015625 C7.75678098,11.015625 7.36328125,10.6221253 7.36328125,10.1367188 C7.36328125,9.65131223 7.75678098,9.2578125 8.2421875,9.2578125 L11.7578125,9.2578125 C12.243219,9.2578125 12.6367188,9.65131223 12.6367188,10.1367188 C12.6367188,10.6221253 12.243219,11.015625 11.7578125,11.015625 C12.243219,11.015625 12.6367188,11.4091247 12.6367188,11.8945312 C12.6367188,12.3799378 12.243219,12.7734375 11.7578125,12.7734375 C11.272406,12.7734375 10.8789062,12.3799378 10.8789062,11.8945312 C10.8789062,12.3799378 10.4854065,12.7734375 10,12.7734375 C9.51459348,12.7734375 9.12109375,12.3799378 9.12109375,11.8945312 C9.12109375,12.3799378 8.72759402,12.7734375 8.2421875,12.7734375 Z" id="Path" fill="#D80027"></path>
                    <path d="M9.0625,7.34375 C9.0428565,7.40735267 9.0297676,7.47279715 9.0234375,7.5390625 C9.0234375,7.79806298 9.12632504,8.04645547 9.30946603,8.22959647 C9.49260703,8.41273746 9.74099952,8.515625 10,8.515625 C10.5393406,8.515625 10.9765625,8.07840308 10.9765625,7.5390625 C10.9702324,7.47279715 10.9571435,7.40735267 10.9375,7.34375 C10.8306874,7.77590626 10.4451347,8.08113543 10,8.0859375 C9.55486529,8.08113543 9.16931265,7.77590626 9.0625,7.34375 L9.0625,7.34375 Z" id="Path" fill="#EEEEEE"></path>
                    <path d="M11.0546875,9.921875 C10.968393,9.921875 10.8984375,9.99183051 10.8984375,10.078125 L10.8984375,10.390625 L10.625,10.234375 C10.6032013,10.2141921 10.5761006,10.2006417 10.546875,10.1953125 C10.4976251,10.201274 10.4541327,10.230269 10.4296875,10.2734375 C10.4002894,10.3084327 10.3876874,10.3545451 10.3952012,10.3996279 C10.402715,10.4447107 10.4295911,10.4842434 10.46875,10.5078125 L10.7421875,10.6640625 L10.46875,10.78125 C10.4295911,10.8048191 10.402715,10.8443518 10.3952012,10.8894346 C10.3876874,10.9345174 10.4002894,10.9806298 10.4296875,11.015625 C10.47698,11.0738319 10.5589581,11.0902275 10.625,11.0546875 L10.8984375,10.9375 L10.8984375,11.2109375 C10.8984375,11.297232 10.968393,11.3671875 11.0546875,11.3671875 C11.140982,11.3671875 11.2109375,11.297232 11.2109375,11.2109375 L11.2109375,10.9375 L11.484375,11.0546875 C11.5504169,11.0902275 11.632395,11.0738319 11.6796875,11.015625 C11.7090856,10.9806298 11.7216876,10.9345174 11.7141738,10.8894346 C11.70666,10.8443518 11.6797839,10.8048191 11.640625,10.78125 L11.3671875,10.6640625 L11.640625,10.5078125 C11.6797839,10.4842434 11.70666,10.4447107 11.7141738,10.3996279 C11.7216876,10.3545451 11.7090856,10.3084327 11.6796875,10.2734375 C11.6552423,10.230269 11.6117499,10.201274 11.5625,10.1953125 C11.5332744,10.2006417 11.5061737,10.2141921 11.484375,10.234375 L11.2109375,10.390625 L11.2109375,10.078125 C11.2109375,9.99183051 11.140982,9.921875 11.0546875,9.921875 Z M8.9453125,9.921875 C8.85901801,9.921875 8.7890625,9.99183051 8.7890625,10.078125 L8.7890625,10.390625 L8.515625,10.234375 C8.49382629,10.2141921 8.46672558,10.2006417 8.4375,10.1953125 C8.38825014,10.201274 8.34475768,10.230269 8.3203125,10.2734375 C8.29091436,10.3084327 8.27831241,10.3545451 8.28582621,10.3996279 C8.29334001,10.4447107 8.32021614,10.4842434 8.359375,10.5078125 L8.6328125,10.6640625 L8.359375,10.78125 C8.32021614,10.8048191 8.29334001,10.8443518 8.28582621,10.8894346 C8.27831241,10.9345174 8.29091436,10.9806298 8.3203125,11.015625 C8.36760504,11.0738319 8.44958308,11.0902275 8.515625,11.0546875 L8.7890625,10.9375 L8.7890625,11.2109375 C8.7890625,11.297232 8.85901801,11.3671875 8.9453125,11.3671875 C9.03160699,11.3671875 9.1015625,11.297232 9.1015625,11.2109375 L9.1015625,10.9375 L9.375,11.0546875 C9.44104192,11.0902275 9.52301996,11.0738319 9.5703125,11.015625 C9.59971064,10.9806298 9.61231259,10.9345174 9.60479879,10.8894346 C9.59728499,10.8443518 9.57040886,10.8048191 9.53125,10.78125 L9.2578125,10.6640625 L9.53125,10.5078125 C9.57040886,10.4842434 9.59728499,10.4447107 9.60479879,10.3996279 C9.61231259,10.3545451 9.59971064,10.3084327 9.5703125,10.2734375 C9.54586732,10.230269 9.50237486,10.201274 9.453125,10.1953125 C9.42389942,10.2006417 9.39679871,10.2141921 9.375,10.234375 L9.1015625,10.390625 L9.1015625,10.078125 C9.1015625,9.99183051 9.03160699,9.921875 8.9453125,9.921875 L8.9453125,9.921875 Z" id="Shape" fill="#FFDA44"></path>
                </g>
            </g>
        </g>
    </g>
</svg>