<?xml version="1.0" encoding="UTF-8"?>
<svg width="20px" height="20px" viewBox="0 0 20 20" version="1.1" xmlns="http://www.w3.org/2000/svg" xmlns:xlink="http://www.w3.org/1999/xlink">
    <title>za_flag_20px</title>
    <defs>
        <circle id="path-1" cx="10" cy="10" r="10"></circle>
    </defs>
    <g id="Design-System" stroke="none" stroke-width="1" fill="none" fill-rule="evenodd">
        <g id="Flags-20x20" transform="translate(-451.000000, -1705.000000)">
            <g id="flag" transform="translate(451.000000, 1705.000000)">
                <mask id="mask-2" fill="white">
                    <use xlink:href="#path-1"></use>
                </mask>
                <use id="Mask" fill="#D8D8D8" xlink:href="#path-1"></use>
                <g id="za" mask="url(#mask-2)" fill-rule="nonzero">
                    <polygon id="Path" fill="#EEEEEE" points="0 0 7.5 10 0 20 1.8359375 20 20 12.6171875 20 11.2890625 18.75 10 20 8.7109375 20 7.3828125 1.8359375 0"></polygon>
                    <polygon id="Path" fill="#333333" points="0 5.546875 0 14.453125 5.46875 10"></polygon>
                    <polygon id="Path" fill="#FFDA44" points="7.5 10 0 3.7109375 0 5.546875 4.453125 10 0 14.453125 0 16.2890625"></polygon>
                    <polygon id="Path" fill="#6DA544" points="20 8.7109375 8.7109375 8.7109375 0 0 0 3.671875 6.2890625 10 0 16.328125 0 20 8.7109375 11.2890625 20 11.2890625"></polygon>
                    <polygon id="Path" fill="#D80027" points="20 0 1.8359375 0 9.21875 7.3828125 20 7.3828125"></polygon>
                    <polygon id="Path" fill="#0052B4" points="20 20 1.8359375 20 9.21875 12.6171875 20 12.6171875"></polygon>
                </g>
            </g>
        </g>
    </g>
</svg>