<?xml version="1.0" encoding="UTF-8"?>
<svg width="20px" height="20px" viewBox="0 0 20 20" version="1.1" xmlns="http://www.w3.org/2000/svg" xmlns:xlink="http://www.w3.org/1999/xlink">
    <title>zm_flag_20px</title>
    <defs>
        <circle id="path-1" cx="10" cy="10" r="10"></circle>
    </defs>
    <g id="Design-System" stroke="none" stroke-width="1" fill="none" fill-rule="evenodd">
        <g id="Flags-20x20" transform="translate(-501.000000, -1705.000000)">
            <g id="flag" transform="translate(501.000000, 1705.000000)">
                <mask id="mask-2" fill="white">
                    <use xlink:href="#path-1"></use>
                </mask>
                <use id="Mask" fill="#D8D8D8" xlink:href="#path-1"></use>
                <g id="zm" mask="url(#mask-2)" fill-rule="nonzero">
                    <polygon id="Path" fill="#496E2D" points="0 0 20 0 20 10 10 20 0 20"></polygon>
                    <path d="M18.4765625,6.5234375 L15.8710938,6.5234375 C15.8710937,6.04234573 15.4810918,5.6523438 15,5.6523438 C14.5189082,5.6523438 14.1289063,6.04234573 14.1289063,6.5234375 L11.5234375,6.5234375 C11.5402806,7.00738586 11.9376337,7.39091801 12.421875,7.390625 L12.390625,7.390625 C12.390625,7.87109375 12.78125,8.26171875 13.2617188,8.26171875 C13.2617188,8.7421875 13.6523438,9.12890625 14.1289062,9.12890625 L15.8710938,9.12890625 C16.3515625,9.12890625 16.7382812,8.73828125 16.7382812,8.26171875 C17.21875,8.26171875 17.609375,7.87109375 17.609375,7.390625 L17.578125,7.390625 C18.0623663,7.39091801 18.4597194,7.00738586 18.4765625,6.5234375 Z" id="Path" fill="#FF9811"></path>
                    <polygon id="Path" fill="#333333" points="13.3320312 10 16.6679688 10 17.4921875 14.9335938 16.6679688 20 13.3320312 20 12.4140625 15"></polygon>
                    <polygon id="Path" fill="#D80027" points="10 10 13.3320312 10 13.3320312 20 10 20"></polygon>
                    <polygon id="Path" fill="#FF9811" points="16.6679688 10 20 10 20 20 16.6679688 20"></polygon>
                </g>
            </g>
        </g>
    </g>
</svg>