<?xml version="1.0" encoding="UTF-8"?>
<svg width="20px" height="20px" viewBox="0 0 20 20" version="1.1" xmlns="http://www.w3.org/2000/svg" xmlns:xlink="http://www.w3.org/1999/xlink">
    <title>zw_flag_20px</title>
    <defs>
        <circle id="path-1" cx="10" cy="10" r="10"></circle>
    </defs>
    <g id="Design-System" stroke="none" stroke-width="1" fill="none" fill-rule="evenodd">
        <g id="Flags-20x20" transform="translate(-51.000000, -1755.000000)">
            <g id="flag" transform="translate(51.000000, 1755.000000)">
                <mask id="mask-2" fill="white">
                    <use xlink:href="#path-1"></use>
                </mask>
                <use id="Mask" fill="#D8D8D8" xlink:href="#path-1"></use>
                <g id="zw" mask="url(#mask-2)" fill-rule="nonzero">
                    <polygon id="Path" fill="#6DA544" points="1.2265625 0 20 0 20 20 1.2265625 20"></polygon>
                    <polygon id="Path" fill="#FFDA44" points="2.2578125 2.86328125 20 2.86328125 20 5.7265625 17.4570312 10.0234375 20 14.3203125 20 17.1835938 2.2578125 17.1835938"></polygon>
                    <polygon id="Path" fill="#D80027" points="5.15625 5.7265625 20 5.7265625 20 8.58984375 18.9453125 9.99609375 20 11.453125 20 14.3164062 5.15625 14.3164062"></polygon>
                    <polygon id="Path" fill="#EEEEEE" points="0 0 0 20 10.9296875 10"></polygon>
                    <polygon id="Path" fill="#D80027" points="4.0234375 7.390625 4.66796875 9.3828125 6.76171875 9.3828125 5.06640625 10.6171875 5.71484375 12.609375 4.01953125 11.3789062 2.32421875 12.609375 2.97265625 10.6171875 1.27734375 9.3828125 3.37109375 9.3828125"></polygon>
                    <path d="M5.80078125,10.1640625 L4.11328125,9.56640625 L3.98046875,8.35546875 C3.93478652,8.12101516 3.76461897,7.93027645 3.53687464,7.85824957 C3.30913031,7.7862227 3.06023164,7.84442669 2.88804364,8.00997621 C2.71585563,8.17552572 2.64791578,8.42194494 2.7109375,8.65234375 L2.2421875,9.125 L3.08203125,9.125 C3.08203125,10 2.4296875,10 2.4296875,10.8710937 L2.7890625,11.7382812 L4.96484375,11.7382812 L5.328125,10.8710937 C5.36339855,10.7890866 5.38579787,10.7021245 5.39453125,10.6132812 C5.70703125,10.4882812 5.80078125,10.1640625 5.80078125,10.1640625 L5.80078125,10.1640625 Z" id="Path" fill="#FFDA44"></path>
                    <polygon id="Path" fill="#333333" points="1.2265625 0 9.8203125 8.59375 20 8.59375 20 11.453125 9.7734375 11.453125 1.2265625 20 0 20 10 10 0 0"></polygon>
                </g>
            </g>
        </g>
    </g>
</svg>