<?xml version="1.0" encoding="UTF-8"?>
<svg width="16px" height="16px" viewBox="0 0 16 16" version="1.1" xmlns="http://www.w3.org/2000/svg" xmlns:xlink="http://www.w3.org/1999/xlink">
    <title>zw_flag_16px</title>
    <defs>
        <circle id="path-1" cx="8" cy="8" r="8"></circle>
    </defs>
    <g id="Design-System" stroke="none" stroke-width="1" fill="none" fill-rule="evenodd">
        <g id="Flags-16x16" transform="translate(-51.000000, -1755.000000)">
            <g id="flag" transform="translate(51.000000, 1755.000000)">
                <mask id="mask-2" fill="white">
                    <use xlink:href="#path-1"></use>
                </mask>
                <use id="Mask" fill="#D8D8D8" xlink:href="#path-1"></use>
                <g id="zw" mask="url(#mask-2)" fill-rule="nonzero">
                    <polygon id="Path" fill="#6DA544" points="0.98125 0 16 0 16 16 0.98125 16"></polygon>
                    <polygon id="Path" fill="#FFDA44" points="1.80625 2.290625 16 2.290625 16 4.58125 13.965625 8.01875 16 11.45625 16 13.746875 1.80625 13.746875"></polygon>
                    <polygon id="Path" fill="#D80027" points="4.125 4.58125 16 4.58125 16 6.871875 15.15625 7.996875 16 9.1625 16 11.453125 4.125 11.453125"></polygon>
                    <polygon id="Path" fill="#EEEEEE" points="0 0 0 16 8.74375 8"></polygon>
                    <polygon id="Path" fill="#D80027" points="3.21875 5.9125 3.734375 7.50625 5.409375 7.50625 4.053125 8.49375 4.571875 10.0875 3.215625 9.103125 1.859375 10.0875 2.378125 8.49375 1.021875 7.50625 2.696875 7.50625"></polygon>
                    <path d="M4.640625,8.13125 L3.290625,7.653125 L3.184375,6.684375 C3.14782922,6.49681213 3.01169518,6.34422116 2.82949971,6.28659966 C2.64730425,6.22897816 2.44818531,6.27554136 2.31043491,6.40798097 C2.17268451,6.54042058 2.11833262,6.73755595 2.16875,6.921875 L1.79375,7.3 L2.465625,7.3 C2.465625,8 1.94375,8 1.94375,8.696875 L2.23125,9.390625 L3.971875,9.390625 L4.2625,8.696875 C4.29071884,8.63126926 4.3086383,8.56169962 4.315625,8.490625 C4.565625,8.390625 4.640625,8.13125 4.640625,8.13125 L4.640625,8.13125 Z" id="Path" fill="#FFDA44"></path>
                    <polygon id="Path" fill="#333333" points="0.98125 0 7.85625 6.875 16 6.875 16 9.1625 7.81875 9.1625 0.98125 16 0 16 8 8 0 0"></polygon>
                </g>
            </g>
        </g>
    </g>
</svg>