<?xml version="1.0" encoding="UTF-8"?>
<svg width="16px" height="16px" viewBox="0 0 16 16" version="1.1" xmlns="http://www.w3.org/2000/svg" xmlns:xlink="http://www.w3.org/1999/xlink">
    <title>ad_flag_16px</title>
    <defs>
        <circle id="path-1" cx="8" cy="8" r="8"></circle>
    </defs>
    <g id="Design-System" stroke="none" stroke-width="1" fill="none" fill-rule="evenodd">
        <g id="Flags-16x16" transform="translate(-51.000000, -105.000000)">
            <g id="ad_flag_16px" transform="translate(51.000000, 105.000000)">
                <mask id="mask-2" fill="white">
                    <use xlink:href="#path-1"></use>
                </mask>
                <use id="oval" fill="#D8D8D8" xlink:href="#path-1"></use>
                <g id="ad" mask="url(#mask-2)" fill-rule="nonzero">
                    <polygon id="Path" fill="#0052B4" points="0 0 4.521875 0 5.646875 7.95625 4.521875 16 0 16"></polygon>
                    <polygon id="Path" fill="#D80027" points="11.478125 0 16 0 16 16 11.478125 16 10.55 7.959375"></polygon>
                    <polygon id="Path" fill="#FFDA44" points="4.521875 0 11.478125 0 11.478125 16 4.521875 16"></polygon>
                    <path d="M8,11.078125 L8,8 L10.0875,8 L10.0875,9.478125 L8,11.078125 Z M5.9125,5.9125 L8,5.9125 L8,8 L5.9125,8 L5.9125,5.9125 Z" id="Shape" fill="#D80027"></path>
                    <path d="M9.04375,5.21875 C9.04329186,4.97033227 8.91062764,4.74094162 8.69553723,4.61665286 C8.48044683,4.49236409 8.21545681,4.49197249 8,4.615625 C7.89467215,4.55431664 7.7749965,4.52197187 7.653125,4.521875 C7.26875,4.521875 6.95625,4.834375 6.95625,5.21875 L5.21875,5.21875 L5.21875,8.696875 C5.21875,9.990625 6.246875,10.740625 7.053125,11.128125 C6.99128175,11.2343686 6.95891785,11.3551938 6.959375,11.478125 C6.9604633,11.7255819 7.09269914,11.9539014 7.30679816,12.0779888 C7.52089718,12.2020762 7.78474293,12.2033175 8,12.08125 C8.10532785,12.1425584 8.2250035,12.1749031 8.346875,12.175 C8.59570114,12.1740703 8.82515267,12.0405381 8.94888336,11.8246539 C9.07261406,11.6087696 9.07184858,11.3432922 8.946875,11.128125 C9.753125,10.740625 10.78125,9.990625 10.78125,8.696875 L10.78125,5.21875 L9.04375,5.21875 Z M9.740625,8.696875 C9.740625,8.878125 9.740625,9.428125 8.88125,9.975 C8.6043388,10.1467459 8.30866042,10.286197 8,10.390625 C7.78125,10.315625 7.44375,10.18125 7.11875,9.975 C6.259375,9.428125 6.259375,8.878125 6.259375,8.69375 L6.259375,6.259375 L9.740625,6.259375 L9.740625,8.696875 Z" id="Shape" fill="#FF9811"></path>
                </g>
            </g>
        </g>
    </g>
</svg>