<?xml version="1.0" encoding="UTF-8"?>
<svg width="16px" height="16px" viewBox="0 0 16 16" version="1.1" xmlns="http://www.w3.org/2000/svg" xmlns:xlink="http://www.w3.org/1999/xlink">
    <title>afar_flag_16px</title>
    <defs>
        <circle id="path-1" cx="8" cy="8" r="8"></circle>
    </defs>
    <g id="Design-System" stroke="none" stroke-width="1" fill="none" fill-rule="evenodd">
        <g id="Flags-16x16" transform="translate(-201.000000, -105.000000)">
            <g id="afar_flag_16px" transform="translate(201.000000, 105.000000)">
                <mask id="mask-2" fill="white">
                    <use xlink:href="#path-1"></use>
                </mask>
                <use id="Mask" fill="#D8D8D8" xlink:href="#path-1"></use>
                <g id="afar" mask="url(#mask-2)" fill-rule="nonzero">
                    <polygon id="Path" fill="#EEEEEE" points="0 5 8 4 16 5 16 11 8 12 0 11"></polygon>
                    <polygon id="Path" fill="#0052B4" points="0 0 16 0 16 5 0 5"></polygon>
                    <polygon id="Path" fill="#496E2D" points="0 11 16 11 16 16 0 16"></polygon>
                    <polygon id="Path" fill="#D80027" points="0 0 0 16 8 8"></polygon>
                    <polygon id="Path" fill="#FF9811" points="10.78125 7.15625 10.40625 7.5 11.65625 8.75 10.40625 10 10.75 10.34375 12 9.09375 13.25 10.34375 13.59375 10 12.34375 8.75 13.59375 7.5 13.25 7.15625 12 8.40625"></polygon>
                    <polygon id="Path" fill="#D80027" points="12 5.65625 12.65625 7.59375 10.96875 6.40625 13.03125 6.40625 11.375 7.625"></polygon>
                </g>
            </g>
        </g>
    </g>
</svg>