<?xml version="1.0" encoding="UTF-8"?>
<svg width="16px" height="16px" viewBox="0 0 16 16" version="1.1" xmlns="http://www.w3.org/2000/svg" xmlns:xlink="http://www.w3.org/1999/xlink">
    <title>ag_flag_16px</title>
    <defs>
        <circle id="path-1" cx="8" cy="8" r="8"></circle>
    </defs>
    <g id="Design-System" stroke="none" stroke-width="1" fill="none" fill-rule="evenodd">
        <g id="Flags-16x16" transform="translate(-251.000000, -105.000000)">
            <g id="ag_flag_16px" transform="translate(251.000000, 105.000000)">
                <mask id="mask-2" fill="white">
                    <use xlink:href="#path-1"></use>
                </mask>
                <use id="Mask" fill="#D8D8D8" xlink:href="#path-1"></use>
                <g id="ag" mask="url(#mask-2)" fill-rule="nonzero">
                    <polygon id="Path" fill="#333333" points="0 0.0125 16 0.0125 14.9375 7.16875 1.125 7.16875"></polygon>
                    <polygon id="Path" fill="#FFDA44" points="11.478125 6.415625 8.05 7.021875 4.521875 6.415625 5.94375 5.75 5.1875 4.375 6.728125 4.66875 6.925 3.109375 8 4.25625 9.075 3.1125 9.271875 4.675 10.8125 4.375 10.05625 5.75"></polygon>
                    <polygon id="Path" fill="#0052B4" points="0.8 6.415625 15.3875 6.415625 8.03125 13.734375"></polygon>
                    <polygon id="Path" fill="#EEEEEE" points="1.0625 9.60625 15 9.60625 8 15.9875"></polygon>
                    <path d="M0,15.9875 L8,16 L0,0.0125 L0,15.9875 Z M8,16 L16,15.9875 L16,0 L8,16 Z" id="Shape" fill="#A2001D"></path>
                </g>
            </g>
        </g>
    </g>
</svg>