<?xml version="1.0" encoding="UTF-8"?>
<svg width="16px" height="16px" viewBox="0 0 16 16" version="1.1" xmlns="http://www.w3.org/2000/svg" xmlns:xlink="http://www.w3.org/1999/xlink">
    <title>al_flag_16px</title>
    <defs>
        <circle id="path-1" cx="8" cy="8" r="8"></circle>
    </defs>
    <g id="Design-System" stroke="none" stroke-width="1" fill="none" fill-rule="evenodd">
        <g id="Flags-16x16" transform="translate(-351.000000, -105.000000)">
            <g id="al_flag_16px" transform="translate(351.000000, 105.000000)">
                <mask id="mask-2" fill="white">
                    <use xlink:href="#path-1"></use>
                </mask>
                <use id="Mask" fill="#D8D8D8" xlink:href="#path-1"></use>
                <g id="al" mask="url(#mask-2)" fill-rule="nonzero">
                    <polygon id="Path" fill="#D80027" points="0 0 16 0 16 16 0 16"></polygon>
                    <path d="M12.521875,5.9375 L9.625,5.9375 C9.91536633,5.63602687 9.9968461,5.18992521 9.83179972,4.80527166 C9.66675334,4.42061812 9.28730861,4.17228902 8.86875,4.175 C8.51936245,4.17452617 8.19305484,4.34941766 8,4.640625 C7.7821404,4.31072501 7.39658871,4.13222814 7.00408749,4.17955254 C6.61158626,4.22687693 6.27951026,4.49189913 6.14630717,4.86412721 C6.01310408,5.2363553 6.10163888,5.6518945 6.375,5.9375 L3.478125,5.9375 C3.50017911,6.71448163 4.13833928,7.33183223 4.915625,7.328125 L4.86875,7.328125 C4.86875,8.096875 5.49375,8.721875 6.259375,8.721875 C6.259375,8.971875 6.325,9.203125 6.440625,9.403125 L5.284375,10.559375 L6.171875,11.44375 L7.428125,10.1875 C7.47785684,10.2063294 7.52907725,10.2209638 7.58125,10.23125 L6.821875,11.94375 L8,13.21875 L9.178125,11.94375 L8.41875,10.23125 C8.47092619,10.2209781 8.52214778,10.2063433 8.571875,10.1875 L9.828125,11.44375 L10.7125,10.559375 L9.55625,9.403125 C9.67566511,9.19583934 9.73919736,8.96109305 9.740625,8.721875 C10.50625,8.721875 11.13125,8.096875 11.13125,7.328125 L11.084375,7.328125 C11.853125,7.328125 12.521875,6.70625 12.521875,5.9375 L12.521875,5.9375 Z" id="Path" fill="#333333"></path>
                </g>
            </g>
        </g>
    </g>
</svg>