<?xml version="1.0" encoding="UTF-8"?>
<svg width="16px" height="16px" viewBox="0 0 16 16" version="1.1" xmlns="http://www.w3.org/2000/svg" xmlns:xlink="http://www.w3.org/1999/xlink">
    <title>ao_flag_16px</title>
    <defs>
        <circle id="path-1" cx="8" cy="8" r="8"></circle>
    </defs>
    <g id="Design-System" stroke="none" stroke-width="1" fill="none" fill-rule="evenodd">
        <g id="Flags-16x16" transform="translate(-451.000000, -105.000000)">
            <g id="ao_flag_16px" transform="translate(451.000000, 105.000000)">
                <mask id="mask-2" fill="white">
                    <use xlink:href="#path-1"></use>
                </mask>
                <use id="Mask" fill="#D8D8D8" xlink:href="#path-1"></use>
                <g id="ao" mask="url(#mask-2)" fill-rule="nonzero">
                    <polygon id="Path" fill="#D80027" points="0 0 16 0 16 8 8.09375 9.14375 0 8"></polygon>
                    <polygon id="Path" fill="#333333" points="0 8 16 8 16 16 0 16"></polygon>
                    <g id="Group" transform="translate(4.662500, 4.003098)" fill="#FFDA44">
                        <polygon id="Path" points="2.240625 2.35940221 2.91875 2.85315221 2.659375 3.65002721 3.3375 3.15315221 4.015625 3.64377721 3.75625 2.84690221 4.434375 2.35627721 3.596875 2.35627721 3.3375 1.55940221 3.078125 2.35627721"></polygon>
                        <path d="M5.3375,0.531277206 C4.72942773,0.180725431 4.03937726,-0.00256922656 3.3375,8.8817842e-16 L3.3375,1.04065221 C3.8566211,1.04001111 4.36664053,1.17695079 4.815625,1.43752721 C6.13846663,2.29405505 6.5580266,4.03699477 5.76987485,5.40168035 C4.9817231,6.76636594 3.26237341,7.27401351 1.859375,6.55627721 C1.46202092,6.32720995 1.12382649,6.00827976 0.871875,5.62502721 L0,6.20002721 C0.764678002,7.35589647 2.07281857,8.03401164 3.45811833,7.99264991 C4.84341808,7.95128818 6.10877066,7.19633468 6.803125,5.99690221 C7.90662518,4.08274992 7.25065625,1.63650333 5.3375,0.531277206 Z" id="Path"></path>
                        <path d="M1.03125,3.30002721 C0.897786139,3.54318944 0.866602229,3.829476 0.944584195,4.09567008 C1.02256616,4.36186416 1.20329939,4.58606927 1.446875,4.71877721 L4.834375,6.56877721 C4.603125,6.99065221 4.728125,7.50627721 5.146875,7.73440221 L6.0625,8.23440221 C6.2646614,8.34577963 6.50283464,8.37213006 6.72445348,8.3076378 C6.94607232,8.24314555 7.13291707,8.09311263 7.24375,7.89065221 L7.74375,6.97502721 L1.03125,3.30002721 Z" id="Path"></path>
                    </g>
                </g>
            </g>
        </g>
    </g>
</svg>