<?xml version="1.0" encoding="UTF-8"?>
<svg width="16px" height="16px" viewBox="0 0 16 16" version="1.1" xmlns="http://www.w3.org/2000/svg" xmlns:xlink="http://www.w3.org/1999/xlink">
    <title>au_flag_16px</title>
    <defs>
        <circle id="path-1" cx="8" cy="8" r="8"></circle>
    </defs>
    <g id="Design-System" stroke="none" stroke-width="1" fill="none" fill-rule="evenodd">
        <g id="Flags-16x16" transform="translate(-201.000000, -155.000000)">
            <g id="au_flag_16px" transform="translate(201.000000, 155.000000)">
                <mask id="mask-2" fill="white">
                    <use xlink:href="#path-1"></use>
                </mask>
                <use id="Mask" fill="#D8D8D8" xlink:href="#path-1"></use>
                <g id="au" mask="url(#mask-2)" fill-rule="nonzero">
                    <polygon id="Path" fill="#0052B4" points="8 0 16 0 16 16 0 16 0 8"></polygon>
                    <path d="M12.5,8 L12.65625,8.53125 L13.21875,8.53125 L12.78125,8.84375 L12.9375,9.375 L12.5,9.0625 L12.03125,9.375 L12.21875,8.84375 L11.75,8.53125 L12.3125,8.53125 L12.5,8 Z M13.75,5.5625 L13.96875,6.03125 L14.46875,5.90625 L14.25,6.375 L14.65625,6.6875 L14.15625,6.78125 L14.15625,7.3125 L13.75,7 L13.375,7.3125 L13.375,6.78125 L12.875,6.6875 L13.28125,6.375 L13.0625,5.90625 L13.53125,6.03125 L13.75,5.5625 Z M11.96875,3.46875 L12.1875,3.9375 L12.6875,3.8125 L12.46875,4.28125 L12.875,4.59375 L12.375,4.71875 L12.375,5.21875 L11.96875,4.90625 L11.59375,5.21875 L11.59375,4.71875 L11.09375,4.59375 L11.46875,4.28125 L11.25,3.8125 L11.75,3.9375 L11.96875,3.46875 Z M9.9375,6.25 L10.15625,6.71875 L10.65625,6.59375 L10.4375,7.0625 L10.8125,7.375 L10.34375,7.5 L10.34375,8 L9.9375,7.6875 L9.53125,8 L9.53125,7.5 L9.03125,7.375 L9.4375,7.0625 L9.21875,6.59375 L9.71875,6.71875 L9.9375,6.25 Z M11.96875,11.125 L12.1875,11.59375 L12.6875,11.46875 L12.46875,11.9375 L12.875,12.25 L12.375,12.34375 L12.375,12.875 L11.96875,12.5625 L11.59375,12.875 L11.59375,12.34375 L11.09375,12.25 L11.46875,11.9375 L11.25,11.46875 L11.75,11.59375 L11.96875,11.125 Z M4.8125,9.375 L5.25,10.3125 L6.25,10.0625 L5.8125,11 L6.625,11.625 L5.625,11.84375 L5.625,12.875 L4.8125,12.21875 L4.03125,12.875 L4.03125,11.84375 L3.03125,11.625 L3.84375,11 L3.40625,10.0625 L4.375,10.3125 L4.8125,9.375 Z M0,0 L0,1 L1,2 L0,3 L0,8 L1,8 L2,7 L3,8 L4,8 L4,5.40625 L6.59375,8 L8,8 L7.75,7.5 L8,7.03125 L8,6.59375 L5.40625,4 L8,4 L8,3 L7,2 L8,1 L8,0 L3,0 L2,1 L1,0 L0,0 Z" id="Shape" fill="#EEEEEE"></path>
                    <path d="M1,0 L1,1 L0,1 L0,3 L1,3 L1,8 L3,8 L3,3 L8,3 L8,1 L3,1 L3,0 L1,0 Z M4,4 L8,8 L8,7.03125 L4.96875,4 L4,4 Z" id="Shape" fill="#D80027"></path>
                </g>
            </g>
        </g>
    </g>
</svg>