<?xml version="1.0" encoding="UTF-8"?>
<svg width="16px" height="16px" viewBox="0 0 16 16" version="1.1" xmlns="http://www.w3.org/2000/svg" xmlns:xlink="http://www.w3.org/1999/xlink">
    <title>bl_flag_16px</title>
    <defs>
        <circle id="path-1" cx="8" cy="8" r="8"></circle>
    </defs>
    <g id="Design-System" stroke="none" stroke-width="1" fill="none" fill-rule="evenodd">
        <g id="Flags-16x16" transform="translate(-401.000000, -205.000000)">
            <g id="bl_flag_16px" transform="translate(401.000000, 205.000000)">
                <mask id="mask-2" fill="white">
                    <use xlink:href="#path-1"></use>
                </mask>
                <use id="Mask" fill="#D8D8D8" xlink:href="#path-1"></use>
                <g id="bl" mask="url(#mask-2)" fill-rule="nonzero">
                    <polygon id="Path" fill="#EEEEEE" points="0 0 16 0 16 16 0 16"></polygon>
                    <path d="M5.21875,5.5625 C4.73550084,5.5625 4.34375,5.95425084 4.34375,6.4375 L1.71875,6.4375 C1.71875,6.92074916 2.11050084,7.3125 2.59375,7.3125 C2.59375,7.79574916 2.98550084,8.1875 3.46875,8.1875 C3.46875,8.67074916 3.86050084,9.0625 4.34375,9.0625 L11.65625,9.0625 C12.1394992,9.0625 12.53125,8.67074916 12.53125,8.1875 C13.0144992,8.1875 13.40625,7.79574916 13.40625,7.3125 C13.6383144,7.3125 13.8608741,7.22031276 14.0249684,7.05621843 C14.1890628,6.8921241 14.28125,6.66956443 14.28125,6.4375 L11.65625,6.4375 C11.65625,5.95425084 11.2644992,5.5625 10.78125,5.5625 L5.21875,5.5625 Z" id="Path" fill="#ACABB1"></path>
                    <path d="M3.84375,11.15625 L5.21875,11.15625 L5.21875,12.53125 L3.84375,12.53125 L3.84375,11.15625 Z M10.78125,11.15625 L12.15625,11.15625 L12.15625,12.53125 L10.78125,12.53125 L10.78125,11.15625 Z M5.21875,11.5 L10.78125,11.5 L10.78125,12.875 L5.21875,12.875 L5.21875,11.5 Z M7.3125,3.125 L7.3125,4.171875 L6.96875,4.53125 L6.59375,4.34375 L6.59375,3.8125 L5.21875,3.8125 L5.21875,5.5625 L8,6 L10.78125,5.5625 L10.78125,3.8125 L9.40625,3.8125 L9.40625,4.34375 L9.03125,4.53125 L8.6875,4.171875 L8.6875,3.125 L7.3125,3.125 Z" id="Shape" fill="#FFDA44"></path>
                    <path d="M5.21875,5.5625 L5.21875,9.0625 C5.21875,11.1875 8,11.828125 8,11.828125 C8,11.828125 10.78125,11.190625 10.78125,9.0625 L10.78125,5.5625 L5.21875,5.5625 Z" id="Path" fill="#0052B4"></path>
                    <polygon id="Path" fill="#D80027" points="5.21875 6.940625 10.78125 6.940625 10.78125 9.096875 5.21875 9.096875"></polygon>
                </g>
            </g>
        </g>
    </g>
</svg>