<?xml version="1.0" encoding="UTF-8"?>
<svg width="16px" height="16px" viewBox="0 0 16 16" version="1.1" xmlns="http://www.w3.org/2000/svg" xmlns:xlink="http://www.w3.org/1999/xlink">
    <title>bn_flag_16px</title>
    <defs>
        <circle id="path-1" cx="8" cy="8" r="8"></circle>
    </defs>
    <g id="Design-System" stroke="none" stroke-width="1" fill="none" fill-rule="evenodd">
        <g id="Flags-16x16" transform="translate(-501.000000, -205.000000)">
            <g id="bn_flag_16px" transform="translate(501.000000, 205.000000)">
                <mask id="mask-2" fill="white">
                    <use xlink:href="#path-1"></use>
                </mask>
                <use id="Mask" fill="#D8D8D8" xlink:href="#path-1"></use>
                <g id="bn" mask="url(#mask-2)" fill-rule="nonzero">
                    <polygon id="Path" fill="#FFDA44" points="0 0 16 0 16 10.209375 15.396875 12.6 16 15.028125 16 16 0 16 0 5.7875 0.66875 3.396875 0 0.96875"></polygon>
                    <polygon id="Path" fill="#EEEEEE" points="0 0.96875 0 4.63125 16 13.871875 16 10.209375"></polygon>
                    <polygon id="Path" fill="#333333" points="0 3.38125 0 5.7875 16 15.03125 16 12.625"></polygon>
                    <g id="Group" transform="translate(4.868750, 4.521875)" fill="#D80027">
                        <path d="M5.390625,2.609375 C5.38800881,3.54992371 4.80298991,4.39047093 3.92190711,4.71960894 C3.04082431,5.04874695 2.04799892,4.79762053 1.42937154,4.08914406 C0.810744166,3.3806676 0.695730803,2.36305339 1.140625,1.534375 C0.0728043243,2.62697035 0.0861779618,4.37633696 1.1705783,5.45247891 C2.25497864,6.52862086 4.00439636,6.52862086 5.0887967,5.45247891 C6.17319704,4.37633696 6.18657068,2.62697035 5.11875,1.534375 C5.2976356,1.86441672 5.39109873,2.23397206 5.390625,2.609375 L5.390625,2.609375 Z" id="Path"></path>
                        <polygon id="Path" points="2.609375 0 3.653125 0 3.653125 5.21875 2.609375 5.21875"></polygon>
                        <path d="M4.86875,1.040625 L1.39375,1.040625 C1.39375,1.284375 1.6,1.478125 1.840625,1.478125 L1.828125,1.478125 C1.82811887,1.71853443 2.0220967,1.91390779 2.2625,1.915625 C2.265894,2.15359371 2.45888799,2.34519925 2.696875,2.346875 L3.565625,2.346875 C3.80603443,2.346875 4.00140779,2.1529033 4.003125,1.9125 C4.24109371,1.909106 4.43269925,1.71611201 4.434375,1.478125 L4.421875,1.478125 C4.659375,1.478125 4.86875,1.284375 4.86875,1.04375 L4.86875,1.040625 Z M0.696875,5.56875 L5.565625,5.56875 L5.565625,6.6125 L0.696875,6.6125 L0.696875,5.56875 Z" id="Shape"></path>
                        <path d="M4.175,5.9125 L6.2625,5.9125 L6.2625,6.95625 L4.175,6.95625 L4.175,5.9125 Z M0,5.9125 L2.0875,5.9125 L2.0875,6.95625 L0,6.95625 L0,5.9125 Z" id="Shape"></path>
                    </g>
                </g>
            </g>
        </g>
    </g>
</svg>