<?xml version="1.0" encoding="UTF-8"?>
<svg width="16px" height="16px" viewBox="0 0 16 16" version="1.1" xmlns="http://www.w3.org/2000/svg" xmlns:xlink="http://www.w3.org/1999/xlink">
    <title>bq_bo__flag_16px</title>
    <defs>
        <circle id="path-1" cx="8" cy="8" r="8"></circle>
    </defs>
    <g id="Design-System" stroke="none" stroke-width="1" fill="none" fill-rule="evenodd">
        <g id="Flags-16x16" transform="translate(-101.000000, -255.000000)">
            <g id="bq_bo__flag_16px" transform="translate(101.000000, 255.000000)">
                <mask id="mask-2" fill="white">
                    <use xlink:href="#path-1"></use>
                </mask>
                <use id="Mask" fill="#D8D8D8" xlink:href="#path-1"></use>
                <g id="bq-bo" mask="url(#mask-2)" fill-rule="nonzero">
                    <polygon id="Path" fill="#EEEEEE" points="3.553125 3.74375 8.625 0 16 0 16 0.990625 9.5625 9.046875 0.9875 16 0 16 0 8.625"></polygon>
                    <polygon id="Path" fill="#FFDA44" points="0 0 0 8.625 8.625 0"></polygon>
                    <polygon id="Path" fill="#0052B4" points="16 0.990625 0.990625 16 16 16"></polygon>
                    <path d="M7.96875,7.678125 L8.659375,7.303125 L7.971875,6.928125 C7.80807368,5.88160917 6.98714083,5.06067632 5.940625,4.896875 L5.565625,4.209375 L5.190625,4.896875 C4.14410917,5.06067632 3.32317632,5.88160917 3.159375,6.928125 L2.471875,7.303125 L3.159375,7.678125 C3.32317632,8.72464083 4.14410917,9.54557368 5.190625,9.709375 L5.565625,10.4 L5.940625,9.7125 C6.98714083,9.54869868 7.80807368,8.72776583 7.971875,7.68125 L7.96875,7.678125 Z M5.5625,8.696875 C4.79447902,8.696875 4.171875,8.07427098 4.171875,7.30625 C4.171875,6.53822902 4.79447902,5.915625 5.5625,5.915625 C6.33052096,5.915625 6.95312496,6.53822904 6.95312496,7.30625 C6.95312496,8.07427096 6.33052096,8.696875 5.5625,8.696875 Z" id="Shape" fill="#333333"></path>
                    <polygon id="Path" fill="#D80027" points="5.5625 6.259375 5.865625 6.78125 6.46875 6.78125 6.16875 7.303125 6.46875 7.825 5.865625 7.825 5.565625 8.346875 5.2625 7.825 4.6625 7.825 4.9625 7.303125 4.6625 6.78125 5.2625 6.78125"></polygon>
                </g>
            </g>
        </g>
    </g>
</svg>