<?xml version="1.0" encoding="UTF-8"?>
<svg width="16px" height="16px" viewBox="0 0 16 16" version="1.1" xmlns="http://www.w3.org/2000/svg" xmlns:xlink="http://www.w3.org/1999/xlink">
    <title>ca_bc_flag_16px</title>
    <defs>
        <circle id="path-1" cx="8" cy="8" r="8"></circle>
    </defs>
    <g id="Design-System" stroke="none" stroke-width="1" fill="none" fill-rule="evenodd">
        <g id="Flags-16x16" transform="translate(-101.000000, -305.000000)">
            <g id="flag" transform="translate(101.000000, 305.000000)">
                <mask id="mask-2" fill="white">
                    <use xlink:href="#path-1"></use>
                </mask>
                <use id="Mask" fill="#D8D8D8" xlink:href="#path-1"></use>
                <g id="ca-bc" mask="url(#mask-2)" fill-rule="nonzero">
                    <g transform="translate(0.000000, 0.000000)">
                        <polygon id="Path" fill="#EEEEEE" points="0 1.9125 2.521875 0 3.021875 0 3.6 0.1875 4.003125 0 6.959375 0 8.015625 0.6 9.046875 0 11.01875 0 11.390625 0.228125 12 0 13.475 0 16 1.9125 16 2.95625 15.353125 4 16 5.04375 16 6.0875 15.3125 7.015625 16 8 16 8.409375 15.696875 9.003125 16 9.48125 16 10.490625 15.603125 11.109375 16 11.5625 16 12.5875 15.1125 14.36875 1.16875 14.3375 0.003125 12.5875 0.003125 11.5625 0.421875 11.134375 0 10.490625 0 9.48125 0.44375 9.0375 0 8.40625 0 8 0.85625 7.04375 0 6.0875 0 5.04375 0.796875 3.996875 0 2.95625"></polygon>
                        <path d="M0,0 L0,1.9125 L4.440625,1.9125 L2.521875,0 L0,0 Z M13.478125,0 L11.565625,1.9125 L16,1.9125 L16,0 L13.478125,0 Z M0,6.0875 L0,8 L2.528125,8 L4.440625,6.0875 L0,6.0875 Z M11.565625,6.0875 L13.478125,8 L16,8 L16,6.0875 L11.565625,6.0875 Z M5.915625,7.5625 L5.478125,8 L5.915625,8 L5.915625,7.5625 Z M10.090625,7.5625 L10.090625,8 L10.528125,8 L10.090625,7.5625 Z M0,8.409375 L0,9.48125 L0.003125,9.48125 C0.66875,9.48125 0.66875,10.090625 1.334375,10.090625 C2.003125,10.090625 2.003125,9.48125 2.66875,9.48125 C3.334375,9.48125 3.334375,10.090625 4.003125,10.090625 C4.671875,10.090625 4.66875,9.48125 5.334375,9.48125 C6.003125,9.48125 6.003125,10.090625 6.66875,10.090625 C7.334375,10.090625 7.334375,9.48125 8.003125,9.48125 C8.671875,9.48125 8.671875,10.090625 9.3375,10.090625 C10.003125,10.090625 10.003125,9.48125 10.671875,9.48125 C11.3375,9.48125 11.3375,10.090625 12.003125,10.090625 C12.671875,10.090625 12.671875,9.48125 13.3375,9.48125 C14.003125,9.48125 14.003125,10.090625 14.671875,10.090625 C15.340625,10.090625 15.3375,9.484375 16,9.48125 L16,8.409375 C15.3375,8.409375 15.3375,9.01875 14.671875,9.01875 C14.00625,9.01875 14.003125,8.409375 13.3375,8.409375 C12.671875,8.409375 12.671875,9.01875 12.003125,9.01875 C11.3375,9.01875 11.3375,8.409375 10.671875,8.409375 C10.003125,8.409375 10.003125,9.01875 9.3375,9.01875 C8.671875,9.01875 8.671875,8.409375 8.003125,8.409375 C7.334375,8.409375 7.334375,9.01875 6.66875,9.01875 C6.003125,9.01875 6.003125,8.409375 5.334375,8.409375 C4.66875,8.409375 4.66875,9.01875 4.003125,9.01875 C3.3375,9.01875 3.334375,8.409375 2.66875,8.409375 C2.003125,8.409375 2.003125,9.01875 1.334375,9.01875 C0.66875,9.01875 0.66875,8.409375 0.003125,8.409375 L0,8.409375 Z M0,10.490625 L0,11.5625 L0.003125,11.5625 C0.671875,11.5625 0.671875,12.171875 1.3375,12.171875 C2.003125,12.171875 2.003125,11.5625 2.671875,11.5625 C3.3375,11.5625 3.3375,12.171875 4.003125,12.171875 C4.671875,12.171875 4.671875,11.5625 5.3375,11.5625 C6.003125,11.5625 6.003125,12.171875 6.671875,12.171875 C7.340625,12.171875 7.3375,11.5625 8.003125,11.5625 C8.671875,11.5625 8.671875,12.171875 9.3375,12.171875 C10.003125,12.171875 10.003125,11.5625 10.671875,11.5625 C11.340625,11.5625 11.340625,12.171875 12.00625,12.171875 C12.671875,12.171875 12.671875,11.5625 13.340625,11.5625 C14.00625,11.5625 14.00625,12.171875 14.671875,12.171875 C15.3375,12.171875 15.340625,11.565625 16,11.5625 L16,10.490625 C15.340625,10.49375 15.3375,11.1 14.671875,11.1 C14.00625,11.1 14.00625,10.490625 13.340625,10.490625 C12.671875,10.490625 12.671875,11.1 12.00625,11.1 C11.340625,11.1 11.340625,10.490625 10.671875,10.490625 C10.003125,10.490625 10.003125,11.1 9.3375,11.1 C8.671875,11.1 8.671875,10.490625 8.003125,10.490625 C7.3375,10.490625 7.3375,11.1 6.671875,11.1 C6.00625,11.1 6.003125,10.490625 5.3375,10.490625 C4.671875,10.490625 4.671875,11.1 4.003125,11.1 C3.3375,11.1 3.3375,10.490625 2.671875,10.490625 C2.003125,10.490625 2.003125,11.1 1.3375,11.1 C0.671875,11.1 0.671875,10.490625 0.003125,10.490625 L0,10.490625 L0,10.490625 Z M0,12.5875 L0,16 L2.89375,16 L8.146875,15.334375 L13.10625,16 L16,16 L16,12.5875 C15.3375,12.5875 15.3375,13.196875 14.671875,13.196875 C14.00625,13.196875 14.003125,12.5875 13.3375,12.5875 C12.671875,12.5875 12.671875,13.196875 12.003125,13.196875 C11.3375,13.196875 11.3375,12.5875 10.671875,12.5875 C10.003125,12.5875 10.003125,13.196875 9.3375,13.196875 C8.671875,13.196875 8.671875,12.5875 8.003125,12.5875 C7.334375,12.5875 7.334375,13.196875 6.66875,13.196875 C6.003125,13.196875 6.003125,12.5875 5.334375,12.5875 C4.66875,12.5875 4.66875,13.196875 4.003125,13.196875 C3.3375,13.196875 3.334375,12.5875 2.66875,12.5875 C2.003125,12.5875 2.003125,13.196875 1.334375,13.196875 C0.66875,13.196875 0.66875,12.5875 0.003125,12.5875 L0,12.5875 L0,12.5875 Z" id="Shape" fill="#0052B4"></path>
                        <path d="M3.021875,0 L4.934375,1.9125 L5.915625,1.9125 L4.003125,0 L3.021875,0 Z M6.959375,0 L6.959375,2.95625 L0,2.95625 L0,5.04375 L6.95625,5.04375 L6.95625,8 L9.04375,8 L9.04375,5.04375 L16,5.04375 L16,2.95625 L9.046875,2.95625 L9.046875,0 L6.959375,0 Z M11.01875,0 L10.090625,0.928125 L10.090625,1.9125 L12.003125,0 L11.01875,0 Z M5.91875,6.0875 L4.003125,8 L4.9875,8 L5.91875,7.071875 L5.91875,6.0875 Z M10.090625,6.0875 L12.003125,8 L12.9875,8 L11.075,6.0875 L10.090625,6.0875 Z" id="Shape" fill="#D80027"></path>
                        <path d="M6.309375,10.78125 L5.996875,13.240625 L3.565625,12.775 L4.74375,14.921875 C4.08352459,15.2006755 3.46178529,15.5630066 2.89375,16 L13.10625,16 C12.5401595,15.5634667 11.9205463,15.2011505 11.2625,14.921875 L12.440625,12.775 L10.00625,13.24375 L9.696875,10.78125 L8.003125,12.59375 L6.309375,10.78125 L6.309375,10.78125 Z" id="Path" fill="#FFDA44"></path>
                    </g>
                </g>
            </g>
        </g>
    </g>
</svg>