<?xml version="1.0" encoding="UTF-8"?>
<svg width="16px" height="16px" viewBox="0 0 16 16" version="1.1" xmlns="http://www.w3.org/2000/svg" xmlns:xlink="http://www.w3.org/1999/xlink">
    <title>cc_flag_16px</title>
    <defs>
        <circle id="path-1" cx="8" cy="8" r="8"></circle>
    </defs>
    <g id="Design-System" stroke="none" stroke-width="1" fill="none" fill-rule="evenodd">
        <g id="Flags-16x16" transform="translate(-151.000000, -305.000000)">
            <g id="flag" transform="translate(151.000000, 305.000000)">
                <mask id="mask-2" fill="white">
                    <use xlink:href="#path-1"></use>
                </mask>
                <use id="Mask" fill="#D8D8D8" xlink:href="#path-1"></use>
                <g id="cc" mask="url(#mask-2)" fill-rule="nonzero">
                    <polygon id="Path" fill="#6DA544" points="0 0 16 0 16 16 0 16"></polygon>
                    <g id="Group" transform="translate(2.434370, 2.435295)" fill="#FFDA44">
                        <path d="M9.84688013,9.04283035 L10.0656301,9.50220535 L10.5625051,9.38658035 L10.3406301,9.84595535 L10.7375051,10.1584554 L10.2406301,10.2740804 L10.2406301,10.7834554 L9.84688013,10.4647054 L9.45000513,10.7834554 L9.45000513,10.2740804 L8.95313013,10.1615804 L9.35313013,9.84595535 L9.13125513,9.38658035 L9.62813013,9.50220535 L9.84688013,9.04283035 Z M7.80313013,4.17408035 L8.02188013,4.63345535 L8.52188013,4.51783035 L8.29688013,4.97720535 L8.69688013,5.28970535 L8.19688013,5.40220535 L8.20000513,5.91158035 L7.80313013,5.59283035 L7.40625513,5.91158035 L7.40625513,5.40220535 L6.91250513,5.29283035 L7.30938013,4.97720535 L7.09063013,4.51783035 L7.58438013,4.63345535 L7.80313013,4.17408035 Z M9.84688013,1.39283035 L10.0656301,1.84908035 L10.5625051,1.73658035 L10.3406301,2.19283035 L10.7375051,2.50845535 L10.2406301,2.62095535 L10.2406301,3.13033035 L9.84688013,2.81158035 L9.45000513,3.13033035 L9.45000513,2.62095535 L8.95313013,2.50845535 L9.35313013,2.19595535 L9.13125513,1.73658035 L9.62813013,1.84595535 L9.84688013,1.39283035 Z M11.6281301,3.47720535 L11.8468801,3.93658035 L12.3468801,3.82095535 L12.1250051,4.28033035 L12.5218801,4.59595535 L12.0250051,4.70845535 L12.0250051,5.21783035 L11.6312551,4.89908035 L11.2343801,5.21783035 L11.2343801,4.70845535 L10.7375051,4.59595535 L11.1375051,4.28033035 L10.9156301,3.82095535 L11.4093801,3.93970535 L11.6281301,3.47720535 Z M10.3531301,5.91470535 L10.5281301,6.44595535 L11.0875051,6.44595535 L10.6343801,6.77095535 L10.8062551,7.30220535 L10.3531301,6.97408035 L9.90313013,7.30533035 L10.0750051,6.77408035 L9.62188013,6.44283035 L10.1843801,6.44283035 L10.3531301,5.91470535 Z" id="Shape"></path>
                        <path d="M6.43438013,7.82408035 C5.49383141,7.82146416 4.65328419,7.23644526 4.32414619,6.35536246 C3.99500818,5.47427966 4.2461346,4.48145427 4.95461106,3.86282689 C5.66308753,3.24419952 6.68070173,3.12918616 7.50938013,3.57408035 C6.41678478,2.50625968 4.66741817,2.51963332 3.59127622,3.60403365 C2.51513427,4.68843399 2.51513427,6.43785172 3.59127622,7.52225205 C4.66741817,8.60665239 6.41678478,8.62002603 7.50938013,7.55220535 C7.17933841,7.73109095 6.80978307,7.82455408 6.43438013,7.82408035 L6.43438013,7.82408035 Z M2.59688013,0.695955353 C2.3485661,0.26533225 1.88928026,0 1.39219263,0 C0.895104998,0 0.435819149,0.26533225 0.187505127,0.695955353 L2.59375513,0.695955353 L2.59688013,0.695955353 Z M2.60000513,0.702205353 L1.39063013,1.91158035 L0.181255127,0.702205353 C0.0620172192,0.911685134 -0.000459953359,1.14866751 2.54927932e-06,1.38970535 C2.54927932e-06,1.88652782 0.265056746,2.34561071 0.695317621,2.59402195 C1.1255785,2.84243318 1.65568176,2.84243318 2.08594263,2.59402195 C2.51620351,2.34561071 2.7812577,1.88652782 2.7812577,1.38970535 C2.78172021,1.14866751 2.71924303,0.911685134 2.60000513,0.702205353 L2.60000513,0.702205353 Z" id="Shape"></path>
                    </g>
                    <path d="M3.478125,4 L3.478125,5.175 C3.59145528,5.20408532 3.70799698,5.21878427 3.825,5.21875006 C3.946875,5.21875006 4.0625,5.203125 4.175,5.175 L4.175,4 L3.478125,4 L3.478125,4 Z" id="Path" fill="#A2001D"></path>
                </g>
            </g>
        </g>
    </g>
</svg>