<?xml version="1.0" encoding="UTF-8"?>
<svg width="16px" height="16px" viewBox="0 0 16 16" version="1.1" xmlns="http://www.w3.org/2000/svg" xmlns:xlink="http://www.w3.org/1999/xlink">
    <title>cx_flag_16px</title>
    <defs>
        <circle id="path-1" cx="8" cy="8" r="8"></circle>
    </defs>
    <g id="Design-System" stroke="none" stroke-width="1" fill="none" fill-rule="evenodd">
        <g id="Flags-16x16" transform="translate(-501.000000, -355.000000)">
            <g id="flag" transform="translate(501.000000, 355.000000)">
                <mask id="mask-2" fill="white">
                    <use xlink:href="#path-1"></use>
                </mask>
                <use id="Mask" fill="#D8D8D8" xlink:href="#path-1"></use>
                <g id="cx" mask="url(#mask-2)" fill-rule="nonzero">
                    <polygon id="Path" fill="#6DA544" points="0 0 6.778125 9.425 16 16 16 0"></polygon>
                    <polygon id="Path" fill="#0052B4" points="0 0 16 16 0 16"></polygon>
                    <circle id="Oval" fill="#FFDA44" cx="8" cy="8" r="2.0875"></circle>
                    <path d="M2.978125,11.478125 L3.196875,11.9375 L3.696875,11.821875 L3.46875,12.28125 L3.875,12.59375 L3.375,12.70625 L3.378125,13.215625 L2.98125,12.896875 L2.58125,13.21875 L2.58125,12.709375 L2.090625,12.59375 L2.484375,12.28125 L2.265625,11.821875 L2.759375,11.9375 L2.978125,11.478125 Z M1.540625,7.65625 L1.7625,8.115625 L2.259375,8 L2.0375,8.45625 L2.434375,8.775 L1.9375,8.884375 L1.9375,9.39375 L1.54375,9.075 L1.146875,9.39375 L1.146875,8.884375 L0.65,8.775 L1.05,8.45625 L0.828125,8 L1.321875,8.115625 L1.540625,7.65625 Z M2.978125,4.525 L3.196875,4.984375 L3.696875,4.86875 L3.471875,5.328125 L3.871875,5.640625 L3.371875,5.75625 L3.375,6.2625 L2.978125,5.946875 L2.58125,6.2625 L2.58125,5.75625 L2.0875,5.64375 L2.484375,5.328125 L2.265625,4.86875 L2.759375,4.984375 L2.978125,4.525 Z M4.7625,6.9625 L4.98125,7.41875 L5.478125,7.303125 L5.25625,7.7625 L5.653125,8.078125 L5.159375,8.190625 L5.159375,8.7 L4.7625,8.375 L4.365625,8.69375 L4.365625,8.1875 L3.871875,8.075 L4.26875,7.759375 L4.05,7.3 L4.54375,7.415625 L4.7625,6.9625 Z M3.4875,9.046875 L3.659375,9.578125 L4.21875,9.578125 L3.765625,9.90625 L3.940625,10.4375 L3.4875,10.109375 L3.03125,10.434375 L3.20625,9.903125 L2.753125,9.575 L3.3125,9.575 L3.4875,9.046875 Z" id="Shape" fill="#EEEEEE"></path>
                    <path d="M8,9.390625 L8.696875,9.390625 C8.696875,9.390625 8.996875,8.859375 8.696875,8.346875 L9.390625,7.653125 L9.04375,6.95625 L8.696875,6.95625 C8.696875,6.95625 8.521875,7.478125 7.825,7.478125 C7.128125,7.478125 6.95625,6.95625 6.95625,6.95625 L6.609375,6.95625 L6.95625,7.653125 L6.609375,8.346875 L6.95625,8.696875 C6.95625,8.696875 7.303125,8 8,8.34375 C8,8.34375 8.296875,8.78125 8,9.3875 L8,9.390625 Z" id="Path" fill="#6DA544"></path>
                    <path d="M13.19375,4.38125 C13.3244116,3.69171114 12.9231703,3.01227591 12.25625,2.79375 C12.4941168,3.2766837 12.5760188,3.82160502 12.490625,4.353125 C12.4038883,4.21454297 12.2939507,4.09192035 12.165625,3.990625 C11.6816437,3.60451283 11.0039958,3.57422689 10.4875,3.915625 C10.8873157,4.00330151 11.26157,4.18187427 11.58125,4.4375 C11.840625,4.64375 12.05,4.921875 12.2125,5.190625 L10.0875,5.85625 C12.175,6.20625 13.9125,4.8125 13.9125,4.8125 C13.721875,4.428125 13.421875,4.3625 13.19375,4.38125 L13.19375,4.38125 Z" id="Path" fill="#FFDA44"></path>
                </g>
            </g>
        </g>
    </g>
</svg>