<?xml version="1.0" encoding="UTF-8"?>
<svg width="16px" height="16px" viewBox="0 0 16 16" version="1.1" xmlns="http://www.w3.org/2000/svg" xmlns:xlink="http://www.w3.org/1999/xlink">
    <title>dk_flag_16px</title>
    <defs>
        <circle id="path-1" cx="8" cy="8" r="8"></circle>
    </defs>
    <g id="Design-System" stroke="none" stroke-width="1" fill="none" fill-rule="evenodd">
        <g id="Flags-16x16" transform="translate(-251.000000, -405.000000)">
            <g id="flag" transform="translate(251.000000, 405.000000)">
                <mask id="mask-2" fill="white">
                    <use xlink:href="#path-1"></use>
                </mask>
                <use id="Mask" fill="#D8D8D8" xlink:href="#path-1"></use>
                <g id="dk" mask="url(#mask-2)" fill-rule="nonzero">
                    <polygon id="Path" fill="#D80027" points="0 0 4.175 0 5.196875 0.634375 6.259375 0 16 0 16 6.95625 15.35625 8 16 9.04375 16 16 6.259375 16 5.26875 15.3625 4.175 16 0 16 0 9.04375 0.91875 8.0125 0 6.959375"></polygon>
                    <polygon id="Path" fill="#EEEEEE" points="4.175 0 4.175 6.95625 0 6.95625 0 9.04375 4.175 9.04375 4.175 16 6.259375 16 6.259375 9.04375 16 9.04375 16 6.95625 6.259375 6.95625 6.259375 0"></polygon>
                </g>
            </g>
        </g>
    </g>
</svg>