<?xml version="1.0" encoding="UTF-8"?>
<svg width="16px" height="16px" viewBox="0 0 16 16" version="1.1" xmlns="http://www.w3.org/2000/svg" xmlns:xlink="http://www.w3.org/1999/xlink">
    <title>dm_flag_16px</title>
    <defs>
        <circle id="path-1" cx="8" cy="8" r="8"></circle>
    </defs>
    <g id="Design-System" stroke="none" stroke-width="1" fill="none" fill-rule="evenodd">
        <g id="Flags-16x16" transform="translate(-301.000000, -405.000000)">
            <g id="flag" transform="translate(301.000000, 405.000000)">
                <mask id="mask-2" fill="white">
                    <use xlink:href="#path-1"></use>
                </mask>
                <use id="Mask" fill="#D8D8D8" xlink:href="#path-1"></use>
                <g id="dm" mask="url(#mask-2)" fill-rule="nonzero">
                    <polygon id="Path" fill="#496E2D" points="0 0 6.5 0 8 1 9.5 0 16 0 16 6.5 15 8 16 9.5 16 16 9.5 16 8 15 6.5 16 0 16 0 9.5 1 8 0 6.5"></polygon>
                    <polygon id="Path" fill="#333333" points="16 7.5 16 8.5 8 9.5 0 8.5 0 7.5 8 6.5"></polygon>
                    <polygon id="Path" fill="#FFDA44" points="16 6.5 16 7.5 0 7.5 0 6.5"></polygon>
                    <polygon id="Path" fill="#333333" points="7.5 0 8.5 0 9.5 8 8.5 16 7.5 16 6.5 8"></polygon>
                    <polygon id="Path" fill="#FFDA44" points="6.5 0 7.5 0 7.5 16 6.5 16"></polygon>
                    <polygon id="Path" fill="#EEEEEE" points="8.5 0 9.5 0 9.5 16 8.5 16"></polygon>
                    <polygon id="Path" fill="#EEEEEE" points="16 8.5 16 9.5 0 9.5 0 8.5"></polygon>
                    <circle id="Oval" fill="#D80027" cx="8" cy="8" r="3.825"></circle>
                    <path d="M8.875,8.4375 C8.59375,7.84375 8.21875,7.28125 8.21875,7.28125 L8.21875,6.875 C8.18241196,6.67970255 8.01905745,6.53339986 7.8209509,6.5187253 C7.62284436,6.50405074 7.43971651,6.62468807 7.375,6.8125 C7.21662597,6.82046028 7.08424818,6.93572351 7.05457707,7.09149682 C7.02490596,7.24727014 7.10564193,7.40312647 7.25,7.46875 C7.30082289,7.34014055 7.40264055,7.23832289 7.53125,7.1875 C7.54992003,7.21038979 7.57086021,7.23132997 7.59375,7.25 L7.65625,7.25 C7.65625,7.25 7.4375,7.84375 7.4375,8.15625 C7.4375,9 8.03125,9.28125 8.03125,9.28125 L7.71875,9.5625 L8.3125,9.5625 L8.3125,9 L8.59375,9.28125 C8.59375,9.28125 9.125,8.9375 8.875,8.4375 Z M8,4.875 L8.125,5.28125 L8.5625,5.28125 L8.21875,5.53125 L8.34375,5.90625 L8,5.65625 L7.65625,5.90625 L7.78125,5.53125 L7.4375,5.28125 L7.875,5.28125 L8,4.875 Z M6.15625,5.46875 L6.5,5.71875 L6.84375,5.46875 L6.71875,5.875 L7.0625,6.125 L6.625,6.125 L6.5,6.5 L6.375,6.125 L5.9375,6.125 L6.28125,5.875 L6.15625,5.46875 Z M5.03125,7.03125 L5.4375,7.03125 L5.5625,6.625 L5.6875,7.03125 L6.125,7.03125 L5.78125,7.28125 L5.90625,7.6875 L5.5625,7.4375 L5.21875,7.6875 L5.375,7.28125 L5.03125,7.03125 Z M5.03125,8.96875 L5.375,8.71875 L5.21875,8.3125 L5.5625,8.5625 L5.90625,8.3125 L5.78125,8.71875 L6.125,8.96875 L5.6875,8.96875 L5.5625,9.375 L5.4375,8.96875 L5.03125,8.96875 Z M6.15625,10.53125 L6.28125,10.125 L5.9375,9.875 L6.375,9.875 L6.5,9.5 L6.625,9.875 L7.03125,9.875 L6.71875,10.125 L6.84375,10.53125 L6.5,10.28125 L6.15625,10.53125 Z M8,11.125 L7.875,10.71875 L7.4375,10.71875 L7.78125,10.46875 L7.65625,10.09375 L8,10.34375 L8.34375,10.09375 L8.21875,10.46875 L8.5625,10.75 L8.125,10.75 L8,11.125 Z M9.84375,10.53125 L9.5,10.28125 L9.15625,10.53125 L9.28125,10.125 L8.96875,9.875 L9.375,9.875 L9.5,9.5 L9.625,9.875 L10.0625,9.875 L9.71875,10.125 L9.84375,10.53125 Z M10.96875,8.96875 L10.5625,8.96875 L10.4375,9.375 L10.3125,8.96875 L9.875,8.96875 L10.21875,8.71875 L10.09375,8.3125 L10.4375,8.5625 L10.78125,8.3125 L10.625,8.71875 L10.96875,8.96875 Z M10.96875,7.03125 L10.625,7.28125 L10.78125,7.6875 L10.4375,7.4375 L10.09375,7.6875 L10.21875,7.28125 L9.875,7.03125 L10.3125,7.03125 L10.4375,6.625 L10.5625,7.03125 L10.96875,7.03125 Z M9.84375,5.46875 L9.71875,5.875 L10.0625,6.125 L9.625,6.125 L9.5,6.5 L9.375,6.125 L8.9375,6.125 L9.28125,5.875 L9.15625,5.46875 L9.5,5.71875 L9.84375,5.46875 Z" id="Shape" fill="#496E2D"></path>
                </g>
            </g>
        </g>
    </g>
</svg>