<?xml version="1.0" encoding="UTF-8"?>
<svg width="16px" height="16px" viewBox="0 0 16 16" version="1.1" xmlns="http://www.w3.org/2000/svg" xmlns:xlink="http://www.w3.org/1999/xlink">
    <title>earth_flag_16px</title>
    <defs>
        <circle id="path-1" cx="8" cy="8" r="8"></circle>
    </defs>
    <g id="Design-System" stroke="none" stroke-width="1" fill="none" fill-rule="evenodd">
        <g id="Flags-16x16" transform="translate(-451.000000, -405.000000)">
            <g id="flag" transform="translate(451.000000, 405.000000)">
                <mask id="mask-2" fill="white">
                    <use xlink:href="#path-1"></use>
                </mask>
                <use id="Mask" fill="#D8D8D8" xlink:href="#path-1"></use>
                <g id="earth" mask="url(#mask-2)" fill-rule="nonzero">
                    <polygon id="Path" fill="#0052B4" points="0 0 16 0 16 16 0 16"></polygon>
                    <path d="M9.459375,7.303125 C7.73682693,7.37904796 6.37936949,8.79765455 6.37936949,10.521875 C6.37936949,12.2460954 7.73682693,13.664702 9.459375,13.740625 C11.1819231,13.664702 12.5393805,12.2460954 12.5393805,10.521875 C12.5393805,8.79765455 11.1819231,7.37904796 9.459375,7.303125 L9.459375,7.303125 Z M9.459375,7.928125 C10.896875,7.928125 12.053125,9.084375 12.053125,10.521875 C12.053125,11.959375 10.896875,13.115625 9.459375,13.115625 C8.021875,13.115625 6.865625,11.959375 6.865625,10.521875 C6.865625,9.084375 8.021875,7.928125 9.459375,7.928125 Z" id="Shape" fill="#EEEEEE"></path>
                    <path d="M6.54375,2.259375 C4.82120193,2.33529796 3.46374449,3.75390455 3.46374449,5.478125 C3.46374449,7.20234545 4.82120193,8.62095204 6.54375,8.696875 C8.26629807,8.62095204 9.62375551,7.20234545 9.62375551,5.478125 C9.62375551,3.75390455 8.26629807,2.33529796 6.54375,2.259375 L6.54375,2.259375 Z M6.54375,2.884375 C7.98125,2.884375 9.1375,4.040625 9.1375,5.478125 C9.1375,6.915625 7.98125,8.071875 6.54375,8.071875 C5.10625,8.071875 3.95,6.915625 3.95,5.478125 C3.95,4.040625 5.10625,2.884375 6.54375,2.884375 L6.54375,2.884375 Z" id="Shape" fill="#EEEEEE"></path>
                    <path d="M9.459375,2.259375 C7.73682693,2.33529796 6.37936949,3.75390455 6.37936949,5.478125 C6.37936949,7.20234545 7.73682693,8.62095204 9.459375,8.696875 C11.1819231,8.62095204 12.5393805,7.20234545 12.5393805,5.478125 C12.5393805,3.75390455 11.1819231,2.33529796 9.459375,2.259375 L9.459375,2.259375 Z M9.459375,2.884375 C10.896875,2.884375 12.053125,4.040625 12.053125,5.478125 C12.053125,6.915625 10.896875,8.071875 9.459375,8.071875 C8.021875,8.071875 6.865625,6.915625 6.865625,5.478125 C6.865625,4.040625 8.021875,2.884375 9.459375,2.884375 Z" id="Shape" fill="#EEEEEE"></path>
                    <path d="M10.9125,4.78125 C9.18995193,4.85717296 7.83249449,6.27577955 7.83249449,8 C7.83249449,9.72422045 9.18995193,11.142827 10.9125,11.21875 C12.6350481,11.142827 13.9925055,9.72422045 13.9925055,8 C13.9925055,6.27577955 12.6350481,4.85717296 10.9125,4.78125 Z M10.9125,5.40625 C12.35,5.40625 13.50625,6.5625 13.50625,8 C13.50625,9.4375 12.35,10.59375 10.9125,10.59375 C9.475,10.59375 8.31875,9.4375 8.31875,8 C8.31875,6.5625 9.475,5.40625 10.9125,5.40625 Z" id="Shape" fill="#EEEEEE"></path>
                    <path d="M6.54375,7.303125 C4.82120193,7.37904796 3.46374449,8.79765455 3.46374449,10.521875 C3.46374449,12.2460954 4.82120193,13.664702 6.54375,13.740625 C8.26629807,13.664702 9.62375551,12.2460954 9.62375551,10.521875 C9.62375551,8.79765455 8.26629807,7.37904796 6.54375,7.303125 L6.54375,7.303125 Z M6.54375,7.928125 C7.98125,7.928125 9.1375,9.084375 9.1375,10.521875 C9.1375,11.959375 7.98125,13.115625 6.54375,13.115625 C5.10625,13.115625 3.95,11.959375 3.95,10.521875 C3.95,9.084375 5.10625,7.928125 6.54375,7.928125 L6.54375,7.928125 Z" id="Shape" fill="#EEEEEE"></path>
                    <path d="M5.0875,4.78125 C3.36495193,4.85717296 2.00749449,6.27577955 2.00749449,8 C2.00749449,9.72422045 3.36495193,11.142827 5.0875,11.21875 C6.81004807,11.142827 8.16750551,9.72422045 8.16750551,8 C8.16750551,6.27577955 6.81004807,4.85717296 5.0875,4.78125 Z M5.0875,5.40625 C6.525,5.40625 7.68125,6.5625 7.68125,8 C7.68125,9.4375 6.525,10.59375 5.0875,10.59375 C3.65,10.59375 2.49375,9.4375 2.49375,8 C2.49375,6.5625 3.65,5.40625 5.0875,5.40625 Z" id="Shape" fill="#EEEEEE"></path>
                    <path d="M8,4.784375 C6.27745193,4.86029796 4.91999449,6.27890455 4.91999449,8.003125 C4.91999449,9.72734545 6.27745193,11.145952 8,11.221875 C9.72254807,11.145952 11.0800055,9.72734545 11.0800055,8.003125 C11.0800055,6.27890455 9.72254807,4.86029796 8,4.784375 L8,4.784375 Z M8,5.409375 C9.4375,5.409375 10.59375,6.565625 10.59375,8.003125 C10.59375,9.4375 9.4375,10.596875 8,10.596875 C6.5625,10.596875 5.40625,9.4375 5.40625,8.003125 C5.40625,6.565625 6.5625,5.409375 8,5.409375 Z" id="Shape" fill="#EEEEEE"></path>
                </g>
            </g>
        </g>
    </g>
</svg>