<?xml version="1.0" encoding="UTF-8"?>
<svg width="16px" height="16px" viewBox="0 0 16 16" version="1.1" xmlns="http://www.w3.org/2000/svg" xmlns:xlink="http://www.w3.org/1999/xlink">
    <title>eg_flag_16px</title>
    <defs>
        <circle id="path-1" cx="8" cy="8" r="8"></circle>
    </defs>
    <g id="Design-System" stroke="none" stroke-width="1" fill="none" fill-rule="evenodd">
        <g id="Flags-16x16" transform="translate(-251.000000, -455.000000)">
            <g id="flag" transform="translate(251.000000, 455.000000)">
                <mask id="mask-2" fill="white">
                    <use xlink:href="#path-1"></use>
                </mask>
                <use id="Mask" fill="#D8D8D8" xlink:href="#path-1"></use>
                <g id="eg" mask="url(#mask-2)" fill-rule="nonzero">
                    <polygon id="Path" fill="#EEEEEE" points="0 4.5 8 3.5 16 4.5 16 11.5 8 12.5 0 11.5"></polygon>
                    <polygon id="Path" fill="#D80027" points="0 0 16 0 16 4.5 0 4.5"></polygon>
                    <polygon id="Path" fill="#333333" points="0 11.5 16 11.5 16 16 0 16"></polygon>
                    <path d="M7.8125,5.96875 C7.5625,5.96875 7.28125,6.09375 7.125,6.40625 C7.28125,6.3125 7.625,6.375 7.625,6.8125 C7.625,6.9375 7.5625,7.0625 7.46875,7.125 C7.21875,7.125 7.03125,6.6875 6.5625,6.6875 C6.25,6.6875 5.96875,6.90625 5.96875,7.21875 L5.96875,9.375 L7.40625,9.15625 L6.96875,10 L9.03125,10 L8.59375,9.15625 L10.03125,9.375 L10.03125,7.21875 C10.03125,6.90625 9.75,6.6875 9.4375,6.6875 C8.96875,6.6875 8.78125,7.125 8.53125,7.125 C8.78125,6.40625 8.3125,5.96875 7.8125,5.96875 Z" id="Path" fill="#FF9811"></path>
                </g>
            </g>
        </g>
    </g>
</svg>