<?xml version="1.0" encoding="UTF-8"?>
<svg width="16px" height="16px" viewBox="0 0 16 16" version="1.1" xmlns="http://www.w3.org/2000/svg" xmlns:xlink="http://www.w3.org/1999/xlink">
    <title>es_ar_flag_16px</title>
    <defs>
        <circle id="path-1" cx="8" cy="8" r="8"></circle>
    </defs>
    <g id="Design-System" stroke="none" stroke-width="1" fill="none" fill-rule="evenodd">
        <g id="Flags-16x16" transform="translate(-451.000000, -455.000000)">
            <g id="flag" transform="translate(451.000000, 455.000000)">
                <mask id="mask-2" fill="white">
                    <use xlink:href="#path-1"></use>
                </mask>
                <use id="Mask" fill="#D8D8D8" xlink:href="#path-1"></use>
                <g id="es-ar" mask="url(#mask-2)" fill-rule="nonzero">
                    <polygon id="Path" fill="#FFDA44" points="0 0 0 1.78125 1 2.6875 0 3.5625 0 5.34375 1 6.25 0 7.125 0 8.90625 1 9.78125 0 10.65625 0 12.4375 1 13.34375 0 14.21875 0 16 16 16 16 14.21875 15 13.34375 16 12.4375 16 10.65625 15 9.78125 16 8.90625 16 7.125 15 6.25 16 5.34375 16 3.5625 15 2.6875 16 1.78125 16 0"></polygon>
                    <path d="M0,1.78125 L16,1.78125 L16,3.5625 L0,3.5625 L0,1.78125 Z M0,5.34375 L16,5.34375 L16,7.125 L0,7.125 L0,5.34375 Z M0,8.90625 L16,8.90625 L16,10.65625 L0,10.65625 L0,8.90625 Z M0,12.4375 L16,12.4375 L16,14.21875 L0,14.21875 L0,12.4375 Z" id="Shape" fill="#D80027"></path>
                    <path d="M3,4 L3,9 L6,12 C7.65625,12 9,10.65625 9,9 L7.5,7.5 L9,6 L9,4 L8.125,4 L8.125,5 L7.28125,5 L7.28125,4 L6.4375,4 L6.4375,5 L5.5625,5 L5.5625,4 L4.71875,4 L4.71875,5 L3.84375,5 L3.84375,4 L3,4 Z" id="Path" fill="#FF9811"></path>
                    <polygon id="Path" fill="#0052B4" points="6 6 9 6 9 9 6 9"></polygon>
                    <path d="M6,9 L6,12 C4.34314575,12 3,10.6568542 3,9 L6,9 Z" id="Path" fill="#EEEEEE"></path>
                </g>
            </g>
        </g>
    </g>
</svg>