<?xml version="1.0" encoding="UTF-8"?>
<svg width="16px" height="16px" viewBox="0 0 16 16" version="1.1" xmlns="http://www.w3.org/2000/svg" xmlns:xlink="http://www.w3.org/1999/xlink">
    <title>es_ce_flag_16px</title>
    <defs>
        <circle id="path-1" cx="8" cy="8" r="8"></circle>
    </defs>
    <g id="Design-System" stroke="none" stroke-width="1" fill="none" fill-rule="evenodd">
        <g id="Flags-16x16" transform="translate(-501.000000, -455.000000)">
            <g id="flag" transform="translate(501.000000, 455.000000)">
                <mask id="mask-2" fill="white">
                    <use xlink:href="#path-1"></use>
                </mask>
                <use id="Mask" fill="#D8D8D8" xlink:href="#path-1"></use>
                <g id="es-ce" mask="url(#mask-2)" fill-rule="nonzero">
                    <polygon id="Path" fill="#EEEEEE" points="0 0 4.390625 0.86875 8 0 16 0 15.178125 4.15 16 8 16 16 11.665625 15.046875 8 16 0 16 0.9375 11.628125 0 8"></polygon>
                    <path d="M0,0 L8,8 L8,0 L0,0 Z M8,8 L16,8 L16,0 L8,8 Z M8,8 L8,16 L16,16 L8,8 Z M8,8 L0,8 L0,16 L8,8 Z" id="Shape" fill="#333333"></path>
                    <polygon id="Path" fill="#FFDA44" points="5.21875 5.5625 8 5.9125 10.78125 5.565625 10.78125 3.896875 9.66875 4.453125 8 2.78125 6.33125 4.453125 5.21875 3.896875"></polygon>
                    <path d="M8,12.175 C6.465625,12.175 5.21875,10.925 5.21875,9.39375 L5.21875,6.609375 L6.259375,5.565625 L9.740625,5.565625 L10.78125,6.609375 L10.78125,9.390625 C10.78125,10.926667 9.53604196,12.171875 8,12.171875 L8,12.175 Z" id="Path" fill="#D80027"></path>
                    <path d="M8,11.13125 C7.040625,11.13125 6.259375,10.35 6.259375,9.390625 L6.259375,6.609375 L9.740625,6.609375 L9.740625,9.390625 C9.740625,10.35 8.959375,11.13125 8,11.13125 L8,11.13125 Z" id="Path" fill="#EEEEEE"></path>
                    <path d="M5.21875,5.5625 L6.259375,5.5625 L6.259375,6.609375 L5.21875,6.609375 L5.21875,5.5625 Z M9.740625,5.5625 L10.78125,5.5625 L10.78125,6.609375 L9.740625,6.609375 L9.740625,5.5625 Z M9.740625,7.825 L10.78125,7.825 L10.78125,8.86875 L9.740625,8.86875 L9.740625,7.825 Z M5.21875,7.825 L6.259375,7.825 L6.259375,8.86875 L5.21875,8.86875 L5.21875,7.825 Z M8,11.13125 C7.81875,11.13125 7.64375,11.1 7.478125,11.05 L7.478125,12.125 C7.82292409,12.1908682 8.17707591,12.1908682 8.521875,12.125 L8.521875,11.05 C8.35308476,11.1035672 8.17708618,11.1309682 8,11.13125 L8,11.13125 Z M6.28125,9.675 L5.45,10.50625 C5.59413517,10.8340767 5.79995401,11.1311348 6.05625,11.38125 L6.79375,10.640625 C6.52384738,10.3811518 6.34515449,10.0413065 6.284375,9.671875 L6.28125,9.675 Z M10.55,10.50625 L9.715625,9.675 C9.653125,10.05 9.471875,10.3875 9.20625,10.64375 L9.94375,11.378125 C10.1997176,11.1289332 10.4055181,10.8329623 10.55,10.50625 Z" id="Shape" fill="#FFDA44"></path>
                    <path d="M7.653125,7.1875 L7.653125,7.76875 C7.653125,7.96032377 7.80842623,8.115625 8,8.115625 C8.19157377,8.115625 8.346875,7.96032377 8.346875,7.76875 L8.346875,7.1875 L7.65625,7.1875 L7.653125,7.1875 Z M7.653125,9.50625 L7.653125,10.0875 C7.653125,10.2790738 7.80842623,10.434375 8,10.434375 C8.19157377,10.434375 8.346875,10.2790738 8.346875,10.0875 L8.346875,9.50625 L7.65625,9.50625 L7.653125,9.50625 Z M8.696875,8.35 L8.696875,8.928125 C8.696875,9.11969877 8.85217623,9.275 9.04375,9.275 C9.23532377,9.275 9.390625,9.11969877 9.390625,8.928125 L9.390625,8.34375 L8.696875,8.34375 L8.696875,8.35 Z M7.653125,8.35 L7.653125,8.928125 C7.653125,9.11969877 7.80842623,9.275 8,9.275 C8.19157377,9.275 8.346875,9.11969877 8.346875,8.928125 L8.346875,8.34375 L7.65625,8.34375 L7.653125,8.35 Z M6.609375,8.35 L6.609375,8.928125 C6.609375,9.11969877 6.76467623,9.275 6.95625,9.275 C7.14782377,9.275 7.303125,9.11969877 7.303125,8.928125 L7.303125,8.34375 L6.609375,8.34375 L6.609375,8.35 Z" id="Shape" fill="#0052B4"></path>
                </g>
            </g>
        </g>
    </g>
</svg>