<?xml version="1.0" encoding="UTF-8"?>
<svg width="16px" height="16px" viewBox="0 0 16 16" version="1.1" xmlns="http://www.w3.org/2000/svg" xmlns:xlink="http://www.w3.org/1999/xlink">
    <title>es_flag_16px</title>
    <defs>
        <circle id="path-1" cx="8" cy="8" r="8"></circle>
    </defs>
    <g id="Design-System" stroke="none" stroke-width="1" fill="none" fill-rule="evenodd">
        <g id="Flags-16x16" transform="translate(-401.000000, -455.000000)">
            <g id="flag" transform="translate(401.000000, 455.000000)">
                <mask id="mask-2" fill="white">
                    <use xlink:href="#path-1"></use>
                </mask>
                <use id="Mask" fill="#D8D8D8" xlink:href="#path-1"></use>
                <g id="es" mask="url(#mask-2)">
                    <polygon id="Path" fill="#FFDA44" fill-rule="nonzero" points="0 4 8 3 16 4 16 12 8 13 0 12"></polygon>
                    <path d="M0,0 L16,0 L16,4 L0,4 L0,0 Z M0,12 L16,12 L16,16 L0,16 L0,12 Z" id="Shape" fill="#D80027" fill-rule="nonzero"></path>
                    <g id="Group" transform="translate(4.000000, 7.000000)" fill="#EEEEEE" fill-rule="nonzero">
                        <path d="M0.5,2.5 L0,2.5 L0,0 L0.5,0 L0.5,2.5 Z M4.5,2.5 L5,2.5 L5,0 L4.5,0 L4.5,2.5 Z" id="Shape"></path>
                        <ellipse id="Oval" cx="2.5" cy="2.25" rx="1.5" ry="1"></ellipse>
                    </g>
                    <g id="Group" transform="translate(4.000000, 6.000000)" fill="#D80027" fill-rule="nonzero">
                        <rect id="Rectangle" x="0" y="0" width="1" height="1" rx="0.5"></rect>
                        <rect id="Rectangle" x="4.5" y="0" width="1" height="1" rx="0.5"></rect>
                        <path d="M2.5,2.5 L2.5,3.25 C2.5,3.66421356 2.83578644,4 3.25,4 C3.66421356,4 4,3.66421356 4,3.25 L4,2.5 L3.25,2.5 L2.5,2.5 Z" id="Path"></path>
                    </g>
                    <rect id="Rectangle" fill="#FF9811" fill-rule="nonzero" x="3.75" y="6.5" width="1" height="1"></rect>
                    <rect id="Rectangle" fill="#FF9811" fill-rule="nonzero" x="8.25" y="6.5" width="1" height="1"></rect>
                    <rect id="Rectangle" fill="#FF9811" fill-rule="nonzero" x="3.75" y="9.5" width="1" height="1" rx="0.5"></rect>
                    <rect id="Rectangle" fill="#FF9811" fill-rule="nonzero" x="8.25" y="9.5" width="1" height="1" rx="0.5"></rect>
                    <path d="M5,8.5 L5,9.25 C5,9.5 5.125,9.6875 5.28125,9.84375 L5.4375,9.65625 L5.59375,9.96875 C5.69639699,9.99391341 5.80360301,9.99391341 5.90625,9.96875 L6.0625,9.65625 L6.21875,9.84375 C6.40625,9.6875 6.5,9.5 6.5,9.25 L6.5,8.5 L6.21875,8.5 L6.0625,8.75 L5.90625,8.5 L5.59375,8.5 L5.4375,8.75 L5.28125,8.5 L5,8.5 Z" id="Path" fill="#FF9811" fill-rule="nonzero"></path>
                    <path d="M3.8125,7.909375 L9.1875,7.909375 M3.8125,8.869375 L4.6875,8.869375 M8.3125,8.869375 L9.1875,8.869375" id="Shape" fill="#000000" fill-rule="nonzero"></path>
                    <path d="M3.8125,7.75 C3.74346441,7.75 3.6875,7.80596441 3.6875,7.875 C3.6875,7.94403559 3.74346441,8 3.8125,8 L9.1875,8 C9.25653559,8 9.3125,7.94403559 9.3125,7.875 C9.3125,7.80596441 9.25653559,7.75 9.1875,7.75 L3.8125,7.75 Z M3.8125,8.5 C3.74346441,8.5 3.6875,8.55596441 3.6875,8.625 C3.6875,8.69403559 3.74346441,8.75 3.8125,8.75 L4.6875,8.75 C4.75653559,8.75 4.8125,8.69403559 4.8125,8.625 C4.8125,8.55596441 4.75653559,8.5 4.6875,8.5 L3.8125,8.5 Z M8.3125,8.5 C8.24346441,8.5 8.1875,8.55596441 8.1875,8.625 C8.1875,8.69403559 8.24346441,8.75 8.3125,8.75 L9.1875,8.75 C9.25653559,8.75 9.3125,8.69403559 9.3125,8.625 C9.3125,8.55596441 9.25653559,8.5 9.1875,8.5 L8.3125,8.5 Z" id="Shape" fill="#D80027" fill-rule="nonzero"></path>
                    <path d="M6.125,5.25 C5.90625,5.25 5.71875,5.40625 5.65625,5.59375 L5.5,5.5625 C5.21875,5.5625 5,5.78125 5,6.0625 C5,6.34375 5.21875,6.5625 5.5,6.5625 C5.71875,6.5625 5.90625,6.4375 5.96875,6.21875 C6.15496431,6.28592327 6.3632756,6.23690885 6.5,6.09375 C6.6367244,6.23690885 6.84503569,6.28592327 7.03125,6.21875 C7.0932738,6.41235572 7.2663469,6.54913223 7.46904563,6.56473189 C7.67174436,6.58033155 7.86370801,6.47164821 7.95462569,6.28981285 C8.04554338,6.10797748 8.01731186,5.88919656 7.88321289,5.73639737 C7.74911392,5.58359818 7.53584885,5.52720561 7.34375,5.59375 C7.28244228,5.42894337 7.13906987,5.30845534 6.96616913,5.27643669 C6.79326839,5.24441803 6.61625785,5.30557588 6.5,5.4375 C6.40625,5.3125 6.28125,5.25 6.125,5.25 Z M6.125,5.5 C6.28125,5.5 6.375,5.625 6.375,5.75 C6.375,5.90625 6.28125,6 6.125,6 C6,6 5.875,5.90625 5.875,5.75 C5.875,5.625 6,5.5 6.125,5.5 Z M6.875,5.5 C7.03125,5.5 7.125,5.625 7.125,5.75 C7.125,5.90625 7.03125,6 6.875,6 C6.75,6 6.625,5.90625 6.625,5.75 C6.625,5.625 6.75,5.5 6.875,5.5 Z M5.5,5.8125 L5.625,5.84375 L5.75,6.09375 C5.75,6.21875 5.625,6.3125 5.5,6.3125 C5.375,6.3125 5.25,6.21875 5.25,6.0625 C5.25,5.9375 5.375,5.8125 5.5,5.8125 Z M7.5,5.8125 C7.65625,5.8125 7.75,5.9375 7.75,6.0625 C7.75,6.21875 7.65625,6.3125 7.5,6.3125 C7.375,6.3125 7.25,6.21875 7.25,6.09375 L7.375,5.84375 L7.5,5.8125 Z" id="Shape" fill="#EEEEEE" fill-rule="nonzero"></path>
                    <path d="M6.875,8.875 L6.875,9.25 C6.875,9.46875 7.03125,9.625 7.25,9.625 C7.46875,9.625 7.625,9.46875 7.625,9.25 L7.625,8.875 L6.875,8.875 Z" id="Path"></path>
                    <polygon id="Path" fill="#FF9811" fill-rule="nonzero" points="6.25 5 6.75 5 6.75 6 6.25 6"></polygon>
                    <polygon id="Path" fill="#EEEEEE" fill-rule="nonzero" points="6.5 7 8 7 8 8.5 6.5 8.5"></polygon>
                    <path d="M7.75,6.5 L7.5,6.75 L5.5,6.75 L5.25,6.5 C5.25,6.09375 5.8125,5.75 6.5,5.75 C7.1875,5.75 7.75,6.09375 7.75,6.5 Z M5,7 L6.5,7 L6.5,8.5 L5,8.5 L5,7 Z" id="Shape" fill="#D80027" fill-rule="nonzero"></path>
                    <rect id="Rectangle" fill="#D80027" fill-rule="nonzero" x="6.9375" y="7.25" width="1" height="1" rx="0.5"></rect>
                    <path d="M5.25,7.25 L5.25,7.5 L5.5,7.5 L5.5,8 L5.25,8 L5.25,8.25 L6.25,8.25 L6.25,8 L6,8 L6,7.5 L6.25,7.5 L6.25,7.25 L5.25,7.25 Z M5.5,6.75 L7.5,6.75 L7.5,7 L5.5,7 L5.5,6.75 Z" id="Shape" fill="#FF9811" fill-rule="nonzero"></path>
                    <g id="Group" transform="translate(5.625000, 6.125000)" fill="#FFDA44" fill-rule="nonzero">
                        <ellipse id="Oval" cx="0.1875" cy="0.5" rx="1" ry="1"></ellipse>
                        <ellipse id="Oval" cx="0.875" cy="0.5" rx="1" ry="1"></ellipse>
                        <ellipse id="Oval" cx="1.5625" cy="0.5" rx="1" ry="1"></ellipse>
                    </g>
                    <path d="M5.28125,8.5 L5.28125,9.84375 C5.38082491,9.90855353 5.4948058,9.95129637 5.61458333,9.96875 L5.61458333,8.5 L5.28125,8.5 L5.28125,8.5 Z M5.94791667,8.5 L5.94791667,9.96875 C6.0676942,9.95129637 6.18167509,9.90855353 6.28125,9.84375 L6.28125,8.5 L5.94791667,8.5 L5.94791667,8.5 Z" id="Shape" fill="#D80027" fill-rule="nonzero"></path>
                    <g id="Group" transform="translate(3.750000, 8.000000)" fill="#338AF3" fill-rule="nonzero">
                        <circle id="Oval" cx="2.75" cy="0.5" r="1"></circle>
                        <rect id="Rectangle" x="4.5" y="2" width="1" height="1"></rect>
                        <rect id="Rectangle" x="0" y="2" width="1" height="1"></rect>
                    </g>
                </g>
            </g>
        </g>
    </g>
</svg>