<?xml version="1.0" encoding="UTF-8"?>
<svg width="16px" height="16px" viewBox="0 0 16 16" version="1.1" xmlns="http://www.w3.org/2000/svg" xmlns:xlink="http://www.w3.org/1999/xlink">
    <title>es_ga_flag_16px</title>
    <defs>
        <circle id="path-1" cx="8" cy="8" r="8"></circle>
    </defs>
    <g id="Design-System" stroke="none" stroke-width="1" fill="none" fill-rule="evenodd">
        <g id="Flags-16x16" transform="translate(-151.000000, -505.000000)">
            <g id="flag" transform="translate(151.000000, 505.000000)">
                <mask id="mask-2" fill="white">
                    <use xlink:href="#path-1"></use>
                </mask>
                <use id="Mask" fill="#D8D8D8" xlink:href="#path-1"></use>
                <g id="es-ga" mask="url(#mask-2)" fill-rule="nonzero">
                    <polygon id="Path" fill="#EEEEEE" points="0 1.96875 1.96875 0 16 0 16 14.03125 14.03125 16 0 16"></polygon>
                    <polygon id="Path" fill="#338AF3" points="0 0 0 1.96875 14.03125 16 16 16 16 14.03125 1.96875 0"></polygon>
                    <polygon id="Path" fill="#D80027" points="6.59375 5.65625 8.03125 6.16875 9.40625 5.65625 9.40625 4.46875 8.84375 4.75 8 3.90625 7.15625 4.75 6.59375 4.46875"></polygon>
                    <path d="M5.8125,5.65625 L5.8125,8.875 C5.8125,10.0831229 6.79187713,11.0625 8,11.0625 C9.20812287,11.0625 10.1875,10.0831229 10.1875,8.875 L10.1875,5.65625 L5.8125,5.65625 Z" id="Path" fill="#0052B4"></path>
                </g>
            </g>
        </g>
    </g>
</svg>