<?xml version="1.0" encoding="UTF-8"?>
<svg width="16px" height="16px" viewBox="0 0 16 16" version="1.1" xmlns="http://www.w3.org/2000/svg" xmlns:xlink="http://www.w3.org/1999/xlink">
    <title>es_ib_flag_16px</title>
    <defs>
        <circle id="path-1" cx="8" cy="8" r="8"></circle>
    </defs>
    <g id="Design-System" stroke="none" stroke-width="1" fill="none" fill-rule="evenodd">
        <g id="Flags-16x16" transform="translate(-201.000000, -505.000000)">
            <g id="flag" transform="translate(201.000000, 505.000000)">
                <mask id="mask-2" fill="white">
                    <use xlink:href="#path-1"></use>
                </mask>
                <use id="Mask" fill="#D8D8D8" xlink:href="#path-1"></use>
                <g id="es-ib" mask="url(#mask-2)" fill-rule="nonzero">
                    <polygon id="Path" fill="#FFDA44" points="0 8 8 0 16 0 16 1.775 15.540625 2.70625 16 3.55625 16 5.33125 15.50625 6.21875 16 7.1125 16 8.8875 15.425 9.80625 16 10.665625 16 12.44375 15.478125 13.34375 16 14.221875 16 16 0 16 0 14.221875 0.75625 13.365625 0 12.44375 0 10.665625 0.65625 9.8 0 8.8875"></polygon>
                    <path d="M7.5625,1.775 L7.5625,3.55625 L16,3.55625 L16,1.775 L7.5625,1.775 Z M7.5625,5.33125 L7.5625,7.1125 L16,7.1125 L16,5.33125 L7.5625,5.33125 Z M0,8.8875 L0,10.665625 L16,10.665625 L16,8.8875 L0,8.8875 Z M0,12.44375 L0,14.221875 L16,14.221875 L16,12.44375 L0,12.44375 Z" id="Shape" fill="#D80027"></path>
                    <polygon id="Path" fill="#4A1F63" points="0 0 8 0 8 8 0 8"></polygon>
                    <polygon id="Path" fill="#EEEEEE" points="6.609375 4.175 6.609375 4.86875 6.259375 4.86875 6.259375 4.175 5.565625 4.175 5.565625 4.86875 5.21875 4.86875 5.21875 3.478125 3.825 3.478125 3.825 4.86875 3.48125 4.86875 3.48125 4.175 2.78125 4.175 2.78125 4.86875 2.4375 4.86875 2.4375 4.175 1.7375 4.175 1.7375 6.259375 7.3 6.259375 7.3 4.175"></polygon>
                </g>
            </g>
        </g>
    </g>
</svg>