<?xml version="1.0" encoding="UTF-8"?>
<svg width="16px" height="16px" viewBox="0 0 16 16" version="1.1" xmlns="http://www.w3.org/2000/svg" xmlns:xlink="http://www.w3.org/1999/xlink">
    <title>es_ml_flag_16px</title>
    <defs>
        <circle id="path-1" cx="8" cy="8" r="8"></circle>
    </defs>
    <g id="Design-System" stroke="none" stroke-width="1" fill="none" fill-rule="evenodd">
        <g id="Flags-16x16" transform="translate(-251.000000, -505.000000)">
            <g id="flag" transform="translate(251.000000, 505.000000)">
                <mask id="mask-2" fill="white">
                    <use xlink:href="#path-1"></use>
                </mask>
                <use id="Mask" fill="#D8D8D8" xlink:href="#path-1"></use>
                <g id="es-ml" mask="url(#mask-2)" fill-rule="nonzero">
                    <polygon id="Path" fill="#338AF3" points="0 0 16 0 16 16 0 16"></polygon>
                    <polygon id="Path" fill="#ACABB1" points="3.825 8.696875 12.175 8.696875 12.175 9.740625 3.825 9.740625"></polygon>
                    <polygon id="Path" fill="#FFDA44" points="5.21875 5.5625 8 5.9125 10.78125 5.565625 10.78125 3.896875 9.66875 4.453125 8 2.78125 6.33125 4.453125 5.21875 3.896875"></polygon>
                    <path d="M4.521875,10.78125 L3.478125,10.78125 L3.478125,8.86875 L3.825,8.346875 L3.478125,7.825 L3.478125,6.60625 L4.521875,6.60625 L4.521875,10.78125 Z M12.521875,10.78125 L11.478125,10.78125 L11.478125,6.6125 L12.521875,6.6125 L12.521875,7.83125 L12.175,8.3625 L12.521875,8.871875 L12.521875,10.78125 Z" id="Shape" fill="#EEEEEE"></path>
                    <polygon id="Path" fill="#ACABB1" points="3.478125 7.825 12.521875 7.825 12.521875 8.86875 3.478125 8.86875"></polygon>
                    <path d="M8,12.175 C6.465625,12.175 5.21875,10.925 5.21875,9.39375 L5.21875,5.5625 L10.78125,5.5625 L10.78125,9.3875 C10.78125,10.1251334 10.4882263,10.8325552 9.96664074,11.3541407 C9.44505518,11.8757263 8.73763336,12.16875 8,12.16875 L8,12.175 Z" id="Path" fill="#EEEEEE"></path>
                    <path d="M8,11.13125 C7.03989997,11.1295263 6.2625,10.3507266 6.2625,9.390625 L6.2625,6.609375 L9.7375,6.609375 L9.7375,9.390625 C9.7375,10.3507266 8.96010003,11.1295263 8,11.13125 L8,11.13125 Z" id="Path" fill="#0052B4"></path>
                    <path d="M5.21875,5.5625 L6.2625,5.5625 L6.2625,6.609375 L5.21875,6.609375 L5.21875,5.5625 Z M9.740625,5.5625 L10.78125,5.5625 L10.78125,6.609375 L9.7375,6.609375 L9.740625,5.5625 Z M9.740625,7.825 L10.78125,7.825 L10.78125,8.86875 L9.7375,8.86875 L9.740625,7.825 Z M5.21875,7.825 L6.259375,7.825 L6.259375,8.86875 L5.21875,8.86875 L5.21875,7.825 Z M7.478125,5.565625 L8.521875,5.565625 L8.521875,6.609375 L7.478125,6.609375 L7.478125,5.565625 Z M8,11.125 C7.81875,11.125 7.64375,11.1 7.478125,11.046875 L7.478125,12.125 C7.82295243,12.1905682 8.17704757,12.1905682 8.521875,12.125 L8.521875,11.05 C8.35308476,11.1035672 8.17708618,11.1309682 8,11.13125 L8,11.125 Z M6.284375,9.671875 L5.45,10.503125 C5.59406693,10.8309898 5.7998943,11.1280602 6.05625,11.378125 L6.79375,10.6375 C6.52384738,10.3780268 6.34515449,10.0381815 6.284375,9.66875 L6.284375,9.671875 Z M10.55,10.503125 L9.715625,9.671875 C9.6546305,10.0412343 9.47597132,10.3810156 9.20625,10.640625 L9.94375,11.375 C10.1997176,11.1258082 10.4055181,10.8298373 10.55,10.503125 Z" id="Shape" fill="#D80027"></path>
                </g>
            </g>
        </g>
    </g>
</svg>