<?xml version="1.0" encoding="UTF-8"?>
<svg width="16px" height="16px" viewBox="0 0 16 16" version="1.1" xmlns="http://www.w3.org/2000/svg" xmlns:xlink="http://www.w3.org/1999/xlink">
    <title>fo_flag_16px</title>
    <defs>
        <circle id="path-1" cx="8" cy="8" r="8"></circle>
    </defs>
    <g id="Design-System" stroke="none" stroke-width="1" fill="none" fill-rule="evenodd">
        <g id="Flags-16x16" transform="translate(-351.000000, -555.000000)">
            <g id="flag" transform="translate(351.000000, 555.000000)">
                <mask id="mask-2" fill="white">
                    <use xlink:href="#path-1"></use>
                </mask>
                <use id="Mask" fill="#D8D8D8" xlink:href="#path-1"></use>
                <g id="fo" mask="url(#mask-2)" fill-rule="nonzero">
                    <polygon id="Path" fill="#EEEEEE" points="0 0 3.13125 0 5.196875 1.671875 7.303125 0 16 0 16 5.915625 14.571875 8.03125 16 10.0875 16 16 7.303125 16 5.178125 14.415625 3.13125 16 0 16 0 10.0875 1.60625 7.946875 0 5.915625"></polygon>
                    <polygon id="Path" fill="#0052B4" points="3.13125 0 3.13125 5.915625 0 5.915625 0 6.959375 0.76875 7.990625 0 9.046875 0 10.090625 3.13125 10.090625 3.13125 16 4.175 16 5.13125 15.178125 6.259375 16 7.303125 16 7.303125 10.0875 16 10.0875 16 9.04375 15.23125 7.990625 16 6.959375 16 5.915625 7.303125 5.915625 7.303125 0 6.259375 0 5.203125 0.790625 4.175 0"></polygon>
                    <polygon id="Path" fill="#D80027" points="4.175 0 4.175 6.959375 0 6.959375 0 9.04375 4.175 9.04375 4.175 16 6.259375 16 6.259375 9.04375 16 9.04375 16 6.959375 6.259375 6.959375 6.259375 0"></polygon>
                </g>
            </g>
        </g>
    </g>
</svg>