<?xml version="1.0" encoding="UTF-8"?>
<svg width="16px" height="16px" viewBox="0 0 16 16" version="1.1" xmlns="http://www.w3.org/2000/svg" xmlns:xlink="http://www.w3.org/1999/xlink">
    <title>gb_con_flag_16px</title>
    <defs>
        <circle id="path-1" cx="8" cy="8" r="8"></circle>
    </defs>
    <g id="Design-System" stroke="none" stroke-width="1" fill="none" fill-rule="evenodd">
        <g id="Flags-16x16" transform="translate(-201.000000, -605.000000)">
            <g id="flag" transform="translate(201.000000, 605.000000)">
                <mask id="mask-2" fill="white">
                    <use xlink:href="#path-1"></use>
                </mask>
                <use id="Mask" fill="#D8D8D8" xlink:href="#path-1"></use>
                <g id="gb-con" mask="url(#mask-2)" fill-rule="nonzero">
                    <polygon id="Path" fill="#333333" points="0 0 6.5 0 8 1 9.5 0 16 0 16 6.5 15 8 16 9.5 16 16 9.5 16 8 15 6.5 16 0 16 0 9.5 1 8 0 6.5"></polygon>
                    <polygon id="Path" fill="#EEEEEE" points="6.5 0 6.5 6.5 0 6.5 0 9.5 6.5 9.5 6.5 16 9.5 16 9.5 9.5 16 9.5 16 6.5 9.5 6.5 9.5 0"></polygon>
                </g>
            </g>
        </g>
    </g>
</svg>