<?xml version="1.0" encoding="UTF-8"?>
<svg width="16px" height="16px" viewBox="0 0 16 16" version="1.1" xmlns="http://www.w3.org/2000/svg" xmlns:xlink="http://www.w3.org/1999/xlink">
    <title>gb_flag_16px</title>
    <defs>
        <circle id="path-1" cx="8" cy="8" r="8"></circle>
    </defs>
    <g id="Design-System" stroke="none" stroke-width="1" fill="none" fill-rule="evenodd">
        <g id="Flags-16x16" transform="translate(-151.000000, -605.000000)">
            <g id="flag" transform="translate(151.000000, 605.000000)">
                <mask id="mask-2" fill="white">
                    <use xlink:href="#path-1"></use>
                </mask>
                <use id="Mask" fill="#D8D8D8" xlink:href="#path-1"></use>
                <g id="gb" mask="url(#mask-2)" fill-rule="nonzero">
                    <polygon id="Path" fill="#EEEEEE" points="0 0 0.25 0.6875 0 1.40625 0 2.125 1 3.8125 0 5.5 0 6.5 1 8 0 9.5 0 10.5 1 12.1875 0 13.875 0 16 0.6875 15.75 1.40625 16 2.125 16 3.8125 15 5.5 16 6.5 16 8 15 9.5 16 10.5 16 12.1875 15 13.875 16 16 16 15.75 15.3125 16 14.59375 16 13.875 15 12.1875 16 10.5 16 9.5 15 8 16 6.5 16 5.5 15 3.8125 16 2.125 16 0 15.3125 0.25 14.59375 0 13.875 0 12.1875 1 10.5 0 9.5 0 8 1 6.5 0 5.5 0 3.8125 1 2.125 0"></polygon>
                    <path d="M10.5,0 L10.5,3.375 L13.875,0 L10.5,0 Z M16,2.125 L12.625,5.5 L16,5.5 L16,2.125 Z M0,5.5 L3.375,5.5 L0,2.125 L0,5.5 Z M2.125,0 L5.5,3.375 L5.5,0 L2.125,0 Z M5.5,16 L5.5,12.625 L2.125,16 L5.5,16 Z M0,13.875 L3.375,10.5 L0,10.5 L0,13.875 Z M16,10.5 L12.625,10.5 L16,13.875 L16,10.5 Z M13.875,16 L10.5,12.625 L10.5,16 L13.875,16 Z" id="Shape" fill="#0052B4"></path>
                    <path d="M0,0 L0,1.40625 L4.09375,5.5 L5.5,5.5 L0,0 Z M6.5,0 L6.5,6.5 L0,6.5 L0,9.5 L6.5,9.5 L6.5,16 L9.5,16 L9.5,9.5 L16,9.5 L16,6.5 L9.5,6.5 L9.5,0 L6.5,0 Z M14.59375,0 L10.5,4.09375 L10.5,5.5 L16,0 L14.59375,0 Z M5.5,10.5 L0,16 L1.40625,16 L5.5,11.90625 L5.5,10.5 Z M10.5,10.5 L16,16 L16,14.59375 L11.90625,10.5 L10.5,10.5 Z" id="Shape" fill="#D80027"></path>
                </g>
            </g>
        </g>
    </g>
</svg>