<?xml version="1.0" encoding="UTF-8"?>
<svg width="16px" height="16px" viewBox="0 0 16 16" version="1.1" xmlns="http://www.w3.org/2000/svg" xmlns:xlink="http://www.w3.org/1999/xlink">
    <title>gb_nir_flag_16px</title>
    <defs>
        <circle id="path-1" cx="8" cy="8" r="8"></circle>
    </defs>
    <g id="Design-System" stroke="none" stroke-width="1" fill="none" fill-rule="evenodd">
        <g id="Flags-16x16" transform="translate(-301.000000, -605.000000)">
            <g id="flag" transform="translate(301.000000, 605.000000)">
                <mask id="mask-2" fill="white">
                    <use xlink:href="#path-1"></use>
                </mask>
                <use id="Mask" fill="#D8D8D8" xlink:href="#path-1"></use>
                <g id="gb-nir" mask="url(#mask-2)" fill-rule="nonzero">
                    <polygon id="Path" fill="#EEEEEE" points="0 0 7 0 8 1 9 0 16 0 16 7 15 8 16 9 16 16 9 16 8 15 7 16 0 16 0 9 1 8 0 7"></polygon>
                    <polygon id="Path" fill="#D80027" points="7 0 7 7 0 7 0 9 7 9 7 16 9 16 9 9 16 9 16 7 9 7 9 0"></polygon>
                    <polygon id="Path" fill="#ACABB1" points="8 3.25 6.625 5.625 3.90625 5.625 5.25 8 3.90625 10.375 6.625 10.375 8 12.75 9.375 10.375 12.09375 10.375 10.75 8 12.09375 5.625 9.375 5.625"></polygon>
                    <polygon id="Path" fill="#EEEEEE" points="8 4.09375 6.875 6.03125 4.59375 6.03125 5.75 8 4.59375 9.96875 6.875 9.96875 8 11.9375 9.125 9.96875 11.40625 9.96875 10.25 8 11.40625 6.03125 9.125 6.03125"></polygon>
                    <path d="M8.09375,6.09375 C7.9375,6.09375 7.9375,6.25 7.9375,6.25 L7.9375,7.46875 L7.84375,7.46875 L7.84375,6.4375 C7.84375,6.4375 7.84375,6.25 7.6875,6.25 C7.5,6.25 7.5,6.4375 7.5,6.4375 L7.5,7.53125 L7.40625,7.5625 L7.40625,6.78125 C7.40625,6.78125 7.40625,6.59375 7.25,6.59375 C7.0625,6.59375 7.0625,6.78125 7.0625,6.78125 L7.0625,8.125 C7.0625,8.4375 7.21875,8.75 7.4375,8.9375 L7.4375,9.59375 L8.5625,9.59375 L8.5625,9.0625 C8.84375,8.90625 9.0625,8.625 9.125,8.28125 C9.125,8.09375 9.1875,7.9375 9.25,7.78125 L9.375,7.34375 C9.375,7.34375 9.40625,7.1875 9.25,7.125 C9.09375,7.0625 9.03125,7.21875 9.03125,7.21875 L8.78125,7.8125 L8.6875,7.8125 L8.6875,6.34375 C8.6875,6.34375 8.6875,6.1875 8.53125,6.1875 C8.34375,6.1875 8.34375,6.34375 8.34375,6.34375 L8.34375,7.46875 L8.28125,7.46875 L8.28125,6.25 C8.28125,6.25 8.28125,6.09375 8.09375,6.09375 Z" id="Path" fill="#D80027"></path>
                    <path d="M7.65625,1.1875 L7.65625,1.53125 L7.3125,1.53125 L7.3125,2.21875 L7.65625,2.21875 L7.65625,2.875 C7.46875,2.6875 7.21875,2.59375 6.96875,2.59375 C6.54420865,2.58921497 6.1602744,2.84533251 6.0014045,3.23905357 C5.8425346,3.63277463 5.94120082,4.08362569 6.25,4.375 L6.25,5 L9.75,5 L9.75,4.375 C9.9375,4.15625 10.0625,3.90625 10.0625,3.625 C10.0552639,3.22170091 9.81355766,2.85964186 9.44385867,2.69831867 C9.07415968,2.53699548 8.6443417,2.60602576 8.34375,2.875 L8.34375,2.21875 L8.6875,2.21875 L8.6875,1.53125 L8.34375,1.53125 L8.34375,1.1875 L7.65625,1.1875 Z" id="Path" fill="#FFDA44"></path>
                </g>
            </g>
        </g>
    </g>
</svg>