<?xml version="1.0" encoding="UTF-8"?>
<svg width="16px" height="16px" viewBox="0 0 16 16" version="1.1" xmlns="http://www.w3.org/2000/svg" xmlns:xlink="http://www.w3.org/1999/xlink">
    <title>gb_wis_flag_16px</title>
    <defs>
        <circle id="path-1" cx="8" cy="8" r="8"></circle>
    </defs>
    <g id="Design-System" stroke="none" stroke-width="1" fill="none" fill-rule="evenodd">
        <g id="Flags-16x16" transform="translate(-451.000000, -605.000000)">
            <g id="flag" transform="translate(451.000000, 605.000000)">
                <mask id="mask-2" fill="white">
                    <use xlink:href="#path-1"></use>
                </mask>
                <use id="Mask" fill="#D8D8D8" xlink:href="#path-1"></use>
                <g id="gb-wls" mask="url(#mask-2)" fill-rule="nonzero">
                    <polygon id="Path" fill="#6DA544" points="0 8 8 6 16 8 16 16 0 16"></polygon>
                    <polygon id="Path" fill="#EEEEEE" points="0 0 16 0 16 8 0 8"></polygon>
                    <path d="M5.1875,4.65625 C4.8125,4.65625 4.53125,4.9375 4.53125,5.3125 L4.09375,5.3125 C3.5,5.3125 3,5.78125 3,6.375 L3.78125,6.375 C3.875,6.625 4.09375,6.8125 4.3125,6.8125 L4.53125,6.8125 L4.53125,8.3125 L4.59375,8.75 L4.09375,8.90625 C4.0625,8.4375 3.6875,8.09375 3.25,8.09375 C3.125,8.09375 3,8.1875 3,8.28125 L3,10.03125 C3,10.15625 3.125,10.25 3.25,10.25 L3.625,10.15625 L5.375,9.6875 C5.5625,9.78125 5.8125,9.84375 6.0625,9.84375 L6.25,9.84375 L6.25,10.28125 L5.84375,10.28125 C5.34375,10.28125 4.96875,10.65625 4.96875,11.125 C4.96875,11.25 5.0625,11.34375 5.1875,11.34375 L7.125,11.34375 C7.25,11.34375 7.34375,11.25 7.34375,11.125 L7.34375,9.84375 L7.625,9.8125 L9.15625,9.8125 L9.4375,10.28125 L9.28125,10.28125 C8.8125,10.28125 8.4375,10.65625 8.4375,11.125 C8.4375,11.25 8.53125,11.34375 8.65625,11.34375 L10.8125,11.34375 C10.9375,11.34375 11.03125,11.25 11.03125,11.125 C11.03125,10.9375 10.96875,10.78125 10.875,10.625 L10.40625,9.8125 L11.125,9.8125 C12.03125,9.8125 12.75,9.09375 12.75,8.1875 L12.75,8.09375 L13,8.15625 L13.1875,8.15625 C13.28125,8.0625 13.3125,7.9375 13.25,7.84375 L12.375,6.59375 L12.34375,6.5625 C12.25,6.5 12.09375,6.5 12.03125,6.59375 L11.1875,7.84375 C11.15625,7.90625 11.125,7.96875 11.15625,8.03125 C11.1875,8.15625 11.3125,8.21875 11.4375,8.1875 L11.6875,8.09375 L11.6875,8.1875 C11.6875,8.5 11.4375,8.75 11.125,8.75 L9.96875,8.75 C10.34375,8.375 10.65625,7.9375 10.84375,7.46875 L11.625,5.6875 L11.65625,5.53125 C11.65625,5.28125 11.46875,5.09375 11.21875,5.09375 L8.25,5.09375 C7.78125,5.09375 7.375,5.46875 7.375,5.9375 L7.375,6.46875 C7.375,6.65859788 7.22109788,6.8125 7.03125,6.8125 C6.84140212,6.8125 6.6875,6.65859788 6.6875,6.46875 L6.6875,5.5 C7.0625,5.375 7.34375,5.0625 7.34375,4.65625 L6.0625,4.65625 L5.1875,4.65625 Z" id="Path" fill="#D80027"></path>
                </g>
            </g>
        </g>
    </g>
</svg>