<?xml version="1.0" encoding="UTF-8"?>
<svg width="16px" height="16px" viewBox="0 0 16 16" version="1.1" xmlns="http://www.w3.org/2000/svg" xmlns:xlink="http://www.w3.org/1999/xlink">
    <title>ge_flag_16px</title>
    <defs>
        <circle id="path-1" cx="8" cy="8" r="8"></circle>
    </defs>
    <g id="Design-System" stroke="none" stroke-width="1" fill="none" fill-rule="evenodd">
        <g id="Flags-16x16" transform="translate(-51.000000, -655.000000)">
            <g id="flag" transform="translate(51.000000, 655.000000)">
                <mask id="mask-2" fill="white">
                    <use xlink:href="#path-1"></use>
                </mask>
                <use id="Mask" fill="#D8D8D8" xlink:href="#path-1"></use>
                <g id="ge" mask="url(#mask-2)" fill-rule="nonzero">
                    <polygon id="Path" fill="#EEEEEE" points="0 0 6.95625 0 7.925 0.73125 9.04375 0 16 0 16 6.95625 15.328125 7.925 16 9.04375 16 16 9.04375 16 7.975 15.359375 6.95625 16 0 16 0 9.04375 0.709375 8.025 0 6.95625"></polygon>
                    <polygon id="Path" fill="#D80027" points="6.95625 0 6.95625 6.95625 0 6.95625 0 9.04375 6.95625 9.04375 6.95625 16 9.04375 16 9.04375 9.04375 16 9.04375 16 6.95625 9.04375 6.95625 9.04375 0"></polygon>
                    <path d="M4.86875,3.825 L4.86875,2.78125 L3.825,2.78125 L3.825,3.825 L2.78125,3.825 L2.78125,4.86875 L3.825,4.86875 L3.825,5.9125 L4.86875,5.9125 L4.86875,4.86875 L5.9125,4.86875 L5.9125,3.825 L4.86875,3.825 Z M12.175,3.825 L12.175,2.78125 L11.13125,2.78125 L11.13125,3.825 L10.0875,3.825 L10.0875,4.86875 L11.13125,4.86875 L11.13125,5.9125 L12.175,5.9125 L12.175,4.86875 L13.21875,4.86875 L13.21875,3.825 L12.175,3.825 Z M4.86875,11.13125 L4.86875,10.0875 L3.825,10.0875 L3.825,11.13125 L2.78125,11.13125 L2.78125,12.175 L3.825,12.175 L3.825,13.21875 L4.86875,13.21875 L4.86875,12.175 L5.9125,12.175 L5.9125,11.13125 L4.86875,11.13125 Z M12.175,11.13125 L12.175,10.0875 L11.13125,10.0875 L11.13125,11.13125 L10.0875,11.13125 L10.0875,12.175 L11.13125,12.175 L11.13125,13.21875 L12.175,13.21875 L12.175,12.175 L13.21875,12.175 L13.21875,11.13125 L12.175,11.13125 Z" id="Shape" fill="#D80027"></path>
                </g>
            </g>
        </g>
    </g>
</svg>