<?xml version="1.0" encoding="UTF-8"?>
<svg width="16px" height="16px" viewBox="0 0 16 16" version="1.1" xmlns="http://www.w3.org/2000/svg" xmlns:xlink="http://www.w3.org/1999/xlink">
    <title>gg_flag_16px</title>
    <defs>
        <circle id="path-1" cx="8" cy="8" r="8"></circle>
    </defs>
    <g id="Design-System" stroke="none" stroke-width="1" fill="none" fill-rule="evenodd">
        <g id="Flags-16x16" transform="translate(-201.000000, -655.000000)">
            <g id="flag" transform="translate(201.000000, 655.000000)">
                <mask id="mask-2" fill="white">
                    <use xlink:href="#path-1"></use>
                </mask>
                <use id="Mask" fill="#D8D8D8" xlink:href="#path-1"></use>
                <g id="gg" mask="url(#mask-2)" fill-rule="nonzero">
                    <polygon id="Path" fill="#EEEEEE" points="0 0 6.95625 0 7.925 0.73125 9.04375 0 16 0 16 6.95625 15.328125 7.925 16 9.04375 16 16 9.04375 16 7.975 15.359375 6.95625 16 0 16 0 9.04375 0.709375 8.025 0 6.95625"></polygon>
                    <polygon id="Path" fill="#D80027" points="6.95625 0 6.95625 6.95625 0 6.95625 0 9.04375 6.95625 9.04375 6.95625 16 9.04375 16 9.04375 9.04375 16 9.04375 16 6.95625 9.04375 6.95625 9.04375 0"></polygon>
                    <polygon id="Path" fill="#FFDA44" points="10.259375 8.34375 10.78125 8.696875 10.78125 7.3 10.259375 7.65625 8.346875 7.65625 8.346875 5.74375 8.696875 5.21875 7.303125 5.21875 7.653125 5.74375 7.653125 7.653125 5.740625 7.653125 5.21875 7.3 5.21875 8.696875 5.740625 8.34375 7.653125 8.34375 7.653125 10.259375 7.303125 10.778125 8.696875 10.778125 8.34375 10.259375 8.34375 8.34375"></polygon>
                </g>
            </g>
        </g>
    </g>
</svg>