<?xml version="1.0" encoding="UTF-8"?>
<svg width="16px" height="16px" viewBox="0 0 16 16" version="1.1" xmlns="http://www.w3.org/2000/svg" xmlns:xlink="http://www.w3.org/1999/xlink">
    <title>gi_flag_16px</title>
    <defs>
        <circle id="path-1" cx="8" cy="8" r="8"></circle>
    </defs>
    <g id="Design-System" stroke="none" stroke-width="1" fill="none" fill-rule="evenodd">
        <g id="Flags-16x16" transform="translate(-301.000000, -655.000000)">
            <g id="flag" transform="translate(301.000000, 655.000000)">
                <mask id="mask-2" fill="white">
                    <use xlink:href="#path-1"></use>
                </mask>
                <use id="Mask" fill="#D8D8D8" xlink:href="#path-1"></use>
                <g id="gi" mask="url(#mask-2)" fill-rule="nonzero">
                    <polygon id="Path" fill="#D80027" points="0 10.78125 8.009375 9.803125 16 10.78125 16 16 0 16"></polygon>
                    <polygon id="Path" fill="#EEEEEE" points="0 0 16 0 16 10.78125 0 10.78125"></polygon>
                    <polygon id="Path" fill="#D80027" points="11.13125 6.609375 11.13125 5.5625 11.478125 5.5625 11.478125 4.865625 10.78125 4.865625 10.78125 5.21875 10.0875 5.21875 10.0875 4.86875 9.390625 4.86875 9.390625 5.565625 9.740625 5.565625 9.740625 6.609375 9.04375 6.609375 9.04375 4.171875 9.390625 4.171875 9.390625 3.478125 8.696875 3.478125 8.696875 3.825 8.34375 3.825 8.34375 3.48125 7.65625 3.48125 7.65625 3.825 7.30625 3.825 7.30625 3.48125 6.6125 3.48125 6.6125 4.175 6.959375 4.175 6.959375 6.609375 6.2625 6.609375 6.2625 5.5625 6.6125 5.5625 6.6125 4.865625 5.915625 4.865625 5.915625 5.21875 5.21875 5.21875 5.21875 4.86875 4.521875 4.86875 4.521875 5.565625 4.86875 5.565625 4.86875 6.609375 4.175 6.609375 4.175 9.390625 11.825 9.390625 11.825 6.609375"></polygon>
                    <path d="M8,9.04375 C7.49150195,9.04381855 7.05705452,9.41031998 6.97132967,9.91154001 C6.88560483,10.41276 7.17355348,10.9028146 7.653125,11.071875 L7.653125,12.521875 L6.609375,12.521875 L6.609375,13.9125 L8.34375,13.9125 L8.34375,11.06875 C8.81865574,10.8966267 9.10214715,10.409123 9.01686151,9.91123929 C8.93157586,9.41335553 8.50199264,9.04799889 7.996875,9.04375 L8,9.04375 Z M8,10.434375 C7.87607349,10.434375 7.76156068,10.368261 7.69959742,10.2609375 C7.63763417,10.153614 7.63763417,10.021386 7.69959742,9.91406249 C7.76156068,9.80673899 7.87607349,9.740625 8,9.740625 C8.19157376,9.740625 8.34687498,9.89592624 8.34687498,10.0875 C8.34687498,10.2790738 8.19157376,10.434375 8,10.434375 Z" id="Shape" fill="#FFDA44"></path>
                </g>
            </g>
        </g>
    </g>
</svg>