<?xml version="1.0" encoding="UTF-8"?>
<svg width="16px" height="16px" viewBox="0 0 16 16" version="1.1" xmlns="http://www.w3.org/2000/svg" xmlns:xlink="http://www.w3.org/1999/xlink">
    <title>gr_flag_16px</title>
    <defs>
        <circle id="path-1" cx="8" cy="8" r="8"></circle>
    </defs>
    <g id="Design-System" stroke="none" stroke-width="1" fill="none" fill-rule="evenodd">
        <g id="Flags-16x16" transform="translate(-101.000000, -705.000000)">
            <g id="flag" transform="translate(101.000000, 705.000000)">
                <mask id="mask-2" fill="white">
                    <use xlink:href="#path-1"></use>
                </mask>
                <use id="Mask" fill="#D8D8D8" xlink:href="#path-1"></use>
                <g id="gr" mask="url(#mask-2)" fill-rule="nonzero">
                    <polygon id="Path" fill="#0052B4" points="0 0 3.09375 0 4 1 4.875 0 16 0 16 1.78125 15 2.65625 16 3.5625 16 5.34375 15 6.21875 16 7.125 16 8.90625 15 9.78125 16 10.65625 16 12.4375 15 13.34375 16 14.21875 16 16 0 16 0 14.21875 1 13.34375 0 12.4375 0 10.6875 1 9.78125 0 8.90625 0 5.34375 1 4.4375 0 3.5625"></polygon>
                    <path d="M3.09375,0 L3.09375,3.5625 L0,3.5625 L0,5.34375 L3.09375,5.34375 L3.09375,8.90625 L0,8.90625 L0,10.6875 L16,10.6875 L16,8.90625 L4.875,8.90625 L4.875,5.34375 L8,5.34375 L8,3.5625 L4.875,3.5625 L4.875,0 L3.09375,0 Z M8,1.78125 L8,3.5625 L16,3.5625 L16,1.78125 L8,1.78125 Z M8,5.34375 L8,7.125 L16,7.125 L16,5.34375 L8,5.34375 Z M0,12.4375 L0,14.21875 L16,14.21875 L16,12.4375 L0,12.4375 Z" id="Shape" fill="#EEEEEE"></path>
                </g>
            </g>
        </g>
    </g>
</svg>