<?xml version="1.0" encoding="UTF-8"?>
<svg width="16px" height="16px" viewBox="0 0 16 16" version="1.1" xmlns="http://www.w3.org/2000/svg" xmlns:xlink="http://www.w3.org/1999/xlink">
    <title>hk_flag_16px</title>
    <defs>
        <circle id="path-1" cx="8" cy="8" r="8"></circle>
    </defs>
    <g id="Design-System" stroke="none" stroke-width="1" fill="none" fill-rule="evenodd">
        <g id="Flags-16x16" transform="translate(-501.000000, -705.000000)">
            <g id="flag" transform="translate(501.000000, 705.000000)">
                <mask id="mask-2" fill="white">
                    <use xlink:href="#path-1"></use>
                </mask>
                <use id="Mask" fill="#D8D8D8" xlink:href="#path-1"></use>
                <g id="hk" mask="url(#mask-2)" fill-rule="nonzero">
                    <polygon id="Path" fill="#D80027" points="0 0 16 0 16 16 0 16"></polygon>
                    <path d="M8.825,6.053125 C8.64375,6.809375 8.321875,6.665625 8.1625,7.325 C7.24573217,7.08521029 6.68921635,6.15611975 6.91042696,5.23469247 C7.13163757,4.3132652 8.04928976,3.73808388 8.975,3.940625 C8.659375,5.259375 8.9875,5.378125 8.825,6.053125 L8.825,6.053125 Z M6.40625,6.6125 C7.06875,7.01875 6.83125,7.28125 7.409375,7.6375 C6.89083318,8.41729598 5.84826489,8.64706706 5.04996635,8.15748882 C4.25166782,7.66791059 3.98379479,6.63447581 4.44375,5.81875 C5.6,6.528125 5.8125,6.25 6.40625,6.6125 L6.40625,6.6125 Z M6.1875,9.090625 C6.78125,8.584375 6.959375,8.890625 7.475,8.453125 C8.04858529,9.18791595 7.94149208,10.2441458 7.2320925,10.8488524 C6.52269293,11.453559 5.4628302,11.3920661 4.828125,10.709375 C5.859375,9.828125 5.659375,9.540625 6.190625,9.090625 L6.1875,9.090625 Z M8.48125,10.059375 C8.18125,9.340625 8.528125,9.26875 8.26875,8.64375 C9.14324338,8.32860768 10.1110397,8.75619667 10.4668954,9.61492832 C10.8227511,10.47366 10.4410757,11.4604659 9.6,11.85625 C9.08125,10.60625 8.746875,10.703125 8.48125,10.0625 L8.48125,10.059375 Z M10.1125,8.184375 C9.334375,8.246875 9.371875,7.89375 8.696875,7.946875 C8.65414614,7.00868445 9.36339575,6.20576422 10.2996873,6.13237921 C11.2359789,6.05899419 12.0616623,6.74160886 12.165625,7.675 C10.8125,7.78125 10.803125,8.128125 10.1125,8.184375 L10.1125,8.184375 Z" id="Shape" fill="#EEEEEE"></path>
                </g>
            </g>
        </g>
    </g>
</svg>