<?xml version="1.0" encoding="UTF-8"?>
<svg width="16px" height="16px" viewBox="0 0 16 16" version="1.1" xmlns="http://www.w3.org/2000/svg" xmlns:xlink="http://www.w3.org/1999/xlink">
    <title>hr_flag_16px</title>
    <defs>
        <circle id="path-1" cx="8" cy="8" r="8"></circle>
    </defs>
    <g id="Design-System" stroke="none" stroke-width="1" fill="none" fill-rule="evenodd">
        <g id="Flags-16x16" transform="translate(-151.000000, -755.000000)">
            <g id="flag" transform="translate(151.000000, 755.000000)">
                <mask id="mask-2" fill="white">
                    <use xlink:href="#path-1"></use>
                </mask>
                <use id="Mask" fill="#D8D8D8" xlink:href="#path-1"></use>
                <g id="hr" mask="url(#mask-2)" fill-rule="nonzero">
                    <polygon id="Path" fill="#EEEEEE" points="0 5.21875 7.93125 4.615625 16 5.21875 16 10.78125 8.034375 11.790625 0 10.78125"></polygon>
                    <polygon id="Path" fill="#D80027" points="0 0 16 0 16 5.21875 0 5.21875"></polygon>
                    <polygon id="Path" fill="#0052B4" points="0 10.78125 16 10.78125 16 16 0 16"></polygon>
                    <path d="M10.0875,5.5625 L8.696875,5.5625 L8.928125,3.821875 L9.85625,3.128125 L10.78125,3.821875 L10.78125,5.21875 L10.0875,5.5625 Z M5.9125,5.5625 L7.303125,5.5625 L7.071875,3.821875 L6.14375,3.128125 L5.21875,3.821875 L5.21875,5.21875 L5.9125,5.5625 Z" id="Shape" fill="#338AF3"></path>
                    <polygon id="Path" fill="#0052B4" points="8.928125 5.5625 7.071875 5.5625 7.071875 3.821875 8 3.128125 8.928125 3.821875"></polygon>
                    <path d="M5.21875,5.21875 L5.21875,9.040625 C5.21923883,9.91824535 5.6339287,10.74415 6.3375,11.26875 L6.821875,11.146875 L7.4375,11.765625 C7.62260613,11.8034096 7.81107724,11.8222567 8,11.8218807 C8.18787963,11.8220667 8.37529519,11.8032204 8.559375,11.765625 L9.259375,11.18125 L9.665625,11.26875 C10.3680182,10.7434941 10.7814974,9.91769396 10.7812501,9.040625 L10.7812501,5.21875 L5.21875,5.21875 Z" id="Path" fill="#EEEEEE"></path>
                    <path d="M5.21875,5.21875 L6.33125,5.21875 L6.33125,6.328125 L5.21875,6.328125 L5.21875,5.21875 Z M7.44375,5.21875 L8.55625,5.21875 L8.55625,6.328125 L7.44375,6.328125 L7.44375,5.21875 Z M9.66875,5.21875 L10.78125,5.21875 L10.78125,6.328125 L9.66875,6.328125 L9.66875,5.21875 Z M6.33125,6.328125 L7.44375,6.328125 L7.44375,7.440625 L6.33125,7.440625 L6.33125,6.328125 Z M8.55625,6.328125 L9.66875,6.328125 L9.66875,7.440625 L8.55625,7.440625 L8.55625,6.328125 Z M5.21875,7.440625 L6.33125,7.440625 L6.33125,8.553125 L5.21875,8.553125 L5.21875,7.440625 Z M6.33125,8.553125 L7.44375,8.553125 L7.44375,9.665625 L6.33125,9.665625 L6.33125,8.553125 Z M7.44375,7.440625 L8.55625,7.440625 L8.55625,8.553125 L7.44375,8.553125 L7.44375,7.440625 Z M9.66875,7.440625 L10.78125,7.440625 L10.78125,8.553125 L9.66875,8.553125 L9.66875,7.440625 Z M8.55625,8.553125 L9.66875,8.553125 L9.66875,9.665625 L8.55625,9.665625 L8.55625,8.553125 Z M7.44375,9.665625 L8.55625,9.665625 L8.55625,10.78125 L7.44375,10.78125 L7.44375,9.665625 Z M6.33125,9.665625 L5.290625,9.665625 C5.384375,10.08125 5.571875,10.459375 5.83125,10.778125 L6.33125,10.778125 L6.33125,9.665625 Z M9.66875,10.78125 L10.16875,10.78125 C10.4303618,10.4558132 10.6151603,10.0755343 10.709375,9.66875 L9.66875,9.66875 L9.66875,10.78125 Z M6.33125,10.78125 L6.33125,11.26875 C6.66036013,11.5159494 7.04039269,11.6867506 7.44375,11.76875 L7.44375,10.78125 L6.33125,10.78125 Z M8.55625,10.78125 L8.55625,11.76875 C8.95960731,11.6867506 9.33963987,11.5159494 9.66875,11.26875 L9.66875,10.78125 L8.55625,10.78125 Z" id="Shape" fill="#D80027"></path>
                </g>
            </g>
        </g>
    </g>
</svg>