<?xml version="1.0" encoding="UTF-8"?>
<svg width="16px" height="16px" viewBox="0 0 16 16" version="1.1" xmlns="http://www.w3.org/2000/svg" xmlns:xlink="http://www.w3.org/1999/xlink">
    <title>ir_flag_16px</title>
    <defs>
        <circle id="path-1" cx="8" cy="8" r="8"></circle>
    </defs>
    <g id="Design-System" stroke="none" stroke-width="1" fill="none" fill-rule="evenodd">
        <g id="Flags-16x16" transform="translate(-501.000000, -805.000000)">
            <g id="flag" transform="translate(501.000000, 805.000000)">
                <mask id="mask-2" fill="white">
                    <use xlink:href="#path-1"></use>
                </mask>
                <use id="Mask" fill="#D8D8D8" xlink:href="#path-1"></use>
                <g id="ir" mask="url(#mask-2)" fill-rule="nonzero">
                    <polygon id="Path" fill="#EEEEEE" points="0 4.521875 8.0875 1.2375 16 4.521875 16 11.478125 8.03125 15.40625 0 11.478125"></polygon>
                    <polygon id="Path" fill="#6DA544" points="0 0 0 4.521875 3.3 4.521875 3.3 3.828125 4.35 3.828125 4.35 4.521875 5.390625 4.521875 5.390625 3.828125 6.440625 3.828125 6.440625 4.521875 7.48125 4.521875 7.48125 3.828125 8.53125 3.828125 8.53125 4.521875 9.5625 4.521875 9.5625 3.828125 10.6125 3.828125 10.6125 4.521875 11.65 4.521875 11.65 3.828125 12.7 3.828125 12.7 4.521875 16 4.521875 16 0"></polygon>
                    <path d="M0,11.478125 L0,16 L16,16 L16,11.478125 L12.7,11.478125 L12.7,12.178125 L11.65,12.178125 L11.65,11.478125 L10.6125,11.478125 L10.6125,12.178125 L9.5625,12.178125 L9.5625,11.478125 L8.53125,11.478125 L8.53125,12.178125 L7.48125,12.178125 L7.48125,11.478125 L6.440625,11.478125 L6.440625,12.178125 L5.390625,12.178125 L5.390625,11.478125 L4.35,11.478125 L4.35,12.178125 L3.3,12.178125 L3.3,11.478125 L0,11.478125 Z M10.596875,5.915625 L9.553125,5.915625 C9.559375,6.03125 9.565625,6.146875 9.565625,6.2625 C9.565625,7.0375 9.371875,7.7875 9.034375,8.325 C8.93125,8.4875 8.753125,8.71875 8.521875,8.875 L8.521875,5.915625 L7.478125,5.915625 L7.478125,8.878125 C7.24375,8.721875 7.071875,8.490625 6.965625,8.325 C6.628125,7.79375 6.434375,7.04375 6.434375,6.265625 C6.434375,6.15 6.440625,6.034375 6.446875,5.921875 L5.40625,5.921875 C5.39876443,6.03631357 5.39459602,6.15094499 5.39375,6.265625 C5.39375,8.4125 6.540625,10.09375 8.003125,10.09375 C9.465625,10.09375 10.6125,8.4125 10.6125,6.265625 C10.6125,6.15 10.609375,6.034375 10.6,5.921875 L10.596875,5.915625 Z" id="Shape" fill="#D80027"></path>
                </g>
            </g>
        </g>
    </g>
</svg>