<?xml version="1.0" encoding="UTF-8"?>
<svg width="16px" height="16px" viewBox="0 0 16 16" version="1.1" xmlns="http://www.w3.org/2000/svg" xmlns:xlink="http://www.w3.org/1999/xlink">
    <title>it_82_flag_16px</title>
    <defs>
        <circle id="path-1" cx="8" cy="8" r="8"></circle>
    </defs>
    <g id="Design-System" stroke="none" stroke-width="1" fill="none" fill-rule="evenodd">
        <g id="Flags-16x16" transform="translate(-201.000000, -855.000000)">
            <g id="flag" transform="translate(201.000000, 855.000000)">
                <mask id="mask-2" fill="white">
                    <use xlink:href="#path-1"></use>
                </mask>
                <use id="Mask" fill="#D8D8D8" xlink:href="#path-1"></use>
                <g id="it-82" mask="url(#mask-2)" fill-rule="nonzero">
                    <polygon id="Path" fill="#D80027" points="0 0 6.778125 9.425 16 16 16 0"></polygon>
                    <polygon id="Path" fill="#FFDA44" points="0 0 16 16 0 16"></polygon>
                    <path d="M10.0125,10.0125 C9.53190335,10.2081277 8.98011659,10.0771356 8.63872708,9.68637156 C8.29733757,9.29560753 8.24161674,8.73122934 8.5,8.28125 L8.4,8.228125 C9.22125938,8.02724918 9.86234455,7.38580404 10.0627593,6.56443202 C10.2631741,5.74306001 9.98957103,4.87843094 9.353125,4.321875 L8.625,5.071875 C9.03177095,5.39112979 9.19205761,5.93277292 9.02453141,6.42197757 C8.85700521,6.91118223 8.39833598,7.24086635 7.88125,7.24375 L7.88125,7.35625 C7.29644068,6.75096495 6.42429442,6.51974472 5.61642961,6.75580912 C4.80856481,6.99187351 4.19813738,7.65631331 4.03125,8.48125 L5.04375,8.7375 C5.11964351,8.22799561 5.50842805,7.82164377 6.01408342,7.72332189 C6.5197388,7.62500001 7.03246419,7.85605825 7.29375,8.3 L7.39375,8.2375 C7.15783741,9.04737321 7.39138756,9.92125263 7.99987595,10.505454 C8.60836434,11.0896554 9.49102707,11.2874366 10.290625,11.01875 L10.009375,10.009375 L10.0125,10.0125 Z" id="Path" fill="#FF9811"></path>
                    <polygon id="Path" fill="#EEEEEE" points="10.88125 5.3375 10.3125 7.35625 8.615625 7.04375 7.521875 4.790625 4.571875 5.8375 4.340625 5.18125 3.56875 5.0875 4.15 6.725 6.18125 6.20625 6.75625 7.83125 5.35 9.903125 7.7375 11.934375 7.284375 12.465625 7.5875 13.18125 8.7125 11.85625 7.253125 10.35625 8.371875 9.04375 10.865625 9.225 11.434375 6.146875 12.121875 6.271875 12.590625 5.653125"></polygon>
                </g>
            </g>
        </g>
    </g>
</svg>