<?xml version="1.0" encoding="UTF-8"?>
<svg width="16px" height="16px" viewBox="0 0 16 16" version="1.1" xmlns="http://www.w3.org/2000/svg" xmlns:xlink="http://www.w3.org/1999/xlink">
    <title>it_88_flag_16px</title>
    <defs>
        <circle id="path-1" cx="8" cy="8" r="8"></circle>
    </defs>
    <g id="Design-System" stroke="none" stroke-width="1" fill="none" fill-rule="evenodd">
        <g id="Flags-16x16" transform="translate(-251.000000, -855.000000)">
            <g id="flag" transform="translate(251.000000, 855.000000)">
                <mask id="mask-2" fill="white">
                    <use xlink:href="#path-1"></use>
                </mask>
                <use id="Mask" fill="#D8D8D8" xlink:href="#path-1"></use>
                <g id="it-88" mask="url(#mask-2)" fill-rule="nonzero">
                    <polygon id="Path" fill="#EEEEEE" points="0 0 6.95625 0 7.925 0.73125 9.04375 0 16 0 16 6.95625 15.328125 7.925 16 9.04375 16 16 9.04375 16 7.975 15.359375 6.95625 16 0 16 0 9.04375 0.709375 8.025 0 6.95625"></polygon>
                    <polygon id="Path" fill="#D80027" points="6.95625 0 6.95625 6.95625 0 6.95625 0 9.04375 6.95625 9.04375 6.95625 16 9.04375 16 9.04375 9.04375 16 9.04375 16 6.95625 9.04375 6.95625 9.04375 0"></polygon>
                    <path d="M11.825,2.78124597 C11.191664,2.78257947 10.6392272,3.21168155 10.48125,3.825 L11.825,4.175 L13.175,3.825 C13.0164427,3.20942745 12.4606632,2.77972754 11.825,2.78124597 Z M10.4375,5.9125 L12.178125,6.259375 L12.178125,5.521875 C12.665625,5.396875 13.053125,5.009375 13.178125,4.521875 L11.828125,4.175 L10.090625,4.175 L10.4375,5.21875 L10.4375,5.9125 Z" id="Shape" fill="#333333"></path>
                    <path d="M13.175,3.825 L10.0875,3.825 L10.0875,5.21875 L10.434375,5.21875 L10.434375,4.521875 L13.175,4.521875 C13.2040853,4.40854472 13.2187843,4.29200302 13.2187501,4.175 C13.2187501,4.053125 13.203125,3.9375 13.175,3.825 L13.175,3.825 Z" id="Path" fill="#ACABB1"></path>
                    <path d="M4.521875,2.78124998 C3.88737503,2.78115571 3.33326853,3.21055611 3.175,3.825 L4.521875,4.175 L5.86875,3.825 C5.71048147,3.21055611 5.15637497,2.78115571 4.521875,2.78124998 Z M3.13125,5.9125 L4.86875,6.259375 L4.86875,5.521875 C5.359375,5.396875 5.74375,5.009375 5.86875,4.521875 L4.521875,4.175 L2.78125,4.175 L3.13125,5.21875 L3.13125,5.9125 Z" id="Shape" fill="#333333"></path>
                    <path d="M5.86875,3.825 L2.78125,3.825 L2.78125,5.21875 L3.13125,5.21875 L3.13125,4.521875 L5.86875,4.521875 C5.89783532,4.40854472 5.91253427,4.29200302 5.91250006,4.175 C5.91250006,4.053125 5.896875,3.9375 5.86875,3.825 L5.86875,3.825 Z" id="Path" fill="#ACABB1"></path>
                    <path d="M11.825,9.74061877 C11.1925641,9.74158458 10.6404243,10.1691718 10.48125,10.78125 L11.825,11.13125 L13.175,10.78125 C13.0152418,10.1669183 12.4597618,9.73873578 11.825,9.74061877 Z M10.4375,12.86875 L12.178125,13.21875 L12.178125,12.478125 C12.665625,12.353125 13.053125,11.965625 13.178125,11.478125 L11.828125,11.13125 L10.090625,11.13125 L10.4375,12.175 L10.4375,12.86875 Z" id="Shape" fill="#333333"></path>
                    <path d="M13.175,10.78125 L10.0875,10.78125 L10.0875,12.175 L10.434375,12.175 L10.434375,11.478125 L13.175,11.478125 C13.2040853,11.3647947 13.2187843,11.248253 13.2187501,11.13125 C13.2187501,11.009375 13.203125,10.89375 13.175,10.78125 L13.175,10.78125 Z" id="Path" fill="#ACABB1"></path>
                    <path d="M4.521875,9.74062463 C3.88827577,9.74016238 3.33446754,10.1680467 3.175,10.78125 L4.521875,11.13125 L5.86875,10.78125 C5.70928246,10.1680467 5.15547423,9.74016238 4.521875,9.74062463 L4.521875,9.74062463 Z M3.13125,12.86875 L4.86875,13.21875 L4.86875,12.478125 C5.359375,12.353125 5.74375,11.965625 5.86875,11.478125 L4.521875,11.13125 L2.78125,11.13125 L3.13125,12.175 L3.13125,12.86875 Z" id="Shape" fill="#333333"></path>
                    <path d="M5.86875,10.78125 L2.78125,10.78125 L2.78125,12.175 L3.13125,12.175 L3.13125,11.478125 L5.86875,11.478125 C5.89783532,11.3647947 5.91253427,11.248253 5.91250006,11.13125 C5.91250006,11.009375 5.896875,10.89375 5.86875,10.78125 Z" id="Path" fill="#ACABB1"></path>
                </g>
            </g>
        </g>
    </g>
</svg>