<?xml version="1.0" encoding="UTF-8"?>
<svg width="16px" height="16px" viewBox="0 0 16 16" version="1.1" xmlns="http://www.w3.org/2000/svg" xmlns:xlink="http://www.w3.org/1999/xlink">
    <title>jm_flag_16px</title>
    <defs>
        <circle id="path-1" cx="8" cy="8" r="8"></circle>
    </defs>
    <g id="Design-System" stroke="none" stroke-width="1" fill="none" fill-rule="evenodd">
        <g id="Flags-16x16" transform="translate(-351.000000, -855.000000)">
            <g id="flag" transform="translate(351.000000, 855.000000)">
                <mask id="mask-2" fill="white">
                    <use xlink:href="#path-1"></use>
                </mask>
                <use id="Mask" fill="#D8D8D8" xlink:href="#path-1"></use>
                <g id="jm" mask="url(#mask-2)" fill-rule="nonzero">
                    <polygon id="Path" fill="#333333" points="0.728125 15.26875 0 14.53125 0 1.471875 0.73125 0.73125 15.23125 15.23125 16 14.525 16 1.471875 15.234375 0.7625"></polygon>
                    <polygon id="Path" fill="#6DA544" points="0.728125 0.728125 1.471875 0 14.525 0 15.26875 0.73125 0.76875 15.23125 1.46875 16 14.53125 16 15.2375 15.234375"></polygon>
                    <polygon id="Path" fill="#FFDA44" points="0 0 0 1.471875 6.525 8 0 14.528125 0 16 1.471875 16 8 9.475 14.528125 16 16 16 16 14.53125 9.471875 8 16 1.475 16 0 14.525 0 8 6.528125 1.46875 0"></polygon>
                </g>
            </g>
        </g>
    </g>
</svg>