<?xml version="1.0" encoding="UTF-8"?>
<svg width="16px" height="16px" viewBox="0 0 16 16" version="1.1" xmlns="http://www.w3.org/2000/svg" xmlns:xlink="http://www.w3.org/1999/xlink">
    <title>ke_flag_16px</title>
    <defs>
        <circle id="path-1" cx="8" cy="8" r="8"></circle>
    </defs>
    <g id="Design-System" stroke="none" stroke-width="1" fill="none" fill-rule="evenodd">
        <g id="Flags-16x16" transform="translate(-51.000000, -905.000000)">
            <g id="flag" transform="translate(51.000000, 905.000000)">
                <mask id="mask-2" fill="white">
                    <use xlink:href="#path-1"></use>
                </mask>
                <use id="Mask" fill="#D8D8D8" xlink:href="#path-1"></use>
                <g id="ke" mask="url(#mask-2)" fill-rule="nonzero">
                    <polygon id="Path" fill="#EEEEEE" points="0 4.521875 7.91875 3.640625 16 4.521875 16 5.5625 14.875 7.95 16 10.4375 16 11.478125 7.959375 12.5 0 11.478125 0 10.4375 1.21875 8 0 5.5625"></polygon>
                    <polygon id="Path" fill="#333333" points="0 0 16 0 16 4.521875 0 4.521875"></polygon>
                    <polygon id="Path" fill="#A2001D" points="0 5.5625 16 5.5625 16 10.4375 0 10.4375"></polygon>
                    <polygon id="Path" fill="#496E2D" points="0 11.478125 16 11.478125 16 16 0 16"></polygon>
                    <polygon id="Path" fill="#EEEEEE" points="10.496875 3.696875 9.55 3.259375 8.00625 6.75625 6.4625 3.259375 5.515625 3.696875 7.43125 8 5.515625 12.303125 6.4625 12.740625 8.00625 9.24375 9.55 12.740625 10.496875 12.303125 8.58125 8"></polygon>
                    <path d="M8.00625,3.478125 C8.00625,3.478125 7.7875,3.659375 7.484375,3.978125 L6.984375,7.965625 L7.484375,12.021875 C7.7875,12.340625 8.00625,12.521875 8.00625,12.521875 C8.00625,12.521875 8.225,12.340625 8.528125,12.021875 L8.996875,7.9375 L8.528125,3.978125 C8.225,3.659375 8.00625,3.478125 8.00625,3.478125 Z" id="Path" fill="#EEEEEE"></path>
                    <path d="M9.746875,5.6 L9.434375,7.959375 L9.746875,10.4 C10.1781685,9.6720651 10.4159247,8.84583557 10.4375,8 C10.4375,7.11875 10.134375,6.296875 9.74375,5.6 L9.746875,5.6 Z M6.265625,5.6 L6.54375,7.921875 L6.2625,10.4 C5.83120649,9.6720651 5.59345034,8.84583557 5.571875,8 C5.571875,7.11875 5.875,6.296875 6.265625,5.6 L6.265625,5.6 Z" id="Shape" fill="#333333"></path>
                    <path d="M6.265625,5.6 L6.265625,10.4 C6.60490927,10.9878441 7.01413871,11.5324341 7.484375,12.021875 L7.484375,3.978125 C7.128125,4.353125 6.653125,4.915625 6.265625,5.603125 L6.265625,5.6 Z M9.746875,5.6 C9.40759073,5.01215585 8.99836129,4.4675659 8.528125,3.978125 L8.528125,12.021875 C8.884375,11.646875 9.35625,11.084375 9.746875,10.396875 L9.746875,5.603125 L9.746875,5.6 Z" id="Shape" fill="#A2001D"></path>
                </g>
            </g>
        </g>
    </g>
</svg>