<?xml version="1.0" encoding="UTF-8"?>
<svg width="16px" height="16px" viewBox="0 0 16 16" version="1.1" xmlns="http://www.w3.org/2000/svg" xmlns:xlink="http://www.w3.org/1999/xlink">
    <title>kh_flag_16px</title>
    <defs>
        <circle id="path-1" cx="8" cy="8" r="8"></circle>
    </defs>
    <g id="Design-System" stroke="none" stroke-width="1" fill="none" fill-rule="evenodd">
        <g id="Flags-16x16" transform="translate(-151.000000, -905.000000)">
            <g id="flag" transform="translate(151.000000, 905.000000)">
                <mask id="mask-2" fill="white">
                    <use xlink:href="#path-1"></use>
                </mask>
                <use id="Mask" fill="#D8D8D8" xlink:href="#path-1"></use>
                <g id="kh" mask="url(#mask-2)" fill-rule="nonzero">
                    <polygon id="Path" fill="#0052B4" points="0 0 16 0 16 4.178125 14.78125 7.978125 16 11.828125 16 16 0 16 0 11.828125 1.06875 7.96875 0 4.178125"></polygon>
                    <polygon id="Path" fill="#D80027" points="0 4.178125 16 4.178125 16 11.828125 0 11.828125"></polygon>
                    <polygon id="Path" fill="#EEEEEE" points="10.78125 9.565625 10.78125 8.525 10.0875 8.525 10.0875 7.134375 9.390625 6.4375 8.696875 7.134375 8.696875 5.74375 8 5.046875 7.303125 5.74375 7.303125 7.134375 6.609375 6.4375 5.9125 7.134375 5.9125 8.525 5.21875 8.525 5.21875 9.56875 4.521875 9.56875 4.521875 10.6125 11.478125 10.6125 11.478125 9.565625"></polygon>
                </g>
            </g>
        </g>
    </g>
</svg>