<?xml version="1.0" encoding="UTF-8"?>
<svg width="16px" height="16px" viewBox="0 0 16 16" version="1.1" xmlns="http://www.w3.org/2000/svg" xmlns:xlink="http://www.w3.org/1999/xlink">
    <title>ki_flag_16px</title>
    <defs>
        <circle id="path-1" cx="8" cy="8" r="8"></circle>
    </defs>
    <g id="Design-System" stroke="none" stroke-width="1" fill="none" fill-rule="evenodd">
        <g id="Flags-16x16" transform="translate(-201.000000, -905.000000)">
            <g id="flag" transform="translate(201.000000, 905.000000)">
                <mask id="mask-2" fill="white">
                    <use xlink:href="#path-1"></use>
                </mask>
                <use id="Mask" fill="#D8D8D8" xlink:href="#path-1"></use>
                <g id="ki" mask="url(#mask-2)" fill-rule="nonzero">
                    <polygon id="Path" fill="#D80027" points="0 0 16 0 15.996875 7.3375 8.0375 15.490625 0.009375 7.3375"></polygon>
                    <path d="M10.78125,7.4375 L9.646875,7.975 L10.25,9.075 L9.015625,8.840625 L8.859375,10.0875 L8,9.16875 L7.140625,10.0875 L6.984375,8.8375 L5.75,9.075 L6.353125,7.975 L5.21875,7.4375 L6.353125,6.903125 L5.75,5.8 L6.984375,6.0375 L7.140625,4.7875 L8,5.70625 L8.859375,4.790625 L9.015625,6.0375 L10.25,5.8 L9.646875,6.903125 L10.78125,7.4375 Z M10.0875,2.6125 L8.521875,2.6125 C8.521875,2.3242764 8.2882236,2.090625 8,2.090625 C7.7117764,2.090625 7.478125,2.3242764 7.478125,2.6125 L5.915625,2.6125 C5.915625,2.9 6.165625,3.134375 6.453125,3.134375 L6.434375,3.134375 C6.434375,3.421875 6.66875,3.65625 6.95625,3.65625 C6.95625,3.94375 7.190625,4.178125 7.478125,4.178125 L8.521875,4.178125 C8.809375,4.178125 9.04375,3.94375 9.04375,3.65625 C9.33125,3.65625 9.565625,3.421875 9.565625,3.134375 L9.546875,3.134375 C9.8375,3.134375 10.0875,2.9 10.0875,2.6125 L10.0875,2.6125 Z" id="Shape" fill="#FFDA44"></path>
                    <path d="M2.665625,7.3375 C2,7.3375 2,7.946875 1.33125,7.946875 C0.66875,7.946875 0.665625,7.34375 0.009375,7.3375 L0.009375,8.409375 L0.39375,8.978125 L0.009375,9.48125 L0.009375,10.5 L0.409375,11.06875 L0.009375,11.571875 L0.009375,12.584375 L1.23125,14.128125 L15.01875,14.221875 L15.996875,12.584375 L15.996875,11.571875 L15.740625,11.059375 L15.996875,10.5 L15.996875,9.48125 L15.675,9.04375 L15.996875,8.409375 L15.996875,7.3375 C15.334375,7.3375 15.334375,7.946875 14.66875,7.946875 C14.003125,7.946875 14,7.3375 13.334375,7.3375 C12.66875,7.3375 12.66875,7.946875 12,7.946875 C11.334375,7.946875 11.334375,7.3375 10.66875,7.3375 C10,7.3375 10,7.946875 9.334375,7.946875 C8.66875,7.946875 8.66875,7.3375 8,7.3375 C7.33125,7.3375 7.33125,7.946875 6.665625,7.946875 C6,7.946875 6,7.3375 5.33125,7.3375 C4.665625,7.3375 4.665625,7.946875 4,7.946875 C3.334375,7.946875 3.33125,7.3375 2.665625,7.3375 Z" id="Path" fill="#EEEEEE"></path>
                    <path d="M2.665625,8.409375 C2,8.409375 2,9.01875 1.33125,9.01875 C0.66875,9.01875 0.665625,8.415625 0.009375,8.409375 L0.009375,9.48125 C0.665625,9.4875 0.66875,10.090625 1.33125,10.090625 C2,10.090625 2,9.48125 2.665625,9.48125 C3.33125,9.48125 3.33125,10.090625 4,10.090625 C4.66875,10.090625 4.665625,9.48125 5.33125,9.48125 C6,9.48125 6,10.090625 6.665625,10.090625 C7.33125,10.090625 7.33125,9.48125 8,9.48125 C8.66875,9.48125 8.66875,10.090625 9.334375,10.090625 C10,10.090625 10,9.48125 10.66875,9.48125 C11.334375,9.48125 11.334375,10.090625 12,10.090625 C12.66875,10.090625 12.66875,9.48125 13.334375,9.48125 C14,9.48125 14,10.090625 14.66875,10.090625 C15.3375,10.090625 15.334375,9.484375 15.996875,9.48125 L15.996875,8.409375 C15.334375,8.409375 15.334375,9.01875 14.66875,9.01875 C14.003125,9.01875 14,8.409375 13.334375,8.409375 C12.66875,8.409375 12.66875,9.01875 12,9.01875 C11.334375,9.01875 11.334375,8.409375 10.66875,8.409375 C10,8.409375 10,9.01875 9.334375,9.01875 C8.66875,9.01875 8.66875,8.409375 8,8.409375 C7.33125,8.409375 7.33125,9.01875 6.665625,9.01875 C6,9.01875 6,8.409375 5.33125,8.409375 C4.665625,8.409375 4.665625,9.01875 4,9.01875 C3.334375,9.01875 3.33125,8.409375 2.665625,8.409375 Z M2.665625,10.5 C2,10.5 2,11.109375 1.33125,11.109375 C0.66875,11.109375 0.665625,10.50625 0.009375,10.5 L0.009375,11.571875 C0.665625,11.578125 0.66875,12.18125 1.33125,12.18125 C2,12.18125 2,11.571875 2.665625,11.571875 C3.33125,11.571875 3.33125,12.18125 4,12.18125 C4.66875,12.18125 4.665625,11.571875 5.33125,11.571875 C6,11.571875 6,12.18125 6.665625,12.18125 C7.33125,12.18125 7.33125,11.571875 8,11.571875 C8.66875,11.571875 8.66875,12.18125 9.334375,12.18125 C10,12.18125 10,11.571875 10.66875,11.571875 C11.334375,11.571875 11.334375,12.18125 12,12.18125 C12.66875,12.18125 12.66875,11.571875 13.334375,11.571875 C14,11.571875 14,12.18125 14.66875,12.18125 C15.3375,12.18125 15.334375,11.575 15.996875,11.571875 L15.996875,10.5 C15.334375,10.5 15.334375,11.109375 14.66875,11.109375 C14.003125,11.109375 14,10.5 13.334375,10.5 C12.66875,10.5 12.66875,11.109375 12,11.109375 C11.334375,11.109375 11.334375,10.5 10.66875,10.5 C10,10.5 10,11.109375 9.334375,11.109375 C8.66875,11.109375 8.66875,10.5 8,10.5 C7.33125,10.5 7.33125,11.109375 6.665625,11.109375 C6,11.109375 6,10.5 5.33125,10.5 C4.665625,10.5 4.665625,11.109375 4,11.109375 C3.334375,11.109375 3.33125,10.5 2.665625,10.5 Z M2.665625,12.584375 C2,12.584375 2,13.19375 1.33125,13.19375 C0.66875,13.19375 0.665625,12.590625 0.009375,12.584375 L0,16 L16,16 L15.996875,12.584375 C15.334375,12.584375 15.334375,13.19375 14.66875,13.19375 C14.003125,13.19375 14,12.584375 13.334375,12.584375 C12.66875,12.584375 12.66875,13.19375 12,13.19375 C11.334375,13.19375 11.334375,12.584375 10.66875,12.584375 C10,12.584375 10,13.19375 9.334375,13.19375 C8.66875,13.19375 8.66875,12.584375 8,12.584375 C7.33125,12.584375 7.33125,13.19375 6.665625,13.19375 C6,13.19375 6,12.584375 5.33125,12.584375 C4.665625,12.584375 4.665625,13.19375 4,13.19375 C3.334375,13.19375 3.33125,12.584375 2.665625,12.584375 Z" id="Shape" fill="#0052B4"></path>
                </g>
            </g>
        </g>
    </g>
</svg>