<?xml version="1.0" encoding="UTF-8"?>
<svg width="16px" height="16px" viewBox="0 0 16 16" version="1.1" xmlns="http://www.w3.org/2000/svg" xmlns:xlink="http://www.w3.org/1999/xlink">
    <title>kikuyu_flag_16px</title>
    <defs>
        <circle id="path-1" cx="8" cy="8" r="8"></circle>
    </defs>
    <g id="Design-System" stroke="none" stroke-width="1" fill="none" fill-rule="evenodd">
        <g id="Flags-16x16" transform="translate(-251.000000, -905.000000)">
            <g id="flag" transform="translate(251.000000, 905.000000)">
                <mask id="mask-2" fill="white">
                    <use xlink:href="#path-1"></use>
                </mask>
                <use id="Mask" fill="#D8D8D8" xlink:href="#path-1"></use>
                <g id="kikuyu" mask="url(#mask-2)" fill-rule="nonzero">
                    <polygon id="Path" fill="#EEEEEE" points="7.125 0 8.125 6.59375 7.125 13.1875 6.125 13.1875 5.125 6.59375 6.125 0"></polygon>
                    <polygon id="Path" fill="#496E2D" points="6.125 0 6.125 14.0625 0 14.0625 0 0"></polygon>
                    <polygon id="Path" fill="#EEEEEE" points="5.5625 2.71875 4.59375 2.28125 3.0625 5.78125 1.53125 2.28125 0.5625 2.71875 2.5 7.03125 0.5625 11.34375 1.53125 11.78125 3.0625 8.28125 4.59375 11.78125 5.5625 11.34375 3.625 7.03125"></polygon>
                    <polygon id="Path" fill="#EEEEEE" points="3.0625 2.5 2.53125 3 2.03125 7 2.53125 11.0625 3.0625 11.5625 3.59375 11.0625 4.0625 6.96875 3.59375 3"></polygon>
                    <path d="M4.8125,4.625 L4.5,7 L4.8125,9.4375 C5.24320832,8.70720877 5.47988151,7.87885261 5.5,7.03125 C5.5,6.15625 5.1875,5.34375 4.8125,4.625 L4.8125,4.625 Z M1.3125,4.625 L1.59375,6.9375 L1.3125,9.4375 C0.88179168,8.70720877 0.64511849,7.87885261 0.625,7.03125 C0.625,6.15625 0.9375,5.34375 1.3125,4.625 L1.3125,4.625 Z" id="Shape" fill="#333333"></path>
                    <path d="M1.3125,4.625 L1.3125,9.4375 C1.651573,10.0264381 2.06080985,10.5720872 2.53125,11.0625 L2.53125,3 C2.1875,3.375 1.71875,3.9375 1.3125,4.625 L1.3125,4.625 Z M4.8125,4.625 C4.473427,4.03606188 4.06419015,3.49041276 3.59375,3 L3.59375,11.0625 C3.9375,10.6875 4.40625,10.125 4.8125,9.4375 L4.8125,4.625 Z" id="Shape" fill="#A2001D"></path>
                    <polygon id="Path" fill="#D80027" points="16 0 16 13.1875 7.125 13.1875 7.125 0"></polygon>
                    <polygon id="Path" fill="#333333" points="0 14.0625 2.6875 13.53125 5.03125 13.78125 6.75 12.1875 8.03125 12.75 11.34375 11 16 13.1875 16 16 0 16"></polygon>
                </g>
            </g>
        </g>
    </g>
</svg>