<?xml version="1.0" encoding="UTF-8"?>
<svg width="16px" height="16px" viewBox="0 0 16 16" version="1.1" xmlns="http://www.w3.org/2000/svg" xmlns:xlink="http://www.w3.org/1999/xlink">
    <title>kr_flag_16px</title>
    <defs>
        <circle id="path-1" cx="8" cy="8" r="8"></circle>
    </defs>
    <g id="Design-System" stroke="none" stroke-width="1" fill="none" fill-rule="evenodd">
        <g id="Flags-16x16" transform="translate(-51.000000, -955.000000)">
            <g id="flag" transform="translate(51.000000, 955.000000)">
                <mask id="mask-2" fill="white">
                    <use xlink:href="#path-1"></use>
                </mask>
                <use id="Mask" fill="#D8D8D8" xlink:href="#path-1"></use>
                <g id="kr" mask="url(#mask-2)" fill-rule="nonzero">
                    <polygon id="Path" fill="#EEEEEE" points="0 0 16 0 16 16 0 16"></polygon>
                    <path d="M10.78125,8 C10.78125,8.696875 9.5375,10.4375 8,10.4375 C6.4625,10.4375 5.21875,8.696875 5.21875,8 C5.21875,6.46395804 6.46395804,5.21875 8,5.21875 C9.53604196,5.21875 10.78125,6.46395804 10.78125,8 L10.78125,8 Z" id="Path" fill="#D80027"></path>
                    <path d="M10.78125,8 C10.78125,9.53604196 9.53604196,10.78125 8,10.78125 C6.46395804,10.78125 5.21875,9.53604196 5.21875,8" id="Path" fill="#0052B4"></path>
                    <path d="M10.95,10.459375 L11.690625,9.721875 L12.18125,10.2125 L11.44375,10.95 L10.95,10.459375 Z M9.721875,11.690625 L10.459375,10.95 L10.95,11.44375 L10.2125,12.18125 L9.721875,11.690625 Z M12.428125,11.934375 L13.165625,11.196875 L13.65625,11.6875 L12.91875,12.428125 L12.428125,11.934375 Z M11.196875,13.165625 L11.934375,12.428125 L12.428125,12.91875 L11.6875,13.65625 L11.196875,13.165625 Z M11.690625,11.196875 L12.428125,10.459375 L12.91875,10.95 L12.18125,11.690625 L11.690625,11.196875 Z M10.459375,12.428125 L11.196875,11.690625 L11.690625,12.18125 L10.95,12.91875 L10.459375,12.428125 Z M12.428125,5.540625 L10.459375,3.571875 L10.953125,3.08125 L12.921875,5.05 L12.428125,5.540625 Z M10.459375,5.05 L9.721875,4.309375 L10.2125,3.81875 L10.953125,4.55625 L10.459375,5.05 Z M11.690625,6.278125 L10.95,5.540625 L11.44375,5.05 L12.18125,5.7875 L11.690625,6.278125 Z M11.934375,3.571875 L11.196875,2.834375 L11.6875,2.34375 L12.428125,3.08125 L11.934375,3.571875 Z M13.165625,4.803125 L12.428125,4.0625 L12.91875,3.56875 L13.65625,4.3125 L13.165625,4.803125 Z M2.834375,11.196875 L4.803125,13.165625 L4.309375,13.65625 L2.340625,11.6875 L2.834375,11.196875 Z M4.803125,11.6875 L5.540625,12.428125 L5.05,12.91875 L4.309375,12.18125 L4.803125,11.6875 Z M3.571875,10.459375 L4.309375,11.196875 L3.81875,11.690625 L3.08125,10.95 L3.571875,10.459375 Z M4.309375,9.721875 L6.278125,11.690625 L5.7875,12.18125 L3.81875,10.2125 L4.309375,9.721875 Z M4.803125,2.834375 L2.834375,4.803125 L2.34375,4.309375 L4.3125,2.340625 L4.803125,2.834375 Z M5.540625,3.571875 L3.571875,5.540625 L3.08125,5.046875 L5.05,3.078125 L5.540625,3.571875 Z M6.278125,4.309375 L4.309375,6.278125 L3.81875,5.7875 L5.7875,3.81875 L6.278125,4.309375 Z" id="Shape" fill="#333333"></path>
                </g>
            </g>
        </g>
    </g>
</svg>