<?xml version="1.0" encoding="UTF-8"?>
<svg width="16px" height="16px" viewBox="0 0 16 16" version="1.1" xmlns="http://www.w3.org/2000/svg" xmlns:xlink="http://www.w3.org/1999/xlink">
    <title>kurdistan_flag_16px</title>
    <defs>
        <circle id="path-1" cx="8" cy="8" r="8"></circle>
    </defs>
    <g id="Design-System" stroke="none" stroke-width="1" fill="none" fill-rule="evenodd">
        <g id="Flags-16x16" transform="translate(-101.000000, -955.000000)">
            <g id="flag" transform="translate(101.000000, 955.000000)">
                <mask id="mask-2" fill="white">
                    <use xlink:href="#path-1"></use>
                </mask>
                <use id="Mask" fill="#D8D8D8" xlink:href="#path-1"></use>
                <g id="kurdistan" mask="url(#mask-2)" fill-rule="nonzero">
                    <polygon id="Path" fill="#EEEEEE" points="0 4.521875 8.03125 3.821875 16 4.521875 16 11.478125 8.034375 12.446875 0 11.478125"></polygon>
                    <polygon id="Path" fill="#D80027" points="0 0 16 0 16 4.521875 0 4.521875"></polygon>
                    <polygon id="Path" fill="#6DA544" points="0 11.478125 16 11.478125 16 16 0 16"></polygon>
                    <polygon id="Path" fill="#FFDA44" points="8 2.996875 8.60625 5.609375 10.359375 3.578125 9.684375 6.171875 12.178125 5.190625 10.375 7.175 13.040625 7.4625 10.51875 8.378125 12.75 9.875 10.09375 9.515625 11.36875 11.875 9.18125 10.321875 9.21875 13 8 10.6125 6.784375 13 6.821875 10.31875 4.634375 11.871875 5.909375 9.5125 3.253125 9.871875 5.48125 8.375 2.959375 7.459375 5.625 7.16875 3.821875 5.1875 6.315625 6.171875 5.640625 3.575 7.390625 5.60625"></polygon>
                </g>
            </g>
        </g>
    </g>
</svg>