<?xml version="1.0" encoding="UTF-8"?>
<svg width="16px" height="16px" viewBox="0 0 16 16" version="1.1" xmlns="http://www.w3.org/2000/svg" xmlns:xlink="http://www.w3.org/1999/xlink">
    <title>lk_flag_16px</title>
    <defs>
        <circle id="path-1" cx="8" cy="8" r="8"></circle>
    </defs>
    <g id="Design-System" stroke="none" stroke-width="1" fill="none" fill-rule="evenodd">
        <g id="Flags-16x16" transform="translate(-501.000000, -955.000000)">
            <g id="flag" transform="translate(501.000000, 955.000000)">
                <mask id="mask-2" fill="white">
                    <use xlink:href="#path-1"></use>
                </mask>
                <use id="Mask" fill="#D8D8D8" xlink:href="#path-1"></use>
                <g id="lk" mask="url(#mask-2)" fill-rule="nonzero">
                    <polygon id="Path" fill="#FF9811" points="2.54375 0.85 6.76875 0.85 6.76875 15.115625 2.54375 15.115625"></polygon>
                    <polygon id="Path" fill="#6DA544" points="0 1.390625 3.13125 0.703125 3.13125 15.171875 0 14.609375"></polygon>
                    <polygon id="Path" fill="#A2001D" points="6.83125 0.828125 16 1.390625 16 4.303125 15.41875 7.621875 16 10.665625 16 14.609375 6.83125 15.171875"></polygon>
                    <polygon id="Path" fill="#FFDA44" points="0 0 0 1.390625 6.259375 1.390625 6.259375 14.609375 0 14.609375 0 16 16 16 16 14.609375 7.303125 14.609375 7.303125 1.390625 16 1.390625 16 0"></polygon>
                    <path d="M9.390625,2.95625 C8.815625,2.95625 8.34685095,3.425 8.34685095,4 L8.34685095,8.51875 C8.34483619,8.8175774 8.47252415,9.10259517 8.696875,9.3 L8.696875,10.95625 L9.390625,10.95625 L9.390625,10.0875 L12.521875,10.0875 L12.521875,11.478125 L11.825,11.478125 L11.825,12.175 L13.21875,12.175 L13.21875,10.78125 L13.85625,10.0875 L15.3625,10.0875 C15.53634,10.3189605 15.7526999,10.5151692 16,10.665625 L16,4.303125 C15.7407679,4.39154287 15.5017429,4.5307085 15.296875,4.7125 C14.5770503,5.37686184 14.4064866,6.44805371 14.884375,7.303125 C14.21875,7.3 13.603125,7.309375 13.21875,7.303125 L13.21875,5.21875 C13.21875,4.86875 12.696875,4.521875 12.696875,4.521875 C12.696875,4.521875 12.175,4.86875 12.175,5.21875 L10.0875,5.21875 L10.0875,7.303125 L11.13125,7.303125 L11.13125,8.346875 C11.13125,8.56875 11.175,8.7875 11.259375,8.99375 L10.78125,9.39375 L9.390625,9.39375 L9.390625,2.95625 Z" id="Path" fill="#FFDA44"></path>
                </g>
            </g>
        </g>
    </g>
</svg>