<?xml version="1.0" encoding="UTF-8"?>
<svg width="16px" height="16px" viewBox="0 0 16 16" version="1.1" xmlns="http://www.w3.org/2000/svg" xmlns:xlink="http://www.w3.org/1999/xlink">
    <title>lr_flag_16px</title>
    <defs>
        <circle id="path-1" cx="8" cy="8" r="8"></circle>
    </defs>
    <g id="Design-System" stroke="none" stroke-width="1" fill="none" fill-rule="evenodd">
        <g id="Flags-16x16" transform="translate(-51.000000, -1005.000000)">
            <g id="flag" transform="translate(51.000000, 1005.000000)">
                <mask id="mask-2" fill="white">
                    <use xlink:href="#path-1"></use>
                </mask>
                <use id="Mask" fill="#D8D8D8" xlink:href="#path-1"></use>
                <g id="lr" mask="url(#mask-2)" fill-rule="nonzero">
                    <polygon id="Path" fill="#EEEEEE" points="0 7.271875 8 0 16 0 15.4 0.75 16 1.45 16 2.909375 15.3875 3.615625 16 4.3625 16 5.815625 15.43125 6.53125 16 7.271875 16 8.728125 15.40625 9.5 16 10.18125 16 11.6375 15.4375 12.371875 16 13.090625 16 14.546875 8.084375 15.203125 0 14.546875 0 13.090625 0.5875 12.415625 0 11.6375 0 10.18125 0.6125 9.496875 0 8.728125"></polygon>
                    <path d="M8,0 L7.3125,1.453125 L16,1.453125 L16,0 L8,0 Z M7.465625,2.9125 L7.465625,4.365625 L16,4.365625 L16,2.9125 L7.465625,2.9125 Z M7.3125,5.81875 L8,7.271875 L16,7.271875 L16,5.81875 L7.3125,5.81875 Z M0,8.728125 L0,10.18125 L16,10.18125 L16,8.728125 L0,8.728125 Z M0,11.6375 L0,13.090625 L16,13.090625 L16,11.6375 L0,11.6375 Z M0,14.546875 L0,16 L16,16 L16,14.546875 L0,14.546875 Z" id="Shape" fill="#D80027"></path>
                    <polygon id="Path" fill="#0052B4" points="0 0 8 0 8 7.271875 0 7.271875"></polygon>
                    <polygon id="Path" fill="#EEEEEE" points="4.7625 2.0875 5.28125 3.68125 6.95625 3.68125 5.6 4.665625 6.11875 6.259375 4.7625 5.275 3.40625 6.259375 3.925 4.665625 2.56875 3.68125 4.24375 3.68125"></polygon>
                </g>
            </g>
        </g>
    </g>
</svg>