<?xml version="1.0" encoding="UTF-8"?>
<svg width="16px" height="16px" viewBox="0 0 16 16" version="1.1" xmlns="http://www.w3.org/2000/svg" xmlns:xlink="http://www.w3.org/1999/xlink">
    <title>md_flag_16px</title>
    <defs>
        <circle id="path-1" cx="8" cy="8" r="8"></circle>
    </defs>
    <g id="Design-System" stroke="none" stroke-width="1" fill="none" fill-rule="evenodd">
        <g id="Flags-16x16" transform="translate(-51.000000, -1055.000000)">
            <g id="flag" transform="translate(51.000000, 1055.000000)">
                <mask id="mask-2" fill="white">
                    <use xlink:href="#path-1"></use>
                </mask>
                <use id="Mask" fill="#D8D8D8" xlink:href="#path-1"></use>
                <g id="md" mask="url(#mask-2)" fill-rule="nonzero">
                    <polygon id="Path" fill="#0052B4" points="0 0 4.521875 0 5.646875 7.95625 4.521875 16 0 16"></polygon>
                    <polygon id="Path" fill="#D80027" points="11.478125 0 16 0 16 16 11.478125 16 10.55 7.959375"></polygon>
                    <polygon id="Path" fill="#FFDA44" points="4.521875 0 11.478125 0 11.478125 16 4.521875 16"></polygon>
                    <path d="M10.784375,6.29375 L8.875,6.29375 C8.875,5.81395262 8.48604738,5.425 8.00625,5.425 C7.52645262,5.425 7.1375,5.81395262 7.1375,6.29375 L5.225,6.29375 C5.23856561,6.77187671 5.63105961,7.15188857 6.109375,7.15 L6.078125,7.15 C6.07812348,7.3776341 6.16876413,7.59589956 6.33001866,7.75656772 C6.4912732,7.91723588 6.70986742,8.00708078 6.9375,8.00625 C6.9375,8.425 7.2375,8.771875 7.634375,8.85 L6.959375,10.371875 C7.29191955,10.5066274 7.64744126,10.5756092 8.00625,10.575004 C8.36505874,10.5756092 8.72058045,10.5066274 9.053125,10.371875 L8.378125,8.84375 C8.78212584,8.76721544 9.07468211,8.41431123 9.075,8.003125 C9.54789382,8.003125 9.93125,7.61976882 9.93125,7.146875 L9.903125,7.146875 C10.3814404,7.14876357 10.7739344,6.76875171 10.7875,6.290625 L10.784375,6.29375 Z" id="Path" fill="#FF9811"></path>
                    <polygon id="Path" fill="#0052B4" points="8.003125 7.478125 6.875 8 6.875 9.04375 8.00625 9.740625 9.1375 9.04375 9.1375 8"></polygon>
                    <polygon id="Path" fill="#D80027" points="6.875 6.95625 9.134375 6.95625 9.134375 8 6.875 8"></polygon>
                </g>
            </g>
        </g>
    </g>
</svg>