<?xml version="1.0" encoding="UTF-8"?>
<svg width="16px" height="16px" viewBox="0 0 16 16" version="1.1" xmlns="http://www.w3.org/2000/svg" xmlns:xlink="http://www.w3.org/1999/xlink">
    <title>me_flag_16px</title>
    <defs>
        <circle id="path-1" cx="8" cy="8" r="8"></circle>
    </defs>
    <g id="Design-System" stroke="none" stroke-width="1" fill="none" fill-rule="evenodd">
        <g id="Flags-16x16" transform="translate(-101.000000, -1055.000000)">
            <g id="flag" transform="translate(101.000000, 1055.000000)">
                <mask id="mask-2" fill="white">
                    <use xlink:href="#path-1"></use>
                </mask>
                <use id="Mask" fill="#D8D8D8" xlink:href="#path-1"></use>
                <g id="me" mask="url(#mask-2)" fill-rule="nonzero">
                    <polygon id="Path" fill="#FFDA44" points="0 0 16 0 16 1.390625 14.6375 7.94375 16 14.609375 16 16 0 16 0 14.609375 1.45625 7.984375 0 1.390625"></polygon>
                    <polygon id="Path" fill="#A2001D" points="0 1.390625 16 1.390625 16 14.609375 0 14.609375"></polygon>
                    <path d="M6.259375,5.9125 L9.740625,5.9125 L9.740625,4.521875 L9.04375,4.86875 L8,3.825 L6.95625,4.86875 L6.259375,4.521875 L6.259375,5.9125 Z M11.13125,8 L9.390625,8 C9.46174491,7.87865562 9.49948101,7.74064932 9.5,7.6 C9.49806239,7.23320368 9.24785841,6.91432747 8.89205212,6.82519174 C8.53624584,6.736056 8.165259,6.89931298 7.990625,7.221875 C7.85162636,6.97067263 7.58917145,6.81270696 7.30212449,6.80748213 C7.01507753,6.8022573 6.74704779,6.95056709 6.59899948,7.19654463 C6.45095117,7.44252217 6.44537635,7.74879763 6.584375,8 L4.86875,8 C4.86875,8.53125 5.334375,8.9625 5.865625,8.9625 L5.834375,8.9625 C5.834375,9.4 6.121875,9.76875 6.521875,9.8875 L5.740625,10.66875 L6.478125,11.40625 L7.525,10.359375 C7.565625,10.375 7.60625,10.3875 7.65,10.39375 L7.01875,11.821875 C7.33021142,11.9493555 7.66345984,12.0151562 8,12.015625 C8.33654016,12.0151562 8.66978858,11.9493555 8.98125,11.821875 L8.35,10.39375 C8.39253426,10.3857192 8.43434032,10.3742225 8.475,10.359375 L9.521875,11.40625 L10.259375,10.66875 L9.478125,9.8875 C9.88696788,9.76560832 10.1667867,9.38912482 10.165625,8.9625 L10.134375,8.9625 C10.665625,8.9625 11.13125,8.53125 11.13125,8 L11.13125,8 Z" id="Shape" fill="#FFDA44"></path>
                    <polygon id="Path" fill="#6DA544" points="8 8.521875 6.86875 9.04375 6.86875 10.0875 8 10.78125 9.13125 10.0875 9.13125 9.04375"></polygon>
                    <polygon id="Path" fill="#0052B4" points="6.86875 8 9.13125 8 9.13125 9.390625 6.86875 9.390625"></polygon>
                </g>
            </g>
        </g>
    </g>
</svg>