<?xml version="1.0" encoding="UTF-8"?>
<svg width="16px" height="16px" viewBox="0 0 16 16" version="1.1" xmlns="http://www.w3.org/2000/svg" xmlns:xlink="http://www.w3.org/1999/xlink">
    <title>mk_flag_16px</title>
    <defs>
        <circle id="path-1" cx="8" cy="8" r="8"></circle>
    </defs>
    <g id="Design-System" stroke="none" stroke-width="1" fill="none" fill-rule="evenodd">
        <g id="Flags-16x16" transform="translate(-301.000000, -1055.000000)">
            <g id="flag" transform="translate(301.000000, 1055.000000)">
                <mask id="mask-2" fill="white">
                    <use xlink:href="#path-1"></use>
                </mask>
                <use id="Mask" fill="#D8D8D8" xlink:href="#path-1"></use>
                <g id="mk" mask="url(#mask-2)" fill-rule="nonzero">
                    <polygon id="Path" fill="#FFDA44" points="0 0 2.13125 0 4.81875 1.05 6.765625 0 9.228125 0 11.140625 1.0875 13.86875 0 16 0 16 2.134375 15.01875 4.884375 16 6.765625 16 9.228125 14.91875 11.125 16 13.86875 16 16 13.86875 16 11.4625 14.834375 9.234375 16 6.771875 16 4.865625 14.759375 2.13125 16 0 16 0 13.875 1.259375 11.11875 0 9.234375 0 6.771875 1.259375 4.90625 0 2.13125"></polygon>
                    <path d="M9.234375,16 L13.86875,16 L8,8 L9.234375,16 Z M6.765625,0 L2.13125,0 L8,8 L6.765625,0 Z M6.771875,16 L8,8 L2.13125,16 L6.771875,16 Z M0,6.771875 L8,8 L0,2.13125 L0,6.771875 Z M0,13.871875 L8,8 L0,9.234375 L0,13.871875 Z M16,2.134375 L8,8 L16,6.765625 L16,2.134375 Z M13.86875,0 L9.228125,0 L8,8 L13.86875,0 Z M16,13.86875 L16,9.228125 L8,8 L16,13.86875 Z" id="Shape" fill="#D80027"></path>
                    <circle id="Oval" fill="#D80027" cx="8" cy="8" r="2.78125"></circle>
                    <circle id="Oval" fill="#FFDA44" cx="8" cy="8" r="2.0875"></circle>
                </g>
            </g>
        </g>
    </g>
</svg>