<?xml version="1.0" encoding="UTF-8"?>
<svg width="16px" height="16px" viewBox="0 0 16 16" version="1.1" xmlns="http://www.w3.org/2000/svg" xmlns:xlink="http://www.w3.org/1999/xlink">
    <title>mq_flag_16px</title>
    <defs>
        <circle id="path-1" cx="8" cy="8" r="8"></circle>
    </defs>
    <g id="Design-System" stroke="none" stroke-width="1" fill="none" fill-rule="evenodd">
        <g id="Flags-16x16" transform="translate(-101.000000, -1105.000000)">
            <g id="flag" transform="translate(101.000000, 1105.000000)">
                <mask id="mask-2" fill="white">
                    <use xlink:href="#path-1"></use>
                </mask>
                <use id="Mask" fill="#D8D8D8" xlink:href="#path-1"></use>
                <g id="mq" mask="url(#mask-2)" fill-rule="nonzero">
                    <polygon id="Path" fill="#0052B4" points="0 0 6.95625 0 7.925 0.73125 9.04375 0 16 0 16 6.95625 15.328125 7.925 16 9.04375 16 16 9.04375 16 7.975 15.359375 6.95625 16 0 16 0 9.04375 0.709375 8.025 0 6.95625"></polygon>
                    <polygon id="Path" fill="#EEEEEE" points="6.95625 0 6.95625 6.95625 0 6.95625 0 9.04375 6.95625 9.04375 6.95625 16 9.04375 16 9.04375 9.04375 16 9.04375 16 6.95625 9.04375 6.95625 9.04375 0"></polygon>
                    <path d="M10.73125,5.075 C10.7329564,4.96921719 10.8192034,4.88436124 10.925,4.884375 L11.3375,4.884375 C11.9688384,4.85195602 12.4641026,4.33060773 12.4641026,3.6984375 C12.4641026,3.06626727 11.9688384,2.54491898 11.3375,2.5125 L10.94375,2.5125 C10.81875,2.41875 10.64375,2.35625 10.45625,2.35625 C10.059375,2.35625 9.7375,2.615625 9.7375,2.93125 C9.7375,3.24375 10.053125,3.5 10.44375,3.503125 L11.3375,3.503125 C11.4445052,3.503125 11.53125,3.58986983 11.53125,3.696875 C11.53125,3.80388017 11.4445052,3.890625 11.3375,3.890625 L10.925,3.890625 C10.3042037,3.93575141 9.82359361,4.45256569 9.82359361,5.075 C9.82359361,5.69743431 10.3042037,6.21424859 10.925,6.259375 L12.521875,6.259375 L12.521875,5.26875 L10.925,5.26875 C10.8179948,5.26875 10.73125,5.18200517 10.73125,5.075 L10.73125,5.075 Z M4.46875,5.075 C4.4704564,4.96921719 4.55670343,4.88436124 4.6625,4.884375 L5.075,4.884375 C5.70633842,4.85195602 6.20160258,4.33060773 6.20160258,3.6984375 C6.20160258,3.06626727 5.70633842,2.54491898 5.075,2.5125 L4.6875,2.5125 C4.559375,2.41875 4.3875,2.35625 4.196875,2.35625 C3.803125,2.35625 3.48125,2.615625 3.48125,2.93125 C3.48125,3.24375 3.79375,3.5 4.1875,3.503125 L5.078125,3.503125 C5.18513017,3.503125 5.271875,3.58986983 5.271875,3.696875 C5.271875,3.80388017 5.18513017,3.890625 5.078125,3.890625 L4.665625,3.890625 C4.04482868,3.93575141 3.56421861,4.45256569 3.56421861,5.075 C3.56421861,5.69743431 4.04482868,6.21424859 4.665625,6.259375 L6.2625,6.259375 L6.2625,5.26875 L4.66875,5.26875 C4.61682501,5.26958761 4.5667373,5.24954509 4.52972342,5.21311874 C4.49270955,5.17669238 4.47186824,5.12693175 4.471875,5.075 L4.46875,5.075 Z M10.73125,12.45625 C10.73125,12.3492448 10.8179948,12.2625 10.925,12.2625 L11.3375,12.2625 C11.9582963,12.2173736 12.4389064,11.7005593 12.4389064,11.078125 C12.4389064,10.4556907 11.9582963,9.93887641 11.3375,9.89375 L10.94375,9.89375 C10.81875,9.8 10.64375,9.7375 10.45625,9.7375 C10.059375,9.7375 9.7375,9.996875 9.7375,10.3125 C9.7375,10.625 10.053125,10.878125 10.44375,10.884375 L11.3375,10.884375 C11.4445052,10.884375 11.53125,10.9711198 11.53125,11.078125 C11.53125,11.1851302 11.4445052,11.271875 11.3375,11.271875 L10.925,11.271875 C10.3042037,11.3170014 9.82359361,11.8338157 9.82359361,12.45625 C9.82359361,13.0786843 10.3042037,13.5954986 10.925,13.640625 L12.51875,13.640625 L12.51875,12.65 L10.925,12.65 C10.8179948,12.65 10.73125,12.5632552 10.73125,12.45625 L10.73125,12.45625 Z M4.46875,12.45625 C4.46875,12.3492448 4.55549483,12.2625 4.6625,12.2625 L5.075,12.2625 C5.69579632,12.2173736 6.17640639,11.7005593 6.17640639,11.078125 C6.17640639,10.4556907 5.69579632,9.93887641 5.075,9.89375 L4.6875,9.89375 C4.559375,9.8 4.3875,9.7375 4.196875,9.7375 C3.803125,9.7375 3.48125,9.996875 3.48125,10.3125 C3.48125,10.625 3.79375,10.878125 4.1875,10.884375 L5.078125,10.884375 C5.18513017,10.884375 5.271875,10.9711198 5.271875,11.078125 C5.271875,11.1851302 5.18513017,11.271875 5.078125,11.271875 L4.665625,11.271875 C4.04482868,11.3170014 3.56421861,11.8338157 3.56421861,12.45625 C3.56421861,13.0786843 4.04482868,13.5954986 4.665625,13.640625 L6.2625,13.640625 L6.2625,12.65 L4.66875,12.65 C4.61682501,12.6508376 4.5667373,12.6307951 4.52972342,12.5943687 C4.49270955,12.5579424 4.47186824,12.5081817 4.471875,12.45625 L4.46875,12.45625 Z" id="Shape" fill="#EEEEEE"></path>
                </g>
            </g>
        </g>
    </g>
</svg>