<?xml version="1.0" encoding="UTF-8"?>
<svg width="16px" height="16px" viewBox="0 0 16 16" version="1.1" xmlns="http://www.w3.org/2000/svg" xmlns:xlink="http://www.w3.org/1999/xlink">
    <title>mx_flag_16px</title>
    <defs>
        <circle id="path-1" cx="8" cy="8" r="8"></circle>
    </defs>
    <g id="Design-System" stroke="none" stroke-width="1" fill="none" fill-rule="evenodd">
        <g id="Flags-16x16" transform="translate(-451.000000, -1105.000000)">
            <g id="flag" transform="translate(451.000000, 1105.000000)">
                <mask id="mask-2" fill="white">
                    <use xlink:href="#path-1"></use>
                </mask>
                <use id="Mask" fill="#D8D8D8" xlink:href="#path-1"></use>
                <g id="mx" mask="url(#mask-2)" fill-rule="nonzero">
                    <polygon id="Path" fill="#EEEEEE" points="4.5 0 11.46875 0 12.5 8 11.46875 16 4.5 16 3.5 8"></polygon>
                    <polygon id="Path" fill="#496E2D" points="0 0 4.5 0 4.5 16 0 16"></polygon>
                    <polygon id="Path" fill="#D80027" points="11.5 0 16 0 16 16 11.5 16"></polygon>
                    <polygon id="Path" fill="#FFDA44" points="8 8.65625 8 8.96875 8.375 8.96875 8.6875 8.28125"></polygon>
                    <path d="M5,7.5625 C5,9.21935425 6.34314575,10.5625 8,10.5625 C9.65685425,10.5625 11,9.21935425 11,7.5625 L10.65625,7.5625 C10.65625,9.02950637 9.46700637,10.21875 8,10.21875 C6.53299363,10.21875 5.34375,9.02950637 5.34375,7.5625 L5,7.5625 Z M6.21875,8.09375 L6.09375,8.15625 C6.03125,8.21875 6.03125,8.34375 6.125,8.40625 C6.59375,8.84375 7.1875,9.09375 7.8125,9.15625 L7.8125,9.6875 L8.1875,9.6875 L8.1875,9.15625 C8.8125,9.09375 9.40625,8.84375 9.875,8.40625 C9.96875,8.34375 9.96875,8.21875 9.90625,8.15625 C9.84375,8.09375 9.71875,8.09375 9.65625,8.15625 C9.2067469,8.57614497 8.61511063,8.81056688 8,8.8125 C7.40625,8.8125 6.8125,8.5625 6.34375,8.15625 L6.21875,8.09375 Z" id="Shape" fill="#496E2D"></path>
                    <path d="M8,9.875 C7.5625,9.875 7.125,9.71875 6.75,9.46875 L6.9375,9.1875 C7.5625,9.59375 8.4375,9.59375 9.0625,9.1875 L9.28125,9.46875 C8.90625,9.71875 8.46875,9.875 8,9.875 Z" id="Path" fill="#338AF3"></path>
                    <path d="M8,5.4375 C8.6875,5.78125 8.375,6.46875 8.34375,6.5 L8.28125,6.375 C8.125,6.03125 7.71875,5.8125 7.3125,5.8125 L7.3125,6.15625 C7.5,6.15625 7.65625,6.3125 7.65625,6.5 C7.4375,6.71875 7.375,7.03125 7.53125,7.3125 L7.65625,7.5625 L7.25,8.28125 L8.15625,8.0625 L8.71875,8.625 L8.71875,8.28125 L9.0625,8.625 L9.78125,8.28125 L8.6875,7.625 L8.53125,6.96875 L9.40625,7.46875 C9.53125,7.8125 9.78125,8.125 10.125,8.28125 C10.40625,5.6875 8.8125,5.4375 8.21875,5.4375 L8,5.4375 Z" id="Path" fill="#751A46"></path>
                    <path d="M6.9375,8.46875 C6.46875,8.46875 5.90625,8.09375 5.75,7.21875 L6.09375,7.15625 C6.21875,7.875 6.65625,8.125 6.9375,8.125 C7.03125,8.125 7.09375,8.09375 7.125,8.03125 C7.125,7.96875 7.125,7.9375 6.9375,7.875 C6.84375,7.84375 6.71875,7.8125 6.625,7.71875 C6.3125,7.34375 6.75,6.96875 6.96875,6.78125 C7,6.75 7.03125,6.71875 7,6.6875 C7,6.6875 6.9375,6.625 6.84375,6.625 C6.625,6.625 6.46875,6.5 6.40625,6.28125 C6.34375,6.09375 6.46875,5.875 6.65625,5.75 L6.8125,6.09375 C6.75,6.09375 6.75,6.15625 6.75,6.21875 C6.75,6.21875 6.78125,6.28125 6.84375,6.28125 C7.0625,6.28125 7.28125,6.40625 7.34375,6.5625 C7.375,6.65625 7.40625,6.84375 7.1875,7.03125 C6.96875,7.25 6.84375,7.40625 6.90625,7.5 L7.0625,7.53125 C7.21875,7.59375 7.5,7.6875 7.46875,8.0625 C7.4375,8.3125 7.21875,8.46875 6.9375,8.46875 L6.90625,8.46875 L6.9375,8.46875 Z" id="Path" fill="#6DA544"></path>
                    <path d="M7.3125,5.8125 L6.9375,6.15625 L6.9375,6.5 L7.5,6.21875 C7.59375,6.1875 7.59375,6.0625 7.53125,6 L7.3125,5.8125 Z" id="Path" fill="#FFDA44"></path>
                    <circle id="Oval" fill="#FFDA44" cx="5.375" cy="8.59375" r="1"></circle>
                    <circle id="Oval" fill="#FFDA44" cx="5.90625" cy="9.4375" r="1"></circle>
                    <circle id="Oval" fill="#FFDA44" cx="6.75" cy="10.09375" r="1"></circle>
                    <circle id="Oval" fill="#FFDA44" cx="9.28125" cy="10.09375" r="1"></circle>
                    <circle id="Oval" fill="#FFDA44" cx="10.125" cy="9.4375" r="1"></circle>
                    <circle id="Oval" fill="#FFDA44" cx="10.65625" cy="8.59375" r="1"></circle>
                    <rect id="Rectangle" fill="#FF9811" x="7.46875" y="9.34375" width="1.0625" height="1" rx="0.5"></rect>
                </g>
            </g>
        </g>
    </g>
</svg>