<?xml version="1.0" encoding="UTF-8"?>
<svg width="16px" height="16px" viewBox="0 0 16 16" version="1.1" xmlns="http://www.w3.org/2000/svg" xmlns:xlink="http://www.w3.org/1999/xlink">
    <title>nato_flag_16px</title>
    <defs>
        <circle id="path-1" cx="8" cy="8" r="8"></circle>
    </defs>
    <g id="Design-System" stroke="none" stroke-width="1" fill="none" fill-rule="evenodd">
        <g id="Flags-16x16" transform="translate(-151.000000, -1155.000000)">
            <g id="flag" transform="translate(151.000000, 1155.000000)">
                <mask id="mask-2" fill="white">
                    <use xlink:href="#path-1"></use>
                </mask>
                <use id="Mask" fill="#D8D8D8" xlink:href="#path-1"></use>
                <g id="nato" mask="url(#mask-2)" fill-rule="nonzero">
                    <polygon id="Path" fill="#0052B4" points="0 0 16 0 16 16 0 16"></polygon>
                    <path d="M11.434375,8.559375 L12.871875,8 L11.434375,7.440625 L10.64375,7.134375 L9.3625,6.634375 L8.8625,5.353125 C9.70543382,5.63030693 10.3665681,6.29144118 10.64375,7.134375 L11.434375,7.440625 C11.1879986,5.96683915 10.0331609,4.81200138 8.559375,4.565625 L8,3.128125 L7.440625,4.565625 C5.96683915,4.81200138 4.81200138,5.96683915 4.565625,7.440625 L3.128125,8 L4.565625,8.559375 C4.81200138,10.0331609 5.96683915,11.1879986 7.440625,11.434375 L8,12.871875 L8.559375,11.434375 C10.0331609,11.1879986 11.1879986,10.0331609 11.434375,8.559375 L11.434375,8.559375 Z M8.825,7.175 L8,8 L10.95,8 L8.825,8.825 L8,8 L8,10.95 L7.175,8.825 L8,8 L5.05,8 L7.175,7.175 L8,8 L8,5.05 L8.825,7.175 Z M7.1375,5.35625 L6.6375,6.6375 L5.35625,7.1375 C5.63343193,6.29456618 6.29456618,5.63343193 7.1375,5.35625 Z M5.35625,8.865625 L6.6375,9.365625 L7.1375,10.646875 C6.29456618,10.3696931 5.63343193,9.70855882 5.35625,8.865625 L5.35625,8.865625 Z M8.865625,10.646875 L9.365625,9.365625 L10.646875,8.865625 C10.3696931,9.70855882 9.70855882,10.3696931 8.865625,10.646875 Z" id="Shape" fill="#EEEEEE"></path>
                    <path d="M10.95,8 L8,8 L8.825,8.825 L10.95,8 Z M5.05,8 L8,8 L7.175,7.175 L5.05,8 Z M8,10.95 L8,8 L7.175,8.825 L8,10.95 Z M8,8 L8.825,7.175 L8,5.05 L8,8 Z" id="Shape" fill="#0052B4"></path>
                    <path d="M7.653125,1.04375 L8.34375,1.04375 L8.34375,2.434375 L7.65625,2.434375 L7.653125,1.04375 Z M1.04375,7.653125 L2.434375,7.653125 L2.434375,8.34375 L1.04375,8.34375 L1.04375,7.653125 Z M7.653125,13.5625 L8.34375,13.5625 L8.34375,14.953125 L7.65625,14.953125 L7.653125,13.5625 Z M13.5625,7.653125 L14.953125,7.653125 L14.953125,8.34375 L13.5625,8.34375 L13.5625,7.653125 Z" id="Shape" fill="#EEEEEE"></path>
                </g>
            </g>
        </g>
    </g>
</svg>