<?xml version="1.0" encoding="UTF-8"?>
<svg width="16px" height="16px" viewBox="0 0 16 16" version="1.1" xmlns="http://www.w3.org/2000/svg" xmlns:xlink="http://www.w3.org/1999/xlink">
    <title>nc_flag_16px</title>
    <defs>
        <circle id="path-1" cx="8" cy="8" r="8"></circle>
    </defs>
    <g id="Design-System" stroke="none" stroke-width="1" fill="none" fill-rule="evenodd">
        <g id="Flags-16x16" transform="translate(-201.000000, -1155.000000)">
            <g id="flag" transform="translate(201.000000, 1155.000000)">
                <mask id="mask-2" fill="white">
                    <use xlink:href="#path-1"></use>
                </mask>
                <use id="Mask" fill="#D8D8D8" xlink:href="#path-1"></use>
                <g id="nc" mask="url(#mask-2)" fill-rule="nonzero">
                    <polygon id="Path" fill="#496E2D" points="0 11 16 11 16 16 0 16"></polygon>
                    <polygon id="Path" fill="#D80027" points="0 5 16 5 16 11 0 11"></polygon>
                    <polygon id="Path" fill="#0052B4" points="0 0 16 0 16 5 0 5"></polygon>
                    <path d="M12.4375,8 C12.4375,10.8994949 10.0869949,13.25 7.1875,13.25 C4.28800506,13.25 1.9375,10.8994949 1.9375,8 C1.9375,5.10050506 4.28800506,2.75 7.1875,2.75 C10.0869949,2.75 12.4375,5.10050506 12.4375,8 Z" id="Path" fill="#FFDA44"></path>
                    <path d="M7.1875,2.5 C4.14993388,2.5 1.6875,4.96243388 1.6875,8 C1.6875,11.0375661 4.14993388,13.5 7.1875,13.5 C10.2250661,13.5 12.6875,11.0375661 12.6875,8 C12.6875,4.96243388 10.2250661,2.5 7.1875,2.5 Z M6.9375,3 L6.9375,4.0625 C6.6875,4.1875 6.5,4.3125 6.46875,4.5625 L6.4375,5.0625 L6.625,4.96875 L6.9375,4.84375 L6.9375,5.09375 C6.63377056,5.20109114 6.43251266,5.49039937 6.4375,5.8125 C6.44566089,6.1231151 6.64451034,6.39653309 6.9375,6.5 L6.9375,6.75 L6.3125,6.75 L6.3125,7.25 L6.9375,7.25 L6.9375,7.5 C6.64451034,7.60346691 6.44566089,7.8768849 6.4375,8.1875 C6.43251266,8.50960063 6.63377056,8.79890886 6.9375,8.90625 L6.9375,9.125 L6.3125,9.125 L6.3125,9.65625 L6.9375,9.65625 L6.9375,9.875 C6.63377056,9.98234114 6.43251266,10.2716494 6.4375,10.59375 C6.44566089,10.9043651 6.64451034,11.1777831 6.9375,11.28125 L6.9375,11.53125 C6.625,11.53125 6.375,11.625 6.21875,11.75 C6,11.90625 5.53125,12.375 5.28125,12.625 C3.1073363,11.7391405 1.84240784,9.46022786 2.24050578,7.14675302 C2.63860372,4.83327819 4.59252067,3.10825775 6.9375,3 L6.9375,3 Z M7.4375,3 C9.80099371,3.10227497 11.769352,4.84697104 12.1545963,7.18109818 C12.5398406,9.51522533 11.2365251,11.7999064 9.03125,12.65625 L8.09375,11.75 C7.9375,11.625 7.71875,11.5625 7.4375,11.53125 L7.4375,11.28125 C7.73048966,11.1777831 7.92933911,10.9043651 7.9375,10.59375 C7.94248734,10.2716494 7.74122944,9.98234114 7.4375,9.875 L7.4375,9.65625 L8.09375,9.65625 L8.09375,9.15625 L7.4375,9.15625 L7.4375,8.90625 C7.74122944,8.79890886 7.94248734,8.50960063 7.9375,8.1875 C7.92933911,7.8768849 7.73048966,7.60346691 7.4375,7.5 L7.4375,7.25 L8.09375,7.25 L8.09375,6.75 L7.4375,6.75 L7.4375,6.53125 C7.74122944,6.42390886 7.94248734,6.13460063 7.9375,5.8125 C7.94248734,5.49039937 7.74122944,5.20109114 7.4375,5.09375 L7.4375,4.46875 C7.625,4.3125 7.78125,4.0625 7.96875,3.75 C8.09375,3.5 8.03125,3.40625 8.03125,3.40625 L7.96875,3.5 L7.4375,3.84375 L7.4375,3 L7.4375,3 Z" id="Shape" fill="#333333"></path>
                </g>
            </g>
        </g>
    </g>
</svg>