<?xml version="1.0" encoding="UTF-8"?>
<svg width="16px" height="16px" viewBox="0 0 16 16" version="1.1" xmlns="http://www.w3.org/2000/svg" xmlns:xlink="http://www.w3.org/1999/xlink">
    <title>ni_flag_16px</title>
    <defs>
        <circle id="path-1" cx="8" cy="8" r="8"></circle>
    </defs>
    <g id="Design-System" stroke="none" stroke-width="1" fill="none" fill-rule="evenodd">
        <g id="Flags-16x16" transform="translate(-401.000000, -1155.000000)">
            <g id="flag" transform="translate(401.000000, 1155.000000)">
                <mask id="mask-2" fill="white">
                    <use xlink:href="#path-1"></use>
                </mask>
                <use id="Mask" fill="#D8D8D8" xlink:href="#path-1"></use>
                <g id="ni" mask="url(#mask-2)" fill-rule="nonzero">
                    <polygon id="Path" fill="#338AF3" points="0 0 16 0 16 4.521875 14.70625 8.0125 16 11.478125 16 16 0 16 0 11.478125 1.296875 8.10625 0 4.521875"></polygon>
                    <polygon id="Path" fill="#EEEEEE" points="0 4.521875 16 4.521875 16 11.478125 0 11.478125"></polygon>
                    <path d="M8,5.5625 C6.65380592,5.5625 5.5625,6.65380592 5.5625,8 C5.5625,9.34619408 6.65380592,10.4375 8,10.4375 C9.34619408,10.4375 10.4375,9.34619408 10.4375,8 C10.4375,6.65380592 9.34619408,5.5625 8,5.5625 Z M8,9.390625 C7.23197902,9.390625 6.609375,8.76802098 6.609375,8 C6.609375,7.23197902 7.23197902,6.609375 8,6.609375 C8.76802098,6.609375 9.390625,7.23197902 9.390625,8 C9.390625,8.76802098 8.76802098,9.390625 8,9.390625 Z" id="Shape" fill="#FFDA44"></path>
                    <polygon id="Path" fill="#0052B4" points="9.20625 8.346875 8 8 6.79375 8.346875 6.39375 9.04375 9.60625 9.04375"></polygon>
                    <polygon id="Path" fill="#338AF3" points="8 6.259375 7.196875 7.65625 8 8 8.803125 7.653125"></polygon>
                    <polygon id="Path" fill="#6DA544" points="6.79375 8.346875 9.20625 8.346875 8.803125 7.65625 7.196875 7.65625"></polygon>
                </g>
            </g>
        </g>
    </g>
</svg>