<?xml version="1.0" encoding="UTF-8"?>
<svg width="16px" height="16px" viewBox="0 0 16 16" version="1.1" xmlns="http://www.w3.org/2000/svg" xmlns:xlink="http://www.w3.org/1999/xlink">
    <title>np_flag_16px</title>
    <defs>
        <circle id="path-1" cx="8" cy="8" r="8"></circle>
    </defs>
    <g id="Design-System" stroke="none" stroke-width="1" fill="none" fill-rule="evenodd">
        <g id="Flags-16x16" transform="translate(-151.000000, -1205.000000)">
            <g id="flag" transform="translate(151.000000, 1205.000000)">
                <mask id="mask-2" fill="white">
                    <use xlink:href="#path-1"></use>
                </mask>
                <use id="Mask" fill="#D8D8D8" xlink:href="#path-1"></use>
                <g id="np" mask="url(#mask-2)" fill-rule="nonzero">
                    <polygon id="Path" fill="#EEEEEE" points="7.1375 0 16 0 16 16 15.14375 16 4.98125 8.078125"></polygon>
                    <polygon id="Path" fill="#0052B4" points="15.953125 8.86875 7.140625 0 5.9125 0 3.696875 7.93125 13.9125 16 15.14375 16 8.0125 8.86875 15.95 8.86875"></polygon>
                    <polygon id="Path" fill="#D80027" points="13.9125 8 5.9125 0 0 0 0 16 13.9125 16 5.9125 8"></polygon>
                    <path d="M7.609375,11.8125 L6.63125,11.353125 L7.15625,10.40625 L6.09375,10.609375 L5.959375,9.5375 L5.221875,10.325 L4.48125,9.5375 L4.346875,10.609375 L3.284375,10.40625 L3.80625,11.353125 L2.825,11.8125 L3.803125,12.271875 L3.284375,13.21875 L4.346875,13.015625 L4.478125,14.0875 L5.21875,13.3 L5.95625,14.0875 L6.090625,13.015625 L7.153125,13.21875 L6.63125,12.271875 L7.609375,11.8125 Z M4.68125,2.78125 L4.58125,3.5625 L3.809375,3.415625 L4.1875,4.103125 L3.478125,4.4375 L3.13125,4.4375 C3.17463307,5.55813614 4.09571193,6.44424732 5.2171875,6.44424732 C6.33866307,6.44424732 7.25974193,5.55813614 7.303125,4.4375 L6.95625,4.4375 L6.25,4.103125 L6.625,3.415625 L5.85625,3.5625 L5.759375,2.78125 L5.221875,3.35625 L4.68125,2.78125 Z" id="Shape" fill="#EEEEEE"></path>
                </g>
            </g>
        </g>
    </g>
</svg>