<?xml version="1.0" encoding="UTF-8"?>
<svg width="16px" height="16px" viewBox="0 0 16 16" version="1.1" xmlns="http://www.w3.org/2000/svg" xmlns:xlink="http://www.w3.org/1999/xlink">
    <title>olympics_16px</title>
    <defs>
        <circle id="path-1" cx="8" cy="8" r="8"></circle>
    </defs>
    <g id="Design-System" stroke="none" stroke-width="1" fill="none" fill-rule="evenodd">
        <g id="Flags-16x16" transform="translate(-401.000000, -1205.000000)">
            <g id="flag" transform="translate(401.000000, 1205.000000)">
                <mask id="mask-2" fill="white">
                    <use xlink:href="#path-1"></use>
                </mask>
                <use id="Mask" fill="#D8D8D8" xlink:href="#path-1"></use>
                <g id="olympics" mask="url(#mask-2)" fill-rule="nonzero">
                    <polygon id="Path" fill="#EEEEEE" points="0 0 16 0 16 16 0 16"></polygon>
                    <path d="M3.425,4.784375 C2.19068784,4.78780843 1.19093343,5.78756284 1.1875,7.021875 C1.19093343,8.25618716 2.19068784,9.25594157 3.425,9.259375 C4.65931216,9.25594157 5.65906657,8.25618716 5.6625,7.021875 C5.65906657,5.78756284 4.65931216,4.78780843 3.425,4.784375 L3.425,4.784375 Z M3.425,5.409375 C4.31875,5.409375 5.0375,6.128125 5.0375,7.021875 C5.0375,7.915625 4.31875,8.634375 3.425,8.634375 C2.53125,8.634375 1.8125,7.915625 1.8125,7.021875 C1.8125,6.128125 2.53125,5.409375 3.425,5.409375 L3.425,5.409375 Z" id="Shape" fill="#338AF3"></path>
                    <path d="M8,4.784375 C6.76568784,4.78780843 5.76593343,5.78756284 5.7625,7.021875 C5.76593343,8.25618716 6.76568784,9.25594157 8,9.259375 C9.23431216,9.25594157 10.2340666,8.25618716 10.2375,7.021875 C10.2340666,5.78756284 9.23431216,4.78780843 8,4.784375 L8,4.784375 Z M8,5.409375 C8.89375,5.409375 9.6125,6.128125 9.6125,7.021875 C9.6125,7.915625 8.89375,8.634375 8,8.634375 C7.10625,8.634375 6.3875,7.915625 6.3875,7.021875 C6.3875,6.128125 7.10625,5.409375 8,5.409375 L8,5.409375 Z" id="Shape" fill="#333333"></path>
                    <path d="M12.575,4.784375 C11.3406878,4.78780843 10.3409334,5.78756284 10.3375,7.021875 C10.3409334,8.25618716 11.3406878,9.25594157 12.575,9.259375 C13.8093122,9.25594157 14.8090666,8.25618716 14.8125,7.021875 C14.8090666,5.78756284 13.8093122,4.78780843 12.575,4.784375 L12.575,4.784375 Z M12.575,5.409375 C13.46875,5.409375 14.1875,6.128125 14.1875,7.021875 C14.1875,7.915625 13.46875,8.634375 12.575,8.634375 C11.68125,8.634375 10.9625,7.915625 10.9625,7.021875 C10.9625,6.128125 11.68125,5.409375 12.575,5.409375 L12.575,5.409375 Z" id="Shape" fill="#D80027"></path>
                    <path d="M5.7125,6.740625 C4.47818784,6.74405843 3.47843343,7.74381284 3.475,8.978125 C3.47843343,10.2124372 4.47818784,11.2121916 5.7125,11.215625 C6.94681216,11.2121916 7.94656657,10.2124372 7.95,8.978125 C7.94656657,7.74381284 6.94681216,6.74405843 5.7125,6.740625 L5.7125,6.740625 Z M5.7125,7.365625 C6.60625,7.365625 7.325,8.084375 7.325,8.978125 C7.325,9.871875 6.60625,10.590625 5.7125,10.590625 C4.81875,10.590625 4.1,9.871875 4.1,8.978125 C4.1,8.084375 4.81875,7.365625 5.7125,7.365625 L5.7125,7.365625 Z" id="Shape" fill="#FFDA44"></path>
                    <path d="M10.2875,6.740625 C9.05318784,6.74405843 8.05343343,7.74381284 8.05,8.978125 C8.05343343,10.2124372 9.05318784,11.2121916 10.2875,11.215625 C11.5218122,11.2121916 12.5215666,10.2124372 12.525,8.978125 C12.5215666,7.74381284 11.5218122,6.74405843 10.2875,6.740625 L10.2875,6.740625 Z M10.2875,7.365625 C11.18125,7.365625 11.9,8.084375 11.9,8.978125 C11.9,9.871875 11.18125,10.590625 10.2875,10.590625 C9.39375,10.590625 8.675,9.871875 8.675,8.978125 C8.675,8.084375 9.39375,7.365625 10.2875,7.365625 L10.2875,7.365625 Z" id="Shape" fill="#6DA544"></path>
                    <path d="M5.215625,5.678125 L4.715625,6.053125 C5.14635614,6.62598284 5.14635614,7.41464216 4.715625,7.9875 L5.215625,8.3625 C5.81197922,7.56707179 5.81197922,6.47355321 5.215625,5.678125 L5.215625,5.678125 Z" id="Path" fill="#338AF3"></path>
                    <path d="M9.790625,5.678125 L9.290625,6.053125 C9.72135614,6.62598284 9.72135614,7.41464216 9.290625,7.9875 L9.790625,8.3625 C10.3869792,7.56707179 10.3869792,6.47355321 9.790625,5.678125 L9.790625,5.678125 Z M7.03125,8.3125 L6.65625,8.8125 C7.04407884,9.10280834 7.51555176,9.2596005 8,9.25937524 L8,8.634375 C7.65071032,8.63505236 7.31068162,8.52207508 7.03125,8.3125 Z" id="Shape" fill="#333333"></path>
                    <path d="M11.60625,8.3125 L11.23125,8.8125 C11.6190788,9.10280834 12.0905518,9.2596005 12.575,9.25937524 L12.575,8.634375 C12.2257103,8.63505236 11.8856816,8.52207508 11.60625,8.3125 Z" id="Path" fill="#D80027"></path>
                </g>
            </g>
        </g>
    </g>
</svg>