<?xml version="1.0" encoding="UTF-8"?>
<svg width="16px" height="16px" viewBox="0 0 16 16" version="1.1" xmlns="http://www.w3.org/2000/svg" xmlns:xlink="http://www.w3.org/1999/xlink">
    <title>pa_flag_16px</title>
    <defs>
        <circle id="path-1" cx="8" cy="8" r="8"></circle>
    </defs>
    <g id="Design-System" stroke="none" stroke-width="1" fill="none" fill-rule="evenodd">
        <g id="Flags-16x16" transform="translate(-51.000000, -1255.000000)">
            <g id="flag" transform="translate(51.000000, 1255.000000)">
                <mask id="mask-2" fill="white">
                    <use xlink:href="#path-1"></use>
                </mask>
                <use id="Mask" fill="#D8D8D8" xlink:href="#path-1"></use>
                <g id="pa" mask="url(#mask-2)" fill-rule="nonzero">
                    <polygon id="Path" fill="#EEEEEE" points="0 0 8 0 16 8 16 16 8 16 0 8"></polygon>
                    <polygon id="Path" fill="#0052B4" points="0 8 0 16 8 16 8 8"></polygon>
                    <polygon id="Path" fill="#D80027" points="8 0 16 0 16 8 8 8"></polygon>
                    <polygon id="Path" fill="#0052B4" points="4.7625 2.78125 5.28125 4.375 6.95625 4.375 5.6 5.3625 6.11875 6.95625 4.7625 5.971875 3.40625 6.95625 3.925 5.3625 2.56875 4.375 4.24375 4.375"></polygon>
                    <polygon id="Path" fill="#D80027" points="11.2375 9.04375 11.75625 10.6375 13.43125 10.6375 12.075 11.625 12.59375 13.21875 11.2375 12.234375 9.88125 13.221875 10.4 11.628125 9.04375 10.640625 10.71875 10.640625"></polygon>
                </g>
            </g>
        </g>
    </g>
</svg>