<?xml version="1.0" encoding="UTF-8"?>
<svg width="16px" height="16px" viewBox="0 0 16 16" version="1.1" xmlns="http://www.w3.org/2000/svg" xmlns:xlink="http://www.w3.org/1999/xlink">
    <title>pk_jk_flag_16px</title>
    <defs>
        <circle id="path-1" cx="8" cy="8" r="8"></circle>
    </defs>
    <g id="Design-System" stroke="none" stroke-width="1" fill="none" fill-rule="evenodd">
        <g id="Flags-16x16" transform="translate(-351.000000, -1255.000000)">
            <g id="flag" transform="translate(351.000000, 1255.000000)">
                <mask id="mask-2" fill="white">
                    <use xlink:href="#path-1"></use>
                </mask>
                <use id="Mask" fill="#D8D8D8" xlink:href="#path-1"></use>
                <g id="pk-jk" mask="url(#mask-2)" fill-rule="nonzero">
                    <polygon id="Path" fill="#FF9811" points="0 0 7 0 8 2.75 7 5.5 4 6.5 0 5.5"></polygon>
                    <polygon id="Path" fill="#EEEEEE" points="0 7 8 6 16 7 16 8.5 15 9.25 16 10 16 11.5 15 12.25 16 13 16 14.5 8 15.5 0 14.5 0 13 1 12.25 0 11.5 0 10 1 9.25 0 8.5"></polygon>
                    <path d="M7,0 L7,5.5 L0,5.5 L0,7 L16,7 L16,0 L7,0 Z M0,8.5 L0,10 L16,10 L16,8.5 L0,8.5 Z M0,11.5 L0,13 L16,13 L16,11.5 L0,11.5 Z M0,14.5 L0,16 L16,16 L16,14.5 L0,14.5 Z" id="Shape" fill="#496E2D"></path>
                    <circle id="Oval" fill="#EEEEEE" cx="11.1125" cy="3.44375" r="2.515625"></circle>
                    <circle id="Oval" fill="#496E2D" cx="11.75625" cy="2.871875" r="2.30625"></circle>
                    <polygon id="Path" fill="#EEEEEE" points="11.5625 2.375 13.03125 1.75 12.1875 3.125 12.0625 1.5625 13.125 2.75"></polygon>
                </g>
            </g>
        </g>
    </g>
</svg>