<?xml version="1.0" encoding="UTF-8"?>
<svg width="16px" height="16px" viewBox="0 0 16 16" version="1.1" xmlns="http://www.w3.org/2000/svg" xmlns:xlink="http://www.w3.org/1999/xlink">
    <title>pt-20__flag_16px</title>
    <defs>
        <circle id="path-1" cx="8" cy="8" r="8"></circle>
    </defs>
    <g id="Design-System" stroke="none" stroke-width="1" fill="none" fill-rule="evenodd">
        <g id="Flags-16x16" transform="translate(-251.000000, -1305.000000)">
            <g id="flag" transform="translate(251.000000, 1305.000000)">
                <mask id="mask-2" fill="white">
                    <use xlink:href="#path-1"></use>
                </mask>
                <use id="Mask" fill="#D8D8D8" xlink:href="#path-1"></use>
                <g id="pt-20" mask="url(#mask-2)" fill-rule="nonzero">
                    <polygon id="Path" fill="#0052B4" points="0 16 5.9125 16 7.20625 8 5.9125 0 0 0"></polygon>
                    <polygon id="Path" fill="#EEEEEE" points="5.9125 0 16 0 16 16 5.9125 16"></polygon>
                    <path d="M2.86875,2.78125 L2.86875,4.0875 C2.86875,4.73643458 3.39481542,5.2625 4.04375,5.2625 C4.69268458,5.2625 5.21875,4.73643458 5.21875,4.0875 L5.21875,2.78125 L2.86875,2.78125 Z" id="Path" fill="#D80027"></path>
                    <path d="M4.04375,4.5625 C3.78125,4.5625 3.565625,4.35 3.565625,4.0875 L3.565625,3.478125 L4.521875,3.478125 L4.521875,4.0875 C4.521875,4.35 4.30625,4.565625 4.04375,4.565625 L4.04375,4.5625 Z" id="Path" fill="#EEEEEE"></path>
                    <path d="M8.696875,8.346875 L6.609375,8.346875 C6.58482806,7.98092774 6.28083211,7.69664004 5.9140625,7.69664004 C5.54729289,7.69664004 5.24329694,7.98092774 5.21875,8.346875 L3.13125,8.346875 C3.1430759,8.73526156 3.46143348,9.04393 3.85,9.04375 L3.825,9.04375 C3.825,9.428125 4.1375,9.740625 4.521875,9.740625 C4.521875,10.121875 4.834375,10.434375 5.21875,10.434375 L6.609375,10.434375 C6.99375,10.434375 7.303125,10.121875 7.303125,9.740625 C7.6875,9.740625 8,9.428125 8,9.04375 L7.978125,9.04375 C8.36669152,9.04393 8.6850491,8.73526156 8.696875,8.346875 L8.696875,8.346875 Z M8.98125,7.234375 L8.8,7.528125 L9.01875,7.790625 L8.6875,7.70625 L8.503125,8 L8.478125,7.65625 L8.14375,7.571875 L8.465625,7.44375 L8.440625,7.1 L8.659375,7.3625 L8.98125,7.234375 Z M7.91875,6.340625 L7.84375,6.678125 L8.14375,6.85 L7.8,6.8875 L7.728125,7.221875 L7.5875,6.909375 L7.24375,6.94375 L7.5,6.7125 L7.3625,6.4 L7.659375,6.571875 L7.91875,6.340625 Z M6.60625,5.865625 L6.65625,6.20625 L6.996875,6.26875 L6.684375,6.415625 L6.734375,6.759375 L6.49375,6.509375 L6.184375,6.6625 L6.346875,6.35625 L6.10625,6.10625 L6.446875,6.16875 L6.60625,5.865625 Z M5.21875,5.865625 L5.378125,6.16875 L5.71875,6.10625 L5.478125,6.35625 L5.640625,6.6625 L5.33125,6.509375 L5.090625,6.759375 L5.140625,6.415625 L4.828125,6.265625 L5.171875,6.203125 L5.21875,5.865625 Z M3.90625,6.340625 L4.1625,6.571875 L4.4625,6.4 L4.321875,6.7125 L4.578125,6.94375 L4.234375,6.909375 L4.09375,7.221875 L4.021875,6.8875 L3.678125,6.85 L3.978125,6.678125 L3.90625,6.340625 Z M2.84375,7.234375 L3.1625,7.3625 L3.38125,7.1 L3.359375,7.44375 L3.678125,7.571875 L3.34375,7.65625 L3.31875,8 L3.1375,7.70625 L2.803125,7.790625 L3.021875,7.528125 L2.84375,7.234375 Z" id="Shape" fill="#FFDA44"></path>
                </g>
            </g>
        </g>
    </g>
</svg>