<?xml version="1.0" encoding="UTF-8"?>
<svg width="16px" height="16px" viewBox="0 0 16 16" version="1.1" xmlns="http://www.w3.org/2000/svg" xmlns:xlink="http://www.w3.org/1999/xlink">
    <title>pt-30_flag_16px</title>
    <defs>
        <circle id="path-1" cx="8" cy="8" r="8"></circle>
    </defs>
    <g id="Design-System" stroke="none" stroke-width="1" fill="none" fill-rule="evenodd">
        <g id="Flags-16x16" transform="translate(-301.000000, -1305.000000)">
            <g id="flag" transform="translate(301.000000, 1305.000000)">
                <mask id="mask-2" fill="white">
                    <use xlink:href="#path-1"></use>
                </mask>
                <use id="Mask" fill="#D8D8D8" xlink:href="#path-1"></use>
                <g id="pt-30" mask="url(#mask-2)" fill-rule="nonzero">
                    <polygon id="Path" fill="#0052B4" points="0 0 4.521875 0 7.909375 1.2875 11.478125 0 16 0 16 16 11.478125 16 8.034375 14.70625 4.521875 16 0 16"></polygon>
                    <polygon id="Path" fill="#FFDA44" points="4.521875 0 11.478125 0 11.478125 16 4.521875 16"></polygon>
                    <polygon id="Path" fill="#D80027" points="10.2625 8.696875 10.784375 9.390625 10.784375 6.609375 10.2625 7.303125 8.7 7.303125 8.7 5.740625 9.39375 5.21875 6.6125 5.21875 7.30625 5.740625 7.30625 7.303125 5.74375 7.303125 5.221875 6.609375 5.221875 9.390625 5.74375 8.696875 7.30625 8.696875 7.30625 10.259375 6.6125 10.78125 9.39375 10.78125 8.7 10.259375 8.7 8.696875"></polygon>
                    <polygon id="Path" fill="#EEEEEE" points="10.09375 7.653125 8.34375 7.653125 8.34375 5.9125 7.65625 5.9125 7.65625 7.65625 5.915625 7.65625 5.915625 8.34375 7.65625 8.34375 7.65625 10.084375 8.34375 10.084375 8.34375 8.34375 10.084375 8.34375"></polygon>
                </g>
            </g>
        </g>
    </g>
</svg>