<?xml version="1.0" encoding="UTF-8"?>
<svg width="16px" height="16px" viewBox="0 0 16 16" version="1.1" xmlns="http://www.w3.org/2000/svg" xmlns:xlink="http://www.w3.org/1999/xlink">
    <title>pt_flag_16px</title>
    <defs>
        <circle id="path-1" cx="8" cy="8" r="8"></circle>
    </defs>
    <g id="Design-System" stroke="none" stroke-width="1" fill="none" fill-rule="evenodd">
        <g id="Flags-16x16" transform="translate(-201.000000, -1305.000000)">
            <g id="flag" transform="translate(201.000000, 1305.000000)">
                <mask id="mask-2" fill="white">
                    <use xlink:href="#path-1"></use>
                </mask>
                <use id="Mask" fill="#D8D8D8" xlink:href="#path-1"></use>
                <g id="pt" mask="url(#mask-2)" fill-rule="nonzero">
                    <polygon id="Path" fill="#6DA544" points="0 16 5.21875 16 6.403125 7.865625 5.21875 0 0 0"></polygon>
                    <polygon id="Path" fill="#D80027" points="16 0 5.21875 0 5.21875 16 16 16"></polygon>
                    <circle id="Oval" fill="#FFDA44" cx="5.21875" cy="8" r="2.78125"></circle>
                    <path d="M3.653125,6.609375 L3.653125,8.34375 C3.653125,9.20755787 4.35337963,9.9078125 5.2171875,9.9078125 C6.08099537,9.9078125 6.78125,9.20755787 6.78125,8.34375 L6.78125,6.60625 L3.65625,6.60625 L3.653125,6.609375 Z" id="Path" fill="#D80027"></path>
                    <path d="M5.21875,8.86875 C4.93125,8.86875 4.696875,8.634375 4.696875,8.346875 L4.696875,7.65625 L5.740625,7.65625 L5.740625,8.34375 C5.740625,8.63125 5.50625,8.865625 5.21875,8.865625 L5.21875,8.86875 Z" id="Path" fill="#EEEEEE"></path>
                </g>
            </g>
        </g>
    </g>
</svg>