<?xml version="1.0" encoding="UTF-8"?>
<svg width="16px" height="16px" viewBox="0 0 16 16" version="1.1" xmlns="http://www.w3.org/2000/svg" xmlns:xlink="http://www.w3.org/1999/xlink">
    <title>quechua_flag_16px</title>
    <defs>
        <circle id="path-1" cx="8" cy="8" r="8"></circle>
    </defs>
    <g id="Design-System" stroke="none" stroke-width="1" fill="none" fill-rule="evenodd">
        <g id="Flags-16x16" transform="translate(-501.000000, -1305.000000)">
            <g id="flag" transform="translate(501.000000, 1305.000000)">
                <mask id="mask-2" fill="white">
                    <use xlink:href="#path-1"></use>
                </mask>
                <use id="Mask" fill="#D8D8D8" xlink:href="#path-1"></use>
                <g id="quechua" mask="url(#mask-2)" fill-rule="nonzero">
                    <polygon id="Path" fill="#4A1F63" points="0 16 16 16 16 13.8125 8 12.8125 0 13.8125"></polygon>
                    <polygon id="Path" fill="#0052B4" points="0 13.8125 16 13.8125 16 11.625 8 10.625 0 11.625"></polygon>
                    <polygon id="Path" fill="#D80027" points="0 0 16 0 16 2.1875 8 3.1875 0 2.1875"></polygon>
                    <polygon id="Path" fill="#FFDA44" points="0 2.1875 16 2.1875 16 4.375 8 5.375 0 4.375"></polygon>
                    <polygon id="Path" fill="#EEEEEE" points="0 4.375 16 4.375 16 6.5625 15 8 16 9.4375 16 11.625 0 11.625 0 9.4375 1 8 0 6.5625"></polygon>
                    <polygon id="Path" fill="#496E2D" points="0 6.5625 16 6.5625 16 9.4375 0 9.4375"></polygon>
                </g>
            </g>
        </g>
    </g>
</svg>