<?xml version="1.0" encoding="UTF-8"?>
<svg width="16px" height="16px" viewBox="0 0 16 16" version="1.1" xmlns="http://www.w3.org/2000/svg" xmlns:xlink="http://www.w3.org/1999/xlink">
    <title>rs_flag_16px</title>
    <defs>
        <circle id="path-1" cx="8" cy="8" r="8"></circle>
    </defs>
    <g id="Design-System" stroke="none" stroke-width="1" fill="none" fill-rule="evenodd">
        <g id="Flags-16x16" transform="translate(-151.000000, -1355.000000)">
            <g id="flag" transform="translate(151.000000, 1355.000000)">
                <mask id="mask-2" fill="white">
                    <use xlink:href="#path-1"></use>
                </mask>
                <use id="Mask" fill="#D8D8D8" xlink:href="#path-1"></use>
                <g id="rs" mask="url(#mask-2)" fill-rule="nonzero">
                    <polygon id="Path" fill="#0052B4" points="0 5.21875 7.93125 4.615625 16 5.21875 16 10.78125 8.034375 11.790625 0 10.78125"></polygon>
                    <polygon id="Path" fill="#D80027" points="0 0 16 0 16 5.21875 0 5.21875"></polygon>
                    <polygon id="Path" fill="#EEEEEE" points="0 10.78125 16 10.78125 16 16 0 16"></polygon>
                    <path d="M2.06875,4.521875 L2.06875,8.5125 C2.06875,10.78125 5.034375,11.48125 5.034375,11.48125 C5.034375,11.48125 8,10.78125 8,8.5125 L8,4.521875 L2.06875,4.521875 Z" id="Path" fill="#D80027"></path>
                    <path d="M3.29375,5.21875 L6.775,5.21875 L6.775,3.825 L6.078125,4.175 L5.034375,3.13125 L3.990625,4.175 L3.29375,3.825 L3.29375,5.21875 Z M7.303125,9.06875 L5.04375,6.80625 L2.78125,9.06875 L3.521875,9.80625 L5.04375,8.284375 L6.565625,9.80625 L7.303125,9.06875 Z" id="Shape" fill="#FFDA44"></path>
                    <path d="M7.303125,6.95625 L6.25,6.95625 C6.31130836,6.85092215 6.34365313,6.7312465 6.34375,6.609375 C6.34447154,6.28901715 6.12668733,6.00943576 5.81589378,5.93173737 C5.50510023,5.85403899 5.18136998,5.99824176 5.03125,6.28125 C4.87956304,6.00170255 4.55785087,5.86032467 4.24934055,5.93763633 C3.94083023,6.01494799 3.72380755,6.29133102 3.721875,6.609375 C3.72197187,6.7312465 3.75431664,6.85092215 3.815625,6.95625 L2.78125,6.95625 C2.7930759,7.34463656 3.11143348,7.653305 3.5,7.653125 L3.478125,7.653125 C3.478125,8.0375 3.790625,8.346875 4.175,8.346875 C4.175,8.690625 4.41875,8.971875 4.740625,9.03125 L4.19375,10.26875 C4.4637085,10.3784006 4.75237263,10.4346477 5.04375,10.434376 C5.33512737,10.4346477 5.6237915,10.3784006 5.89375,10.26875 L5.346875,9.03125 C5.66875,8.96875 5.9125,8.6875 5.9125,8.346875 C6.296875,8.346875 6.609375,8.034375 6.609375,7.653125 L6.584375,7.653125 C6.97294152,7.653305 7.2912991,7.34463656 7.303125,6.95625 Z" id="Path" fill="#EEEEEE"></path>
                </g>
            </g>
        </g>
    </g>
</svg>