<?xml version="1.0" encoding="UTF-8"?>
<svg width="16px" height="16px" viewBox="0 0 16 16" version="1.1" xmlns="http://www.w3.org/2000/svg" xmlns:xlink="http://www.w3.org/1999/xlink">
    <title>ru-cu_flag_16px</title>
    <defs>
        <circle id="path-1" cx="8" cy="8" r="8"></circle>
    </defs>
    <g id="Design-System" stroke="none" stroke-width="1" fill="none" fill-rule="evenodd">
        <g id="Flags-16x16" transform="translate(-351.000000, -1355.000000)">
            <g id="flag" transform="translate(351.000000, 1355.000000)">
                <mask id="mask-2" fill="white">
                    <use xlink:href="#path-1"></use>
                </mask>
                <use id="Mask" fill="#D8D8D8" xlink:href="#path-1"></use>
                <g id="ru-cu" mask="url(#mask-2)" fill-rule="nonzero">
                    <polygon id="Path" fill="#FFDA44" points="0 0 16 0 16 12.03125 8 14.03125 0 12.03125"></polygon>
                    <path d="M11.71875,3.03125 L12.4375,2.28125 L12.4375,3.03125 L13.15625,3.03125 L12.4375,3.75 L13.15625,4.46875 L12.4375,4.46875 L12.4375,5.1875 L11.71875,4.46875 L10.96875,5.1875 L10.96875,4.46875 L10.28125,4.46875 L10.96875,3.75 L10.28125,3.03125 L10.96875,3.03125 L10.96875,2.28125 L11.71875,3.03125 Z M4.28125,3.03125 L5,2.28125 L5,3.03125 L5.75,3.03125 L5,3.75 L5.75,4.46875 L5,4.46875 L5,5.1875 L4.28125,4.46875 L3.5625,5.1875 L3.5625,4.46875 L2.84375,4.46875 L3.5625,3.75 L2.84375,3.03125 L3.5625,3.03125 L3.5625,2.28125 L4.28125,3.03125 Z M8,1.46875 L8.71875,0.75 L8.71875,1.46875 L9.4375,1.46875 L8.71875,2.1875 L9.4375,2.9375 L8.71875,2.9375 L8.71875,3.65625 L8,2.9375 L7.28125,3.65625 L7.28125,2.9375 L6.5625,2.9375 L7.28125,2.1875 L6.5625,1.46875 L7.28125,1.46875 L7.28125,0.75 L8,1.46875 Z" id="Shape" fill="#A2001D"></path>
                    <polygon id="Path" fill="#A2001D" points="6.8125 3.21875 5.71875 4.3125 5.71875 5.1875 4.84375 5.1875 3.75 6.28125 4.65625 7.1875 5.28125 7.1875 5.28125 8.375 5.8125 8.90625 6.8125 7.90625 7.15625 8.25 7.15625 12.03125 0 12.03125 0 16 16 16 16 12.03125 8.8125 12.03125 8.8125 8.25 9.15625 7.90625 10.15625 8.90625 10.6875 8.375 10.6875 7.1875 11.34375 7.1875 12.25 6.28125 11.15625 5.1875 10.25 5.21875 10.25 4.3125 9.1875 3.21875 8.28125 4.125 8.28125 4.84375 9.09375 5.65625 8 6.75 6.90625 5.65625 7.71875 4.84375 7.71875 4.125"></polygon>
                </g>
            </g>
        </g>
    </g>
</svg>