<?xml version="1.0" encoding="UTF-8"?>
<svg width="16px" height="16px" viewBox="0 0 16 16" version="1.1" xmlns="http://www.w3.org/2000/svg" xmlns:xlink="http://www.w3.org/1999/xlink">
    <title>sh-ta_flag_16px</title>
    <defs>
        <circle id="path-1" cx="8" cy="8" r="8"></circle>
    </defs>
    <g id="Design-System" stroke="none" stroke-width="1" fill="none" fill-rule="evenodd">
        <g id="Flags-16x16" transform="translate(-101.000000, -1455.000000)">
            <g id="flag" transform="translate(101.000000, 1455.000000)">
                <mask id="mask-2" fill="white">
                    <use xlink:href="#path-1"></use>
                </mask>
                <use id="Mask" fill="#D8D8D8" xlink:href="#path-1"></use>
                <g id="sh-ta" mask="url(#mask-2)" fill-rule="nonzero">
                    <polygon id="Path" fill="#0052B4" points="8 0 16 0 16 16 0 16 0 8"></polygon>
                    <polygon id="Path" fill="#EEEEEE" points="0 0 0 1 1 2 0 3 0 8 1 8 2 7 3 8 4 8 4 5.40625 6.59375 8 8 8 7.75 7.5 8 7.03125 8 6.59375 5.40625 4 8 4 8 3 7 2 8 1 8 0 3 0 2 1 1 0"></polygon>
                    <path d="M1,0 L1,1 L0,1 L0,3 L1,3 L1,8 L3,8 L3,3 L8,3 L8,1 L3,1 L3,0 L1,0 Z M4,4 L8,8 L8,7.03125 L4.96875,4 L4,4 Z" id="Shape" fill="#D80027"></path>
                    <path d="M9,9 L9,10 L10,10 L10,10.25 L13,10.25 L13,10 L14,10 L14,9 L13,9 L13,9.25 L10,9.25 L10,9 L9,9 Z M10,4.5 L11.5,2 L13,4.5 L10,4.5 Z" id="Shape" fill="#EEEEEE"></path>
                    <circle id="Oval" fill="#338AF3" cx="11.5" cy="4.5" r="1.5"></circle>
                    <polygon id="Path" fill="#338AF3" points="10 4.5 10 6 11.5 7 13 6 13 4.5"></polygon>
                    <rect id="Rectangle" fill="#FF9811" x="9" y="4" width="1" height="4" rx="0.5"></rect>
                    <rect id="Rectangle" fill="#FF9811" x="13" y="4" width="1" height="4" rx="0.5"></rect>
                    <path d="M10,6 L10,6.90625 C10,8.03125 11.5,8.40625 11.5,8.40625 C11.5,8.40625 13,8.03125 13,6.90625 L13,6 L10,6 Z M11.5,4.5 L11,6 L12,6 L11.5,4.5 Z" id="Shape" fill="#EEEEEE"></path>
                    <polygon id="Path" fill="#338AF3" points="11 6 11.5 7.5 12 6"></polygon>
                </g>
            </g>
        </g>
    </g>
</svg>