<?xml version="1.0" encoding="UTF-8"?>
<svg width="16px" height="16px" viewBox="0 0 16 16" version="1.1" xmlns="http://www.w3.org/2000/svg" xmlns:xlink="http://www.w3.org/1999/xlink">
    <title>si_flag_16px</title>
    <defs>
        <circle id="path-1" cx="8" cy="8" r="8"></circle>
    </defs>
    <g id="Design-System" stroke="none" stroke-width="1" fill="none" fill-rule="evenodd">
        <g id="Flags-16x16" transform="translate(-151.000000, -1455.000000)">
            <g id="flag" transform="translate(151.000000, 1455.000000)">
                <mask id="mask-2" fill="white">
                    <use xlink:href="#path-1"></use>
                </mask>
                <use id="Mask" fill="#D8D8D8" xlink:href="#path-1"></use>
                <g id="si" mask="url(#mask-2)" fill-rule="nonzero">
                    <polygon id="Path" fill="#0052B4" points="0 5.21875 7.93125 4.615625 16 5.21875 16 10.78125 8.034375 11.790625 0 10.78125"></polygon>
                    <polygon id="Path" fill="#EEEEEE" points="0 0 16 0 16 5.21875 0 5.21875"></polygon>
                    <polygon id="Path" fill="#D80027" points="0 10.78125 16 10.78125 16 16 0 16"></polygon>
                    <polygon id="Path" fill="#0052B4" points="6.959375 5.21875 6.959375 3.13125 2.78125 3.13125 2.78125 5.21875 4.875 7.8"></polygon>
                    <path d="M2.78125,5.21875 L2.78125,5.9125 C2.78125,7.509375 4.86875,8 4.86875,8 C4.86875,8 6.95625,7.509375 6.95625,5.9125 L6.95625,5.21875 L6.259375,5.9125 L4.86875,4.86875 L3.478125,5.9125 L2.78125,5.21875 Z" id="Path" fill="#EEEEEE"></path>
                </g>
            </g>
        </g>
    </g>
</svg>