<?xml version="1.0" encoding="UTF-8"?>
<svg width="16px" height="16px" viewBox="0 0 16 16" version="1.1" xmlns="http://www.w3.org/2000/svg" xmlns:xlink="http://www.w3.org/1999/xlink">
    <title>sm_flag_16px</title>
    <defs>
        <circle id="path-1" cx="8" cy="8" r="8"></circle>
    </defs>
    <g id="Design-System" stroke="none" stroke-width="1" fill="none" fill-rule="evenodd">
        <g id="Flags-16x16" transform="translate(-301.000000, -1455.000000)">
            <g id="flag" transform="translate(301.000000, 1455.000000)">
                <mask id="mask-2" fill="white">
                    <use xlink:href="#path-1"></use>
                </mask>
                <use id="Mask" fill="#D8D8D8" xlink:href="#path-1"></use>
                <g id="sm" mask="url(#mask-2)" fill-rule="nonzero">
                    <polygon id="Path" fill="#338AF3" points="0 8 8 6.365625 16 8 16 16 0 16"></polygon>
                    <polygon id="Path" fill="#EEEEEE" points="0 0 16 0 16 8 0 8"></polygon>
                    <path d="M11.1749917,5.51875 L8,8.696875 L4.825,5.51875 C4.39981921,6.14922356 4.17340717,6.89268231 4.17499165,7.653125 L4.17499165,8.696875 C4.17499165,10.371875 5.25625,11.796875 6.759375,12.315625 C6.55132089,12.720565 6.60025463,13.2099024 6.884375,13.565625 L8.021875,12.653125 L9.159375,13.565625 C9.44913203,13.2059564 9.49704951,12.7083518 9.28125,12.3 C10.8047904,11.7563985 11.8227565,10.3144884 11.825,8.696875 L11.825,7.653125 C11.825,6.8625 11.5875,6.13125 11.1749917,5.51875 L11.1749917,5.51875 Z" id="Path" fill="#6DA544"></path>
                    <path d="M8,11.478125 C6.465625,11.478125 5.21875,10.228125 5.21875,8.696875 L5.21875,7.653125 C5.28915731,6.1682983 6.51350495,5.00063092 8,5.00063092 C9.48649505,5.00063092 10.7108427,6.1682983 10.78125,7.653125 L10.78125,8.696875 C10.78125,10.228125 9.534375,11.478125 8,11.478125 Z" id="Path" fill="#FFDA44"></path>
                    <path d="M9.740625,8.696875 L9.740625,7.653125 C9.740625,6.69180436 8.96132064,5.9125 8,5.9125 C7.03867936,5.9125 6.259375,6.69180436 6.259375,7.653125 L6.259375,8.696875 L8,9.040625 L9.740625,8.696875 Z" id="Path" fill="#338AF3"></path>
                    <path d="M6.259375,8.696875 C6.259375,9.65819564 7.03867936,10.4375 8,10.4375 C8.96132064,10.4375 9.740625,9.65819564 9.740625,8.696875 L6.259375,8.696875 Z" id="Path" fill="#6DA544"></path>
                    <path d="M10.0875003,4.86875 C10.0878092,4.45598834 9.84484379,4.08181572 9.46765732,3.91417729 C9.09047084,3.74653885 8.64992258,3.81692762 8.34375,4.09375 L8.34375,3.48125 L8.69375,3.48125 L8.69375,2.78125 L8.34375,2.78125 L8.34375,2.4375 L7.65625,2.4375 L7.65625,2.78125 L7.30625,2.78125 L7.30625,3.478125 L7.65625,3.478125 L7.65625,4.090625 C7.22493175,3.72113213 6.57734097,3.76432398 6.19891233,4.1878239 C5.8204837,4.61132381 5.85012851,5.25967598 6.265625,5.646875 L6.265625,6.259375 L9.74375,6.259375 L9.74375,5.646875 C9.95625,5.45625 10.0875003,5.178125 10.0875003,4.86875 L10.0875003,4.86875 Z" id="Path" fill="#FFDA44"></path>
                </g>
            </g>
        </g>
    </g>
</svg>