<?xml version="1.0" encoding="UTF-8"?>
<svg width="16px" height="16px" viewBox="0 0 16 16" version="1.1" xmlns="http://www.w3.org/2000/svg" xmlns:xlink="http://www.w3.org/1999/xlink">
    <title>somaliland_flag_16px</title>
    <defs>
        <circle id="path-1" cx="8" cy="8" r="8"></circle>
    </defs>
    <g id="Design-System" stroke="none" stroke-width="1" fill="none" fill-rule="evenodd">
        <g id="Flags-16x16" transform="translate(-451.000000, -1455.000000)">
            <g id="flag" transform="translate(451.000000, 1455.000000)">
                <mask id="mask-2" fill="white">
                    <use xlink:href="#path-1"></use>
                </mask>
                <use id="Mask" fill="#D8D8D8" xlink:href="#path-1"></use>
                <g id="somaliland" mask="url(#mask-2)" fill-rule="nonzero">
                    <polygon id="Path" fill="#EEEEEE" points="0 5.21875 7.93125 4.615625 16 5.21875 16 10.78125 8.034375 11.790625 0 10.78125"></polygon>
                    <polygon id="Path" fill="#496E2D" points="0 0 16 0 16 5.21875 0 5.21875"></polygon>
                    <polygon id="Path" fill="#D80027" points="0 10.78125 16 10.78125 16 16 0 16"></polygon>
                    <polygon id="Path" fill="#333333" points="8 6.259375 8.43125 7.590625 9.828125 7.590625 8.7 8.40625 9.13125 9.7375 8 8.915625 6.86875 9.7375 7.3 8.40625 6.171875 7.5875 7.56875 7.5875"></polygon>
                    <g id="Group" transform="translate(4.928125, 1.562500)" fill="#EEEEEE">
                        <path d="M5.446875,0 L5.446875,1.625 C5.446875,1.88125 5.240625,2.090625 4.984375,2.090625 L4.984375,2.78125 C5.62346173,2.78125 6.14202739,2.2640844 6.14375,1.625 L6.14375,0 L5.45,0 L5.446875,0 Z M0.4625,1.625 C0.4625,1.88125 0.25625,2.090625 0,2.090625 L0,2.78125 C0.637866678,2.77953299 1.15453299,2.26286668 1.15625,1.625 L1.15625,0 L0.4625,0 L0.4625,1.625 Z" id="Shape"></path>
                        <path d="M4.40625,0 L5.1,0 L5.1,1.625 L4.40625,1.625 L4.40625,0 Z M3.3625,0.93125 C3.3625,0.995107924 3.31073292,1.046875 3.246875,1.046875 C3.18301708,1.046875 3.13125,0.995107924 3.13125,0.93125 L3.13125,0 L2.434375,0 L2.434375,0.928125 C2.434375,0.958790657 2.42219312,0.988200328 2.40050922,1.00988422 C2.37882533,1.03156812 2.34941566,1.04375 2.31875,1.04375 C2.28808434,1.04375 2.25867467,1.03156812 2.23699078,1.00988422 C2.21530688,0.988200328 2.203125,0.958790657 2.203125,0.928125 L2.203125,0 L1.50625,0 L1.50625,0.928125 C1.50625,1.37685636 1.87001864,1.740625 2.31875,1.740625 C2.48434158,1.74032369 2.64582438,1.68904199 2.78125,1.59375 C2.91791544,1.68854758 3.08055471,1.73875836 3.246875,1.7375 C3.278125,1.7375 3.315625,1.7375 3.346875,1.73125 C3.29659592,1.93932079 3.1109311,2.08630544 2.896875,2.0875 L2.896875,2.78125 C3.53596173,2.78125 4.05452739,2.2640844 4.05625,1.625 L4.05625,0 L3.3625,0 L3.3625,0.928125 L3.3625,0.93125 Z" id="Shape"></path>
                        <polygon id="Path" points="1.509375 2.090625 2.55 2.090625 2.55 2.78125 1.50625 2.78125"></polygon>
                    </g>
                </g>
            </g>
        </g>
    </g>
</svg>