<?xml version="1.0" encoding="UTF-8"?>
<svg width="16px" height="16px" viewBox="0 0 16 16" version="1.1" xmlns="http://www.w3.org/2000/svg" xmlns:xlink="http://www.w3.org/1999/xlink">
    <title>south_america_flag_16px</title>
    <defs>
        <path d="M8,0 C3.58400035,0 -9.09494629e-16,3.58400003 -9.09494629e-16,8 C-9.09494629e-16,12.4159996 3.58400035,16 8,16 C12.4159952,16 16,12.4159996 16,8 C16,3.58400035 12.4159984,0 8,0 Z" id="path-1"></path>
    </defs>
    <g id="Sports-Forecasts" stroke="none" stroke-width="1" fill="none" fill-rule="evenodd">
        <g id="02-elgbet_sb_sportforecasts_1280" transform="translate(-310.000000, -370.000000)">
            <g id="games" transform="translate(300.000000, 360.000000)">
                <g id="south_america_flag_16px" transform="translate(10.000060, 9.999980)">
                    <mask id="mask-2" fill="white">
                        <use xlink:href="#path-1"></use>
                    </mask>
                    <use id="circle-path" fill="#DA121A" fill-rule="nonzero" xlink:href="#path-1"></use>
                    <path d="M8,0 C3.58400035,0 -9.09494629e-16,3.58400003 -9.09494629e-16,8 C-9.09494629e-16,12.4159996 3.58400035,16 8,16 C12.4159952,16 16,12.4159996 16,8 C16,3.58400035 12.4159984,0 8,0 Z M7.90390369,0.533783637 C7.93600929,0.533376597 7.96779808,0.533783637 7.99999968,0.533783637 C12.1215984,0.533783637 15.4669645,3.87840001 15.4669645,8 C15.4669645,12.1215997 12.1215984,15.4669671 7.99999968,15.4669671 C3.87840033,15.4669671 0.533783637,12.1216 0.533783637,8 C0.533783637,3.91059969 3.82669825,0.585486673 7.90390369,0.533783637 Z" id="circle" fill="#FCDD09" fill-rule="nonzero" mask="url(#mask-2)"></path>
                    <path d="M6.33002509,1.60000083 L6.01129488,1.81694993 L5.84523601,1.82900241 L5.81979025,1.89328401 L5.71801042,1.87989137 L5.62828563,1.93078097 L5.53989972,2.058004 L5.53989972,2.08478799 L5.55194836,2.17317455 L5.29750678,2.35128749 L5.32294933,2.46645772 L5.22920726,2.37807149 L5.25599222,2.46645772 L5.16492503,2.55216652 L5.13948247,2.51868652 L5.11135863,2.61242987 L5.20777878,2.72090442 L5.15689047,3.15480295 L5.24661526,3.19363878 L5.2211727,3.2445287 L5.10600215,3.43603333 L4.953334,3.4989754 L4.953334,3.62619843 L4.85155417,3.65164291 L4.87699993,3.75476034 L4.67344347,3.83109505 L4.66005275,3.84314753 L4.67344347,3.90742849 L4.68549211,3.9449264 L4.67344347,3.95831808 L4.58371547,4.07348863 L4.62121307,4.11098655 L4.5073814,4.20071166 L4.5073814,4.44310588 L4.63460699,4.50604796 L4.67344347,4.42971357 L4.69888602,4.40426909 L4.73638362,4.46855004 L4.67344347,4.62121851 L4.44310236,4.82477593 L4.53282716,5.08056087 L4.48193564,5.15689559 L4.69888602,5.2707263 L4.90244569,5.53856468 L5.06850775,5.87068433 L5.18233943,6.11307855 L5.47561748,6.50814028 L5.45017492,6.60991915 L5.55194836,6.75053386 L5.70595858,6.88981033 L6.41974989,7.20853766 L6.64875531,7.42548677 L6.69963722,7.74421474 L6.72508618,8.02544512 L6.64875531,8.445951 L6.69963722,8.81556857 L6.57242123,9.52935796 L6.63670027,9.72086194 L6.62330635,9.74630674 L6.57242123,9.86013809 L6.64875531,10.4467041 L6.48269324,11.1350493 L6.40635917,11.1859386 L6.53357836,11.5823399 L6.4706382,11.8876749 L6.54697228,11.977401 L6.52152972,12.0148982 L6.62330635,11.9519558 L6.68758858,11.977401 L6.72508618,11.9385642 L6.64875531,12.040343 L6.7384737,12.0791798 L6.72508618,12.1421216 L6.66213963,12.104624 L6.72508618,12.1675661 L6.67419467,12.1421216 L6.66213963,12.3215731 L6.72508618,12.3845152 L6.66213963,12.4487961 L6.7759713,12.5130774 L6.66213963,12.6403011 L6.76392266,12.6777983 L6.66213963,12.6911903 L6.66213963,12.7541324 L6.72508618,12.7166345 L6.68758858,12.8826946 L6.63670027,12.8184134 L6.55902732,12.8304662 L6.62330635,12.8184134 L6.57242123,12.8184134 L6.59786059,12.7541324 L6.55902732,12.805022 L6.5081326,12.7675241 L6.45724428,12.7795772 L6.54697228,12.805022 L6.5081326,12.869303 L6.44117516,12.9268876 L6.5081326,12.8826946 L6.53357836,12.9456364 L6.60991563,12.9335842 L6.66213963,13.009918 L6.59786059,13.0608073 L6.67419467,13.0608073 L6.57242123,13.0983052 L6.69963722,13.0728598 L6.78936522,13.1371417 L6.72508618,13.123749 L6.7759713,13.1880309 L6.59786059,13.1491941 L6.71303114,13.2134754 L6.64875531,13.2523119 L6.69963722,13.2777564 L6.67419467,13.3915877 L6.71303114,13.3540905 L6.78936522,13.442477 L6.69963722,13.4304245 L6.7384737,13.4947058 L6.7759713,13.5455951 L6.67419467,13.5322031 L6.76392266,13.5576476 L6.7759713,13.6473736 L6.81481097,13.5576476 L6.85230537,13.6085368 L6.7759713,13.6473736 L6.75053194,13.6594261 L6.82686281,13.6848706 L6.81481097,13.7745967 L6.89114825,13.8388776 L6.87775433,13.7745967 L6.91659081,13.8388776 L6.87775433,13.7491525 L6.98086984,13.7866495 L6.86569929,13.7357599 L6.91659081,13.6848706 L6.90319689,13.7491525 L6.99292488,13.7866495 L6.96747912,13.90182 L6.96747912,13.8254863 L6.95542728,13.8897672 L6.94203336,13.8388776 L6.91659081,13.8388776 L6.89114825,13.8388776 L6.85230537,13.8388776 L6.87775433,13.966101 L6.96747912,13.915212 L7.13353799,13.915212 L7.17103559,14.0035986 L7.10809223,14.0799326 L7.12014727,14.0290437 L7.0438132,14.0544882 L7.19648454,14.1308219 L7.20987206,13.9272651 L7.40137989,13.8388776 L7.51521156,13.8509307 L7.42682245,13.7357599 L7.35048517,13.7357599 L7.42682245,13.7237077 L7.35048517,13.6473736 L7.46431684,13.4813135 L7.43887748,13.455869 L7.41342853,13.4049794 L7.452265,13.455869 L7.46431684,13.4679218 L7.51521156,13.455869 L7.51521156,13.442477 L7.54065412,13.2777564 L7.77099522,13.0728598 L7.7576013,12.9456364 L7.61832387,12.9201926 L7.4897626,12.7541324 L7.56609667,12.6014646 L7.77099522,12.5385222 L7.78305026,12.3081817 L7.92366017,12.1809577 L7.82188353,12.1166768 L7.91026945,12.091232 L7.94910912,12.1555129 L8.0254432,12.104624 L7.99999424,12.0148982 L7.89821761,12.0791798 L7.80848962,12.0148982 L7.79643778,11.7604519 L7.9879456,11.8367856 L8.20355358,11.7858963 L8.20355358,11.4792215 L8.2557811,11.504666 L8.20355358,11.3908343 L8.39505853,11.4283322 L8.5611174,11.3908343 L8.80351354,11.3399453 L8.95617848,11.2636116 L9.09679479,11.0332705 L9.09679479,10.9314922 L8.99501816,10.8551582 L9.03251256,10.7279345 L8.80351354,10.548483 L8.84101081,10.2940366 L8.82895609,10.4600968 L8.93073273,10.5618747 L9.19857142,10.6636532 L9.52935636,10.6261566 L9.8105861,10.3194811 L9.88691985,10.0770875 L10.1159253,9.80924914 L10.0784248,9.73291506 L10.1922561,9.83469329 L9.91236273,10.1534209 L10.1413646,9.96325648 L10.2819777,9.74630674 L10.3717061,9.61908371 L10.5498196,9.47846868 L10.6261569,9.19723798 L10.5752622,9.03251736 L10.677042,8.89190201 L10.614099,8.85306553 L10.702491,8.87851001 L10.8297102,8.72584218 L11.0600516,8.58522715 L11.2261105,8.58522715 L11.4296666,8.43255933 L11.5702832,8.4713958 L11.6586752,8.40711485 L11.6586752,8.4713958 L11.8501735,8.4834486 L11.8635677,8.39506205 L12.0537331,8.31872797 L12.0416781,8.21560958 L12.2706835,7.92232705 L12.3095168,7.85938497 L12.3604051,7.61699139 L12.4742368,7.50182148 L12.6282438,6.54563756 L12.6536895,6.49474796 L12.6911871,6.58447371 L12.7675212,6.53358444 L13.1639244,6.06218928 L13.3929266,5.76890546 L13.4304242,5.53856468 L13.3674777,5.2077839 L13.3031986,5.11805879 L13.0353631,5.0551164 L12.7929702,4.77388634 L12.5130764,4.57032891 L12.0925728,4.51943932 L11.8756192,4.39221629 L11.5957258,4.55693724 L11.6211744,4.42971357 L11.6975085,4.37882461 L11.5702832,4.39221629 L11.6720599,4.31454333 L11.6077805,4.18731999 L11.5193949,4.26365406 L11.5060007,4.16187551 L11.4671642,4.20071166 L11.4926132,4.16187551 L11.4296666,4.17526751 L11.3787815,4.09893343 L11.3533329,4.14982239 L11.3399418,4.07348863 L11.3144993,4.11098655 L11.1229946,3.99581568 L11.1109396,4.03465184 L10.9837175,3.99581568 L10.8939924,4.13643071 L10.9703265,4.16187551 L10.9073866,4.18731999 L10.8551559,4.12437791 L10.6904363,4.30249054 L10.7413246,4.17526751 L10.5109832,4.20071166 L10.8176583,4.13643071 L10.919435,3.91948097 L10.5243739,3.85653889 L10.4346523,4.02125984 L10.4346523,3.93287361 L10.3462635,4.00920768 L10.3462635,3.91948097 L10.2565352,4.00920768 L10.3328693,3.84314753 L10.614099,3.61414563 L10.5752622,3.61414563 L10.614099,3.52441956 L10.4480369,3.43603333 L10.3328693,3.03963208 L10.2819777,3.00213448 L10.2699262,3.06641575 L10.267251,3.0623988 L10.1413646,2.90035593 L9.81594225,2.73697482 L9.75969778,2.70885194 L9.17313207,2.69545962 L8.93073273,2.50529484 L8.86645017,2.59368075 L8.90529017,2.42896109 L8.79011642,2.31378989 L8.61200571,2.21201166 L8.5611174,2.19861934 L8.43389181,2.19861934 L8.43389181,2.058004 L8.28122686,1.96961776 L8.14061055,1.99506224 L8.11517119,1.95622544 L8.03883392,1.89328401 L8.24238718,1.82900241 L7.77099522,1.84239441 L7.88482657,1.87989137 L7.60493315,1.95622544 L7.37593093,1.85444657 L7.0063156,1.90533617 L6.95542728,1.77811282 L6.72508618,1.75266802 L6.64875531,1.62544531 L6.60991563,1.72722354 L6.68758858,1.71383218 L6.68758858,1.75266802 L6.62330635,1.73927666 L6.34341261,1.87989137 L6.40635917,2.02050672 L6.44519564,2.058004 L6.43180173,2.13567727 L6.30457934,2.18656687 L6.22824206,2.058004 L6.25369102,2.03255952 L6.34341261,1.90533617 L6.26573966,1.75266802 L6.44519564,1.66294259 L6.33002509,1.60000083 Z M7.00366759,13.915212 L6.92998153,14.0002872 L7.02998153,14.015212 L7.00366759,13.915212 Z M6.48513445,12.9523499 L6.45584245,12.9732769 L6.46002645,12.9774609 L6.48513445,12.9523499 Z M6.44606382,12.9349231 L6.41974989,12.9634937 L6.51974989,13.0349231 L6.44606382,12.9349231 Z M10.6649905,3.78020578 L10.5243739,3.79599468 L10.600708,3.88020578 L10.6649905,3.78020578 Z M2.60706795,4.27704574 L2.56957067,4.31588221 L2.65795947,4.41766077 L2.58162539,4.48194236 L2.65795947,4.48194236 L2.71018698,4.42971357 L2.60706795,4.27704574 Z M4.73460699,4.49399548 L4.69502556,4.51482842 L4.63460699,4.51482842 L4.67419339,4.59399548 L4.69502556,4.53357752 L4.73460699,4.49399548 Z M6.62330635,11.8622304 L6.72330635,11.9226469 L6.62330635,11.9622304 L6.62330635,11.8622304 Z M6.4706382,12.0282899 L6.4706382,12.3095206 L6.53357836,12.3215731 L6.59786059,12.2706838 L6.54697228,12.0282899 L6.4706382,12.0282899 Z M6.72791712,12.4876332 L6.64875531,12.5452085 L6.74875531,12.5876332 L6.72791712,12.4876332 Z M6.54697228,12.8438579 L6.64697228,12.8646922 L6.59698171,12.9438579 L6.54697228,12.8438579 Z M6.60574758,13.1759775 L6.57242123,13.2759775 L6.67242123,13.2759775 L6.60574758,13.1759775 Z M6.61125451,13.2777564 L6.62330635,13.3929269 L6.53357836,13.3929269 L6.61125451,13.4947058 L6.64875531,13.3795349 L6.63670027,13.506758 L6.69963722,13.469261 L6.61125451,13.2777564 Z M6.57242123,13.5201506 L6.62241495,13.6201506 L6.67242123,13.5201506 L6.57242123,13.5201506 Z M7.46431684,13.8897672 L7.2741543,13.9406565 L7.28620294,14.042435 L7.41342853,14.042435 L7.35048517,14.1442139 L7.4897626,14.2084952 L7.452265,14.2459921 L7.42682245,14.1951032 L7.40137989,14.2339397 L7.24871174,14.1696584 L7.35048517,14.2339397 L7.28620294,14.2459921 L7.2741543,14.1951032 L7.14558983,14.2593845 L7.7576013,14.2848293 L7.93705409,14.220548 L7.60493315,14.0933243 L7.46431684,13.8897672 Z M7.0063156,13.9406565 L6.98086984,14.0303826 L7.0438132,14.0678795 L7.01836744,14.0303826 L7.13353799,13.9406565 L7.0063156,13.9406565 Z M6.76392266,13.966101 L6.85230537,14.037743 L6.98086984,14.066101 L6.76392266,13.966101 Z M6.98086984,14.055827 L6.91659081,14.1187691 L6.99292488,14.1696584 L7.0438132,14.1321605 L7.0063156,14.1696584 L7.09470151,14.1187691 L6.98086984,14.055827 Z M7.29113089,14.0678795 L7.24871174,14.1442139 L7.34871174,14.1830504 L7.29113089,14.0678795 Z M7.15898375,14.1442139 L7.17241527,14.2205295 L7.25898375,14.2442139 L7.15898375,14.1442139 Z M7.55404484,14.2848293 L7.37593093,14.3236654 L7.46431684,14.3866078 L7.43887748,14.3357185 L7.51521156,14.3357185 L7.51521156,14.374555 L7.61832387,14.3999995 L7.4897626,14.3102741 L7.55404484,14.2848293 Z" id="path5727" stroke="#FCDD09" fill="#FCDD09" fill-rule="nonzero" stroke-linecap="round" stroke-linejoin="round" mask="url(#mask-2)"></path>
                </g>
            </g>
        </g>
    </g>
</svg>