<?xml version="1.0" encoding="UTF-8"?>
<svg width="16px" height="16px" viewBox="0 0 16 16" version="1.1" xmlns="http://www.w3.org/2000/svg" xmlns:xlink="http://www.w3.org/1999/xlink">
    <title>sy_flag_16px</title>
    <defs>
        <circle id="path-1" cx="8" cy="8" r="8"></circle>
    </defs>
    <g id="Design-System" stroke="none" stroke-width="1" fill="none" fill-rule="evenodd">
        <g id="Flags-16x16" transform="translate(-351.000000, -1505.000000)">
            <g id="flag" transform="translate(351.000000, 1505.000000)">
                <mask id="mask-2" fill="white">
                    <use xlink:href="#path-1"></use>
                </mask>
                <use id="Mask" fill="#D8D8D8" xlink:href="#path-1"></use>
                <g id="sy" mask="url(#mask-2)" fill-rule="nonzero">
                    <polygon id="Path" fill="#EEEEEE" points="0 5.21875 7.93125 4.615625 16 5.21875 16 10.78125 8.034375 11.790625 0 10.78125"></polygon>
                    <polygon id="Path" fill="#D80027" points="0 0 16 0 16 5.21875 0 5.21875"></polygon>
                    <polygon id="Path" fill="#333333" points="0 10.78125 16 10.78125 16 16 0 16"></polygon>
                    <path d="M4.78125,6.0875 L5.2125,7.415625 L6.609375,7.415625 L5.478125,8.2375 L5.909375,9.565625 L4.78125,8.74375 L3.65,9.565625 L4.08125,8.2375 L2.95,7.415625 L4.346875,7.415625 L4.78125,6.0875 Z M11.21875,6.0875 L11.653125,7.415625 L13.05,7.415625 L11.91875,8.2375 L12.35,9.565625 L11.21875,8.74375 L10.090625,9.565625 L10.521875,8.2375 L9.390625,7.415625 L10.7875,7.415625 L11.21875,6.0875 Z" id="Shape" fill="#6DA544"></path>
                </g>
            </g>
        </g>
    </g>
</svg>