<?xml version="1.0" encoding="UTF-8"?>
<svg width="16px" height="16px" viewBox="0 0 16 16" version="1.1" xmlns="http://www.w3.org/2000/svg" xmlns:xlink="http://www.w3.org/1999/xlink">
    <title>tibet_flag_16px</title>
    <defs>
        <circle id="path-1" cx="8" cy="8" r="8"></circle>
    </defs>
    <g id="Design-System" stroke="none" stroke-width="1" fill="none" fill-rule="evenodd">
        <g id="Flags-16x16" transform="translate(-201.000000, -1555.000000)">
            <g id="flag" transform="translate(201.000000, 1555.000000)">
                <mask id="mask-2" fill="white">
                    <use xlink:href="#path-1"></use>
                </mask>
                <use id="Mask" fill="#D8D8D8" xlink:href="#path-1"></use>
                <g id="tibet" mask="url(#mask-2)" fill-rule="nonzero">
                    <polygon id="Path" fill="#EEEEEE" points="0.3875 15.059375 15.734375 15.078125 8.015625 7.35"></polygon>
                    <polygon id="Path" fill="#D80027" points="1.40625 14.60625 6.034375 9.96875 8.003125 6.609375 10.509375 9.89375 16 11.315625 16 8 15.13125 6.4375 16 4.6875 16 1.396875 7.875 0.521875 0 1.396875 1.203125 3.234375 0 4.6875 0 8.003125 1.15625 9.5875 0 11.31875 0 14.60625 0.7375 15.1"></polygon>
                    <path d="M16,11.3125 L9.55,8.64375 L9.96875,9.96875 L14.603125,14.60625 L15.321875,15.171875 L15.996875,14.60625 L16,11.3125 Z M16,8.003125 L16,4.690625 L8.00625,8.003125 L16,8.003125 Z M14.615625,1.39375 L12.7125,0.8375 L10.74375,1.39375 L8.00625,8.003125 L14.615625,1.39375 Z M8.00625,1.39375 L6.709375,0.84375 L5.26875,1.396875 L8.00625,8.00625 L8.00625,1.39375 Z M1.396875,1.39375 L0.746875,0.9 L0,1.39375 L0,4.6875 L8.00625,8.003125 L1.396875,1.39375 Z M0,8.003125 L0,11.31875 L8.00625,8.00625 L0,8.003125 Z" id="Shape" fill="#0052B4"></path>
                    <path d="M8.00625,8.003125 L9.975,9.971875 C11.0594307,8.88511439 11.0581717,7.12520962 9.97218714,6.04000172 C8.88620261,4.95479382 7.12629739,4.95479382 6.04031286,6.04000172 C4.95432832,7.12520962 4.95306929,8.88511439 6.0375,9.971875 L8.00625,8.003125 Z M9.225,12.003125 L8.0125,12.6125 L6.7875,12.003125 C6.7875,11.330028 7.33315296,10.784375 8.00625,10.784375 C8.67934704,10.784375 9.225,11.330028 9.225,12.003125 Z" id="Shape" fill="#FFDA44"></path>
                    <path d="M9.225,12.003125 C9.225,12.676222 8.67934704,13.221875 8.00625,13.221875 C7.33315296,13.221875 6.7875,12.676222 6.7875,12.003125" id="Path" fill="#0052B4"></path>
                    <path d="M0,0 L0,1.39375 L16,1.39375 L16,0 L0,0 Z M0,14.60625 L0,16 L16,16 L16,14.60625 L0,14.60625 Z" id="Shape" fill="#FFDA44"></path>
                </g>
            </g>
        </g>
    </g>
</svg>