<?xml version="1.0" encoding="UTF-8"?>
<svg width="16px" height="16px" viewBox="0 0 16 16" version="1.1" xmlns="http://www.w3.org/2000/svg" xmlns:xlink="http://www.w3.org/1999/xlink">
    <title>tj_flag_16px</title>
    <defs>
        <circle id="path-1" cx="8" cy="8" r="8"></circle>
    </defs>
    <g id="Design-System" stroke="none" stroke-width="1" fill="none" fill-rule="evenodd">
        <g id="Flags-16x16" transform="translate(-251.000000, -1555.000000)">
            <g id="flag" transform="translate(251.000000, 1555.000000)">
                <mask id="mask-2" fill="white">
                    <use xlink:href="#path-1"></use>
                </mask>
                <use id="Mask" fill="#D8D8D8" xlink:href="#path-1"></use>
                <g id="tj" mask="url(#mask-2)" fill-rule="nonzero">
                    <polygon id="Path" fill="#EEEEEE" points="0 4.521875 7.978125 3.38125 16 4.521875 16 11.478125 7.828125 12.71875 0 11.478125"></polygon>
                    <polygon id="Path" fill="#D80027" points="0 0 16 0 16 4.521875 0 4.521875"></polygon>
                    <polygon id="Path" fill="#6DA544" points="0 11.478125 16 11.478125 16 16 0 16"></polygon>
                    <path d="M6.609375,10.09375 L9.390625,10.09375 L9.390625,8.90625 L8.834375,9.1875 L8,8.346875 L7.165625,9.18125 L6.609375,8.903125 L6.609375,10.09375 Z M5.015625,8.7 L5.146875,9.096875 L5.5625,9.096875 L5.221875,9.346875 L5.353125,9.74375 L5.0125,9.49375 L4.675,9.74375 L4.803125,9.34375 L4.46875,9.096875 L4.8875,9.096875 L5.015625,8.7 Z M5.41875,7.30625 L5.546875,7.70625 L5.96875,7.70625 L5.63125,7.95625 L5.759375,8.35 L5.421875,8.103125 L5.08125,8.353125 L5.2125,7.953125 L4.871875,7.703125 L5.290625,7.703125 L5.41875,7.30625 Z M6.565625,6.2625 L6.696875,6.6625 L7.115625,6.6625 L6.775,6.9125 L6.90625,7.30625 L6.5625,7.065625 L6.225,7.309375 L6.353125,6.9125 L6.015625,6.665625 L6.4375,6.665625 L6.565625,6.2625 Z M10.984375,8.7 L10.853125,9.096875 L10.4375,9.096875 L10.778125,9.346875 L10.646875,9.74375 L10.9875,9.49375 L11.325,9.74375 L11.196875,9.34375 L11.53125,9.096875 L11.1125,9.096875 L10.984375,8.7 Z M10.58125,7.30625 L10.453125,7.70625 L10.03125,7.70625 L10.36875,7.95625 L10.240625,8.35 L10.578125,8.103125 L10.91875,8.353125 L10.7875,7.953125 L11.128125,7.703125 L10.709375,7.703125 L10.58125,7.30625 Z M9.4375,6.2625 L9.30625,6.6625 L8.8875,6.6625 L9.228125,6.9125 L9.096875,7.30625 L9.4375,7.065625 L9.775,7.309375 L9.646875,6.9125 L9.984375,6.665625 L9.5625,6.665625 L9.4375,6.2625 Z M8,5.74375 L8.128125,6.140625 L8.55,6.140625 L8.209375,6.390625 L8.3375,6.784375 L8,6.540625 L7.6625,6.784375 L7.790625,6.3875 L7.45,6.140625 L7.875,6.140625 L8,5.74375 Z" id="Shape" fill="#FFDA44"></path>
                </g>
            </g>
        </g>
    </g>
</svg>