<?xml version="1.0" encoding="UTF-8"?>
<svg width="16px" height="16px" viewBox="0 0 16 16" version="1.1" xmlns="http://www.w3.org/2000/svg" xmlns:xlink="http://www.w3.org/1999/xlink">
    <title>torres_strait_islands_flag_16px</title>
    <defs>
        <circle id="path-1" cx="8" cy="8" r="8"></circle>
    </defs>
    <g id="Design-System" stroke="none" stroke-width="1" fill="none" fill-rule="evenodd">
        <g id="Flags-16x16" transform="translate(-51.000000, -1605.000000)">
            <g id="flag" transform="translate(51.000000, 1605.000000)">
                <mask id="mask-2" fill="white">
                    <use xlink:href="#path-1"></use>
                </mask>
                <use id="Mask" fill="#D8D8D8" xlink:href="#path-1"></use>
                <g id="torres_strait_islands" mask="url(#mask-2)" fill-rule="nonzero">
                    <polygon id="Path" fill="#0052B4" points="0 4 8 3 16 4 16 12 8 13 0 12"></polygon>
                    <polygon id="Path" fill="#333333" points="0 3 8 2 16 3 16 4 0 4"></polygon>
                    <polygon id="Path" fill="#6DA544" points="0 0 16 0 16 3 0 3"></polygon>
                    <polygon id="Path" fill="#333333" points="0 13 8 14 16 13 16 12 0 12"></polygon>
                    <polygon id="Path" fill="#6DA544" points="0 16 16 16 16 13 0 13"></polygon>
                    <path d="M7.65625,4.5 C4.34375,5.5 4.5,8 5.5625,10.3125 L4.3125,11.5 L6.59375,10.65625 L6.59375,7.59375 C7.34375,6.5 8.65625,6.5 9.40625,7.59375 L9.40625,10.65625 L11.6875,11.5 L10.4375,10.3125 C11.5,8 11.65625,5.5 8.34375,4.5 L8,5.9375 L7.65625,4.5 Z M8,7.09375 L7.71875,7.9375 L6.84375,7.9375 L7.5625,8.46875 L7.28125,9.34375 L8,8.8125 L8.71875,9.34375 L8.4375,8.46875 L9.1875,7.9375 L8.28125,7.9375 L8,7.09375 Z" id="Shape" fill="#EEEEEE"></path>
                </g>
            </g>
        </g>
    </g>
</svg>