<?xml version="1.0" encoding="UTF-8"?>
<svg width="16px" height="16px" viewBox="0 0 16 16" version="1.1" xmlns="http://www.w3.org/2000/svg" xmlns:xlink="http://www.w3.org/1999/xlink">
    <title>tv_flag_16px</title>
    <defs>
        <circle id="path-1" cx="8" cy="8" r="8"></circle>
    </defs>
    <g id="Design-System" stroke="none" stroke-width="1" fill="none" fill-rule="evenodd">
        <g id="Flags-16x16" transform="translate(-251.000000, -1605.000000)">
            <g id="flag" transform="translate(251.000000, 1605.000000)">
                <mask id="mask-2" fill="white">
                    <use xlink:href="#path-1"></use>
                </mask>
                <use id="Mask" fill="#D8D8D8" xlink:href="#path-1"></use>
                <g id="tv" mask="url(#mask-2)" fill-rule="nonzero">
                    <polygon id="Path" fill="#338AF3" points="0 8 8 0 16 0 16 16 0 16"></polygon>
                    <polygon id="Path" fill="#EEEEEE" points="0 0 1.04375 0 2.04375 0.528125 3.134375 0 8 0 8 1.04375 7.5375 2.090625 8 3.13125 8 4.175 7.709375 5.228125 8 6.525 8 7.015625 7.80625 7.378125 8 8 6.525 8 5.296875 7.78125 4.175 8.003125 3.13125 8 2.1125 7.48125 1.04375 8 0 8 0 3.13125 0.44375 2.0125 0 1.04375"></polygon>
                    <polygon id="Path" fill="#D80027" points="8 7.015625 5.15625 4.171875 4.175 4.171875 8 8"></polygon>
                    <polygon id="Path" fill="#D80027" points="1.04375 0 1.04375 1.04375 0 1.04375 0 3.13125 1.04375 3.13125 1.04375 8 3.13125 8 3.13125 3.13125 8 3.13125 8 1.04375 3.13125 1.04375 3.13125 0"></polygon>
                    <path d="M8.73125,13.21875 L8.903125,13.75 L9.465625,13.75 L9.009375,14.078125 L9.184375,14.609375 L8.73125,14.28125 L8.278125,14.609375 L8.453125,14.078125 L8,13.75 L8.559375,13.75 L8.73125,13.21875 Z M13.18125,9.740625 L13.353125,10.271875 L13.915625,10.271875 L13.4625,10.6 L13.634375,11.13125 L13.18125,10.803125 L12.728125,11.13125 L12.903125,10.6 L12.45,10.271875 L13.009375,10.271875 L13.18125,9.740625 Z M14.296875,4.521875 L14.46875,5.053125 L15.03125,5.053125 L14.578125,5.38125 L14.753125,5.9125 L14.3,5.584375 L13.846875,5.9125 L14.021875,5.38125 L13.56875,5.053125 L14.125,5.053125 L14.296875,4.521875 Z M14.571875,8.346875 L14.746875,8.878125 L15.303125,8.878125 L14.853125,9.20625 L15.025,9.7375 L14.571875,9.409375 L14.121875,9.740625 L14.29375,9.209375 L13.840625,8.878125 L14.403125,8.878125 L14.571875,8.346875 Z M9.53125,11.96875 L10.03125,12.21875 L10.425,11.825 L10.3375,12.378125 L10.8375,12.63125 L10.28125,12.71875 L10.19375,13.271875 L9.940625,12.771875 L9.3875,12.859375 L9.784375,12.465625 L9.53125,11.96875 Z M9.53125,9.88125 L10.03125,10.134375 L10.425,9.740625 L10.3375,10.290625 L10.8375,10.54375 L10.284375,10.63125 L10.196875,11.184375 L9.94375,10.684375 L9.390625,10.775 L9.7875,10.378125 L9.53125,9.88125 Z M11.271875,11.21875 L11.771875,11.471875 L12.165625,11.078125 L12.078125,11.628125 L12.578125,11.88125 L12.021875,11.96875 L11.9375,12.521875 L11.68125,12.021875 L11.13125,12.1125 L11.525,11.715625 L11.271875,11.21875 Z M11.271875,6.75 L11.771875,7.003125 L12.165625,6.609375 L12.078125,7.159375 L12.578125,7.415625 L12.021875,7.503125 L11.9375,8.053125 L11.68125,7.553125 L11.13125,7.64375 L11.525,7.246875 L11.271875,6.75 Z M12.959375,6.696875 L13.45625,6.95 L13.85,6.55625 L13.7625,7.10625 L14.2625,7.359375 L13.709375,7.446875 L13.621875,8 L13.36875,7.5 L12.8125,7.59375 L13.209375,7.196875 L12.959375,6.696875 Z" id="Shape" fill="#FFDA44"></path>
                    <path d="M5.65,4.175 L8,4.175 L8,6.525 L5.65,4.175 Z M4.175,5.65 L4.175,8.003125 L6.525,8 L4.175,5.65 Z" id="Shape" fill="#0052B4"></path>
                </g>
            </g>
        </g>
    </g>
</svg>