<?xml version="1.0" encoding="UTF-8"?>
<svg width="16px" height="16px" viewBox="0 0 16 16" version="1.1" xmlns="http://www.w3.org/2000/svg" xmlns:xlink="http://www.w3.org/1999/xlink">
    <title>uefa_flag_16px</title>
    <g id="Sports-Forecasts" stroke="none" stroke-width="1" fill="none" fill-rule="evenodd">
        <g id="uefa_flag_16px" fill="#FFFFFF">
            <path d="M9.71109584,0.00503050321 C9.52442643,0.165164075 8.52361712,0.95858561 8.17681414,1.28691557 C8.6089432,1.45364744 9.43796854,1.76728553 9.84737179,2.00727444 L9.965,2.083 L10.2025562,2.08858153 C11.130593,2.12925688 11.7620949,2.38006449 12.2906854,2.58747778 C12.4933784,2.35396241 12.6379987,1.75312981 12.7955807,1.36468598 C13.2111728,1.99889249 13.4462191,2.67810787 13.5396048,3.31231438 C14.5282689,3.82802817 15.0851132,4.50489614 15.5195865,5.09807417 C15.0600062,5.03765411 14.5682767,4.97090627 14.044296,4.95569919 C14.1364133,5.48294587 14.1765669,6.17118218 14.1645,6.81351785 L14.1580939,6.99967309 L14.1580939,6.99967309 C14.2982236,7.57274511 14.4124297,8.46179772 14.4107967,9.18306219 C14.9529443,9.04242226 15.5466326,8.80513063 15.9985584,8.58712852 C15.7833119,9.31523108 15.3230172,10.0496614 14.5338822,10.7649043 C14.6201237,11.4405475 14.667582,11.8583849 14.6375761,12.3986954 C14.2225964,12.2641791 13.8010849,12.0333173 13.3475262,11.7829619 C12.7923133,12.106601 12.0486142,12.4114512 11.3460163,12.5115859 L11.3441725,12.4896316 C11.3928556,13.0114691 11.4134719,13.3021386 11.383466,14.1100528 C12.0963614,14.0709634 12.9060106,13.8511242 13.503067,13.8052989 C13.0584896,14.2928438 11.5114503,15.6893433 8.93941328,15.9834829 C8.61965644,16.0156321 8.20304379,15.9963425 7.97361086,15.9640913 C8.42900665,15.678729 8.91675575,15.3288642 9.11434568,15.037072 C8.78390831,14.7512366 8.41592754,14.459144 8.12170748,14.0803535 L8.15466692,14.0772912 C7.66610133,14.1184217 7.10017357,14.133935 6.46331348,14.1685337 C6.44208481,14.8335626 6.51097592,15.3117179 6.55435181,15.8994867 C6.41922316,15.8604995 6.28419657,15.8521305 6.11110127,15.6764836 C5.68907939,15.248236 5.13060208,14.5228891 4.89453519,14.0390184 C4.20848173,14.0592264 3.09060856,13.8667395 2.24993282,13.4164468 C2.97313645,13.2494751 3.63806329,13.0118773 4.09692915,12.7225346 C3.93889892,12.254326 3.6820328,11.7252488 3.4578054,11.2346849 L3.298,10.876 L3.04706121,10.7404505 C2.69437135,10.539219 2.3169256,10.2908926 1.96436639,10.0715024 C1.79719061,10.3674791 1.34424428,10.9548396 0.998768091,11.6660001 C0.860577615,11.5813916 0.812608986,11.4129911 0.719631495,11.231935 C0.6485971,10.7833773 0.784236053,9.79961217 0.92712133,9.21582375 C0.615937608,8.9843496 0.188710627,8.74001577 8.8817842e-16,8.41831978 C0.391505661,8.14020379 0.89242062,8.02977388 1.33546704,7.93220365 C1.52327381,7.25123023 1.85165458,6.57035356 2.15981792,6.181014 L2.189921,6.21747826 C1.91170295,5.90670278 1.66583822,5.61552299 1.40701174,5.23371312 C1.06816951,5.48243556 0.626347821,5.94375089 0.255354506,6.42445779 C0.253417246,4.93589938 1.73830146,2.30987209 3.01161341,1.66862338 C2.80698128,2.14126747 2.63449834,2.65902248 2.55876914,3.26046743 C2.96425715,3.25618088 3.33422795,3.24873043 3.73992008,3.24444387 C3.16052028,3.63697014 2.79565252,3.9592785 2.29953442,4.44447608 C2.22779867,4.79835244 2.18126908,5.59848567 2.18936628,6.18252699 L2.18481796,6.15001599 C2.26248631,6.62970228 2.34668656,7.35443682 2.39210367,7.70532224 C3.07254377,7.56539673 3.70787296,7.51569306 4.3433042,7.51763222 C3.9098515,7.8798464 3.24135252,8.38229227 2.71635119,9.18990027 C2.92492805,9.75063832 3.09783563,10.2515638 3.22659962,10.6392107 L3.286,10.821 L3.62888597,11.1162143 C4.12318739,11.5259929 4.65785593,11.9102318 5.11427233,12.2490741 C5.70591181,11.8215052 6.3476599,11.2939172 6.81145213,10.9310521 C6.58854222,10.2569471 6.40279135,9.28910348 6.35951753,8.35994093 C5.68530314,8.10489071 5.01108875,7.85004461 4.29819327,7.55621125 C4.83431925,7.16317467 5.7840981,6.71859734 6.37196896,6.61010659 C6.33328787,5.53887525 6.50822028,4.93998181 6.61201623,4.12737283 C7.11323737,4.84455486 7.45299815,5.45161317 7.92829582,6.02642023 C8.79254762,5.78892448 9.76039126,5.486518 10.5470768,5.31352475 C9.86888201,6.26810047 9.47533513,6.76983191 8.96533675,7.47854289 C9.52149278,8.22280004 10.1032577,8.84023241 10.6850776,9.45647941 L10.6577108,9.45587101 C11.7034269,9.50853444 12.2882359,9.50965711 13.0230745,9.52057763 C13.4610913,8.76246033 13.8753463,7.77803999 14.1282577,7.08247771 L14.1541135,7.12990281 C13.7023919,6.38138808 13.151161,5.64889691 12.7693511,4.98162266 C11.9488834,5.02703977 11.0658524,5.21432154 10.5502407,5.31791337 C10.8890829,4.89272761 11.4535818,4.18371045 11.7601728,3.7133117 C11.439755,3.41842783 10.8249451,2.75022529 10.1579473,2.24063654 L9.975,2.106 L9.77170364,2.11594474 C9.12474329,2.14604165 8.11256112,2.1968453 7.47769689,2.20628027 C7.23295482,2.57420986 6.80776906,3.60451477 6.71366889,4.20351027 C6.31195714,3.91865826 5.91442989,3.19708761 5.5806907,2.65606271 C5.07069232,2.73373106 4.19939831,3.1067637 3.73522528,3.24219853 C4.17469957,2.62881245 4.54273122,2.24220571 5.13397009,1.77241933 C4.95352639,1.44449762 4.74113764,0.894593418 4.6743898,0.529521533 C5.86605301,0.542075025 6.38656367,0.807739581 6.68866397,0.856014393 C7.3609392,0.515028884 8.61343072,-0.0596761154 9.71109584,0.00503050321 Z M8.09679838,8.87881861 C7.62190896,9.49930712 7.26115365,10.2338297 6.82627718,10.9194827 L6.8324678,10.9146276 C6.74592014,11.6232366 6.61436363,12.3965521 6.52802009,13.1052631 C7.04065675,13.4043684 7.62273852,13.7665331 8.137135,14.0670572 L8.10965806,14.0647377 C8.76846125,14.1206671 9.40144303,14.1637368 9.98931389,14.1552657 C10.5264703,13.5902077 10.963744,12.9940597 11.325885,12.5138658 L11.318147,12.5154531 C11.6572954,12.0053526 12.0480866,11.2631657 12.2195489,10.9723941 C11.6930777,10.5843668 11.1159036,10.0571573 10.6700199,9.4720816 L10.7026176,9.47516053 C9.85561409,9.38851081 8.8662356,9.10774124 8.09679838,8.87881861 Z" id="uefa_icon"></path>
        </g>
    </g>
</svg>