<?xml version="1.0" encoding="UTF-8"?>
<svg width="16px" height="16px" viewBox="0 0 16 16" version="1.1" xmlns="http://www.w3.org/2000/svg" xmlns:xlink="http://www.w3.org/1999/xlink">
    <title>ug_flag_16px</title>
    <defs>
        <circle id="path-1" cx="8" cy="8" r="8"></circle>
    </defs>
    <g id="Design-System" stroke="none" stroke-width="1" fill="none" fill-rule="evenodd">
        <g id="Flags-16x16" transform="translate(-451.000000, -1605.000000)">
            <g id="flag" transform="translate(451.000000, 1605.000000)">
                <mask id="mask-2" fill="white">
                    <use xlink:href="#path-1"></use>
                </mask>
                <use id="Mask" fill="#D8D8D8" xlink:href="#path-1"></use>
                <g id="ug" mask="url(#mask-2)" fill-rule="nonzero">
                    <polygon id="Path" fill="#FFDA44" points="0 2.65625 0 13.34375 8 14.3125 16 13.34375 16 2.65625 8 1.65625"></polygon>
                    <polygon id="Path" fill="#333333" points="0 0 16 0 16 2.65625 0 2.65625"></polygon>
                    <polygon id="Path" fill="#D80027" points="0 5.34375 16 5.34375 16 8 8 8.96875 0 8"></polygon>
                    <polygon id="Path" fill="#333333" points="0 8 16 8 16 10.65625 0 10.65625"></polygon>
                    <polygon id="Path" fill="#D80027" points="0 13.34375 16 13.34375 16 16 0 16"></polygon>
                    <circle id="Oval" fill="#EEEEEE" cx="8" cy="8" r="2.665625"></circle>
                    <path d="M8.96875,8.125 L8,7.71875 L8.25,6.90625 C8.28942085,6.72370499 8.23009668,6.53386766 8.09375,6.40625 L8.34375,6.15625 C8.18483011,6.00043787 7.97250846,5.91103928 7.75,5.90625 C7.51666482,5.90290672 7.29166114,5.99290819 7.125,6.15625 L7.375,6.40625 C7.27529194,6.5056128 7.21909484,6.64048585 7.21875,6.78125 L7.25,6.9375 L6.875,7.3125 L7.53125,7.3125 C7.53125,7.3125 7.25,7.71875 7.09375,8.0625 C6.96875,8.40625 7.09375,8.84375 7.46875,9 L7.65625,9.0625 L8,9.375 L8,9.75 L7.65625,10.09375 L8.34375,10.09375 L8.34375,9.375 L8.65625,9.0625 L9.3125,9.0625 C9.39657593,8.89337489 9.40737141,8.69710952 9.34235186,8.51978348 C9.27733232,8.34245744 9.14222475,8.19968986 8.96875,8.125 L8.96875,8.125 Z" id="Path" fill="#333333"></path>
                </g>
            </g>
        </g>
    </g>
</svg>