<?xml version="1.0" encoding="UTF-8"?>
<svg width="16px" height="16px" viewBox="0 0 16 16" version="1.1" xmlns="http://www.w3.org/2000/svg" xmlns:xlink="http://www.w3.org/1999/xlink">
    <title>us_flag_16px</title>
    <defs>
        <circle id="path-1" cx="8" cy="8" r="8"></circle>
    </defs>
    <g id="Design-System" stroke="none" stroke-width="1" fill="none" fill-rule="evenodd">
        <g id="Flags-16x16" transform="translate(-51.000000, -1655.000000)">
            <g id="flag" transform="translate(51.000000, 1655.000000)">
                <mask id="mask-2" fill="white">
                    <use xlink:href="#path-1"></use>
                </mask>
                <use id="Mask" fill="#D8D8D8" xlink:href="#path-1"></use>
                <g id="us" mask="url(#mask-2)" fill-rule="nonzero">
                    <polygon id="Path" fill="#EEEEEE" points="8 0 16 0 16 2 15 3 16 4 16 6 15 7 16 8 16 10 15 11 16 12 16 14 8 15 0 14 0 12 1 11 0 10 0 8"></polygon>
                    <path d="M7,2 L16,2 L16,4 L7,4 L7,2 Z M7,6 L16,6 L16,8 L8,8 L7,6 Z M0,10 L16,10 L16,12 L0,12 L0,10 Z M0,14 L16,14 L16,16 L0,16 L0,14 Z" id="Shape" fill="#D80027"></path>
                    <polygon id="Path" fill="#0052B4" points="0 0 8 0 8 8 0 8"></polygon>
                    <path d="M5.84375,7.59375 L7.625,6.3125 L5.4375,6.3125 L7.21875,7.59375 L6.53125,5.5 L5.84375,7.59375 Z M3.3125,7.59375 L5.09375,6.3125 L2.90625,6.3125 L4.6875,7.59375 L4,5.5 L3.3125,7.59375 Z M0.78125,7.59375 L2.5625,6.3125 L0.375,6.3125 L2.15625,7.59375 L1.46875,5.5 L0.78125,7.59375 Z M5.84375,5.0625 L7.625,3.78125 L5.4375,3.78125 L7.21875,5.0625 L6.53125,2.96875 L5.84375,5.0625 Z M3.3125,5.0625 L5.09375,3.78125 L2.90625,3.78125 L4.6875,5.0625 L4,2.96875 L3.3125,5.0625 Z M0.78125,5.0625 L2.5625,3.78125 L0.375,3.78125 L2.15625,5.0625 L1.46875,2.96875 L0.78125,5.0625 Z M5.84375,2.5 L7.625,1.21875 L5.4375,1.21875 L7.21875,2.5 L6.53125,0.40625 L5.84375,2.5 Z M3.3125,2.5 L5.09375,1.21875 L2.90625,1.21875 L4.6875,2.5 L4,0.40625 L3.3125,2.5 Z M0.78125,2.5 L2.5625,1.21875 L0.375,1.21875 L2.15625,2.5 L1.46875,0.40625 L0.78125,2.5 Z" id="Shape" fill="#EEEEEE"></path>
                </g>
            </g>
        </g>
    </g>
</svg>