<?xml version="1.0" encoding="UTF-8"?>
<svg width="16px" height="16px" viewBox="0 0 16 16" version="1.1" xmlns="http://www.w3.org/2000/svg" xmlns:xlink="http://www.w3.org/1999/xlink">
    <title>xk_flag_16px</title>
    <defs>
        <circle id="path-1" cx="8" cy="8" r="8"></circle>
    </defs>
    <g id="Design-System" stroke="none" stroke-width="1" fill="none" fill-rule="evenodd">
        <g id="Flags-16x16" transform="translate(-251.000000, -1705.000000)">
            <g id="flag" transform="translate(251.000000, 1705.000000)">
                <mask id="mask-2" fill="white">
                    <use xlink:href="#path-1"></use>
                </mask>
                <use id="Mask" fill="#D8D8D8" xlink:href="#path-1"></use>
                <g id="xk" mask="url(#mask-2)" fill-rule="nonzero">
                    <polygon id="Path" fill="#0052B4" points="0 0 16 0 16 16 0 16"></polygon>
                    <path d="M3.5125,4.86875 L3.6875,5.4 L4.246875,5.4 L3.79375,5.728125 L3.965625,6.259375 L3.5125,5.93125 L3.0625,6.259375 L3.234375,5.728125 L2.78125,5.4 L3.34375,5.4 L3.5125,4.86875 Z M5.253125,4.346875 L5.425,4.878125 L5.9875,4.878125 L5.53125,5.20625 L5.70625,5.7375 L5.253125,5.409375 L4.8,5.740625 L4.975,5.209375 L4.521875,4.878125 L5.08125,4.878125 L5.253125,4.346875 Z M6.99375,3.825 L7.165625,4.35625 L7.725,4.35625 L7.271875,4.6875 L7.44375,5.21875 L6.99375,4.8875 L6.540625,5.21875 L6.7125,4.6875 L6.259375,4.35625 L6.821875,4.35625 L6.99375,3.825 Z M12.4875,4.86875 L12.3125,5.4 L11.753125,5.4 L12.20625,5.728125 L12.034375,6.259375 L12.4875,5.93125 L12.9375,6.259375 L12.765625,5.728125 L13.21875,5.4 L12.65625,5.4 L12.4875,4.86875 Z M10.746875,4.346875 L10.575,4.878125 L10.0125,4.878125 L10.46875,5.20625 L10.29375,5.7375 L10.746875,5.409375 L11.2,5.740625 L11.025,5.209375 L11.478125,4.878125 L10.91875,4.878125 L10.746875,4.346875 Z M9.00625,3.825 L8.834375,4.35625 L8.275,4.35625 L8.728125,4.6875 L8.55625,5.21875 L9.00625,4.8875 L9.459375,5.21875 L9.2875,4.6875 L9.740625,4.35625 L9.178125,4.35625 L9.00625,3.825 Z" id="Shape" fill="#EEEEEE"></path>
                    <path d="M9.390625,8.346875 L8,6.609375 L7.303125,6.95625 L7.303125,7.65625 L6.259375,8.34375 L5.565625,8.34375 L5.565625,9.25 C6.61588008,9.67521948 7.3031875,10.6950551 7.303125,11.828125 L8,11.828125 L8,11.134375 L8.696875,10.4375 L9.390625,11.134375 L10.0875,10.4375 L10.0875,9.74375 L10.78125,8.7 L9.390625,8.35 L9.390625,8.346875 Z" id="Path" fill="#FFDA44"></path>
                </g>
            </g>
        </g>
    </g>
</svg>