<?xml version="1.0" encoding="UTF-8"?>
<svg width="16px" height="16px" viewBox="0 0 16 16" version="1.1" xmlns="http://www.w3.org/2000/svg" xmlns:xlink="http://www.w3.org/1999/xlink">
    <title>yt_flag_16px</title>
    <defs>
        <circle id="path-1" cx="8" cy="8" r="8"></circle>
    </defs>
    <g id="Design-System" stroke="none" stroke-width="1" fill="none" fill-rule="evenodd">
        <g id="Flags-16x16" transform="translate(-401.000000, -1705.000000)">
            <g id="flag" transform="translate(401.000000, 1705.000000)">
                <mask id="mask-2" fill="white">
                    <use xlink:href="#path-1"></use>
                </mask>
                <use id="Mask" fill="#D8D8D8" xlink:href="#path-1"></use>
                <g id="yt" mask="url(#mask-2)" fill-rule="nonzero">
                    <polygon id="Path" fill="#EEEEEE" points="0 0 16 0 16 16 0 16"></polygon>
                    <path d="M3.53125,4.34375 C3.40625,4.34375 3.1875,4.40625 2.8125,4.59375 C2.66507778,4.66884805 2.5284344,4.76344731 2.40625,4.875 C1.53125,5.71875 1.78125,7 2.0625,7.34375 C2.15625,7.46875 2.5625,8.0625 3.0625,8.28125 C3.75,8.53125 4.1875,9.15625 4.21875,9.875 C4.21875,10.625 3.75,11.25 3.15625,11.3125 L3.03125,11.3125 C2.4375,11.3125 1.90625,10.71875 1.875,9.96875 L1.875,10.03125 C1.90625,10.9375 2.5,11.65625 3.21875,11.65625 C3.9375,11.65625 4.59375,11.28125 4.9375,10.65625 L5.09375,10.40625 C5.15998353,10.2685826 5.20225608,10.1206287 5.21875,9.96875 C5.34375,9.375 5.40625,7.78125 3.75,7 C2.5,6.375 2.34375,5.875 2.5,5.65625 C2.52563113,5.63339851 2.5595342,5.62209748 2.59375,5.625 C2.59331191,5.94109297 2.84059482,6.20211382 3.15625,6.21875 C3.27229932,6.21720664 3.3836499,6.17266641 3.46875,6.09375 C3.46875,6.09375 4.03125,6.65625 4.21875,6.4375 C4.40625,6.21875 4.21875,6.21875 4.03125,6 C3.875,5.78125 4.03125,5.34375 3.6875,5.125 C3.3125,4.90625 3.125,4.90625 3.3125,4.65625 C3.39767238,4.53003878 3.53571316,4.44951499 3.6875,4.4375 C3.6875,4.4375 3.6875,4.34375 3.53125,4.34375 L3.53125,4.34375 Z M12.5,4.34375 C12.34375,4.34375 12.34375,4.4375 12.34375,4.4375 C12.5,4.46875 12.625,4.53125 12.71875,4.65625 C12.875,4.90625 12.71875,4.90625 12.34375,5.125 C11.96875,5.34375 12.15625,5.78125 11.96875,6 C11.8125,6.21875 11.625,6.21875 11.8125,6.4375 C11.96875,6.65625 12.5625,6.09375 12.5625,6.09375 C12.6476001,6.17266641 12.7589507,6.21720664 12.875,6.21875 C13.1906552,6.20211382 13.4379381,5.94109297 13.4375,5.625 C13.4608805,5.62926336 13.482561,5.64010364 13.5,5.65625 C13.6875,5.875 13.53125,6.375 12.25,7 C10.625,7.78125 10.6875,9.375 10.78125,9.96875 L10.9375,10.40625 C10.9874951,10.4908704 11.0395947,10.5742297 11.09375,10.65625 C11.40625,11.28125 12.09375,11.6875 12.78125,11.65625 C13.53125,11.65625 14.125,10.9375 14.15625,10.03125 L14.15625,9.96875 C14.09375,10.71875 13.59375,11.3125 12.96875,11.3125 L12.84375,11.3125 C12.25,11.25 11.8125,10.625 11.8125,9.875 C11.84375,9.15625 12.28125,8.53125 12.9375,8.28125 C13.4375,8.0625 13.84375,7.46875 13.96875,7.34375 C14.21875,7 14.5,5.71875 13.625,4.875 C13.4931887,4.76104855 13.3458901,4.66635664 13.1875,4.59375 C12.8125,4.40625 12.625,4.34375 12.5,4.34375 L12.5,4.34375 Z M0.8125,6.21875 C0.78125,6.21875 0.75,6.25 0.75,6.3125 C0.6875,6.8125 0.71875,7.9375 1.78125,8.3125 C1.79731261,8.32325453 1.81744766,8.32597132 1.83578616,8.31985849 C1.85412467,8.31374565 1.86860263,8.29949119 1.875,8.28125 L2.0625,8.03125 L2.0625,7.90625 C1.90625,7.6875 1.375,6.9375 1.375,6.53125 L1.3125,6.46875 C1.13102963,6.4713056 0.958356236,6.39072469 0.84375,6.25 L0.8125,6.21875 L0.8125,6.21875 Z M15.1875,6.21875 L15.15625,6.25 C15.0416438,6.39072469 14.8689704,6.4713056 14.6875,6.46875 L14.625,6.53125 C14.625,6.9375 14.09375,7.6875 13.96875,7.90625 L13.96875,8.03125 L14.125,8.28125 C14.1313974,8.29949119 14.1458753,8.31374565 14.1642138,8.31985849 C14.1825523,8.32597132 14.2026874,8.32325453 14.21875,8.3125 C15.28125,7.9375 15.3125,6.8125 15.28125,6.3125 L15.1875,6.21875 Z" id="Shape" fill="#ACABB1"></path>
                    <path d="M6.59375,4.59375 C6.20542479,4.59375 5.890625,4.90854979 5.890625,5.296875 C5.890625,5.68520021 6.20542479,6 6.59375,6 C6.20542479,6 5.890625,6.31479979 5.890625,6.703125 C5.890625,7.09145021 6.20542479,7.40625 6.59375,7.40625 L8,8.40625 L9.40625,7.40625 C9.79457521,7.40625 10.109375,7.09145021 10.109375,6.703125 C10.109375,6.31479979 9.79457521,6 9.40625,6 C9.79457521,6 10.109375,5.68520021 10.109375,5.296875 C10.109375,4.90854979 9.79457521,4.59375 9.40625,4.59375 C9.01792479,4.59375 8.703125,4.90854979 8.703125,5.296875 C8.703125,4.90854979 8.38832521,4.59375 8,4.59375 C7.61167479,4.59375 7.296875,4.90854979 7.296875,5.296875 C7.296875,4.90854979 6.98207521,4.59375 6.59375,4.59375 Z" id="Path" fill="#0052B4"></path>
                    <path d="M6.59375,10.21875 C6.20542479,10.21875 5.890625,9.90395021 5.890625,9.515625 C5.890625,9.12729979 6.20542479,8.8125 6.59375,8.8125 C6.20542479,8.8125 5.890625,8.49770021 5.890625,8.109375 C5.890625,7.72104979 6.20542479,7.40625 6.59375,7.40625 L9.40625,7.40625 C9.79457521,7.40625 10.109375,7.72104979 10.109375,8.109375 C10.109375,8.49770021 9.79457521,8.8125 9.40625,8.8125 C9.79457521,8.8125 10.109375,9.12729979 10.109375,9.515625 C10.109375,9.90395021 9.79457521,10.21875 9.40625,10.21875 C9.01792479,10.21875 8.703125,9.90395021 8.703125,9.515625 C8.703125,9.90395021 8.38832521,10.21875 8,10.21875 C7.61167479,10.21875 7.296875,9.90395021 7.296875,9.515625 C7.296875,9.90395021 6.98207521,10.21875 6.59375,10.21875 Z" id="Path" fill="#D80027"></path>
                    <path d="M7.25,5.875 C7.2342852,5.92588214 7.22381408,5.97823772 7.21875,6.03125 C7.21875,6.23845038 7.30106003,6.43716438 7.44757283,6.58367717 C7.59408562,6.73018997 7.79279962,6.8125 8,6.8125 C8.43147246,6.8125 8.78125,6.46272246 8.78125,6.03125 C8.77618592,5.97823772 8.7657148,5.92588214 8.75,5.875 C8.66454988,6.22072501 8.35610777,6.46490835 8,6.46875 C7.64389223,6.46490835 7.33545012,6.22072501 7.25,5.875 L7.25,5.875 Z" id="Path" fill="#EEEEEE"></path>
                    <path d="M8.84375,7.9375 C8.77471441,7.9375 8.71875,7.99346441 8.71875,8.0625 L8.71875,8.3125 L8.5,8.1875 C8.48256103,8.17135364 8.46088047,8.16051336 8.4375,8.15625 C8.39810011,8.1610192 8.36330615,8.18421518 8.34375,8.21875 C8.32023148,8.24674618 8.31014992,8.28363609 8.31616097,8.31970234 C8.32217201,8.35576859 8.34367291,8.38739475 8.375,8.40625 L8.59375,8.53125 L8.375,8.625 C8.34367291,8.64385525 8.32217201,8.67548141 8.31616097,8.71154766 C8.31014992,8.74761391 8.32023148,8.78450382 8.34375,8.8125 C8.38158403,8.85906551 8.44716647,8.872182 8.5,8.84375 L8.71875,8.75 L8.71875,8.96875 C8.71875,9.03778559 8.77471441,9.09375 8.84375,9.09375 C8.91278559,9.09375 8.96875,9.03778559 8.96875,8.96875 L8.96875,8.75 L9.1875,8.84375 C9.24033353,8.872182 9.30591597,8.85906551 9.34375,8.8125 C9.36726852,8.78450382 9.37735008,8.74761391 9.37133903,8.71154766 C9.36532799,8.67548141 9.34382709,8.64385525 9.3125,8.625 L9.09375,8.53125 L9.3125,8.40625 C9.34382709,8.38739475 9.36532799,8.35576859 9.37133903,8.31970234 C9.37735008,8.28363609 9.36726852,8.24674618 9.34375,8.21875 C9.32419385,8.18421518 9.28939989,8.1610192 9.25,8.15625 C9.22661953,8.16051336 9.20493897,8.17135364 9.1875,8.1875 L8.96875,8.3125 L8.96875,8.0625 C8.96875,7.99346441 8.91278559,7.9375 8.84375,7.9375 Z M7.15625,7.9375 C7.08721441,7.9375 7.03125,7.99346441 7.03125,8.0625 L7.03125,8.3125 L6.8125,8.1875 C6.79506103,8.17135364 6.77338047,8.16051336 6.75,8.15625 C6.71060011,8.1610192 6.67580615,8.18421518 6.65625,8.21875 C6.63273148,8.24674618 6.62264992,8.28363609 6.62866097,8.31970234 C6.63467201,8.35576859 6.65617291,8.38739475 6.6875,8.40625 L6.90625,8.53125 L6.6875,8.625 C6.65617291,8.64385525 6.63467201,8.67548141 6.62866097,8.71154766 C6.62264992,8.74761391 6.63273148,8.78450382 6.65625,8.8125 C6.69408403,8.85906551 6.75966647,8.872182 6.8125,8.84375 L7.03125,8.75 L7.03125,8.96875 C7.03125,9.03778559 7.08721441,9.09375 7.15625,9.09375 C7.22528559,9.09375 7.28125,9.03778559 7.28125,8.96875 L7.28125,8.75 L7.5,8.84375 C7.55283353,8.872182 7.61841597,8.85906551 7.65625,8.8125 C7.67976852,8.78450382 7.68985008,8.74761391 7.68383903,8.71154766 C7.67782799,8.67548141 7.65632709,8.64385525 7.625,8.625 L7.40625,8.53125 L7.625,8.40625 C7.65632709,8.38739475 7.67782799,8.35576859 7.68383903,8.31970234 C7.68985008,8.28363609 7.67976852,8.24674618 7.65625,8.21875 C7.63669385,8.18421518 7.60189989,8.1610192 7.5625,8.15625 C7.53911953,8.16051336 7.51743897,8.17135364 7.5,8.1875 L7.28125,8.3125 L7.28125,8.0625 C7.28125,7.99346441 7.22528559,7.9375 7.15625,7.9375 L7.15625,7.9375 Z" id="Shape" fill="#FFDA44"></path>
                </g>
            </g>
        </g>
    </g>
</svg>