<?xml version="1.0" encoding="UTF-8"?>
<svg width="16px" height="16px" viewBox="0 0 16 16" version="1.1" xmlns="http://www.w3.org/2000/svg" xmlns:xlink="http://www.w3.org/1999/xlink">
    <title>za_flag_16px</title>
    <defs>
        <circle id="path-1" cx="8" cy="8" r="8"></circle>
    </defs>
    <g id="Design-System" stroke="none" stroke-width="1" fill="none" fill-rule="evenodd">
        <g id="Flags-16x16" transform="translate(-451.000000, -1705.000000)">
            <g id="flag" transform="translate(451.000000, 1705.000000)">
                <mask id="mask-2" fill="white">
                    <use xlink:href="#path-1"></use>
                </mask>
                <use id="Mask" fill="#D8D8D8" xlink:href="#path-1"></use>
                <g id="za" mask="url(#mask-2)" fill-rule="nonzero">
                    <polygon id="Path" fill="#EEEEEE" points="0 0 6 8 0 16 1.46875 16 16 10.09375 16 9.03125 15 8 16 6.96875 16 5.90625 1.46875 0"></polygon>
                    <polygon id="Path" fill="#333333" points="0 4.4375 0 11.5625 4.375 8"></polygon>
                    <polygon id="Path" fill="#FFDA44" points="6 8 0 2.96875 0 4.4375 3.5625 8 0 11.5625 0 13.03125"></polygon>
                    <polygon id="Path" fill="#6DA544" points="16 6.96875 6.96875 6.96875 0 0 0 2.9375 5.03125 8 0 13.0625 0 16 6.96875 9.03125 16 9.03125"></polygon>
                    <polygon id="Path" fill="#D80027" points="16 0 1.46875 0 7.375 5.90625 16 5.90625"></polygon>
                    <polygon id="Path" fill="#0052B4" points="16 16 1.46875 16 7.375 10.09375 16 10.09375"></polygon>
                </g>
            </g>
        </g>
    </g>
</svg>