<svg width="14" height="14" viewBox="0 0 14 14" xmlns="http://www.w3.org/2000/svg">
    <g transform="matrix(-1 0 0 1 14 0)" fill-rule="nonzero" fill="none">
        <circle fill="#FFF" cx="7" cy="7" r="7"/>
        <path d="M7 0a7 7 0 1 0 0 14A7 7 0 0 0 7 0zm.445 1.769 1.952-.66 2.467 1.654-.004 2.219-1.93.467L7.445 3.59V1.77zm-3.02-.708 2.145.715v1.803L4.05 5.444l-1.895-.462-.005-2.233 2.274-1.688zm-3.003 9.22-.787-2.79 1.26-1.672 1.798.439.975 3.072-1.123 1.648-2.123-.697zm6.88 3.1c-.003.005-.004.012-.008.018H5.57c-.003-.006-.004-.013-.008-.018l-1.31-1.888L5.305 9.95h3.366l.95 1.533-1.318 1.899zm5.07-5.9-.918 2.797-2.12.695-1.008-1.627.987-3.09 1.807-.437 1.252 1.663z" fill="#353535"/>
    </g>
</svg>
