<?xml version="1.0" encoding="UTF-8"?>
<svg width="34px" height="34px" viewBox="0 0 34 34" version="1.1" xmlns="http://www.w3.org/2000/svg" xmlns:xlink="http://www.w3.org/1999/xlink">
    <title>btn_groups_normal</title>
    <g id="Design-System" stroke="none" stroke-width="1" fill="none" fill-rule="evenodd">
        <g id="buttons+icons" transform="translate(-250.000000, -1042.000000)">
            <g id="video_buttons" transform="translate(50.000000, 992.000000)">
                <g id="btn_groups_normal" transform="translate(200.000000, 50.000000)">
                    <circle id="shape" stroke="#FFFFFF" stroke-width="2" fill-opacity="0.5" fill="#000000" cx="17" cy="17" r="16"></circle>
                    <path d="M16,9 L26,9 L26,11 L16,11 L16,9 Z M16,13 L22,13 L22,15 L16,15 L16,13 Z M16,19 L26,19 L26,21 L16,21 L16,19 Z M16,23 L22,23 L22,25 L16,25 L16,23 Z M8,9 L14,9 L14,15 L8,15 L8,9 Z M10,11 L10,13 L12,13 L12,11 L10,11 Z M8,19 L14,19 L14,25 L8,25 L8,19 Z M10,21 L10,23 L12,23 L12,21 L10,21 Z" id="groups_icon" fill="#FFFFFF" fill-rule="nonzero"></path>
                </g>
            </g>
        </g>
    </g>
</svg>