<?xml version="1.0" encoding="UTF-8"?>
<svg width="34px" height="34px" viewBox="0 0 34 34" version="1.1" xmlns="http://www.w3.org/2000/svg" xmlns:xlink="http://www.w3.org/1999/xlink">
    <title>btn_sound_on_hover</title>
    <g id="Design-System" stroke="none" stroke-width="1" fill="none" fill-rule="evenodd">
        <g id="buttons+icons" transform="translate(-190.000000, -1042.000000)">
            <g id="video_buttons" transform="translate(50.000000, 992.000000)">
                <g id="btn_sound_on_hover" transform="translate(140.000000, 50.000000)">
                    <circle id="shape" stroke="#CCCCCC" stroke-width="2" fill-opacity="0.5" fill="#FFFFFF" cx="17" cy="17" r="16"></circle>
                    <path d="M19.3107226,8.69230661 C19.3107226,8.44292358 19.1782182,8.2128144 18.9638475,8.08991597 C18.7494768,7.96700784 18.4863693,7.97031014 18.2750899,8.09855596 L11.598178,12.1511443 L9.05178711,12.1511443 C7.91813096,12.1511443 7,13.0790026 7,14.2270424 L7,19.7692274 C7,20.9166579 7.91747712,21.84615 9.05178711,21.84615 L11.5980686,21.84615 L18.2749121,25.9012722 C18.4862052,26.029626 18.74934,26.0330876 18.9637654,25.9101338 C19.1781772,25.7871799 19.3107226,25.5570569 19.3107226,25.3076877 L19.3107226,8.69230661 Z M24.4745054,12.7577323 C26.8138322,15.0970591 26.8130862,18.9036869 24.4741324,21.2426407 L24.4741324,21.2426407 L23.8214185,20.5899267 C25.8004472,18.610898 25.8011931,15.3898479 23.8217914,13.4104462 L23.8217914,13.4104462 Z M23.1687045,14.0627872 C24.788927,15.6830097 24.788554,18.3173632 23.1687045,19.9372128 L23.1687045,19.9372128 L22.5159906,19.2844988 C23.775542,18.0249474 23.775542,15.9750526 22.5159906,14.7155012 L22.5159906,14.7155012 Z M21.8636496,15.3685881 C22.7629029,16.2678414 22.7632759,17.7317856 21.8632766,18.6317849 L21.8632766,18.6317849 L21.2105627,17.9790709 C21.7502638,17.4393697 21.7510098,16.5613762 21.2109356,16.0213021 L21.2109356,16.0213021 Z" id="sound_on_icon" fill="#CCCCCC" fill-rule="nonzero"></path>
                </g>
            </g>
        </g>
    </g>
</svg>