<?xml version="1.0" encoding="UTF-8"?>
<svg width="34px" height="34px" viewBox="0 0 34 34" version="1.1" xmlns="http://www.w3.org/2000/svg" xmlns:xlink="http://www.w3.org/1999/xlink">
    <title>btn_off_hover</title>
    <g id="Design-System" stroke="none" stroke-width="1" fill="none" fill-rule="evenodd">
        <g id="buttons+icons" transform="translate(-90.000000, -1042.000000)">
            <g id="video_buttons" transform="translate(50.000000, 992.000000)">
                <g id="btn_off_hover" transform="translate(40.000000, 50.000000)">
                    <circle id="shape" stroke="#CCCCCC" stroke-width="2" fill-opacity="0.5" fill="#FFFFFF" cx="17" cy="17" r="16"></circle>
                    <path d="M20.1578947,8.48341 C24.1332632,9.73934 27,13.30162 27,17.5 C27,22.7467 22.5228421,27 17,27 C11.4771474,27 7,22.7467 7,17.5 C7,13.30162 9.86675789,9.73933 13.8421053,8.48341 L13.8421053,8.48341 L13.8421053,10.62407 C11.0538316,11.7814 9.10526316,14.42452 9.10526316,17.5 C9.10526316,21.6421 12.6398526,25 17,25 C21.3601053,25 24.8947368,21.6421 24.8947368,17.5 C24.8947368,14.42452 22.9462105,11.7814 20.1578947,10.62407 L20.1578947,10.62407 Z M18.0526316,7 L18.0526316,19.5 L15.9473684,19.5 L15.9473684,7 L18.0526316,7 Z" id="power_icon_off_hover" fill="#CCCCCC" fill-rule="nonzero"></path>
                </g>
            </g>
        </g>
    </g>
</svg>