<?xml version="1.0" encoding="UTF-8"?>
<svg width="34px" height="34px" viewBox="0 0 34 34" version="1.1" xmlns="http://www.w3.org/2000/svg" xmlns:xlink="http://www.w3.org/1999/xlink">
    <title>btn_champ_normal</title>
    <g id="Design-System" stroke="none" stroke-width="1" fill="none" fill-rule="evenodd">
        <g id="buttons+icons" transform="translate(-350.000000, -992.000000)">
            <g id="video_buttons" transform="translate(50.000000, 992.000000)">
                <g id="btn_champ_normal" transform="translate(300.000000, 0.000000)">
                    <circle id="shape" stroke="#FFFFFF" stroke-width="2" fill-opacity="0.5" fill="#000000" cx="17" cy="17" r="16"></circle>
                    <path d="M17.8571429,23.8823529 L17.8571429,26 L11,26 L11,23.8823529 L17.8571429,23.8823529 Z M21.2857143,20.7058824 L21.2857143,22.8235294 L14.4285714,22.8235294 L14.4285714,20.7058824 L21.2857143,20.7058824 Z M17.8571429,17.5294118 L17.8571429,19.6470588 L11,19.6470588 L11,17.5294118 L17.8571429,17.5294118 Z M27,15.4117647 L27,18.5882353 L20.1428571,18.5882353 L20.1428571,15.4117647 L27,15.4117647 Z M17.8571429,14.3529412 L17.8571429,16.4705882 L11,16.4705882 L11,14.3529412 L17.8571429,14.3529412 Z M21.2857143,11.1764706 L21.2857143,13.2941176 L14.4285714,13.2941176 L14.4285714,11.1764706 L21.2857143,11.1764706 Z M17.8571429,8 L17.8571429,10.1176471 L11,10.1176471 L11,8 L17.8571429,8 Z" id="champ_icon" fill="#FFFFFF"></path>
                </g>
            </g>
        </g>
    </g>
</svg>