<svg width="16" height="24" viewBox="0 0 16 24" xmlns="http://www.w3.org/2000/svg">
    <path d="M15.363.763h-2.518v-.09c0-.372-.286-.673-.638-.673H3.793c-.352 0-.638.301-.638.673v.09H.637C.285.763 0 1.064 0 1.436v3.679C0 7.65 1.3 9.067 3.664 9.116c.222.58.513 1.108.87 1.563a4.674 4.674 0 0 0 1.777 1.414v3.453H3.793c-.352 0-.638.3-.638.673v-.238c0 .372.286.673.638.673h8.414c.352 0 .638-.301.638-.673v.238c0-.372-.286-.673-.638-.673H9.69v-3.453a4.675 4.675 0 0 0 1.777-1.414c.357-.455.648-.983.87-1.563C14.7 9.066 16 7.651 16 5.115v-3.68c0-.371-.285-.672-.637-.672zM1.275 5.115V2.109h1.88v4.116c0 .524.046 1.034.132 1.521-1.386-.153-2.012-.982-2.012-2.631zm6.31 10.43v-3.117c.138.014.275.022.415.022.14 0 .277-.008.414-.022v3.118h-.828zm5.128-7.799a8.71 8.71 0 0 0 .132-1.521V2.109h1.88v3.006c0 1.65-.626 2.478-2.012 2.631zM1.857 23.94h-.846v-3.397L0 20.868v-.716l1.767-.659h.09v4.446zm7.636 0H6.569v-.604l1.38-1.53c.19-.216.33-.404.42-.565a.933.933 0 0 0 .136-.457c0-.197-.047-.352-.143-.465-.096-.113-.233-.17-.41-.17a.55.55 0 0 0-.453.207c-.11.137-.166.317-.166.54h-.85c0-.27.063-.517.187-.74.124-.224.3-.4.526-.526.226-.127.483-.19.77-.19.44 0 .781.109 1.024.329.243.22.365.53.365.93 0 .22-.055.443-.164.67-.11.228-.297.493-.563.796l-.97 1.065h1.835v.71zm4.47-2.61h.452c.215 0 .374-.056.478-.168a.63.63 0 0 0 .155-.445c0-.179-.051-.318-.154-.418-.102-.1-.244-.15-.423-.15a.609.609 0 0 0-.408.14.45.45 0 0 0-.164.36h-.846c0-.23.06-.439.18-.623s.288-.328.504-.431c.216-.104.453-.156.713-.156.451 0 .805.113 1.06.337.257.225.385.534.385.929a.96.96 0 0 1-.18.56c-.118.172-.275.303-.468.394.24.09.42.224.538.403.118.179.177.39.177.634 0 .394-.138.71-.415.948-.276.238-.642.357-1.097.357-.426 0-.774-.117-1.044-.35-.27-.234-.406-.543-.406-.928h.847c0 .167.06.303.18.409.12.106.268.159.444.159.2 0 .359-.056.473-.167a.586.586 0 0 0 .171-.44c0-.443-.234-.665-.703-.665h-.448v-.69z" fill="#FFF" fill-rule="nonzero"/>
</svg>
