<svg width="20" height="20" viewBox="0 0 20 20" xmlns="http://www.w3.org/2000/svg">
    <path d="M5.466 0c.5 0 .93.166 1.286.497.357.331.535.73.535 1.195v1.015h4.373V1.692c0-.465.178-.864.535-1.195A1.824 1.824 0 0 1 13.482 0h.729c.5 0 .93.166 1.286.497.357.331.535.73.535 1.195v1.015h1.458c.395 0 .736.134 1.025.402.288.267.432.585.432.951l.001 10.43-.017-.016A3.15 3.15 0 0 1 20 16.842 3.161 3.161 0 0 1 16.842 20a3.15 3.15 0 0 1-2.382-1.085l.03.033H1.456c-.394 0-.736-.135-1.024-.402C.144 18.278 0 17.96 0 17.594V4.06c0-.366.144-.684.433-.951.288-.268.63-.402 1.024-.402h1.458V1.692c0-.465.178-.864.535-1.195A1.824 1.824 0 0 1 4.737 0h.729zm11.376 14.316a2.526 2.526 0 1 0 0 5.052 2.526 2.526 0 0 0 0-5.052zm.648-8.55H1.457v11.828h12.317l.007.027a3.158 3.158 0 0 1 3.74-3.863l-.031-.007V5.767zm-.332 9.497v1.263h1.263v.632h-1.895v-1.895h.632zM9.47 13.821c.146 0 .266.044.362.133a.449.449 0 0 1 .143.345c0 .14-.047.253-.142.34a.515.515 0 0 1-.363.132.51.51 0 0 1-.361-.131.443.443 0 0 1-.142-.341c0-.142.048-.257.143-.345a.509.509 0 0 1 .36-.133zm-2.042-3.58v4.496h-.891V11.3l-1.064.33v-.724l1.86-.666h.095zm4.712-.056c.463 0 .822.111 1.078.333.256.222.384.536.384.94 0 .223-.058.449-.173.68-.115.23-.312.498-.592.804l-1.02 1.076h1.93v.719H10.67v-.61l1.453-1.549c.2-.218.347-.408.442-.57a.917.917 0 0 0 .144-.463c0-.2-.05-.356-.151-.47-.101-.114-.245-.171-.432-.171-.202 0-.36.069-.477.208-.116.139-.174.321-.174.547h-.894c0-.273.065-.523.196-.75a1.38 1.38 0 0 1 .553-.531c.239-.129.509-.193.811-.193zm-2.67 1.11c.146 0 .266.044.362.133a.449.449 0 0 1 .143.345c0 .14-.047.254-.142.341a.515.515 0 0 1-.363.131.51.51 0 0 1-.361-.131.443.443 0 0 1-.142-.34c0-.143.048-.258.143-.346a.509.509 0 0 1 .36-.133zM5.466 1.353h-.73a.37.37 0 0 0-.261.096.317.317 0 0 0-.103.243v3.045c0 .099.035.18.103.243a.37.37 0 0 0 .262.095h.729a.37.37 0 0 0 .261-.095.317.317 0 0 0 .103-.243V1.692a.317.317 0 0 0-.103-.243.37.37 0 0 0-.261-.096zm8.745 0h-.73a.37.37 0 0 0-.261.096.317.317 0 0 0-.103.243v3.045c0 .099.035.18.103.243a.37.37 0 0 0 .262.095h.729a.37.37 0 0 0 .261-.095.317.317 0 0 0 .103-.243V1.692a.317.317 0 0 0-.103-.243.37.37 0 0 0-.261-.096z" fill="#FFF" fill-rule="nonzero"/>
</svg>
