<svg width="32" height="32" viewBox="0 0 32 32" xmlns="http://www.w3.org/2000/svg">
    <path d="M16.65 31.789c-2.128 1.106-4.051-2.434-1.614-3.57 2.382-1.111 3.934 2.364 1.614 3.57zM16 0c8.837 0 16 7.196 16 16.073 0 7.397-5.017 13.788-12.057 15.58a.315.315 0 0 1-.154-.611c6.763-1.722 11.584-7.862 11.584-14.97C31.373 7.545 24.49.63 16 .63 7.51.63.627 7.544.627 16.073c0 2.59.635 5.086 1.831 7.315a.316.316 0 0 1-.127.427.313.313 0 0 1-.425-.128A16.059 16.059 0 0 1 0 16.073C0 7.196 7.163 0 16 0zm-3.73 3.251c.68.23 1.612.719 1.607 1.44-.004.766-.126 1.528-.19 2.292 1.005.196 1.519.223 2.469.773.625.363 1.15.883 1.767 1.258.224.136.458.26.697.38l.48.24c.719.359 1.423.738 1.895 1.365.26.346.193 1.038.107 1.37-.238.916-.628 1.787-.873 2.7-.333 1.238.126 2.575.413 3.824-.76.118-1.585.458-1.828-.598-.139-.602-.22-1.228-.178-1.844.058-.867.367-1.7.476-2.562.085-.668.106-1.36-.541-1.784a1.71 1.71 0 0 0-.54-.212l-.386-.088-.189-.052c.118 1.6.454 3.2.352 4.801-.083 1.32-.756 2.547-.9 3.861-.198 1.815.562 3.386-.31 4.95-.71 1.271-1.345.028-1.654-.624-.66.917-3.026 2.526-3.447.5-.236-1.136.638-1.91.963-2.87.185-.545.226-1.128.34-1.693-.225.236-.397.538-.675.708-.465.285-1.062.317-1.509.631-.452.319-.797.777-1.126 1.224-.562.765-.333 1.662-.551 2.546-.16.647-.551 1.224-.686 1.876-.092.45-.136.906-.168 1.365l-.058.918-.038.458c-1.107.022-2.215.111-3.322.067-.203-.008-.386-.337-.193-.496.778-.646 1.584-.747 1.991-1.703.225-.526.247-1.073.237-1.624l-.015-.552a5.721 5.721 0 0 1 .052-1.097c.143-.847.42-1.67.735-2.47.122-.31.435-.519.561-.827.481-1.175.665-2.481 1.302-3.578.445-.766 1.114-1.389 1.532-2.17.164-.306.043-.709.18-1.029.146-.338.54-.542.647-.894.12-.396.07-.835 0-1.243-.083-.481-.675-.842-.98-1.096l-.123 1.785c-.448.102-.544.745-.811 1.121-.495.697-1.173 1.251-1.655 1.956-.117.172-.21.364-.296.56l-.171.392c-.147.323-.313.627-.59.833l-.186-.477c-.964.464-.238.676-.396 1.093-.067.177-.286.246-.429.37-.198-.56-.332-1.247-.069-1.778.302-.608.888-1.04 1.198-1.644C7.8 14.71 8.36 13.477 8.74 12.19c.322-1.093.278-2.266.536-3.376.128-.549 1.135-1.298 1.394-1.533-.174-.42-.38-.828-.52-1.26-.055-.166.204-.31.198-.484-.015-.48-.163-.944-.245-1.416.65-.109.213-.923.95-.954.407-.018.832-.046 1.218.084zm16.045 18.752c.173 0 .314.224.314.5 0 .256-.121.468-.277.497l-.037.003h-3.85c-.173 0-.314-.224-.314-.5 0-.256.121-.468.277-.497l.037-.003h3.85zm-5.771 0c.259 0 .468.224.468.5A.49.49 0 0 1 22.6 23l-.055.003h-.064c-.258 0-.468-.224-.468-.5a.49.49 0 0 1 .414-.497l.054-.003h.064zm5.771-2.149c.173 0 .314.224.314.5 0 .257-.121.468-.277.497l-.037.003h-3.85c-.173 0-.314-.224-.314-.5 0-.256.121-.467.277-.496l.037-.004h3.85zm-5.771 0c.259 0 .468.224.468.5a.49.49 0 0 1-.413.497l-.055.003h-.064c-.258 0-.468-.224-.468-.5a.49.49 0 0 1 .414-.496l.054-.004h.064zm5.771-2.148c.173 0 .314.223.314.5 0 .256-.121.467-.277.496l-.037.004h-3.85c-.173 0-.314-.224-.314-.5 0-.257.121-.468.277-.497l.037-.003h3.85zm-5.771 0c.259 0 .468.223.468.5a.49.49 0 0 1-.413.496l-.055.004h-.064c-.258 0-.468-.224-.468-.5a.49.49 0 0 1 .414-.497l.054-.003h.064z" fill="#000" fill-rule="nonzero"/>
</svg>
