<?xml version="1.0" encoding="UTF-8"?>
<svg width="34px" height="34px" viewBox="0 0 34 34" version="1.1" xmlns="http://www.w3.org/2000/svg" xmlns:xlink="http://www.w3.org/1999/xlink">
    <title>tshirt_icon_34px</title>
    <g id="05---Virtual-Forecasts" stroke="none" stroke-width="1" fill="none" fill-rule="evenodd">
        <g id="05-elgbet_sb_virtualforecasts_1024" transform="translate(-46.000000, -94.000000)">
            <g id="sections" transform="translate(18.000000, 74.000000)">
                <g id="section_1" transform="translate(10.000000, 10.000000)">
                    <g id="tshirt_icon_34px" transform="translate(18.000000, 10.000000)">
                        <g id="Group" fill-rule="nonzero">
                            <path d="M26.7228859,30.776375 C30.8465441,27.7082848 33.2750694,22.8697544 33.2710783,17.7299375 C33.2710783,8.7454375 25.9865734,1.4609375 17.0010109,1.4609375 C8.01544842,1.4609375 0.730945015,8.7454375 0.730945015,17.731 C0.727624898,22.8700689 3.15607864,27.7076686 7.27913592,30.7753125 L26.7250109,30.7753125 L26.7228859,30.776375 Z" id="Path" fill="#5FC6FF"></path>
                            <path d="M29.7541984,3.9110625 C29.6709739,3.80631254 29.5811895,3.70694643 29.4853859,3.6135625 C29.2781984,3.9599375 29.0816359,4.3126875 28.8967609,4.67075 L21.8736359,1.884875 C20.9881616,3.77561772 19.0888263,4.9834228 17.0010109,4.9834228 C14.9131956,4.9834228 13.0138603,3.77561772 12.1283859,1.884875 L5.10526092,4.67075 C4.92047086,4.31191536 4.72379968,3.95932469 4.51557342,3.6135625 C4.44215737,3.68554502 4.37230321,3.76107261 4.30626092,3.839875 C4.88851092,4.5475 7.07726092,7.6021875 7.10807342,13.583 C7.18669842,13.576625 7.26744842,13.6255 7.28232342,13.7200625 C8.13763592,19.2046875 7.74982342,25.740125 7.18988592,30.7094375 C10.012625,32.8491743 13.4589357,34.0046625 17.0010109,33.9989587 C20.6857609,33.9989587 24.0836359,32.773875 26.8110734,30.7094375 C26.2511359,25.740125 25.8633234,19.2046875 26.7186359,13.7200625 C26.7420109,13.572375 26.9258234,13.5394375 27.0076359,13.6425 C27.0235734,7.805125 29.0954484,4.73875 29.7541984,3.9110625 Z" id="Path" fill="#FFC82E"></path>
                            <path d="M12.2526984,0.316625 L12.1570734,0.359125 L11.7044484,0.5355 C11.8128234,1.000875 12.1113859,1.396125 12.3100734,1.819 L5.10526092,4.67075 C4.92079559,4.31229061 4.7244791,3.96005489 4.51663592,3.614625 C4.29734263,3.82683168 4.11014629,4.06986479 3.96094842,4.3360625 C2.47344842,6.993375 0.681010922,11.5993125 0.0456359222,13.279125 C-0.0182677813,13.447306 -0.0123533654,13.6340443 0.0620649109,13.7978443 C0.136483187,13.9616443 0.273240787,14.0889374 0.441948422,14.1514375 L5.40169842,15.986375 C5.56977165,16.0487905 5.75577597,16.0417427 5.91864409,15.9667874 C6.0815122,15.8918322 6.20784898,15.7551344 6.26976092,15.586875 L6.96782342,13.6903125 C7.02626092,13.5309375 7.25682342,13.5543125 7.28338592,13.721125 C8.13869842,19.2046875 7.75088592,25.740125 7.19094842,30.7105 C9.14176357,32.1891282 11.4023916,33.2062837 13.8028859,33.6855 C12.3918859,32.2606875 11.4228859,30.532 11.6810734,28.5483125 C12.4577609,22.578125 11.3102609,11.7756875 10.4698234,8.63175 C9.62726092,5.488875 15.1947609,4.8035625 15.1947609,4.8035625 C15.4285109,3.5434375 16.6365734,3.6635 16.6365734,3.6635 L16.6365734,0 L13.7646359,0 C13.2440109,0 12.7297609,0.1073125 12.2526984,0.316625 Z" id="Path" fill="#F7B126"></path>
                            <path d="M21.9841359,8.91225 C22.5330299,8.91225 23.0402288,8.61941859 23.3146757,8.14406251 C23.5891227,7.66870643 23.5891227,7.08304357 23.3146757,6.60768749 C23.0402288,6.13233141 22.5330299,5.8395 21.9841359,5.8395 C21.1356194,5.8395 20.4477609,6.52735852 20.4477609,7.375875 C20.4477609,8.22439148 21.1356194,8.91225 21.9841359,8.91225 Z" id="Path" fill="#DD2A44"></path>
                            <path d="M21.9841359,8.1015625 C22.2502143,8.11174184 22.5005553,7.97559477 22.6366202,7.7467112 C22.772685,7.51782764 22.772685,7.23285986 22.6366202,7.0039763 C22.5005553,6.77509273 22.2502143,6.63894566 21.9841359,6.649125 C21.5938585,6.66405582 21.2851688,6.98478088 21.2851688,7.37534375 C21.2851688,7.76590662 21.5938585,8.08663168 21.9841359,8.1015625 L21.9841359,8.1015625 Z" id="Path" fill="#CC1F41"></path>
                            <path d="M27.8183234,7.367375 L21.0480734,12.097625 C20.9152609,12.191125 20.9864484,12.386625 21.1543234,12.386625 L24.6733234,12.386625 L27.0469484,10.69725 C27.1989871,9.56554053 27.457252,8.45066144 27.8183234,7.367375 L27.8183234,7.367375 Z" id="Path" fill="#DD2A44"></path>
                            <path d="M26.8843859,13.121875 C26.8843859,12.2856875 26.9417609,11.4548125 27.0543859,10.6345625 L21.0597609,14.7209375 C20.9248234,14.813375 20.9960109,15.011 21.1638859,15.011 L24.6733234,15.011 L26.8833234,13.43425 L26.8833234,13.121875 L26.8843859,13.121875 Z" id="Path" fill="#12379E"></path>
                            <path d="M12.9528859,12.097625 L6.18476092,7.367375 C6.54576757,8.45031691 6.80403179,9.56483728 6.95613592,10.6961875 L9.32976092,12.3855625 L12.8498234,12.3855625 C13.0166359,12.3855625 13.0878234,12.191125 12.9539484,12.0986875 L12.9528859,12.097625 Z" id="Path" fill="#DD2A44"></path>
                            <path d="M12.9422609,14.7209375 L6.94551092,10.635625 C7.05919842,11.455875 7.11657342,12.28675 7.11657342,13.1229375 L7.11657342,13.4353125 L9.32763592,15.0120625 L12.8370734,15.0120625 C13.0049484,15.0120625 13.0750734,14.8144375 12.9401359,14.722 L12.9422609,14.7209375 Z" id="Path" fill="#12379E"></path>
                            <path d="M12.9411984,17.333625 L7.11869842,13.3673125 L7.11869842,13.583 C7.20065348,13.5800879 7.27144091,13.6398435 7.28232342,13.721125 C7.41513592,14.571125 7.51819842,15.4455625 7.59469842,16.334875 L9.47851092,17.5323125 C9.57327261,17.5921342 9.68307166,17.6238212 9.79513592,17.6236879 L12.8381359,17.6236879 C13.0060109,17.6236879 13.0761359,17.4260625 12.9411984,17.333625 L12.9411984,17.333625 Z M26.8843859,13.3673125 L21.0618859,17.333625 C20.9258859,17.4260625 20.9960109,17.6236875 21.1638859,17.6236875 L24.2068859,17.6236875 C24.3195109,17.6236875 24.4300109,17.5918125 24.5235109,17.533375 L26.4073234,16.3359375 C26.4838234,15.4455625 26.5868859,14.5700625 26.7196984,13.721125 C26.7306156,13.6394231 26.8020311,13.5795262 26.8843859,13.583 L26.8843859,13.3673125 L26.8843859,13.3673125 Z" id="Shape" fill="#DD2A44"></path>
                            <path d="M17.4281359,8.3098125 L16.5728234,8.3098125 C16.2547764,8.3098125 15.9969484,8.05198448 15.9969484,7.7339375 C15.9969484,7.41589052 16.2547764,7.1580625 16.5728234,7.1580625 L17.4291984,7.1580625 C17.7472454,7.1580625 18.0050734,7.41589052 18.0050734,7.7339375 C18.0050734,8.05198448 17.7472454,8.3098125 17.4291984,8.3098125 L17.4281359,8.3098125 Z M28.4473234,2.94525 L22.3220109,0.544 C22.2433859,1.064625 21.9490734,1.506625 21.7333859,1.9666875 L28.8967609,4.8035625 C29.0965109,4.4168125 29.3090109,4.0364375 29.5353234,3.6635 C29.226946,3.35054671 28.8562788,3.10584849 28.4473234,2.94525 Z" id="Shape" fill="#12379E"></path>
                            <path d="M24.8996359,1.5555 L22.3220109,0.5450625 C22.2433859,1.064625 21.9490734,1.506625 21.7333859,1.9666875 L24.4416984,3.0398125 C24.2053611,2.81196472 24.1173655,2.47050444 24.2141456,2.15681102 C24.3109258,1.84311759 24.5760077,1.61058817 24.8996359,1.5555 Z" id="Path" fill="#052C7A"></path>
                            <path d="M11.6800109,0.5450625 L5.55576092,2.9463125 C5.14654884,3.10652344 4.77552703,3.35085488 4.46669842,3.6635 C4.69407342,4.0364375 4.90657342,4.417875 5.10419842,4.8035625 L12.3100734,1.95075 C12.0943859,1.49175 11.7586359,1.064625 11.6800109,0.5450625 L11.6800109,0.5450625 Z" id="Path" fill="#12379E"></path>
                            <path d="M9.79619842,2.9463125 L12.3100734,1.95075 C12.0943859,1.49175 11.7586359,1.064625 11.6800109,0.5450625 L9.13213592,1.5438125 C9.45966479,1.55287263 9.75433989,1.74514365 9.89455594,2.04127994 C10.034772,2.33741623 9.99675684,2.68721104 9.79619842,2.9463125 Z" id="Path" fill="#052C7A"></path>
                            <path d="M33.5600734,14.1525 L28.6003234,15.986375 C28.4322502,16.0487905 28.2462459,16.0417427 28.0833778,15.9667874 C27.9205096,15.8918322 27.7941729,15.7551344 27.7322609,15.586875 L27.0341984,13.6903125 C27.0116101,13.6264215 26.9510893,13.5838013 26.8833234,13.5840625 L26.8833234,13.121875 C26.8833234,9.777125 27.8055734,6.50675 29.5353234,3.6635 C29.7318859,3.86325 29.9029484,4.0885 30.0410734,4.3360625 C31.5285734,6.993375 33.3210109,11.5993125 33.9574484,13.2801875 C34.0209659,13.4483762 34.0147302,13.6349597 33.9401252,13.7985323 C33.8655201,13.9621048 33.7287166,14.0891367 33.5600734,14.1514375 L33.5600734,14.1525 Z" id="Path" fill="#FFE266"></path>
                            <path d="M0.441948422,14.1525 L5.40169842,15.986375 C5.56964166,16.04846 5.7553761,16.0412416 5.91799432,15.9663097 C6.08061254,15.8913778 6.2067763,15.7548784 6.26869842,15.586875 L6.96782342,13.6903125 C6.99028193,13.6267894 7.05025988,13.5842519 7.11763592,13.5840625 L7.11763592,13.121875 C7.11763592,9.777125 6.19644842,6.50675 4.46669842,3.6635 C4.27013592,3.86325 4.09907342,4.0885 3.96094842,4.3360625 C2.47344842,6.993375 0.681010922,11.5993125 0.0435109222,13.2801875 C-0.020006545,13.4483762 -0.0137708568,13.6349597 0.0608341857,13.7985323 C0.135439228,13.9621048 0.272242789,14.0891367 0.440885922,14.1514375 L0.441948422,14.1525 Z" id="Path" fill="#FFC82E"></path>
                            <path d="M21.8460109,0.3580625 L21.7493234,0.3155625 C21.621416,0.260164218 21.4905264,0.211923047 21.3572609,0.1710625 C20.8403681,2.15429207 19.0494307,3.53828304 16.9999484,3.53828304 C14.9504661,3.53828304 13.1595287,2.15429207 12.6426359,0.1710625 C12.5097386,0.211984977 12.379206,0.260225291 12.2516359,0.3155625 L12.1560109,0.3580625 L11.6789484,0.5450625 C12.0801739,3.17374341 14.3408235,5.11552318 16.9999484,5.11552318 C19.6590733,5.11552318 21.9197229,3.17374341 22.3209484,0.5450625 L21.8460109,0.3580625 Z" id="Path" fill="#2050BC"></path>
                            <path d="M12.6447609,0.172125 C12.5114541,0.212862952 12.3805577,0.261106632 12.2526984,0.316625 L12.1772609,0.3495625 L12.1560109,0.359125 L11.6800109,0.5450625 C11.9800634,2.50233202 13.3297376,4.13720036 15.1947609,4.8025 C15.4285109,3.5445 16.6365734,3.6635 16.6365734,3.6635 L16.6365734,3.5306875 C14.72736,3.37429633 13.1259674,2.02737048 12.6447609,0.1731875 L12.6447609,0.172125 Z" id="Path" fill="#12379E"></path>
                            <path d="M21.3891359,0.180625 C21.0169043,0.0610738426 20.6283448,0.000137391718 20.2373859,0 L13.7646359,0 C13.3733221,4.44468854e-05 12.9843983,0.0609818096 12.6118234,0.180625 C13.0815012,2.22600759 14.9018642,3.67574031 17.0004797,3.67574031 C19.0990952,3.67574031 20.9194582,2.22600759 21.3891359,0.180625 L21.3891359,0.180625 Z" id="Path" fill="#F7B126"></path>
                            <path d="M20.2373859,0 L17.0753859,0 C17.5779694,0.512073391 17.8207967,1.22468451 17.7354646,1.93709433 C17.6501324,2.64950416 17.2458764,3.28460791 16.6365734,3.6635 C18.8664139,3.84499905 20.891203,2.36148127 21.3901984,0.180625 C21.0176315,0.0609481059 20.6287025,0 20.2373859,0 L20.2373859,0 Z" id="Path" fill="#F49E21"></path>
                            <path d="M3.08757342,15.13 L5.40169842,15.986375 C5.56977778,16.0484065 5.75562779,16.041039 5.91826931,15.9658971 C6.08091083,15.8907551 6.20698695,15.7540096 6.26869842,15.5858125 L6.96782342,13.68925 C6.99028193,13.6257269 7.05025988,13.5831894 7.11763592,13.583 L7.11763592,13.1208125 C7.11763592,11.1530625 6.79888592,9.2108125 6.18263592,7.367375 L3.08863592,15.13 L3.08757342,15.13 Z" id="Path" fill="#F7B126"></path>
                            <path d="M30.9144484,15.13 L28.6003234,15.986375 C28.4322441,16.0484065 28.2463941,16.041039 28.0837525,15.9658971 C27.921111,15.8907551 27.7950349,15.7540096 27.7333234,15.5858125 L27.0341984,13.68925 C27.0117399,13.6257269 26.951762,13.5831894 26.8843859,13.583 L26.8843859,13.1208125 C26.8843859,11.1530625 27.2031359,9.2108125 27.8193859,7.367375 L30.9144484,15.13 L30.9144484,15.13 Z" id="Path" fill="#FFC82E"></path>
                        </g>
                        <path d="M27.6260109,26.5625 C27.0392084,26.5625 26.5635109,27.0381975 26.5635109,27.625 L26.5635109,32.9375 C26.5635109,33.5243025 27.0392084,34 27.6260109,34 L32.9385109,34 C33.5253135,34 34.0010109,33.5243025 34.0010109,32.9375 L34.0010109,27.625 C34.0010109,27.0381975 33.5253135,26.5625 32.9385109,26.5625 L27.6260109,26.5625 Z" id="Path" fill="#000000"></path>
                        <path d="M27.6260109,26.5625 C27.0392084,26.5625 26.5635109,27.0381975 26.5635109,27.625 L26.5635109,32.9375 C26.5635109,33.5243025 27.0392084,34 27.6260109,34 L32.9385109,34 C33.5253135,34 34.0010109,33.5243025 34.0010109,32.9375 L34.0010109,27.625 C34.0010109,27.0381975 33.5253135,26.5625 32.9385109,26.5625 L27.6260109,26.5625 Z M30.1515734,31.7305 L28.8032609,27.4921875 L27.4931984,27.4921875 L29.4184484,33.0703125 L30.9378234,33.0703125 L32.8609484,27.4921875 L31.5540734,27.4921875 L30.2036359,31.7305 L30.1515734,31.7305 Z" id="Shape" fill="#FDB600"></path>
                    </g>
                </g>
            </g>
        </g>
    </g>
</svg>