<?xml version="1.0" encoding="UTF-8"?>
<svg width="34px" height="34px" viewBox="0 0 34 34" version="1.1" xmlns="http://www.w3.org/2000/svg" xmlns:xlink="http://www.w3.org/1999/xlink">
    <title>vbasketball_icon_34px</title>
    <g id="05---Virtual-Forecasts" stroke="none" stroke-width="1" fill="none" fill-rule="evenodd">
        <g id="05-elgbet_sb_virtualforecasts_1024" transform="translate(-454.000000, -94.000000)">
            <g id="sections" transform="translate(18.000000, 74.000000)">
                <g id="section_6" transform="translate(418.000000, 10.000000)">
                    <g id="vbasketball_icon_34px" transform="translate(18.000000, 10.000000)">
                        <circle id="Oval" fill="#DC691D" fill-rule="nonzero" cx="16.2222222" cy="16.2222222" r="16.2222222"></circle>
                        <path d="M12.3333333,29.5555556 L12.1111111,29.5555556 C11,29.2222222 9.88888889,28.5555556 8.66666667,27.7777778 C8.44444444,27.6666667 8.33333333,27.3333333 8.55555556,27.1111111 C8.77777778,26.8888889 9.11111111,26.7777778 9.33333333,27 C10.4444444,27.7777778 11.5555556,28.2222222 12.5555556,28.6666667 C12.8888889,28.7777778 13,29.1111111 12.8888889,29.3333333 C12.7777778,29.4444444 12.5555556,29.5555556 12.3333333,29.5555556 L12.3333333,29.5555556 Z M6.22222222,25.6666667 C6.11111111,25.6666667 5.88888889,25.5555556 5.77777778,25.4444444 C5.66666667,25.3333333 5.55555556,25.1111111 5.33333333,25 C4.88888889,24.4444444 4.33333333,23.7777778 4,23.1111111 C3.88888889,22.8888889 4,22.5555556 4.22222222,22.3333333 C4.44444444,22.2222222 4.77777778,22.3333333 5,22.5555556 C5.22222222,23.1111111 5.77777778,23.6666667 6.22222222,24.2222222 C6.33333333,24.4444444 6.55555556,24.5555556 6.66666667,24.7777778 C6.88888889,25 6.77777778,25.3333333 6.55555556,25.5555556 C6.44444444,25.6666667 6.33333333,25.6666667 6.22222222,25.6666667 L6.22222222,25.6666667 Z" id="Shape" fill="#EF9665" fill-rule="nonzero"></path>
                        <path d="M4.55555556,5.11111111 C4.22222222,5.44444444 3.88888889,5.77777778 3.55555556,6.22222222 L4.55555556,6.22222222 C11.8888889,6.22222222 17.8888889,13.3333333 17.8888889,22.1111111 C17.8888889,26 16.8888889,29.4444444 15.1111111,32.1111111 L14.8888889,32.3333333 L16.2222222,32.3333333 C18,29.5555556 19,26 19,22 C19.1111111,12.6666667 12.5555556,5.11111111 4.55555556,5.11111111 Z" id="Path" fill="#C5411E" fill-rule="nonzero"></path>
                        <path d="M12.7777778,0.444444444 C12.2222222,0.555555556 11.6666667,0.777777778 11.1111111,0.888888889 L11.6666667,1.11111111 C19,4.11111111 24,13.4444444 24,24.3333333 C24,26.1111111 23.7777778,27.7777778 23.4444444,29.4444444 L23.1111111,30.7777778 L24.4444444,30.1111111 L24.5555556,29.6666667 L24.5555556,29.5555556 C24.7777778,27.8888889 25.1111111,26.1111111 25.1111111,24.2222222 C25.1111111,13.3333333 20.2222222,3.88888889 12.7777778,0.444444444 L12.7777778,0.444444444 Z M31.5555556,21.3333333 C29,19.6666667 27.3333333,15 27.3333333,9.55555556 C27.3333333,8 27.4444444,6.44444444 27.7777778,5 C27.4444444,4.66666667 27.1111111,4.33333333 26.7777778,4.11111111 L26.7777778,4.44444444 C26.4444444,6 26.2222222,7.77777778 26.2222222,9.55555556 C26.2222222,15.5555556 28.1111111,20.5555556 31,22.3333333 L31.1111111,22.3333333 L31.2222222,22.4444444 C31.3333333,22 31.4444444,21.6666667 31.5555556,21.3333333 L31.5555556,21.3333333 Z" id="Shape" fill="#C5411E" fill-rule="nonzero"></path>
                        <path d="M31.8888889,12.3333333 C31.7777778,12 31.6666667,11.5555556 31.5555556,11.2222222 C18.7777778,11.1111111 8.44444444,14.5555556 0.777777778,21.3333333 C0.888888889,21.6666667 1,22.1111111 1.22222222,22.4444444 L1.44444444,22.2222222 C9,15.5555556 19.2222222,12.2222222 31.8888889,12.3333333 Z" id="Path" fill="#C5411E" fill-rule="nonzero"></path>
                        <path d="M27.3333333,26.2222222 C26.6666667,26.2222222 26.2222222,26.6666667 26.2222222,27.3333333 L26.2222222,32.8888889 C26.2222222,33.5555556 26.6666667,34 27.3333333,34 L32.8888889,34 C33.5555556,34 34,33.5555556 34,32.8888889 L34,27.3333333 C34,26.6666667 33.5555556,26.2222222 32.8888889,26.2222222 L27.3333333,26.2222222 Z M30,31.6666667 L28.5555556,27.2222222 L27.2222222,27.2222222 L29.2222222,33.1111111 L30.7777778,33.1111111 L32.7777778,27.2222222 L31.4444444,27.2222222 L30,31.6666667 Z" id="Shape" fill="#FDB600"></path>
                    </g>
                </g>
            </g>
        </g>
    </g>
</svg>