<?xml version="1.0" encoding="UTF-8"?>
<svg width="34px" height="34px" viewBox="0 0 34 34" version="1.1" xmlns="http://www.w3.org/2000/svg" xmlns:xlink="http://www.w3.org/1999/xlink">
    <title>vbaseball_icon_34px</title>
    <g id="05---Virtual-Forecasts" stroke="none" stroke-width="1" fill="none" fill-rule="evenodd">
        <g id="05-elgbet_sb_virtualforecasts_1024" transform="translate(-617.000000, -94.000000)">
            <g id="sections" transform="translate(18.000000, 74.000000)">
                <g id="section_8" transform="translate(581.000000, 10.000000)">
                    <g id="vbaseball_icon_34px" transform="translate(18.000000, 10.000000)">
                        <path d="M32.6796117,17.3290323 C32.5695793,21.3870968 30.9190939,25.3354839 27.9482201,28.4064516 C24.9773463,31.4774194 21.0161812,33.1225806 17.0550162,33.2322581 L16.0647249,33.2322581 C11.9935275,33.1225806 8.03236246,31.4774194 4.84142395,28.4064516 C1.65048544,25.3354839 0.110032362,21.1677419 0.110032362,17 L0.110032362,16.0129032 C0.220064725,11.9548387 1.87055016,8.00645161 4.84142395,4.93548387 C7.81229773,1.86451613 11.7734628,0.219354839 15.7346278,0.109677419 L16.7249191,0.109677419 C20.7961165,0.219354839 24.8673139,1.86451613 27.9482201,4.93548387 C31.0291262,8.00645161 32.6796117,12.1741935 32.6796117,16.3419355 L32.6796117,17.3290323 Z" id="Path" fill="#FCF6D6" fill-rule="nonzero"></path>
                        <path d="M11.7734628,28.4064516 C5.39158576,21.9354839 5.39158576,11.4064516 11.7734628,4.93548387 C14.0841424,2.63225806 16.9449838,1.09677419 19.8058252,0.438709677 C14.5242718,-0.658064516 8.91262136,0.767741935 4.84142395,4.93548387 C-1.54045307,11.4064516 -1.54045307,21.9354839 4.84142395,28.4064516 C8.91262136,32.5741935 14.6343042,34 19.8058252,32.9032258 C16.8349515,32.2451613 14.0841424,30.7096774 11.7734628,28.4064516 Z" id="Path" fill="#EAE3C5" fill-rule="nonzero"></path>
                        <path d="M16.7249191,-1.94826234e-15 C16.7249191,4.49677419 14.9644013,8.77419355 11.7734628,11.9548387 C8.58252427,15.1354839 4.51132686,16.8903226 1.9545674e-15,17 L1.9545674e-15,16.0129032 C4.18122977,16.0129032 8.03236246,14.2580645 11.0032362,11.2967742 C13.97411,8.33548387 15.6245955,4.27741935 15.6245955,0.109677419 C16.0647249,-1.94826234e-15 16.394822,-1.94826234e-15 16.7249191,-1.94826234e-15 L16.7249191,-1.94826234e-15 Z M32.6796117,17.3290323 C28.4983819,17.3290323 24.6472492,19.083871 21.6763754,22.0451613 C18.7055016,25.0064516 17.0550162,29.0645161 17.0550162,33.2322581 L16.0647249,33.2322581 C16.0647249,28.7354839 17.8252427,24.4580645 21.0161812,21.2774194 C24.2071197,18.0967742 28.2783172,16.3419355 32.789644,16.2322581 C32.6796117,16.6709677 32.6796117,17 32.6796117,17.3290323 L32.6796117,17.3290323 Z" id="Shape" fill="#C1BBA0" fill-rule="nonzero"></path>
                        <path d="M30.1488673,18.9741935 C30.038835,18.9741935 29.9288026,18.9741935 29.8187702,18.8645161 C29.5987055,18.6451613 29.5987055,18.316129 29.7087379,18.0967742 C30.1488673,17.4387097 30.038835,16.5612903 29.4886731,16.0129032 C29.2686084,15.7935484 29.2686084,15.5741935 29.3786408,15.2451613 C29.5987055,15.0258065 29.8187702,15.0258065 30.038835,15.1354839 C31.1391586,16.0129032 31.2491909,17.5483871 30.4789644,18.6451613 C30.368932,18.8645161 30.2588997,18.9741935 30.1488673,18.9741935 L30.1488673,18.9741935 Z M27.618123,19.5225806 C27.5080906,19.5225806 27.3980583,19.5225806 27.3980583,19.4129032 C27.1779935,19.3032258 27.0679612,18.9741935 27.1779935,18.7548387 C27.2880259,18.4258065 27.3980583,18.0967742 27.2880259,17.7677419 C27.1779935,17.4387097 26.9579288,17.2193548 26.7378641,17 C26.5177994,16.8903226 26.407767,16.5612903 26.5177994,16.3419355 C26.6278317,16.1225806 26.9579288,16.0129032 27.1779935,16.1225806 C27.7281553,16.4516129 28.0582524,16.8903226 28.2783172,17.4387097 C28.3883495,17.9870968 28.3883495,18.6451613 28.0582524,19.1935484 C27.9482201,19.4129032 27.7281553,19.5225806 27.618123,19.5225806 L27.618123,19.5225806 Z M25.197411,20.6193548 L25.0873786,20.6193548 C24.8673139,20.5096774 24.6472492,20.2903226 24.7572816,19.9612903 C24.8673139,19.6322581 24.8673139,19.4129032 24.6472492,19.083871 C24.4271845,18.7548387 24.3171521,18.6451613 23.987055,18.5354839 C23.7669903,18.4258065 23.5469256,18.2064516 23.6569579,17.8774194 C23.7669903,17.6580645 23.987055,17.4387097 24.3171521,17.5483871 C24.8673139,17.7677419 25.3074434,18.0967742 25.5275081,18.6451613 C25.7475728,19.1935484 25.8576052,19.7419355 25.6375405,20.2903226 C25.6375405,20.4 25.4174757,20.6193548 25.197411,20.6193548 L25.197411,20.6193548 Z M22.9967638,22.1548387 C22.8867314,22.1548387 22.8867314,22.1548387 22.9967638,22.1548387 C22.6666667,22.1548387 22.4466019,21.8258065 22.4466019,21.6064516 C22.5566343,21.0580645 22.1165049,20.5096774 21.566343,20.4 C21.3462783,20.4 21.1262136,20.0709677 21.1262136,19.8516129 C21.1262136,19.5225806 21.4563107,19.4129032 21.6763754,19.4129032 C22.776699,19.5225806 23.5469256,20.5096774 23.4368932,21.716129 C23.4368932,21.9354839 23.2168285,22.1548387 22.9967638,22.1548387 L22.9967638,22.1548387 Z M21.0161812,24.1290323 C20.7961165,24.1290323 20.5760518,23.9096774 20.4660194,23.6903226 C20.3559871,23.1419355 19.9158576,22.7032258 19.3656958,22.8129032 C19.1456311,22.8129032 18.815534,22.5935484 18.815534,22.3741935 C18.815534,22.0451613 19.0355987,21.8258065 19.2556634,21.8258065 C20.3559871,21.716129 21.3462783,22.483871 21.4563107,23.6903226 C21.566343,23.8 21.3462783,24.0193548 21.0161812,24.1290323 C21.1262136,24.1290323 21.1262136,24.1290323 21.0161812,24.1290323 Z M19.6957929,26.2129032 C19.4757282,26.2129032 19.2556634,26.1032258 19.2556634,25.883871 C19.1456311,25.5548387 18.9255663,25.3354839 18.7055016,25.2258065 C18.4854369,25.116129 18.1553398,25.116129 17.8252427,25.116129 C17.605178,25.2258065 17.2750809,25.0064516 17.1650485,24.7870968 C17.0550162,24.5677419 17.1650485,24.2387097 17.4951456,24.1290323 C18.0453074,23.9096774 18.5954693,24.0193548 19.1456311,24.2387097 C19.6957929,24.4580645 20.02589,24.8967742 20.2459547,25.4451613 C20.3559871,25.6645161 20.2459547,25.9935484 19.9158576,26.1032258 L19.6957929,26.2129032 Z M18.7055016,28.6258065 C18.4854369,28.6258065 18.3754045,28.516129 18.2653722,28.4064516 C18.1553398,28.0774194 17.8252427,27.8580645 17.4951456,27.8580645 C17.1650485,27.7483871 16.8349515,27.8580645 16.5048544,27.9677419 C16.2847896,28.0774194 15.9546926,27.9677419 15.8446602,27.7483871 C15.7346278,27.5290323 15.8446602,27.2 16.0647249,27.0903226 C16.6148867,26.7612903 17.1650485,26.7612903 17.7152104,26.8709677 C18.2653722,27.0903226 18.815534,27.4193548 19.0355987,27.9677419 C19.1456311,28.1870968 19.0355987,28.516129 18.815534,28.6258065 L18.7055016,28.6258065 L18.7055016,28.6258065 Z M18.1553398,31.1483871 C18.0453074,31.1483871 17.8252427,31.0387097 17.7152104,30.9290323 C17.2750809,30.2709677 16.2847896,30.1612903 15.7346278,30.7096774 C15.5145631,30.9290323 15.184466,30.8193548 15.0744337,30.6 C14.8543689,30.3806452 14.9644013,30.0516129 15.184466,29.8322581 C16.2847896,28.9548387 17.7152104,29.1741935 18.5954693,30.2709677 C18.815534,30.4903226 18.7055016,30.8193548 18.4854369,31.0387097 C18.3754045,31.1483871 18.2653722,31.1483871 18.1553398,31.1483871 Z M17.3851133,3.50967742 C17.2750809,3.50967742 17.0550162,3.4 16.9449838,3.29032258 C16.7249191,2.96129032 16.394822,2.74193548 15.9546926,2.74193548 C15.6245955,2.74193548 15.184466,2.8516129 14.8543689,3.07096774 C14.7443366,3.29032258 14.4142395,3.18064516 14.1941748,2.96129032 C13.97411,2.74193548 14.0841424,2.41290323 14.3042071,2.19354839 C14.8543689,1.75483871 15.4045307,1.64516129 16.0647249,1.64516129 C16.7249191,1.75483871 17.2750809,2.08387097 17.7152104,2.63225806 C17.9352751,2.8516129 17.8252427,3.18064516 17.605178,3.4 C17.4951456,3.50967742 17.3851133,3.50967742 17.3851133,3.50967742 L17.3851133,3.50967742 Z M16.394822,6.47096774 C16.1747573,6.47096774 16.0647249,6.36129032 15.9546926,6.2516129 C15.6245955,5.59354839 14.8543689,5.37419355 14.3042071,5.81290323 C14.0841424,5.92258065 13.7540453,5.81290323 13.6440129,5.59354839 C13.5339806,5.37419355 13.6440129,5.04516129 13.8640777,4.93548387 C14.9644013,4.27741935 16.2847896,4.71612903 16.9449838,5.81290323 C17.0550162,6.03225806 16.9449838,6.36129032 16.7249191,6.47096774 C16.6148867,6.36129032 16.5048544,6.47096774 16.394822,6.47096774 L16.394822,6.47096774 Z M15.0744337,9.21290323 C14.8543689,9.21290323 14.6343042,9.10322581 14.6343042,8.88387097 C14.5242718,8.55483871 14.3042071,8.33548387 14.0841424,8.22580645 C13.8640777,8.11612903 13.5339806,8.11612903 13.2038835,8.11612903 C12.9838188,8.22580645 12.6537217,8.00645161 12.5436893,7.78709677 C12.433657,7.56774194 12.5436893,7.23870968 12.8737864,7.12903226 C13.4239482,6.90967742 13.97411,7.01935484 14.5242718,7.23870968 C15.0744337,7.45806452 15.4045307,7.89677419 15.6245955,8.44516129 C15.7346278,8.66451613 15.6245955,8.99354839 15.2944984,9.10322581 C15.184466,9.21290323 15.0744337,9.21290323 15.0744337,9.21290323 L15.0744337,9.21290323 Z M13.2038835,11.8451613 C12.9838188,11.8451613 12.763754,11.6258065 12.6537217,11.4064516 C12.5436893,10.8580645 12.1035599,10.4193548 11.5533981,10.5290323 C11.3333333,10.5290323 11.0032362,10.3096774 11.0032362,10.0903226 C11.0032362,9.76129032 11.223301,9.54193548 11.4433657,9.54193548 C12.5436893,9.43225806 13.5339806,10.2 13.6440129,11.4064516 C13.7540453,11.516129 13.5339806,11.8451613 13.2038835,11.8451613 L13.2038835,11.8451613 Z M10.8932039,14.1483871 C10.5631068,14.1483871 10.3430421,13.8193548 10.3430421,13.6 C10.3430421,13.2709677 10.3430421,13.0516129 10.1229773,12.8322581 C9.90291262,12.6129032 9.6828479,12.5032258 9.46278317,12.3935484 C9.24271845,12.3935484 9.02265372,12.0645161 9.02265372,11.8451613 C9.02265372,11.516129 9.35275081,11.4064516 9.57281553,11.4064516 C10.1229773,11.516129 10.5631068,11.7354839 10.8932039,12.1741935 C11.223301,12.6129032 11.3333333,13.1612903 11.3333333,13.7096774 C11.4433657,13.9290323 11.223301,14.1483871 10.8932039,14.1483871 Z M8.47249191,15.9032258 L8.36245955,15.9032258 C8.14239482,15.7935484 7.9223301,15.5741935 8.03236246,15.2451613 C8.14239482,14.916129 8.14239482,14.6967742 7.9223301,14.3677419 C7.81229773,14.1483871 7.59223301,13.9290323 7.26213592,13.8193548 C7.0420712,13.7096774 6.82200647,13.4903226 6.93203883,13.1612903 C7.0420712,12.9419355 7.26213592,12.7225806 7.59223301,12.8322581 C8.14239482,13.0516129 8.58252427,13.3806452 8.802589,13.9290323 C9.02265372,14.4774194 9.13268608,15.0258065 8.91262136,15.5741935 C8.91262136,15.7935484 8.69255663,15.9032258 8.47249191,15.9032258 Z M5.83171521,17.2193548 C5.72168285,17.2193548 5.61165049,17.2193548 5.61165049,17.1096774 C5.2815534,17 5.2815534,16.7806452 5.39158576,16.4516129 C5.50161812,16.1225806 5.61165049,15.7935484 5.50161812,15.4645161 C5.39158576,15.1354839 5.17152104,14.916129 4.95145631,14.6967742 C4.73139159,14.5870968 4.62135922,14.2580645 4.73139159,14.0387097 C4.84142395,13.8193548 5.17152104,13.7096774 5.39158576,13.8193548 C5.94174757,14.1483871 6.27184466,14.5870968 6.49190939,15.1354839 C6.60194175,15.7935484 6.49190939,16.4516129 6.27184466,17 C6.1618123,17.1096774 5.94174757,17.2193548 5.83171521,17.2193548 L5.83171521,17.2193548 Z M2.97087379,18.0967742 C2.86084142,18.0967742 2.75080906,18.0967742 2.6407767,17.9870968 C2.42071197,17.7677419 2.42071197,17.5483871 2.53074434,17.2193548 C2.75080906,16.8903226 2.86084142,16.5612903 2.86084142,16.1225806 C2.86084142,15.683871 2.6407767,15.3548387 2.31067961,15.1354839 C2.09061489,15.1354839 2.09061489,14.8064516 2.20064725,14.5870968 C2.42071197,14.3677419 2.6407767,14.3677419 2.86084142,14.4774194 C3.41100324,14.916129 3.74110032,15.4645161 3.74110032,16.1225806 C3.85113269,16.7806452 3.63106796,17.4387097 3.30097087,17.9870968 C3.30097087,18.0967742 3.08090615,18.0967742 2.97087379,18.0967742 Z" id="Shape" fill="#EA5149" fill-rule="nonzero"></path>
                        <path d="M27.3980583,26.3225806 C26.7378641,26.3225806 26.2977346,26.7612903 26.2977346,27.4193548 L26.2977346,32.9032258 C26.2977346,33.5612903 26.7378641,34 27.3980583,34 L32.8996764,34 C33.5598706,34 34,33.5612903 34,32.9032258 L34,27.4193548 C34,26.7612903 33.5598706,26.3225806 32.8996764,26.3225806 L27.3980583,26.3225806 Z M30.038835,31.6967742 L28.6084142,27.3096774 L27.2880259,27.3096774 L29.2686084,33.1225806 L30.8090615,33.1225806 L32.789644,27.3096774 L31.4692557,27.3096774 L30.038835,31.6967742 Z" id="Shape" fill="#FDB600"></path>
                    </g>
                </g>
            </g>
        </g>
    </g>
</svg>