<?xml version="1.0" encoding="UTF-8"?>
<svg width="34px" height="34px" viewBox="0 0 34 34" version="1.1" xmlns="http://www.w3.org/2000/svg" xmlns:xlink="http://www.w3.org/1999/xlink">
    <title>vdogs_icon_34px</title>
    <defs>
        <path d="M34,0 L0,0 L0,34 L24.4375,34 L24.4375,25.5 C24.4375,24.9131975 24.9131975,24.4375 25.5,24.4375 L34,24.4375 L34,0 Z" id="path-1"></path>
        <path d="M16.1043125,32.2065 C24.9974375,32.2065 32.2065,24.996375 32.2065,16.10325 C32.2065,7.210125 24.9974375,-1.88737914e-15 16.10325,-1.88737914e-15 C7.210125,-1.88737914e-15 -1.88737914e-15,7.2090625 -1.88737914e-15,16.10325 C-1.88737914e-15,24.996375 7.210125,32.2065 16.10325,32.2065 L16.1043125,32.2065 Z" id="path-3"></path>
    </defs>
    <g id="05---Virtual-Forecasts" stroke="none" stroke-width="1" fill="none" fill-rule="evenodd">
        <g id="05-elgbet_sb_virtualforecasts_1024" transform="translate(-699.000000, -94.000000)">
            <g id="sections" transform="translate(18.000000, 74.000000)">
                <g id="section_9" transform="translate(663.000000, 10.000000)">
                    <g id="vdogs_icon_34px" transform="translate(18.000000, 10.000000)">
                        <path d="M27.625,26.5625 C27.0381975,26.5625 26.5625,27.0381975 26.5625,27.625 L26.5625,32.9375 C26.5625,33.5243025 27.0381975,34 27.625,34 L32.9375,34 C33.5243025,34 34,33.5243025 34,32.9375 L34,27.625 C34,27.0381975 33.5243025,26.5625 32.9375,26.5625 L27.625,26.5625 Z M30.1505625,31.7305 L28.80225,27.4921875 L27.4921875,27.4921875 L29.4174375,33.0703125 L30.9368125,33.0703125 L32.8599375,27.4921875 L31.5530625,27.4921875 L30.202625,31.7305 L30.1505625,31.7305 Z" id="Shape" fill="#FDB600"></path>
                        <g id="Clipped">
                            <mask id="mask-2" fill="white">
                                <use xlink:href="#path-1"></use>
                            </mask>
                            <g id="Path"></g>
                            <g mask="url(#mask-2)">
                                <g transform="translate(1.416312, 1.417375)">
                                    <mask id="mask-4" fill="white">
                                        <use xlink:href="#path-3"></use>
                                    </mask>
                                    <g id="Path" stroke="none" fill="none"></g>
                                    <g id="Group" stroke="none" stroke-width="1" fill="none" fill-rule="evenodd" mask="url(#mask-4)">
                                        <g transform="translate(0.000000, -0.001063)" fill-rule="nonzero">
                                            <path d="M16.1043125,32.2075625 C24.9974375,32.2075625 32.2065,24.9974375 32.2065,16.1043125 C32.2065,7.2111875 24.9974375,0.0010625 16.10325,0.0010625 C7.210125,0.0010625 -1.88737914e-15,7.210125 -1.88737914e-15,16.1043125 C-1.88737914e-15,24.9974375 7.210125,32.2075625 16.10325,32.2075625 L16.1043125,32.2075625 Z" id="Path" fill="#87D7F5"></path>
                                            <path d="M10.8024375,32.9385625 L5.4899375,32.9385625 C5.4901824,31.5957215 6.09986042,30.325559 7.1474375,29.4854375 L8.1461875,28.6885625 L8.1461875,28.9595 C8.14516949,29.8065036 8.48164364,30.6190122 9.0811875,31.2173125 L10.8024375,32.9385625 L10.8024375,32.9385625 Z M27.8024421,32.9385625 L22.4899375,32.9385625 L24.2111875,31.2173125 C24.8108309,30.6190788 25.147323,29.8065269 25.1461875,28.9595 L25.1461875,28.6885625 L26.1449375,29.4854375 C27.1942594,30.3241722 27.804366,31.5952277 27.8024421,32.9385625 Z" id="Shape" fill="#2A2E33"></path>
                                            <path d="M16.6461846,26.590125 C16.6628119,27.1655616 17.1330145,27.6240091 17.7086875,27.6260625 C18.4138615,27.62833 19.0908073,27.349204 19.5894432,26.8505682 C20.088079,26.3519323 20.367205,25.6749865 20.3649375,24.9698125 L20.3649375,22.8448125 L21.9586875,20.1885625 L22.8830625,16.9585625 L23.0211875,17.0010625 L24.87525,22.5579375 C25.0551159,23.0993431 25.1466001,23.6661864 25.1461846,24.2366875 L25.1461846,28.9595 C25.1472055,29.8065036 24.8107314,30.6190122 24.2111875,31.2173125 L22.4899375,32.9385625 L10.8024375,32.9385625 L9.0811875,31.2173125 C8.48154407,30.6190788 8.14505198,29.8065269 8.14618464,28.9595 L8.14618464,24.2366875 C8.14577495,23.6661864 8.23725914,23.0993431 8.417125,22.5579375 L10.2711875,17.0010625 L10.4093125,16.9585625 L11.3336875,20.1885625 L12.9274375,22.8448125 L12.9274375,24.9698125 C12.92517,25.6749865 13.204296,26.3519323 13.7029318,26.8505682 C14.2015677,27.349204 14.8785135,27.62833 15.5836875,27.6260625 C16.1593605,27.6240091 16.6295631,27.1655616 16.6461846,26.590125 L16.6461846,26.590125 Z" id="Path" fill="#CDD2E1"></path>
                                            <path d="M12.9274375,11.6885625 C12.9274375,10.8066875 12.4493125,10.0948125 11.8649375,10.0948125 C11.2805625,10.0948125 10.8024375,10.8066875 10.8024375,11.6885625 C10.8024375,12.5704375 11.2805625,13.2823125 11.8649375,13.2823125 C12.4493125,13.2823125 12.9274375,12.5704375 12.9274375,11.6885625 Z M11.8649375,8.5010625 C13.9899375,8.5010625 14.5211875,11.1573125 14.5211875,11.1573125 L14.5211875,13.2823125 L12.9274375,19.6573125 L12.9274375,22.8448125 L11.3336875,20.1885625 L10.4093125,16.9585625 L9.2086875,12.7510625 L9.2086875,11.1573125 C9.26322852,9.71350101 10.421126,8.55560352 11.8649375,8.5010625 L11.8649375,8.5010625 Z M22.4899375,11.6885625 C22.4899375,10.8066875 22.0118125,10.0948125 21.4274375,10.0948125 C20.8430625,10.0948125 20.3649375,10.8066875 20.3649375,11.6885625 C20.3649375,12.5704375 20.8430625,13.2823125 21.4274375,13.2823125 C22.0118125,13.2823125 22.4899375,12.5704375 22.4899375,11.6885625 Z M24.0836875,11.1573125 L24.0836875,12.7510625 L22.8830625,16.9585625 L21.9586875,20.1885625 L20.3649375,22.8448125 L20.3649375,19.6573125 L18.7711875,13.2823125 L18.7711875,11.1573125 C18.7711875,11.1573125 19.3024375,8.5010625 21.4274375,8.5010625 C22.871249,8.55560352 24.0291465,9.71350101 24.0836875,11.1573125 L24.0836875,11.1573125 Z" id="Shape" fill="#414952"></path>
                                            <path d="M19.5893125,26.8504375 C19.0899375,27.346625 18.413125,27.6260762 17.7086875,27.6260762 C17.1326138,27.6239913 16.6622497,27.164916 16.6461875,26.5890625 C16.6301253,27.164916 16.1597612,27.6239913 15.5836875,27.6260762 C14.8785135,27.62833 14.2015677,27.349204 13.7029318,26.8505682 C13.204296,26.3519323 12.92517,25.6749865 12.9274375,24.9698125 L12.9274375,19.6573125 L14.5211875,13.2823125 L14.5211875,11.1573125 C14.5211875,11.1573125 13.9899375,8.5010625 11.8649375,8.5010625 C10.421126,8.55560352 9.26322852,9.71350101 9.2086875,11.1573125 L9.2086875,12.7510625 L7.885875,10.5516875 C7.70951275,10.2521761 7.61600264,9.91113922 7.6149375,9.5635625 L7.6149375,9.0323125 C7.6149375,8.6880625 7.7296875,8.353375 7.939,8.0803125 L8.077125,7.8996875 L10.3774375,4.95125 C10.491125,4.8025 10.6218125,4.6675625 10.76525,4.5475 C11.3585173,4.01308339 12.1289601,3.71777854 12.9274375,3.71874761 L20.3649375,3.71874761 C21.162875,3.71874761 21.93425,4.014125 22.527125,4.5475 C22.6705625,4.6675625 22.80125,4.8025 22.9149375,4.95125 L25.21525,7.8996875 L25.353375,8.0803125 C25.5626875,8.353375 25.676375,8.6880625 25.6774375,9.0323125 L25.6774375,9.5635625 C25.6763724,9.91113922 25.5828622,10.2521761 25.4065,10.5516875 L24.0836875,12.7510625 L24.0836875,11.1573125 C24.0291465,9.71350101 22.871249,8.55560352 21.4274375,8.5010625 C19.3024375,8.5010625 18.7711875,11.1573125 18.7711875,11.1573125 L18.7711875,13.2823125 L20.3649375,19.6573125 L20.3649375,24.9698125 C20.3649375,25.67425 20.0865625,26.3510625 19.5893125,26.8504375 Z M17.1774375,26.505125 C18.0400375,26.2504741 18.7897668,25.7087947 19.3024376,24.9698125 L19.3024376,23.5035625 C19.3026269,23.0999906 19.074161,22.731152 18.71275,22.5515625 L17.1774375,21.7823125 L16.1149375,21.7823125 L14.579625,22.5515625 C14.2185569,22.7309816 13.9901514,23.099311 13.9899375,23.5025 L13.9899375,24.96875 C14.5024945,25.7080688 15.2522209,26.250121 16.1149375,26.505125 C16.4655625,26.5826875 16.8268125,26.5826875 17.1774375,26.505125 L17.1774375,26.505125 Z" id="Shape" fill="#CDD2E1"></path>
                                            <path d="M8.1461875,1.83186799e-15 L11.3336875,1.83186799e-15 L13.4586875,3.71875 L12.9274375,3.71875 C12.1284375,3.71875 11.358125,4.014125 10.76525,4.5475 L10.2711875,1.5948125 L9.32025,1.5948125 C8.9005625,1.5948125 8.4904375,1.7180625 8.140875,1.95075 L5.4899375,3.71875 L5.0915,4.9140625 L3.8961875,8.502125 L2.8336875,2.127125 L8.1461875,0.002125 L8.1461875,1.83186799e-15 Z M28.200875,4.9140625 L27.8024375,3.71875 L25.1515,1.9496875 C24.8022541,1.71695944 24.391809,1.59308638 23.972125,1.59375 L23.0211875,1.59375 L22.527125,4.5475 C21.9338577,4.01308339 21.1634149,3.71777854 20.3649375,3.71875 L19.8336875,3.71875 L21.9586875,9.43689571e-16 L25.1461875,9.43689571e-16 L30.4586875,2.125 L29.3961875,8.5 L28.200875,4.9140625 L28.200875,4.9140625 Z" id="Shape" fill="#414952"></path>
                                            <path d="M10.2711875,1.59374735 L10.76525,4.5475 C10.6218125,4.6675625 10.491125,4.8025 10.3774375,4.95125 L8.077125,7.8996875 L5.0915,4.9140625 L5.4899375,3.71875 L8.140875,1.9496875 C8.49012094,1.71695944 8.90056603,1.59308638 9.32025,1.59374735 L10.2711875,1.59374735 Z M27.8024375,3.71875 L28.200875,4.9140625 L25.21525,7.8996875 L22.9149375,4.95125 C22.8009357,4.80279053 22.6708753,4.66738524 22.527125,4.5475 L23.0211875,1.5948125 L23.972125,1.5948125 C24.3918125,1.5948125 24.8019375,1.7180625 25.1515,1.95075 L27.8024375,3.71875 Z" id="Shape" fill="#2F261F"></path>
                                            <path d="M11.8649375,13.2823125 C12.4514375,13.2823125 12.9274375,12.5683125 12.9274375,11.6885625 C12.9274375,10.80775 12.4514375,10.0948125 11.8649375,10.0948125 C11.2784375,10.0948125 10.8024375,10.80775 10.8024375,11.6885625 C10.8024375,12.5683125 11.2784375,13.2823125 11.8649375,13.2823125 Z M21.4274375,13.2823125 C22.0139375,13.2823125 22.4899375,12.5683125 22.4899375,11.6885625 C22.4899375,10.80775 22.0139375,10.0948125 21.4274375,10.0948125 C20.8409375,10.0948125 20.3649375,10.80775 20.3649375,11.6885625 C20.3649375,12.5683125 20.8409375,13.2823125 21.4274375,13.2823125 Z" id="Shape" fill="#E9EDF5"></path>
                                            <path d="M16.1149375,26.0323125 L16.1149375,26.505125 C15.2523756,26.2503964 14.50267,25.7087341 13.9899375,24.9698125 L15.0524375,24.9698125 C15.6385135,24.9715629 16.1131871,25.4462365 16.1149375,26.0323125 Z M19.3024375,24.9698125 C18.7897668,25.7087947 18.0400375,26.2504741 17.1774375,26.505125 L17.1774375,26.0323125 C17.1791879,25.4462365 17.6538615,24.9715629 18.2399375,24.9698125 L19.3024375,24.9698125 L19.3024375,24.9698125 Z" id="Shape" fill="#191B1F"></path>
                                            <path d="M18.2399375,24.9698125 C17.6538615,24.9715629 17.1791879,25.4462365 17.1774375,26.0323125 L17.1774375,26.505125 C16.8268125,26.5826875 16.4655625,26.5826875 16.1149375,26.505125 L16.1149375,26.0323125 C16.1131871,25.4462365 15.6385135,24.9715629 15.0524375,24.9698125 L13.9899374,24.9698125 L13.9899374,23.5035625 C13.9897481,23.0999906 14.218214,22.731152 14.579625,22.5515625 L16.1149375,21.7823125 L17.1774375,21.7823125 L18.71275,22.5515625 C19.0738181,22.7309816 19.3022236,23.099311 19.3024375,23.5025 L19.3024375,24.96875 L18.2399375,24.96875 L18.2399375,24.9698125 Z" id="Path" fill="#414952"></path>
                                            <path d="M12.7085625,5.3125 L21.2404375,5.3125 C22.1435625,5.3071875 23.0275625,5.5685625 23.783,6.0636875 L22.9149375,4.9523125 C22.8009423,4.80384736 22.6708813,4.66844138 22.527125,4.5485625 C21.9338577,4.01414589 21.1634149,3.71884104 20.3649375,3.71980964 L12.9274375,3.71980964 C12.1284375,3.71875 11.358125,4.014125 10.76525,4.5485625 C10.6214937,4.66844138 10.4914327,4.80384736 10.3774375,4.9523125 L9.509375,6.0636875 C10.2644492,5.56841638 11.1489417,5.30709745 12.0519375,5.3125 L12.7085625,5.3125 L12.7085625,5.3125 Z" id="Path" fill="#E9EDF5"></path>
                                            <path d="M8.1461875,28.9584375 L8.1461875,28.6875 L7.1474375,29.484375 C6.09973622,30.3243979 5.49002775,31.5946238 5.4899375,32.9375 L7.0836875,32.9375 C7.08583861,31.8112714 7.51751616,30.7282776 8.2906875,29.909375 C8.19476134,29.601515 8.14604159,29.2808961 8.1461875,28.9584375 L8.1461875,28.9584375 Z M27.3668125,31.02075 C27.0774526,30.4253065 26.6602378,29.9010669 26.1449375,29.4854375 L25.1461875,28.6885625 L25.1461875,28.9595 C25.1461875,29.2814375 25.0973125,29.60125 25.000625,29.909375 C25.7800779,30.7243362 26.213124,31.8098081 26.2086875,32.9375 L27.8024375,32.9375 C27.8024375,32.2745 27.6536875,31.62 27.3668125,31.02075 L27.3668125,31.02075 Z" id="Shape" fill="#414952"></path>
                                            <path d="M12.1305625,13.2249375 C12.5704375,13.2249375 12.9274375,12.5364375 12.9274375,11.6885625 C12.9274375,10.8385625 12.5704375,10.151125 12.1305625,10.151125 C11.6906875,10.151125 11.3336875,10.839625 11.3336875,11.6885625 C11.3336875,12.5364375 11.6906875,13.2249375 12.1305625,13.2249375 Z" id="Path" fill="#191B1F"></path>
                                            <path d="M19.3024375,26.0323125 L19.3024375,24.9698125 C18.7897668,25.7087947 18.0400375,26.2504741 17.1774375,26.505125 C16.8268125,26.5826875 16.4655625,26.5826875 16.1149375,26.505125 C15.2523756,26.2503964 14.50267,25.7087341 13.9899375,24.9698125 L13.9899375,26.0323125 C14.4855722,26.7351896 15.1929122,27.2612272 16.0086875,27.533625 C16.385474,27.3679515 16.6334942,27.0004682 16.6461875,26.5890625 C16.6588808,27.0004682 16.906901,27.3679515 17.2836875,27.533625 C18.0994628,27.2612272 18.8068028,26.7351896 19.3024375,26.0323125 L19.3024375,26.0323125 Z" id="Path" fill="#AFB4C8"></path>
                                            <path d="M14.579625,22.5515625 L16.1149375,21.7823125 L17.1774375,21.7823125 L18.71275,22.5515625 C19.0738181,22.7309816 19.3022236,23.099311 19.3024375,23.5025 L19.3024375,22.44 C19.3022236,22.036811 19.0738181,21.6684816 18.71275,21.4890625 L17.1774375,20.7198125 L16.1149375,20.7198125 L14.579625,21.4890625 C14.2185569,21.6684816 13.9901514,22.036811 13.9899375,22.44 L13.9899375,23.5025 C13.9901514,23.099311 14.2185569,22.7309816 14.579625,22.5515625 Z" id="Path" fill="#BEC3D2"></path>
                                            <path d="M18.71275,22.5515625 L17.1774375,21.7823125 L16.1149375,21.7823125 L14.579625,22.5515625 C14.2185569,22.7309816 13.9901514,23.099311 13.9899375,23.5025 L13.9899375,24.565 C13.9901514,24.161811 14.2185569,23.7934816 14.579625,23.6140625 L16.1149375,22.8448125 L17.1774375,22.8448125 L18.71275,23.6140625 C19.0738181,23.7934816 19.3022236,24.161811 19.3024375,24.565 L19.3024375,23.5025 C19.3022236,23.099311 19.0738181,22.7309816 18.71275,22.5515625 Z M21.4274375,9.5635625 C20.533875,9.5635625 19.8336875,10.4964375 19.8336875,11.6885625 C19.8336875,12.879625 20.533875,13.8135625 21.4274375,13.8135625 C22.3199375,13.8135625 23.0211875,12.879625 23.0211875,11.6885625 C23.0211875,10.4964375 22.3199375,9.5635625 21.4274375,9.5635625 Z M21.4274375,13.2823125 C20.8430625,13.2823125 20.3649375,12.5683125 20.3649375,11.6885625 C20.3649375,10.80775 20.8430625,10.0948125 21.4274375,10.0948125 C22.0118125,10.0948125 22.4899375,10.80775 22.4899375,11.6885625 C22.4899375,12.5683125 22.0139375,13.2823125 21.4274375,13.2823125 Z M11.8649375,9.5635625 C10.971375,9.5635625 10.2711875,10.4964375 10.2711875,11.6885625 C10.2711875,12.879625 10.971375,13.8135625 11.8649375,13.8135625 C12.7574375,13.8135625 13.4586875,12.879625 13.4586875,11.6885625 C13.4586875,10.4964375 12.7574375,9.5635625 11.8649375,9.5635625 Z M11.8649375,13.2823125 C11.277375,13.2823125 10.8024375,12.5683125 10.8024375,11.6885625 C10.8024375,10.80775 11.277375,10.0948125 11.8649375,10.0948125 C12.4514375,10.0948125 12.9274375,10.80775 12.9274375,11.6885625 C12.9274375,12.5683125 12.4514375,13.2823125 11.8649375,13.2823125 Z" id="Shape" fill="#555A66"></path>
                                            <path d="M21.1225,13.2249375 C21.5634375,13.2249375 21.919375,12.5364375 21.919375,11.6885625 C21.919375,10.8385625 21.5634375,10.151125 21.1225,10.151125 C20.682625,10.151125 20.325625,10.839625 20.325625,11.6885625 C20.325625,12.5364375 20.682625,13.2249375 21.1225,13.2249375 Z" id="Path" fill="#191B1F"></path>
                                            <path d="M10.0650625,21.7929375 L11.3336875,23.9073125 C11.3336875,26.8413252 13.7121748,29.2198125 16.6461875,29.2198125 C19.5802002,29.2198125 21.9586875,26.8413252 21.9586875,23.9073125 L23.343125,21.1363125 C23.4816453,20.8591393 23.5895932,20.5677157 23.6650625,20.2671875 L23.8563125,19.5043125 L23.0211875,17.0010625 L22.8830625,16.9585625 L21.9586875,20.1885625 L20.3649375,22.8448125 L20.3649375,24.9698125 C20.367205,25.6749865 20.088079,26.3519323 19.5894432,26.8505682 C19.0908073,27.349204 18.4138615,27.62833 17.7086875,27.6260625 C17.1330145,27.6240091 16.6628119,27.1655616 16.6461875,26.590125 C16.6295631,27.1655616 16.1593605,27.6240091 15.5836875,27.6260625 C14.8785135,27.62833 14.2015677,27.349204 13.7029318,26.8505682 C13.204296,26.3519323 12.92517,25.6749865 12.9274375,24.9698125 L12.9274375,22.8448125 L11.3336875,20.1885625 L10.4093125,16.9585625 L10.2711875,17.0010625 L9.3595625,19.7316875 L9.585875,20.6348125 C9.687875,21.04175 9.849375,21.4316875 10.064,21.7929375 L10.0650625,21.7929375 Z" id="Path" fill="#AFB4C8"></path>
                                            <path d="M9.7399375,28.9584375 L9.7399375,24.235625 C9.7399375,23.6693125 9.81325,23.1040625 9.959875,22.556875 L10.1351875,21.90875 L10.0650625,21.791875 C9.84977399,21.4324955 9.68866555,21.0433291 9.5869375,20.6369375 L9.360625,19.7338125 L8.417125,22.556875 C8.23725914,23.0982806 8.14577495,23.6651239 8.1461852,24.235625 L8.1461852,28.9584375 C8.14516949,29.8054411 8.48164364,30.6179497 9.0811875,31.21625 L10.8024375,32.9375 L11.8968125,32.9375 L10.499625,31.21625 C9.99688775,30.5719999 9.72890752,29.7755552 9.7399375,28.9584375 L9.7399375,28.9584375 Z M24.87525,22.5579375 L23.85525,19.5043125 L23.6650625,20.2671875 C23.5895932,20.5677157 23.4816453,20.8591393 23.343125,21.1363125 L23.086,21.651625 L23.3325,22.5579375 C23.479125,23.105125 23.5524375,23.6693125 23.5524375,24.2366875 L23.5524375,28.9595 C23.5634675,29.7766177 23.2954872,30.5730624 22.79275,31.2173125 L21.3934375,32.9385625 L22.4899375,32.9385625 L24.2111875,31.2173125 C24.8108309,30.6190788 25.147323,29.8065269 25.1461904,28.9595 L25.1461904,24.2366875 C25.1466001,23.6661864 25.0551159,23.0993431 24.87525,22.5579375 L24.87525,22.5579375 Z" id="Shape" fill="#E9EDF5"></path>
                                            <path d="M9.32025,1.59375 C8.9005625,1.59375 8.4904375,1.717 8.140875,1.9496875 L5.4899375,3.71875 L5.0915,4.9140625 L5.9446875,5.7683125 L6.419625,4.583625 C6.50569353,4.36766795 6.6602155,4.18589936 6.8595,4.0661875 L7.868875,3.4595 C8.17027581,3.27903899 8.54139273,3.25922016 8.86029887,3.40655479 C9.17920502,3.55388943 9.40467207,3.84933006 9.462625,4.1958125 L9.72825,5.782125 L10.376375,4.95125 C10.491125,4.8025 10.62075,4.6675625 10.76525,4.5475 L10.2711875,1.5948125 L9.32025,1.5948125 L9.32025,1.59375 Z M27.8024375,3.71875 L25.1515,1.9496875 C24.8022541,1.71695944 24.391809,1.59308638 23.972125,1.59374735 L23.0211875,1.59374735 L22.527125,4.5475 C22.6705625,4.6675625 22.80125,4.8025 22.9149375,4.95125 L23.5630625,5.782125 L23.8286875,4.1958125 C23.8866404,3.84933006 24.1121075,3.55388943 24.4310136,3.40655479 C24.7499198,3.25922016 25.1210367,3.27903899 25.4224375,3.4595 L26.4318125,4.0661875 C26.630523,4.18580422 26.7846351,4.36715647 26.870625,4.5825625 L27.3455625,5.7683125 L28.200875,4.9140625 L27.8024375,3.71875 L27.8024375,3.71875 Z" id="Shape" fill="#1A1511"></path>
                                            <path d="M12.186875,2.65625 C11.9771065,2.6566118 11.7719246,2.59487238 11.5971875,2.4788125 L10.2711875,1.59375 L10.76525,4.5475 C11.3585173,4.01308339 12.1289601,3.71777854 12.9274375,3.71875 L13.4586875,3.71875 L12.8509375,2.65625 L12.186875,2.65625 L12.186875,2.65625 Z M5.9298125,2.2174375 L5.4995,2.6466875 C5.17609604,2.96979849 4.68226697,3.04982105 4.273375,2.845375 L2.8336875,2.125 L3.8961875,8.5 L5.0915,4.9140625 L5.4899375,3.71875 L8.140875,1.9496875 C8.49012094,1.71695944 8.90056603,1.59308638 9.32025,1.59374735 L7.4321875,1.59374735 C6.86849597,1.59415208 6.32806053,1.81850541 5.9298125,2.2174375 Z M21.1055,2.65625 L20.440375,2.65625 L19.8336875,3.71875 L20.3649375,3.71875 C21.162875,3.71875 21.93425,4.014125 22.527125,4.5475 L23.0211875,1.5948125 L21.6930625,2.479875 C21.5189282,2.59553387 21.3145448,2.65725542 21.1055,2.6573125 L21.1055,2.65625 Z M29.0179375,2.845375 C28.6090455,3.04982105 28.1152165,2.96979849 27.7918125,2.6466875 L27.3625625,2.2174375 C26.9640543,1.81824501 26.4231848,1.59387018 25.859125,1.59375 L23.972125,1.59375 C24.3918125,1.59375 24.8019375,1.717 25.1515,1.9496875 L27.8024375,3.71875 L28.200875,4.9140625 L29.3961875,8.502125 L30.4586875,2.127125 L29.0179375,2.8464375 L29.0179375,2.845375 Z M11.0149375,18.0635625 L10.724875,18.0635625 L11.3336875,20.1885625 L12.9274375,22.8448125 L12.9274375,19.6573125 L14.5211875,13.2823125 L12.9571875,16.8013125 C12.6161513,17.5689573 11.8549281,18.0636691 11.0149375,18.0635625 L11.0149375,18.0635625 Z M20.3351875,16.8013125 L18.7711875,13.28125 L20.3649375,19.65625 L20.3649375,22.84375 L21.9586875,20.1875 L22.5664375,18.0625 L22.2774375,18.0625 C21.4376973,18.0627932 20.6765419,17.5685419 20.3351875,16.8013125 L20.3351875,16.8013125 Z" id="Shape" fill="#2A2E33"></path>
                                            <path d="M21.9076875,11.492 C21.9926875,11.407 21.966125,11.2401875 21.847125,11.120125 C21.728125,11.0021875 21.562375,10.9745625 21.47525,11.060625 C21.39025,11.145625 21.417875,11.3124375 21.536875,11.4314375 C21.655875,11.5504375 21.821625,11.577 21.9076875,11.492 L21.9076875,11.492 Z M11.75125,11.4165625 C11.87025,11.2975625 11.897875,11.1318125 11.8118125,11.04575 C11.7268125,10.96075 11.56,10.9873125 11.441,11.1063125 C11.322,11.2253125 11.2954375,11.3910625 11.3804375,11.477125 C11.4654375,11.562125 11.63225,11.5355625 11.7523125,11.4165625 L11.75125,11.4165625 Z M21.587875,6.54925 C21.9289375,6.20925 21.821625,5.548375 21.3466875,5.0734375 C20.87175,4.5995625 20.2119375,4.4911875 19.870875,4.83225 C19.530875,5.17225 19.6381875,5.833125 20.113125,6.307 C20.587,6.7819375 21.247875,6.8903125 21.587875,6.54925 L21.587875,6.54925 Z M19.0283125,21.0045625 C19.199375,20.8345625 19.1451875,20.502 18.9071875,20.264 C18.6691875,20.0249375 18.336625,19.97075 18.1655625,20.142875 C17.9955625,20.312875 18.0486875,20.6454375 18.28775,20.8834375 C18.52575,21.1214375 18.85725,21.175625 19.0283125,21.0045625 L19.0283125,21.0045625 Z M18.6755625,23.1805625 C18.761625,23.0955625 18.7350625,22.92875 18.6160625,22.80975 C18.4970625,22.69075 18.3313125,22.6641875 18.24525,22.7491875 C18.16025,22.8341875 18.1868125,23.001 18.3058125,23.1210625 C18.4248125,23.239 18.5905625,23.266625 18.676625,23.1805625 L18.6755625,23.1805625 Z" id="Shape" fill="#F6FAFD"></path>
                                        </g>
                                    </g>
                                </g>
                            </g>
                        </g>
                    </g>
                </g>
            </g>
        </g>
    </g>
</svg>