<?xml version="1.0" encoding="UTF-8"?>
<svg width="34px" height="34px" viewBox="0 0 34 34" version="1.1" xmlns="http://www.w3.org/2000/svg" xmlns:xlink="http://www.w3.org/1999/xlink">
    <title>veuro_icon_34px</title>
    <defs>
        <path d="M34,0 L0,0 L0,34 L24.4375,34 L24.4375,25.5 C24.4375,24.9131975 24.9131975,24.4375 25.5,24.4375 L34,24.4375 L34,0 Z" id="path-1"></path>
    </defs>
    <g id="05---Virtual-Forecasts" stroke="none" stroke-width="1" fill="none" fill-rule="evenodd">
        <g id="05-elgbet_sb_virtualforecasts_1024" transform="translate(-373.000000, -94.000000)">
            <g id="sections" transform="translate(18.000000, 74.000000)">
                <g id="section_5" transform="translate(337.000000, 10.000000)">
                    <g id="veuro_icon_34px" transform="translate(18.000000, 10.000000)">
                        <path d="M27.625,26.5625 C27.0381975,26.5625 26.5625,27.0381975 26.5625,27.625 L26.5625,32.9375 C26.5625,33.5243025 27.0381975,34 27.625,34 L32.9375,34 C33.5243025,34 34,33.5243025 34,32.9375 L34,27.625 C34,27.0381975 33.5243025,26.5625 32.9375,26.5625 L27.625,26.5625 Z M30.1505625,31.7305 L28.80225,27.4921875 L27.4921875,27.4921875 L29.4174375,33.0703125 L30.9368125,33.0703125 L32.8599375,27.4921875 L31.5530625,27.4921875 L30.202625,31.7305 L30.1505625,31.7305 Z" id="Shape" fill="#FDB600"></path>
                        <g id="Clipped">
                            <mask id="mask-2" fill="white">
                                <use xlink:href="#path-1"></use>
                            </mask>
                            <g id="Path"></g>
                            <g id="Group" mask="url(#mask-2)" fill-rule="nonzero">
                                <path d="M17,34 C26.3893125,34 34,26.3893125 34,17 C34,7.6106875 26.3893125,0 17,0 C7.6106875,0 0,7.6106875 0,17 C0,26.3893125 7.6106875,34 17,34 Z" id="Path" fill="#22D7FF"></path>
                                <path d="M34.0000198,17 C34.0000198,22.78425 31.11,27.894875 26.6953125,30.9655 C23.8505979,32.9460916 20.4662827,34.0053359 17,34.0000201 C13.5337173,34.0053359 10.1494021,32.9460916 7.3046875,30.9655 C2.89,27.894875 0,22.78425 0,17 C0,13.9304375 0.813875,11.052125 2.2365625,8.565875 C5.165875,13.685 10.68025,17.133875 17,17.133875 C23.31975,17.133875 28.834125,13.685 31.7634375,8.5669375 C33.2333691,11.1340975 34.0045294,14.041793 34.0000198,17 Z" id="Path" fill="#00B3FE"></path>
                                <path d="M25.9196875,9.37125 L24.048625,9.37125 L24.048625,7.4853125 C24.048625,6.36158562 23.1376644,5.450625 22.0139375,5.450625 L11.9860625,5.450625 C11.4464298,5.450625 10.9288991,5.66499325 10.5473212,6.04657117 C10.1657432,6.4281491 9.951375,6.94567982 9.951375,7.4853125 L9.951375,9.37125 L8.081375,9.37125 C7.24408309,9.37068617 6.4408915,9.70290392 5.84863734,10.2947595 C5.25638317,10.8866151 4.923625,11.6895829 4.923625,12.526875 L4.923625,13.8369375 C4.923625,15.8599375 5.712,17.7618125 7.1431875,19.1919375 C8.55993805,20.6175518 10.4883294,21.4168394 12.4981875,21.4115 L13.236625,21.4115 C13.7391875,21.4115 14.212,21.66225 14.481875,22.0840625 L14.486125,22.0915 C14.8197493,22.616714 14.8731854,23.2725817 14.6289792,23.8448738 C14.3847729,24.4171659 13.8742817,24.8323968 13.26425,24.9549375 L11.5334375,25.302375 C10.8852984,25.4137059 10.4118108,25.9760566 10.4125,26.6336875 L10.4125,32.6750625 C11.6821875,33.2095 13.0294375,33.594125 14.433,33.806625 C15.27025,33.934125 16.1276875,33.9989375 17.0010625,33.9989375 C19.3375,33.9989375 21.5634375,33.52825 23.5885625,32.6750625 L23.5885625,26.6336875 C23.5891708,25.9762985 23.1155993,25.4142972 22.467625,25.3034375 L20.7623125,24.9740625 C19.4511875,24.7190625 18.8051875,23.2209375 19.5298125,22.0989375 C19.8021261,21.6698836 20.2753886,21.4103913 20.7835625,21.4115 L21.5039375,21.4115 C23.5136186,21.4170018 25.4419442,20.618124 26.8589375,19.193 C28.2838608,17.7758722 29.0827022,15.8476343 29.0774634,13.838 L29.0774634,12.5279375 C29.0774634,10.7851339 27.6646161,9.3723125 25.9218125,9.3723125 L25.9196875,9.37125 Z M10.6515625,18.53425 C8.71037441,17.9635539 7.37635507,16.1832759 7.37375,14.1599375 L7.37375,13.141 C7.37375,12.5205 7.8763125,12.0179375 8.497875,12.0179375 L9.951375,12.0179375 L9.951375,14.8973125 C9.951375,16.0766875 10.3285625,17.1795625 10.96925,18.0848125 C11.128625,18.3100625 10.916125,18.6118125 10.6505,18.53425 L10.6515625,18.53425 Z M26.8398125,14.337375 C26.8371558,16.5119922 25.4141155,18.4296468 23.3335625,19.0623125 C23.0466875,19.148375 22.814,18.8221875 22.9850625,18.5756875 C23.6544375,17.6151875 24.0475625,16.4464375 24.0475625,15.1863125 L24.0475625,12.0179375 L25.62325,12.0179375 C26.2958125,12.0179375 26.8398125,12.5619375 26.8398125,13.2345 L26.8398125,14.337375 Z" id="Shape" fill="#FFE400"></path>
                                <path d="M25.9196875,9.37125 L24.048625,9.37125 L24.048625,7.4853125 C24.048625,6.36158562 23.1376644,5.450625 22.0139375,5.450625 L17,5.450625 L17,34 C19.3364375,34 21.562375,33.5293125 23.5875,32.676125 L23.5875,26.63475 C23.5885463,25.9772014 23.1147685,25.414955 22.4665625,25.3045 L20.7601875,24.975125 C19.450125,24.720125 18.8051875,23.222 19.5298125,22.1 L19.543625,22.07875 C19.8185185,21.6623391 20.2846008,21.4123241 20.7835625,21.413625 L21.502875,21.413625 C23.5125795,21.4192454 25.440949,20.6203494 26.857875,19.195125 C28.2828986,17.7780645 29.0817582,15.8497827 29.076402,13.840125 L29.076402,12.526875 C29.076402,11.6897671 28.7437625,10.8869605 28.1517382,10.2951354 C27.5597139,9.70331039 26.7567954,9.37096815 25.9196875,9.37125 L25.9196875,9.37125 Z M26.8398125,14.337375 C26.8370134,16.5122832 25.4134737,18.4300296 23.3325,19.0623125 C23.045625,19.148375 22.814,18.8221875 22.9850625,18.5756875 C23.6544375,17.6151875 24.0475625,16.4464375 24.0475625,15.1863125 L24.0475625,12.0179375 L25.62325,12.0179375 C26.2958125,12.0179375 26.8398125,12.5619375 26.8398125,13.2345 L26.8398125,14.337375 L26.8398125,14.337375 Z" id="Shape" fill="#FFB600"></path>
                                <path d="M19.52875,22.1 C18.804125,23.2209375 19.4490625,24.720125 20.76125,24.973 L22.4665625,25.3034375 C23.114728,25.4142403 23.5886452,25.9761194 23.5885625,26.6336875 L23.5885625,32.6750625 C21.5028605,33.5521621 19.26262,34.0026669 17,34.0000118 C14.6635625,34.0000118 12.437625,33.52825 10.4125,32.6750625 L10.4125,26.6336875 C10.4123287,25.9764579 10.8856943,25.4147008 11.5334375,25.3034375 L13.2631875,24.956 C13.8734094,24.8337443 14.3841893,24.4186276 14.6286264,23.8462923 C14.8730635,23.2739569 14.8197569,22.6179261 14.486125,22.0925625 C14.1381171,21.5467482 13.6804066,21.0792683 13.1420625,20.7198125 C11.1555087,19.3985987 9.95874977,17.1736553 9.951375,14.787875 L9.951375,7.48425 C9.951375,6.360125 10.8619375,5.4495625 11.9860625,5.4495625 L22.0139375,5.4495625 C23.1380625,5.4495625 24.0486263,6.360125 24.0486263,7.48425 L24.0486263,14.847375 C24.0500814,17.2139993 22.8625252,19.4230534 20.8876875,20.72725 C20.3455013,21.0861759 19.8832329,21.5531465 19.5298125,22.0989375 L19.52875,22.1 Z" id="Path" fill="#FFE400"></path>
                                <path d="M19.52875,22.1 C18.804125,23.2209375 19.450125,24.720125 20.76125,24.973 L22.4665625,25.3034375 C23.114728,25.4142403 23.5886452,25.9761194 23.5885625,26.6336875 L23.5885625,32.6750625 C21.5028605,33.5521621 19.26262,34.0026669 17,34.0000118 C16.1399755,34.0003766 15.2811532,33.935734 14.430875,33.806625 C14.3469375,33.645125 14.2938125,33.3965 14.2938125,33.118125 L14.2938125,26.6336875 C14.2938125,25.976 14.48825,25.415 14.7549375,25.3034375 L15.4646875,24.956 C15.9980625,24.6956875 16.2594375,23.2103125 15.96725,22.0925625 C15.8259375,21.5549375 15.6389375,21.0853125 15.41475,20.7198125 C14.6274375,19.4405625 13.4395625,17.2454375 13.4395625,14.787875 L13.4395625,5.4485 L22.0139375,5.4485 C23.137,5.4485 24.0475643,6.360125 24.0475643,7.48425 L24.0475643,14.847375 C24.0492546,17.2137966 22.8621205,19.4228081 20.8876875,20.72725 C20.3447334,21.0859479 19.8817263,21.552934 19.5276875,22.0989375 L19.52875,22.1 Z" id="Path" fill="#FFCE00"></path>
                                <path d="M19.52875,22.1 C18.804125,23.2209375 19.450125,24.720125 20.76125,24.973 L22.4665625,25.3034375 C23.114728,25.4142403 23.5886452,25.9761194 23.5885625,26.6336875 L23.5885625,32.6750625 C21.502869,33.5521897 19.2626229,34.0026956 17,34.000012 L17,5.4495625 L22.015,5.4495625 C23.1380625,5.4495625 24.0486263,6.360125 24.0486263,7.48425 L24.0486263,14.847375 C24.0500814,17.2139993 22.8625252,19.4230534 20.8876875,20.72725 C20.3455013,21.0861759 19.8832329,21.5531465 19.5298125,22.0989375 L19.52875,22.1 Z" id="Path" fill="#FFB600"></path>
                                <path d="M24.048625,7.48425 L24.048625,9.37125 L9.951375,9.37125 L9.951375,7.48425 C9.951375,6.360125 10.8619375,5.4495625 11.9860625,5.4495625 L22.0139375,5.4495625 C23.1380625,5.4495625 24.048625,6.360125 24.048625,7.48425 Z" id="Path" fill="#FFCE00"></path>
                                <path d="M24.048625,7.48425 L24.048625,9.37125 L13.440625,9.37125 L13.440625,5.4495625 L22.015,5.4495625 C23.1380625,5.4495625 24.048625,6.360125 24.048625,7.48425 Z" id="Path" fill="#FFB600"></path>
                                <path d="M24.048625,7.48425 L24.048625,9.37125 L17,9.37125 L17,5.4495625 L22.015,5.4495625 C23.1380625,5.4495625 24.048625,6.360125 24.048625,7.48425 Z" id="Path" fill="#EC781B"></path>
                                <path d="M23.5875,26.6336875 L23.5875,32.676125 C21.502061,33.5527488 19.2621929,34.00289 17,34.0000138 C14.6635625,34.0000138 12.437625,33.52825 10.4125,32.676125 L10.4125,26.6336875 L23.5875,26.6336875 L23.5875,26.6336875 Z" id="Path" fill="#C55732"></path>
                                <path d="M23.5875,26.6336875 L23.5875,32.676125 C21.502061,33.5527488 19.2621929,34.00289 17,34.0000138 L17,26.6336875 L23.5875,26.6336875 Z" id="Path" fill="#A63917"></path>
                                <polygon id="Path" fill="#FFFFFF" points="12.866875 28.6875 21.133125 28.6875 21.133125 31.945125 12.866875 31.945125 12.866875 28.6885625"></polygon>
                                <polygon id="Path" fill="#D1F6FF" points="17 28.6875 21.133125 28.6875 21.133125 31.945125 17 31.945125 17 28.6885625"></polygon>
                                <path d="M29.0965625,20.03875 L29.1985625,20.03875 C29.6469375,20.03875 30.0103125,20.4031875 30.0103125,20.8515625 L30.0103125,20.9525 L30.589375,20.9525 L30.589375,20.8515625 C30.589375,20.4031875 30.95275,20.03875 31.401125,20.03875 L31.5020625,20.03875 L31.5020625,19.46075 L31.401125,19.46075 C30.9528079,19.46075 30.589375,19.0973171 30.589375,18.649 L30.589375,18.547 L30.0103125,18.547 L30.0103125,18.649 C30.0103125,19.0973171 29.6468796,19.46075 29.1985625,19.46075 L29.0965625,19.46075 L29.0965625,20.03875 Z M2.496875,20.03875 L2.598875,20.03875 C3.04725,20.03875 3.410625,20.4031875 3.410625,20.8515625 L3.410625,20.9525 L3.9896875,20.9525 L3.9896875,20.8515625 C3.9896875,20.4031875 4.3530625,20.03875 4.8014375,20.03875 L4.902375,20.03875 L4.902375,19.46075 L4.8025,19.46075 C4.35418285,19.46075 3.99075,19.0973171 3.99075,18.649 L3.99075,18.547 L3.410625,18.547 L3.410625,18.649 C3.410625,18.8642895 3.32510158,19.0707613 3.17286893,19.2229939 C3.02063627,19.3752266 2.81416449,19.46075 2.598875,19.46075 L2.496875,19.46075 L2.496875,20.03875 Z M6.26025,26.250125 L6.3611875,26.250125 C6.8095625,26.250125 7.1729375,26.6135 7.1729375,27.061875 L7.1729375,27.1628125 L7.752,27.1628125 L7.752,27.061875 C7.752,26.6135 8.115375,26.250125 8.56375,26.250125 L8.66575,26.250125 L8.66575,25.6710625 L8.56375,25.6710625 C8.11543285,25.6710625 7.752,25.3076296 7.752,24.8593125 L7.752,24.758375 L7.1729375,24.758375 L7.1729375,24.8593125 C7.1729375,25.074602 7.08741408,25.2810738 6.93518143,25.4333064 C6.78294877,25.5855391 6.57647699,25.6710625 6.3611875,25.6710625 L6.26025,25.6710625 L6.26025,26.250125 L6.26025,26.250125 Z M25.33425,26.250125 L25.43625,26.250125 C25.884625,26.250125 26.248,26.6135 26.248,27.061875 L26.248,27.1628125 L26.8270625,27.1628125 L26.8270625,27.061875 C26.8270625,26.6135 27.1904375,26.250125 27.6388125,26.250125 L27.73975,26.250125 L27.73975,25.6710625 L27.6388125,25.6710625 C27.1904954,25.6710625 26.8270625,25.3076296 26.8270625,24.8593125 L26.8270625,24.758375 L26.248,24.758375 L26.248,24.8593125 C26.248,25.3076296 25.8845671,25.6710625 25.43625,25.6710625 L25.33425,25.6710625 L25.33425,26.250125 L25.33425,26.250125 Z M6.26025,6.5705 L6.3611875,6.5705 C6.8095625,6.5705 7.1729375,6.933875 7.1729375,7.38225 L7.1729375,7.4831875 L7.752,7.4831875 L7.752,7.38225 C7.752,6.933875 8.115375,6.5705 8.56375,6.5705 L8.66575,6.5705 L8.66575,5.9914375 L8.56375,5.9914375 C8.11543285,5.9914375 7.752,5.62800465 7.752,5.1796875 L7.752,5.07875 L7.1729375,5.07875 L7.1729375,5.1796875 C7.1729375,5.39497699 7.08741408,5.60144877 6.93518143,5.75368143 C6.78294877,5.90591408 6.57647699,5.9914375 6.3611875,5.9914375 L6.26025,5.9914375 L6.26025,6.5705 L6.26025,6.5705 Z M25.33425,6.5705 L25.43625,6.5705 C25.884625,6.5705 26.248,6.933875 26.248,7.38225 L26.248,7.4831875 L26.8270625,7.4831875 L26.8270625,7.38225 C26.8270625,6.933875 27.1904375,6.5705 27.6388125,6.5705 L27.73975,6.5705 L27.73975,5.9914375 L27.6388125,5.9914375 C27.1904954,5.9914375 26.8270625,5.62800465 26.8270625,5.1796875 L26.8270625,5.07875 L26.248,5.07875 L26.248,5.1796875 C26.248,5.62800465 25.8845671,5.9914375 25.43625,5.9914375 L25.33425,5.9914375 L25.33425,6.5705 L25.33425,6.5705 Z" id="Shape" fill="#FFFFFF"></path>
                            </g>
                        </g>
                    </g>
                </g>
            </g>
        </g>
    </g>
</svg>