<?xml version="1.0" encoding="UTF-8"?>
<svg width="34px" height="34px" viewBox="0 0 34 34" version="1.1" xmlns="http://www.w3.org/2000/svg" xmlns:xlink="http://www.w3.org/1999/xlink">
    <title>vhorses_icon_34px</title>
    <g id="05---Virtual-Forecasts" stroke="none" stroke-width="1" fill="none" fill-rule="evenodd">
        <g id="05-elgbet_sb_virtualforecasts_1024" transform="translate(-781.000000, -94.000000)">
            <g id="sections" transform="translate(18.000000, 74.000000)">
                <g id="section_10" transform="translate(745.000000, 10.000000)">
                    <g id="vhorses_icon_34px" transform="translate(18.000000, 10.000000)">
                        <g id="Group" transform="translate(0.000000, 0.000000)" fill-rule="nonzero">
                            <path d="M16.1163445,34 C25.0167011,34 32.2326891,26.7909752 32.2326891,17.8968342 C32.2326891,9.00375564 25.0167011,1.79366833 16.1163445,1.79366833 C7.21598799,1.79366833 2.10289241e-16,9.00375564 2.10289241e-16,17.8968342 C2.10289241e-16,26.7899127 7.21386126,34 16.1163445,34 Z" id="Path" fill="#87D7F5"></path>
                            <path d="M32.1018953,19.9474484 L27.7846375,19.9474484 C27.3212738,19.9474484 26.9456434,20.3227718 26.9456434,20.7857566 C26.9456434,21.2487413 27.3212738,21.6240647 27.7846375,21.6240647 L28.5215488,21.6240647 C28.9849125,21.6240647 29.3605429,21.999388 29.3605429,22.4623728 C29.3605429,22.9253576 28.9849125,23.3006809 28.5215488,23.3006809 L24.9741665,23.3006809 C24.5227117,23.3167476 24.1650366,23.6870861 24.1650366,24.1384578 C24.1650366,24.5898294 24.5227117,24.960168 24.9741665,24.9762347 L27.3561018,24.9762347 C27.8194655,24.9762347 28.195096,25.351558 28.195096,25.8145428 C28.195096,26.2775276 27.8194655,26.6528509 27.3561018,26.6528509 L27.0020016,26.6528509 C26.5505468,26.6689176 26.1928717,27.0392561 26.1928717,27.4906278 C26.1928717,27.9419994 26.5505468,28.3123379 27.0020016,28.3284046 L28.390755,28.3284046 C30.4172188,25.9552413 31.706931,23.043023 32.1018953,19.9485109 L32.1018953,19.9474484 Z M3.2358166,8.21644726 L10.4932758,8.21644726 C10.9447306,8.20038055 11.3024057,7.83004204 11.3024057,7.37867039 C11.3024057,6.92729873 10.9447306,6.55696023 10.4932758,6.54089352 L9.14812035,6.54089352 C8.68475666,6.54089352 8.30912617,6.16557019 8.30912617,5.7025854 C8.30912617,5.23960061 8.68475666,4.86427728 9.14812035,4.86427728 L11.56302,4.86427728 C12.0144747,4.84821057 12.3721499,4.47787206 12.3721499,4.02650041 C12.3721499,3.57512875 12.0144747,3.20479025 11.56302,3.18872354 L9.54475511,3.18872354 C7.05085865,4.30535548 4.88072642,6.03507033 3.23687996,8.21644726 L3.2358166,8.21644726 Z M6.97992119,9.8930635 L5.73046851,9.8930635 C5.26710481,9.8930635 4.89147432,10.2683868 4.89147432,10.7313716 C4.89147432,11.1943564 5.26710481,11.5696797 5.73046851,11.5696797 L6.97992119,11.5696797 C7.44328488,11.5696797 7.81891537,11.1943564 7.81891537,10.7313716 C7.81891537,10.2683868 7.44328488,9.8930635 6.97992119,9.8930635 L6.97992119,9.8930635 Z" id="Shape" fill="#BAEAF7"></path>
                            <path d="M10.4911491,21.9396255 C9.66172515,23.1604317 8.10283355,24.9071725 5.45080378,26.1131037 C5.35829111,26.1768534 5.27215863,26.2299781 5.19772315,26.2724779 C5.0296722,26.3700007 4.93534022,26.5576763 4.95740289,26.7506004 C5.02333146,27.3657847 5.1519985,28.7109026 5.13498468,29.6809601 C5.4678176,29.9912085 5.8134109,30.2876444 6.17176456,30.5692054 L6.57052605,27.4518467 C6.5961403,27.2518277 6.72315233,27.0791362 6.90654907,26.9949741 C10.2125477,25.4766695 11.8107838,23.1593692 12.535998,21.6803769 C12.696566,21.3510036 12.9283793,21.0715676 13.2059173,20.8537562 L13.0006881,20.8261314 C12.0199059,20.6873236 11.0457738,21.1195506 10.4911491,21.9396255 L10.4911491,21.9396255 Z" id="Path" fill="#BC8053"></path>
                            <path d="M6.66729217,25.481982 C6.28979796,25.7040434 5.88571965,25.9165422 5.45080378,26.1141662 C5.36836924,26.1702843 5.28395523,26.2234429 5.19772315,26.2735404 C5.03043528,26.3707388 4.93622351,26.5573422 4.95740289,26.7495379 C5.02333146,27.3657847 5.1519985,28.7109026 5.13498468,29.6809601 C5.4678176,29.9912085 5.8134109,30.2876444 6.17176456,30.5692054 L6.57052605,27.4518467 C6.59102462,27.2950024 6.67428108,27.1531605 6.80127604,27.0587238 C6.76193157,26.4531019 6.70557328,25.8836049 6.6694189,25.5404192 C6.66752791,25.521001 6.6668177,25.5014861 6.66729217,25.481982 L6.66729217,25.481982 Z" id="Path" fill="#AD734D"></path>
                            <path d="M19.1224745,11.0947447 C19.1224745,11.0947447 23.1356102,3.34278523 32.7314068,6.50901868 C32.8611372,6.55151846 32.8983549,6.71939258 32.8058422,6.81926706 L31.4532433,8.2855094 C31.4532433,8.2855094 25.6781135,5.12565091 19.1224745,11.0947447 L19.1224745,11.0947447 Z M1.2547695,18.306957 C0.560392819,19.0485781 0.34984675,19.8656364 0.242446988,20.6954445 C0.454701258,21.9050682 0.805802087,23.0862124 1.28879715,24.2154886 C1.67479827,23.8648655 1.97041346,23.4292427 2.09589041,22.8809956 C2.6807406,20.3214465 2.29792957,18.4695187 5.15625195,17.9552714 L5.21580034,17.346462 C5.21580034,17.346462 2.9199975,16.5251538 1.2547695,18.306957 L1.2547695,18.306957 Z" id="Shape" fill="#888889"></path>
                            <path d="M1.2547695,18.3058945 C0.560392819,19.0485781 0.34984675,19.8656364 0.242446988,20.694382 C0.401951586,21.6070648 0.640145118,22.4921226 0.946393945,23.3453057 C1.43873147,21.7919388 0.953837493,20.0590104 2.30749984,18.6108304 C3.2475136,17.6046482 4.38850316,17.4293366 5.20410333,17.4665239 L5.21580034,17.3453995 C5.21580034,17.3453995 2.9199975,16.5240913 1.2547695,18.3058945 Z" id="Path" fill="#757575"></path>
                            <path d="M33.2343779,12.6969863 C33.3407143,10.5613725 32.5835992,9.33100393 32.2805404,8.92725604 C32.2526862,8.89002953 32.2428729,8.84234145 32.2537678,8.79715411 C32.2646628,8.75196677 32.2951339,8.71397564 32.3368987,8.69350727 L33.5385,8.10913532 C33.5729367,8.0914145 33.5936662,8.05506075 33.5913646,8.01642544 C33.589063,7.97779013 33.5641638,7.94415015 33.5278664,7.93063625 C32.3039344,7.48438858 31.4893976,7.53538832 31.1810221,7.58213807 C31.0870393,7.59617751 30.9910198,7.58018734 30.9066742,7.53645081 C26.3150685,5.16071323 20.2624007,9.05475538 17.9410771,11.3380559 C15.5963595,13.6447314 14.5446926,13.813668 8.60474135,14.965412 C2.66372678,16.1182185 4.46825546,20.900506 4.2279352,23.1434317 C4.05779696,24.7392984 2.80515419,25.5244818 2.09695377,25.8442926 C2.42872334,26.4265396 2.79452055,26.9864742 3.19328204,27.5198464 L3.22943642,27.3880971 C3.28743294,27.1770574 3.45021197,27.0107971 3.66009883,26.9482244 C7.44035779,25.8198553 9.5096641,23.5726795 10.5124163,22.0958122 C11.0667817,21.2766928 12.0399408,20.8449436 13.0198286,20.9833805 C18.2366923,21.7281891 21.0227059,20.2003221 21.7840746,19.6871373 C21.9327195,19.5884532 22.1101958,19.5424368 22.2881091,19.5564505 C24.7933946,19.7391995 26.8467505,18.3749567 26.8467505,18.3749567 C26.8467505,18.3749567 26.4533058,19.8592614 25.7270282,20.3235715 C25.2272471,20.6423198 24.3276412,20.5668827 23.8140364,20.4882581 C23.5873641,20.4544413 23.3692268,20.5885354 23.2972415,20.805944 L22.9633452,21.8068137 C22.9212791,21.9342345 22.9505399,22.0744023 23.0400798,22.1743945 C23.1296198,22.2743867 23.2657978,22.31897 23.3971977,22.2913112 L26.7818853,21.5783774 L28.5449428,18.4907686 C28.5449428,18.4907686 28.4173391,17.920209 28.0876963,17.2423376 C27.8675799,16.7918399 26.7297804,16.592091 25.9918058,16.5092164 C25.8200003,16.4889052 25.6651595,16.3959563 25.566536,16.2539327 C25.4679125,16.111909 25.4349754,15.9344466 25.4760743,15.7665328 C26.1140927,13.0805468 27.9356352,12.4303002 27.9356352,12.4303002 C28.0462251,13.2696708 28.8501282,13.4853572 30.1197848,13.7987931 C31.3894414,14.1132914 31.560643,15.2119107 31.6329518,15.7633453 C31.6520923,15.9046571 31.7318446,16.0289689 31.8403078,16.1330934 C32.2196808,16.4896632 32.8129283,16.4840401 33.1854632,16.1203434 L33.7915807,15.5380965 C33.9530382,15.383112 34.0124038,15.1499627 33.9447051,14.9367246 L33.2343779,12.6969863 Z" id="Path" fill="#CE9666"></path>
                            <path d="M30.6610371,11.7598662 C30.2291348,11.5656612 29.8780939,11.2276757 29.6678551,10.8036212 C29.6101079,10.6889179 29.4931094,10.6160181 29.364613,10.6146571 C29.2361165,10.6133339 29.1176185,10.6837741 29.0574842,10.7972463 L28.0228311,12.7479861 C28.2812285,13.332358 29.02771,13.5289195 30.1197848,13.7998556 C31.3905048,14.1132914 31.560643,15.2129732 31.6340151,15.7633453 C31.6520923,15.9057196 31.732908,16.0289689 31.8413711,16.1330934 C32.1909565,16.462519 32.7292633,16.4864744 33.1067743,16.1894056 C33.0961406,14.1749161 31.6010509,12.1731766 30.6610371,11.7588037 L30.6610371,11.7598662 Z" id="Path" fill="#BC8053"></path>
                            <path d="M18.1346094,11.2881187 C18.1168516,11.2191104 18.0634705,11.1648868 17.9947077,11.1460089 C17.9259448,11.1271311 17.8523297,11.1464897 17.8017764,11.1967442 C15.7069494,13.2579834 14.7605555,13.5629193 9.8286733,14.5255393 C9.74252828,14.541827 9.67722469,14.6125658 9.66791912,14.699673 C9.65861354,14.7867802 9.70750216,14.8696981 9.78826547,14.9037873 C12.2286858,15.9450319 14.1671983,16.3732171 15.5825358,16.1872806 C16.2662789,16.0969686 16.8287984,15.8642823 17.265841,15.4870968 C17.9283168,14.9154747 18.2877338,14.0038545 18.3047476,12.851048 C18.3125181,12.3254165 18.2553739,11.800834 18.1346094,11.2891812 L18.1346094,11.2881187 Z" id="Path" fill="#888889"></path>
                            <path d="M16.8936636,15.0759114 C15.6335773,15.240598 13.958779,14.9175997 11.8830925,14.110104 C11.2833552,14.2397283 10.6059924,14.3746651 9.8286733,14.5266018 C9.74332727,14.5435136 9.67889639,14.6139024 9.66963574,14.7003456 C9.66037509,14.7867888 9.70843555,14.8692092 9.78826547,14.9037873 C12.2286858,15.9450319 14.1671983,16.3732171 15.5825358,16.1872806 C16.2662789,16.0980311 16.8287984,15.8642823 17.265841,15.4870968 C17.4785416,15.302236 17.6602014,15.0844943 17.8039032,14.8421626 C17.5117308,14.9586155 17.2058254,15.0371718 16.8936636,15.0759114 L16.8936636,15.0759114 Z" id="Path" fill="#757575"></path>
                            <path d="M21.1354225,4.98327666 C21.8920001,4.98327666 22.5911066,4.57997741 22.9693954,3.92529782 C23.3476841,3.27061823 23.3476841,2.4640197 22.9693954,1.80934011 C22.5911066,1.15466052 21.8920001,0.751361275 21.1354225,0.751361275 C19.9661486,0.751361275 19.0182648,1.69846995 19.0182648,2.86678772 C19.0182648,4.03510548 19.9661486,4.98221416 21.1354225,4.98221416 L21.1354225,4.98327666 Z" id="Path" fill="#F4C48B"></path>
                            <path d="M20.8142866,2.76585075 C20.464172,2.15970523 20.4370953,1.41968314 20.7419779,0.789611075 C19.7619603,0.974838519 19.0442369,1.81838787 19.0189992,2.81464973 C18.9937614,3.81091158 19.6678548,4.6896614 20.6372389,4.9241912 C21.606623,5.158721 22.6083636,4.68541729 23.0420342,3.7879704 C22.1575295,3.95482047 21.2640902,3.54489889 20.8142866,2.76585075 L20.8142866,2.76585075 Z" id="Path" fill="#E4A970"></path>
                            <path d="M13.9130544,9.77618911 L14.1363608,9.64762728 C13.7386627,9.49144059 12.8348033,9.0494429 11.9373241,7.98482347 L11.6502158,8.1516351 C11.0653656,8.49163332 10.8526928,9.22475449 11.1546882,9.82081387 C11.2004128,9.93768826 11.2663414,10.0481877 11.3567273,10.1469997 L14.9562144,14.1249789 C15.0067551,14.1808839 15.0324604,14.2548698 15.0274598,14.3300403 L14.9849253,14.967537 L17.1297304,15.0440366 L17.207356,13.90398 C17.2270054,13.6138865 17.1280035,13.3282426 16.9330081,13.1124217 L13.9130544,9.77512661 L13.9130544,9.77618911 Z" id="Path" fill="#EBE4DD"></path>
                            <path d="M14.9838619,14.967537 L16.0791268,15.0068493 L16.132295,14.3799775 L16.1631325,14.0261669 C16.1680154,13.9505023 16.1419161,13.8761034 16.0908238,13.820043 L12.664665,9.97487557 C12.5782544,9.87955641 12.5098068,9.76940982 12.4626259,9.64975227 C12.2859553,9.29856512 12.2820286,8.88542194 12.4519922,8.53094561 C12.2705483,8.35846762 12.0987329,8.17615173 11.9373241,7.98482347 L11.6502158,8.1516351 C11.0653656,8.49163332 10.8526928,9.22475449 11.1546882,9.82081387 C11.2004128,9.93768826 11.2663414,10.0481877 11.3567273,10.1469997 L14.9562144,14.1239164 C15.0070295,14.1800841 15.0327544,14.2545104 15.0274598,14.3300403 L14.9849253,14.967537 L14.9838619,14.967537 Z" id="Path" fill="#D8D8D8"></path>
                            <polygon id="Path" fill="#888889" points="17.1446175 14.8219752 14.998749 14.7465381 14.6818665 19.3992013 16.8192281 19.6095752 17.1446175 14.8230377"></polygon>
                            <polygon id="Path" fill="#757575" points="16.0801902 14.7847879 14.998749 14.7465381 14.6818665 19.3992013 15.7579909 19.5054508 16.0801902 14.7847879"></polygon>
                            <path d="M19.7190217,4.93865189 C19.3660571,4.33191368 18.5876709,4.12594083 17.9804216,4.47859179 L11.738475,8.09957287 C12.7805717,9.48294064 13.9130544,9.77618911 13.9130544,9.77618911 L19.2575217,6.67583031 C19.549307,6.50664616 19.7618627,6.22855762 19.8484143,5.9027604 C19.9349658,5.57696317 19.8884207,5.23015427 19.7190217,4.93865189 L19.7190217,4.93865189 Z" id="Path" fill="#EA5050"></path>
                            <path d="M19.8274848,5.96820901 C19.3834995,5.55253167 18.7192373,5.47696184 18.1930944,5.78227248 L12.6083067,9.02288054 C13.3260774,9.6242524 13.9130544,9.77618911 13.9130544,9.77618911 L19.2575217,6.67476782 C19.5284691,6.51783607 19.7315486,6.26608702 19.8274848,5.96820901 L19.8274848,5.96820901 Z" id="Path" fill="#D84545"></path>
                            <path d="M17.4519297,19.1803275 L16.9245012,19.3195142 L16.8500657,19.3407641 L14.7020704,19.1240152 L14.6446488,19.3928263 L14.3554138,20.7453818 L14.2618377,21.2171293 C14.2482749,21.2844141 14.2639143,21.3542895 14.3048696,21.4093921 C14.3458249,21.4644948 14.4082515,21.499652 14.4766373,21.5061278 L17.0425346,21.7632515 C17.0871958,21.7675014 17.1329205,21.7632515 17.1754551,21.7526265 L18.6684181,21.3552536 L19.0905736,21.2426292 C19.1182728,21.235401 19.1419376,21.2174222 19.1563129,21.1926849 C19.1706882,21.1679477 19.1745842,21.1384997 19.1671358,21.1108799 L18.8715206,20.0016357 C18.7048965,19.3843732 18.0706557,19.0174315 17.4519297,19.1803275 L17.4519297,19.1803275 Z" id="Path" fill="#757575"></path>
                            <path d="M14.6446488,19.3928263 L14.3554138,20.7464443 L14.2618377,21.2181918 C14.2486164,21.2851513 14.2642773,21.3545769 14.3049688,21.4093947 C14.3456603,21.4642126 14.4076069,21.4993363 14.4755739,21.5061278 L15.3953837,21.5985648 L15.737787,19.2292022 L14.7020704,19.1240152 L14.6446488,19.3928263 L14.6446488,19.3928263 Z" id="Path" fill="#666666"></path>
                            <path d="M20.6994433,0.0235525788 C19.5100639,0.199558829 18.6884807,1.30536356 18.8640771,2.49385217 L23.1717646,1.8563555 C23.0871851,1.28571575 22.7791844,0.772024779 22.3155272,0.428302327 C21.8518699,0.0845798736 21.2705417,-0.061014348 20.6994433,0.0235525788 Z" id="Path" fill="#F95E5A"></path>
                            <path d="M21.5618315,0.06923984 C20.8550359,-0.113302906 20.103722,0.070328837 19.5610668,0.558255015 C19.0184116,1.04618119 18.7566826,1.77342281 18.8640771,2.49491466 L20.5399387,2.24629096 C20.4080816,1.35485812 20.8376806,0.510175035 21.5618315,0.0681773456 L21.5618315,0.06923984 Z" id="Path" fill="#EA5050"></path>
                            <path d="M23.1271033,2.53103947 L19.1022706,3.12603636 C18.8978681,3.1552094 18.7080966,3.01441931 18.676925,2.81047551 C18.6477281,2.60624014 18.7886334,2.41662386 18.9927441,2.38547773 L23.0175768,1.78835586 C23.2223365,1.75922005 23.4122701,1.90060484 23.4429224,2.1049792 C23.4721193,2.30921457 23.331214,2.49883085 23.1271033,2.52997698 L23.1271033,2.53103947 Z" id="Path" fill="#FCCB5B"></path>
                            <path d="M20.23688,2.57991422 C20.2076831,2.37567885 20.3485884,2.18606257 20.5526991,2.15491644 L18.9927441,2.38441524 C18.7877261,2.41502958 18.6460626,2.60550138 18.6758616,2.81047551 C18.706501,3.01532592 18.8971287,3.15687354 19.1022706,3.12709886 L20.6632889,2.89547507 C20.4585046,2.92528591 20.2680399,2.78433388 20.23688,2.57991422 L20.23688,2.57991422 Z" id="Path" fill="#F8A748"></path>
                            <path d="M32.1731407,10.663372 L32.2560831,11.3008686 C32.2698878,11.40503 32.2163836,11.5065518 32.1226174,11.5541135 C32.0288512,11.6016753 31.9152516,11.5849149 31.8392444,11.512305 L31.5393757,11.2275565 C31.4544801,11.1469824 31.4376265,11.0180254 31.4989679,10.9183706 L31.7148308,10.566685 C31.7695199,10.4770076 31.8748838,10.4315642 31.9777069,10.4533067 C32.0805301,10.4750491 32.158436,10.5592458 32.1720773,10.663372 L32.1731407,10.663372 Z" id="Path" fill="#888889"></path>
                            <path d="M30.8311753,14.8666 C30.6799027,14.8863883 30.5268143,14.8471962 30.403703,14.7571631 L21.9308188,8.57769537 C21.7589125,8.45242978 21.6669477,8.24504369 21.6895665,8.03365743 C21.7121853,7.82227118 21.8459515,7.63899936 22.0404766,7.55287869 C22.2350017,7.46675803 22.4607327,7.4908723 22.632639,7.6161379 L31.1065866,13.7956056 C31.3036444,13.9390555 31.3932787,14.1880399 31.3328238,14.4240427 C31.2723689,14.6600455 31.074039,14.8353851 30.8322387,14.8666 L30.8311753,14.8666 Z" id="Path" fill="#EBE4DD"></path>
                            <path d="M30.841809,14.9462871 C30.5487607,14.9851071 30.2715747,14.8032459 30.1907513,14.5191294 C30.1099279,14.2350129 30.2499384,13.9346647 30.5196097,13.813668 L33.1067743,12.5259247 C33.4065805,12.3903741 33.759597,12.5233308 33.8952586,12.8228919 C34.0309202,13.1224531 33.8978547,13.4751809 33.5980484,13.6107316 L31.0108838,14.8984748 C30.9572237,14.9227381 30.9002361,14.9388535 30.841809,14.9462871 L30.841809,14.9462871 Z" id="Path" fill="#D8D8D8"></path>
                            <path d="M24.3308313,8.10382285 L20.3506599,8.78381929 L20.2475136,8.35669653 L18.2313755,9.14825489 L18.4972165,10.2606866 C18.630137,10.8099962 19.1650091,11.1627444 19.7222118,11.0681824 L24.6934384,10.2181868 C25.2540648,10.095602 25.6191834,9.55428415 25.5224846,8.98905876 C25.4257858,8.42383337 24.9014404,8.03443627 24.3318947,8.10488534 L24.3308313,8.10382285 Z" id="Path" fill="#F4C48B"></path>
                            <path d="M25.5430662,8.86244388 L25.5345593,8.839069 C25.5252257,8.8085222 25.5145822,8.77839038 25.5026584,8.74875698 L25.4930881,8.73069457 C25.4789829,8.69880528 25.4633693,8.6676036 25.4463001,8.63719506 L25.4420467,8.6297576 C25.4231183,8.59686217 25.4025335,8.5649464 25.3803716,8.5341331 C25.294759,8.8918947 25.0041194,9.16432938 24.6413336,9.22687948 L20.3793707,9.95575067 C19.9021764,10.0367468 19.4438063,9.73435836 19.3308939,9.26406678 L19.2107337,8.7636319 L18.2303121,9.14825489 L18.4961531,10.2596241 C18.6290736,10.8089337 19.1639457,11.1627444 19.7211484,11.0671199 L24.6923751,10.2171243 C24.9930493,10.1652716 25.2574584,9.98808147 25.4195727,9.7298028 C25.5816869,9.47152413 25.6262026,9.15653869 25.5420029,8.86350638 L25.5430662,8.86244388 Z" id="Path" fill="#E4A970"></path>
                            <path d="M18.2515794,4.63796596 C17.5705767,4.80373884 17.150879,5.4873246 17.3115656,6.16902046 L18.0591105,9.28425418 C18.0726516,9.34001917 18.1096609,9.38721133 18.1606136,9.41368507 C18.2115663,9.44015881 18.271486,9.44332853 18.3249515,9.42237846 L20.3410896,8.62763261 C20.433304,8.5916453 20.4849793,8.49336128 20.4623131,8.39707131 L19.7849503,5.57721105 C19.6205845,4.89513698 18.9344859,4.47487682 18.2515794,4.63796596 L18.2515794,4.63796596 Z" id="Path" fill="#F95E5A"></path>
                            <path d="M18.5259273,5.9501466 C18.4089573,5.46139916 18.5939826,4.97052672 18.9587165,4.67090329 C18.7310652,4.59245877 18.4857171,4.58066221 18.2515794,4.63690347 C17.5704923,4.80314364 17.1512109,5.48729917 17.312629,6.16902046 L18.0601739,9.28425418 C18.0737149,9.34001917 18.1107242,9.38721133 18.1616769,9.41368507 C18.2126297,9.44015881 18.2725494,9.44332853 18.3260149,9.42237846 L19.2692187,9.0505054 L18.524864,5.94908411 L18.5259273,5.9501466 Z" id="Path" fill="#EA5050"></path>
                            <path d="M6.23131294,23.674679 C6.45780947,21.55819 5.25727153,17.6652104 7.69131169,15.1895983 C3.57928317,16.4231544 4.12053544,19.7795743 4.23537875,22.0596874 L4.23537875,22.0681874 L4.24069557,22.1818743 L4.24069557,22.2073741 L4.24494902,22.3029986 L4.24601239,22.3391234 C4.24812648,22.4074611 4.24954437,22.4758184 4.25026584,22.5441849 L4.25026584,22.7768712 L4.24920248,22.8193709 L4.24601239,22.8916206 L4.24388566,22.9309329 C4.24271293,22.9564457 4.24129504,22.9819468 4.2396322,23.0074325 L4.23750547,23.0393073 C4.2344793,23.0740663 4.23093436,23.1087784 4.22687183,23.1434317 L4.22687183,23.1487442 C4.22163381,23.1984674 4.21525194,23.2480635 4.20773128,23.2974934 L4.19816101,23.3474307 C4.19284419,23.380368 4.18752737,23.4133053 4.18008382,23.4451802 C4.17689373,23.4653676 4.17157691,23.48343 4.16732345,23.5025549 L4.14711953,23.5896794 L4.13116907,23.6481166 C4.11140042,23.720081 4.08905542,23.7913139 4.06417714,23.861678 L4.04290986,23.9179902 C4.00099706,24.0268114 3.95307198,24.1332245 3.89935573,24.2367385 L3.87383499,24.2845508 C3.86106273,24.3081159 3.84794651,24.3314933 3.83449052,24.3546754 L3.80896979,24.3971752 C3.79472274,24.4210777 3.78018905,24.4448084 3.76537186,24.4683623 L3.74091449,24.5066121 C3.72354548,24.5323556 3.70582105,24.5578579 3.68774629,24.5831117 L3.66860574,24.6096741 C3.61976678,24.6771574 3.56833236,24.742727 3.51441796,24.8062356 L3.49527741,24.8274854 C3.4754311,24.8511665 3.45522484,24.8745441 3.43466567,24.8976101 L3.40595484,24.9273599 L3.35278664,24.9836721 L3.32088572,25.0166095 C3.30371172,25.0334564 3.28634227,25.0501033 3.26878088,25.0665467 L3.23368987,25.099484 L3.18371177,25.1451713 L3.14649403,25.1770461 C3.04833556,25.2630722 2.9457592,25.3439313 2.83918184,25.4192948 L2.79664728,25.4511697 C2.76802103,25.4709525 2.73894823,25.4900824 2.70945143,25.5085444 C2.69881779,25.5170443 2.68605742,25.5234193 2.67542378,25.5308568 L2.62331895,25.5637941 L2.61162194,25.5712316 C2.50847564,25.6349812 2.40851942,25.6902309 2.31388003,25.7401682 L2.30856321,25.7422932 C2.23911577,25.778504 2.16854431,25.8125206 2.09695377,25.8442926 C2.42872334,26.4265396 2.79452055,26.9864742 3.19328204,27.5198464 L3.22943642,27.3891596 C3.28711478,27.1777124 3.44994816,27.0109949 3.66009883,26.9482244 C3.75048477,26.921662 3.83980734,26.8929746 3.92806655,26.8653498 L4.11947207,26.8016001 C4.99781072,26.2724779 6.05692125,25.3056079 6.23131294,23.674679 L6.23131294,23.674679 Z M20.8100332,19.0252033 C21.2279053,19.250803 21.6689176,19.4306972 22.1254144,19.561763 C22.1793723,19.5549791 22.2338702,19.5535555 22.2881091,19.557513 C24.7933946,19.740262 26.8467505,18.3749567 26.8467505,18.3749567 C26.8467505,18.3749567 23.7204604,19.0602656 20.9344467,18.6458927 C20.7111403,18.6129554 20.6101207,18.9168288 20.8100332,19.0252033 L20.8100332,19.0252033 Z" id="Shape" fill="#BC8053"></path>
                        </g>
                        <path d="M27.6198161,26.5625389 C27.0325364,26.5625389 26.5564521,27.0382338 26.5564521,27.6250333 L26.5564521,32.9375056 C26.5564521,33.524305 27.0325364,34 27.6198161,34 L32.936636,34 C33.5239157,34 34,33.524305 34,32.9375056 L34,27.6250333 C34,27.0382338 33.5239157,26.5625389 32.936636,26.5625389 L27.6198161,26.5625389 Z M30.1474323,31.7305119 L28.7980234,27.4922215 L27.4868956,27.4922215 L29.4137111,33.0703174 L30.9343216,33.0703174 L32.8590104,27.4922215 L31.5510727,27.4922215 L30.1995371,31.7305119 L30.1474323,31.7305119 Z" id="Shape" fill="#FDB600"></path>
                    </g>
                </g>
            </g>
        </g>
    </g>
</svg>