<?xml version="1.0" encoding="UTF-8"?>
<svg width="34px" height="34px" viewBox="0 0 34 34" version="1.1" xmlns="http://www.w3.org/2000/svg" xmlns:xlink="http://www.w3.org/1999/xlink">
    <title>vmotor_icon_34px</title>
    <g id="05---Virtual-Forecasts" stroke="none" stroke-width="1" fill="none" fill-rule="evenodd">
        <g id="05-elgbet_sb_virtualforecasts_1024" transform="translate(-862.000000, -94.000000)">
            <g id="sections" transform="translate(18.000000, 74.000000)">
                <g id="section_11" transform="translate(826.000000, 10.000000)">
                    <g id="vmotor_icon_34px" transform="translate(18.000000, 10.000000)">
                        <g id="Group" transform="translate(0.000000, 0.000000)" fill-rule="nonzero">
                            <path d="M17.6176935,33.9819379 C17.3512796,33.9936251 17.0827172,34 16.8120063,34 C7.52726698,34 3.57796994e-16,26.5562995 3.57796994e-16,17.3743897 C0.00107424961,8.19141737 7.52726698,0.747716825 16.8120063,0.747716825 C25.3759242,0.747716825 32.4434123,7.08006842 33.4886572,15.2696265 C33.5767457,15.9591728 26.5275197,33.5654477 17.6187678,33.9819379 L17.6176935,33.9819379 Z" id="Path" fill="#F5C02C"></path>
                            <path d="M29.7191153,9.18695654 L29.1701738,11.4840277 L29.7180411,13.9500324 L29.7180411,21.2874854 C29.7180411,21.2874854 26.2997788,22.5603306 19.5878673,21.774099 C19.6029068,21.6827262 19.612575,21.5924158 19.616872,21.5021054 C19.7694155,18.424115 13.4893523,17.4487629 12.9565245,12.6761248 C12.5665719,9.19758129 15.7119747,8.01185908 15.7227172,4.55881501 C15.7270142,3.56858821 15.4713428,2.53586242 15.0137125,1.5169488 C15.5207583,1.56901008 15.9998736,1.63382106 16.436019,1.71775659 C16.8764613,1.80169212 17.3061611,1.87712786 17.7251185,1.94406379 C18.5275829,2.07368575 19.2903002,2.58154885 20.0132701,2.65910953 C20.6503002,2.72710793 21.2561769,2.36905383 21.8309005,2.40305303 C25.3587362,2.60811072 27.7167141,2.22455721 28.8779779,1.95362606 C29.3076777,1.85269093 29.7191153,2.17674583 29.7191153,2.61448557 L29.7191153,9.18695654 L29.7191153,9.18695654 Z" id="Path" fill="#F9EECF"></path>
                            <path d="M19.8284992,20.6000641 C19.810237,20.9793677 19.6845498,21.369296 19.4675513,21.7592244 C18.4518251,21.6362832 17.4407083,21.4785882 16.436019,21.286423 C15.2865719,21.0675531 13.8427804,20.9676804 12.347425,20.9368687 C11.6599052,20.9230565 10.9594945,20.517191 10.273049,20.5288782 C9.58552923,20.539503 8.90982622,20.9687429 8.27172196,20.9963673 C5.81598736,21.1004898 3.90597156,21.286423 3.90597156,21.286423 L3.90597156,1.71775659 C3.90597156,1.71775659 6.26609795,1.48613702 9.1150079,1.39476416 C9.73699842,1.37351466 10.75109,2.3446169 11.3999368,2.34142947 C12.1261295,2.33824205 12.4881517,1.36395238 13.1950079,1.39263921 C13.8878989,1.42132604 14.5593049,1.46701247 15.1823697,1.53501087 C15.8849289,2.74304506 16.2931438,4.00101558 16.2888468,5.19417511 C16.2781043,8.33378903 13.4184518,9.41220126 13.7729542,12.5741272 C14.2574408,16.9143379 19.9670774,17.8015046 19.8284992,20.6000641 L19.8284992,20.6000641 Z" id="Path" fill="#F7E6B0"></path>
                            <path d="M25.3286572,17.8355038 C27.4986414,17.7207565 28.8704581,17.3871394 29.4301422,17.2235182 C29.3655019,18.5984844 29.4024829,19.9762838 29.5407899,21.3459216 C29.0842338,21.4872308 27.7435703,21.8452849 25.5370616,21.9791567 C25.3582106,20.6054483 25.288529,19.2199857 25.3286572,17.8355038 L25.3286572,17.8355038 Z M3.90597156,13.0958024 L3.90597156,17.1321453 C3.90597156,17.1321453 5.78590837,16.9483371 8.21371248,16.8431521 C8.27816746,15.6340554 8.41459716,14.2825871 8.65415482,12.7887471 C6.01579779,12.8896823 3.90597156,13.0958024 3.90597156,13.0958024 L3.90597156,13.0958024 Z M17.4952291,11.2938447 C17.3652449,11.963204 17.2545972,12.6081264 17.1622117,13.2275493 C18.6242654,13.4825434 19.9606319,13.6440396 21.170237,13.7364749 C21.2765877,12.962993 21.4097946,12.1491371 21.5763033,11.2938447 C21.661169,10.8582299 21.7288468,10.3779911 21.7804107,9.87012803 C20.4271429,9.78637978 19.0790265,9.63496056 17.7412322,9.41645116 C17.6926939,10.0460948 17.6105786,10.6727648 17.4952291,11.2938447 L17.4952291,11.2938447 Z M29.7191153,13.9500324 C29.5741431,15.0364812 29.4773678,16.1286904 29.4290679,17.2235182 C29.6224329,17.167207 29.7191153,17.1321453 29.7191153,17.1321453 L29.7191153,13.9500324 L29.7191153,13.9500324 Z M16.8861295,21.3703585 C18.4008215,21.6434146 19.7833807,21.816598 21.032733,21.9164707 C20.8570177,20.5332659 20.790929,19.1385894 20.8350711,17.7451935 C19.4733389,17.6265776 18.1182021,17.4429091 16.7744076,17.1948314 C16.7074724,18.587494 16.744815,19.9831463 16.8861295,21.3703585 L16.8861295,21.3703585 Z M13.2873934,8.86608906 C14.4400632,8.91602539 15.5293523,9.01483557 16.436019,9.18695654 C16.8829068,9.27195454 17.3169036,9.34845275 17.7423065,9.41645116 C17.8475829,8.15954312 17.8712164,6.75813846 17.8540284,5.39817033 C17.3800837,5.3229616 16.9073562,5.24043263 16.436019,5.15061364 C15.5443918,4.98061762 14.4776619,4.88286991 13.3475513,4.83293358 C13.3765561,6.17165221 13.3690363,7.57730676 13.2863191,8.86608906 L13.2873934,8.86608906 Z M21.8309005,2.40305303 C20.4552475,2.31986594 19.0848387,2.16666664 17.7251185,1.94406379 C17.7933341,3.09437538 17.8363142,4.24601508 17.8540284,5.39817033 C19.3569036,5.63722723 20.7190521,5.77534899 21.9393997,5.84228492 C21.9298658,4.69521885 21.8940483,3.5485138 21.8319747,2.40305303 L21.8309005,2.40305303 Z M13.3475513,4.83293358 C13.3204657,3.68525873 13.2696072,2.53825323 13.1950079,1.39263921 C11.8350593,1.34522141 10.473831,1.34593018 9.11393365,1.39476416 C9.17838863,2.37755363 9.2385466,3.57071316 9.26647709,4.8233713 C10.6265067,4.77741792 11.9877852,4.7809619 13.3475513,4.83399606 L13.3475513,4.83293358 Z M25.6606003,13.7789739 C28.3558926,13.6036655 29.7191153,13.0958024 29.7191153,13.0958024 L29.7191153,9.18695654 C29.7191153,9.18695654 28.564297,9.61725895 26.2815166,9.82337912 C26.2278041,10.3493043 26.1590521,10.8433552 26.0720379,11.2938447 C25.9112622,12.1185804 25.7740616,12.9476413 25.6606003,13.7800364 L25.6606003,13.7789739 Z M21.9393997,5.84228492 C21.9479937,7.22775245 21.9071722,8.63446949 21.7804107,9.86906555 C23.5872986,9.97743801 25.0890995,9.93070837 26.2815166,9.82337912 C26.4072038,8.5781583 26.4448025,7.16294147 26.43406,5.77216157 C25.2523855,5.88690888 23.7516588,5.94215758 21.9393997,5.84228492 Z M9.26647709,4.82443378 C7.47670631,4.87985796 5.68904833,4.98898897 3.90597156,5.15167611 L3.90597156,9.18908149 C3.90597156,9.18908149 6.31658768,8.95002459 9.20631912,8.86183916 C9.28903633,7.57093191 9.29655608,6.1631524 9.26647709,4.8233713 L9.26647709,4.82443378 Z M21.170237,13.7375374 C20.9852786,15.0667966 20.8733921,16.4050038 20.8350711,17.7462559 C22.3289944,17.8795445 23.8304924,17.909721 25.3286572,17.8365663 C25.3565877,16.6444693 25.4554186,15.2919385 25.6606003,13.7810989 C24.1646754,13.8724281 22.6640628,13.8578705 21.170237,13.7375374 L21.170237,13.7375374 Z M29.7191161,2.61448557 C29.7194208,2.40725194 29.6238634,2.21126487 29.4597178,2.08246454 C29.2955723,1.95366422 29.0808739,1.90620242 28.8769036,1.95362606 C28.3096998,2.08537297 27.4588942,2.24474424 26.3244866,2.3488668 C26.3803476,3.3858425 26.425466,4.56943976 26.43406,5.77322404 C28.615861,5.5617915 29.7191161,5.15061364 29.7191161,5.15061364 L29.7191161,2.61448557 L29.7191161,2.61448557 Z M12.7395261,12.7558104 C12.8147235,12.2819465 12.9017378,11.7953329 12.9994945,11.2938447 C13.1391469,10.5798614 13.2304581,9.75006834 13.2863191,8.86608906 C11.9268207,8.81576622 10.5659217,8.81434865 9.20631912,8.86183916 C9.16121583,9.67760926 9.06506543,10.489833 8.91842022,11.2938447 C8.81851501,11.8070201 8.73042654,12.305321 8.65308057,12.7887471 C10.0144888,12.7331877 11.3773832,12.7222028 12.7395261,12.7558104 L12.7395261,12.7558104 Z M16.436019,13.0958024 C15.3864771,12.8960571 14.0941548,12.795122 12.7395261,12.7558104 C12.5226024,14.0893337 12.3752352,15.433018 12.2980095,16.7815285 C13.8105529,16.8102154 15.2736809,16.910088 16.436019,17.1321453 L16.7733333,17.1948314 C16.8238231,16.015484 16.9430648,14.6927025 17.1622117,13.2286118 C16.9237283,13.1861128 16.6820221,13.1425513 16.436019,13.0958024 L16.436019,13.0958024 Z M8.21371248,16.8431521 C8.1336302,18.2268158 8.15301547,19.6143578 8.27172196,20.9953048 C9.62934781,20.9340157 10.9885733,20.9145276 12.347425,20.9368687 C12.2320018,19.554636 12.2154888,18.1660638 12.2980095,16.7815285 C10.9362604,16.7604273 9.57417714,16.7809783 8.21371248,16.8431521 L8.21371248,16.8431521 Z" id="Shape" fill="#838383"></path>
                            <path d="M9.26647709,4.8233713 C9.23952205,3.6796039 9.18902186,2.53649792 9.1150079,1.39476416 C10.4320379,1.35226516 11.8543444,1.33951546 13.1950079,1.39263921 C13.2594629,2.3786161 13.3196209,3.57602554 13.3475513,4.83293358 C11.9874143,4.78022839 10.625777,4.7770388 9.26540284,4.8233713 L9.26647709,4.8233713 Z M3.90597156,13.0958024 L3.90597156,17.1321453 C3.90597156,17.1321453 5.78590837,16.9483371 8.21371248,16.8431521 C8.27816746,15.6340554 8.41459716,14.2825871 8.65415482,12.7887471 C6.01579779,12.8896823 3.90597156,13.0958024 3.90597156,13.0958024 L3.90597156,13.0958024 Z M13.2863191,8.86715153 C13.8202212,8.88840103 14.3390837,8.92240024 14.8343128,8.96914914 C15.5218325,7.88011216 16.2834755,6.81019974 16.2888468,5.19417511 L16.2888468,5.12405176 C15.4283728,4.97105534 14.4164297,4.87968249 13.3475513,4.83293358 C13.3765561,6.17165221 13.3690363,7.57730676 13.2863191,8.86608906 L13.2863191,8.86715153 Z M9.26647709,4.82230883 C7.47670631,4.87773301 5.68904833,4.98686402 3.90597156,5.14955116 L3.90597156,9.18695654 C3.90597156,9.18695654 6.31658768,8.95002459 9.20631912,8.86183916 C9.28289694,7.5170876 9.3029669,6.16977042 9.26647709,4.8233713 L9.26647709,4.82230883 Z M17.1665087,17.2638922 C17.03535,17.2410712 16.9042903,17.2176965 16.7733333,17.1937689 C16.706755,18.5864578 16.7444567,19.9821101 16.8861295,21.369296 C17.7938705,21.5329172 18.6543444,21.6604142 19.4675513,21.7581619 C19.6845498,21.3682335 19.810237,20.9783052 19.8284992,20.5990016 C19.8961769,19.2411584 18.5877409,18.3338047 17.1665087,17.2628298 L17.1665087,17.2638922 Z M13.8041074,12.8004343 C13.4498363,12.7805856 13.0952982,12.7657095 12.7406003,12.7558104 C12.5236107,14.0893249 12.3762431,15.4330126 12.2990837,16.7815285 C13.8116272,16.8102154 15.2747551,16.910088 16.4370932,17.1321453 L16.7744076,17.1948314 L16.7851501,16.9738365 C15.4455608,15.9400483 14.1059716,14.716077 13.8041074,12.8004343 L13.8041074,12.8004343 Z M12.7406003,12.7558104 C12.8157978,12.2819465 12.902812,11.7953329 13.0005687,11.2938447 C13.1402212,10.5798614 13.2315324,9.75006834 13.2873934,8.86608906 C11.9275372,8.81574326 10.5662795,8.81432569 9.20631912,8.86183916 C9.1612268,9.67761019 9.06507632,10.4898346 8.91842022,11.2938447 C8.81851501,11.8070201 8.73042654,12.305321 8.65308057,12.7887471 C10.0144888,12.7331869 11.3773832,12.722202 12.7395261,12.7558104 L12.7406003,12.7558104 Z M8.21478673,16.8431521 C8.13470445,18.2268158 8.15408972,19.6143578 8.27279621,20.9953048 C9.63042206,20.9340157 10.9896476,20.9145276 12.3484992,20.9368687 C12.2330295,19.5546382 12.2165165,18.1660627 12.2990837,16.7815285 C10.9373346,16.7604286 9.57525143,16.7809796 8.21478673,16.8431521 L8.21478673,16.8431521 Z" id="Shape" fill="#5A5A5A"></path>
                            <path d="M5.42173776,3.05435027 L5.42173776,29.6024156 C4.66808053,28.9151998 3.9791574,28.1616365 3.36347551,27.3510308 L3.36347551,3.05435027 C2.77261755,2.61620686 2.53155042,1.85326033 2.76502529,1.16033207 C2.99850016,0.467403816 3.65412087,7.28946247e-16 4.39260664,7.28946247e-16 C5.1310924,7.28946247e-16 5.78671311,0.467403816 6.02018798,1.16033207 C6.25366285,1.85326033 6.01259572,2.61620686 5.42173776,3.05435027 L5.42173776,3.05435027 Z" id="Path" fill="#C92E43"></path>
                            <path d="M5.42173776,1.35757753 C5.43169382,1.60634677 5.30318157,1.84055134 5.08686165,1.96786577 C4.87054173,2.0951802 4.60111704,2.0951802 4.38479712,1.96786577 C4.1684772,1.84055134 4.03996495,1.60634677 4.04992101,1.35757753 C4.0644978,0.993351532 4.3672786,0.705508412 4.73582938,0.705508412 C5.10438017,0.705508412 5.40716097,0.993351532 5.42173776,1.35757753 Z M5.42173776,25.78813 L5.42173776,4.05945171 C5.43169382,3.81068247 5.30318157,3.5764779 5.08686165,3.44916347 C4.87054173,3.32184905 4.60111704,3.32184905 4.38479712,3.44916347 C4.1684772,3.5764779 4.03996495,3.81068247 4.04992101,4.05945171 L4.04992101,25.7891924 C4.03996495,26.0379617 4.1684772,26.2721662 4.38479712,26.3994807 C4.60111704,26.5267951 4.87054173,26.5267951 5.08686165,26.3994807 C5.30318157,26.2721662 5.43169382,26.0379617 5.42173776,25.7891924 L5.42173776,25.78813 Z" id="Shape" fill="#FD4343"></path>
                            <path d="M25.3200632,12.216073 C28.452575,12.216073 31.3122275,13.3688585 33.4886572,15.2696265 C33.5767457,15.9591728 33.6229384,16.6614689 33.6229384,17.3733272 C33.6229384,26.2885557 26.528594,33.5654477 17.6187678,33.9808754 C14.6778961,31.6653148 12.9659864,28.149142 12.9694103,24.4313493 C12.9694103,17.6846324 18.4985782,12.216073 25.3200632,12.216073 L25.3200632,12.216073 Z" id="Path" fill="#5A5A5A"></path>
                            <path d="M30.595703,26.8941665 C30.0273445,27.6975312 29.3885636,28.4498358 28.6867615,29.1423638 C26.2920594,30.8159532 23.0134036,30.4712245 21.0279805,28.3370943 C19.0425575,26.2029641 18.9675266,22.9428167 20.852712,20.7215482 C22.7378975,18.5002797 25.9972982,18.0083609 28.466514,19.5724497 C30.9357298,21.1365385 31.8472166,24.2704454 30.595703,26.8931041 L30.595703,26.8941665 Z M16.0922591,19.3899049 C16.1008446,19.3553151 16.1142201,19.3220641 16.1320063,19.2910947 C18.0065347,16.0164422 21.516378,13.9914069 25.3211374,13.989344 C28.5566352,13.9887085 31.613372,15.4570464 33.6132701,17.9725631 C33.6316256,17.4537343 33.6258902,16.9343456 33.5960821,16.4160371 C31.4905529,14.2910869 28.5589258,12.9704304 25.3211374,12.9704304 C23.3230332,12.9704304 21.4430964,13.4729811 19.7994945,14.3569604 C19.4084676,14.5673304 19.022812,14.0637172 19.3386414,13.7513496 L19.3601264,13.7301001 C15.4170988,15.8784393 12.9687151,19.9789486 12.9704888,24.4313493 C12.9704888,28.2976961 14.7859716,31.7433029 17.619842,33.9819379 C19.2065087,33.9075647 20.7351659,33.615384 22.1768088,33.1362077 C17.8196524,31.0601314 16.5724487,27.0535378 16.5724487,24.4313493 C16.5724487,19.6608361 20.4977567,15.7796145 25.3211374,15.7796145 C28.8371564,15.7796145 31.8762085,17.8408162 33.264139,20.8072467 C33.3780095,20.2728217 33.4660979,19.7288345 33.5262559,19.1774099 C31.7248802,16.4250271 28.6361642,14.7628113 25.3211374,14.7617634 C21.7897603,14.7639842 18.5336079,16.6481031 16.8012638,19.6916478 C16.5799684,20.0773263 15.9816114,19.8531441 16.0847393,19.4207167 L16.0922591,19.3899049 L16.0922591,19.3899049 Z" id="Shape" fill="#444444"></path>
                            <path d="M29.7803476,24.4313493 C29.7803476,25.5023242 29.3936177,26.4851136 28.7522907,27.2490332 C26.9796079,28.700761 24.3811806,28.5801368 22.7537765,26.9705702 C21.1263724,25.3610035 21.0044114,22.7910568 22.4722275,21.0378038 C23.8027602,19.9460914 25.6513138,19.7131428 27.2161233,20.4399938 C28.7809329,21.1668449 29.780134,22.7225702 29.7803476,24.4324117 L29.7803476,24.4313493 Z" id="Path" fill="#B1C9EB"></path>
                            <path d="M29.162654,26.6710468 C28.2151394,28.259884 26.368146,29.0978938 24.5324527,28.7718415 C22.6967594,28.4457892 21.2599974,27.0245251 20.9306547,25.2088949 C20.6013119,23.3932648 21.4489334,21.5666631 23.055545,20.6298134 C22.0221827,22.3626041 22.3050203,24.5673643 23.7431775,25.9900085 C25.1813346,27.4126527 27.4104785,27.692778 29.162654,26.6710468 L29.162654,26.6710468 Z" id="Path" fill="#528ED7"></path>
                            <path d="M27.905782,23.5420576 C27.7231596,23.6472426 27.798357,23.9224237 28.00891,23.9224237 L29.7502686,23.9224237 C29.7896615,24.2605889 29.7896615,24.6021096 29.7502686,24.9402748 L28.00891,24.9402748 C27.798357,24.9402748 27.7231596,25.2165184 27.905782,25.3206409 L29.4151027,26.1812457 C29.2775987,26.4968009 29.1035703,26.7921689 28.8994629,27.0631001 L27.3912164,26.2024952 C27.208594,26.0973102 27.0044866,26.2991805 27.109763,26.4798012 L27.9809795,27.9715163 C27.7070458,28.1733866 27.4073302,28.3455075 27.0893523,28.4815043 L26.2192101,26.9887268 C26.1139336,26.8081061 25.8346288,26.8824793 25.8346288,27.0907244 L25.8346288,28.8129966 C25.4927154,28.8519484 25.147411,28.8519484 24.8054976,28.8129966 L24.8054976,27.0917869 C24.8054976,26.8824793 24.5261927,26.8081061 24.4209163,26.9887268 L23.5507741,28.4815043 C23.2346239,28.3461843 22.9354145,28.1750441 22.6591469,27.9715163 L23.5292891,26.4798012 C23.6356398,26.2991805 23.4315324,26.0973102 23.24891,26.2014328 L21.7406635,27.0631001 C21.5348801,26.7898605 21.3618434,26.4939307 21.2250237,26.1812457 L22.7343444,25.3206409 C22.9169668,25.2165184 22.8417694,24.9402748 22.6312164,24.9402748 L20.8898578,24.9402748 C20.8506909,24.6020968 20.8506909,24.2606017 20.8898578,23.9224237 L22.6312164,23.9224237 C22.8417694,23.9224237 22.9169668,23.6461802 22.7343444,23.5420576 L21.2250237,22.6814528 C21.3625276,22.3669601 21.5365561,22.0715921 21.7406635,21.7995984 L23.24891,22.6602033 C23.4315324,22.7653883 23.6356398,22.563518 23.5303633,22.3839597 L22.6591469,20.8911822 C22.9330806,20.689312 23.2327962,20.517191 23.5507741,20.3811942 L24.4209163,21.8739717 C24.5261927,22.0545925 24.8054976,21.9802192 24.8054976,21.7719741 L24.8054976,20.0497019 C25.1474228,20.0109551 25.4927035,20.0109551 25.8346288,20.0497019 L25.8346288,21.7719741 C25.8346288,21.9802192 26.1139336,22.0545925 26.2192101,21.8739717 L27.0893523,20.3811942 C27.4073302,20.517191 27.7070458,20.689312 27.9809795,20.8911822 L27.1108373,22.3828973 C27.0044866,22.563518 27.208594,22.7653883 27.3912164,22.6612657 L28.8994629,21.8006609 C29.1035703,22.0715921 29.2775987,22.3669601 29.4151027,22.6803903 L27.905782,23.5420576 L27.905782,23.5420576 Z" id="Path" fill="#0573CD"></path>
                            <path d="M27.0356398,24.4313493 C27.051232,25.0474792 26.7278004,25.6235227 26.1907517,25.9361256 C25.653703,26.2487285 24.9874977,26.2487285 24.4504489,25.9361256 C23.9134002,25.6235227 23.5899686,25.0474792 23.6055608,24.4313493 C23.62885,23.5110749 24.3898359,22.7770323 25.3206003,22.7770323 C26.2513647,22.7770323 27.0123507,23.5110749 27.0356398,24.4313493 L27.0356398,24.4313493 Z" id="Path" fill="#B1C9EB"></path>
                            <path d="M26.3491943,24.0924197 C26.3591504,24.3411889 26.2306381,24.5753935 26.0143182,24.7027079 C25.7979983,24.8300224 25.5285736,24.8300224 25.3122537,24.7027079 C25.0959338,24.5753935 24.9674215,24.3411889 24.9773776,24.0924197 C24.9919544,23.7281937 25.2947352,23.4403506 25.6632859,23.4403506 C26.0318367,23.4403506 26.3346175,23.7281937 26.3491943,24.0924197 L26.3491943,24.0924197 Z" id="Path" fill="#FFF5F5"></path>
                        </g>
                        <path d="M27.5545024,26.5626743 C26.9612107,26.5626743 26.4802528,27.0383606 26.4802528,27.6251494 L26.4802528,32.9375249 C26.4802528,33.5243137 26.9612107,34 27.5545024,34 L32.9257504,34 C33.5190421,34 34,33.5243137 34,32.9375249 L34,27.6251494 C34,27.0383606 33.5190421,26.5626743 32.9257504,26.5626743 L27.5545024,26.5626743 Z M30.1079937,31.7305532 L28.7447709,27.49234 L27.4202212,27.49234 L29.3667615,33.0703343 L30.9029384,33.0703343 L32.8473302,27.49234 L31.5260032,27.49234 L30.1606319,31.7305532 L30.1079937,31.7305532 Z" id="Shape" fill="#FDB600"></path>
                    </g>
                </g>
            </g>
        </g>
    </g>
</svg>