<?xml version="1.0" encoding="UTF-8"?>
<svg width="34px" height="34px" viewBox="0 0 34 34" version="1.1" xmlns="http://www.w3.org/2000/svg" xmlns:xlink="http://www.w3.org/1999/xlink">
    <title>vtabletennis_icon_34px</title>
    <defs>
        <path d="M34,0 L0,0 L0,34 L24.4375,34 L24.4375,25.5 C24.4375,24.9131975 24.9131975,24.4375 25.5,24.4375 L34,24.4375 L34,0 Z" id="path-1"></path>
    </defs>
    <g id="05---Virtual-Forecasts" stroke="none" stroke-width="1" fill="none" fill-rule="evenodd">
        <g id="05-elgbet_sb_virtualforecasts_1024" transform="translate(-944.000000, -94.000000)">
            <g id="sections" transform="translate(18.000000, 74.000000)">
                <g id="section_12" transform="translate(908.000000, 10.000000)">
                    <g id="vtabletennis_icon_34px" transform="translate(18.000000, 10.000000)">
                        <path d="M27.625,26.5625 C27.0381975,26.5625 26.5625,27.0381975 26.5625,27.625 L26.5625,32.9375 C26.5625,33.5243025 27.0381975,34 27.625,34 L32.9375,34 C33.5243025,34 34,33.5243025 34,32.9375 L34,27.625 C34,27.0381975 33.5243025,26.5625 32.9375,26.5625 L27.625,26.5625 Z M30.1505625,31.7305 L28.80225,27.4921875 L27.4921875,27.4921875 L29.4174375,33.0703125 L30.9368125,33.0703125 L32.8599375,27.4921875 L31.5530625,27.4921875 L30.202625,31.7305 L30.1505625,31.7305 Z" id="Shape" fill="#FDB600"></path>
                        <g id="Clipped">
                            <mask id="mask-2" fill="white">
                                <use xlink:href="#path-1"></use>
                            </mask>
                            <g id="Path"></g>
                            <g id="Group" mask="url(#mask-2)" fill-rule="nonzero">
                                <g transform="translate(-0.000017, -0.000145)" id="Path">
                                    <path d="M34.000017,17.0001454 C34.000017,18.3048954 33.853392,19.5767079 33.5739545,20.7975204 C32.2212777,26.6791686 27.8566438,31.4055683 22.1010795,33.2213329 C20.4502797,33.7390716 18.7301011,34.0017025 17.000017,34.0001702 C12.8907479,34.0071793 8.91929494,32.5188286 5.82676702,29.8128329 C5.42709597,29.4646186 5.04416573,29.0976438 4.67926702,28.7131454 C1.6698952,25.5567243 -0.00616140495,21.3612547 0,17.0001454 C0,12.3272704 1.88489202,8.09533289 4.93639202,5.02258289 L4.93851702,5.02152039 C7.82979922,2.10184798 11.6836069,0.332404244 15.782392,0.0426453851 L15.784517,0.0426453851 C16.186142,0.0150203851 16.592017,0.000145385067 17.000017,0.000145385067 C26.3893295,0.000145385067 34.000017,7.61083289 34.000017,17.0001454 Z" fill="#5C5E70"></path>
                                    <path d="M33.5739545,20.7975204 C32.2212777,26.6791686 27.8566438,31.4055683 22.1010795,33.2213402 L15.4838295,33.2213402 C15.1522798,33.2224656 14.8339674,33.091332 14.5994253,32.8569893 C14.3648832,32.6226467 14.2334789,32.3044459 14.2343295,31.9728954 C14.2343295,31.2822704 14.7932045,30.7233954 15.482767,30.7233954 L19.2790795,30.7233954 C19.6106292,30.7245281 19.9289416,30.5933945 20.1634837,30.3590518 C20.3980258,30.1247092 20.5294301,29.8065084 20.5285795,29.4749579 C20.5285795,28.7843329 19.968642,28.2254579 19.2790795,28.2254579 L18.219767,28.2254579 C17.8883144,28.226592 17.5701101,28.0954248 17.3357363,27.8610511 C17.1013626,27.6266773 16.9701954,27.308473 16.9713295,26.9770204 C16.9713295,26.2863954 17.5302045,25.7275204 18.219767,25.7275204 L21.7270795,25.7275204 C22.0586292,25.7286531 22.3769416,25.5975195 22.6114837,25.3631768 C22.8460258,25.1288342 22.9774301,24.8106334 22.9765795,24.4790829 C22.9765795,23.7884579 22.4177045,23.2295829 21.7270795,23.2295829 L14.0260795,23.2295829 C13.6943451,23.230717 13.3758705,23.0994379 13.1412975,22.8648649 C12.9067245,22.6302919 12.7754454,22.3118173 12.7765722,21.9800829 C12.7765722,21.2905204 13.336517,20.7327079 14.0260795,20.7327079 L33.175517,20.7327079 C33.3147045,20.7327079 33.449642,20.7550204 33.5739545,20.7975204 L33.5739545,20.7975204 Z" fill="#797B89"></path>
                                    <path d="M29.087017,26.0728329 C27.195767,27.9640829 24.9294545,29.2210204 22.590892,29.8234579 C19.9612045,30.5013329 17.2390795,30.3525829 14.8527045,29.3548954 C13.5841274,28.828736 12.1234126,29.1203754 11.154142,30.0933329 L9.15876702,32.0876454 C7.96180431,31.4636709 6.84298531,30.7000779 5.82570452,29.8128329 L6.95939202,28.6791454 L8.34914202,27.2893954 C9.32310185,26.3207485 9.61562712,24.8598009 9.08970452,23.5908329 C8.09095452,21.2044579 7.94220452,18.4823329 8.62114202,15.8526454 C9.22357952,13.5140829 10.480517,11.2488329 12.371767,9.35758289 C15.686767,6.04258289 20.147142,4.67939539 24.1347045,5.36045789 C24.263267,5.38170789 24.3918295,5.40614539 24.5193295,5.43270789 C26.583767,5.85558289 28.5058295,6.83627039 30.0570795,8.38645789 C34.6725795,13.0030204 34.2390795,20.9207704 29.087017,26.0728329 L29.087017,26.0728329 Z" fill="#34ABE0"></path>
                                    <path d="M22.590892,29.8234579 C19.9612045,30.5013329 17.2390795,30.3525829 14.8527045,29.3548954 C13.5841274,28.828736 12.1234126,29.1203754 11.154142,30.0933329 L9.15876702,32.0876454 C7.96184538,31.4636024 6.84303419,30.7000146 5.82570452,29.8128329 L6.95939202,28.6791454 L8.34914202,27.2883329 C9.32265233,26.3198817 9.61514723,24.8595054 9.08970452,23.5908329 C8.41289202,21.9758329 8.12707952,20.2067704 8.22376702,18.4164579 C8.26839202,17.5622079 8.40120452,16.7026454 8.62114202,15.8526454 L13.551142,20.7826454 L17.6704545,24.9019579 L19.2918295,26.5233329 L22.590892,29.8223954 L22.590892,29.8234579 Z" fill="#EDBB4C"></path>
                                    <path d="M26.160892,19.4396454 C25.0760795,21.8855204 23.413267,23.8713329 21.447642,25.2748954 C20.7623295,25.7636454 20.0398295,26.1822704 19.2918295,26.5233329 L8.62114202,15.8526454 C9.22357952,13.5140829 10.480517,11.2488329 12.371767,9.35652039 C15.793017,5.93527039 20.4350795,4.59439539 24.5193295,5.43270789 C27.563392,8.98464539 28.370892,14.4586454 26.160892,19.4396454 Z" fill="#279FC9"></path>
                                    <path d="M24.6340795,17.7747079 C23.5503295,20.2195204 21.887517,22.2053329 19.9208295,23.6088954 C17.7108295,25.1867079 15.117267,26.0271454 12.5322045,25.9538329 C11.1588115,25.9177875 9.89984262,26.7154004 9.34576702,27.9725829 L7.85507952,31.3332704 C6.69434942,30.5911841 5.62764382,29.7114196 4.67820452,28.7131454 L5.72051702,26.3639579 C6.28105436,25.1100452 6.02835814,23.6417207 5.08089202,22.6473329 C3.29164202,20.7794579 2.17495452,18.2932079 1.86151702,15.5944579 C1.58420452,13.1963954 1.94226702,10.6304579 3.02707952,8.18458289 C3.52780912,7.05359172 4.17008909,5.99074155 4.93851702,5.02152039 C7.67976702,1.56520789 11.781017,-0.312229615 15.7834545,0.0426453851 C16.936267,0.145707885 18.0805795,0.432582885 19.1813295,0.922395385 C21.3084545,1.86695789 22.9893295,3.43308289 24.1347045,5.36045789 C26.203392,8.83802039 26.5359545,13.4885829 24.6340795,17.7747079 L24.6340795,17.7747079 Z" fill="#FF525D"></path>
                                    <path d="M19.0410795,0.860770385 C13.923017,-1.29397961 7.45451702,2.25052039 4.52626702,8.85077039 C3.44145452,11.2955829 2.99201702,13.8211454 3.11632952,16.1501454 C3.25339202,18.7713329 4.11189202,21.1438954 5.59939202,22.8757704 C6.38670452,23.7958954 6.53014202,25.2207079 5.97339202,26.4755204 L4.88539202,28.9256454 C4.81632952,28.8544579 4.74726702,28.7843329 4.68032952,28.7131454 L5.72157952,26.3639579 C6.28211686,25.1100452 6.02942064,23.6417207 5.08195452,22.6473329 C3.29270452,20.7794579 2.17601702,18.2932079 1.86257952,15.5944579 C1.58526702,13.1963954 1.94332952,10.6304579 3.02814202,8.18458289 C3.52872887,7.05351737 4.17101939,5.99064974 4.93957952,5.02152039 C7.68082952,1.56520789 11.7820795,-0.312229615 15.7834545,0.0426453851 L15.7855795,0.0426453851 C16.9073933,0.142259433 18.006445,0.418367043 19.042142,0.860770385 L19.0410795,0.860770385 Z" fill="#EF4152"></path>
                                    <path d="M19.921892,23.6088954 C19.2068295,24.1188954 18.451392,24.5523954 17.669392,24.9019579 C16.033142,25.6350829 14.2810795,26.0037704 12.5322045,25.9538329 C11.1588115,25.9177875 9.89984262,26.7154004 9.34576702,27.9725829 L7.85507952,31.3332704 C6.69445358,30.5910411 5.62776446,29.7112901 4.67820452,28.7131454 L5.72051702,26.3639579 C6.28105436,25.1100452 6.02835814,23.6417207 5.08089202,22.6473329 C3.29164202,20.7794579 2.17495452,18.2932079 1.86151702,15.5944579 L8.22270452,18.4175204 L13.5500795,20.7815829 L19.9208295,23.6088954 L19.921892,23.6088954 Z" fill="#FFD15C"></path>
                                    <path d="M14.830392,9.71458289 C13.5619257,9.62553242 12.3680612,10.3213781 11.8203765,11.4689749 C11.2726919,12.6165718 11.4826423,13.9823809 12.3497113,14.9125036 C13.2167802,15.8426263 14.5645171,16.1477804 15.7476755,15.6818694 C16.9308339,15.2159583 17.7086382,14.0737962 17.7087045,12.8022079 L17.7087045,12.7905204 C17.7026678,11.169718 16.447227,9.82807867 14.830392,9.71458289 L14.830392,9.71458289 Z" fill="#EF4152"></path>
                                    <path d="M19.5043295,11.3593329 L19.5043295,11.3710204 C19.5013973,13.0793364 18.1149333,14.4622354 16.4066153,14.4607704 C14.6982974,14.4593031 13.3142091,13.0740265 13.3142091,11.3657079 C13.3142091,9.65738931 14.6982974,8.27211264 16.4066153,8.27064536 C18.1149333,8.26918041 19.5013973,9.65207932 19.5043295,11.3603954 L19.5043295,11.3593329 Z" fill="#E8DBC4"></path>
                                    <path d="M19.5043295,11.3593329 C19.214974,12.5970093 18.0531715,13.4285882 16.7883037,13.3033724 C15.5234359,13.1781565 14.5472307,12.1349251 14.5061615,10.8645382 C14.4650922,9.59415124 15.3718778,8.49004615 16.626017,8.28339539 C18.242852,8.39689117 19.4982928,9.73853053 19.5043295,11.3593329 L19.5043295,11.3593329 Z" fill="#F9EED7"></path>
                                    <path d="M17.2688295,10.8695204 C17.7373914,10.8695204 18.1172358,10.489676 18.1172358,10.0211141 C18.1172358,9.5525523 17.7373914,9.17270789 17.2688295,9.17270789 C16.8002677,9.17270789 16.4204233,9.5525523 16.4204233,10.0211141 C16.4204233,10.489676 16.8002677,10.8695204 17.2688295,10.8695204 L17.2688295,10.8695204 Z" fill="#FCF8F2"></path>
                                </g>
                            </g>
                        </g>
                    </g>
                </g>
            </g>
        </g>
    </g>
</svg>