<?xml version="1.0" encoding="UTF-8"?>
<svg width="34px" height="34px" viewBox="0 0 34 34" version="1.1" xmlns="http://www.w3.org/2000/svg" xmlns:xlink="http://www.w3.org/1999/xlink">
    <title>vtennis_icon_34px</title>
    <g id="05---Virtual-Forecasts" stroke="none" stroke-width="1" fill="none" fill-rule="evenodd">
        <g id="05-elgbet_sb_virtualforecasts_1024" transform="translate(-536.000000, -94.000000)">
            <g id="sections" transform="translate(18.000000, 74.000000)">
                <g id="section_7" transform="translate(500.000000, 10.000000)">
                    <g id="vtennis_icon_34px" transform="translate(18.000000, 10.000000)">
                        <path d="M27.625011,26.5625115 C27.0382084,26.5625115 26.562511,27.0382089 26.562511,27.6250114 L26.562511,32.9375112 C26.562511,33.5243137 27.0382084,34.0000111 27.625011,34.0000111 L32.9375107,34.0000111 C33.5243132,34.0000111 34.0000107,33.5243137 34.0000107,32.9375112 L34.0000107,27.6250114 C34.0000107,27.0382089 33.5243132,26.5625115 32.9375107,26.5625115 L27.625011,26.5625115 Z M30.1505734,31.7305112 L28.8022609,27.4921989 L27.4921985,27.4921989 L29.4174484,33.0703237 L30.9368233,33.0703237 L32.8599482,27.4921989 L31.5530733,27.4921989 L30.2026358,31.7305112 L30.1505734,31.7305112 Z" id="Shape" fill="#FDB600"></path>
                        <g id="Group" fill-rule="nonzero">
                            <path d="M34.0000232,17.0010744 C34.0045267,20.7176327 32.7870909,24.332607 30.5351983,27.2892614 C27.3224344,31.5212875 22.3133789,34.0047787 17.0000114,34.000018 C15.3743865,34.000018 13.8018866,33.7715737 12.3143866,33.3455112 C7.19222979,31.87166 3.05474321,28.0860406 1.13263715,23.1146991 C0.381500771,21.1640546 -0.00249522242,19.0913408 -1.65145668e-15,17.0010744 C-1.65145668e-15,13.3375746 1.15813715,9.94607472 3.12907456,7.16976235 C3.76898682,6.26922337 4.4948984,5.4330017 5.29657446,4.67288746 C8.45166463,1.66822186 12.6431111,-0.00531254256 17.0000114,-9.43689529e-16 C26.3893235,-9.43689529e-16 34.0000232,7.61069983 34.0000232,17.0000119 L34.0000232,17.0010744 Z" id="Path" fill="#4BC999"></path>
                            <path d="M25.4011986,23.2815116 C25.3448861,23.5896366 25.2779486,23.8924491 25.1993236,24.1899491 C23.9774486,28.8734489 20.1577613,32.2925737 15.6017615,33.1648862 C14.5190825,33.3726854 13.4133145,33.4334419 12.3143866,33.3455112 C7.191796,31.8730661 3.05389549,28.0874611 1.13263715,23.1157616 C0.90101216,21.7387617 0.89994966,20.3001368 1.16451215,18.8476993 L1.16557465,18.8455743 C1.58655399,16.5348246 2.66059718,14.3930063 4.26063701,12.6735121 C6.32662557,10.4537859 9.13761349,9.07249854 12.1571367,8.79326228 C13.2737747,8.69155521 14.3990686,8.74244426 15.5018865,8.94519977 C18.8204338,9.54884859 21.7446939,11.490671 23.5885736,14.3150745 C24.0815736,15.066262 24.4927611,15.871637 24.8104486,16.7173869 C25.5786361,18.7435743 25.8198235,20.9960742 25.4011986,23.2815116 L25.4011986,23.2815116 Z" id="Path" fill="#3BB282"></path>
                            <path d="M11.0043242,25.0920115 C11.0043242,25.7826365 10.4454492,26.340449 9.75588676,26.340449 L2.79438708,26.340449 C2.12623669,25.3279947 1.5691055,24.2465048 1.13263715,23.1146991 C0.90101216,21.7387617 0.89994966,20.2990743 1.16451215,18.8476993 L7.81257435,18.8476993 C8.50236071,18.8476993 9.06154305,19.4068817 9.06154305,20.096668 C9.06154305,20.7864544 8.50236071,21.3456367 7.81257435,21.3456367 L3.78888703,21.3456367 C3.09939407,21.3456367 2.54044959,21.9045812 2.54044959,22.5940742 C2.54044959,23.2835671 3.09939407,23.8425116 3.78888703,23.8425116 L9.75694926,23.8425116 C10.0885867,23.8413757 10.4069535,23.9726885 10.6413581,24.2072927 C10.8757628,24.4418969 11.0068047,24.7603752 11.0053981,25.0920115 L11.0043242,25.0920115 Z" id="Path" fill="#4BC999"></path>
                            <path d="M33.7418232,14.5403245 C33.6855107,14.847387 33.6185732,15.1501995 33.5399482,15.4476995 C32.3180733,20.1311993 28.4973234,23.5503241 23.9413236,24.4226366 C22.4435088,24.7097211 20.9053066,24.7151259 19.4055113,24.4385741 C17.0540073,24.0118496 14.8784522,22.9072688 13.1463241,21.2606367 C10.1239435,18.3970381 8.75433622,14.1994676 9.50619928,10.1043872 C9.92717416,7.79310565 11.0016196,5.65085176 12.6023241,3.93126249 C14.6676219,1.71254607 17.4773633,0.331691867 20.4956363,0.0520751674 C21.6126668,-0.049698256 22.7383686,0.00177874135 23.8414486,0.205075161 C27.1598644,0.808349163 30.0841374,2.74979595 31.9281358,5.57388742 C32.4211357,6.32507489 32.8333857,7.13044985 33.1500107,7.97619981 C33.9181982,10.0023872 34.1593857,12.2559496 33.7407607,14.541387 L33.7418232,14.5403245 Z" id="Path" fill="#EDBB4C"></path>
                            <path d="M33.7418232,14.5403245 C33.6855107,14.847387 33.6185732,15.1501995 33.5399482,15.4476995 C31.7024964,18.7117973 28.3045822,20.7903557 24.5618236,20.9397617 C23.7738269,20.9701306 22.9848909,20.9131162 22.2094487,20.7697617 C20.1541512,20.3978189 18.2527028,19.4323204 16.739699,17.9923869 C14.0979922,15.4892587 12.9010717,11.8201415 13.5585741,8.2407623 C13.9253828,6.22142876 14.8642919,4.34987993 16.263699,2.84857504 C17.4328166,1.59348759 18.8837671,0.634563782 20.4966988,0.0510126675 C21.6137293,-0.050760756 22.7394311,0.0007162414 23.8425111,0.204012661 C27.1609269,0.807286663 30.0851999,2.74873345 31.9291983,5.57282492 C32.4221982,6.32401239 32.8333857,7.12938735 33.1510732,7.97619981 C33.9192607,10.0013247 34.1604482,12.2548871 33.7418232,14.5403245 L33.7418232,14.5403245 Z" id="Path" fill="#FFD15C"></path>
                            <path d="M15.4381365,17.1115744 C15.3540697,18.7979316 15.0089029,20.4610405 14.4149491,22.0415742 C14.4042945,22.0690902 14.392237,22.0960422 14.3788241,22.1223242 L14.3161366,22.2413242 C13.9058483,21.9395011 13.5151257,21.6119471 13.1463241,21.2606367 C13.6276709,19.9007165 13.9086335,18.478008 13.9803866,17.0371994 C14.0717616,15.287262 13.4002616,13.6977621 12.6894491,12.0147621 C11.9488867,10.2584497 11.1211992,8.3013248 11.0935742,5.9234499 C11.5291992,5.20519994 12.0360117,4.53901247 12.6023241,3.93232499 L12.6023241,4.78763746 C12.6022483,4.81246158 12.6011849,4.83727286 12.5991366,4.86201245 C12.3366991,7.42794984 13.1994491,9.47113725 14.0335116,11.4463247 C14.7772615,13.2079496 15.545449,15.0290745 15.437074,17.1115744 L15.4381365,17.1115744 Z M33.1521357,7.97619981 C32.9630107,8.46494979 32.6527607,8.94944977 32.2330733,9.39676225 C31.4085733,10.2754497 30.2408858,10.9533247 28.8575109,11.3570747 C24.1346986,12.7351371 21.6792612,15.4816995 21.5602612,19.5213243 C21.5081987,21.2638242 22.5388237,23.1359491 23.5354486,24.0114491 C23.5490073,24.0233555 23.5621204,24.0357598 23.5747611,24.0486366 L23.9413236,24.4236991 C23.3388862,24.5405741 22.7226362,24.6106991 22.0968237,24.6340741 C21.0003238,23.4121991 20.0451363,21.4146992 20.1014488,19.4788243 C20.1970738,16.2169494 21.7238862,11.9180746 28.4495109,9.95669972 C30.9219483,9.23632476 31.9706358,7.67232483 31.9015733,6.84251236 C31.8995276,6.82238863 31.8984639,6.80217716 31.8983858,6.78194987 L31.8983858,6.76069987 L31.9302608,5.57282492 C32.4221982,6.32401239 32.8333857,7.12938735 33.1521357,7.97619981 L33.1521357,7.97619981 Z" id="Shape" fill="#F9EED7"></path>
                            <path d="M15.4445115,16.5155119 C15.449824,16.7120744 15.447699,16.9107619 15.437074,17.1115744 C15.3528708,18.7979141 15.0077083,20.4610023 14.4138866,22.0415742 C14.4032616,22.0691992 14.3915741,22.0957617 14.3777616,22.1223242 L14.3161366,22.2413242 C13.9058182,21.9395393 13.5150933,21.6119834 13.1463241,21.2606367 C13.6244491,19.9165743 13.9038866,18.4970743 13.9803866,17.0371994 C14.0717616,15.287262 13.4002616,13.6977621 12.6883866,12.0147621 C11.9488867,10.2584497 11.1211992,8.3013248 11.0935742,5.9234499 C11.5268077,5.20998658 12.0320086,4.54279381 12.6012616,3.93232499 L12.6012616,4.78763746 C12.6012616,4.81313745 12.6012616,4.83757495 12.5980741,4.86201245 C12.4068241,6.74901237 12.8211991,8.3523248 13.3864491,9.85469973 C13.3088866,12.2984496 14.0706991,14.628512 15.4445115,16.5165744 L15.4445115,16.5155119 Z M23.9413236,24.4236991 C23.3327712,24.540866 22.7161304,24.6111972 22.0968237,24.6340741 C21.1299488,23.5566991 20.2735738,21.8768867 20.1226988,20.1673243 C20.6178238,20.3660118 21.1331363,20.5306993 21.6665112,20.6560742 C21.9512612,22.0256367 22.7534487,23.3240116 23.5343861,24.0114491 C23.5482968,24.0233446 23.5617643,24.0357489 23.5747611,24.0486366 L23.9413236,24.4236991 L23.9413236,24.4236991 Z" id="Shape" fill="#E8DBC4"></path>
                            <path d="M15.437074,17.1115744 C15.3528708,18.7979141 15.0077083,20.4610023 14.4138866,22.0415742 C14.4032616,22.0691992 14.3915741,22.0957617 14.3777616,22.1223242 L14.3161366,22.2413242 C13.9058182,21.9395393 13.5150933,21.6119834 13.1463241,21.2606367 C13.6244491,19.9165743 13.9038866,18.4970743 13.9803866,17.0371994 C14.0717616,15.287262 13.4002616,13.6977621 12.6883866,12.0147621 C11.9488867,10.2584497 11.1211992,8.3013248 11.0935742,5.9234499 C11.5268077,5.20998658 12.0320086,4.54279381 12.6012616,3.93232499 L12.6012616,4.78763746 C12.6012616,4.81313745 12.6012616,4.83757495 12.5980741,4.86201245 C12.4068241,6.74901237 12.8211991,8.3523248 13.3864491,9.85469973 C13.3088866,12.2984496 14.0706991,14.628512 15.4445115,16.5165744 C15.4495716,16.7149304 15.4470582,16.9134069 15.437074,17.1115744 L15.437074,17.1115744 Z M23.9413236,24.4236991 C23.3327712,24.540866 22.7161304,24.6111972 22.0968237,24.6340741 C21.1299488,23.5566991 20.2735738,21.8768867 20.1226988,20.1673243 C20.6178238,20.3660118 21.1331363,20.5306993 21.6665112,20.6560742 C21.9512612,22.0256367 22.7534487,23.3240116 23.5343861,24.0114491 C23.5482968,24.0233446 23.5617643,24.0357489 23.5747611,24.0486366 L23.9413236,24.4236991 L23.9413236,24.4236991 Z" id="Shape" fill="#E8DBC4"></path>
                            <path d="M27.072511,8.2662623 C28.4421081,8.2662623 29.5523859,7.15598449 29.5523859,5.78638741 C29.5523859,4.41679033 28.4421081,3.30651252 27.072511,3.30651252 C25.7029139,3.30651252 24.5926361,4.41679033 24.5926361,5.78638741 C24.5926361,7.15598449 25.7029139,8.2662623 27.072511,8.2662623 Z M22.5090737,4.76532496 C22.995781,4.77904591 23.4515058,4.52722887 23.6989067,4.10786623 C23.9463077,3.6885036 23.9463077,3.16783393 23.6989067,2.7484713 C23.4515058,2.32910866 22.995781,2.07729162 22.5090737,2.09101258 C21.7852576,2.11141796 21.2090825,2.70406506 21.2090825,3.42816877 C21.2090825,4.15227247 21.7852576,4.74491957 22.5090737,4.76532496 L22.5090737,4.76532496 Z" id="Shape" fill="#FFDC8D"></path>
                            <path d="M9.24695338,5.9202624 C9.24695338,6.61088737 8.68807431,7.16869985 7.99851184,7.16869985 L3.12907456,7.16869985 C3.76898682,6.26816087 4.4948984,5.4319392 5.29657446,4.67182086 L7.99851184,4.67182086 C8.32987767,4.67097566 8.64791632,4.80223434 8.88222811,5.03654614 C9.11653991,5.27085793 9.24779858,5.58889658 9.24695338,5.9202624 L9.24695338,5.9202624 Z M33.1606357,22.2912617 C32.5709912,24.0919668 31.6835378,25.7810374 30.5351983,27.2881989 L26.507261,27.2881989 C25.8174747,27.2881989 25.2582923,26.7290166 25.2582923,26.0392303 C25.2582923,25.3494439 25.8174747,24.7902616 26.507261,24.7902616 L30.5309483,24.7902616 C30.8625093,24.7908269 31.1806531,24.6593651 31.4151024,24.4249157 C31.6495518,24.1904664 31.7810136,23.8723226 31.7804483,23.5407616 C31.7804483,22.8511991 32.3393233,22.2923242 33.0288857,22.2923242 L33.1595732,22.2923242 L33.1606357,22.2912617 Z" id="Shape" fill="#5BD3A2"></path>
                        </g>
                    </g>
                </g>
            </g>
        </g>
    </g>
</svg>