<?xml version="1.0" encoding="UTF-8"?>
<svg width="15px" height="12px" viewBox="0 0 15 12" version="1.1" xmlns="http://www.w3.org/2000/svg" xmlns:xlink="http://www.w3.org/1999/xlink">
    <title>whistle_icon</title>
    <g id="Design-System" stroke="none" stroke-width="1" fill="none" fill-rule="evenodd">
        <g id="buttons+icons" transform="translate(-174.000000, -766.000000)" fill="#FFFFFF" fill-rule="nonzero">
            <path d="M175.781746,767.954248 C178.608607,765.625203 181.639351,765.542747 183.298863,766.841322 C185.029972,768.250321 188.753444,772.53856 188.990991,772.811969 L188.990991,772.811969 L188.993836,772.810523 C188.995259,772.817273 188.998578,772.821131 189,772.82306 L189,772.82306 L188.993362,772.829328 L188.935042,775.275548 L184.878719,778 L181.499952,773.92586 C181.291802,774.283655 180.954684,774.880624 180.62041,775.148247 C178.985554,776.459841 176.474,775.994514 175.011732,774.108615 C173.548991,772.22368 173.688864,769.630871 175.324195,768.319276 C175.345531,768.300952 175.368765,768.287933 175.39105,768.271056 L175.39105,768.271056 Z M188.13326,774.362737 L186.160337,775.588017 L186.160337,776.161357 L188.13326,774.935595 L188.13326,774.362737 Z M183.049462,768.105178 L181.472926,769.084051 L182.104015,769.893672 L183.816631,768.847289 L183.049462,768.105178 Z" id="whistle_icon"></path>
        </g>
    </g>
</svg>