<?xml version="1.0" encoding="UTF-8"?>
<svg width="34px" height="34px" viewBox="0 0 34 34" version="1.1" xmlns="http://www.w3.org/2000/svg" xmlns:xlink="http://www.w3.org/1999/xlink">
    <title>worldcup_icon_34px</title>
    <g id="05---Virtual-Forecasts" stroke="none" stroke-width="1" fill="none" fill-rule="evenodd">
        <g id="05-elgbet_sb_virtualforecasts_1024" transform="translate(-291.000000, -94.000000)">
            <g id="sections" transform="translate(18.000000, 74.000000)">
                <g id="section_4" transform="translate(255.000000, 10.000000)">
                    <g id="worldcup_icon_34px" transform="translate(18.000000, 10.000000)">
                        <rect id="Rectangle" fill-opacity="0" fill="#000000" x="0" y="0" width="34" height="34"></rect>
                        <path d="M25.2330827,26.2977346 C24.556391,26.2977346 24.1052632,26.7378641 24.1052632,27.3980583 L24.1052632,32.8996764 C24.1052632,33.5598706 24.556391,34 25.2330827,34 L30.8721805,34 C31.5488722,34 32,33.5598706 32,32.8996764 L32,27.3980583 C32,26.7378641 31.5488722,26.2977346 30.8721805,26.2977346 L25.2330827,26.2977346 Z M27.9398496,31.6893204 L26.4736842,27.2880259 L25.1203008,27.2880259 L27.1503759,33.1197411 L28.7293233,33.1197411 L30.7593985,27.2880259 L29.406015,27.2880259 L27.9398496,31.6893204 Z" id="Shape" fill="#FDB600"></path>
                        <ellipse id="Oval" fill="#6E83B7" fill-rule="nonzero" cx="12.7142857" cy="8.03236246" rx="8.12030075" ry="7.9223301"></ellipse>
                        <path d="M20.8345865,8.03236246 L20.8345865,8.802589 C20.7218045,10.1229773 20.2706767,11.3333333 19.481203,12.433657 C18.2406015,14.1941748 16.4360902,15.4045307 14.1804511,15.8446602 C13.7293233,15.9546926 13.1654135,15.9546926 12.7142857,15.9546926 C12.2631579,15.9546926 11.6992481,15.9546926 11.2481203,15.8446602 C8.9924812,15.4045307 7.18796992,14.1941748 5.94736842,12.433657 C5.27067669,11.3333333 4.70676692,10.1229773 4.59398496,8.802589 L4.59398496,8.03236246 C4.59398496,6.05177994 5.27067669,4.29126214 6.5112782,2.97087379 C7.30075188,1.98058252 8.42857143,1.21035599 9.55639098,0.770226537 C10.5714286,0.330097087 11.5864662,0.110032362 12.7142857,0.110032362 C13.8421053,0.110032362 14.8571429,0.330097087 15.8721805,0.770226537 C17.112782,1.32038835 18.1278195,1.98058252 18.9172932,2.97087379 C20.1578947,4.29126214 20.8345865,6.1618123 20.8345865,8.03236246 Z" id="Path" fill="#FFB236" fill-rule="nonzero"></path>
                        <ellipse id="Oval" fill="#FFE352" fill-rule="nonzero" cx="12.7142857" cy="8.03236246" rx="7.66917293" ry="7.48220065"></ellipse>
                        <path d="M18.1278195,6.93203883 L20.7218045,8.802589 L20.7218045,8.03236246 C20.7218045,6.05177994 20.0451128,4.29126214 18.8045113,2.97087379 L17.6766917,6.05177994 L15.3082707,6.93203883 L12.9398496,5.2815534 L12.9398496,2.6407767 L15.6466165,0.660194175 C14.6315789,0.220064725 13.6165414,0 12.4887218,0 C11.3609023,0 10.3458647,0.220064725 9.33082707,0.660194175 L12.037594,2.6407767 L12.037594,5.2815534 L9.66917293,6.93203883 L7.30075188,6.05177994 L6.17293233,2.97087379 C5.27067669,4.29126214 4.59398496,6.1618123 4.59398496,8.03236246 L4.59398496,8.802589 L7.18796992,6.93203883 L9.55639098,7.81229773 L10.4586466,10.5631068 L9.21804511,12.3236246 L5.94736842,12.5436893 C7.18796992,14.3042071 8.9924812,15.5145631 11.2481203,15.9546926 L10.1203008,12.8737864 L11.3609023,11.1132686 L14.1804511,11.1132686 L15.4210526,12.8737864 L14.2932331,15.9546926 C16.5488722,15.5145631 18.3533835,14.3042071 19.593985,12.5436893 L16.2105263,12.3236246 L14.9699248,10.5631068 L15.8721805,7.81229773 L18.1278195,6.93203883 L18.1278195,6.93203883 Z" id="Path" fill="#FFB236" fill-rule="nonzero"></path>
                        <path d="M23.4285714,9.79288026 L20.6090226,9.79288026 C20.3834586,10.7831715 19.9323308,11.6634304 19.481203,12.433657 C18.6917293,13.5339806 17.6766917,14.4142395 16.5488722,15.0744337 C16.7744361,14.5242718 16.887218,13.97411 16.887218,13.4239482 C16.7744361,11.4433657 15.0827068,9.79288026 12.9398496,9.6828479 C10.5714286,9.57281553 8.65413534,11.4433657 8.65413534,13.6440129 C8.65413534,14.1941748 8.76691729,14.6343042 8.9924812,15.0744337 C7.7518797,14.4142395 6.73684211,13.5339806 6.06015038,12.433657 C5.4962406,11.6634304 5.15789474,10.6731392 4.93233083,9.79288026 L2,9.79288026 C2.22556391,11.223301 2.78947368,12.6537217 3.69172932,13.97411 C4.36842105,14.9644013 5.27067669,15.8446602 6.28571429,16.6148867 C6.96240602,17.1650485 7.52631579,17.8252427 7.7518797,18.5954693 C8.20300752,19.8058252 8.54135338,21.4563107 8.54135338,22.8867314 C8.54135338,25.9676375 7.41353383,28.6084142 7.41353383,28.6084142 L18.0150376,28.6084142 C18.0150376,28.6084142 16.887218,26.0776699 16.887218,22.8867314 C16.887218,21.3462783 17.2255639,19.8058252 17.6766917,18.5954693 C17.9022556,17.8252427 18.4661654,17.0550162 19.1428571,16.6148867 C20.1578947,15.8446602 20.9473684,14.9644013 21.7368421,13.97411 C22.5263158,12.6537217 23.2030075,11.223301 23.4285714,9.79288026 Z" id="Path" fill="#FFE352" fill-rule="nonzero"></path>
                        <path d="M15.6466165,27.3980583 C15.4210526,26.2977346 15.0827068,24.7572816 15.0827068,22.8867314 C15.0827068,21.4563107 15.4210526,19.8058252 15.9849624,17.9352751 C16.3233083,16.8349515 17,15.8446602 18.0150376,15.0744337 L18.6917293,15.9546926 C17.9022556,16.5048544 17.3383459,17.3851133 17,18.2653722 C16.4360902,19.9158576 16.2105263,21.4563107 16.2105263,22.8867314 C16.2105263,24.5372168 16.5488722,26.0776699 16.7744361,27.1779935 L15.6466165,27.3980583 L15.6466165,27.3980583 Z M9.78195489,27.3980583 L8.76691729,27.1779935 C8.9924812,26.1877023 9.33082707,24.6472492 9.33082707,22.8867314 C9.33082707,21.566343 9.10526316,20.02589 8.54135338,18.2653722 C8.20300752,17.3851133 7.63909774,16.6148867 6.84962406,15.9546926 L7.52631579,15.0744337 C8.42857143,15.8446602 9.21804511,16.7249191 9.55639098,17.9352751 C10.1203008,19.6957929 10.4586466,21.3462783 10.4586466,22.8867314 C10.3458647,24.6472492 10.0075188,26.2977346 9.78195489,27.3980583 L9.78195489,27.3980583 Z M18.8045113,28.6084142 L6.62406015,28.6084142 C5.4962406,28.6084142 4.59398496,29.4886731 4.59398496,30.5889968 L4.59398496,32.6796117 L20.8345865,32.6796117 L20.8345865,30.5889968 C20.8345865,29.4886731 19.9323308,28.6084142 18.8045113,28.6084142 Z M12.1503759,16.394822 L13.2781955,16.394822 L13.2781955,27.3980583 L12.1503759,27.3980583 L12.1503759,16.394822 Z" id="Shape" fill="#FFB236" fill-rule="nonzero"></path>
                    </g>
                </g>
            </g>
        </g>
    </g>
</svg>