<svg width="20" height="20" viewBox="0 0 20 20" xmlns="http://www.w3.org/2000/svg">
    <g fill-rule="nonzero" fill="none">
        <path d="M9.686 1.946c.188-.188.377-.377.628-.565a10.436 10.436 0 0 0-.88-.816 5.667 5.667 0 0 1-.629.565C8.365.753 8.05.377 7.61 0c-.314.314-.566.565-.88.816.44.377.754.753 1.195 1.13-.252.251-.44.44-.692.628.314.314.566.565.88.816.252-.251.44-.44.692-.628.314.314 2.453 2.386 2.83 2.7l.944.125.503-.44c-.252-.188-3.208-3.013-3.396-3.2z" fill="#ECE6F2"/>
        <path fill="#D7CFE6" d="m20 11.802-1.635-1.57-.692.126-.126.69 1.635 1.57z"/>
        <path d="M6.164 6.529c-.315-.314-2.39-2.323-2.705-2.637l.88-.816c.315.314 2.39 2.26 2.705 2.637-.314.25-.566.502-.88.816zM3.082 6.78C2.704 6.403.377 4.206 0 3.83l.88-.817 3.082 2.95c-.314.315-.566.566-.88.817z" fill="#9BF"/>
        <path d="M14.717 3.013a2.082 2.082 0 0 0 0 2.95l1.698-1.13 1.32-1.82c-.817-.816-2.2-.816-3.018 0z" fill="#FFDECF"/>
        <path d="M14.591 5.838a2.471 2.471 0 0 0-3.459 0c-1.51 1.444-2.327 2.009-2.516 3.39-.063.69.063 1.444.503 2.072l3.082-2.323 2.516-3.076-.126-.063z" fill="#2EE6E6"/>
        <path d="M2.516 10.044c-.315.314-.566.565-.88.816.502.44 3.458 3.327 3.961 3.767h.881v-.816c-.503-.44-3.522-3.265-3.962-3.767z" fill="#FF884D"/>
        <path d="M17.736 5.9a2.081 2.081 0 0 0 0-2.95c-.818.817-2.579 2.449-3.019 2.95.818.817 2.201.817 3.019 0z" fill="#FFCDBE"/>
        <path d="M11.07 13.56c0 .376 0 .313-2.328 2.51l.252 1.193 1.446.503a182.25 182.25 0 0 0 3.145-3.014 1.56 1.56 0 0 0 0-2.322c-.44-.44-.818-.754-1.258-1.193.566-.565 1.824-1.758 2.201-2.072.189.189 1.51 1.444 1.761 1.695.503.44 1.258.44 1.761 0 .503-.44.503-1.193 0-1.695-.377-.376-2.893-2.825-3.333-3.201-.314.314-5.283 5.085-5.598 5.398.252.44.504.565 1.07 1.13.503.44.88.628.88 1.068z" fill="#24B3B3"/>
        <path d="M14.843 18.017c-.88.816-2.076 1.004-3.145.627-.692-.25-.503-.188-5.283-4.77-.251.25-.566.502-.818.816 4.717 4.52 4.655 4.645 5.66 5.022 1.447.565 3.271.314 4.466-.88-.314-.25-.566-.501-.88-.815z" fill="#FF4D4D"/>
    </g>
</svg>
