<svg width="20" height="20" viewBox="0 0 20 20" xmlns="http://www.w3.org/2000/svg">
    <g fill-rule="nonzero" fill="none">
        <path d="M12.357 14.003c-.435-.313-.746-.75-.808-1.312-.186-.875.249-1.812.995-2.25l6.71-3.56C17.64 2.32 13.29-.491 8.754.07c-.374.063-.747.125-1.12.25-3.852 1-6.959 4.436-7.518 8.621-.56 3.936.932 7.81 3.853 10.183A3.89 3.89 0 0 0 6.454 20h3.418c.87 0 1.74-.437 2.299-1.125.559-.75.745-1.686.621-2.623l-.435-2.25z" fill="#66B3FF"/>
        <path d="M12.17 18.875c.56-.75.746-1.686.622-2.623l-.435-2.25c-.435-.312-.746-.749-.808-1.311-.186-.875.249-1.812.995-2.25l6.71-3.56C17.64 2.32 13.29-.491 8.754.07c-.374.063-.747.125-1.12.25V20h2.238c.87 0 1.74-.437 2.299-1.125z" fill="#5990FF"/>
        <path d="M7.573 13.753c-.995 0-1.74.812-1.74 1.874S6.64 17.5 7.573 17.5c.932 0 1.74-.812 1.74-1.874s-.746-1.874-1.74-1.874z" fill="#4D5E80"/>
        <path d="M9.374 15.627c0 1.062-.807 1.874-1.74 1.874v-3.748c.933 0 1.74.812 1.74 1.874z" fill="#3D4566"/>
        <path d="M19.316 18.75h-.559v-4.373c0-.374-.248-.624-.559-.624-.31 0-.56.25-.56.624v4.374h-1.49c-.25 0-.498-.188-.56-.5l-1.553-8.31c-.062-.311-.373-.561-.684-.499-.31.063-.497.375-.435.75L14.47 18.5c.186.874.87 1.499 1.74 1.499h3.23c.311 0 .56-.25.56-.625s-.373-.624-.684-.624z" fill="#E1E6F0"/>
        <path d="M19.316 15.002h-5.903c-1.18 0-2.237-.874-2.423-2.124-.248-1.187.31-2.374 1.305-2.936l6.773-3.623c.31-.125.621 0 .808.25.124.312 0 .687-.249.812l-6.773 3.623c-.559.312-.808.937-.683 1.562.124.687.683 1.124 1.305 1.124h5.903c.31 0 .559.25.559.625s-.31.687-.622.687zm-11.743 0c-.311 0-.56.25-.56.625s.249.625.56.625c.31 0 .559-.25.559-.625.062-.375-.187-.625-.56-.625z" fill="#F3F5F9"/>
        <path d="M8.194 15.627c0 .375-.249.625-.56.625v-1.25c.311 0 .56.25.56.625z" fill="#E1E6F0"/>
    </g>
</svg>
