<svg width="20" height="20" viewBox="0 0 20 20" xmlns="http://www.w3.org/2000/svg">
    <g fill-rule="nonzero" fill="none">
        <path d="M15.891 15.891c-1.253 1.254-2.82 2.194-4.7 2.883-.188.063-.439.125-.627.25-1.316.44-2.758.69-4.324.878-.376.063-.69.063-1.003.063-2.57.125-4.513-.125-4.575-.125l-.439-.063-.063-.439c0-.062-.25-2.005-.125-4.575 0-.313.063-.69.063-1.003.125-1.566.438-3.008.877-4.324.063-.25.126-.439.25-.627.628-1.943 1.63-3.51 2.884-4.7 1.253-1.254 2.82-2.194 4.7-2.883.188-.063.439-.125.627-.25 1.316-.44 2.758-.69 4.324-.878.376-.063.69-.063 1.003-.063 2.57-.125 4.513.125 4.575.125l.439.063.063.439c0 .062.25 2.005.125 4.575 0 .313-.063.69-.063 1.003a18.231 18.231 0 0 1-.877 4.324c-.063.25-.126.439-.25.627-.628 1.943-1.63 3.51-2.884 4.7z" fill="#C6715A"/>
        <path d="M15.891 15.891c-1.253 1.254-2.82 2.194-4.7 2.883-.188.063-.439.125-.627.25-1.316.44-2.758.69-4.324.878-.376.063-.69.063-1.003.063-2.57.125-4.513-.125-4.575-.125l-.439-.063L19.777.223l.063.439c0 .062.25 2.005.125 4.575 0 .313-.063.69-.063 1.003a18.231 18.231 0 0 1-.877 4.324c-.063.25-.126.439-.25.627-.628 1.943-1.63 3.51-2.884 4.7z" fill="#B35F49"/>
        <path d="M19.025 10.564 9.435.975c1.317-.439 2.759-.69 4.325-.877.376-.063.69-.063 1.003-.063l5.202 5.202c0 .313-.063.69-.063 1.003-.188 1.566-.438 3.008-.877 4.324z" fill="#FED2A4"/>
        <path d="m9.75 5.926.814-.814 4.324 4.324-.814.815-4.325-4.325zm-4.638 4.638.814-.815 4.325 4.325-.815.814-4.324-4.324zM7.43 8.245l.815-.815 4.325 4.325-.815.815L7.43 8.245z" fill="#FFD92D"/>
        <path d="M10.564 19.025c-1.316.439-2.758.69-4.324.877-.376.063-.69.063-1.003.063L.035 14.763c0-.313.063-.69.063-1.003.125-1.566.438-3.008.877-4.324l9.59 9.589z" fill="#FED2A4"/>
        <path d="m11.88 8.057.815-.815 2.193 2.194-.814.815-2.194-2.194zm-2.319 2.319.815-.815 2.194 2.194-.815.815-2.194-2.194zm-2.319 2.319.815-.815 2.194 2.194-.815.814-2.194-2.193z" fill="#FCBE00"/>
        <path d="m5.738 14.199 4.826 4.826c-1.316.439-2.758.69-4.324.877-.376.063-.69.063-1.003.063l-2.632-2.632 3.133-3.134zm13.287-3.635-4.826-4.826 3.134-3.133 2.632 2.632c0 .313-.063.69-.063 1.003-.188 1.566-.438 3.008-.877 4.324z" fill="#FFBD86"/>
    </g>
</svg>
