<svg width="20" height="20" viewBox="0 0 20 20" xmlns="http://www.w3.org/2000/svg">
    <g fill-rule="nonzero" fill="none">
        <path d="M20 10.405c-.125 2.43-1.06 4.797-2.928 6.667-1.87 1.869-4.237 2.803-6.667 2.928h-.623c-2.492-.062-4.922-.997-6.854-2.928C.997 15.14.062 12.71 0 10.218v-.623c.125-2.43 1.06-4.797 2.928-6.667C4.798 1.06 7.165.125 9.595 0h.623c2.492.062 4.922.997 6.854 2.928C19.003 4.86 19.938 7.29 20 9.782v.623z" fill="#FCF6D6"/>
        <path d="M7.165 17.072a10.08 10.08 0 0 1 0-14.144C8.598 1.495 10.28.623 12.087.25 8.91-.436 5.483.436 2.991 2.93a10.08 10.08 0 0 0 0 14.143c2.492 2.492 5.981 3.364 9.159 2.679-1.807-.374-3.552-1.309-4.985-2.68z" fill="#EAE3C5"/>
        <path d="M10.218 0c0 2.741-1.121 5.234-2.99 7.165-1.87 1.932-4.424 2.99-7.166 3.053v-.623c2.555 0 4.922-1.06 6.73-2.804C8.597 4.984 9.594 2.617 9.594.062 9.845 0 10.031 0 10.218 0zM20 10.405c-2.555 0-4.922 1.06-6.729 2.804-1.807 1.807-2.804 4.174-2.804 6.729h-.623c0-2.742 1.122-5.234 2.99-7.165 1.87-1.932 4.487-2.991 7.166-2.991v.623z" fill="#C1BBA0"/>
        <path d="M18.442 11.34c-.062 0-.124 0-.187-.063-.124-.124-.186-.311-.062-.436a.889.889 0 0 0-.124-1.246c-.125-.125-.187-.312-.063-.436.125-.125.312-.187.436-.062.623.498.748 1.433.25 2.056-.063.187-.187.187-.25.187zm-1.557.373c-.063 0-.125 0-.125-.062-.124-.062-.187-.25-.124-.436a.606.606 0 0 0 .062-.56c-.062-.188-.187-.375-.374-.437-.125-.062-.187-.25-.125-.436.063-.125.25-.187.437-.125.311.187.56.499.623.81.124.374.062.748-.125 1.06-.062.124-.125.186-.25.186zm-1.496.623h-.124c-.187-.062-.25-.249-.187-.373.062-.187.062-.374-.062-.499-.063-.187-.25-.311-.374-.311-.187-.063-.25-.25-.187-.374.062-.187.249-.25.374-.187.311.125.56.311.747.623.125.311.187.685.063.997 0 .062-.125.124-.25.124zm-1.37.935c-.187 0-.312-.187-.312-.311.062-.374-.187-.686-.56-.686-.187 0-.312-.187-.25-.311 0-.187.187-.312.312-.25.685.063 1.184.686 1.121 1.371 0 .062-.124.187-.311.187zm-1.122 1.184c-.124 0-.311-.125-.311-.25-.063-.373-.374-.622-.686-.56-.187 0-.311-.125-.311-.25 0-.186.124-.31.249-.31.685-.063 1.308.435 1.37 1.12 0 .063-.124.25-.31.25zm-.872 1.308a.343.343 0 0 1-.312-.187.638.638 0 0 0-.311-.374c-.187-.062-.374-.124-.499-.062-.186.062-.311-.062-.373-.187-.063-.187.062-.311.187-.374.311-.124.685-.062.996.063.312.124.561.436.623.747.063.187-.062.312-.186.374h-.125zm-.623 1.433c-.125 0-.187-.062-.25-.187-.124-.187-.249-.311-.435-.373a.606.606 0 0 0-.561.062c-.125.062-.312 0-.436-.125-.063-.124 0-.311.124-.436.312-.187.686-.25 1.06-.125.373.125.622.312.81.624.062.124 0 .311-.125.436-.063.124-.125.124-.187.124zm-.312 1.496a.472.472 0 0 1-.249-.125.889.889 0 0 0-1.246-.125c-.125.125-.312.063-.436-.062-.125-.125-.062-.311.062-.436.623-.499 1.558-.374 2.056.25.125.124.063.31-.062.435 0 .063-.062.063-.125.063zm-.498-16.574a.472.472 0 0 1-.25-.124.743.743 0 0 0-.56-.312c-.25 0-.436.063-.623.187-.125.125-.312.062-.436-.062-.125-.125-.063-.312.062-.436.312-.25.685-.374 1.122-.312.373.062.747.25.996.56.125.126.063.312-.062.437-.124 0-.187.062-.25.062zm-.56 1.745c-.125 0-.188-.062-.25-.187-.187-.374-.685-.498-1.06-.312-.124.063-.31 0-.435-.124-.063-.125 0-.312.124-.436.686-.374 1.496-.125 1.87.56.062.125 0 .312-.125.437 0 0-.063.062-.125.062zm-.81 1.682a.343.343 0 0 1-.312-.187.638.638 0 0 0-.312-.374c-.187-.062-.374-.124-.498-.062-.187.062-.312-.062-.374-.187-.062-.187.062-.311.187-.374.311-.124.685-.062.997.063.311.124.56.436.623.747.062.187-.063.312-.187.374H9.22zM8.036 7.103c-.124 0-.311-.125-.311-.25-.062-.373-.374-.622-.686-.56-.186 0-.311-.125-.311-.25 0-.186.125-.31.25-.31.685-.063 1.308.435 1.37 1.12.062.063-.062.25-.312.25.063 0 .063 0 0 0zM6.73 8.473c-.062 0-.062 0 0 0-.187 0-.312-.186-.312-.311 0-.187 0-.312-.124-.436a1.004 1.004 0 0 0-.436-.25c-.187 0-.312-.186-.25-.31 0-.188.187-.312.312-.25.312.062.623.187.81.436.187.25.311.56.25.935 0 .062-.125.187-.25.187zm-1.558 1.06h-.124c-.187-.063-.25-.25-.187-.374.062-.187.062-.374-.062-.499-.063-.186-.25-.311-.374-.311-.187-.062-.25-.25-.187-.374.062-.187.249-.25.374-.187.311.125.56.312.747.623.187.312.187.686.063.997 0 .062-.125.125-.25.125zm-1.62.81c-.062 0-.124 0-.124-.063-.125-.062-.187-.249-.125-.436a.606.606 0 0 0 .062-.56c-.062-.187-.186-.374-.373-.437-.125-.062-.187-.249-.125-.436.062-.124.25-.187.436-.124.312.187.56.498.623.81.125.373.063.747-.124 1.059 0 .124-.125.187-.25.187zm-1.744.56c-.062 0-.125 0-.187-.062-.125-.124-.187-.311-.062-.436.124-.187.187-.436.187-.623a.654.654 0 0 0-.312-.56c-.125-.188-.125-.375-.062-.5.124-.124.311-.186.436-.062.311.25.498.623.56.997.063.374-.062.81-.31 1.122-.063.062-.126.124-.25.124z" fill="#EA5149"/>
    </g>
</svg>
