<svg width="20" height="20" viewBox="0 0 20 20" xmlns="http://www.w3.org/2000/svg">
    <g fill-rule="nonzero" fill="none">
        <circle fill="#DC691D" cx="10" cy="10" r="10"/>
        <path d="M7.563 18.313h-.125a9.626 9.626 0 0 1-2.125-1.063c-.188-.125-.188-.313-.125-.5.125-.188.312-.188.5-.125.687.438 1.312.75 2 1 .187.063.25.25.187.438 0 .125-.125.25-.313.25zm-3.75-2.438c-.126 0-.188-.063-.25-.125-.063-.125-.188-.188-.25-.313-.313-.374-.626-.75-.813-1.124-.063-.188 0-.376.125-.438.188-.063.375 0 .438.125.187.313.437.688.75 1 .062.125.187.188.25.313a.33.33 0 0 1-.063.5c-.063.062-.125.062-.188.062z" fill="#EF9665"/>
        <path d="M2.813 3.125s-.063 0 0 0c-.25.25-.438.438-.626.688h.626c4.562 0 8.25 4.437 8.25 9.812 0 2.438-.563 4.563-1.688 6.188L9.25 20h.813c1.124-1.75 1.687-3.938 1.687-6.375 0-5.813-4-10.5-8.938-10.5z" fill="#A93617"/>
        <path d="M7.875.25C7.5.313 7.187.438 6.812.563l.313.125c4.625 1.875 7.688 7.625 7.688 14.374 0 1.063-.188 2.126-.313 3.188l-.188.875c.25-.125.563-.25.813-.438l.063-.25v-.062c.187-1.063.312-2.125.312-3.313C15.5 8.25 12.437 2.376 7.875.25zM19.5 13.188c-1.563-1-2.625-3.938-2.625-7.313 0-1 .125-1.938.313-2.813-.188-.187-.375-.374-.625-.562v.25c-.25 1-.313 2.063-.313 3.188 0 3.687 1.125 6.75 2.938 7.875h.062l.063.062c0-.25.125-.5.187-.688z" fill="#A93617"/>
        <path d="M19.688 7.625c-.063-.25-.125-.438-.188-.688-7.875-.062-14.25 2-19 6.25.063.25.188.438.25.688l.188-.125c4.625-4.188 10.937-6.25 18.75-6.125z" fill="#A93617"/>
    </g>
</svg>
