<svg width="20" height="20" viewBox="0 0 20 20" xmlns="http://www.w3.org/2000/svg">
    <g fill-rule="nonzero" fill="none">
        <path d="M10.031 2.375V1.187H.623v1.188h1.745V8.25H.623v1.188h9.408V8.25h-.81V7.062h.81V5.875h-.81V4.687h.81V3.5h-.81V2.375h.81zM5.234 8.25H3.55V7.062h1.62V8.25h.063zm0-2.375H3.55V4.687h1.62v1.188h.063zm0-2.375H3.55V2.375h1.62V3.5h.063zm2.803 4.75h-1.62V7.062h1.62V8.25zm0-2.375h-1.62V4.687h1.62v1.188zm0-2.375h-1.62V2.375h1.62V3.5z" fill="#D5E8FE"/>
        <path d="M19.44 2.375V1.187H10.03v1.188h.81v1.188h-.81V4.75h.81v1.188h-.81v1.187h.81v1.188h-.81V9.5h9.408V8.312h-1.744V2.375h1.744zM13.644 8.25h-1.62V7.062h1.62V8.25zm0-2.375h-1.62V4.687h1.62v1.188zm0-2.375h-1.62V2.375h1.62V3.5zm2.866 4.75h-1.62V7.062h1.62V8.25zm0-2.375h-1.62V4.687h1.62v1.188zm0-2.375h-1.62V2.375h1.62V3.5z" fill="#B5DBFF"/>
        <path fill="#00DDC1" d="m1.246 14.125-1.184-.063V0h1.184z"/>
        <path fill="#00B5BC" d="m20 14.063-1.184.062V0H20z"/>
        <path d="M6.729 15.188c-.997 0-1.558-.313-1.994-.626-.374-.25-.685-.437-1.37-.437-.686 0-.997.188-1.371.438-.436.25-.997.624-1.994.624V14c.685 0 .997-.188 1.37-.438.437-.25.998-.624 1.994-.624.997 0 1.558.312 1.994.624.374.25.686.438 1.371.438.685 0 .997-.188 1.37-.438l.624 1c-.499.313-.997.626-1.994.626z" fill="#FFDD90"/>
        <path d="M20 15.188c-.997 0-1.558-.313-1.994-.626-.374-.25-.685-.437-1.37-.437-.187 0-.312 0-.499.063L15.95 13c.187-.063.436-.063.686-.063.996 0 1.557.313 1.993.626.374.25.686.437 1.371.437v1.188z" fill="#E7B964"/>
        <path d="M17.072 15.313c0 .687-.187 1.374-.436 2l-.561.375-.063.625c-.249.312-.56.562-.872.812h-.81l-.311.563a4.667 4.667 0 0 1-1.62.312v-9.438c.436 0 .872.063 1.246.188l.124.75 1.06-.25c.436.25.81.563 1.121.938l.062.75.624.25c.249.687.436 1.374.436 2.124z" fill="#1982BF"/>
        <path d="M12.399 10.563V20c-2.617 0-4.673-2.125-4.673-4.688 0-.25 0-.437.062-.687l.374-.438v-.812c.187-.438.436-.813.685-1.125l.81.063.063-.876c.747-.5 1.62-.874 2.679-.874z" fill="#4BB9EC"/>
        <path d="m12.399 12.25.187 1.563-.187 1.374-3.614-2.937c.25-.313.56-.563.872-.813l1.994 1.688.748-.875z" fill="#FFDB00"/>
        <path d="M16.636 17.25a5.4 5.4 0 0 1-.624 1L12.4 15.187V12.25l1.308-1.5c.374.125.748.25 1.122.5l-2.181 2.625 1.121.938 2.243-2.626c.25.313.499.626.686 1L14.704 15.5l1.932 1.75z" fill="#EF9B14"/>
        <path d="m12.399 16.875.498.813-.498.75-4.61-3.813c.061-.438.186-.813.373-1.25l4.237 3.5z" fill="#FFDB00"/>
        <path d="M15.14 19.125c-.311.25-.747.438-1.121.625l-1.62-1.313v-1.562l2.741 2.25z" fill="#EF9B14"/>
    </g>
</svg>
