<svg width="20" height="20" viewBox="0 0 20 20" xmlns="http://www.w3.org/2000/svg">
    <g fill-rule="nonzero" fill="none">
        <path d="M10.491 3.313H9.055V2.125h2.935l-.25.438c-.312.437-.749.75-1.249.75z" fill="#607D8B"/>
        <path d="M17.985 1.813H9.18c-.187 0-.312.125-.312.312 0 .188.125.313.312.313h8.805c.188 0 .313-.126.313-.313 0-.188-.125-.313-.313-.313z" fill="#81D4FA"/>
        <path d="M12.99 18.25h-.625l-.75-5.188v-.124L9.68 7.75c-.125-.313-.438-.438-.75-.375-.312.125-.437.438-.374.75l1.935 5.125.812 5.625c.063.313.313.5.562.5h1.124a.56.56 0 0 0 .562-.563c0-.312-.187-.562-.562-.562z" fill="#546E7A"/>
        <path d="m8.993 13.125-.125-4.688c0-.312-.312-.562-.625-.562-.312 0-.562.313-.562.625l.125 4.563-1.436 5.624a.486.486 0 0 0 .125.5c.125.125.312.25.437.25h1.124a.56.56 0 0 0 .562-.562.56.56 0 0 0-.562-.563h-.375l1.25-5c.062-.062.062-.124.062-.187z" fill="#455A64"/>
        <path d="M9.93 1c0 .563-.438 1-1 1s-.999-.438-.999-1c0-.563.437-1 1-1 .561 0 .998.438.998 1z" fill="#FFAB91"/>
        <path d="M9.93 8.688H7.805a.134.134 0 0 1-.125-.126V3.125a1.186 1.186 0 1 1 2.373 0V8.5c0 .125-.062.188-.125.188z" fill="#F06292"/>
        <path d="M8.868 2c-.188 0-.437.063-.562.188.374.187.562.562.562 1v5.5h1.061a.134.134 0 0 0 .125-.126V3.125C10.054 2.5 9.492 2 8.868 2z" fill="#EC407A"/>
        <path d="M19.984 19.063c-.063-.125-.188-.25-.375-.188l-.687.188a9.5 9.5 0 0 1-2.623.375H.312c-.187 0-.312.125-.312.312 0 .125.125.25.312.25H16.3c.937 0 1.874-.125 2.748-.375l.687-.188c.187-.062.312-.187.25-.375z" fill="#F06292"/>
        <path d="M12.115 5.375a.477.477 0 0 1-.312-.125L8.93 3.375c-.25-.188-.374-.563-.187-.813s.562-.374.812-.187L12.053 4l1.998-1.875c.25-.25.625-.188.812 0 .25.25.187.625 0 .813l-2.31 2.187c-.126.188-.25.25-.438.25z" fill="#FDD835"/>
    </g>
</svg>
