<svg width="20" height="20" viewBox="0 0 20 20" xmlns="http://www.w3.org/2000/svg">
    <g fill="none" fill-rule="evenodd">
        <path fill="none" d="M0 0h20v20H0z"/>
        <path d="M14.927 4.69C16.393 4.003 18 3.94 18 6.565c0 4.812-5.239 8.623-5.239 8.623l-4.12.688-4.401-.688c-1.467-2.5-1.816-6.248-1.886-8.498l12.573-2z" fill="#C03A2B" fill-rule="nonzero"/>
        <path d="m9.339 12.564 1.397-.937c.14-.063.21-.188.14-.313a.34.34 0 0 0-.21-.312c-.14-.063-.28-.063-.35.062L8.64 12.127l-1.606-1c-.14-.125-.42-.063-.49.062-.139.125-.069.375.07.5l1.398.937-1.397.938c-.14.062-.21.187-.14.312 0 .125.07.25.21.313.14.062.279.062.349-.063l1.676-1.062 1.677 1.062c.14.063.279.063.349.063a.34.34 0 0 0 .21-.313c0-.125-.07-.25-.14-.312l-1.467-1z" fill="#FFF" fill-rule="nonzero"/>
        <path d="M12.831 15.188v4.125c0 .375-.349.687-.768.687H4.938c-.419 0-.768-.312-.768-.687v-4.125h8.661z" fill="#E64C3C" fill-rule="nonzero"/>
        <path d="M7.174 16.563h5.587v2.062H7.174c-.21 0-.35-.125-.35-.375v-1.374c0-.188.14-.313.35-.313z" fill="#F9EAB0" fill-rule="nonzero"/>
        <path d="M14.927 4.69c0 .5-.14 1.063-.28 1.563-1.746 5.874-10.407 4.561-12.293.437-.21-.5-.35-1-.35-1.5C1.796-.309 8.502.004 8.502.004s6.775-.313 6.426 4.686z" fill="#E64C3C" fill-rule="nonzero"/>
        <path d="M7.593 1.379c0-.063-.07-.188-.14-.25-.07-.063-.21-.063-.28-.063-1.536.25-3.422.937-3.98 3 0 .187.139.375.279.437h.07c.209 0 .349-.125.349-.25.419-1.75 2.025-2.312 3.283-2.437.07 0 .21-.062.279-.125.14-.125.14-.187.14-.312z" fill="#FFF" fill-rule="nonzero"/>
    </g>
</svg>
