<svg width="20" height="20" viewBox="0 0 20 20" xmlns="http://www.w3.org/2000/svg">
    <g fill-rule="nonzero" fill="none">
        <path d="m16.835 17.688 2.152 2.125c.254.25.633.25.823 0 .19-.25.253-.625 0-.875l-2.152-2.125h-.823v.875z" fill="#FF7A3C"/>
        <path fill="#FF372B" d="m15.95 16.813.822.875.823-.875-.823-.875h-.823z"/>
        <path fill="#FFBA48" d="m15.127 16 .822.875.823-.875-.823-.875h-.822z"/>
        <path fill="#0AB84F" d="m13.86 14.688.824-.876 1.265 1.25-.822.876z"/>
        <path d="m12.975 9.125-2.152 2.125-9.62-9.625L.38 2.5a1.127 1.127 0 0 0 0 1.688L11.899 15.75c.443.5 1.266.5 1.709 0l.822-.875.19-4.063-1.645-1.687z" fill="#FFBA48"/>
        <path d="M4.177.375a1.16 1.16 0 0 0-1.709 0l-1.265 1.25c-.444.5-.444 1.25 0 1.688L10 12.124l2.975-3L4.177.375zm7.532 13.438 1.076 1.062c.443.5 1.266.5 1.709 0l1.265-1.25c.444-.5.444-1.25 0-1.688l-1.075-1.062-2.975 2.938z" fill="#FFD185"/>
        <path d="m3.165 17.688-2.152 2.125c-.254.25-.633.25-.823 0-.19-.25-.253-.625 0-.875l2.152-2.125h.823v.875z" fill="#FF7A3C"/>
        <path fill="#FF372B" d="m4.05 16.813-.822.875-.823-.875.823-.875h.823z"/>
        <path fill="#FFBA48" d="m4.873 16-.822.875L3.228 16l.823-.875h.822V16z"/>
        <path fill="#0AB84F" d="m4.05 15.125 1.266-1.25.823.875L4.873 16l-.822-.875z"/>
        <path d="m19.62 2.5-.823-.875-13.29 13.25.822.875c.443.5 1.266.5 1.709 0L19.62 4.187a1.127 1.127 0 0 0 0-1.687z" fill="#FFD185"/>
        <path d="M18.797 1.625 17.532.375a1.16 1.16 0 0 0-1.71 0L4.242 11.938c-.444.5-.444 1.25 0 1.687l1.265 1.25c.443.5 1.266.5 1.71 0L18.796 3.312c.444-.437.444-1.187 0-1.687z" fill="#FFE8C2"/>
        <ellipse fill="#FF372B" cx="10" cy="1.5" rx="1.519" ry="1.5"/>
    </g>
</svg>
