<svg width="20" height="20" viewBox="0 0 20 20" xmlns="http://www.w3.org/2000/svg">
    <g fill-rule="nonzero" fill="none">
        <path d="M15.9 19.75c-2.111 0-3.85-1.685-3.85-3.744 0-2.06 1.739-3.744 3.85-3.744 2.112 0 3.852 1.685 3.852 3.744 0 2.06-1.802 3.744-3.851 3.744zm0-6.864c-1.8 0-3.23 1.435-3.23 3.12 0 1.747 1.43 3.12 3.23 3.12 1.802 0 3.23-1.435 3.23-3.12a3.23 3.23 0 0 0-3.23-3.12z" fill="#E64B55"/>
        <path d="M15.9 12.574c1.926 0 3.541 1.56 3.541 3.432 0 1.872-1.553 3.432-3.54 3.432-1.988 0-3.54-1.56-3.54-3.432 0-1.872 1.552-3.432 3.54-3.432m0-.562c-2.236 0-4.1 1.81-4.1 3.994S13.602 20 15.901 20C18.199 20 20 18.19 20 16.006c-.062-2.184-1.863-3.994-4.1-3.994z" fill="#50555A"/>
        <path d="M15.9 12.012c-.061 0-.061 0 0 0v.562c1.926 0 3.541 1.56 3.541 3.432 0 1.872-1.553 3.432-3.54 3.432V20C18.137 20 20 18.19 20 16.006c-.062-2.184-1.863-3.994-4.1-3.994z" fill="#373C41"/>
        <path d="M15.9 15.07c-.558 0-.993.437-.993.936 0 .5.435.936.994.936.559 0 .993-.437.993-.936-.062-.5-.496-.936-.993-.936z" fill="#B9B9BE"/>
        <path d="M15.9 15.07c-.558 0-.993.437-.993.936 0 .5.435.936.994.936.559 0 .993-.437.993-.936-.062-.5-.496-.936-.993-.936z" fill="#B9B9BE"/>
        <path d="M4.1 19.75c-2.112 0-3.852-1.685-3.852-3.744 0-2.06 1.74-3.744 3.851-3.744 2.112 0 3.851 1.685 3.851 3.744 0 2.06-1.739 3.744-3.85 3.744zm0-6.864c-1.802 0-3.23 1.435-3.23 3.12 0 1.747 1.428 3.12 3.23 3.12 1.8 0 3.23-1.435 3.23-3.12a3.23 3.23 0 0 0-3.23-3.12z" fill="#E64B55"/>
        <path d="M4.1 12.574c1.925 0 3.54 1.56 3.54 3.432 0 1.872-1.553 3.432-3.54 3.432-1.988 0-3.541-1.56-3.541-3.432 0-1.872 1.553-3.432 3.54-3.432m0-.562C1.863 12.012 0 13.822 0 16.006S1.801 20 4.1 20c2.298 0 4.099-1.81 4.099-3.994-.062-2.184-1.864-3.994-4.1-3.994z" fill="#50555A"/>
        <path d="M4.1 12.012s-.063 0 0 0v.562c1.925 0 3.54 1.56 3.54 3.432 0 1.872-1.553 3.432-3.54 3.432V20c2.235 0 4.099-1.81 4.099-3.994-.062-2.184-1.864-3.994-4.1-3.994z" fill="#373C41"/>
        <path d="M4.1 15.07c-.56 0-.994.437-.994.936 0 .5.434.936.993.936.56 0 .994-.437.994-.936-.062-.5-.497-.936-.994-.936z" fill="#B9B9BE"/>
        <path d="M8.26 15.944a.522.522 0 0 1-.434-.25L5.342 9.89c-.125-.25 0-.499.248-.561.249-.125.497 0 .621.25l2.485 5.803c.124.25 0 .5-.249.562h-.186z" fill="#46738C"/>
        <path d="M8.26 15.944a.473.473 0 0 1-.31-.125c-.186-.187-.186-.437 0-.624l4.472-4.805-6.46.561-2.235 4.119h2.236c.248 0 .435.187.435.437s-.187.437-.435.437H2.919c-.186 0-.31-.063-.372-.188a.535.535 0 0 1 0-.436l2.67-4.993c.063-.125.187-.25.373-.25l7.888-.624c.187 0 .373.063.435.25s.062.374-.062.5l-5.28 5.616a.473.473 0 0 1-.31.125z" fill="#55879B"/>
        <path d="M7.267 10.202H4.224a.69.69 0 0 1-.684-.686.69.69 0 0 1 .684-.687h3.043a.69.69 0 0 1 .683.687.69.69 0 0 1-.683.686z" fill="#B9CDD2"/>
        <path d="M15.466 15.944a.467.467 0 0 1-.435-.312l-2.67-7.926c-.063-.125 0-.25.061-.374a.341.341 0 0 1 .31-.188l2.113-.436c.248-.063.497.124.559.374.062.25-.124.5-.373.562l-1.553.312 2.547 7.426c.062.25-.062.5-.31.562h-.25z" fill="#46738C"/>
        <path d="M7.888 16.443c-.497-.187-.807-.749-.62-1.248l1.552-4.057-3.044-1.997c-.434-.312-.559-.936-.31-1.373.31-.436.932-.561 1.366-.25l3.727 2.435c.373.25.559.749.373 1.185L9.13 15.944c-.124.436-.683.686-1.242.499z" fill="#FFB69E"/>
        <path d="m11.615 4.523-1.49-1.56a1.261 1.261 0 0 0-.932-.374c-.373 0-.684.125-.932.374L4.658 6.708c-.248.25-.372.686-.372 1.06.062.375.248.75.62.937l2.485 1.56.87.561 1.428-1.435-.87-.562 2.672-2.558c.62-.5.62-1.248.124-1.748z" fill="#3C5064"/>
        <path d="M4.41 7.394c.062-.25.186-.5.31-.686l3.603-3.745c.248-.25.559-.374.932-.374.372 0 .683.125.931.374l1.491 1.56c.435.5.435 1.248-.062 1.685l-2.67 2.559L4.41 7.394z" fill="#FFA50A"/>
        <ellipse fill="#FFB69E" cx="13.043" cy="2.027" rx="1.863" ry="1.81"/>
        <path d="M10.186.28c.187-.437 1.056-.125 2.05-.25 1.553-.125 2.36.125 2.857.999.187.312.187.748.124 1.123 0 .062-.062.125-.124.187-.062.063-.124.063-.186 0-2.485-.811-5.031-1.123-4.72-2.06z" fill="#FA503C"/>
        <path d="M11.304 7.581a1.288 1.288 0 0 1-.62-.374l-2.175-3.37c-.248-.375-.124-.874.249-1.123.372-.188.931-.125 1.18.312l1.925 2.995 2.92.062c.434 0 .807.375.807.812 0 .437-.373.811-.87.811l-3.354-.062c0-.063-.062-.063-.062-.063z" fill="#FFB69E"/>
        <path d="m9.627 5.522 1.367-.936-1.056-1.56c-.249-.375-.745-.5-1.18-.25-.373.25-.497.749-.249 1.123l1.118 1.623z" fill="#FA870A"/>
    </g>
</svg>
