<svg width="20" height="20" viewBox="0 0 20 20" xmlns="http://www.w3.org/2000/svg">
    <g fill-rule="nonzero" fill="none">
        <path d="M19.241 3.53a1.651 1.651 0 0 0-1.187-.252l-1.312-1.32c.063-.44 0-.817-.187-1.194A2.204 2.204 0 0 0 14.68.009c-.75 0-1.437.378-1.875.943-1.062 1.383-.937 3.772-.312 5.47 0 .062.063.125.125.125l.812.817c.063.063.125.063.125.126a8.263 8.263 0 0 0 2.811.503c.937.063 1.812-.189 2.624-.691.625-.44 1-1.132 1-1.886a2.233 2.233 0 0 0-.75-1.886z" fill="#F44336"/>
        <path d="M.437 20A.428.428 0 0 1 0 19.56c0-.126.062-.189.125-.314l4.185-4.15a.393.393 0 0 1 .563 0 .574.574 0 0 1 0 .63L.687 19.873a.472.472 0 0 1-.25.126z" fill="#B0BEC5"/>
        <path d="m14.056 6.799-.812-.818a.393.393 0 0 0-.562 0l-5.748 4.904c-1.624.251-2.748 3.834-2.748 4.589 0 .251.187.44.437.44.75 0 4.31-1.132 4.56-2.766l4.935-5.72c.063-.252.063-.44-.062-.63z" fill="#455A64"/>
        <path d="M18.991.952c-.25-.251-.75-.314-1.124-.125-1.687.503-4.623 3.709-4.998 5.783-.063.252.125.44.312.503h.125c2.062-.377 5.31-3.332 5.81-4.966.25-.44.187-.88-.125-1.195z" fill="#D32F2F"/>
    </g>
</svg>
