<svg width="20" height="20" viewBox="0 0 20 20" xmlns="http://www.w3.org/2000/svg">
    <g fill-rule="nonzero" fill="none">
        <path d="M10 3.882c-.313-.312-.563-.812-.563-1.187 0-.562.626-1.312 1-1.624a.75.75 0 0 0 0-.875c-.187-.25-.624-.25-.812-.062C9.5.259 8.25 1.446 8.25 2.695c0 1.25 1.25 2.374 1.375 2.499.375.312 1 1.062 1 1.624s-.625 1.25-1 1.625c-.25.187-.25.562-.063.812.188.25.563.25.813.062.125-.125 1.375-1.25 1.375-2.499 0-1.437-1.375-2.499-1.75-2.936z" fill="#3B4A51"/>
        <path d="M14.438 7.068c-1 0-1.5.312-1.938.625-.375.25-.688.437-1.313.562H8.876c-.75-.125-1.063-.312-1.375-.562-.438-.313-.875-.625-1.938-.625C2.188 7.068 0 13.565 0 16.938 0 19.689 1.25 20 1.813 20c.937 0 2.125-.687 3.5-2.187.812-.874 1.937-1.374 3.062-1.374h3.313c1.124 0 2.25.5 3.062 1.374C16.125 19.25 17.313 20 18.25 20c.625 0 1.125-.375 1.438-1 .25-.5.312-1.187.312-1.999 0-3.436-2.188-9.933-5.563-9.933z" fill="#596C76"/>
        <path d="M14.688 17.813C16.061 19.25 17.25 20 18.188 20c.625 0 1.125-.375 1.437-1 .25-.5.313-1.187.313-1.999 0-3.373-2.188-9.87-5.563-9.87-1 0-1.5.312-1.938.624-.374.25-.687.438-1.312.563H10v8.184h1.688c1.124-.063 2.187.5 3 1.311z" fill="#465A61"/>
        <path d="M6.5 11.754h-.625v-.563a.56.56 0 0 0-.563-.562.56.56 0 0 0-.562.562v.563h-.625a.56.56 0 0 0-.563.562c0 .312.25.562.563.562h.563v.562c0 .313.25.563.562.563a.56.56 0 0 0 .563-.563v-.562h.562a.56.56 0 0 0 .563-.562c.125-.313-.125-.562-.438-.562z" fill="#F0F7FF"/>
        <circle fill="#F8BB5E" cx="14.688" cy="11.191" r="1"/>
        <circle fill="#59C36A" cx="14.688" cy="13.503" r="1"/>
        <circle fill="#73BCFF" cx="13.5" cy="12.316" r="1"/>
        <circle fill="#FF4B00" cx="15.875" cy="12.316" r="1"/>
        <path d="M11.188 11.754H8.812a.56.56 0 0 0-.562.562c0 .312.25.562.563.562h2.374a.56.56 0 0 0 .563-.562.56.56 0 0 0-.563-.562z" fill="#F0F7FF"/>
        <path d="M11.75 12.316a.56.56 0 0 0-.563-.562H10v1.187h1.188c.312 0 .562-.25.562-.625z" fill="#DFE7F4"/>
    </g>
</svg>
