<svg width="20" height="20" viewBox="0 0 20 20" xmlns="http://www.w3.org/2000/svg">
    <g fill-rule="nonzero" fill="none">
        <path d="M2.726 12.991c-.562-.438-1.436-.313-1.873.25-1.374 1.753-1.062 4.318.75 5.633 1.81 1.314 4.308 1 5.682-.751l12.428-16.02c.437-.564.375-1.377-.187-1.816a1.367 1.367 0 0 0-1.874.188l-.062.063-12.366 16.02c-.5.626-1.374.751-1.998.25-.625-.5-.75-1.376-.25-2.002.437-.563.312-1.377-.25-1.815z" fill="#FECD1A"/>
        <path fill="#FC852D" d="m7.16 14.055 1.124-1.44 2.124 1.565-1.124 1.44z"/>
        <path d="M19.65 16.934c0-.501-1.498-.877-3.372-.877-1.873 0-3.372.376-3.372.877 0 .5 1.499.876 3.372.876 1.874 0 3.373-.376 3.373-.876z" fill="#FECD1A"/>
        <path d="M19.65 19.124v-2.19c0 .5-1.498.876-3.372.876-1.873 0-3.372-.376-3.372-.876v2.19c0 .5 1.499.876 3.372.876 1.874 0 3.373-.375 3.373-.876z" fill="#FD3A69"/>
    </g>
</svg>
