<svg width="20" height="20" viewBox="0 0 20 20" xmlns="http://www.w3.org/2000/svg" xmlns:xlink="http://www.w3.org/1999/xlink">
    <defs>
        <path id="fknm602f0a" d="M0 20h20V0H0z"/>
        <path id="7ggkmjv5pc" d="M0 0v6.78h3.74V0z"/>
    </defs>
    <g fill="none" fill-rule="evenodd">
        <path d="M10 19.551A9.551 9.551 0 1 0 10 .449a9.551 9.551 0 1 0 0 19.102" fill="#FEFEFE" fill-rule="nonzero"/>
        <path d="m13.792 1.233.614 3.164 3.632.448a9.584 9.584 0 0 0-4.246-3.612m4.171 14.04A9.504 9.504 0 0 0 19.53 9.39l-2.82 2.061 1.253 3.82zm-4.514 3.633-3.382-2.342-3.22 2.452A9.528 9.528 0 0 0 10 19.55c1.217 0 2.379-.23 3.45-.645" fill="#4C4C4C" fill-rule="nonzero"/>
        <g>
            <mask id="c63etdv8fb" fill="#fff">
                <use xlink:href="#fknm602f0a"/>
            </mask>
            <path d="M10 .898C4.981.898.898 4.98.898 10S4.98 19.102 10 19.102 19.102 15.02 19.102 10 15.019.898 10 .898M10 20C4.486 20 0 15.514 0 10S4.486 0 10 0s10 4.486 10 10-4.486 10-10 10" fill="#2E2E30" fill-rule="nonzero" mask="url(#c63etdv8fb)"/>
        </g>
        <path fill="#4C4C4C" fill-rule="nonzero" d="m10 13.547-3.73-2.71 1.425-4.384h4.61l1.425 4.385z"/>
        <path d="M6.798 10.666 10 12.992l3.202-2.326-1.223-3.764H8.021l-1.223 3.764zM10 13.996a.45.45 0 0 1-.264-.085l-3.73-2.71a.45.45 0 0 1-.162-.503l1.424-4.384a.45.45 0 0 1 .427-.31h4.61c.194 0 .367.125.427.31l1.425 4.384a.45.45 0 0 1-.163.503l-3.73 2.71a.45.45 0 0 1-.264.085z" fill="#2E2E30" fill-rule="nonzero"/>
        <path d="M6.763 1.013A9.575 9.575 0 0 0 2.13 4.59l3.887-.34.746-3.237z" fill="#4C4C4C" fill-rule="nonzero"/>
        <path d="M6.13 1.761a9.229 9.229 0 0 0-3.017 2.292l2.54-.222.477-2.07zm-4 3.278a.449.449 0 0 1-.37-.704A9.961 9.961 0 0 1 6.61.59a.449.449 0 0 1 .59.524L6.455 4.35a.45.45 0 0 1-.398.346l-3.887.341a.435.435 0 0 1-.039.002zM14.784 3.99l2.289.282a9.074 9.074 0 0 0-2.669-2.239l.38 1.957zm3.254 1.303a.432.432 0 0 1-.055-.004l-3.632-.448a.449.449 0 0 1-.386-.36L13.35 1.32a.45.45 0 0 1 .62-.498 9.989 9.989 0 0 1 4.445 3.781.45.45 0 0 1-.378.692zM7.822 18.838a9.148 9.148 0 0 0 4.634-.073L10.08 17.12l-2.257 1.72zM10 20a9.972 9.972 0 0 1-3.3-.56.449.449 0 0 1-.125-.781l3.22-2.452a.449.449 0 0 1 .527-.012l3.383 2.342a.45.45 0 0 1-.094.788A9.954 9.954 0 0 1 10 20z" fill="#2E2E30" fill-rule="nonzero"/>
        <path d="M3.29 11.452.47 9.391a9.504 9.504 0 0 0 1.567 5.882l1.253-3.821z" fill="#4C4C4C" fill-rule="nonzero"/>
        <g transform="translate(0 8.942)">
            <mask id="hpjd4prs5d" fill="#fff">
                <use xlink:href="#7ggkmjv5pc"/>
            </mask>
            <path d="M.902 1.32A9.057 9.057 0 0 0 1.919 5.25l.843-2.569-1.86-1.36zm1.135 5.46a.449.449 0 0 1-.374-.201A9.95 9.95 0 0 1 .023.42.45.45 0 0 1 .734.087l2.82 2.061a.448.448 0 0 1 .162.502L2.463 6.47a.45.45 0 0 1-.426.31z" fill="#2E2E30" fill-rule="nonzero" mask="url(#hpjd4prs5d)"/>
        </g>
        <path fill="#FEFEFE" fill-rule="nonzero" d="M7.695 6.453 6.112 4.379"/>
        <path d="M7.695 6.902a.448.448 0 0 1-.357-.177L5.756 4.652a.449.449 0 1 1 .713-.545l1.583 2.074a.449.449 0 0 1-.357.721" fill="#2E2E30" fill-rule="nonzero"/>
        <path fill="#FEFEFE" fill-rule="nonzero" d="m12.305 6.453 2.101-2.056"/>
        <path d="M12.305 6.902a.449.449 0 0 1-.314-.77l2.1-2.056a.449.449 0 1 1 .628.642l-2.1 2.056a.448.448 0 0 1-.314.128" fill="#2E2E30" fill-rule="nonzero"/>
        <path fill="#FEFEFE" fill-rule="nonzero" d="m6.27 10.837-2.98.615"/>
        <path d="M3.29 11.901a.449.449 0 0 1-.09-.889l2.98-.614a.45.45 0 0 1 .181.879l-2.98.615a.452.452 0 0 1-.091.009M17.238 11.622l.843 2.568a9.055 9.055 0 0 0 1.017-3.928l-1.86 1.36zm.725 4.1a.45.45 0 0 1-.427-.309l-1.253-3.821a.447.447 0 0 1 .162-.502l2.82-2.062a.45.45 0 0 1 .713.334 9.954 9.954 0 0 1-1.64 6.158.449.449 0 0 1-.375.201z" fill="#2E2E30" fill-rule="nonzero"/>
        <path fill="#FEFEFE" fill-rule="nonzero" d="m13.73 10.837 2.979.615"/>
        <path d="M16.71 11.901a.452.452 0 0 1-.091-.01l-2.98-.614a.449.449 0 1 1 .181-.88l2.98.615a.449.449 0 0 1-.09.889" fill="#2E2E30" fill-rule="nonzero"/>
        <path fill="#FEFEFE" fill-rule="nonzero" d="M10.03 13.547v3.017"/>
        <path d="M10 17.013a.45.45 0 0 1-.449-.45v-3.016a.45.45 0 0 1 .898 0v3.017a.45.45 0 0 1-.449.449" fill="#2E2E30" fill-rule="nonzero"/>
    </g>
</svg>
