<svg width="20" height="20" viewBox="0 0 20 20" xmlns="http://www.w3.org/2000/svg">
    <g fill-rule="nonzero" fill="none">
        <path d="M10 0a9.999 9.999 0 0 0-8.813 5.266v.377l-.562.752c-.063.125-.063.25-.125.313l.188.189-.375.627C.124 8.339 0 9.154 0 10.03c0 .565.063 1.192.125 1.756H.5l-.188.69c.438 1.692 1.25 3.26 2.438 4.514l.375-.063v.376c1.25 1.191 2.75 2.006 4.5 2.445l.5-.188.125.314C8.813 20 9.375 20 10 20c.875 0 1.688-.125 2.5-.313l.563-.502.187.25c.125-.062.25-.062.313-.125l.937-.752.188.188a10.039 10.039 0 0 0 5.25-8.84C20 4.514 15.5 0 10 0z" fill="#69D173"/>
        <path d="M16.5 3.511c-.813-.878-2.25-1.003-4-.376-2.5.878-6.125 3.26-10.625 7.084a43.571 43.571 0 0 0-1.75 1.505c.063.25.063.439.125.69.625-.564 1.313-1.129 2-1.756 4.375-3.761 8-6.144 10.438-7.022 1.5-.501 2.75-.439 3.374.251.688.69.75 1.881.25 3.386-.875 2.445-3.25 6.081-7 10.47-.624.69-1.187 1.38-1.75 2.006.188.063.438.126.688.126.5-.565 1-1.129 1.5-1.756 3.875-4.451 6.25-8.088 7.125-10.595.625-1.756.5-3.198-.375-4.013z" fill="#DAD9DD"/>
        <path d="M17.25 2.069c-.625-.564-1.375-1.003-2.25-1.317h-4.5A8.155 8.155 0 0 0 8.25 2.07L6.062 5.956c-.062.439-.125.878-.125 1.317 0 .439.063.877.125 1.316l2.25 3.887c.626.565 1.376 1.004 2.25 1.317H15a8.155 8.155 0 0 0 2.25-1.317L19.5 8.59c.063-.439.125-.877.125-1.316 0-.44-.063-.878-.125-1.317L17.25 2.07z" fill="#EBEAEC"/>
        <path d="M16.938 3.072c-.063 0-.125 0-.125-.063L14.438 1.63c-.126-.063-.188-.25-.126-.376.063-.125.25-.188.376-.125l2.374 1.379c.125.063.188.25.125.376-.062.125-.187.188-.25.188zm-8.313 0c-.125 0-.188-.063-.25-.125-.063-.126-.063-.314.125-.376l2.375-1.38c.125-.125.313-.062.375.063.063.125.063.313-.125.376L8.75 3.01c0 .062-.063.062-.125.062zm10.063 5.83c-.188 0-.313-.125-.313-.313V5.893c0-.188.125-.313.313-.313.187 0 .312.125.312.313V8.59c0 .188-.125.314-.313.314z" fill="#DAD9DD"/>
        <path d="m8.313 2.069-2.25 3.887c-.063.439-.125.878-.125 1.317 0 .439.062.877.125 1.316l2.25 3.887c.624.565 1.374 1.004 2.25 1.317H15a8.155 8.155 0 0 0 2.25-1.317l.813-1.442c-.875.377-1.813.627-2.813.627-3.75 0-6.813-3.072-6.813-6.833 0-1.254.313-2.446.938-3.449-.375.126-.75.376-1.063.69z" fill="#DAD9DD"/>
        <path d="M6.875 8.903c-.188 0-.313-.126-.313-.314V5.893c0-.188.125-.313.313-.313s.313.125.313.313V8.59c-.063.188-.188.314-.313.314zM11 13.354c-.063 0-.125 0-.125-.062L8.5 11.912c-.125-.062-.188-.25-.125-.376.063-.125.25-.188.375-.125l2.375 1.379c.125.063.188.25.125.376s-.188.188-.25.188zm3.563 0c-.126 0-.188-.062-.25-.125-.063-.126-.063-.314.124-.376l2.376-1.38c.125-.062.312-.062.375.126.062.125.062.313-.125.376l-2.375 1.38h-.126z" fill="#CBCBCF"/>
        <path d="m18.063 9.969-4.688-2.696 4.688-2.696c.125-.063.187-.251.125-.376-.063-.126-.25-.188-.375-.126l-4.688 2.696V1.317c0-.188-.125-.314-.313-.314-.187 0-.312.126-.312.314v5.391L7.812 4.013c-.125-.063-.312-.063-.375.125-.062.125-.062.313.125.376L12.25 7.21 7.5 9.969c-.125.062-.188.25-.125.376.063.125.125.125.25.125.063 0 .125 0 .125-.062l4.688-2.696v5.454c0 .188.124.314.312.314s.313-.126.313-.314V7.774l4.687 2.696c.063 0 .125.063.125.063.125 0 .188-.063.25-.125.125-.189.063-.377-.063-.44z" fill="#DAD9DD"/>
        <path d="m10.75 5.83 1.813-1.065a.532.532 0 0 1 .437 0l1.813 1.066c.124.062.187.188.187.376v2.069c0 .188-.063.313-.25.376l-1.813 1.066a.532.532 0 0 1-.437 0l-1.813-1.066c-.124-.063-.25-.25-.25-.376v-2.07c.126-.187.188-.313.313-.375zm2-5.454a6.52 6.52 0 0 0-2.25.376v.627c0 .188.063.314.25.376l1.813 1.066a.532.532 0 0 0 .437 0l1.813-1.066c.124 0 .187-.188.187-.313V.815c-.688-.313-1.438-.439-2.25-.439z" fill="#7C5577"/>
        <path d="M14.813 12.665 13 11.599a.532.532 0 0 0-.438 0l-1.812 1.066c-.125.062-.25.25-.25.376v.627a6.52 6.52 0 0 0 2.25.376 6.52 6.52 0 0 0 2.25-.376v-.627c0-.126-.063-.314-.188-.376z" fill="#603256"/>
        <path d="m6.063 5.956.562.314a.532.532 0 0 0 .438 0l1.812-1.066c.125-.063.25-.251.25-.376v-2.07c0-.187-.063-.313-.25-.376l-.563-.313c-1.124 1.003-1.937 2.32-2.25 3.887z" fill="#7C5577"/>
        <path d="M8.438 4.702c0-.815.124-1.63.437-2.32l-.563-.313c-1.124 1.003-1.937 2.32-2.25 3.887l.563.314a.532.532 0 0 0 .438 0L8.5 5.455c-.063-.251-.063-.502-.063-.753z" fill="#603256"/>
        <path d="M18.938 8.213a.532.532 0 0 0-.438 0L16.687 9.28c-.125.063-.25.25-.25.376v2.07c0 .187.063.313.25.375l.563.314a7.224 7.224 0 0 0 2.25-3.887l-.563-.314z" fill="#7C5577"/>
        <path d="M16.438 11.473v.251c0 .188.062.314.25.376l.562.314c.563-.502 1.063-1.066 1.438-1.756-.688.376-1.438.69-2.25.815zM8.875 9.216 7.062 8.15a.532.532 0 0 0-.437 0l-.563.314c.313 1.567 1.125 2.884 2.25 3.887l.563-.313c.125-.063.25-.251.25-.377V9.592c0-.125-.125-.25-.25-.376z" fill="#603256"/>
        <path d="m17.25 2.069-.563.313c-.125.063-.25.251-.25.377v2.069c0 .188.063.313.25.376L18.5 6.27a.532.532 0 0 0 .438 0l.562-.314c-.313-1.567-1.125-2.884-2.25-3.887z" fill="#7C5577"/>
        <path d="m17.938 2.132-.063-.063C16.562.815 14.812 0 12.875 0c-.438 0-.938.063-1.375.125-1.25.188-2.563.627-4 1.254-1.625.69-3.313 1.693-5.063 3.01-.437.313-.812.627-1.25.877-.187.377-.375.753-.5 1.192C1.313 5.956 2 5.392 2.813 4.89 6.75 2.132 10.189.627 12.938.627h.562c1.5.125 2.813.752 3.813 1.693l-.438.439-4 4.012c-1.25-1.128-2.813-1.755-4.625-1.88-1.563-.063-3.313.187-5.188.877-.874.314-1.75.69-2.5 1.003-.062.25-.187.502-.25.753A25.897 25.897 0 0 1 3.25 6.27c4-1.38 7.125-1.129 9.25.877l-9.75 9.78.438.44 9.75-9.78c1.937 2.13 2.25 5.266.874 9.278a26.065 26.065 0 0 1-1.25 2.947c.25-.063.5-.125.75-.25.376-.753.688-1.568 1-2.509.626-1.88.938-3.636.876-5.203-.126-1.881-.75-3.449-1.876-4.64l3.938-4.075.438-.44a6.5 6.5 0 0 1 1.687 3.825v.565c0 2.696-1.438 6.207-4.25 10.156-.563.753-1.063 1.505-1.563 2.132a5.104 5.104 0 0 0 1.188-.564 8.96 8.96 0 0 0 .875-1.254 34.6 34.6 0 0 0 3-5.079c.625-1.442 1.063-2.758 1.25-4.012.063-.502.125-.94.125-1.38 0-1.88-.813-3.636-2.063-4.952z" fill="#FFF"/>
    </g>
</svg>
