<svg width="20" height="20" viewBox="0 0 20 20" xmlns="http://www.w3.org/2000/svg">
    <g fill-rule="nonzero" fill="none">
        <path d="m1.37 13.832 1.371.498 1.62-.062.623.685c-.062.748-.124 1.558-.124 1.558l-1.994 1.807L0 15.202l1.37-1.37z" fill="#7E5436"/>
        <path fill="#F6A96C" d="m9.034 7.414 1.496-.187 1.37 1.371-.062 1.558-6.916 6.293-2.118-2.119z"/>
        <path d="M10.405 5.919c.498-.56 1.184-1.62 1.184-1.62l1.184-.498 2.741 2.741c-.312.436-.685.935-.685.935-.063.124-2.804 2.616-2.929 2.679L9.097 7.414l1.308-1.495z" fill="#7E5436"/>
        <path d="m11.526 4.237.187-.374c.312-.56.623-1.246.935-2.118.125-.312.312-.561.56-.81C13.77.312 14.58 0 15.515 0c1.122 0 2.243.498 3.053 1.308.872.935 1.37 2.056 1.37 3.178 0 .872-.31 1.682-.934 2.305-.685.686-1.495.873-2.367.499-.499-.25-1.122-.25-1.558 0l-.374.187-3.178-3.24z" fill="#F6A96C"/>
        <path d="m18.567 13.832-1.37.498-1.62-.062-.624.685c.063.748.125 1.558.125 1.558l1.994 1.807L20 15.265l-1.433-1.433z" fill="#966641"/>
        <path d="M9.969 15.327c-1.309 0-2.305 1.06-2.305 2.368A2.3 2.3 0 0 0 9.969 20c1.246 0 2.305-1.06 2.305-2.305 0-1.309-.997-2.368-2.305-2.368z" fill="#ECECF1"/>
        <path fill="#FED2A4" d="m10.903 7.414-1.495-.187-1.37 1.371.062 1.558 6.916 6.293 2.118-2.119z"/>
        <path d="M9.533 5.919c-.499-.56-1.184-1.62-1.184-1.62l-1.184-.498-2.741 2.741c.311.436.685.935.685.935.062.124 2.804 2.616 2.928 2.679l2.804-2.742L9.533 5.92z" fill="#966641"/>
        <path d="M12.274 17.632a2.3 2.3 0 0 1-2.305 2.306v-4.673c1.308.062 2.305 1.121 2.305 2.367z" fill="#D3D3D8"/>
        <path d="m5.171 7.477-.373-.187c-.437-.25-.997-.25-1.558 0-.872.374-1.682.187-2.368-.499A3.42 3.42 0 0 1 0 4.486c0-1.122.498-2.243 1.308-3.053C2.181.561 3.302.063 4.424.063c.872 0 1.682.31 2.305.934.25.25.436.498.56.81.312.81.624 1.495.935 2.118l.187.374-3.24 3.178z" fill="#FED2A4"/>
    </g>
</svg>
