<svg width="20" height="20" viewBox="0 0 20 20" xmlns="http://www.w3.org/2000/svg">
    <g fill="none" fill-rule="evenodd">
        <path fill="none" d="M0 0h20v20H0z"/>
        <ellipse fill="#F0F4F7" fill-rule="nonzero" cx="9.871" cy="5.882" rx="5.871" ry="5.882"/>
        <path d="M10.836.086a5.883 5.883 0 0 1 3.551 5.402 5.877 5.877 0 0 1-5.87 5.883 5.86 5.86 0 0 1-.964-.087c.732.316 1.52.48 2.318.48a5.877 5.877 0 0 0 5.871-5.882A5.879 5.879 0 0 0 10.836.086z" fill="#D2DCE9" fill-rule="nonzero"/>
        <path d="M12.061 14.078c-.761 1.495-1.31 3.226-1.31 5.922h-1.76c0-2.697-.549-4.428-1.31-5.924a25.748 25.748 0 0 1 4.38 0v.002z" fill="#F9CC36"/>
        <path d="M9.871 13.983c-.336 0-.673.007-1.016.021 1.075-.011 2.238.073 2.238.073S9.784 17.304 9.784 20h.968c0-2.696.548-4.427 1.31-5.923a26.916 26.916 0 0 0-2.19-.094z" fill="#F9BC36"/>
        <path d="M5.761 10.823s2.055.942 4.11.942 4.11-.942 4.11-.942c-1.56 2.706-1.938 3.294-1.938 3.294H7.7s-.378-.588-1.938-3.294z" fill="#406B95"/>
        <path d="M7.936 2.257a.323.323 0 1 0 0-.645.323.323 0 0 0 0 .645zm1.935 0a.323.323 0 1 0 0-.645.323.323 0 0 0 0 .645zm1.936 0a.323.323 0 1 0 0-.645.323.323 0 0 0 0 .645zm-4.84 1.29a.323.323 0 1 0 0-.644.323.323 0 0 0 0 .645zm1.936 0a.323.323 0 1 0 0-.644.323.323 0 0 0 0 .645zm1.936 0a.323.323 0 1 0 0-.644.323.323 0 0 0 0 .645zM6 4.839a.323.323 0 1 0 0-.645.323.323 0 0 0 0 .645zm1.936 0a.323.323 0 1 0 0-.645.323.323 0 0 0 0 .645zm1.935 0a.323.323 0 1 0 0-.645.323.323 0 0 0 0 .645zm-4.839 1.29a.323.323 0 1 0 0-.645.323.323 0 0 0 0 .646zm1.936 0a.323.323 0 1 0 0-.645.323.323 0 0 0 0 .646zm1.935 0a.323.323 0 1 0 0-.645.323.323 0 0 0 0 .646zm1.936 0a.323.323 0 1 0 0-.645.323.323 0 0 0 0 .646zm1.935 0a.323.323 0 1 0 0-.645.323.323 0 0 0 0 .646zm1.936 0a.323.323 0 1 0 0-.645.323.323 0 0 0 0 .646zm-2.903-1.29a.323.323 0 1 0 0-.645.323.323 0 0 0 0 .645zm1.935 0a.323.323 0 1 0 0-.645.323.323 0 0 0 0 .645zm-.968-1.29a.323.323 0 1 0 0-.645.323.323 0 0 0 0 .645zm-7.742 0a.323.323 0 1 0 0-.645.323.323 0 0 0 0 .645zm9.678 0a.323.323 0 1 0 0-.645.323.323 0 0 0 0 .645zm-.968-1.29a.323.323 0 1 0 0-.646.323.323 0 0 0 0 .645zM6 2.257a.323.323 0 1 0 0-.646.323.323 0 0 0 0 .645zM8.903.967a.323.323 0 1 0 0-.646.323.323 0 0 0 0 .645zm1.936 0a.323.323 0 1 0 0-.646.323.323 0 0 0 0 .645zM6 7.417a.323.323 0 1 0 0-.644.323.323 0 0 0 0 .645zm1.936 0a.323.323 0 1 0 0-.644.323.323 0 0 0 0 .645zm1.935 0a.323.323 0 1 0 0-.644.323.323 0 0 0 0 .645zM5.032 8.71a.323.323 0 1 0 0-.645.323.323 0 0 0 0 .645zm1.936 0a.323.323 0 1 0 0-.645.323.323 0 0 0 0 .645zm1.935 0a.323.323 0 1 0 0-.645.323.323 0 0 0 0 .645zm1.936 0a.323.323 0 1 0 0-.645.323.323 0 0 0 0 .645zm1.935 0a.323.323 0 1 0 0-.645.323.323 0 0 0 0 .645zm1.936 0a.323.323 0 1 0 0-.645.323.323 0 0 0 0 .645zm-2.903-1.29a.323.323 0 1 0 0-.645.323.323 0 0 0 0 .645zm1.935 0a.323.323 0 1 0 0-.645.323.323 0 0 0 0 .645zM6 9.999a.323.323 0 1 0 0-.645A.323.323 0 0 0 6 10zm1.936 0a.323.323 0 1 0 0-.645.323.323 0 0 0 0 .646zm1.935 0a.323.323 0 1 0 0-.645.323.323 0 0 0 0 .646zm-.968 1.291a.323.323 0 1 0 0-.645.323.323 0 0 0 0 .645zm1.936 0a.323.323 0 1 0 0-.645.323.323 0 0 0 0 .645zm.968-1.29a.323.323 0 1 0 0-.646.323.323 0 0 0 0 .646zm1.935 0a.323.323 0 1 0 0-.646.323.323 0 0 0 0 .646z" fill="#D2DCF1" fill-rule="nonzero"/>
        <path d="M5.762 10.823c.133.23.148.252.265.453.777.242 1.82.488 2.876.488.163 0 .323-.015.484-.025-1.88-.126-3.625-.916-3.625-.916zm8.218 0s-.497.225-1.232.453c-1.248 2.156-1.672 2.842-1.672 2.842h.968s.377-.59 1.936-3.295z" fill="#105286"/>
    </g>
</svg>
