<svg width="20" height="20" viewBox="0 0 20 20" xmlns="http://www.w3.org/2000/svg" xmlns:xlink="http://www.w3.org/1999/xlink">
    <defs>
        <ellipse id="k2zrmgl7pa" cx="8.987" cy="9" rx="8.987" ry="9"/>
    </defs>
    <g fill="none" fill-rule="evenodd">
        <g>
            <mask id="p20b9s1ecb" fill="#fff">
                <use xlink:href="#k2zrmgl7pa"/>
            </mask>
            <use fill="#FD3A69" xlink:href="#k2zrmgl7pa"/>
            <path d="M5.817-1.059c4.963.001 8.986 4.03 8.986 9s-4.024 9-8.988 9c-1.53 0-2.97-.383-4.232-1.058h.003c4.964 0 8.987-4.03 8.987-9A9 9 0 0 0 5.98-.972z" fill="#9D0191" mask="url(#p20b9s1ecb)"/>
        </g>
        <path d="M13.7 4.57c-.571 0-.999.428-1.07 1v1.499c0-.571-.428-1-.998-1-.57 0-.999.5-.999 1.071v1.928c0-.57-.427-1-.998-1a.975.975 0 0 0-.998 1v6.141c.142 2.785 2.496 4.927 5.276 4.784a5.084 5.084 0 0 0 4.778-4.784v-.928c0-.5 0-1.642.214-2.285.285-.785 1.853-2.142.641-2.713-.428-.215-.927 0-1.354.357-.785.57-1.498 1.713-1.498 2.427V7.14c0-.57-.428-1-.998-1.07-.57 0-.998.428-1.07.999v-1.5c.072-.5-.356-1-.927-1z" fill="#FECD1A" fill-rule="nonzero"/>
        <path d="M13.058 12.639v-5.57c0-.214-.143-.357-.357-.357s-.356.143-.356.357v5.57c0 .214.142.357.356.357s.357-.143.357-.357zm-2.425 1.142c.214 0 .357-.143.357-.357V9.068c0-.214-.143-.357-.357-.357s-.356.143-.356.357v4.356c0 .214.142.357.356.357zm4.492-.857V7.07c0-.214-.142-.357-.356-.357s-.357.143-.357.357v5.855c0 .214.143.357.357.357s.356-.143.356-.357z" fill="#FC852D" fill-rule="nonzero"/>
    </g>
</svg>
