<svg width="20" height="20" viewBox="0 0 20 20" xmlns="http://www.w3.org/2000/svg">
    <g fill="none" fill-rule="evenodd">
        <path d="M12.038 16.899c-.828 1.266-1.592 1.582-2.739 1.645-.828.064-1.656 0-2.42-.063-1.975-.316-3.44-.823-4.65-1.456-2.165-1.329-1.783-4.557.637-3.86l5.032 1.392c1.529.443 2.675-.443 3.376-1.962l.7-1.456 1.465-.253.892 1.266-2.293 4.747z" fill="#FFC343"/>
        <path fill="#EB5468" d="m17.325 5.76-1.529.126-.955-1.14.828-1.835 1.465.064 1.019 1.012-.828 1.772z"/>
        <path d="m18.217 3.924-2.485-1.013L17.006.19c0-.127.064-.19.191-.19h2.676c.063 0 .127.063.127.19l-1.783 3.734z" fill="#FFC343"/>
        <path fill="#EFF6F7" d="m14.84 4.747 2.485 1.012-2.994 6.33-2.356-.95z"/>
        <path d="M5.924 16.962c.51 0 .891.38.891.886v1.266a.868.868 0 0 1-.891.886H.892A.868.868 0 0 1 0 19.114v-1.266c0-.506.382-.886.892-.886h5.032z" fill="#547884"/>
        <path d="m12.038 16.899 2.293-4.81-1.274-.507-2.293 4.81c-.828 1.266-1.592 1.583-2.739 1.646H6.88v.443c.764.127 1.592.127 2.42.063 1.083-.126 1.911-.443 2.74-1.645z" fill="#FEA610"/>
        <path fill="#CBE4E7" d="m14.331 12.089 2.994-6.33-1.274-.506-2.994 6.33z"/>
        <path fill="#E5384F" d="m17.325 5.76.892-1.836-1.274-.506-.892 1.835z"/>
        <path d="M18.217 3.924 20 .19c0-.127-.064-.19-.127-.19h-1.274l-1.656 3.418 1.274.506z" fill="#FEA610"/>
        <path d="M6.815 18.418v-.633a.868.868 0 0 0-.891-.886H4.268c.51 0 .891.38.891.886v1.266a.868.868 0 0 1-.891.886h1.656c.51 0 .891-.38.891-.886v-.633z" fill="#3D5959"/>
    </g>
</svg>
