<svg width="20" height="20" viewBox="0 0 20 20" xmlns="http://www.w3.org/2000/svg">
    <g fill="none" fill-rule="evenodd">
        <path fill="none" d="M0 0h20v20H0z"/>
        <path d="m15.14 6.41-2.698-.405a.761.761 0 0 0-.771 1.08c.192.404.578.606.964.404l.064.202 2.442-1.146V6.41z" fill="#277BAA" fill-rule="nonzero"/>
        <path d="m4.86 6.41 2.698-.405a.761.761 0 0 1 .771 1.08c-.192.404-.578.606-.964.404l-.128.202-2.442-1.079.064-.202zm-3.15 4.113-1.284-.54C.105 9.85-.088 9.378.04 9.04l.836-2.023c.128-.338.578-.54.9-.405l1.284.54.257.134-1.285 3.304-.321-.067z" fill="#C7463B" fill-rule="nonzero"/>
        <path d="M5.566 13.827 2.74 12.546c-.9-.405-1.285-1.483-.9-2.36L3.06 7.219c.322-.81 1.093-1.146 1.8-.81l3.148 1.417c1.028.472 1.542 1.753 1.092 2.832l-.835 2.023c-.45 1.079-1.606 1.618-2.699 1.146z" fill="#C7463B" fill-rule="nonzero"/>
        <path d="M8.008 7.826 4.86 6.41c-.706-.337-1.477 0-1.799.741l-1.22 2.967c0 .068-.065.135-.065.203.193.472.514.944.964 1.146l2.827 1.281c1.028.472 2.25-.067 2.7-1.146L9.1 9.579c.065-.135.065-.202.129-.337-.193-.607-.578-1.146-1.22-1.416z" fill="#DC4D41" fill-rule="nonzero"/>
        <path fill="#FBB540" fill-rule="nonzero" d="m5.952 12.007-1.928-.877L5.117 8.5l1.927.877z"/>
        <path fill="#EA9D2D" fill-rule="nonzero" d="m2.032 7.893-.578 1.349-.578-.337.514-1.281z"/>
        <path d="m18.29 10.523 1.284-.54c.321-.134.514-.606.386-.943l-.836-2.023c-.128-.338-.578-.54-.9-.405l-.963.405-.321.134-.386.203 1.414 3.304.321-.135z" fill="#277BAA" fill-rule="nonzero"/>
        <path d="m14.434 13.827 2.827-1.281c.9-.405 1.285-1.483.9-2.36L16.94 7.219c-.322-.742-1.093-1.079-1.8-.742l-3.148 1.416c-1.028.472-1.542 1.753-1.092 2.832l.835 2.023c.45 1.012 1.606 1.551 2.699 1.08z" fill="#277BAA" fill-rule="nonzero"/>
        <path d="M16.94 7.151c-.322-.741-1.093-1.078-1.8-.741l-3.148 1.416c-.578.27-1.028.809-1.157 1.483 0 .135.065.203.129.337l.835 2.023c.45 1.08 1.67 1.619 2.699 1.147l2.827-1.281c.45-.203.836-.607.964-1.147 0-.067 0-.135-.064-.202L16.94 7.15z" fill="#428DC5" fill-rule="nonzero"/>
        <path fill="#FBB540" fill-rule="nonzero" d="m12.956 9.377 1.927-.877 1.093 2.63-1.928.877z"/>
        <path fill="#EA9D2D" fill-rule="nonzero" d="m19.124 8.905-.578.337-.578-1.349.642-.27z"/>
    </g>
</svg>
