<svg width="20" height="20" viewBox="0 0 20 20" xmlns="http://www.w3.org/2000/svg">
    <g fill-rule="nonzero" fill="none">
        <path d="M20 7.864v6.703a.726.726 0 0 1-.196.516l-.13.129v1.482c0 .065 0 .194-.066.258 0 .065-.065.194-.065.258l-.197.58c-.065.065-.065.13-.13.194 0 0 0 .064-.066.064-.065.129-.13.193-.196.258-.065.129-.196.258-.261.387l-.13.129c-.066.064-.131.193-.262.257-.065.065-.196.13-.262.194l-.13.129c-.066.064-.13.129-.262.129a2.338 2.338 0 0 1-.588.257c-.065 0-.065 0-.13.065h-.458c-.261 0-.523-.065-.719-.13 0 0-.13-.064-.327-.128-.588-.258-1.895-.773-3.463-1.418-4.51-1.676-11.24-4.448-11.24-4.448-.327-.129-.523-.386-.654-.709a.895.895 0 0 1 .13-.902l.262-.451.392-.645c.13-.258.196-.515.13-.838l-.064-.193C.329 7.928.59 5.672 1.57 3.739l.065-.13a.885.885 0 0 0 .131-.708c-.196-.58.13-1.16.719-1.354l1.176-.387L4.773.773A14.115 14.115 0 0 1 8.498.064h1.177c2.614.065 5.097.903 7.188 2.385.588.387 1.046.967 1.373 1.547.13.258.26.58.326.838l.066.258.326 1.031.327 1.032a.72.72 0 0 1 .719.709z" fill="#E64C3C"/>
        <path d="M18.693 5.028h-1.634c-.196 0-.392.129-.392.322l-2.287-.967-.523-.258c-.261-.129-.457-.258-.653-.515l-.523-.71a.406.406 0 0 1 0-.386.36.36 0 0 1 .326-.194c.066 0 .131 0 .131.065l3.53 1.611h1.437l.065-.064c.13.258.262.58.327.838l.196.258z" fill="#C03A2B"/>
        <path d="m11.831 12.054 3.921 2.836-4.77-1.805-.393-.13a24.288 24.288 0 0 1-1.895-.837s-.98-3.03-.98-3.094c0-.129 1.046-2.32 1.046-2.32L10 6.96c.98.194 1.96.323 3.006.387h2.941l-3.333.838a2.149 2.149 0 0 0-1.633 1.74c-.131.838.13 1.612.85 2.128z" fill="#8697CB"/>
        <path d="M20 7.864v6.703a.726.726 0 0 1-.196.516l-.13.129h-2.027a4.969 4.969 0 0 1-1.699-.322l-.13-.065-3.922-2.836c-.718-.516-1.045-1.354-.85-2.191a2.338 2.338 0 0 1 1.635-1.74l3.333-.839h3.725c.13.13.261.387.261.645z" fill="#B0D3F0"/>
        <path d="M19.02 6.123h-1.7a.36.36 0 0 1-.326-.193l-.262-.322c-.065-.065-.065-.13-.065-.194 0-.193.196-.322.392-.322h1.634l.327 1.031z" fill="#8697CB"/>
        <circle fill="#E6E7E8" cx="9.871" cy="10.635" r="1"/>
        <path d="m14.38 4.383-4.64.967c-.13 0-.327 0-.458-.064l-.914-.387C6.472 4.06 4.838 2.772 3.662 1.16v-.064L4.773.709A14.115 14.115 0 0 1 8.498 0h1.177l3.332 2.32a.36.36 0 0 0-.326.194.406.406 0 0 0 0 .387l.523.773c.13.193.392.387.653.516l.523.193zm-1.046 11.409-1.503.71a.422.422 0 0 1-.392 0l-3.071-2.064A36.802 36.802 0 0 1 .59 7.348a8.48 8.48 0 0 1 .98-3.545l.065-.129c.131-.258.196-.516.131-.773-.196-.58.13-1.16.719-1.354l1.176-.387v.065l.196.515c.589 1.74 1.7 3.223 3.137 4.319l.523.387-.719-.13c-.719-.128-1.503.194-1.895.774-.392.58-.327 1.418.13 1.998.72.838 1.57 1.612 2.484 2.32.392.259.784.517 1.176.71.588.322 1.242.645 1.895.838l.327.129 2.484 2.127c.065.064.13.193.13.322 0 .13-.065.194-.196.258z" fill="#802F34"/>
        <path d="M8.76 6.64v.708c0 .516-.262 1.031-.72 1.29-.065.064-.13.128-.13.257s0 .193.13.258l.328.322c.261.258.457.645.457.967v1.547c-.392-.193-.784-.451-1.176-.709a12.009 12.009 0 0 1-2.484-2.32 1.729 1.729 0 0 1-.13-1.999c.392-.644 1.11-.966 1.895-.773l.719.129 1.11.322z" fill="#556080"/>
        <circle fill="#E6E7E8" cx="6.603" cy="8.186" r="1"/>
        <path d="M7.649 10.507h-.066s-.065 0-.065-.065c-.065 0-.065-.064-.065-.129v-.064s0-.065.065-.065c.065-.064.13-.064.196-.064 0 0 .065 0 .065.064 0 0 0 .065.066.065v.064c0 .065 0 .065-.066.13 0 0-.065 0-.065.064h-.065z" fill="#E6E7E8"/>
        <path d="M19.608 16.952c-.327 1.612-2.157 3.61-3.856 2.9 0 0-.13-.064-.392-.128l.458-.387c.784-.644 1.372-1.482 1.568-2.45l.065-.193.654.258h1.503z" fill="#802F34"/>
        <path d="M19.673 15.212v1.29c0 .128 0 .321-.065.45h-1.503l-.654-.258-.85-.322a.354.354 0 0 1-.195-.322v-.967c.392.129.85.193 1.241.193l2.026-.064z" fill="#C03A2B"/>
        <path d="M11.896 18.306A3174.566 3174.566 0 0 1 .722 13.729c-.327-.129-.523-.386-.654-.709a.895.895 0 0 1 .13-.902l.262-.451.196.193c.784.58 1.634 1.031 2.614 1.29.784.193 1.438.515 2.091.966l6.535 4.19z" fill="#556080"/>
    </g>
</svg>
