<svg width="21" height="20" viewBox="0 0 21 20" xmlns="http://www.w3.org/2000/svg">
    <g fill="none" fill-rule="evenodd">
        <path d="m2.86 15.107-2.439 2.44a1.436 1.436 0 1 0 2.033 2.033l2.44-2.44 1.52-1.392-2.161-2.16-1.393 1.519zM19.327.674a2.298 2.298 0 0 0-3.252 0l-.172.196L4.641 13.163l2.196 2.197L19.132 4.097l.195-.17a2.298 2.298 0 0 0 0-3.253z" fill="#FFC60B" fill-rule="nonzero"/>
        <path fill="#ED1C24" fill-rule="nonzero" d="m4.253 13.587 2.16 2.161.425-.388-2.197-2.197z"/>
        <path d="M16.067 14.455zm.396 1.468zm-.44 1.268c-.069.1-.141.198-.225.286l.024-.026c.075-.08.139-.17.2-.26zm-.2-3.054-.024-.025a2.426 2.426 0 0 1 .024.025zm4.014 1.528z"/>
        <path d="M19.38 13.775c.164.132-.314-.253 0 0z" fill="#FFC60B" fill-rule="nonzero"/>
        <path d="M16.983 15.665a2.712 2.712 0 0 0-.868-1.863c-.113.097-.22.197-.317.31.394.42.635.977.664 1.553l-.012-.24.012.24v.258a2.484 2.484 0 0 1-.664 1.554c.097.114.204.212.317.31a2.71 2.71 0 0 0 .868-1.864v-.258c-.033-.712 0 0 0 0zm3.088 1.185a4.235 4.235 0 0 1-.044-.089c.023.043.043.087.065.13-.151-.3-.237-.632-.255-.967v-.259c.018-.341.109-.675.261-.98a2.889 2.889 0 0 0-.28-.462 2.687 2.687 0 0 0-.497 1.442v.259c.024.522.194 1.016.497 1.442.114-.138.204-.3.28-.46a.703.703 0 0 0-.027-.056zm-.492-.927c.004.081.004.081 0 0 0 0 .001.02 0 0zm0-.258c.004-.08.004-.08 0 0 0 0 .001-.02 0 0z" fill="#0083CA" fill-rule="nonzero"/>
        <path d="m19.58 15.665.002-.06c-.002.02-.002.04-.002.06zm0 .258c0 .02 0 .04.002.06l-.003-.06zm-3.557-1.526c.014.02.03.037.044.058-.013-.02-.03-.038-.044-.058zm.435 1.183c-.015-.291-.006-.123 0 0zm.005.085-.004-.07.004.07zm-.396 1.469c-.013.02-.03.038-.044.058l.044-.058zm4.004-.284-.03-.059.03.059z" fill="#0083CA" fill-rule="nonzero"/>
        <path d="M19.818 14.223a2.574 2.574 0 0 0-1.796-1.002 2.592 2.592 0 0 0-1.906.58c.523.485.834 1.152.868 1.864v.258a2.71 2.71 0 0 1-.868 1.863c.448.372 1.221.65 1.906.582a2.588 2.588 0 0 0 1.796-1.003 2.684 2.684 0 0 1-.497-1.442v-.258a2.684 2.684 0 0 1 .497-1.442z" fill="#FFC60B" fill-rule="nonzero"/>
        <path d="M16.463 15.665a2.453 2.453 0 0 0-.396-1.21c-.013-.02-.03-.037-.044-.058a2.367 2.367 0 0 0-.225-.285 2.57 2.57 0 0 0-.623 1.682 2.574 2.574 0 0 0 .623 1.684c.084-.089.156-.186.225-.286.014-.02.03-.037.044-.058a2.46 2.46 0 0 0 .396-1.21v-.26zM20.346 15.665l-.003-.06v-.006a2.591 2.591 0 0 0-.245-.914 2.474 2.474 0 0 0-.26.98v.258c.017.34.104.667.254.967l.006.015c.147-.308.23-.642.248-.982-.001.023-.001.044-.003.065.002-.021.002-.042.003-.065a2.367 2.367 0 0 0 0-.258z" fill="#FFC60B" fill-rule="nonzero"/>
    </g>
</svg>
