<svg width="20" height="20" viewBox="0 0 20 20" xmlns="http://www.w3.org/2000/svg" xmlns:xlink="http://www.w3.org/1999/xlink">
    <defs>
        <path id="p6mklj860a" d="M0 0h20v20H0z"/>
    </defs>
    <g fill="none" fill-rule="evenodd">
        <mask id="waop8o3tub" fill="#fff">
            <use xlink:href="#p6mklj860a"/>
        </mask>
        <use fill-opacity="0" fill="#000" xlink:href="#p6mklj860a"/>
        <path d="m11.254 13.22-2.644-.678v.678c-.949.95-2.44.95-3.322 0v-.678l-2.983.678C1.22 13.22 0 13.763 0 14.915L.339 20H13.22l.34-5.085c0-1.084-1.221-1.695-2.306-1.695z" fill="#1A326E" fill-rule="nonzero" mask="url(#waop8o3tub)"/>
        <circle fill="#FFF" fill-rule="nonzero" mask="url(#waop8o3tub)" cx="4.542" cy="16.949" r="1.017"/>
        <path d="M11.864.339c-.339 0-1.22.203-1.762.475C9.288.339 7.66 0 6.576 0 5.085 0 3.932.61 3.932 1.356c-.949 0-1.695.746-1.695 1.695 0 .949.068 3.05 1.017 3.05l3.051-1.965c.542.406 1.22.61 1.898.61H9.56c.34 0 .678-.068 1.017-.136 1.356-.407 2.305-1.695 2.305-3.254A.998.998 0 0 0 11.864.339z" fill="#4C3D24" fill-rule="nonzero" mask="url(#waop8o3tub)"/>
        <path d="M8.203 4.746c-.745 0-1.356-.204-1.898-.61l-3.05 1.966v2.78c0 .61.27 1.152.745 1.559l1.288.745.271.136c.272.136.543.203.814.203h1.152c.272 0 .543-.067.814-.203l.271-.136 1.288-.745c.475-.407.746-.95.746-1.56v-4.27c-.339.067-.678.135-1.017.135H8.203z" fill="#FAD3AC" fill-rule="nonzero" mask="url(#waop8o3tub)"/>
        <path d="M2.712 6.102c-.475 0-.814.406-.814.881s.34.881.814.881h.474V6.17h-.474v-.067zm8.339 1.695c.474 0 .813-.407.813-.882 0-.474-.339-.881-.813-.881h-.475v1.695h.475v.068z" fill="#EDC59B" fill-rule="nonzero" mask="url(#waop8o3tub)"/>
        <path d="M8.542 13.22v-2.034l-.27.136a1.805 1.805 0 0 1-.814.203H6.305c-.271 0-.542-.067-.813-.203l-.272-.136v2.034c.95.95 2.441.95 3.322 0z" fill="#FAD3AC" fill-rule="nonzero" mask="url(#waop8o3tub)"/>
        <path d="M8.407 13.424c.068-.068.135-.136.203-.136v-2.034l-.271.136a1.805 1.805 0 0 1-.814.203H6.373c-.271 0-.542-.068-.814-.203l-.27-.136v.814c1.084.068 2.169.542 3.118 1.356z" fill="#EDC59B" fill-rule="nonzero" mask="url(#waop8o3tub)"/>
        <path d="M9.56 4.746H8.202c-.745 0-1.356-.204-1.898-.61l-3.05 1.966v.678l3.05-1.966c.542.406 1.22.61 1.898.61H9.56c.34 0 .678-.068 1.017-.136V4.61c-.339.068-.678.136-1.017.136z" fill="#E6BE97" fill-rule="nonzero" mask="url(#waop8o3tub)"/>
        <path d="M13.492 14.508c-.136-.406-.475-.745-.882-.949L11.254 20h1.017l1.017-4.407.204-1.085z" fill="#142654" fill-rule="nonzero" mask="url(#waop8o3tub)"/>
        <path d="M12.542.61c-.135 1.424-1.017 2.576-2.305 2.983-.339.068-.678.136-1.017.136H7.864c-.61 0-1.152-.136-1.627-.407-.203-.136-.474-.136-.61 0l-2.44 1.56c-.272.203-.679.135-.814-.136.135.746.407 1.356.881 1.356l3.051-1.966c.542.406 1.22.61 1.898.61H9.56c.34 0 .678-.068 1.017-.136 1.356-.407 2.305-1.695 2.305-3.254 0-.271-.135-.542-.339-.746z" fill="#3B2F1C" fill-rule="nonzero" mask="url(#waop8o3tub)"/>
        <path d="M2.576 3.729c0-.95.746-1.695 1.695-1.695 0-.746 1.22-1.356 2.644-1.356 1.085 0 2.78.339 3.526.814.542-.272 1.423-.475 1.762-.475.272 0 .475.068.678.271-.067-.542-.474-.949-1.017-.949-.339 0-1.22.203-1.762.475C9.288.339 7.66 0 6.576 0 5.085 0 3.932.61 3.932 1.356c-.949 0-1.695.746-1.695 1.695 0 .746.068 2.305.543 2.847-.204-.678-.204-1.627-.204-2.17z" fill="#5E4C2D" fill-rule="nonzero" mask="url(#waop8o3tub)"/>
        <path d="M17.627 4.068c-.271 0-.542.068-.881.135l2.101 2.034c0-.339.068-.61.068-.881.068-.814-.542-1.356-1.288-1.288zm-3.796 8.068c-.068 0-.136-.068-.204-.068l-1.085-.678s-.067 0-.135-.068l-1.153-1.085c0 .34-.068.61-.068.882 0 .745.543 1.288 1.289 1.22.542-.068 1.22-.136 1.898-.339-.136 0-.34.068-.542.136zm1.898-7.661c-1.017.27-2.102.813-2.848 1.694-.813.882-1.22 1.967-1.423 2.984L14.44 12a5.938 5.938 0 0 0 2.847-1.695c.814-.881 1.22-1.966 1.424-3.05l-2.983-2.78z" fill="#580F09" fill-rule="nonzero" mask="url(#waop8o3tub)"/>
        <path d="M12.475 11.39c-.61-.068-1.085-.407-1.22-.95 0 .272 0 .475-.069.679 0 .542.34 1.017.814 1.152l-.068-.068c-.203-.203-.271-.474-.135-.678.203-.135.474-.203.678-.135zm6.033-4.34c-.27.814-.61 1.56-1.22 2.238-1.017 1.153-2.44 1.627-3.66 1.898l.88.814h.068c.475-.136.95-.339 1.424-.61.068-.068.203-.136.271-.204 0 0 .068 0 .068-.067.068-.068.136-.136.271-.204l.068-.068.203-.203.068-.068.271-.27c.136-.137.204-.204.272-.34.067-.135.135-.203.27-.339.475-.746.746-1.56.882-2.305l-.136-.271z" fill="#380A06" fill-rule="nonzero" mask="url(#waop8o3tub)"/>
        <path d="m12.542 11.39 1.085.678c.068.068.136.068.204.068.203-.068.406-.068.61-.136l-2.983-2.847c-.068.406-.136.745-.136 1.084l1.153 1.085c0 .068.067.068.067.068zm4.204-4.814-.407-.542-.271.203c-.136.136-.34.271-.475.407l-.542-.542-.475.474.475.475-.407.407-.339-.475-.474.475.474.474c-.136.136-.203.271-.339.407l-.474-.475-.475.475.542.542a1.476 1.476 0 0 0-.339.543l-.203.27.542.408.204-.271c.068-.136.203-.272.27-.407l.408.407.474-.475-.474-.475c.135-.135.203-.27.339-.406l.474.474.475-.474-.475-.543.407-.407.475.475.474-.475-.407-.406c.136-.136.272-.204.407-.34l.136-.203zm-1.017-2.101 2.983 2.78c.068-.34.135-.679.135-1.018l-2.101-2.034c-.34.068-.678.136-1.017.272z" fill="#FFF" fill-rule="nonzero" mask="url(#waop8o3tub)"/>
        <path d="m18.102 9.695-.271-.068c-.068.136-.136.271-.272.34a1.479 1.479 0 0 1-.27.338c-.747.814-1.764 1.356-2.78 1.627-.272.204-.61.271-.882.068l-1.085-.678c-.203-.136-.542-.068-.678.136-.135.203-.067.542.136.678l1.085.949c.27.27.474.61.474 1.017l-.339 1.491L12.203 20h2.577l1.084-5.424 2.441-4c.068-.068.068-.203.136-.339.067-.27-.136-.474-.34-.542z" fill="#FAD3AC" fill-rule="nonzero" mask="url(#waop8o3tub)"/>
        <path d="M1.898 16.61h.678V20h-.678v-3.39zm9.017 0h.678V20h-.678v-3.39z" fill="#142654" fill-rule="nonzero" mask="url(#waop8o3tub)"/>
        <circle fill="#2B2210" fill-rule="nonzero" mask="url(#waop8o3tub)" cx="5.22" cy="7.322" r="1"/>
        <circle fill="#2B2210" fill-rule="nonzero" mask="url(#waop8o3tub)" cx="8.542" cy="7.322" r="1"/>
        <path d="M6.915 10.508c-.678 0-1.22-.542-1.22-1.288h.474c0 .407.34.746.746.746a.752.752 0 0 0 .746-.746h.475c0 .746-.543 1.288-1.22 1.288z" fill="#C47C66" fill-rule="nonzero" mask="url(#waop8o3tub)"/>
        <circle fill="#FFF" fill-rule="nonzero" mask="url(#waop8o3tub)" cx="5.424" cy="7.322" r="1"/>
        <circle fill="#FFF" fill-rule="nonzero" mask="url(#waop8o3tub)" cx="8.746" cy="7.322" r="1"/>
    </g>
</svg>
