<svg width="20" height="20" viewBox="0 0 20 20" xmlns="http://www.w3.org/2000/svg">
    <g fill-rule="nonzero" fill="none">
        <path d="M19.676 1.458A1.474 1.474 0 0 0 18.553.34c-.063 0-.125 0-.188-.062-4.18.497-8.546 2.547-12.04 6.027C2.833 9.785.775 14.072.276 18.297c0 .063 0 .125.062.187.125.56.561.994 1.123 1.118 1.746.373 3.493.435 5.24.187l.561-.684 1.747-.31 1.06.124a15.626 15.626 0 0 0 5.365-3.48 15.552 15.552 0 0 0 3.494-5.344l-.125-.932.624-2.05.374-.373c.312-1.802.25-3.542-.124-5.282z" fill="#CE775F"/>
        <path d="M14.061 15.874A11.115 11.115 0 0 1 3.893 9.35C1.896 12.146.71 15.253.337 18.36c0 .062 0 .124.062.186.125.56.562.994 1.123 1.118 1.747.373 3.494.435 5.24.187l.562-.684 1.746-.31 1.061.124a15.825 15.825 0 0 0 4.928-3.045c-.374-.062-.686-.062-.998-.062z" fill="#C0694E"/>
        <path d="M13.312.153V.65l-2.183.808-1.185-.435a15.626 15.626 0 0 0-5.365 3.48 15.552 15.552 0 0 0-3.494 5.344l.188 1.677-.437 1.367-.686.311a14.65 14.65 0 0 0 .187 5.22c.062.186.125.435.25.559.249-4.35 2.245-8.886 5.926-12.552C10.193 2.763 14.747.775 19.114.526c-.187-.124-.374-.186-.561-.248-1.747-.311-3.494-.373-5.24-.125z" fill="#C0694E"/>
        <path d="M3.02 6.305c-.812 1.118-1.498 2.299-1.935 3.542l.188 1.677-.437 1.367-.686.311a14.65 14.65 0 0 0 .187 5.22c.062.186.125.435.25.559.187-3.231 1.31-6.524 3.368-9.507-.437-.932-.81-1.988-.936-3.169z" fill="#B25D46"/>
        <path d="M3.456 10.344c-.125-.062-.187-.249-.062-.435a20.47 20.47 0 0 1 2.932-3.666c1.247-1.243 2.557-2.3 3.992-3.17a.33.33 0 0 1 .437.125.327.327 0 0 1-.125.435c-1.372.87-2.682 1.864-3.868 3.045a21.66 21.66 0 0 0-2.87 3.542c-.124.186-.311.248-.436.124zM1.273 14.32 6.7 19.727c.998-.125 2.246-.435 3.369-.87L2.583 11.4c-.5.994-.936 1.926-1.31 2.92z" fill="#B5DCFF"/>
        <path d="M1.46 14.57c.312-.995.748-1.99 1.247-2.983L1.023 9.909C.586 11.027.337 12.146.15 13.264l1.31 1.305z" fill="#8BCAFF"/>
        <path d="M14.373 1.272c-.998.373-1.996.808-2.932 1.305l7.486 7.456c.437-1.056.686-2.237.873-3.355l-5.427-5.406z" fill="#DBEDFF"/>
        <path d="M13.312.153c-.935.125-2.183.435-3.368.87l1.684 1.678c.998-.497 1.996-.932 2.995-1.243L13.313.153z" fill="#B5DCFF"/>
        <path d="M4.517 10.033 3.456 8.977a.3.3 0 0 1 0-.435.302.302 0 0 1 .437 0l1.06 1.056a.3.3 0 0 1 0 .435.302.302 0 0 1-.436 0zM9.88 4.69l-1.06-1.056a.3.3 0 0 1 0-.435.302.302 0 0 1 .437 0l1.06 1.056a.3.3 0 0 1 0 .435.302.302 0 0 1-.437 0zm-.998.746-1.06-1.056a.3.3 0 0 1 0-.435.302.302 0 0 1 .436 0L9.32 5a.3.3 0 0 1 0 .435.302.302 0 0 1-.437 0zm-.998.808-1.06-1.057a.3.3 0 0 1 0-.434.302.302 0 0 1 .436 0l1.06 1.056a.3.3 0 0 1 0 .435.302.302 0 0 1-.436 0zm-.936.87L5.89 6.056a.3.3 0 0 1 0-.435.302.302 0 0 1 .437 0l1.06 1.057a.3.3 0 0 1 0 .435.302.302 0 0 1-.437 0zm-.873.932-1.06-1.057a.3.3 0 0 1 0-.434.302.302 0 0 1 .436 0l1.06 1.056a.3.3 0 0 1 0 .435.302.302 0 0 1-.436 0zm-.81.994L4.204 7.983a.3.3 0 0 1 0-.435.302.302 0 0 1 .436 0l1.06 1.056a.3.3 0 0 1 0 .435.302.302 0 0 1-.436 0z" fill="#DBEDFF"/>
    </g>
</svg>
