<svg width="20" height="20" viewBox="0 0 20 20" xmlns="http://www.w3.org/2000/svg">
    <g fill-rule="nonzero" fill="none">
        <path d="m17.938 9.316-1.29 1.433-2.723 2.876-1.4-.726-.687.726-4.662-4.114.58-.586-.58-.521c-.13-.13-.258-.326-.258-.521 0-.196.064-.391.193-.587l3.674-4.039a1.37 1.37 0 0 1 1.095-.52c.451 0 .838.13 1.16.39l4.769 4.04c.58.52.709 1.497.129 2.149z" fill="#FF6C77"/>
        <path d="M4.985 17.655a1.15 1.15 0 0 0 0 1.628h.064l1.482-1.172-1.03-1.043-.516.587zM2.02 15.179c-.386.456-.45 1.108-.064 1.564l1.61-1.434-.901-.846-.645.716z" fill="#668892"/>
        <path d="M8.995 11c-4.392 4.22-6.717 6.177-6.975 5.873-.386-.456-.386-1.303 0-1.759l4.382-4.82.774-.848L8.995 11zm2.24 3.332-.45.456-5.736 4.56h-.064a1.15 1.15 0 0 1 0-1.628l4.382-4.821a.708.708 0 0 0 .193-.456l.516-.456 1.933 1.433-.773.912z" fill="#4A8EC9"/>
        <path d="M8.014 9.446a.354.354 0 0 1-.323-.195c-.064-.13-.064-.26.065-.391l4.189-4.625a.49.49 0 0 1 .322-.13c.129.064.258.13.258.26.064.13 0 .26-.065.326L8.271 9.316c-.064.065-.129.13-.257.13zm4.188 3.583a.354.354 0 0 1-.322-.195c-.064-.13-.064-.26.065-.391l4.188-4.625a.49.49 0 0 1 .323-.13c.129 0 .257.13.257.26.065.13 0 .26-.064.326l-4.124 4.625a.49.49 0 0 1-.323.13z" fill="#E76573"/>
        <path d="M20 2.736c0 1.499-1.289 2.736-2.9 2.736s-2.9-1.237-2.9-2.736C14.2 1.238 15.49 0 17.1 0S20 1.238 20 2.736z" fill="#FEDEBB"/>
        <path d="M0 17.59v2.084l11.729-8.902c.322-.26.45-.651.322-1.042-.129-.326-.387-.587-.709-.652-.322-.065-.709 0-.967.26L0 17.59zM2.968 20H5.48l10.246-6.622c.258-.196.387-.391.387-.717 0-.26-.064-.52-.258-.716-.386-.326-.966-.391-1.353-.066L2.968 20z" fill="#C9CED1"/>
    </g>
</svg>
