<svg width="21" height="21" viewBox="0 0 21 21" xmlns="http://www.w3.org/2000/svg">
    <g transform="translate(.2 .2)" fill-rule="nonzero" fill="none">
        <ellipse fill="#5B5B5F" cx="10" cy="9.958" rx="10" ry="9.958"/>
        <path d="M10 0v20c5.508 0 10-4.473 10-9.958S15.508 0 10 0z" fill="#3E3D42"/>
        <ellipse fill="#FFF" cx="10" cy="9.958" rx="5.678" ry="5.654"/>
        <path d="M10 4.304v11.223c3.136 0 5.678-2.531 5.678-5.654 0-3.122-2.542-5.57-5.678-5.57z" fill="#D8D9DD"/>
        <path d="M12.288 11.14c0 .252-.085.59-.17.759-.084.253-.254.422-.508.59-.17.17-.424.338-.678.422-.254.085-.593.17-.847.17-.34 0-.593-.085-.848-.17a1.846 1.846 0 0 1-.678-.422c-.17-.168-.339-.337-.508-.59-.085-.253-.17-.507-.17-.76 0-.169 0-.337.085-.506.085-.169.17-.253.254-.422.085-.084.17-.253.34-.338.084-.084.254-.168.338-.253a.762.762 0 0 1-.508-.506c-.17-.169-.254-.422-.254-.675 0-.253.084-.507.17-.76a.762.762 0 0 1 .508-.506c.17-.169.423-.253.678-.338.254-.084.508-.084.677-.084.255 0 .509 0 .678.084.255.085.509.17.678.338l.509.506c.17.253.17.422.17.76 0 .084 0 .253-.085.337 0 .085-.085.254-.17.338l-.254.253c-.085.084-.17.169-.34.169.17.084.255.169.34.253.085.084.254.169.339.338.085.084.17.253.254.422-.085.253 0 .421 0 .59zm-1.186 0c0-.17 0-.254-.085-.423-.085-.084-.17-.253-.254-.253-.085-.084-.255-.169-.34-.169-.169 0-.254-.084-.423-.084-.17 0-.254 0-.424.084-.17.085-.254.085-.339.17l-.254.252c-.085.085-.085.253-.085.338 0 .169 0 .253.085.337l.254.254c.085.084.255.168.34.168.169.085.254.085.423.085.17 0 .254 0 .424-.085.17-.084.254-.084.339-.168l.254-.254s.085-.168.085-.253zm-1.95-2.532c0 .084 0 .253.085.337.085.085.085.169.17.253.085.085.17.085.254.17.085 0 .17.083.339.083.085 0 .17 0 .339-.084.085 0 .17-.084.254-.169.085-.084.17-.168.17-.253.084-.084.084-.169.084-.337 0-.254-.084-.422-.254-.507-.17-.169-.339-.169-.593-.169-.254 0-.424.085-.593.17-.17.084-.254.252-.254.506z" fill="#000"/>
    </g>
</svg>
