<svg width="20" height="20" viewBox="0 0 20 20" xmlns="http://www.w3.org/2000/svg">
    <g fill-rule="nonzero" fill="none">
        <path d="M2.952 12.418 0 17.23l3.469-.146L5.019 20l2.73-4.447c-1.919-.51-3.616-1.604-4.797-3.135zm13.652-.32c-1.359 1.595-3.312 2.735-5.604 3.267L14.226 20l1.783-3.04 3.991.153-3.396-5.016z" fill="#40596B"/>
        <ellipse fill="#FFD15C" cx="9.714" cy="8.327" rx="8.429" ry="8.327"/>
        <ellipse fill="#F8B64C" cx="9.714" cy="8.257" rx="6.071" ry="6.07"/>
        <path d="M13.857 7.267c.214-.14.072-.493-.143-.493l-2.428-.353c-.072 0-.215-.07-.215-.141L10 4.233a.336.336 0 0 0-.571 0L8.357 6.28c-.071.07-.143.14-.214.14l-2.429.354c-.285 0-.357.352-.143.493L7.286 8.82c.071.07.143.14.071.282l-.428 2.187c-.072.212.214.424.428.283L9.5 10.513a.22.22 0 0 1 .286 0l2.143 1.059c.214.14.5-.071.428-.283l-.428-2.258c0-.07 0-.211.071-.282l1.857-1.482z" fill="#FFF"/>
    </g>
</svg>
