<svg width="20" height="20" viewBox="0 0 20 20" xmlns="http://www.w3.org/2000/svg">
    <g fill-rule="nonzero" fill="none">
        <path fill="#FFE477" d="m14.983 15.103-3.23 3.242-2.475-2.207-.756.896 3.3 2.966 3.986-4.069-.825-.828z"/>
        <path d="M14.983 0c-.894 0-1.787.276-2.543.759a5.024 5.024 0 0 0-1.787 2 14.99 14.99 0 0 0-1.031 2.413c-.275.828-.55 1.725-.756 2.621l-.687 3.241-3.918 3.932.825.827 3.917-3.93 3.23-.69a18.986 18.986 0 0 0 5.018-1.794 5.019 5.019 0 0 0 1.993-1.793A4.811 4.811 0 0 0 20 5.034C19.931 2.207 17.732 0 14.983 0z" fill="#3F52E9"/>
        <path d="m4.605 15.38.412.413 3.918-3.93 3.23-.69a18.986 18.986 0 0 0 5.017-1.794 5.019 5.019 0 0 0 1.993-1.793 4.811 4.811 0 0 0 .756-2.552c0-1.379-.55-2.62-1.443-3.517L4.605 15.38z" fill="#2E3192"/>
        <path d="M17.663 2.276a3.788 3.788 0 0 0-2.68-1.104c-1.443 0-2.68.759-3.368 2.07-.344.758-.687 1.517-.962 2.275-.275.828-.55 1.655-.687 2.483l-.55 2.552L11.959 10A19.37 19.37 0 0 0 16.7 8.345c1.237-.62 2.062-1.931 2.062-3.38 0-1.034-.412-2-1.1-2.69z" fill="#F4F5F7"/>
        <path d="M9.416 10.552 11.959 10A19.37 19.37 0 0 0 16.7 8.345c1.237-.62 2.062-1.931 2.062-3.38 0-1.034-.412-2-1.1-2.69l-8.247 8.277z" fill="#C8D6F2"/>
        <path d="M19.244 13.38c0 .965-.756 1.723-1.718 1.723a1.704 1.704 0 0 1-1.718-1.724c0-.965.756-1.724 1.718-1.724.962-.069 1.718.759 1.718 1.724z" fill="#38EECF"/>
        <path fill="#FF9098" d="M1.65 20 0 18.345l3.918-3.931h1.649v1.655z"/>
        <path fill="#FB4B72" d="m1.65 20 3.917-3.931v-1.655l-4.674 4.69.756.896z"/>
        <path d="M16.289 14.62c.343.346.756.483 1.237.483.962 0 1.718-.758 1.718-1.724 0-.482-.206-.896-.481-1.241l-2.474 2.483z" fill="#0FB397"/>
        <path fill="#FFD011" d="m11.34 19.586.413.414 3.986-4.069-.344-.414z"/>
    </g>
</svg>
