<svg width="20" height="20" viewBox="0 0 20 20" xmlns="http://www.w3.org/2000/svg">
    <g fill-rule="nonzero" fill="none">
        <path d="M3.502 7.985c-.068 1.042.135 2.015.607 3.058.27.625.405 1.32.202 1.946-.27 1.112-.944 1.946-2.16 2.71-.472.278-.944.556-1.349.904l-.54.417c-.337.278-.337.695-.067.973l1.822 1.806a.667.667 0 0 0 1.012-.069l.608-.765.81-1.25c.674-1.182 1.552-1.877 2.631-2.155.675-.208 1.35-.07 1.957.209.945.417 1.958.556 2.902.556.068 0 .068-.07.068-.14l-8.368-8.27c-.068 0-.135 0-.135.07z" fill="#CBB292"/>
        <ellipse fill="#ECF0F1" cx="6.134" cy="3.398" rx="3.172" ry="3.127"/>
        <path d="M4.379 3.746c-.203 0-.338-.14-.338-.348 0-1.112.945-2.085 2.093-2.085.202 0 .337.14.337.348 0 .208-.135.347-.337.347-.743 0-1.418.626-1.418 1.39 0 .209-.135.348-.337.348z" fill="#FFF"/>
        <path d="M18.011 1.939c-2.43-2.363-6.411-2.502-9.65-.765 1.214 1.182 1.214 3.197 0 4.378a3.217 3.217 0 0 1-4.32.14c-.337.764-.54 1.459-.54 2.223 0-.07.068-.07.136 0l8.368 8.27c.067.07 0 .14-.068.14 1.755-.07 3.51-.973 5.13-2.572 3.441-3.405 3.981-8.826.944-11.814z" fill="#E64C3C"/>
    </g>
</svg>
