<svg width="20" height="20" viewBox="0 0 20 20" xmlns="http://www.w3.org/2000/svg">
    <g fill-rule="nonzero" fill="none">
        <circle fill="#94E061" cx="10" cy="10" r="10"/>
        <path d="M7.143 19.592c-.612-.204-1.225-.408-1.837-.748.68-1.973.748-4.422-.544-6.531C3.605 10.476 1.769 9.456 0 8.98c.068-.613.204-1.225.34-1.837 2.45.34 4.83 2.04 6.259 4.626 1.496 2.653 1.632 5.578.544 7.823z" fill="#E9EFF4"/>
        <path d="M14.762 18.776c-4.49 2.448-9.932 1.088-12.857-2.926 3.061 2.721 7.619 3.402 11.428 1.293C18.163 14.49 20 8.435 17.347 3.605c-.204-.408-.476-.748-.68-1.088.816.748 1.564 1.633 2.109 2.721 2.653 4.83.816 10.884-4.014 13.538z" fill="#70CF3D"/>
        <path d="m7.619 18.367-.408 1.225c-.068 0-.068 0-.136-.068a3.934 3.934 0 0 1-.953-.34c-.068 0-.748-.34-.748-.34.068-.273.204-.613.272-.885.613.204 1.293.34 1.973.408z" fill="#D3DCE2"/>
        <path d="M19.932 10.952a13.584 13.584 0 0 1-.34 1.77c-2.381-.41-4.694-2.042-6.123-4.627-1.36-2.585-1.496-5.442-.544-7.687a12.66 12.66 0 0 1 1.7.68c-.543 1.701-.68 3.81.205 5.783 1.02 2.313 3.13 3.537 5.102 4.081z" fill="#E9EFF4"/>
        <path d="M19.932 10.952c0 .204-.068.477-.068.68 0 .069-.204 1.09-.272 1.09-.612-.137-1.225-.273-1.769-.545.272-.612.408-1.225.544-1.837.545.272 1.02.476 1.565.612z" fill="#D3DCE2"/>
        <path d="M19.932 10.952v1.565c0 .068-.068.136-.068.204-.612-.136-1.225-.272-1.769-.544.272-.612.408-1.225.544-1.837.273.272.749.476 1.293.612z" fill="#D3DCE2"/>
    </g>
</svg>
