<svg width="20" height="20" viewBox="0 0 20 20" xmlns="http://www.w3.org/2000/svg">
    <g fill-rule="nonzero" fill="none">
        <path d="M16.898 5.068A7.319 7.319 0 0 0 11.089.091C8.383-.35 5.677.847 4.092 3.05a7.119 7.119 0 0 0-1.32 4.16c0 1.952.792 3.78 2.178 5.165.925.946 2.113 1.576 3.433 1.89a6.951 6.951 0 0 0 1.65.19c3.498 0 6.535-2.52 7.129-5.986.066-.44.132-.819.132-1.26a12.21 12.21 0 0 0-.396-2.142z" fill="#F3D55B"/>
        <path d="M18.284 18.299c.198 0 .33-.126.33-.315 0-.19-.132-.315-.33-.315h-1.716V16.66h1.716c.198 0 .33-.126.33-.315 0-.19-.132-.315-.33-.315h-1.716V14.33c0-.19-.132-.315-.33-.315s-.396-.063-.396.126v1.7h-1.387v-1.7c0-.19-.132-.315-.33-.315s-.33.126-.33.315v1.7H12.41v-1.7c0-.19-.132-.315-.33-.315s-.33.126-.33.315v1.7h-1.386v-1.7c0-.19-.132-.315-.33-.315s-.33.126-.33.315v1.7H8.317v-1.7c0-.19-.132-.315-.33-.315s-.33.126-.33.315v1.7H6.27v-1.7c0-.19-.132-.315-.33-.315s-.33.126-.33.315v1.7H4.092v-1.7c0-.19-.132-.315-.33-.315s-.33.126-.33.315v1.7H1.716c-.198 0-.33.127-.33.316s.132.315.33.315h1.716v1.008H1.716c-.198 0-.33.126-.33.315s.132.315.33.315h1.716v1.008H1.716c-.198 0-.33.126-.33.315s.132.315.33.315h16.568c.198 0 .33-.126.33-.315 0-.19-.132-.315-.33-.315h-1.716V18.11h1.716v.189zm-2.442-1.764v1.008h-1.387v-1.008h1.387zm-2.047 0v1.008H12.41v-1.008h1.386zm-5.544 1.764h1.386v1.008H8.251v-1.008zm-.66 1.008H6.205v-1.008H7.59v1.008zm2.706-1.008h1.386v1.008h-1.386v-1.008zm2.112 0h1.386v1.008H12.41v-1.008zm-.726-1.764v1.008h-1.386v-1.008h1.386zm-2.046 0v1.008H8.251v-1.008h1.386zm-2.046 0v1.008H6.205v-1.008H7.59zm-3.499 0H5.48v1.008H4.092v-1.008zm0 1.764H5.48v1.008H4.092v-1.008zm11.75 1.008h-1.387v-1.008h1.387v1.008z" fill="#464F5D"/>
        <path d="M1.716 13.826V20H.33c-.198 0-.33-.126-.33-.315v-5.86h1.716zM20 13.826v5.859c0 .189-.132.315-.33.315h-1.386v-6.174H20z" fill="#95A5A5"/>
        <path d="M4.884 12.376C3.036 10.55 2.31 7.84 2.97 5.32c.198-.063.396-.063.594-.063.264-.063.594-.063.858-.063h.33c-.396 1.071-.924 3.465.132 7.182z" fill="#D25627"/>
        <path d="M16.898 5.068c-1.65 3.78-6.337 5.355-7.129 5.607-.066-.44-.132-.882-.132-1.323.066-.567.132-1.134.33-1.7a6.852 6.852 0 0 0 3.036-1.135c.792-.567 1.518-1.26 2.047-2.142.264-.441.528-.945.726-1.45.462.568.858 1.324 1.122 2.143z" fill="#3B97D3"/>
        <path d="M15.05 4.312c-.529.819-1.189 1.575-2.047 2.142-2.772-4.347-8.91-3.34-8.91-3.34v-.062C4.685 2.17 5.544 1.477 6.468.91c3.234-.441 6.468.882 8.58 3.402z" fill="#F0C419"/>
        <path d="M17.228 7.273c0 .441-.066.82-.132 1.26-1.65 2.142-3.895 3.654-6.469 4.474-.396-.694-.726-1.513-.858-2.332.792-.252 5.479-1.827 7.129-5.607.198.693.33 1.45.33 2.205z" fill="#2980BA"/>
        <path d="M17.096 8.533a7.321 7.321 0 0 1-5.479 5.797l-.132-.126a8.02 8.02 0 0 1-.858-1.197 13.492 13.492 0 0 0 6.469-4.474z" fill="#3B97D3"/>
        <path d="M11.617 14.267a7.369 7.369 0 0 1-1.65.189 7.369 7.369 0 0 1-1.65-.19 11.927 11.927 0 0 1-.99-8.505c.99.441 1.848 1.008 2.574 1.827-.198.567-.33 1.134-.33 1.701 0 1.26.33 2.52.99 3.655.264.44.528.819.858 1.197a.818.818 0 0 1 .198.126z" fill="#D25627"/>
        <path d="M8.383 14.33c-1.32-.315-2.508-.945-3.433-1.89-1.122-3.78-.528-6.112-.132-7.246.859.063 1.783.252 2.575.567-.726 2.898-.396 5.922.99 8.569z" fill="#E57E25"/>
        <path d="M9.967 14.456H0V13.07c0-.315.264-.63.66-.63h4.224c.925.945 2.113 1.575 3.433 1.89.594.063 1.122.126 1.65.126zM20 13.133v1.386H9.967c1.914 0 3.696-.756 5.083-2.08h4.224c.396 0 .726.316.726.694z" fill="#BDC3C7"/>
    </g>
</svg>
