<svg width="20" height="20" viewBox="0 0 20 20" xmlns="http://www.w3.org/2000/svg">
    <g fill="none" fill-rule="evenodd">
        <path fill="none" d="M0 0h20v20H0z"/>
        <path d="M18.188 10c0 1.813-.625 3.438-1.625 4.813H3.438c-.563-.75-1.063-1.626-1.313-2.563-.063-.125-.063-.313-.125-.438 0-.124-.063-.25-.063-.374-.062-.438-.125-.876-.125-1.376 0-.374 0-.812.063-1.187 0-.063 0-.188.063-.25 0-.063.062-.188.062-.25.188-.75.438-1.438.813-2.063.062-.125.187-.25.25-.437C4.5 3.5 7.063 2 10 2c.688 0 1.313.063 1.938.25.312.063.562.188.874.25.813.313 1.563.688 2.25 1.25l.188.188.188.187c.562.5 1.062 1.063 1.437 1.688.063.125.188.25.25.437.688 1.063 1.063 2.375 1.063 3.75z" fill="#FCE45B" fill-rule="nonzero"/>
        <path d="M7.188 14.813a7.846 7.846 0 0 1-1.438-3 8.33 8.33 0 0 1-.188-1.75c0-.5.063-1 .125-1.438C6.25 5.5 8.688 3 11.875 2.25A9.54 9.54 0 0 0 10 2.062C6 2 2.625 4.813 1.937 8.563 1.875 9 1.813 9.5 1.813 10c0 .625.063 1.188.188 1.75a7.434 7.434 0 0 0 1.438 3H16.5l-9.313.063z" fill="#EACF4E" fill-rule="nonzero"/>
        <path d="M15.813 6.938c.624 2.437.75 4.937.312 7.437v.25l-.5-.063.063-.25c.374-2.374.312-4.75-.25-7.062l-2.376 1.313c.313 2.062.376 4.187.25 6.25v.437h-.5v-.438c.126-2 .063-4-.25-6l-2.312 1.313v4.188h-.5V13.25c-2.813-1.125-5.438-2.625-7.875-4.438 0-.062 0-.187.063-.25 0-.062.062-.187.062-.25l.125.063C4.438 10.188 7 11.625 9.75 12.75v-2.625l-2.5-1.438-4.438-2.5c.063-.125.188-.25.25-.437l1.313.813c2.125-2 4.75-3.5 7.563-4.313.312.063.562.188.874.25l-.312.063c-2.875.812-5.5 2.25-7.688 4.25l2.375 1.312c2.375-1.813 5.063-3.313 7.875-4.438l.188.188.188.188-.126.062c-2.75 1.063-5.374 2.5-7.687 4.313L9.938 9.75l2.5-1.438h.062l4.438-2.5c.062.125.187.25.25.438l-1.375.688zM5.374 14l-.25.375-.188-.125c-1-.625-1.875-1.313-2.75-2.063-.062-.124-.062-.312-.124-.437 0-.125-.063-.25-.063-.375l.25.25c.875.875 1.875 1.625 2.938 2.313l.187.062z" fill="#D6B21A" fill-rule="nonzero"/>
        <path d="M20 16.938c-1.25 0-1.25.937-2.5.937s-1.25-.938-2.5-.938-1.25.938-2.5.938-1.25-.938-2.5-.938-1.25.938-2.5.938-1.25-.938-2.5-.938-1.25.938-2.5.938-1.25-.938-2.5-.938V13.5c1.25 0 1.25.938 2.5.938S3.75 13.5 5 13.5s1.25.938 2.5.938S8.75 13.5 10 13.5s1.25.938 2.5.938 1.25-.938 2.5-.938 1.25.938 2.5.938 1.25-.938 2.5-.938" fill="#53C5F2" fill-rule="nonzero"/>
    </g>
</svg>
