<svg width="47" height="60" viewBox="0 0 47 60" xmlns="http://www.w3.org/2000/svg">
    <path d="M46.375 60H.625A.623.623 0 0 1 0 59.38V.62C0 .279.28 0 .625 0h45.75c.345 0 .625.278.625.62v58.76c0 .342-.28.62-.625.62zM1.25 58.759h44.5V1.24H1.25V58.76zm25.205-5.801c-3.78 0-6.855-3.053-6.855-6.805V34.812c0-2.74 1.64-5.107 3.996-6.185-2.357-1.077-3.996-3.444-3.996-6.184v-4.89c0-3.752 3.075-6.804 6.855-6.804 3.78 0 6.855 3.052 6.855 6.804v4.89c0 2.74-1.64 5.107-3.996 6.185 2.357 1.078 3.996 3.444 3.996 6.184v11.341c0 3.752-3.075 6.805-6.855 6.805zm0-23.71c-3.09 0-5.604 2.496-5.604 5.564v11.34c0 3.068 2.514 5.564 5.604 5.564 3.09 0 5.604-2.496 5.604-5.563V34.812c0-3.068-2.514-5.564-5.604-5.564zm0-17.258c-3.09 0-5.604 2.496-5.604 5.563v4.89c0 3.068 2.514 5.564 5.604 5.564 3.09 0 5.604-2.496 5.604-5.563v-4.89c0-3.068-2.514-5.564-5.604-5.564zM12.587 52.653a.623.623 0 0 1-.625-.621V12.868l-4.821 4.786a.628.628 0 0 1-.884 0 .617.617 0 0 1 0-.878l5.888-5.846a.629.629 0 0 1 .682-.134.62.62 0 0 1 .386.573v40.663c0 .343-.28.62-.626.62zm24.8-38.291a.623.623 0 0 1-.625-.62v-2.73h-2.749a.623.623 0 0 1-.625-.62c0-.343.28-.62.625-.62h2.749v-2.73c0-.342.28-.62.625-.62s.625.278.625.62v2.73h2.749c.345 0 .625.277.625.62 0 .343-.28.62-.625.62h-2.749v2.73c0 .342-.28.62-.625.62z" fill="#FFE640" fill-rule="nonzero"/>
</svg>
