<svg width="34" height="34" viewBox="0 0 34 34" xmlns="http://www.w3.org/2000/svg">
    <g fill-rule="nonzero" fill="none">
        <path d="M21.007 23.804c-.74-.53-1.268-1.274-1.373-2.23-.317-1.487.422-3.08 1.69-3.823l11.408-6.054C29.986 3.944 22.592-.835 14.88.121c-.633.106-1.267.213-1.901.425-6.55 1.7-11.831 7.54-12.782 14.656-.95 6.69 1.585 13.275 6.55 17.311C7.908 33.47 9.387 34 10.972 34h5.81c1.479 0 2.957-.743 3.908-1.912.95-1.274 1.268-2.867 1.056-4.46l-.739-3.824z" fill="#66B3FF"/>
        <path d="M20.69 32.088c.95-1.274 1.268-2.867 1.056-4.46l-.739-3.824c-.74-.53-1.268-1.274-1.373-2.23-.317-1.487.422-3.08 1.69-3.823l11.408-6.054C29.986 3.944 22.592-.835 14.88.121c-.633.106-1.267.213-1.901.425V34h3.803c1.479 0 2.957-.743 3.908-1.912z" fill="#5990FF"/>
        <path d="M12.873 23.38c-1.69 0-2.957 1.38-2.957 3.186 0 1.805 1.373 3.186 2.957 3.186 1.585 0 2.958-1.38 2.958-3.186s-1.268-3.186-2.958-3.186z" fill="#4D5E80"/>
        <path d="M15.937 26.566c0 1.805-1.374 3.186-2.958 3.186V23.38c1.584 0 2.958 1.38 2.958 3.186z" fill="#3D4566"/>
        <path d="M32.838 31.876h-.95v-7.434c0-.638-.423-1.062-.951-1.062-.529 0-.951.424-.951 1.062v7.434H27.45c-.423 0-.845-.319-.951-.85l-2.64-14.125c-.106-.53-.635-.956-1.163-.85-.528.107-.845.638-.74 1.275L24.6 31.451C24.916 32.938 26.077 34 27.556 34h5.493c.528 0 .951-.425.951-1.062s-.634-1.062-1.162-1.062z" fill="#E1E6F0"/>
        <path d="M32.838 25.504H22.803c-2.007 0-3.803-1.487-4.12-3.611-.422-2.018.528-4.036 2.218-4.992l11.514-6.16c.529-.212 1.057 0 1.374.425.211.531 0 1.169-.423 1.38l-11.514 6.16c-.95.532-1.373 1.594-1.162 2.656.211 1.168 1.162 1.911 2.218 1.911h10.036c.528 0 .95.425.95 1.062 0 .638-.528 1.169-1.056 1.169zm-19.965 0c-.528 0-.95.425-.95 1.062s.422 1.062.95 1.062.951-.425.951-1.062c.106-.637-.317-1.062-.95-1.062z" fill="#F3F5F9"/>
        <path d="M13.93 26.566c0 .637-.423 1.062-.951 1.062v-2.124c.528 0 .95.425.95 1.062z" fill="#E1E6F0"/>
    </g>
</svg>
