<svg width="34" height="34" viewBox="0 0 34 34" xmlns="http://www.w3.org/2000/svg">
    <g fill-rule="nonzero" fill="none">
        <path d="M34 17.688c-.212 4.131-1.8 8.156-4.978 11.334-3.178 3.177-7.203 4.766-11.334 4.978H16.63c-4.236-.106-8.367-1.695-11.65-4.978C1.694 25.738.105 21.607 0 17.37v-1.06c.212-4.13 1.8-8.155 4.978-11.333C8.156 1.801 12.181.212 16.312 0h1.059c4.236.106 8.367 1.695 11.65 4.978C32.306 8.262 33.895 12.393 34 16.63v1.06z" fill="#FCF6D6"/>
        <path d="M12.18 29.022c-6.566-6.673-6.566-17.37 0-24.044 2.437-2.436 5.297-3.919 8.368-4.554C15.146-.741 9.321.74 5.084 4.978c-6.567 6.673-6.567 17.37 0 24.044 4.237 4.237 10.168 5.72 15.57 4.554-3.071-.635-6.037-2.224-8.473-4.554z" fill="#EAE3C5"/>
        <path d="M17.37 0c0 4.66-1.906 8.897-5.083 12.18-3.178 3.284-7.52 5.085-12.181 5.19v-1.058c4.343 0 8.368-1.801 11.44-4.767 3.07-3.071 4.766-7.096 4.766-11.44C16.735 0 17.053 0 17.37 0zM34 17.688c-4.343 0-8.368 1.801-11.44 4.767-3.07 3.071-4.766 7.096-4.766 11.44h-1.059c0-4.661 1.907-8.898 5.084-12.182C24.997 18.43 29.445 16.63 34 16.63v1.06z" fill="#C1BBA0"/>
        <path d="M31.352 19.277c-.106 0-.212 0-.318-.106-.212-.211-.317-.53-.106-.741.53-.636.424-1.589-.211-2.118-.212-.212-.318-.53-.106-.742.211-.212.53-.318.741-.106 1.06.848 1.271 2.436.424 3.496-.106.317-.318.317-.424.317zm-2.648.636c-.106 0-.212 0-.212-.106-.212-.106-.318-.424-.212-.742.212-.317.212-.635.106-.953-.106-.318-.317-.635-.635-.741-.212-.106-.318-.424-.212-.742.106-.212.424-.317.741-.212.53.318.954.848 1.06 1.377a2.136 2.136 0 0 1-.212 1.801c-.106.212-.212.318-.424.318zm-2.542 1.059h-.212c-.318-.106-.424-.424-.318-.636.106-.317.106-.635-.106-.847-.105-.318-.423-.53-.635-.53-.318-.105-.424-.423-.318-.635.106-.318.424-.424.636-.318.53.212.953.53 1.27 1.06.213.529.319 1.165.107 1.694 0 .106-.212.212-.424.212zm-2.33 1.589c-.318 0-.53-.318-.53-.53.106-.635-.318-1.165-.953-1.165-.318 0-.53-.318-.424-.53 0-.317.318-.53.53-.423 1.165.106 2.012 1.165 1.906 2.33 0 .106-.211.318-.53.318zm-1.907 2.012c-.212 0-.53-.212-.53-.423-.105-.636-.635-1.06-1.164-.954-.318 0-.53-.212-.53-.423 0-.318.212-.53.424-.53 1.165-.106 2.224.741 2.33 1.907 0 .105-.212.423-.53.423zm-1.483 2.225a.582.582 0 0 1-.53-.318 1.085 1.085 0 0 0-.529-.636c-.318-.106-.635-.212-.847-.106-.318.106-.53-.106-.636-.317-.106-.318.106-.53.318-.636.53-.212 1.165-.106 1.695.106s.953.741 1.059 1.271c.106.318-.106.53-.318.636h-.212zm-1.059 2.436c-.212 0-.318-.106-.423-.318-.212-.318-.424-.53-.742-.636-.318-.106-.635-.106-.953.106-.212.106-.53 0-.742-.212-.106-.211 0-.53.212-.741a2.136 2.136 0 0 1 1.8-.212c.636.212 1.06.53 1.378 1.06.106.211 0 .529-.212.74-.106.213-.212.213-.318.213zm-.53 2.542c-.105 0-.317-.106-.423-.212-.53-.636-1.483-.742-2.118-.212-.212.212-.53.106-.742-.106-.212-.212-.106-.53.106-.741 1.06-.848 2.648-.636 3.495.423.212.212.106.53-.106.742 0 .106-.105.106-.211.106zM18.007 3.6c-.106 0-.318-.106-.423-.212-.212-.317-.636-.53-.954-.53a1.79 1.79 0 0 0-1.059.319c-.212.211-.53.105-.741-.106-.212-.212-.106-.53.106-.742.53-.423 1.165-.635 1.906-.53.636.107 1.271.424 1.695.954.212.212.106.53-.106.741-.212 0-.318.106-.424.106zm-.953 2.966c-.212 0-.318-.106-.424-.318-.317-.635-1.165-.847-1.8-.53-.212.107-.53 0-.742-.211-.106-.212 0-.53.212-.742 1.165-.635 2.542-.211 3.178.954.106.211 0 .53-.212.741 0 0-.106.106-.212.106zm-1.377 2.86a.582.582 0 0 1-.53-.318 1.085 1.085 0 0 0-.53-.635c-.317-.106-.635-.212-.847-.106-.317.106-.53-.106-.635-.318-.106-.318.106-.53.318-.636.53-.212 1.165-.106 1.694.106.53.212.954.742 1.06 1.271.106.318-.106.53-.318.636h-.212zm-2.012 2.648c-.212 0-.53-.212-.53-.424-.106-.635-.636-1.06-1.165-.953-.318 0-.53-.212-.53-.424 0-.318.212-.53.424-.53 1.165-.105 2.224.742 2.33 1.907.106.106-.106.424-.53.424.106 0 .106 0 0 0zm-2.225 2.33c-.106 0-.106 0 0 0-.318 0-.53-.318-.53-.53 0-.317 0-.53-.211-.741-.212-.212-.424-.318-.742-.424-.317 0-.53-.317-.423-.53 0-.317.317-.529.53-.423.529.106 1.058.318 1.376.741.318.424.53.954.424 1.59 0 .105-.212.317-.424.317zm-2.648 1.8H8.58c-.317-.105-.423-.423-.317-.635.106-.318.106-.635-.106-.847-.106-.318-.424-.53-.636-.53-.318-.106-.423-.424-.318-.635.106-.318.424-.424.636-.318.53.212.953.53 1.271 1.06.318.529.318 1.164.106 1.694 0 .106-.212.212-.424.212zm-2.754 1.378c-.106 0-.211 0-.211-.106-.212-.106-.318-.424-.212-.742.212-.318.212-.635.106-.953-.106-.318-.318-.636-.636-.742-.212-.105-.318-.423-.212-.74.106-.213.424-.319.742-.213.53.318.953.848 1.059 1.377a2.136 2.136 0 0 1-.212 1.8c0 .213-.212.319-.424.319zm-2.965.953c-.106 0-.212 0-.318-.106-.212-.212-.318-.53-.106-.742.212-.317.318-.741.318-1.059 0-.423-.212-.741-.53-.953-.212-.318-.212-.636-.106-.847.212-.212.53-.318.742-.106.53.423.847 1.059.953 1.694.106.636-.106 1.377-.53 1.907-.106.106-.212.212-.423.212z" fill="#EA5149"/>
    </g>
</svg>
