<svg width="34" height="34" viewBox="0 0 34 34" xmlns="http://www.w3.org/2000/svg">
    <g fill-rule="nonzero" fill="none">
        <path d="M17 6.6c-.531-.532-.956-1.381-.956-2.019 0-.955 1.062-2.23 1.7-2.76a1.275 1.275 0 0 0 0-1.488c-.319-.425-1.063-.425-1.381-.106-.213.213-2.338 2.23-2.338 4.354 0 2.125 2.125 4.036 2.338 4.249.637.53 1.7 1.805 1.7 2.76 0 .957-1.063 2.125-1.7 2.762-.425.319-.425.956-.107 1.38.319.426.956.426 1.381.107.213-.212 2.338-2.124 2.338-4.248 0-2.443-2.338-4.248-2.975-4.992z" fill="#3B4A51"/>
        <path d="M24.544 12.016c-1.7 0-2.55.53-3.294 1.062-.637.425-1.169.743-2.231.956h-3.931c-1.275-.213-1.807-.531-2.338-.956-.744-.531-1.488-1.062-3.294-1.062C3.72 12.016 0 23.06 0 28.796 0 33.469 2.125 34 3.081 34c1.594 0 3.613-1.168 5.95-3.717 1.381-1.487 3.294-2.337 5.207-2.337h5.63c1.913 0 3.826.85 5.207 2.337C27.413 32.726 29.431 34 31.025 34c1.063 0 1.913-.637 2.444-1.7.425-.849.531-2.017.531-3.398 0-5.841-3.719-16.886-9.456-16.886z" fill="#596C76"/>
        <path d="M24.969 30.283C27.306 32.726 29.325 34 30.919 34c1.062 0 1.912-.637 2.443-1.7.425-.849.532-2.017.532-3.398 0-5.735-3.719-16.78-9.456-16.78-1.7 0-2.55.531-3.294 1.062-.638.425-1.169.743-2.231.956H17v13.913h2.869c1.912-.107 3.718.85 5.1 2.23z" fill="#465A61"/>
        <path d="M11.05 19.981H9.987v-.956a.952.952 0 0 0-.956-.956.952.952 0 0 0-.956.956v.956H7.013a.952.952 0 0 0-.957.956c0 .53.425.956.957.956h.956v.956c0 .53.425.955.956.955a.952.952 0 0 0 .956-.955v-.956h.957a.952.952 0 0 0 .956-.956c.212-.531-.213-.956-.744-.956z" fill="#F0F7FF"/>
        <circle fill="#F8BB5E" cx="24.969" cy="19.025" r="1"/>
        <circle fill="#59C36A" cx="24.969" cy="22.955" r="1"/>
        <circle fill="#73BCFF" cx="22.95" cy="20.937" r="1"/>
        <circle fill="#FF4B00" cx="26.988" cy="20.937" r="1"/>
        <path d="M19.019 19.981H14.98a.952.952 0 0 0-.956.956c0 .53.425.956.956.956h4.038a.952.952 0 0 0 .956-.956.952.952 0 0 0-.956-.956z" fill="#F0F7FF"/>
        <path d="M19.975 20.937a.952.952 0 0 0-.956-.956H17V22h2.019c.531 0 .956-.425.956-1.062z" fill="#DFE7F4"/>
    </g>
</svg>
