<svg width="34" height="34" viewBox="0 0 34 34" xmlns="http://www.w3.org/2000/svg" xmlns:xlink="http://www.w3.org/1999/xlink">
    <defs>
        <path id="jy8bd7505a" d="M0 34h34V0H0z"/>
        <path id="4j5fxdceec" d="M0 0v11.525h6.357V0z"/>
    </defs>
    <g fill="none" fill-rule="evenodd">
        <path d="M17 33.237c8.967 0 16.237-7.27 16.237-16.237C33.237 8.033 25.967.763 17 .763 8.033.763.763 8.033.763 17c0 8.967 7.27 16.237 16.237 16.237" fill="#FEFEFE" fill-rule="nonzero"/>
        <path d="m23.446 2.096 1.043 5.379 6.176.76a16.292 16.292 0 0 0-7.219-6.139m7.091 23.867a16.156 16.156 0 0 0 2.663-9.999l-4.794 3.504 2.131 6.495zm-7.674 6.178-5.75-3.982-5.473 4.168c1.68.587 3.481.91 5.36.91 2.068 0 4.044-.39 5.863-1.096" fill="#4C4C4C" fill-rule="nonzero"/>
        <g>
            <mask id="kzlz9kumsb" fill="#fff">
                <use xlink:href="#jy8bd7505a"/>
            </mask>
            <path d="M17 1.526C8.468 1.526 1.526 8.468 1.526 17S8.468 32.474 17 32.474 32.473 25.532 32.473 17 25.533 1.526 17 1.526M17 34C7.626 34 0 26.373 0 17 0 7.626 7.626 0 17 0c9.374 0 17 7.626 17 17 0 9.373-7.626 17-17 17" fill="#2E2E30" fill-rule="nonzero" mask="url(#kzlz9kumsb)"/>
        </g>
        <path fill="#4C4C4C" fill-rule="nonzero" d="m17 23.03-6.34-4.606 2.422-7.454h7.836l2.422 7.454z"/>
        <path d="M11.557 18.132 17 22.086l5.443-3.954-2.079-6.399h-6.728l-2.079 6.399zM17 23.793a.767.767 0 0 1-.449-.145l-6.34-4.607a.764.764 0 0 1-.277-.854l2.421-7.453a.764.764 0 0 1 .726-.527h7.837c.331 0 .624.213.726.527l2.422 7.453a.765.765 0 0 1-.277.854l-6.34 4.607a.765.765 0 0 1-.449.145z" fill="#2E2E30" fill-rule="nonzero"/>
        <path d="M11.498 1.721A16.277 16.277 0 0 0 3.62 7.803l6.607-.58 1.27-5.502z" fill="#4C4C4C" fill-rule="nonzero"/>
        <path d="M10.42 2.995c-1.95.922-3.71 2.259-5.129 3.895l4.318-.378.811-3.517zM3.621 8.566a.763.763 0 0 1-.629-1.196 16.934 16.934 0 0 1 8.246-6.366.763.763 0 0 1 1.003.889l-1.27 5.502a.764.764 0 0 1-.676.589l-6.607.579a.739.739 0 0 1-.067.003zm21.512-1.78 3.89.478a15.426 15.426 0 0 0-4.535-3.806l.645 3.327zm5.532 2.213a.735.735 0 0 1-.094-.006l-6.175-.76a.763.763 0 0 1-.656-.613l-1.043-5.378a.764.764 0 0 1 1.053-.846 16.98 16.98 0 0 1 7.557 6.428.764.764 0 0 1-.642 1.175zM13.297 32.025c2.579.636 5.327.592 7.878-.124l-4.04-2.8-3.838 2.924zM17 34c-1.917 0-3.805-.32-5.611-.953a.763.763 0 0 1-.21-1.328l5.472-4.168a.763.763 0 0 1 .897-.02l5.75 3.982a.765.765 0 0 1-.159 1.34A16.922 16.922 0 0 1 17 34z" fill="#2E2E30" fill-rule="nonzero"/>
        <path d="M5.594 19.468.8 15.964a16.156 16.156 0 0 0 2.663 10l2.13-6.496z" fill="#4C4C4C" fill-rule="nonzero"/>
        <g transform="translate(0 15.2)">
            <mask id="qy756axedd" fill="#fff">
                <use xlink:href="#4j5fxdceec"/>
            </mask>
            <path d="M1.533 2.245a15.397 15.397 0 0 0 1.73 6.678l1.433-4.366-3.163-2.312zm1.93 9.28a.763.763 0 0 1-.636-.341A16.916 16.916 0 0 1 .038.716.764.764 0 0 1 1.249.147l4.795 3.505c.267.194.378.54.274.853L4.188 11a.764.764 0 0 1-.725.525z" fill="#2E2E30" fill-rule="nonzero" mask="url(#qy756axedd)"/>
        </g>
        <path fill="#FEFEFE" fill-rule="nonzero" d="m13.081 10.97-2.69-3.526"/>
        <path d="M13.082 11.733a.76.76 0 0 1-.607-.3l-2.69-3.525a.763.763 0 1 1 1.213-.926l2.69 3.525a.763.763 0 0 1-.606 1.226" fill="#2E2E30" fill-rule="nonzero"/>
        <path fill="#FEFEFE" fill-rule="nonzero" d="m20.918 10.97 3.571-3.495"/>
        <path d="M20.919 11.733a.763.763 0 0 1-.534-1.309l3.57-3.494a.763.763 0 1 1 1.068 1.09l-3.57 3.496a.76.76 0 0 1-.534.217" fill="#2E2E30" fill-rule="nonzero"/>
        <path fill="#FEFEFE" fill-rule="nonzero" d="m10.66 18.424-5.066 1.044"/>
        <path d="M5.592 20.232a.763.763 0 0 1-.153-1.511l5.067-1.045a.764.764 0 0 1 .308 1.495l-5.066 1.045a.769.769 0 0 1-.156.016M29.304 19.757l1.433 4.367a15.393 15.393 0 0 0 1.73-6.678l-3.163 2.311zm1.234 6.97a.764.764 0 0 1-.725-.525l-2.131-6.496a.76.76 0 0 1 .274-.854l4.794-3.504a.765.765 0 0 1 1.212.568 16.922 16.922 0 0 1-2.788 10.469.763.763 0 0 1-.636.341z" fill="#2E2E30" fill-rule="nonzero"/>
        <path fill="#FEFEFE" fill-rule="nonzero" d="m23.34 18.424 5.066 1.044"/>
        <path d="M28.407 20.232a.769.769 0 0 1-.155-.016l-5.066-1.045a.763.763 0 1 1 .309-1.495l5.065 1.045a.763.763 0 0 1-.153 1.51" fill="#2E2E30" fill-rule="nonzero"/>
        <path fill="#FEFEFE" fill-rule="nonzero" d="M17.051 23.03v5.128"/>
        <path d="M17 28.922a.764.764 0 0 1-.763-.764V23.03a.764.764 0 0 1 1.526 0v5.128a.764.764 0 0 1-.763.764" fill="#2E2E30" fill-rule="nonzero"/>
    </g>
</svg>
