<svg width="12" height="10" viewBox="0 0 12 10" xmlns="http://www.w3.org/2000/svg">
    <path d="m6 2.019 4.28 3.694c.005.01.007.026.007.047V9.5a.49.49 0 0 1-.141.352.448.448 0 0 1-.335.148H6.953V7.007H5.047V10H2.19a.448.448 0 0 1-.335-.148.49.49 0 0 1-.141-.351V5.76c0-.006.001-.013.004-.023l.002-.014.001-.01L6 2.02zM6 0c.219 0 .407.068.566.203l1.816 1.59V.273a.25.25 0 0 1 .067-.18.227.227 0 0 1 .171-.07h1.43c.069 0 .126.024.17.07a.249.249 0 0 1 .067.18v3.18l1.63 1.418A.23.23 0 0 1 12 5.04a.26.26 0 0 1-.052.183l-.461.577a.25.25 0 0 1-.157.085h-.022a.223.223 0 0 1-.156-.054L6 1.333.85 5.83a.268.268 0 0 1-.18.055.25.25 0 0 1-.156-.086l-.461-.577A.26.26 0 0 1 0 5.04a.23.23 0 0 1 .082-.168L5.435.203A.845.845 0 0 1 6 0z" fill="#000" fill-rule="nonzero"/>
</svg>
