<svg width="34" height="34" viewBox="0 0 34 34" xmlns="http://www.w3.org/2000/svg">
    <g fill="none" fill-rule="evenodd">
        <path d="M20.465 28.728c-1.408 2.152-2.707 2.69-4.656 2.797-1.408.108-2.815 0-4.115-.107-3.356-.538-5.847-1.399-7.904-2.475-3.682-2.26-3.032-7.747 1.083-6.563l8.554 2.367c2.598.753 4.548-.753 5.739-3.336l1.19-2.474 2.491-.43 1.516 2.151-3.898 8.07z" fill="#FFC343"/>
        <path fill="#EB5468" d="m29.452 9.791-2.598.215-1.625-1.936 1.408-3.12 2.49.107 1.733 1.721-1.408 3.013z"/>
        <path d="m30.968 6.67-4.223-1.72L28.911.322c0-.215.108-.323.325-.323h4.547c.109 0 .217.108.217.323L30.968 6.67z" fill="#FFC343"/>
        <path fill="#EFF6F7" d="m25.23 8.07 4.222 1.721-5.089 10.76-4.006-1.614z"/>
        <path d="M10.07 28.835c.866 0 1.516.646 1.516 1.507v2.152c0 .86-.65 1.506-1.516 1.506H1.516C.65 34 0 33.354 0 32.494v-2.152c0-.861.65-1.507 1.516-1.507h8.554z" fill="#547884"/>
        <path d="m20.465 28.728 3.898-8.177-2.166-.861-3.898 8.177c-1.407 2.152-2.707 2.69-4.656 2.798h-1.949v.753c1.3.215 2.707.215 4.115.107 1.84-.215 3.248-.753 4.656-2.797z" fill="#FEA610"/>
        <path fill="#CBE4E7" d="m24.363 20.55 5.09-10.759-2.166-.86-5.09 10.759z"/>
        <path fill="#E5384F" d="m29.452 9.791 1.516-3.12-2.165-.86-1.516 3.12z"/>
        <path d="M30.968 6.67 34 .324C34 .108 33.892 0 33.783 0h-2.165l-2.815 5.81 2.165.86z" fill="#FEA610"/>
        <path d="M11.586 31.31v-1.076c0-.86-.65-1.506-1.516-1.506H7.255c.866 0 1.516.645 1.516 1.506v2.152c0 .86-.65 1.506-1.516 1.506h2.815c.866 0 1.516-.645 1.516-1.506V31.31z" fill="#3D5959"/>
    </g>
</svg>
