<svg width="20" height="20" viewBox="0 0 20 20" xmlns="http://www.w3.org/2000/svg">
    <path d="M18.9 0A1.1 1.1 0 0 1 20 1.1v17.8a1.1 1.1 0 0 1-1.1 1.1H1.1A1.1 1.1 0 0 1 0 18.9V1.1A1.1 1.1 0 0 1 1.1 0zm-5.84 2.65H6.94l-.308.017A5.73 5.73 0 0 0 5.13 3c-.477.18-.91.46-1.27.82A3.51 3.51 0 0 0 3 5.13a5.49 5.49 0 0 0-.34 1.81v6.12c.01.618.126 1.23.34 1.81.178.478.458.911.82 1.27a3.51 3.51 0 0 0 1.31.86 5.73 5.73 0 0 0 1.81.35h6.12a5.73 5.73 0 0 0 1.81-.35A3.86 3.86 0 0 0 17 14.87a5.73 5.73 0 0 0 .39-1.8v-.01c.004-.103.006-.196.007-.285v-.173c-.004-.51-.047-.99-.047-2.602V6.94A5.73 5.73 0 0 0 17 5.13a3.51 3.51 0 0 0-.82-1.27A3.51 3.51 0 0 0 14.87 3a5.73 5.73 0 0 0-1.81-.35zM13 4a4 4 0 0 1 1.38.22 2.38 2.38 0 0 1 1.41 1.41v-.01c.172.44.26.908.26 1.38v6a4 4 0 0 1-.26 1.38 2.38 2.38 0 0 1-1.41 1.41 4 4 0 0 1-1.38.26H7l-.272-.018a4.27 4.27 0 0 1-1.058-.242 2.38 2.38 0 0 1-1.41-1.41A4.27 4.27 0 0 1 4 13V7a4.27 4.27 0 0 1 .21-1.38 2.38 2.38 0 0 1 1.41-1.36A4 4 0 0 1 7 4zm-.285 3.302A3.82 3.82 0 0 0 6.19 10l.006.233A3.81 3.81 0 0 0 10 13.82a3.82 3.82 0 0 0 2.715-6.518zM10 7.52a2.48 2.48 0 1 1 0 4.96 2.48 2.48 0 0 1 0-4.96zm4-2.38-.112.019A.9.9 0 0 0 14 6.93a.9.9 0 0 0 0-1.79z" fill="#FFF" fill-rule="nonzero"/>
</svg>
