<svg width="34" height="34" viewBox="0 0 34 34" xmlns="http://www.w3.org/2000/svg">
    <g fill-rule="nonzero" fill="none">
        <circle fill="#FFA40B" cx="17" cy="17" r="17"/>
        <path d="M19.672 33.778a17 17 0 0 0 .217-.026 17 17 0 0 0 1.658-.373 17 17 0 0 0 1.614-.534 17 17 0 0 0 4.405-2.527 17 17 0 0 0 5.094-6.698 17 17 0 0 0 .512-1.405l-7.179-7.18c-.111-.038-.205-.078-.375-.12-.513-.125-1.23-.237-1.967-.34l-.55-.08-6.047-6.046c-.072.092-.14.171-.233.32-.279.446-.607 1.092-.933 1.76-.324.666-.648 1.355-.941 1.924-.13.258-.273.511-.425.757-.136.216-.233.39-.483.567-.248.177-.447.214-.697.274-.248.056-.536.106-.852.152-.636.093-1.396.175-2.133.265-.739.092-1.458.193-1.972.31-.17.04-.266.077-.378.115.065.098.12.186.233.32.209.247.484.536.788.839l2.84 2.84c.116.143.219.283.288.506.093.29.068.49.047.743-.027.287-.066.573-.117.857-.109.63-.267 1.375-.408 2.104-.136.65-.24 1.306-.314 1.966-.016.174-.01.275-.008.393l8.316 8.317z" fill="#FF7712"/>
        <path d="M17.051 8.444c.07.094.137.174.226.324.273.45.591 1.102.905 1.774.315.673.626 1.368.91 1.943.143.286.277.543.411.761.133.219.23.394.475.575.246.182.443.221.692.285.248.062.533.114.85.166.634.103 1.392.197 2.128.299.738.103 1.454.216 1.967.34.17.042.265.081.377.12-.069.097-.124.185-.238.316-.347.397-.87.901-1.414 1.406-.545.506-1.11 1.017-1.57 1.464-.23.223-.433.432-.6.625-.167.193-.305.339-.401.628-.098.289-.074.488-.058.743.017.254.055.541.104.859.098.632.243 1.38.373 2.11s.244 1.446.283 1.972c.013.172.004.275 0 .393-.112-.034-.214-.06-.374-.128-.485-.206-1.127-.546-1.777-.906-.65-.36-1.312-.739-1.882-1.037a10.205 10.205 0 0 0-.78-.376c-.237-.098-.418-.184-.724-.187-.306 0-.489.082-.726.176-.238.095-.5.22-.787.363-.572.288-1.243.658-1.899 1.007-.656.35-1.302.678-1.79.876-.162.066-.263.09-.377.123-.002-.118-.009-.22.007-.393.047-.525.173-1.239.315-1.966.141-.728.3-1.474.407-2.105.051-.284.09-.57.117-.857.02-.254.047-.453-.045-.744s-.227-.438-.39-.635c-.188-.219-.385-.43-.592-.634-.45-.455-1.01-.974-1.546-1.488a21.269 21.269 0 0 1-1.39-1.43c-.112-.132-.167-.22-.232-.318.111-.038.208-.076.377-.115.515-.119 1.234-.219 1.973-.309.737-.09 1.497-.171 2.133-.264.318-.046.604-.095.853-.154.249-.058.447-.095.695-.273.249-.178.35-.352.485-.568a9.96 9.96 0 0 0 .422-.754c.293-.57.617-1.26.942-1.928.283-.598.594-1.185.933-1.759.093-.148.16-.227.232-.32z" fill="#FFF"/>
    </g>
</svg>
