<svg width="34" height="34" viewBox="0 0 34 34" xmlns="http://www.w3.org/2000/svg">
    <g fill-rule="nonzero" fill="none">
        <circle fill="#94E061" cx="17" cy="17" r="17"/>
        <path d="M12.143 33.306c-1.041-.347-2.082-.694-3.123-1.272 1.157-3.354 1.273-7.517-.925-11.102C6.13 17.81 3.007 16.075 0 15.265c.116-1.04.347-2.081.578-3.122 4.163.578 8.211 3.47 10.64 7.864 2.544 4.51 2.775 9.483.925 13.3z" fill="#E9EFF4"/>
        <path d="M25.095 31.918c-7.632 4.164-16.884 1.85-21.857-4.972 5.204 4.625 12.952 5.782 19.429 2.197C30.877 24.633 34 14.34 29.49 6.129c-.347-.694-.81-1.272-1.157-1.85 1.388 1.272 2.66 2.775 3.585 4.626 4.51 8.21 1.388 18.503-6.823 23.013z" fill="#70CF3D"/>
        <path d="m12.952 31.224-.693 2.082c-.116 0-.116 0-.232-.116a6.687 6.687 0 0 1-1.619-.578c-.115 0-1.272-.578-1.272-.578.116-.463.347-1.04.463-1.503 1.04.347 2.197.578 3.353.693z" fill="#D3DCE2"/>
        <path d="M33.884 18.619c-.115 1.04-.347 2.082-.578 3.007-4.047-.694-7.98-3.47-10.408-7.864-2.313-4.395-2.544-9.252-.925-13.068 1.04.347 1.966.694 2.89 1.156-.924 2.891-1.156 6.477.348 9.83 1.735 3.932 5.32 6.014 8.673 6.939z" fill="#E9EFF4"/>
        <path d="M33.884 18.619c0 .347-.115.81-.115 1.157 0 .115-.347 1.85-.463 1.85-1.04-.231-2.082-.463-3.007-.925.463-1.041.694-2.082.925-3.123.926.463 1.735.81 2.66 1.041z" fill="#D3DCE2"/>
        <path d="M33.884 18.619v2.66c0 .116-.115.231-.115.347-1.041-.231-2.082-.463-3.007-.925.462-1.041.694-2.082.925-3.123.463.463 1.272.81 2.197 1.041z" fill="#D3DCE2"/>
    </g>
</svg>
