<svg width="20" height="20" viewBox="0 0 20 20" xmlns="http://www.w3.org/2000/svg">
    <path d="M18.9 0A1.1 1.1 0 0 1 20 1.1v17.8a1.1 1.1 0 0 1-1.1 1.1H1.1A1.1 1.1 0 0 1 0 18.9V1.1A1.1 1.1 0 0 1 1.1 0zm-8.783 4.999h-.268l-.283.002c-.887.006-2.965.031-4.467.142-.274.032-.87.035-1.403.602-.419.432-.556 1.413-.556 1.413S3 8.308 3 9.458v1.08c0 1.15.14 2.3.14 2.3s.136.98.556 1.412c.534.565 1.232.548 1.544.607C6.36 14.967 10 15 10 15H10.148c.405-.003 1.586-.012 2.83-.053l.44-.015a44.85 44.85 0 0 0 1.483-.08c.274-.033.87-.036 1.403-.602.419-.43.556-1.411.556-1.411s.14-1.151.14-2.302V9.458c0-1.15-.14-2.301-.14-2.301s-.136-.98-.556-1.413c-.533-.566-1.13-.569-1.403-.601-1.502-.11-3.58-.136-4.467-.142l-.283-.002h-.064zm-1.865 2.5 4.376 2.5-4.376 2.5v-5z" fill="#FFF" fill-rule="nonzero"/>
</svg>
